<svg xmlns="http://www.w3.org/2000/svg" width="529" height="80" viewBox="0 0 529 80" fill="none"><path fill-rule="evenodd" clip-rule="evenodd" d="M21.9325 25.8824L18.9412 25.8824C8.48026 25.8824 0 34.3626 0 44.8235V61.0588C0 71.5198 8.48026 80 18.9412 80H35.1765C45.6374 80 54.1177 71.5198 54.1177 61.0588V59.8478C36.2774 59.534 21.9118 44.974 21.9118 27.0588C21.9118 26.665 21.9187 26.2728 21.9325 25.8824ZM27.6722 25.8824C27.6555 26.2724 27.6471 26.6646 27.6471 27.0588C27.6471 41.8064 39.4451 53.7984 54.1177 54.1114V44.8235C54.1177 34.3626 45.6374 25.8824 35.1765 25.8824H27.6722Z" fill="#1854FF"></path><path d="M81.7647 27.0588C81.7647 42.003 69.6501 54.1177 54.7059 54.1177C39.7617 54.1177 27.6471 42.003 27.6471 27.0588C27.6471 12.1146 39.7617 0 54.7059 0C69.6501 0 81.7647 12.1146 81.7647 27.0588Z" fill="#A9BEFD"></path><path fill-rule="evenodd" clip-rule="evenodd" d="M54.1206 54.1114V44.8235C54.1206 34.3626 45.6403 25.8824 35.1794 25.8824H27.6751C27.6584 26.2724 27.65 26.6646 27.65 27.0588C27.65 41.8064 39.448 53.7984 54.1206 54.1114Z" fill="#4B79FE"></path><path d="M111.765 69.0743V18.7798H129.892C132.567 18.7798 135.061 19.0369 137.375 19.5512C139.74 20.0655 141.797 20.9397 143.546 22.1739C145.294 23.3567 146.683 24.9509 147.711 26.9565C148.74 28.9621 149.254 31.4563 149.254 34.439C149.254 38.1417 148.431 41.2015 146.786 43.6185C145.192 45.9841 143.032 47.7583 140.306 48.9411L151.723 69.0743H138.995L129.352 50.9467H123.104V69.0743H111.765ZM123.104 41.9215H128.967C131.949 41.9215 134.212 41.3043 135.755 40.0701C137.349 38.7845 138.146 36.9074 138.146 34.439C138.146 31.9705 137.349 30.2478 135.755 29.2707C134.212 28.2936 131.949 27.805 128.967 27.805H123.104V41.9215Z" fill="#1854FF"></path><path d="M174.518 70C171.793 70 169.247 69.5629 166.882 68.6886C164.516 67.763 162.459 66.4516 160.711 64.7546C158.962 63.0061 157.599 60.8976 156.622 58.4292C155.645 55.9607 155.157 53.1323 155.157 49.9439C155.157 46.8583 155.671 44.0813 156.699 41.6129C157.728 39.093 159.065 36.9846 160.711 35.2875C162.408 33.539 164.336 32.202 166.496 31.2763C168.656 30.3506 170.893 29.8878 173.207 29.8878C175.933 29.8878 178.298 30.3506 180.304 31.2763C182.361 32.202 184.058 33.4876 185.395 35.1332C186.783 36.7789 187.812 38.7331 188.481 40.9958C189.149 43.2071 189.483 45.6241 189.483 48.2468C189.483 49.2754 189.432 50.2525 189.329 51.1781C189.226 52.1038 189.123 52.798 189.021 53.2609H166.11C166.625 56.0379 167.756 58.0949 169.504 59.432C171.304 60.7176 173.49 61.3605 176.061 61.3605C178.787 61.3605 181.538 60.5119 184.315 58.8149L188.095 65.6802C186.141 67.0173 183.955 68.0715 181.538 68.8429C179.172 69.6143 176.833 70 174.518 70ZM166.033 45.7784H179.841C179.841 43.6185 179.352 41.87 178.375 40.533C177.398 39.1959 175.753 38.5273 173.438 38.5273C171.639 38.5273 170.044 39.1187 168.656 40.3015C167.319 41.4843 166.445 43.31 166.033 45.7784Z" fill="#1854FF"></path><path d="M207.733 70C205.779 70 204.133 69.6914 202.796 69.0743C201.459 68.4572 200.379 67.6087 199.556 66.5288C198.785 65.3974 198.219 64.0603 197.859 62.5175C197.499 60.9233 197.319 59.1491 197.319 57.195V15H208.658V57.6578C208.658 58.8406 208.864 59.6634 209.275 60.1262C209.738 60.5891 210.201 60.8205 210.664 60.8205C210.921 60.8205 211.127 60.8205 211.281 60.8205C211.487 60.8205 211.744 60.7691 212.052 60.6662L213.441 69.0743C212.824 69.3315 212.027 69.5372 211.05 69.6914C210.124 69.8971 209.018 70 207.733 70Z" fill="#1854FF"></path><path d="M236.516 70C233.79 70 231.245 69.5629 228.879 68.6886C226.513 67.763 224.456 66.4516 222.708 64.7546C220.959 63.0061 219.597 60.8976 218.62 58.4292C217.642 55.9607 217.154 53.1323 217.154 49.9439C217.154 46.8583 217.668 44.0813 218.697 41.6129C219.725 39.093 221.062 36.9846 222.708 35.2875C224.405 33.539 226.333 32.202 228.493 31.2763C230.653 30.3506 232.89 29.8878 235.204 29.8878C237.93 29.8878 240.296 30.3506 242.301 31.2763C244.358 32.202 246.055 33.4876 247.392 35.1332C248.781 36.7789 249.809 38.7331 250.478 40.9958C251.146 43.2071 251.481 45.6241 251.481 48.2468C251.481 49.2754 251.429 50.2525 251.326 51.1781C251.224 52.1038 251.121 52.798 251.018 53.2609H228.108C228.622 56.0379 229.753 58.0949 231.502 59.432C233.302 60.7176 235.487 61.3605 238.059 61.3605C240.784 61.3605 243.535 60.5119 246.312 58.8149L250.092 65.6802C248.138 67.0173 245.952 68.0715 243.535 68.8429C241.17 69.6143 238.83 70 236.516 70ZM228.03 45.7784H241.838C241.838 43.6185 241.35 41.87 240.373 40.533C239.396 39.1959 237.75 38.5273 235.436 38.5273C233.636 38.5273 232.042 39.1187 230.653 40.3015C229.316 41.4843 228.442 43.31 228.03 45.7784Z" fill="#1854FF"></path><path d="M267.658 69.0743L254.776 30.8135H266.192L271.129 48.864C271.644 50.7667 272.132 52.7209 272.595 54.7265C273.109 56.6807 273.624 58.6606 274.138 60.6662H274.446C274.909 58.6606 275.372 56.6807 275.835 54.7265C276.349 52.7209 276.863 50.7667 277.378 48.864L282.392 30.8135H293.268L280.772 69.0743H267.658Z" fill="#1854FF"></path><path d="M307.377 70C305.629 70 304.035 69.6914 302.595 69.0743C301.206 68.5086 300.023 67.7115 299.046 66.683C298.069 65.6031 297.298 64.3689 296.732 62.9804C296.218 61.5919 295.961 60.0748 295.961 58.4292C295.961 54.4179 297.658 51.281 301.052 49.0182C304.446 46.7555 309.923 45.2384 317.483 44.467C317.38 42.77 316.865 41.4329 315.94 40.4558C315.066 39.4273 313.574 38.913 311.466 38.913C309.82 38.913 308.174 39.2216 306.529 39.8387C304.935 40.4558 303.212 41.3043 301.361 42.3843L297.272 34.9018C299.741 33.4105 302.312 32.202 304.986 31.2763C307.712 30.3506 310.592 29.8878 313.626 29.8878C318.563 29.8878 322.317 31.302 324.888 34.1304C327.511 36.9074 328.822 41.2529 328.822 47.1669V69.0743H319.565L318.794 65.1403H318.485C316.84 66.5802 315.117 67.763 313.317 68.6886C311.517 69.5629 309.537 70 307.377 70ZM311.234 61.2062C312.52 61.2062 313.626 60.9233 314.551 60.3576C315.477 59.792 316.454 58.9949 317.483 57.9663V51.2553C313.471 51.8209 310.694 52.6438 309.152 53.7237C307.609 54.8036 306.837 56.0893 306.837 57.5806C306.837 58.8149 307.223 59.7405 307.995 60.3576C308.817 60.9233 309.897 61.2062 311.234 61.2062Z" fill="#1854FF"></path><path d="M338.414 69.0743V30.8135H347.67L348.442 35.6732H348.75C350.396 34.1304 352.196 32.7934 354.15 31.662C356.104 30.4792 358.393 29.8878 361.015 29.8878C365.181 29.8878 368.189 31.2506 370.041 33.9762C371.943 36.7017 372.895 40.4815 372.895 45.3156V69.0743H361.555V46.7812C361.555 44.0042 361.17 42.1014 360.398 41.0729C359.678 40.0444 358.496 39.5302 356.85 39.5302C355.41 39.5302 354.176 39.8644 353.147 40.533C352.119 41.1501 350.987 42.05 349.753 43.2328V69.0743H338.414Z" fill="#1854FF"></path><path d="M399.22 70C396.545 70 394.051 69.5629 391.737 68.6886C389.474 67.763 387.495 66.4516 385.797 64.7546C384.1 63.0575 382.763 60.9748 381.786 58.5063C380.809 55.9864 380.321 53.1323 380.321 49.9439C380.321 46.7555 380.861 43.9271 381.941 41.4586C383.02 38.9388 384.46 36.8303 386.26 35.1332C388.112 33.4362 390.246 32.1505 392.663 31.2763C395.08 30.3506 397.6 29.8878 400.222 29.8878C402.588 29.8878 404.671 30.2735 406.471 31.0449C408.322 31.8163 409.968 32.7934 411.408 33.9762L406.085 41.3043C404.285 39.813 402.562 39.0673 400.917 39.0673C398.14 39.0673 395.954 40.0444 394.36 41.9986C392.766 43.9528 391.969 46.6012 391.969 49.9439C391.969 53.2866 392.766 55.935 394.36 57.8892C396.005 59.8434 398.063 60.8205 400.531 60.8205C401.765 60.8205 402.948 60.5633 404.079 60.0491C405.262 59.4834 406.368 58.8149 407.396 58.0435L411.87 65.4488C409.968 67.0944 407.911 68.2772 405.699 68.9972C403.488 69.6657 401.328 70 399.22 70Z" fill="#1854FF"></path><path d="M433.506 70C430.78 70 428.235 69.5629 425.869 68.6886C423.504 67.763 421.447 66.4516 419.698 64.7546C417.95 63.0061 416.587 60.8976 415.61 58.4292C414.633 55.9607 414.144 53.1323 414.144 49.9439C414.144 46.8583 414.658 44.0813 415.687 41.6129C416.716 39.093 418.053 36.9846 419.698 35.2875C421.395 33.539 423.324 32.202 425.484 31.2763C427.643 30.3506 429.881 29.8878 432.195 29.8878C434.92 29.8878 437.286 30.3506 439.291 31.2763C441.348 32.202 443.046 33.4876 444.383 35.1332C445.771 36.7789 446.8 38.7331 447.468 40.9958C448.137 43.2071 448.471 45.6241 448.471 48.2468C448.471 49.2754 448.42 50.2525 448.317 51.1781C448.214 52.1038 448.111 52.798 448.008 53.2609H425.098C425.612 56.0379 426.744 58.0949 428.492 59.432C430.292 60.7176 432.478 61.3605 435.049 61.3605C437.774 61.3605 440.526 60.5119 443.303 58.8149L447.082 65.6802C445.128 67.0173 442.943 68.0715 440.526 68.8429C438.16 69.6143 435.82 70 433.506 70ZM425.021 45.7784H438.829C438.829 43.6185 438.34 41.87 437.363 40.533C436.386 39.1959 434.74 38.5273 432.426 38.5273C430.626 38.5273 429.032 39.1187 427.643 40.3015C426.306 41.4843 425.432 43.31 425.021 45.7784Z" fill="#1854FF"></path><path d="M484.477 43.6185L483.243 48.2468H493.965L492.808 43.6185C492.088 41.0986 491.394 38.4245 490.726 35.5961C490.057 32.7676 489.389 30.0421 488.72 27.4194H488.411C487.794 30.0935 487.151 32.8448 486.483 35.6732C485.866 38.4502 485.197 41.0986 484.477 43.6185ZM466.273 69.0743L482.009 18.7798H495.662L511.399 69.0743H499.365L496.28 57.1178H480.929L477.843 69.0743H466.273Z" fill="#1854FF"></path><path d="M516.894 69.0743V18.7798H528.234V69.0743H516.894Z" fill="#1854FF"></path></svg>