<?xml version="1.0" standalone="no"?>
<!DOCTYPE svg PUBLIC "-//W3C//DTD SVG 1.1//EN" "http://www.w3.org/Graphics/SVG/1.1/DTD/svg11.dtd" >
<svg xmlns="http://www.w3.org/2000/svg" xmlns:xlink="http://www.w3.org/1999/xlink" version="1.1">
<metadata>
Created by Christoph Koeberlin (http://christoph.koe.berlin)
Copyright (c) 2018 Swiss Typefaces Sarl. All rights reserved.
</metadata>
<defs>
<font id="Font" horiz-adv-x="0" >
  <font-face 
    font-family="Font"
    font-weight="600"
    font-style="italic"
    font-stretch="normal"
    units-per-em="1000"
    panose-1="2 11 7 4 0 0 0 0 0 0"
    ascent="800"
    descent="-200"
    x-height="500"
    cap-height="710"
    bbox="-357 -322 1436 1000"
    underline-thickness="100"
    underline-position="-184"
    slope="-12"
    unicode-range="U+0020-FEFF"
  />
<missing-glyph horiz-adv-x="642" 
d="M222 710h500l-151 -710h-500zM235 682l-139 -654l289 327zM558 28l139 654l-291 -327zM251 691l147 -321l285 321h-432zM110 19h432l-147 320z" />
    <glyph glyph-name="uni0407_uni0407.liga" unicode="&#x407;&#x407;" horiz-adv-x="607" 
d="M174 710h145l-151 -710h-145zM477 710h145l-151 -710h-145zM159 772q-32 0 -54.5 22t-22.5 53q0 32 22.5 54t54.5 22q31 0 53 -22t22 -54q0 -31 -22 -53t-53 -22zM428 772q-32 0 -54.5 22t-22.5 53q0 32 22.5 54t54.5 22q31 0 53 -22t22 -54q0 -31 -22 -53t-53 -22z
M697 772q-32 0 -54.5 22t-22.5 53q0 32 22.5 54t54.5 22q31 0 53 -22t22 -54q0 -31 -22 -53t-53 -22z" />
    <glyph glyph-name="uni0457_uni0457.liga" unicode="&#x457;&#x457;" horiz-adv-x="539" 
d="M119 500h137l-106 -500h-137zM129 577q-32 0 -54 22t-22 53q0 32 22 54t54 22q31 0 53 -22t22 -54q0 -31 -22 -53t-53 -22zM353 577q-30 0 -52.5 22t-22.5 53q0 32 22.5 54t52.5 22q32 0 54 -22t22 -54q0 -31 -22 -53t-54 -22zM388 500h137l-106 -500h-137zM581 577
q-32 0 -54 22t-22 53q0 32 22 54t54 22q31 0 53 -22t22 -54q0 -31 -22 -53t-53 -22z" />
    <glyph glyph-name="uni0457_uni0458.liga" unicode="&#x457;&#x458;" horiz-adv-x="539" 
d="M13 0l106 500h137l-106 -500h-137zM129 577q-32 0 -54 22t-22 53q0 32 22 54t54 22q31 0 53 -22t22 -54q0 -31 -22 -53t-53 -22zM353 577q-30 0 -52.5 22t-22.5 53q0 32 22.5 54t52.5 22q32 0 54 -22t22 -54q0 -31 -22 -53t-54 -22zM581 577q-32 0 -54 22t-22 53
q0 32 22 54t54 22q31 0 53 -22t22 -54q0 -31 -22 -53t-53 -22zM190 -219q-17 0 -32.5 1t-26.5 4l25 117q5 -2 13 -2.5t15 -0.5q38 0 61 19t33 64l110 517h137l-115 -540q-20 -97 -74.5 -138t-145.5 -41z" />
    <glyph glyph-name="f_f.liga" unicode="ff" horiz-adv-x="786" 
d="M146 380h-101l25 120h102l13 64q19 93 79 142.5t153 49.5q29 0 49.5 -3t35.5 -8l-26 -121q-11 4 -24 6.5t-30 2.5q-45 0 -69 -20.5t-34 -65.5l-10 -47h110l-26 -120h-110l-80 -380h-137zM523 380h-81l26 120h81l14 64q20 93 79 142.5t152 49.5q29 0 49.5 -3t35.5 -8
l-26 -121q-11 4 -24 6.5t-29 2.5q-46 0 -70 -20.5t-34 -65.5l-10 -47h141l-26 -120h-141l-80 -380h-137z" />
    <glyph glyph-name="f_i.liga" unicode="fi" horiz-adv-x="679" 
d="M146 380h-101l25 120h102l13 64q19 93 79 142.5t153 49.5q29 0 49.5 -3t35.5 -8l-26 -121q-11 4 -24 6.5t-30 2.5q-45 0 -69 -20.5t-34 -65.5l-10 -47h141l-26 -120h-141l-80 -380h-137zM634 582q-36 0 -62 25.5t-26 61.5t26 61.5t62 25.5t61.5 -25.5t25.5 -61.5
t-25.5 -61.5t-61.5 -25.5zM528 500h137l-106 -500h-137z" />
    <glyph glyph-name="f_f_i.liga" unicode="ffi" horiz-adv-x="1056" 
d="M1011 582q-36 0 -62 25.5t-26 61.5t26 61.5t62 25.5t61.5 -25.5t25.5 -61.5t-25.5 -61.5t-61.5 -25.5zM905 500h137l-106 -500h-137zM146 380h-101l25 120h102l13 64q19 93 79 142.5t153 49.5q29 0 49.5 -3t35.5 -8l-26 -121q-11 4 -24 6.5t-30 2.5q-45 0 -69 -20.5
t-34 -65.5l-10 -47h110l-26 -120h-110l-80 -380h-137zM523 380h-81l26 120h81l14 64q20 93 79 142.5t152 49.5q29 0 49.5 -3t35.5 -8l-26 -121q-11 4 -24 6.5t-29 2.5q-46 0 -70 -20.5t-34 -65.5l-10 -47h141l-26 -120h-141l-80 -380h-137z" />
    <glyph glyph-name="f_l.liga" unicode="fl" horiz-adv-x="679" 
d="M146 380h-101l25 120h102l13 64q19 93 79 142.5t153 49.5q29 0 49.5 -3t35.5 -8l-26 -121q-11 4 -24 6.5t-30 2.5q-45 0 -69 -20.5t-34 -65.5l-10 -47h141l-26 -120h-141l-80 -380h-137zM581 750h137l-159 -750h-137z" />
    <glyph glyph-name="f_f_l.liga" unicode="ffl" horiz-adv-x="1056" 
d="M958 750h137l-159 -750h-137zM146 380h-101l25 120h102l13 64q19 93 79 142.5t153 49.5q29 0 49.5 -3t35.5 -8l-26 -121q-11 4 -24 6.5t-30 2.5q-45 0 -69 -20.5t-34 -65.5l-10 -47h110l-26 -120h-110l-80 -380h-137zM523 380h-81l26 120h81l14 64q20 93 79 142.5
t152 49.5q29 0 49.5 -3t35.5 -8l-26 -121q-11 4 -24 6.5t-29 2.5q-46 0 -70 -20.5t-34 -65.5l-10 -47h141l-26 -120h-141l-80 -380h-137z" />
    <glyph glyph-name="f_t.liga" unicode="ft" horiz-adv-x="811" 
d="M146 380h-101l25 120h102l13 64q19 93 79 142.5t153 49.5q29 0 49.5 -3t35.5 -8l-26 -121q-11 4 -24 6.5t-30 2.5q-45 0 -69 -20.5t-34 -65.5l-10 -47h119l-25 -120h-120l-80 -380h-137zM652 -5q-42 1 -76 15.5t-55.5 42.5t-29 68t3.5 91l36 168h-79l25 120h80l29 139
h137l-29 -139h141l-26 -120h-141l-38 -177q-5 -24 -2 -40.5t12.5 -26.5t24.5 -14t34 -4q17 0 30 2t26 6l-26 -122q-15 -4 -34 -7t-43 -2z" />
    <glyph glyph-name="t_t.liga" unicode="tt" horiz-adv-x="797" 
d="M263 -5q-42 1 -76 15.5t-55.5 42.5t-29 68t3.5 91l35 168h-101l26 120h101l29 139h137l-29 -139h110l-26 -120h-110l-37 -177q-5 -24 -2 -40.5t12.5 -26.5t24.5 -14t34 -4q17 0 30 2t25 6l-26 -122q-15 -4 -33.5 -7t-42.5 -2zM639 -5q-42 1 -76 15.5t-55.5 42.5t-29 68
t3.5 91l35 168h-80l26 120h80l29 139h137l-29 -139h141l-26 -120h-141l-37 -177q-5 -24 -2 -40.5t12.5 -26.5t24.5 -14t34 -4q17 0 29.5 2t25.5 6l-26 -122q-15 -4 -33.5 -7t-42.5 -2z" />
    <glyph glyph-name=".notdef" horiz-adv-x="642" 
d="M222 710h500l-151 -710h-500zM235 682l-139 -654l289 327zM558 28l139 654l-291 -327zM251 691l147 -321l285 321h-432zM110 19h432l-147 320z" />
    <glyph glyph-name="glyph1" 
 />
    <glyph glyph-name="glyph2" horiz-adv-x="228" 
 />
    <glyph glyph-name="space" unicode=" " horiz-adv-x="228" 
 />
    <glyph glyph-name="exclam" unicode="!" horiz-adv-x="288" 
d="M114 442l57 268h138l-57 -268l-67 -188h-84zM107 -8q-42 0 -71 29t-29 71t29 71t71 29t71 -29t29 -71t-29 -71t-71 -29z" />
    <glyph glyph-name="quotedbl" unicode="&#x22;" horiz-adv-x="431" 
d="M151 710h116l-61 -287h-116zM353 710h116l-61 -287h-116z" />
    <glyph glyph-name="numbersign" unicode="#" horiz-adv-x="700" 
d="M389 185h-143l-58 -185h-116l57 185h-90v105h124l40 131h-91v105h124l57 184h118l-58 -184h142l57 184h118l-58 -184h90v-105h-123l-40 -131h91v-105h-125l-58 -185h-116zM280 290h142l40 131h-142z" />
    <glyph glyph-name="dollar" unicode="$" horiz-adv-x="542" 
d="M190 -3q-39 9 -70 28.5t-53 47t-32.5 62t-7.5 73.5h137q0 -29 15 -49.5t39 -31.5l37 175l-15 8q-29 15 -54.5 33.5t-44.5 42.5t-30 54.5t-11 70.5q0 43 13.5 81t42 67t71.5 46t103 17h14l16 76h54l-18 -85q36 -10 64.5 -29.5t47.5 -45t28.5 -56t6.5 -61.5h-138
q-2 43 -37 61l-34 -161l33 -17q67 -34 94.5 -85.5t27.5 -111.5q0 -48 -15.5 -88.5t-45.5 -69t-74 -44.5t-100 -16h-12l-16 -77h-54zM352 196q0 24 -12 43t-37 36l-33 -156q38 2 60 23.5t22 53.5zM237 521q0 -26 11 -42t37 -32l31 145q-34 -2 -56.5 -22t-22.5 -49z" />
    <glyph glyph-name="percent" unicode="%" horiz-adv-x="1064" 
d="M174 0l600 710h155l-599 -710h-156zM820 -8q-41 0 -77 15.5t-62.5 42.5t-42 62.5t-15.5 76.5t15.5 77t42 62.5t62.5 42t77 15.5q40 0 76 -15.5t63 -42t42.5 -62.5t15.5 -77t-15.5 -76.5t-42.5 -62.5t-63 -42.5t-76 -15.5zM820 108q33 0 56 24t23 57t-23 57t-56 24
q-34 0 -57.5 -24t-23.5 -57t23.5 -57t57.5 -24zM285 324q-41 0 -77 15.5t-62.5 42.5t-42 62.5t-15.5 76.5t15.5 77t42 62.5t62.5 42t77 15.5q40 0 76 -15.5t63 -42t42.5 -62.5t15.5 -77t-15.5 -76.5t-42.5 -62.5t-63 -42.5t-76 -15.5zM285 440q33 0 56 24t23 57t-23 57
t-56 24q-35 0 -58 -24t-23 -57t23 -57t58 -24z" />
    <glyph glyph-name="ampersand" unicode="&#x26;" horiz-adv-x="759" 
d="M263 -11q-44 0 -82.5 13t-67 37.5t-45 60t-16.5 80.5q0 41 12.5 72t34.5 56.5t52 46.5t66 41q-22 28 -38.5 62t-16.5 76q0 41 16 75.5t44.5 59.5t69 39t88.5 14q43 0 77.5 -13.5t58 -36t36 -52.5t12.5 -62q0 -33 -10 -59t-30 -48.5t-49.5 -43t-68.5 -41.5l90 -110l91 87
h177l-190 -181l133 -162h-163l-64 77q-29 -24 -55 -41t-51.5 -27.5t-52.5 -15t-58 -4.5zM272 110q32 0 63 14t69 46l-110 134q-54 -29 -81 -55t-27 -62q0 -35 25 -56t61 -21zM292 536q0 -24 11 -41.5t28 -37.5l12 6q43 22 65 40t22 47q0 23 -15.5 39.5t-45.5 16.5
q-34 0 -55.5 -20.5t-21.5 -49.5z" />
    <glyph glyph-name="quotesingle" unicode="'" horiz-adv-x="229" 
d="M151 710h116l-61 -287h-116z" />
    <glyph glyph-name="parenleft" unicode="(" horiz-adv-x="309" 
d="M129 -156q-14 38 -28 85t-25.5 99.5t-18 109.5t-5.5 114q1 149 55.5 292.5t166.5 263.5h125q-66 -72 -110.5 -142t-71.5 -137.5t-39 -133t-12 -128.5q0 -54 3 -104.5t11 -101.5t21 -104t33 -113h-105z" />
    <glyph glyph-name="parenright" unicode=")" horiz-adv-x="310" 
d="M208 809q14 -38 28 -85t25.5 -99.5t18 -109.5t5.5 -114q-1 -149 -55.5 -292.5t-166.5 -263.5h-125q66 72 110.5 142t71.5 137.5t39 133t12 128.5q0 54 -3 104.5t-11 101.5t-21 104t-33 113h105z" />
    <glyph glyph-name="asterisk" unicode="*" horiz-adv-x="500" 
d="M138 358l86 117l-138 45l29 91l140 -45v144h94v-144l138 45l30 -90l-139 -46l87 -117l-77 -55l-85 116l-88 -116z" />
    <glyph glyph-name="plus" unicode="+" horiz-adv-x="505" 
d="M48 349h151v151h119v-151h151v-119h-151v-151h-119v151h-151v119z" />
    <glyph glyph-name="comma" unicode="," horiz-adv-x="280" 
d="M39 -152h-81l102 158q-26 17 -37 40t-11 46q0 42 29 71t71 29q21 0 39 -8t31.5 -21.5t21.5 -31.5t8 -39q0 -37 -29 -71z" />
    <glyph glyph-name="hyphen" unicode="-" horiz-adv-x="401" 
d="M76 346h285l-28 -132h-286z" />
    <glyph glyph-name="period" unicode="." horiz-adv-x="278" 
d="M111 -8q-42 0 -71 29t-29 71t29 71t71 29t71 -29t29 -71t-29 -71t-71 -29z" />
    <glyph glyph-name="slash" unicode="/" horiz-adv-x="399" 
d="M339 710h124l-386 -820h-124z" />
    <glyph glyph-name="zero" unicode="0" horiz-adv-x="628" 
d="M286 -11q-63 0 -112 22.5t-79 62.5t-40.5 95.5t3.5 121.5l35 169q12 60 36.5 108.5t60.5 82.5t84 52.5t109 18.5q63 0 112 -22.5t79 -62.5t40 -95.5t-3 -121.5l-35 -169q-12 -60 -36.5 -108.5t-60.5 -82.5t-84 -52.5t-109 -18.5zM295 124q118 0 147 137l38 181
q14 69 -17.5 107t-87.5 38q-118 0 -147 -137l-39 -180q-8 -35 -2.5 -62t20 -45.5t37.5 -28.5t51 -10z" />
    <glyph glyph-name="one" unicode="1" horiz-adv-x="373" 
d="M224 575h-151l129 135h188l-151 -710h-137z" />
    <glyph glyph-name="two" unicode="2" horiz-adv-x="579" 
d="M7 72q13 61 42.5 104.5t69 76t85 57t90.5 47.5q31 17 58 33t46 34t30 38.5t11 46.5q0 35 -24 56.5t-64 21.5q-44 0 -77 -26.5t-39 -73.5h-137q6 57 29 101t58.5 73.5t81.5 45t97 15.5q42 0 80.5 -13.5t68.5 -39t48 -63t18 -84.5q0 -51 -12.5 -90t-38 -71t-64.5 -59
t-91 -54q-19 -10 -43 -22t-47 -26t-41.5 -30.5t-25.5 -34.5h287l-29 -135h-482z" />
    <glyph glyph-name="three" unicode="3" horiz-adv-x="591" 
d="M289 -11q-46 0 -91.5 14.5t-81.5 44.5t-57 75t-16 107h132q0 -27 9.5 -47t26 -33t37.5 -19.5t44 -6.5q51 0 82.5 28t31.5 72q0 36 -27.5 60t-72.5 24h-67l24 112h52q57 0 87 25.5t29 69.5q0 34 -25.5 53t-62.5 19q-21 0 -41.5 -7t-37.5 -20t-28.5 -31.5t-14.5 -41.5h-137
q5 60 30.5 104.5t63 73.5t83 43t91.5 14q47 0 86.5 -14t68.5 -39.5t45 -60t16 -75.5q0 -65 -29.5 -110.5t-82.5 -70.5q37 -20 59.5 -57t22.5 -82q0 -44 -15.5 -84t-46.5 -71.5t-78 -50t-109 -18.5z" />
    <glyph glyph-name="four" unicode="4" horiz-adv-x="635" 
d="M350 162h-353l23 111l461 437h123l-90 -422h92l-26 -126h-93l-34 -162h-137zM377 288l43 206l-217 -206h174z" />
    <glyph glyph-name="five" unicode="5" horiz-adv-x="583" 
d="M276 -11q-45 0 -88.5 13.5t-79.5 41t-60.5 68t-30.5 94.5h141q15 -40 47 -61t76 -21q25 0 46.5 8.5t37.5 24t25.5 37t9.5 46.5q0 20 -6 38.5t-18.5 33t-32 23.5t-46.5 9q-33 0 -65 -16t-54 -58l-122 41l164 399h365l-29 -133h-248l-53 -125q20 8 43 12t45 4
q44 0 79.5 -17.5t61 -47t39.5 -69t14 -82.5q0 -55 -15.5 -103t-47.5 -83.5t-81.5 -56t-116.5 -20.5z" />
    <glyph glyph-name="six" unicode="6" horiz-adv-x="579" 
d="M279 -11q-58 0 -104 18.5t-77.5 48.5t-48.5 69t-17 80q0 39 7 70.5t22 61.5t38.5 60t57.5 65l240 248h181l-239 -249q40 -2 76 -19t63 -45.5t43 -67.5t16 -85q0 -53 -18 -99.5t-51.5 -81t-81.5 -54.5t-107 -20zM279 121q26 0 47.5 9t37 25t24 37.5t8.5 46.5q0 22 -8 41
t-22.5 33.5t-34 22.5t-42.5 8q-52 0 -84.5 -34t-32.5 -85q0 -22 8.5 -41t22.5 -33t33.5 -22t42.5 -8z" />
    <glyph glyph-name="seven" unicode="7" horiz-adv-x="543" 
d="M422 577h-321l28 133h495l-25 -119l-445 -591h-166z" />
    <glyph glyph-name="eight" unicode="8" horiz-adv-x="592" 
d="M540 231q0 -63 -21.5 -108.5t-58 -75t-84 -44t-99.5 -14.5q-60 0 -105.5 18.5t-75.5 48.5t-45.5 67.5t-15.5 75.5q0 30 7 60t23 57.5t41 50t60 37.5q-22 23 -32.5 52.5t-10.5 62.5q0 47 17.5 84.5t49 64t75 40.5t95.5 14q48 0 86 -14.5t65 -39.5t41.5 -57t15.5 -67
q1 -51 -24.5 -94.5t-70.5 -73.5q35 -29 51 -67t16 -78zM175 213q0 -19 6.5 -36.5t19.5 -31t33.5 -21.5t47.5 -8q54 0 85.5 33t31.5 81q0 18 -6 35.5t-19 31.5t-33.5 22.5t-48.5 8.5q-54 -1 -85.5 -34t-31.5 -81zM256 509q0 -32 21 -53.5t63 -21.5q43 1 69.5 25.5t26.5 66.5
q0 32 -21 53t-63 21q-43 -1 -69.5 -25t-26.5 -66z" />
    <glyph glyph-name="nine" unicode="9" horiz-adv-x="580" 
d="M282 250q-41 2 -77 18.5t-63 45t-42.5 68t-15.5 86.5q0 53 18 99t51.5 80.5t81.5 54.5t107 20q58 0 104 -18.5t77.5 -48.5t48.5 -69t17 -80q0 -39 -6.5 -70.5t-21.5 -61.5t-39 -60t-58 -65l-241 -249h-182zM332 367q26 0 47.5 9t37 25t24 38t8.5 47q0 22 -8.5 41t-23 33
t-34 22t-42.5 8q-26 0 -47 -9t-36.5 -25t-24 -37.5t-8.5 -46.5q0 -22 8 -41t22.5 -33.5t34 -22.5t42.5 -8z" />
    <glyph glyph-name="colon" unicode=":" horiz-adv-x="302" 
d="M115 -8q-42 0 -71 29t-29 71t29 71t71 29t71 -29t29 -71t-29 -71t-71 -29zM183 311q-42 0 -71 29t-29 71t29 71t71 29t71 -29t29 -71t-29 -71t-71 -29z" />
    <glyph glyph-name="semicolon" unicode=";" horiz-adv-x="304" 
d="M184 311q-42 0 -71 29t-29 71t29 71t71 29t71 -29t29 -71t-29 -71t-71 -29zM43 -152h-81l102 158q-26 17 -37 40t-11 46q0 42 29 71t71 29q21 0 39 -8t31.5 -21.5t21.5 -31.5t8 -39q0 -37 -29 -71z" />
    <glyph glyph-name="less" unicode="&#x3c;" horiz-adv-x="532" 
d="M210 290l253 -253h-171l-253 253l253 253h171z" />
    <glyph glyph-name="equal" unicode="=" horiz-adv-x="582" 
d="M84 243h420v-118h-420v118zM84 454h420v-119h-420v119z" />
    <glyph glyph-name="greater" unicode="&#x3e;" horiz-adv-x="537" 
d="M335 290l-253 253h171l253 -253l-253 -253h-171z" />
    <glyph glyph-name="question" unicode="?" horiz-adv-x="536" 
d="M179 257q7 30 21.5 54.5t32.5 43t38.5 33t38.5 25.5q50 29 76.5 54t26.5 57q0 29 -22 46t-58 17q-41 0 -73 -22.5t-41 -67.5h-137q7 60 32 102.5t61 69.5t79.5 40t88.5 13t83 -13.5t65.5 -38t43 -58.5t15.5 -76q0 -41 -14.5 -73.5t-36 -57.5t-47.5 -44t-48 -33
q-23 -14 -46.5 -31t-35.5 -40h-143zM214 -8q-42 0 -71 29t-29 71t29 71t71 29t71 -29t29 -71t-29 -71t-71 -29z" />
    <glyph glyph-name="at" unicode="@" horiz-adv-x="807" 
d="M413 -11q-81 0 -145.5 27t-110 74.5t-69.5 111t-24 135.5q0 85 31.5 156t85 122t124 79t147.5 28q73 0 136 -22t109 -63.5t72 -100t26 -130.5q0 -65 -14.5 -112t-40 -77.5t-59 -45t-70.5 -14.5t-65 15.5t-41 35.5q-22 -23 -54 -36t-70 -13q-36 0 -65 13.5t-49.5 37
t-31 54.5t-10.5 67q0 45 15.5 85t42.5 70t63.5 47t78.5 17q41 0 67.5 -18t37.5 -41l10 49h99l-47 -220q-7 -33 -1 -56t37 -23q40 0 63 38.5t23 128.5q0 58 -21.5 102t-57.5 74t-83.5 45t-100.5 15q-59 0 -114 -20.5t-97 -60t-67 -96.5t-25 -130q0 -60 18.5 -109.5t53 -85.5
t83.5 -55.5t110 -19.5q45 0 91 8t87 28v-85q-43 -15 -89.5 -22t-88.5 -7zM402 251q41 0 67.5 26t34.5 66q5 24 2 45t-12 37t-24.5 25t-35.5 9q-42 0 -68.5 -26t-34.5 -67q-5 -24 -2 -45t12.5 -36.5t25 -24.5t35.5 -9z" />
    <glyph glyph-name="A" unicode="A" horiz-adv-x="745" 
d="M401 710h130l155 -710h-140l-34 162h-301l-103 -162h-164zM292 289h193l-48 227z" />
    <glyph glyph-name="B" unicode="B" horiz-adv-x="633" 
d="M173 710h211q51 0 91 -15t67 -40t41 -57.5t14 -66.5q0 -50 -22.5 -93t-65.5 -72q35 -20 55.5 -54t20.5 -85q0 -48 -17.5 -89.5t-53 -72t-88 -48t-122.5 -17.5h-282zM318 134q60 0 91.5 26t31.5 64q0 29 -20.5 50.5t-60.5 21.5h-131l-35 -162h124zM342 419q54 0 82.5 26
t28.5 64q0 28 -20.5 48t-58.5 20h-85l-34 -158h87z" />
    <glyph glyph-name="C" unicode="C" horiz-adv-x="795" 
d="M399 -12q-80 0 -143 26t-107 71t-67.5 106t-23.5 131q0 81 27.5 153.5t79 127.5t126.5 87t170 32q68 0 124 -19t98.5 -53t70.5 -80.5t40 -101.5h-157q-21 52 -68 83t-119 31q-52 0 -97 -19t-78 -52.5t-51.5 -78.5t-18.5 -97q0 -45 13 -83t39 -65.5t64.5 -43t89.5 -15.5
q66 0 119.5 31t85.5 83h157q-20 -55 -53.5 -101.5t-81 -80.5t-107.5 -53t-132 -19z" />
    <glyph glyph-name="D" unicode="D" horiz-adv-x="725" 
d="M288 133q54 0 102.5 18t85 51t58 79.5t21.5 103.5q0 42 -13.5 77t-39 60.5t-63 40t-84.5 14.5h-65l-94 -444h92zM173 710h199q75 0 136 -24.5t104.5 -66.5t67 -97.5t23.5 -116.5q0 -100 -32 -176t-89 -127t-135.5 -76.5t-171.5 -25.5h-253z" />
    <glyph glyph-name="E" unicode="E" horiz-adv-x="568" 
d="M173 710h442l-29 -138h-297l-32 -146h238l-30 -138h-237l-32 -150h297l-29 -138h-442z" />
    <glyph glyph-name="F" unicode="F" horiz-adv-x="541" 
d="M173 710h432l-29 -138h-287l-32 -147h224l-29 -138h-224l-61 -287h-145z" />
    <glyph glyph-name="G" unicode="G" horiz-adv-x="819" 
d="M410 -12q-81 0 -146 26t-110.5 71.5t-70 107t-24.5 132.5q0 80 26.5 152t77.5 126.5t125.5 86.5t171.5 32q63 0 115.5 -16.5t93.5 -46t70 -70.5t46 -89h-164q-28 40 -70.5 61t-99.5 21q-54 0 -99 -18.5t-77.5 -51.5t-50.5 -77.5t-18 -96.5q0 -47 14 -85.5t41.5 -66
t67 -43t90.5 -15.5q84 0 137.5 41t78.5 120h-233l29 136h360q1 -9 1.5 -18t0.5 -19q0 -85 -22.5 -158t-69 -127t-119 -84.5t-172.5 -30.5z" />
    <glyph glyph-name="H" unicode="H" horiz-adv-x="756" 
d="M173 710h145l-61 -283h309l60 283h145l-151 -710h-145l62 289h-309l-61 -289h-145z" />
    <glyph glyph-name="I" unicode="I" horiz-adv-x="303" 
d="M173 710h145l-151 -710h-145z" />
    <glyph glyph-name="J" unicode="J" horiz-adv-x="536" 
d="M410 710h144l-113 -533q-20 -97 -76.5 -143t-147.5 -46q-40 0 -81.5 12t-74.5 38.5t-52.5 67.5t-14.5 98h143q-1 -21 6 -36.5t18.5 -25.5t26 -14.5t28.5 -4.5q35 0 56.5 20.5t29.5 58.5z" />
    <glyph glyph-name="K" unicode="K" horiz-adv-x="690" 
d="M235 324l-69 -324h-144l151 710h144l-65 -305l317 305h183l-370 -355l280 -355h-172z" />
    <glyph glyph-name="L" unicode="L" horiz-adv-x="543" 
d="M173 710h145l-122 -572h304l-29 -138h-449z" />
    <glyph glyph-name="M" unicode="M" horiz-adv-x="884" 
d="M173 710h132l154 -321l307 321h132l-151 -710h-145l94 447l-277 -289l-152 316l-100 -474h-145z" />
    <glyph glyph-name="N" unicode="N" horiz-adv-x="793" 
d="M531 0l-263 479l-101 -479h-145l151 710h125l261 -480l103 480h145l-151 -710h-125z" />
    <glyph glyph-name="O" unicode="O" horiz-adv-x="824" 
d="M411 128q52 0 96.5 19t77.5 52.5t52 78.5t19 97q0 45 -13 83t-39 65.5t-64.5 43t-89.5 15.5q-52 0 -97 -19t-78 -52.5t-51.5 -78.5t-18.5 -97q0 -45 13 -83t39 -65.5t64.5 -43t89.5 -15.5zM399 -12q-80 0 -143.5 26t-107 71t-66.5 106t-23 131q0 81 27 153.5t79 127.5
t127 87t170 32q80 0 143 -26t107 -71t67 -106t23 -131q0 -81 -27.5 -153.5t-79 -127.5t-126.5 -87t-170 -32z" />
    <glyph glyph-name="P" unicode="P" horiz-adv-x="597" 
d="M173 710h201q54 0 98 -17t75.5 -46.5t48.5 -68t17 -81.5q0 -53 -17 -101t-53.5 -84.5t-93.5 -58t-136 -21.5h-97l-49 -232h-145zM337 367q28 0 52 9t41.5 24.5t27.5 37t10 45.5q0 18 -5.5 34t-17.5 29t-31 20.5t-47 7.5h-78l-45 -207h93z" />
    <glyph glyph-name="Q" unicode="Q" horiz-adv-x="856" 
d="M399 -13q-80 0 -143.5 26t-107 71t-66.5 106t-23 131q0 81 27 153.5t79 127.5t127 87t170 32q80 0 143 -26t107 -71t67 -106t23 -131q0 -72 -21.5 -136.5t-62.5 -117.5l136 -133h-185l-47 46q-46 -29 -101.5 -44t-121.5 -15zM411 127q56 0 105 23l-95 94l91 92l103 -101
q20 29 30.5 64.5t10.5 74.5q0 45 -13 83t-39 65.5t-64.5 43t-89.5 15.5q-52 0 -97 -19t-78 -52.5t-51.5 -78.5t-18.5 -97q0 -45 13 -83t39 -65.5t64.5 -43t89.5 -15.5z" />
    <glyph glyph-name="R" unicode="R" horiz-adv-x="652" 
d="M173 710h236q52 0 92 -14.5t67.5 -39.5t41.5 -58t14 -69q0 -39 -10.5 -75.5t-34 -66.5t-61 -51.5t-91.5 -31.5l194 -304h-161l-191 299h-39l-63 -299h-145zM371 423q49 0 77 23.5t29 61.5q0 29 -19.5 49t-61.5 20h-107l-32 -154h114z" />
    <glyph glyph-name="S" unicode="S" horiz-adv-x="584" 
d="M286 -12q-70 0 -121 21t-83.5 54.5t-48 74.5t-15.5 82h145q5 -45 40.5 -71.5t86.5 -26.5q42 0 68 22t26 52q0 34 -23 54.5t-71 41.5l-37 16q-31 13 -58 32t-47.5 44t-32.5 56t-12 70q0 45 18 83.5t50 67t76.5 45t98.5 16.5q59 0 103.5 -19.5t74.5 -50.5t45.5 -69.5
t16.5 -76.5h-144q-7 41 -37 61.5t-67 20.5q-38 0 -63.5 -19t-25.5 -50t20.5 -49t56.5 -33l51 -21q75 -31 114.5 -85t39.5 -129q0 -47 -17 -86t-49 -67.5t-77 -44.5t-102 -16z" />
    <glyph glyph-name="T" unicode="T" horiz-adv-x="560" 
d="M271 572h-190l29 138h526l-29 -138h-191l-122 -572h-145z" />
    <glyph glyph-name="U" unicode="U" horiz-adv-x="719" 
d="M650 285q-17 -77 -43 -132.5t-65 -92.5t-93 -54.5t-126 -17.5q-63 0 -115 23t-86 64t-47 98t1 125l87 412h145l-89 -421q-9 -42 -3.5 -72.5t22 -50t42 -29t57.5 -9.5q65 0 107 37t59 115l91 430h147z" />
    <glyph glyph-name="V" unicode="V" horiz-adv-x="721" 
d="M96 710h144l97 -502l308 502h167l-444 -710h-129z" />
    <glyph glyph-name="W" unicode="W" horiz-adv-x="965" 
d="M510 371l-241 -371h-137l-19 710h151l7 -464l306 476l94 -482l208 470h160l-322 -710h-137z" />
    <glyph glyph-name="X" unicode="X" horiz-adv-x="692" 
d="M-63 0l346 367l-184 343h156l128 -240l223 240h173l-331 -361l194 -349h-156l-136 250l-239 -250h-174z" />
    <glyph glyph-name="Y" unicode="Y" horiz-adv-x="690" 
d="M278 299l-174 411h151l112 -276l230 276h177l-350 -412l-63 -298h-146z" />
    <glyph glyph-name="Z" unicode="Z" horiz-adv-x="614" 
d="M1 99l426 473h-319l29 138h528l-21 -99l-427 -473h333l-29 -138h-541z" />
    <glyph glyph-name="bracketleft" unicode="[" horiz-adv-x="325" 
d="M191 800h221l-21 -100h-105l-162 -760h105l-21 -100h-221z" />
    <glyph glyph-name="backslash" unicode="\" horiz-adv-x="711" 
d="M233.985 710h-123.992l385.977 -820h123.992z" />
    <glyph glyph-name="bracketright" unicode="]" horiz-adv-x="325" 
d="M160 -160h-221l21 100h105l162 760h-105l21 100h221z" />
    <glyph glyph-name="asciicircum" unicode="^" horiz-adv-x="354" 
d="M100 500l107 210h52l106 -210h-80l-53 102l-52 -102h-80z" />
    <glyph glyph-name="underscore" unicode="_" horiz-adv-x="512" 
d="M-13 0h432l-22 -105h-432z" />
    <glyph glyph-name="grave" unicode="`" 
d="M127 560l-69 190h146l12 -190h-89z" />
    <glyph glyph-name="a" unicode="a" horiz-adv-x="620" 
d="M231 -8q-44 0 -80 17t-61.5 47t-40 70.5t-14.5 87.5q0 64 20 118.5t55 94t83 62t105 22.5q31 0 57.5 -8t46.5 -20t34 -26t20 -26l14 69h137l-106 -500h-137l9 44q-18 -19 -53 -35.5t-89 -16.5zM280 110q30 0 56.5 12t45.5 33.5t30 51t11 63.5q0 54 -28 85t-80 31
q-30 0 -56.5 -12t-45.5 -33.5t-30 -50.5t-11 -63q0 -54 28 -85.5t80 -31.5z" />
    <glyph glyph-name="b" unicode="b" horiz-adv-x="619" 
d="M323 -11q-32 0 -58.5 8t-46.5 20t-33.5 26t-19.5 26l-15 -69h-137l159 750h137l-62 -294q18 19 53.5 35.5t88.5 16.5q43 0 79.5 -17t62 -47t40 -70.5t14.5 -87.5q0 -64 -20 -118.5t-55 -94t-83 -62t-104 -22.5zM305 114q30 0 56.5 12t45.5 33.5t30 50.5t11 63
q0 54 -28 85.5t-80 31.5q-30 0 -56.5 -12t-45.5 -33.5t-30 -51t-11 -63.5q0 -54 28 -85t80 -31z" />
    <glyph glyph-name="c" unicode="c" horiz-adv-x="585" 
d="M276 -11q-59 0 -104 20t-75.5 53t-46 76t-15.5 89q0 60 20.5 111.5t58 90t90 60.5t116.5 22q54 0 95.5 -16t71.5 -44t47.5 -64.5t23.5 -77.5h-142q-11 35 -38.5 56t-68.5 21q-29 0 -54 -11.5t-43 -32t-28 -47t-10 -56.5q0 -56 29.5 -91.5t83.5 -35.5q40 0 71 22.5
t48 56.5h143q-12 -44 -35 -81t-57 -64t-79.5 -42t-101.5 -15z" />
    <glyph glyph-name="d" unicode="d" horiz-adv-x="620" 
d="M231 -11q-44 0 -80 17t-61.5 47t-40 70.5t-14.5 87.5q0 64 20 118.5t55 94.5t83 62t105 22q31 0 57.5 -8t46.5 -20t34 -26t20 -26l67 322h137l-158 -750h-138l9 42q-18 -19 -53 -36t-89 -17zM280 108q30 0 56.5 12t45.5 33.5t30 50.5t11 63q0 54 -28 85.5t-80 31.5
q-30 0 -56.5 -12t-45.5 -33.5t-30 -50.5t-11 -63q0 -54 28 -85.5t80 -31.5z" />
    <glyph glyph-name="e" unicode="e" horiz-adv-x="592" 
d="M275 -11q-56 0 -100.5 19.5t-75.5 52t-47.5 75.5t-16.5 91q0 61 20 113t56.5 90t89 59.5t118.5 21.5q56 0 104 -20.5t81 -58.5t46.5 -92.5t1.5 -121.5h-388q4 -51 37.5 -80.5t81.5 -29.5q36 0 65.5 14t46.5 41h145q-37 -90 -104 -132t-161 -42zM305 400q-21 0 -41.5 -6
t-38.5 -17.5t-32 -28.5t-21 -40h244q-6 48 -38.5 70t-72.5 22z" />
    <glyph glyph-name="f" unicode="f" horiz-adv-x="409" 
d="M146 380h-101l25 120h102l13 64q19 93 79 142.5t153 49.5q29 0 49.5 -3t35.5 -8l-26 -121q-11 4 -24 6.5t-30 2.5q-45 0 -69 -20.5t-34 -65.5l-10 -47h141l-26 -120h-141l-80 -380h-137z" />
    <glyph glyph-name="g" unicode="g" horiz-adv-x="621" 
d="M233 -219q-49 0 -90.5 14t-73 39.5t-51 60t-22.5 74.5h134q4 -19 14.5 -33t25 -23t32.5 -13.5t36 -4.5q47 0 83 31.5t46 90.5l7 41q-18 -19 -53 -35.5t-89 -16.5q-43 0 -79 16.5t-62 45t-40.5 67.5t-14.5 85q0 63 20 116.5t55.5 92.5t83.5 60.5t104 21.5q31 0 57.5 -8
t46.5 -20t34 -26t20 -26l14 69h137l-103 -485q-26 -122 -97 -177.5t-175 -56.5zM281 125q30 0 55.5 11.5t45 31.5t31 47.5t11.5 60.5q1 52 -28 81t-80 29q-30 0 -56 -11.5t-45.5 -32t-30.5 -48t-11 -60.5q0 -51 29 -80t79 -29z" />
    <glyph glyph-name="h" unicode="h" horiz-adv-x="598" 
d="M172 750h137l-64 -302q25 27 63.5 44.5t84.5 17.5t79.5 -20t53 -52t24.5 -74t-4 -85l-59 -279h-137l57 269q12 56 -7.5 87t-64.5 31q-48 0 -82.5 -33t-49.5 -105l-53 -249h-137z" />
    <glyph glyph-name="i" unicode="i" horiz-adv-x="270" 
d="M225 582q-36 0 -62 25.5t-26 61.5t26 61.5t62 25.5t61.5 -25.5t25.5 -61.5t-25.5 -61.5t-61.5 -25.5zM119 500h137l-106 -500h-137z" />
    <glyph glyph-name="j" unicode="j" horiz-adv-x="277" 
d="M-72 -219q-17 0 -32.5 1t-26.5 4l25 117q5 -2 13 -2.5t15 -0.5q38 0 61 19t33 64l110 517h137l-115 -540q-20 -97 -74.5 -138t-145.5 -41zM231 582q-36 0 -62 25.5t-26 61.5t26 61.5t62 25.5t61.5 -25.5t25.5 -61.5t-25.5 -61.5t-61.5 -25.5z" />
    <glyph glyph-name="k" unicode="k" horiz-adv-x="554" 
d="M199 232l-49 -232h-137l159 750h137l-92 -433l191 183h175l-249 -238l189 -262h-156z" />
    <glyph glyph-name="l" unicode="l" horiz-adv-x="270" 
d="M172 750h137l-159 -750h-137z" />
    <glyph glyph-name="m" unicode="m" horiz-adv-x="891" 
d="M119 500h137l-11 -52q22 27 58 44.5t80 17.5q47 0 78 -21t49 -55q25 33 67.5 54t93.5 21t87 -20.5t57 -53.5t27 -75t-3 -84l-59 -276h-137l57 269q11 54 -4 86t-55 32q-44 0 -75 -30.5t-45 -96.5l-56 -260h-137l57 269q11 54 -4 86t-55 32q-45 0 -76.5 -33.5
t-46.5 -104.5l-53 -249h-137z" />
    <glyph glyph-name="n" unicode="n" horiz-adv-x="598" 
d="M119 500h137l-11 -52q25 27 63.5 44.5t84.5 17.5t79.5 -20t53 -52t24.5 -74t-4 -85l-59 -279h-137l57 269q12 56 -7.5 87t-64.5 31q-48 0 -82.5 -33t-49.5 -105l-53 -249h-137z" />
    <glyph glyph-name="o" unicode="o" horiz-adv-x="596" 
d="M287 116q29 0 54 11t43 30.5t28 46t10 56.5q0 57 -30 90t-84 33q-29 0 -53.5 -11.5t-42.5 -31t-28 -45.5t-10 -56q0 -56 29.5 -89.5t83.5 -33.5zM276 -12q-60 0 -105 20t-75 53.5t-45.5 76.5t-15.5 89q0 60 20.5 111.5t58 90t90 60.5t116.5 22q60 0 105 -20t75 -53.5
t45 -76.5t15 -89q0 -60 -20.5 -111.5t-57.5 -90t-89.5 -60.5t-116.5 -22z" />
    <glyph glyph-name="p" unicode="p" horiz-adv-x="619" 
d="M119 500h137l-9 -44q18 19 53.5 35.5t88.5 16.5q43 0 79.5 -17t62 -47t40 -70.5t14.5 -87.5q0 -64 -20 -118.5t-55 -94t-83 -62t-104 -22.5q-32 0 -58.5 8t-46.5 20t-33.5 26t-19.5 26l-58 -275h-137zM305 114q30 0 56.5 12t45.5 33.5t30 50.5t11 63q0 54 -28 85.5
t-80 31.5q-30 0 -56.5 -12t-45.5 -33.5t-30 -51t-11 -63.5q0 -54 28 -85t80 -31z" />
    <glyph glyph-name="q" unicode="q" horiz-adv-x="621" 
d="M373 42q-18 -19 -53 -36t-89 -17q-44 0 -80 17t-61.5 47t-40 70.5t-14.5 87.5q0 64 20 118.5t55 94.5t83 62t105 22q31 0 57.5 -8t46.5 -20t34 -26t20 -26l15 72h136l-149 -709h-137zM280 108q30 0 56.5 12t45.5 33.5t30 50.5t11 63q0 54 -28 85.5t-80 31.5
q-30 0 -56.5 -12t-45.5 -33.5t-30 -50.5t-11 -63q0 -54 28 -85.5t80 -31.5z" />
    <glyph glyph-name="r" unicode="r" horiz-adv-x="395" 
d="M119 500h137l-16 -73q20 37 58.5 58t83.5 21q11 0 22 -1t23 -5l-29 -139q-16 5 -30 8t-29 3q-51 0 -87.5 -35.5t-50.5 -97.5l-51 -239h-137z" />
    <glyph glyph-name="s" unicode="s" horiz-adv-x="494" 
d="M233 -11q-49 0 -90 12.5t-70.5 35t-46 53.5t-16.5 69h142q0 -17 7.5 -29t20 -20t28 -12t31.5 -4q29 0 45.5 12t16.5 29q0 35 -52 52l-72 24q-51 17 -81 53.5t-30 90.5q0 72 52 114t152 42q39 0 73.5 -11.5t61.5 -32t43 -49.5t18 -65h-137q-1 15 -7.5 24.5t-16.5 15.5
t-21 8.5t-21 2.5q-26 0 -41.5 -10.5t-15.5 -29.5t13.5 -30t30.5 -17l60 -20q60 -20 95 -56t35 -94q0 -75 -56 -116.5t-151 -41.5z" />
    <glyph glyph-name="t" unicode="t" horiz-adv-x="421" 
d="M263 -5q-42 1 -76 15.5t-55.5 42.5t-29 68t3.5 91l35 168h-101l26 120h101l29 139h137l-29 -139h141l-26 -120h-141l-37 -177q-5 -24 -2 -40.5t12.5 -26.5t24.5 -14t34 -4q17 0 30 2t25 6l-26 -122q-15 -4 -33.5 -7t-42.5 -2z" />
    <glyph glyph-name="u" unicode="u" horiz-adv-x="587" 
d="M206 -10q-45 0 -78 20t-53 52.5t-26 74t3 84.5l59 279h137l-58 -278q-11 -51 8 -79t60 -28q97 0 125 131l54 254h137l-106 -500h-137l11 52q-22 -28 -56 -45t-80 -17z" />
    <glyph glyph-name="v" unicode="v" horiz-adv-x="568" 
d="M53 500h135l68 -331l210 331h155l-328 -500h-125z" />
    <glyph glyph-name="w" unicode="w" horiz-adv-x="799" 
d="M57 500h138l28 -325l175 325h106l29 -316l161 316h153l-271 -500h-136l-30 283l-157 -283h-136z" />
    <glyph glyph-name="x" unicode="x" horiz-adv-x="558" 
d="M262 148l-148 -148h-166l247 246l-134 254h146l85 -163l155 163h165l-254 -265l136 -235h-147z" />
    <glyph glyph-name="y" unicode="y" horiz-adv-x="568" 
d="M163 30l-109 470h136l68 -329l208 329h156l-465 -709h-152z" />
    <glyph glyph-name="z" unicode="z" horiz-adv-x="497" 
d="M10 107l284 269h-224l27 124h408l-23 -108l-282 -268h233l-26 -124h-419z" />
    <glyph glyph-name="braceleft" unicode="{" horiz-adv-x="338" 
d="M171 -160q-35 0 -63.5 11t-47.5 32t-25.5 51.5t1.5 69.5l46 217q5 25 -3 41.5t-38 16.5h-10l21 101h10q31 0 46 15.5t20 40.5l48 224q8 36 20 62.5t31 43.5t47.5 25.5t69.5 8.5h83l-22 -100h-48q-32 0 -47.5 -13.5t-22.5 -47.5l-46 -219q-5 -25 -13 -42t-18.5 -28.5
t-23.5 -18.5t-28 -11q26 -8 37.5 -34.5t1.5 -71.5l-46 -215q-6 -29 4.5 -44t40.5 -15h48l-21 -100h-52z" />
    <glyph glyph-name="bar" unicode="|" horiz-adv-x="328" 
d="M115 710h116v-820h-116v820z" />
    <glyph glyph-name="braceright" unicode="}" horiz-adv-x="338" 
d="M193 801q35 0 63.5 -11t47.5 -32t25.5 -51.5t-1.5 -69.5l-46 -217q-5 -25 3 -41.5t38 -16.5h10l-21 -101h-10q-31 0 -46 -15.5t-20 -40.5l-48 -224q-8 -36 -20 -62.5t-31 -43.5t-47.5 -25.5t-69.5 -8.5h-83l22 100h48q32 0 47.5 13.5t22.5 47.5l46 219q5 25 13 42
t18.5 28.5t23.5 18.5t28 11q-26 8 -37.5 34.5t-1.5 71.5l46 215q6 29 -4.5 44t-40.5 15h-48l21 100h52z" />
    <glyph glyph-name="asciitilde" unicode="~" horiz-adv-x="327" 
d="M108 349h46l38 -46l21 46h72l-55 -119h-46l-39 46l-21 -46h-71z" />
    <glyph glyph-name="uni00A0" unicode="&#xa0;" horiz-adv-x="228" 
 />
    <glyph glyph-name="exclamdown" unicode="&#xa1;" horiz-adv-x="276" 
d="M165 59l-57 -268h-138l58 268l66 188h85zM170 311q-42 0 -71 29t-29 71t29 71t71 29t71 -29t29 -71t-29 -71t-71 -29z" />
    <glyph glyph-name="cent" unicode="&#xa2;" horiz-adv-x="600" 
d="M272 -11l-16 -77h-54l17 83q-44 9 -78 31.5t-56.5 54t-34 69t-11.5 77.5q0 60 20.5 111.5t58 90t90 60.5t116.5 22h5l17 77h54l-18 -83q81 -17 125.5 -71.5t54.5 -124.5h-142q-17 52 -65 70l-57 -267q38 2 67 24.5t45 54.5h143q-12 -44 -35 -81t-57 -64t-79.5 -42
t-101.5 -15h-8zM178 239q0 -43 17.5 -74.5t50.5 -44.5l57 265q-27 -2 -50 -14.5t-39.5 -32t-26 -45.5t-9.5 -54z" />
    <glyph glyph-name="sterling" unicode="&#xa3;" horiz-adv-x="582" 
d="M73 386h72q-2 17 -3.5 36t-1.5 39q0 59 16.5 107t48.5 82.5t78.5 53t106.5 18.5q51 0 90.5 -20t66 -52.5t38.5 -74t8 -84.5h-136q3 18 -0.5 35t-13 30.5t-25.5 22t-38 8.5q-48 0 -75.5 -33.5t-27.5 -82.5q0 -23 2 -44t5 -41h172l-12 -56h-153q1 -9 1.5 -18t0.5 -19
q0 -35 -6.5 -75t-37.5 -83h271l-29 -135h-500l28 135h90q25 34 36 67.5t11 71.5q0 14 -1 28t-3 28h-91z" />
    <glyph glyph-name="yen" unicode="&#xa5;" horiz-adv-x="727" 
d="M100 355h179l-155 355h157l111 -274l226 274h176l-305 -355h178l-12 -57h-215l-16 -75h215l-12 -57h-215l-35 -166h-137l35 166h-215l12 57h215l17 75h-216z" />
    <glyph glyph-name="brokenbar" unicode="&#xa6;" horiz-adv-x="328" 
d="M115 237h116v-347h-116v347zM115 710h116v-347h-116v347z" />
    <glyph glyph-name="section" unicode="&#xa7;" horiz-adv-x="455" 
d="M160 -219q-26 0 -57 9t-57 29.5t-42.5 52t-14.5 76.5h116q0 -21 6 -34t15 -20.5t19 -10t18 -2.5q26 0 44 18.5t18 55.5q0 22 -13 45t-46 49l-48 39q-32 26 -52.5 62.5t-20.5 85.5q0 33 10 60.5t26.5 50.5t37 41.5t43.5 33.5q-24 29 -37 63t-13 67q0 35 13 66t36.5 54
t56.5 36.5t73 13.5q28 0 56.5 -8t52 -27t38.5 -51t17 -81h-116q0 22 -5 35t-13.5 20t-18 9.5t-17.5 2.5q-29 0 -43.5 -19.5t-14.5 -44.5q1 -24 14 -45.5t46 -47.5l48 -39q33 -27 54 -62.5t21 -80.5q0 -32 -10 -60t-26.5 -52t-37.5 -43t-44 -33q27 -31 38 -65t11 -66
q0 -85 -48 -134t-133 -49zM243 351q-38 -21 -59 -46t-21 -57q0 -29 13.5 -47t33.5 -35l3 -3q36 20 58 45.5t22 55.5q0 31 -13.5 50.5t-33.5 34.5z" />
    <glyph glyph-name="dieresis" unicode="&#xa8;" 
d="M22 577q-32 0 -54.5 22t-22.5 53q0 32 22.5 54t54.5 22q30 0 52 -22t22 -54q0 -31 -22 -53t-52 -22zM256 577q-32 0 -54 22t-22 53q0 32 22 54t54 22q31 0 53 -22t22 -54q0 -31 -22 -53t-53 -22z" />
    <glyph glyph-name="copyright" unicode="&#xa9;" horiz-adv-x="821" 
d="M434 163q-42 0 -78 15t-62 40.5t-40.5 60.5t-14.5 76q0 40 14.5 75t40.5 61t62 41t78 15q31 0 60 -9.5t53.5 -27t42 -42t25.5 -55.5h-91q-12 26 -37 39.5t-53 13.5q-51 0 -80.5 -32.5t-29.5 -78.5q0 -47 29.5 -79t80.5 -32q28 0 53 13.5t37 39.5h91q-8 -31 -25.5 -56
t-42 -42t-53.5 -26.5t-60 -9.5zM430 72q58 0 110 22.5t90 60.5t60.5 89.5t22.5 110.5q0 58 -22.5 110t-60.5 90t-90 60.5t-110 22.5t-109.5 -22.5t-89.5 -60.5t-60.5 -90t-22.5 -110q0 -59 22.5 -110.5t60.5 -89.5t89.5 -60.5t109.5 -22.5zM430 -12q-75 0 -142 29t-116.5 79
t-78.5 116.5t-29 142.5t29 142.5t78.5 116.5t116.5 79t142 29q76 0 142.5 -29t116.5 -79t79 -116.5t29 -142.5t-29 -142.5t-79 -116.5t-116.5 -79t-142.5 -29z" />
    <glyph glyph-name="ordfeminine" unicode="&#xaa;" horiz-adv-x="405" 
d="M208 406q-51 0 -82 38t-31 98q0 36 12.5 68t34 56t49.5 37.5t60 13.5q18 0 32.5 -4.5t25.5 -11t17.5 -14t9.5 -12.5l8 35h98l-64 -300h-98l6 26q-9 -9 -28.5 -19.5t-49.5 -10.5zM245 489q31 0 50.5 23.5t19.5 57.5q0 26 -13 42.5t-40 16.5q-31 0 -50 -24t-19 -58
q0 -26 13 -42t39 -16z" />
    <glyph glyph-name="guillemotleft" unicode="&#xab;" horiz-adv-x="528" 
d="M418 467h122l-169 -235l73 -199h-111l-103 217zM215 467h122l-169 -235l73 -199h-111l-103 217z" />
    <glyph glyph-name="uni00AD" unicode="&#xad;" horiz-adv-x="401" 
d="M76 346h285l-28 -132h-286z" />
    <glyph glyph-name="registered" unicode="&#xae;" horiz-adv-x="821" 
d="M430 -12q-75 0 -142 29t-116.5 79t-78.5 116.5t-29 142.5t29 142.5t78.5 116.5t116.5 79t142 29q76 0 142.5 -29t116.5 -79t79 -116.5t29 -142.5t-29 -142.5t-79 -116.5t-116.5 -79t-142.5 -29zM430 72q58 0 110 22.5t90 60.5t60.5 89.5t22.5 110.5q0 58 -22.5 110
t-60.5 90t-90 60.5t-110 22.5t-109.5 -22.5t-89.5 -60.5t-60.5 -90t-22.5 -110q0 -59 22.5 -110.5t60.5 -89.5t89.5 -60.5t109.5 -22.5zM306 540h147q53 0 84 -32.5t31 -79.5q0 -70 -73 -95l132 -164h-101l-123 153h-13v-153h-84v371zM443 393q18 0 30 9.5t12 25.5
q0 17 -12 26t-30 9h-53v-70h53z" />
    <glyph glyph-name="macron" unicode="&#xaf;" 
d="M-20 710h342l-20 -97h-343z" />
    <glyph glyph-name="degree" unicode="&#xb0;" horiz-adv-x="375" 
d="M249 498q26 0 43.5 18t17.5 44t-17.5 44t-43.5 18q-27 0 -45 -18t-18 -44t18 -44t45 -18zM249 406q-32 0 -60 12t-49 33t-33 49t-12 60t12 60t33 49t49 33t60 12q31 0 59 -12t49 -33t33 -49t12 -60t-12 -60t-33 -49t-49 -33t-59 -12z" />
    <glyph glyph-name="uni00B2" unicode="&#xb2;" horiz-adv-x="357" 
d="M71 462q7 36 24.5 62t41 45.5t51 34.5t54.5 29q15 8 30 16.5t26.5 17.5t18.5 20.5t7 25.5q0 18 -11 29t-33 11q-24 0 -40 -14t-19 -35h-97q8 70 54 107.5t112 37.5q26 0 50 -8.5t42.5 -24.5t29.5 -39.5t11 -53.5q0 -32 -8 -56t-23.5 -43t-38 -35t-52.5 -31
q-8 -4 -19.5 -10t-23.5 -13t-22 -14.5t-14 -14.5h157l-20 -96h-299z" />
    <glyph glyph-name="uni00B3" unicode="&#xb3;" horiz-adv-x="364" 
d="M245 403q-28 0 -56 8.5t-50.5 27t-36 47t-10.5 68.5h93q1 -29 20 -42t43 -13q27 0 42 14t15 35q0 17 -13 30t-38 13h-41l16 77h31q32 0 46.5 14t13.5 35q-1 17 -13 26.5t-32 9.5q-23 0 -41.5 -13.5t-20.5 -35.5h-98q3 38 19 65.5t39.5 45t52 26t56.5 8.5q63 0 98.5 -34.5
t35.5 -83.5q0 -78 -65 -109q20 -11 33.5 -33.5t13.5 -50.5q0 -26 -9.5 -50t-28.5 -43t-48 -30.5t-67 -11.5z" />
    <glyph glyph-name="acute" unicode="&#xb4;" 
d="M129 750h165l-209 -190h-105z" />
    <glyph glyph-name="paragraph" unicode="&#xb6;" horiz-adv-x="674" 
d="M259 260q-35 4 -68 21t-58.5 45t-40.5 66.5t-15 85.5q0 40 17.5 81.5t52.5 75t87 54.5t121 21h323l-190 -894h-117l165 774h-90l-165 -774h-116z" />
    <glyph glyph-name="periodcentered" unicode="&#xb7;" horiz-adv-x="289" 
d="M148 180q-42 0 -71 29t-29 71t29 71t71 29t71 -29t29 -71t-29 -71t-71 -29z" />
    <glyph glyph-name="cedilla" unicode="&#xb8;" 
d="M-149 -143q18 -8 40 -11.5t37 -3.5q11 0 22.5 1.5t21.5 6t16 11t6 17.5q0 13 -11 19t-28 6q-9 0 -20.5 -2.5t-22.5 -7.5l-31 19l70 91h66l-39 -51q22 7 45 7q32 0 51.5 -18t19.5 -48q0 -50 -42 -81t-112 -31q-25 0 -52 3.5t-50 11.5z" />
    <glyph glyph-name="uni00B9" unicode="&#xb9;" horiz-adv-x="240" 
d="M199 746h-95l90 96h123l-92 -432h-97z" />
    <glyph glyph-name="ordmasculine" unicode="&#xba;" horiz-adv-x="382" 
d="M247 494q28 0 46.5 20.5t18.5 51.5q0 27 -14 43.5t-40 16.5q-29 0 -47.5 -21t-18.5 -52q0 -26 14 -42.5t41 -16.5zM238 402q-36 0 -63 12t-45 32t-27 46t-9 53q0 36 12.5 67.5t35.5 55t54.5 36.5t70.5 13q36 0 62.5 -12t44.5 -32t27 -46t9 -53q0 -36 -12.5 -67.5t-35 -55
t-54 -36.5t-70.5 -13z" />
    <glyph glyph-name="guillemotright" unicode="&#xbb;" horiz-adv-x="530" 
d="M311 35h-122l169 235l-73 199h111l103 -217zM108 35h-122l169 235l-73 199h111l103 -217z" />
    <glyph glyph-name="onequarter" unicode="&#xbc;" horiz-adv-x="836" 
d="M172 614h-95l90 96h123l-92 -432h-97zM29 0l651 710h125l-651 -710h-125zM629 91h-208l17 79l273 263h88l-54 -253h55l-19 -89h-55l-19 -90h-97zM647 180l21 99l-104 -99h83z" />
    <glyph glyph-name="onehalf" unicode="&#xbd;" horiz-adv-x="858" 
d="M172 614h-95l90 96h123l-92 -432h-97zM29 0l651 710h125l-651 -710h-125zM485 53q7 36 24.5 62t41 45.5t51 34.5t54.5 29q15 8 30 16.5t26.5 17.5t18.5 20.5t7 25.5q0 18 -11 29t-33 11q-24 0 -40 -14t-19 -35h-97q8 70 54 107.5t112 37.5q26 0 50 -8.5t42.5 -24.5
t29.5 -39.5t11 -53.5q0 -32 -8 -56t-23.5 -43t-38 -35t-52.5 -31q-8 -4 -19.5 -10t-23.5 -13t-22 -14.5t-14 -14.5h157l-20 -96h-299z" />
    <glyph glyph-name="threequarters" unicode="&#xbe;" horiz-adv-x="907" 
d="M217 271q-28 0 -56 8.5t-50.5 27t-36 47t-10.5 68.5h93q1 -29 20 -42t43 -13q27 0 42 14t15 35q0 17 -13 30t-38 13h-41l16 77h31q32 0 46.5 14t13.5 35q-1 17 -13 26.5t-32 9.5q-23 0 -41.5 -13.5t-20.5 -35.5h-98q3 38 19 65.5t39.5 45t52 26t56.5 8.5q63 0 98.5 -34.5
t35.5 -83.5q0 -78 -65 -109q20 -11 33.5 -33.5t13.5 -50.5q0 -26 -9.5 -50t-28.5 -43t-48 -30.5t-67 -11.5zM100 0l651 710h125l-651 -710h-125zM700 91h-208l17 79l273 263h88l-54 -253h55l-19 -89h-55l-19 -90h-97zM718 180l21 99l-104 -99h83z" />
    <glyph glyph-name="questiondown" unicode="&#xbf;" horiz-adv-x="527" 
d="M185 -219q-46 0 -84 13.5t-65.5 38t-43 58.5t-15.5 76q0 41 14.5 73.5t36 57.5t47 44t48.5 33t47 31t35 40h143q-7 -30 -21 -54.5t-32 -43.5t-38.5 -33.5t-38.5 -24.5q-51 -29 -77 -54.5t-26 -57.5q0 -29 22 -45.5t58 -16.5q40 0 72.5 22.5t41.5 67.5h137
q-7 -60 -32 -102.5t-61 -69.5t-80 -40t-88 -13zM310 311q-42 0 -71 29t-29 71t29 71t71 29t71 -29t29 -71t-29 -71t-71 -29z" />
    <glyph glyph-name="Agrave" unicode="&#xc0;" horiz-adv-x="745" 
d="M401 710h130l155 -710h-140l-34 162h-301l-103 -162h-164zM292 289h193l-48 227zM423 770l-94 157h150l42 -157h-98z" />
    <glyph glyph-name="Aacute" unicode="&#xc1;" horiz-adv-x="745" 
d="M401 710h130l155 -710h-140l-34 162h-301l-103 -162h-164zM292 289h193l-48 227zM532 927h156l-152 -157h-106z" />
    <glyph glyph-name="Acircumflex" unicode="&#xc2;" horiz-adv-x="745" 
d="M401 710h130l155 -710h-140l-34 162h-301l-103 -162h-164zM292 289h193l-48 227zM327 872l187 73l159 -80l-30 -103l-144 73l-188 -73z" />
    <glyph glyph-name="Atilde" unicode="&#xc3;" horiz-adv-x="745" 
d="M401 710h130l155 -710h-140l-34 162h-301l-103 -162h-164zM292 289h193l-48 227zM297 804q6 28 20.5 49.5t33 35t38.5 20.5t38 7q23 0 42 -7t35.5 -16t31.5 -16t29 -7q20 0 32.5 11.5t21.5 35.5h79l-6 -26q-6 -29 -20.5 -50t-33 -34.5t-38.5 -20.5t-38 -7q-23 0 -42 7
t-36 16t-31.5 16t-28.5 7q-38 0 -54 -47h-78z" />
    <glyph glyph-name="Adieresis" unicode="&#xc4;" horiz-adv-x="745" 
d="M401 710h130l155 -710h-140l-34 162h-301l-103 -162h-164zM292 289h193l-48 227zM378 772q-32 0 -54 22t-22 53q0 32 22 54t54 22q31 0 53 -22t22 -54q0 -31 -22 -53t-53 -22zM613 772q-32 0 -54 22t-22 53q0 32 22 54t54 22q31 0 53 -22t22 -54q0 -31 -22 -53t-53 -22z
" />
    <glyph glyph-name="Aring" unicode="&#xc5;" horiz-adv-x="745" 
d="M401 710h130l155 -710h-140l-34 162h-301l-103 -162h-164zM292 289h193l-48 227zM500 753q-25 0 -47 9.5t-38.5 26t-26.5 38t-10 46.5t10 46.5t26.5 38t38.5 26t47 9.5t47 -9.5t38.5 -26t26.5 -38t10 -46.5t-10 -46.5t-26.5 -38t-38.5 -26t-47 -9.5zM500 815q25 0 42 17
t17 41t-17 41t-42 17t-42 -17t-17 -41t17 -41t42 -17z" />
    <glyph glyph-name="AE" unicode="&#xc6;" horiz-adv-x="984" 
d="M472 162h-254l-135 -162h-167l593 710h522l-29 -138h-297l-32 -146h238l-30 -138h-237l-32 -150h297l-29 -138h-442zM499 289l60 282l-235 -282h175z" />
    <glyph glyph-name="Ccedilla" unicode="&#xc7;" horiz-adv-x="795" 
d="M399 -12q-80 0 -143 26t-107 71t-67.5 106t-23.5 131q0 81 27.5 153.5t79 127.5t126.5 87t170 32q68 0 124 -19t98.5 -53t70.5 -80.5t40 -101.5h-157q-21 52 -68 83t-119 31q-52 0 -97 -19t-78 -52.5t-51.5 -78.5t-18.5 -97q0 -45 13 -83t39 -65.5t64.5 -43t89.5 -15.5
q66 0 119.5 31t85.5 83h157q-20 -55 -53.5 -101.5t-81 -80.5t-107.5 -53t-132 -19zM239 -143q16 -8 35.5 -11.5t37.5 -3.5q25 0 47.5 8t22.5 28q0 13 -11 19t-28 6q-9 0 -20.5 -2.5t-22.5 -7.5l-31 19l72 91h64l-39 -49q14 4 24.5 4.5t18.5 0.5q35 0 54 -19t19 -48
q0 -26 -13 -46.5t-35 -34.5t-50.5 -22t-59.5 -8q-21 0 -48 2.5t-50 12.5z" />
    <glyph glyph-name="Egrave" unicode="&#xc8;" horiz-adv-x="568" 
d="M173 710h442l-29 -138h-297l-32 -146h238l-30 -138h-237l-32 -150h297l-29 -138h-442zM347 770l-94 157h150l42 -157h-98z" />
    <glyph glyph-name="Eacute" unicode="&#xc9;" horiz-adv-x="568" 
d="M173 710h442l-29 -138h-297l-32 -146h238l-30 -138h-237l-32 -150h297l-29 -138h-442zM457 927h156l-152 -157h-106z" />
    <glyph glyph-name="Ecircumflex" unicode="&#xca;" horiz-adv-x="568" 
d="M173 710h442l-29 -138h-297l-32 -146h238l-30 -138h-237l-32 -150h297l-29 -138h-442zM252 872l187 73l159 -80l-30 -103l-144 73l-188 -73z" />
    <glyph glyph-name="Edieresis" unicode="&#xcb;" horiz-adv-x="568" 
d="M173 710h442l-29 -138h-297l-32 -146h238l-30 -138h-237l-32 -150h297l-29 -138h-442zM303 772q-32 0 -54 22t-22 53q0 32 22 54t54 22q31 0 53 -22t22 -54q0 -31 -22 -53t-53 -22zM538 772q-32 0 -54 22t-22 53q0 32 22 54t54 22q31 0 53 -22t22 -54q0 -31 -22 -53
t-53 -22z" />
    <glyph glyph-name="Igrave" unicode="&#xcc;" horiz-adv-x="303" 
d="M173 710h145l-151 -710h-145zM202 770l-94 157h150l42 -157h-98z" />
    <glyph glyph-name="Iacute" unicode="&#xcd;" horiz-adv-x="303" 
d="M173 710h145l-151 -710h-145zM312 927h156l-152 -157h-106z" />
    <glyph glyph-name="Icircumflex" unicode="&#xce;" horiz-adv-x="303" 
d="M173 710h145l-151 -710h-145zM107 872l187 73l159 -80l-30 -103l-144 73l-188 -73z" />
    <glyph glyph-name="Idieresis" unicode="&#xcf;" horiz-adv-x="303" 
d="M173 710h145l-151 -710h-145zM158 772q-32 0 -54 22t-22 53q0 32 22 54t54 22q31 0 53 -22t22 -54q0 -31 -22 -53t-53 -22zM393 772q-32 0 -54 22t-22 53q0 32 22 54t54 22q31 0 53 -22t22 -54q0 -31 -22 -53t-53 -22z" />
    <glyph glyph-name="Eth" unicode="&#xd0;" horiz-adv-x="739" 
d="M302 133q54 0 102.5 18t85 51t58 79.5t21.5 103.5q0 42 -13.5 77t-39 60.5t-63 40t-84.5 14.5h-65l-94 -444h92zM187 710h199q75 0 136 -24.5t104.5 -66.5t67 -97.5t23.5 -116.5q0 -100 -32 -176t-89 -127t-135.5 -76.5t-171.5 -25.5h-253zM54 421h345l-26 -126h-346z
" />
    <glyph glyph-name="Ntilde" unicode="&#xd1;" horiz-adv-x="793" 
d="M531 0l-263 479l-101 -479h-145l151 710h125l261 -480l103 480h145l-151 -710h-125zM320 804q6 28 20.5 49.5t33 35t38.5 20.5t38 7q23 0 42 -7t35.5 -16t31.5 -16t29 -7q20 0 32.5 11.5t21.5 35.5h79l-6 -26q-6 -29 -20.5 -50t-33 -34.5t-38.5 -20.5t-38 -7q-23 0 -42 7
t-36 16t-31.5 16t-28.5 7q-38 0 -54 -47h-78z" />
    <glyph glyph-name="Ograve" unicode="&#xd2;" horiz-adv-x="824" 
d="M411 128q52 0 96.5 19t77.5 52.5t52 78.5t19 97q0 45 -13 83t-39 65.5t-64.5 43t-89.5 15.5q-52 0 -97 -19t-78 -52.5t-51.5 -78.5t-18.5 -97q0 -45 13 -83t39 -65.5t64.5 -43t89.5 -15.5zM399 -12q-80 0 -143.5 26t-107 71t-66.5 106t-23 131q0 81 27 153.5t79 127.5
t127 87t170 32q80 0 143 -26t107 -71t67 -106t23 -131q0 -81 -27.5 -153.5t-79 -127.5t-126.5 -87t-170 -32zM451 770l-94 157h150l42 -157h-98z" />
    <glyph glyph-name="Oacute" unicode="&#xd3;" horiz-adv-x="824" 
d="M411 128q52 0 96.5 19t77.5 52.5t52 78.5t19 97q0 45 -13 83t-39 65.5t-64.5 43t-89.5 15.5q-52 0 -97 -19t-78 -52.5t-51.5 -78.5t-18.5 -97q0 -45 13 -83t39 -65.5t64.5 -43t89.5 -15.5zM399 -12q-80 0 -143.5 26t-107 71t-66.5 106t-23 131q0 81 27 153.5t79 127.5
t127 87t170 32q80 0 143 -26t107 -71t67 -106t23 -131q0 -81 -27.5 -153.5t-79 -127.5t-126.5 -87t-170 -32zM561 927h156l-152 -157h-106z" />
    <glyph glyph-name="Ocircumflex" unicode="&#xd4;" horiz-adv-x="824" 
d="M411 128q52 0 96.5 19t77.5 52.5t52 78.5t19 97q0 45 -13 83t-39 65.5t-64.5 43t-89.5 15.5q-52 0 -97 -19t-78 -52.5t-51.5 -78.5t-18.5 -97q0 -45 13 -83t39 -65.5t64.5 -43t89.5 -15.5zM399 -12q-80 0 -143.5 26t-107 71t-66.5 106t-23 131q0 81 27 153.5t79 127.5
t127 87t170 32q80 0 143 -26t107 -71t67 -106t23 -131q0 -81 -27.5 -153.5t-79 -127.5t-126.5 -87t-170 -32zM356 872l187 73l159 -80l-30 -103l-144 73l-188 -73z" />
    <glyph glyph-name="Otilde" unicode="&#xd5;" horiz-adv-x="824" 
d="M411 128q52 0 96.5 19t77.5 52.5t52 78.5t19 97q0 45 -13 83t-39 65.5t-64.5 43t-89.5 15.5q-52 0 -97 -19t-78 -52.5t-51.5 -78.5t-18.5 -97q0 -45 13 -83t39 -65.5t64.5 -43t89.5 -15.5zM399 -12q-80 0 -143.5 26t-107 71t-66.5 106t-23 131q0 81 27 153.5t79 127.5
t127 87t170 32q80 0 143 -26t107 -71t67 -106t23 -131q0 -81 -27.5 -153.5t-79 -127.5t-126.5 -87t-170 -32zM326 804q6 28 20.5 49.5t33 35t38.5 20.5t38 7q23 0 42 -7t35.5 -16t31.5 -16t29 -7q20 0 32.5 11.5t21.5 35.5h79l-6 -26q-6 -29 -20.5 -50t-33 -34.5
t-38.5 -20.5t-38 -7q-23 0 -42 7t-36 16t-31.5 16t-28.5 7q-38 0 -54 -47h-78z" />
    <glyph glyph-name="Odieresis" unicode="&#xd6;" horiz-adv-x="824" 
d="M411 128q52 0 96.5 19t77.5 52.5t52 78.5t19 97q0 45 -13 83t-39 65.5t-64.5 43t-89.5 15.5q-52 0 -97 -19t-78 -52.5t-51.5 -78.5t-18.5 -97q0 -45 13 -83t39 -65.5t64.5 -43t89.5 -15.5zM399 -12q-80 0 -143.5 26t-107 71t-66.5 106t-23 131q0 81 27 153.5t79 127.5
t127 87t170 32q80 0 143 -26t107 -71t67 -106t23 -131q0 -81 -27.5 -153.5t-79 -127.5t-126.5 -87t-170 -32zM406 772q-32 0 -54 22t-22 53q0 32 22 54t54 22q31 0 53 -22t22 -54q0 -31 -22 -53t-53 -22zM641 772q-32 0 -54 22t-22 53q0 32 22 54t54 22q31 0 53 -22t22 -54
q0 -31 -22 -53t-53 -22z" />
    <glyph glyph-name="multiply" unicode="&#xd7;" horiz-adv-x="535" 
d="M62 162l128 127l-128 127l85 84l127 -126l127 126l83 -84l-126 -127l126 -127l-83 -84l-127 126l-127 -126z" />
    <glyph glyph-name="Oslash" unicode="&#xd8;" horiz-adv-x="827" 
d="M412 128q52 0 96.5 19t77.5 52.5t52 78.5t19 97q0 45 -13 83t-39 65.5t-64.5 43t-89.5 15.5q-52 0 -97 -19t-78 -52.5t-51.5 -78.5t-18.5 -97q0 -45 13 -83t39 -65.5t64.5 -43t89.5 -15.5zM400 -12q-80 0 -143.5 26t-107 71t-66.5 106t-23 131q0 81 27 153.5t79 127.5
t127 87t170 32q80 0 143 -26t107 -71t67 -106t23 -131q0 -81 -27.5 -153.5t-79 -127.5t-126.5 -87t-170 -32zM68 -18l-69 84l796 662l69 -84z" />
    <glyph glyph-name="Ugrave" unicode="&#xd9;" horiz-adv-x="719" 
d="M650 285q-17 -77 -43 -132.5t-65 -92.5t-93 -54.5t-126 -17.5q-63 0 -115 23t-86 64t-47 98t1 125l87 412h145l-89 -421q-9 -42 -3.5 -72.5t22 -50t42 -29t57.5 -9.5q65 0 107 37t59 115l91 430h147zM409 770l-94 157h150l42 -157h-98z" />
    <glyph glyph-name="Uacute" unicode="&#xda;" horiz-adv-x="719" 
d="M650 285q-17 -77 -43 -132.5t-65 -92.5t-93 -54.5t-126 -17.5q-63 0 -115 23t-86 64t-47 98t1 125l87 412h145l-89 -421q-9 -42 -3.5 -72.5t22 -50t42 -29t57.5 -9.5q65 0 107 37t59 115l91 430h147zM518 927h156l-152 -157h-106z" />
    <glyph glyph-name="Ucircumflex" unicode="&#xdb;" horiz-adv-x="719" 
d="M650 285q-17 -77 -43 -132.5t-65 -92.5t-93 -54.5t-126 -17.5q-63 0 -115 23t-86 64t-47 98t1 125l87 412h145l-89 -421q-9 -42 -3.5 -72.5t22 -50t42 -29t57.5 -9.5q65 0 107 37t59 115l91 430h147zM313 872l187 73l159 -80l-30 -103l-144 73l-188 -73z" />
    <glyph glyph-name="Udieresis" unicode="&#xdc;" horiz-adv-x="719" 
d="M650 285q-17 -77 -43 -132.5t-65 -92.5t-93 -54.5t-126 -17.5q-63 0 -115 23t-86 64t-47 98t1 125l87 412h145l-89 -421q-9 -42 -3.5 -72.5t22 -50t42 -29t57.5 -9.5q65 0 107 37t59 115l91 430h147zM364 772q-32 0 -54 22t-22 53q0 32 22 54t54 22q31 0 53 -22t22 -54
q0 -31 -22 -53t-53 -22zM599 772q-32 0 -54 22t-22 53q0 32 22 54t54 22q31 0 53 -22t22 -54q0 -31 -22 -53t-53 -22z" />
    <glyph glyph-name="Yacute" unicode="&#xdd;" horiz-adv-x="690" 
d="M278 299l-174 411h151l112 -276l230 276h177l-350 -412l-63 -298h-146zM492 927h156l-152 -157h-106z" />
    <glyph glyph-name="Thorn" unicode="&#xde;" horiz-adv-x="604" 
d="M173 710h145l-25 -116h56q54 0 98 -17t75.5 -46t48.5 -68t17 -82q0 -53 -17 -101t-53.5 -84t-93.5 -57.5t-136 -21.5h-97l-24 -117h-145zM312 252q28 0 52 9t42 24.5t28 37t10 45.5q0 17 -5.5 33.5t-17.5 29t-31.5 20t-47.5 7.5h-78l-44 -206h92z" />
    <glyph glyph-name="germandbls" unicode="&#xdf;" horiz-adv-x="591" 
d="M133 568q20 96 85 142t160 46q41 0 78.5 -14t66.5 -39.5t46.5 -60.5t17.5 -78q0 -58 -26.5 -107.5t-85.5 -79.5q43 -27 59.5 -66t16.5 -78q0 -51 -18 -93.5t-51.5 -73.5t-80.5 -48.5t-105 -17.5h-71l27 124h31q27 0 51 7.5t42 21.5t28.5 34.5t10.5 46.5q0 39 -27 65.5
t-71 26.5h-20l25 124h16q49 0 79.5 28.5t30.5 73.5q0 35 -23 57.5t-58 22.5q-42 0 -68.5 -25t-34.5 -66l-113 -541h-138z" />
    <glyph glyph-name="agrave" unicode="&#xe0;" horiz-adv-x="620" 
d="M231 -8q-44 0 -80 17t-61.5 47t-40 70.5t-14.5 87.5q0 64 20 118.5t55 94t83 62t105 22.5q31 0 57.5 -8t46.5 -20t34 -26t20 -26l14 69h137l-106 -500h-137l9 44q-18 -19 -53 -35.5t-89 -16.5zM280 110q30 0 56.5 12t45.5 33.5t30 51t11 63.5q0 54 -28 85t-80 31
q-30 0 -56.5 -12t-45.5 -33.5t-30 -50.5t-11 -63q0 -54 28 -85.5t80 -31.5zM330 560l-69 190h146l12 -190h-89z" />
    <glyph glyph-name="aacute" unicode="&#xe1;" horiz-adv-x="620" 
d="M231 -8q-44 0 -80 17t-61.5 47t-40 70.5t-14.5 87.5q0 64 20 118.5t55 94t83 62t105 22.5q31 0 57.5 -8t46.5 -20t34 -26t20 -26l14 69h137l-106 -500h-137l9 44q-18 -19 -53 -35.5t-89 -16.5zM280 110q30 0 56.5 12t45.5 33.5t30 51t11 63.5q0 54 -28 85t-80 31
q-30 0 -56.5 -12t-45.5 -33.5t-30 -50.5t-11 -63q0 -54 28 -85.5t80 -31.5zM479 750h165l-209 -190h-105z" />
    <glyph glyph-name="acircumflex" unicode="&#xe2;" horiz-adv-x="620" 
d="M231 -8q-44 0 -80 17t-61.5 47t-40 70.5t-14.5 87.5q0 64 20 118.5t55 94t83 62t105 22.5q31 0 57.5 -8t46.5 -20t34 -26t20 -26l14 69h137l-106 -500h-137l9 44q-18 -19 -53 -35.5t-89 -16.5zM280 110q30 0 56.5 12t45.5 33.5t30 51t11 63.5q0 54 -28 85t-80 31
q-30 0 -56.5 -12t-45.5 -33.5t-30 -50.5t-11 -63q0 -54 28 -85.5t80 -31.5zM574 649l-28 -101l-140 100l-211 -100l31 116l195 92z" />
    <glyph glyph-name="atilde" unicode="&#xe3;" horiz-adv-x="620" 
d="M231 -8q-44 0 -80 17t-61.5 47t-40 70.5t-14.5 87.5q0 64 20 118.5t55 94t83 62t105 22.5q31 0 57.5 -8t46.5 -20t34 -26t20 -26l14 69h137l-106 -500h-137l9 44q-18 -19 -53 -35.5t-89 -16.5zM280 110q30 0 56.5 12t45.5 33.5t30 51t11 63.5q0 54 -28 85t-80 31
q-30 0 -56.5 -12t-45.5 -33.5t-30 -50.5t-11 -63q0 -54 28 -85.5t80 -31.5zM598 710l-7 -26q-16 -57 -51 -84.5t-83 -27.5q-23 0 -41 7t-33 16t-28.5 16t-26.5 7q-20 0 -32 -12t-21 -35h-83l7 26q16 57 51 84.5t82 27.5q23 0 41.5 -7t33.5 -16t28.5 -16t26.5 -7q20 0 32 12
t21 35h83z" />
    <glyph glyph-name="adieresis" unicode="&#xe4;" horiz-adv-x="620" 
d="M231 -8q-44 0 -80 17t-61.5 47t-40 70.5t-14.5 87.5q0 64 20 118.5t55 94t83 62t105 22.5q31 0 57.5 -8t46.5 -20t34 -26t20 -26l14 69h137l-106 -500h-137l9 44q-18 -19 -53 -35.5t-89 -16.5zM280 110q30 0 56.5 12t45.5 33.5t30 51t11 63.5q0 54 -28 85t-80 31
q-30 0 -56.5 -12t-45.5 -33.5t-30 -50.5t-11 -63q0 -54 28 -85.5t80 -31.5zM280 577q-32 0 -54.5 22t-22.5 53q0 32 22.5 54t54.5 22q30 0 52 -22t22 -54q0 -31 -22 -53t-52 -22zM514 577q-32 0 -54 22t-22 53q0 32 22 54t54 22q31 0 53 -22t22 -54q0 -31 -22 -53t-53 -22z
" />
    <glyph glyph-name="aring" unicode="&#xe5;" horiz-adv-x="620" 
d="M231 -8q-44 0 -80 17t-61.5 47t-40 70.5t-14.5 87.5q0 64 20 118.5t55 94t83 62t105 22.5q31 0 57.5 -8t46.5 -20t34 -26t20 -26l14 69h137l-106 -500h-137l9 44q-18 -19 -53 -35.5t-89 -16.5zM280 110q30 0 56.5 12t45.5 33.5t30 51t11 63.5q0 54 -28 85t-80 31
q-30 0 -56.5 -12t-45.5 -33.5t-30 -50.5t-11 -63q0 -54 28 -85.5t80 -31.5zM400 543q-25 0 -47 9.5t-38.5 26t-26.5 38t-10 46.5t10 46.5t26.5 38t38.5 26t47 9.5t47 -9.5t38.5 -26t26.5 -38t10 -46.5t-10 -46.5t-26.5 -38t-38.5 -26t-47 -9.5zM400 605q25 0 42 17t17 41
t-17 41t-42 17t-42 -17t-17 -41t17 -41t42 -17z" />
    <glyph glyph-name="ae" unicode="&#xe6;" horiz-adv-x="914" 
d="M597 -11q-63 0 -110.5 23.5t-78.5 63.5q-33 -41 -83.5 -63.5t-112.5 -22.5q-47 0 -84 11t-62.5 31t-38.5 47.5t-13 60.5q1 74 65 111t197 52q28 3 47 6t30 7t16 11t6 18q2 26 -21.5 40t-56.5 14q-34 0 -63.5 -15.5t-33.5 -53.5h-136q4 41 25 74t53.5 56.5t72.5 36
t84 12.5q50 0 91 -14.5t67 -43.5q35 29 81 44.5t103 15.5q56 0 104 -20.5t81 -58.5t46.5 -92.5t1.5 -121.5h-388q4 -51 37.5 -80.5t81.5 -29.5q36 0 65.5 14t46.5 41h145q-37 -90 -104 -132t-161 -42zM356 232q-29 -9 -64 -16t-61 -13q-43 -11 -60 -23.5t-17 -35.5
q0 -26 22 -38t55 -12q18 0 36 4.5t34 14.5t27.5 25.5t15.5 37.5zM627 400q-21 0 -41.5 -6t-38.5 -17.5t-32 -28.5t-21 -40h244q-6 48 -38.5 70t-72.5 22z" />
    <glyph glyph-name="ccedilla" unicode="&#xe7;" horiz-adv-x="585" 
d="M276 -11q-59 0 -104 20t-75.5 53t-46 76t-15.5 89q0 60 20.5 111.5t58 90t90 60.5t116.5 22q54 0 95.5 -16t71.5 -44t47.5 -64.5t23.5 -77.5h-142q-11 35 -38.5 56t-68.5 21q-29 0 -54 -11.5t-43 -32t-28 -47t-10 -56.5q0 -56 29.5 -91.5t83.5 -35.5q40 0 71 22.5
t48 56.5h143q-12 -44 -35 -81t-57 -64t-79.5 -42t-101.5 -15zM135 -143q18 -8 40 -11.5t37 -3.5q11 0 22.5 1.5t21.5 6t16 11t6 17.5q0 13 -11 19t-28 6q-9 0 -20.5 -2.5t-22.5 -7.5l-31 19l70 91h66l-39 -51q22 7 45 7q32 0 51.5 -18t19.5 -48q0 -50 -42 -81t-112 -31
q-25 0 -52 3.5t-50 11.5z" />
    <glyph glyph-name="egrave" unicode="&#xe8;" horiz-adv-x="592" 
d="M275 -11q-56 0 -100.5 19.5t-75.5 52t-47.5 75.5t-16.5 91q0 61 20 113t56.5 90t89 59.5t118.5 21.5q56 0 104 -20.5t81 -58.5t46.5 -92.5t1.5 -121.5h-388q4 -51 37.5 -80.5t81.5 -29.5q36 0 65.5 14t46.5 41h145q-37 -90 -104 -132t-161 -42zM305 400q-21 0 -41.5 -6
t-38.5 -17.5t-32 -28.5t-21 -40h244q-6 48 -38.5 70t-72.5 22zM297 560l-69 190h146l12 -190h-89z" />
    <glyph glyph-name="eacute" unicode="&#xe9;" horiz-adv-x="592" 
d="M275 -11q-56 0 -100.5 19.5t-75.5 52t-47.5 75.5t-16.5 91q0 61 20 113t56.5 90t89 59.5t118.5 21.5q56 0 104 -20.5t81 -58.5t46.5 -92.5t1.5 -121.5h-388q4 -51 37.5 -80.5t81.5 -29.5q36 0 65.5 14t46.5 41h145q-37 -90 -104 -132t-161 -42zM305 400q-21 0 -41.5 -6
t-38.5 -17.5t-32 -28.5t-21 -40h244q-6 48 -38.5 70t-72.5 22zM447 750h165l-209 -190h-105z" />
    <glyph glyph-name="ecircumflex" unicode="&#xea;" horiz-adv-x="592" 
d="M275 -11q-56 0 -100.5 19.5t-75.5 52t-47.5 75.5t-16.5 91q0 61 20 113t56.5 90t89 59.5t118.5 21.5q56 0 104 -20.5t81 -58.5t46.5 -92.5t1.5 -121.5h-388q4 -51 37.5 -80.5t81.5 -29.5q36 0 65.5 14t46.5 41h145q-37 -90 -104 -132t-161 -42zM305 400q-21 0 -41.5 -6
t-38.5 -17.5t-32 -28.5t-21 -40h244q-6 48 -38.5 70t-72.5 22zM542 649l-28 -101l-140 100l-211 -100l31 116l195 92z" />
    <glyph glyph-name="edieresis" unicode="&#xeb;" horiz-adv-x="592" 
d="M275 -11q-56 0 -100.5 19.5t-75.5 52t-47.5 75.5t-16.5 91q0 61 20 113t56.5 90t89 59.5t118.5 21.5q56 0 104 -20.5t81 -58.5t46.5 -92.5t1.5 -121.5h-388q4 -51 37.5 -80.5t81.5 -29.5q36 0 65.5 14t46.5 41h145q-37 -90 -104 -132t-161 -42zM305 400q-21 0 -41.5 -6
t-38.5 -17.5t-32 -28.5t-21 -40h244q-6 48 -38.5 70t-72.5 22zM248 577q-32 0 -54.5 22t-22.5 53q0 32 22.5 54t54.5 22q30 0 52 -22t22 -54q0 -31 -22 -53t-52 -22zM482 577q-32 0 -54 22t-22 53q0 32 22 54t54 22q31 0 53 -22t22 -54q0 -31 -22 -53t-53 -22z" />
    <glyph glyph-name="igrave" unicode="&#xec;" horiz-adv-x="270" 
d="M119 500h137l-106 -500h-137zM152 560l-69 190h146l12 -190h-89z" />
    <glyph glyph-name="iacute" unicode="&#xed;" horiz-adv-x="270" 
d="M119 500h137l-106 -500h-137zM301 750h165l-209 -190h-105z" />
    <glyph glyph-name="icircumflex" unicode="&#xee;" horiz-adv-x="270" 
d="M119 500h137l-106 -500h-137zM396 649l-28 -101l-140 100l-211 -100l31 116l195 92z" />
    <glyph glyph-name="idieresis" unicode="&#xef;" horiz-adv-x="270" 
d="M119 500h137l-106 -500h-137zM124 577q-31 0 -53.5 22t-22.5 53q0 32 22.5 54t53.5 22t53 -22t22 -54q0 -31 -22 -53t-53 -22zM313 577q-31 0 -53 22t-22 53q0 32 22 54t53 22q32 0 54 -22t22 -54q0 -31 -22 -53t-54 -22z" />
    <glyph glyph-name="eth" unicode="&#xf0;" horiz-adv-x="597" 
d="M533 398q28 -62 28 -126q0 -60 -20.5 -111.5t-57.5 -90t-89.5 -60.5t-116.5 -22q-60 0 -105 20t-75 53.5t-45.5 76.5t-15.5 89q0 60 20.5 111.5t57.5 90t89.5 60.5t117.5 22h9.5t9.5 -1l-24 53h-147l19 90h88l-44 97h143l43 -97h114l-19 -90h-54zM288 116q29 0 54 11
t43 30.5t28 46t10 56.5q0 57 -30 90t-84 33q-29 0 -54 -11.5t-43 -31t-28 -45.5t-10 -56q0 -56 30 -89.5t84 -33.5z" />
    <glyph glyph-name="ntilde" unicode="&#xf1;" horiz-adv-x="598" 
d="M119 500h137l-11 -52q25 27 63.5 44.5t84.5 17.5t79.5 -20t53 -52t24.5 -74t-4 -85l-59 -279h-137l57 269q12 56 -7.5 87t-64.5 31q-48 0 -82.5 -33t-49.5 -105l-53 -249h-137zM588 710l-7 -26q-16 -57 -51 -84.5t-83 -27.5q-23 0 -41 7t-33 16t-28.5 16t-26.5 7
q-20 0 -32 -12t-21 -35h-83l7 26q16 57 51 84.5t82 27.5q23 0 41.5 -7t33.5 -16t28.5 -16t26.5 -7q20 0 32 12t21 35h83z" />
    <glyph glyph-name="ograve" unicode="&#xf2;" horiz-adv-x="596" 
d="M287 116q29 0 54 11t43 30.5t28 46t10 56.5q0 57 -30 90t-84 33q-29 0 -53.5 -11.5t-42.5 -31t-28 -45.5t-10 -56q0 -56 29.5 -89.5t83.5 -33.5zM276 -12q-60 0 -105 20t-75 53.5t-45.5 76.5t-15.5 89q0 60 20.5 111.5t58 90t90 60.5t116.5 22q60 0 105 -20t75 -53.5
t45 -76.5t15 -89q0 -60 -20.5 -111.5t-57.5 -90t-89.5 -60.5t-116.5 -22zM315 560l-69 190h146l12 -190h-89z" />
    <glyph glyph-name="oacute" unicode="&#xf3;" horiz-adv-x="596" 
d="M287 116q29 0 54 11t43 30.5t28 46t10 56.5q0 57 -30 90t-84 33q-29 0 -53.5 -11.5t-42.5 -31t-28 -45.5t-10 -56q0 -56 29.5 -89.5t83.5 -33.5zM276 -12q-60 0 -105 20t-75 53.5t-45.5 76.5t-15.5 89q0 60 20.5 111.5t58 90t90 60.5t116.5 22q60 0 105 -20t75 -53.5
t45 -76.5t15 -89q0 -60 -20.5 -111.5t-57.5 -90t-89.5 -60.5t-116.5 -22zM464 750h165l-209 -190h-105z" />
    <glyph glyph-name="ocircumflex" unicode="&#xf4;" horiz-adv-x="596" 
d="M287 116q29 0 54 11t43 30.5t28 46t10 56.5q0 57 -30 90t-84 33q-29 0 -53.5 -11.5t-42.5 -31t-28 -45.5t-10 -56q0 -56 29.5 -89.5t83.5 -33.5zM276 -12q-60 0 -105 20t-75 53.5t-45.5 76.5t-15.5 89q0 60 20.5 111.5t58 90t90 60.5t116.5 22q60 0 105 -20t75 -53.5
t45 -76.5t15 -89q0 -60 -20.5 -111.5t-57.5 -90t-89.5 -60.5t-116.5 -22zM559 649l-28 -101l-140 100l-211 -100l31 116l195 92z" />
    <glyph glyph-name="otilde" unicode="&#xf5;" horiz-adv-x="596" 
d="M287 116q29 0 54 11t43 30.5t28 46t10 56.5q0 57 -30 90t-84 33q-29 0 -53.5 -11.5t-42.5 -31t-28 -45.5t-10 -56q0 -56 29.5 -89.5t83.5 -33.5zM276 -12q-60 0 -105 20t-75 53.5t-45.5 76.5t-15.5 89q0 60 20.5 111.5t58 90t90 60.5t116.5 22q60 0 105 -20t75 -53.5
t45 -76.5t15 -89q0 -60 -20.5 -111.5t-57.5 -90t-89.5 -60.5t-116.5 -22zM583 710l-7 -26q-16 -57 -51 -84.5t-83 -27.5q-23 0 -41 7t-33 16t-28.5 16t-26.5 7q-20 0 -32 -12t-21 -35h-83l7 26q16 57 51 84.5t82 27.5q23 0 41.5 -7t33.5 -16t28.5 -16t26.5 -7q20 0 32 12
t21 35h83z" />
    <glyph glyph-name="odieresis" unicode="&#xf6;" horiz-adv-x="596" 
d="M287 116q29 0 54 11t43 30.5t28 46t10 56.5q0 57 -30 90t-84 33q-29 0 -53.5 -11.5t-42.5 -31t-28 -45.5t-10 -56q0 -56 29.5 -89.5t83.5 -33.5zM276 -12q-60 0 -105 20t-75 53.5t-45.5 76.5t-15.5 89q0 60 20.5 111.5t58 90t90 60.5t116.5 22q60 0 105 -20t75 -53.5
t45 -76.5t15 -89q0 -60 -20.5 -111.5t-57.5 -90t-89.5 -60.5t-116.5 -22zM265 577q-32 0 -54.5 22t-22.5 53q0 32 22.5 54t54.5 22q30 0 52 -22t22 -54q0 -31 -22 -53t-52 -22zM499 577q-32 0 -54 22t-22 53q0 32 22 54t54 22q31 0 53 -22t22 -54q0 -31 -22 -53t-53 -22z
" />
    <glyph glyph-name="oslash" unicode="&#xf8;" horiz-adv-x="598" 
d="M288 116q29 0 54 11t43 30.5t28 46t10 56.5q0 57 -30 90t-84 33q-29 0 -53.5 -11.5t-42.5 -31t-28 -45.5t-10 -56q0 -56 29.5 -89.5t83.5 -33.5zM277 -12q-60 0 -105 20t-75 53.5t-45.5 76.5t-15.5 89q0 60 20.5 111.5t58 90t90 60.5t116.5 22q60 0 105 -20t75 -53.5
t45 -76.5t15 -89q0 -60 -20.5 -111.5t-57.5 -90t-89.5 -60.5t-116.5 -22zM31 -11l-42 50l581 472l41 -50z" />
    <glyph glyph-name="ugrave" unicode="&#xf9;" horiz-adv-x="587" 
d="M206 -10q-45 0 -78 20t-53 52.5t-26 74t3 84.5l59 279h137l-58 -278q-11 -51 8 -79t60 -28q97 0 125 131l54 254h137l-106 -500h-137l11 52q-22 -28 -56 -45t-80 -17zM307 560l-69 190h146l12 -190h-89z" />
    <glyph glyph-name="uacute" unicode="&#xfa;" horiz-adv-x="587" 
d="M206 -10q-45 0 -78 20t-53 52.5t-26 74t3 84.5l59 279h137l-58 -278q-11 -51 8 -79t60 -28q97 0 125 131l54 254h137l-106 -500h-137l11 52q-22 -28 -56 -45t-80 -17zM456 750h165l-209 -190h-105z" />
    <glyph glyph-name="ucircumflex" unicode="&#xfb;" horiz-adv-x="587" 
d="M206 -10q-45 0 -78 20t-53 52.5t-26 74t3 84.5l59 279h137l-58 -278q-11 -51 8 -79t60 -28q97 0 125 131l54 254h137l-106 -500h-137l11 52q-22 -28 -56 -45t-80 -17zM551 649l-28 -101l-140 100l-211 -100l31 116l195 92z" />
    <glyph glyph-name="udieresis" unicode="&#xfc;" horiz-adv-x="587" 
d="M206 -10q-45 0 -78 20t-53 52.5t-26 74t3 84.5l59 279h137l-58 -278q-11 -51 8 -79t60 -28q97 0 125 131l54 254h137l-106 -500h-137l11 52q-22 -28 -56 -45t-80 -17zM257 577q-32 0 -54.5 22t-22.5 53q0 32 22.5 54t54.5 22q30 0 52 -22t22 -54q0 -31 -22 -53t-52 -22z
M491 577q-32 0 -54 22t-22 53q0 32 22 54t54 22q31 0 53 -22t22 -54q0 -31 -22 -53t-53 -22z" />
    <glyph glyph-name="yacute" unicode="&#xfd;" horiz-adv-x="568" 
d="M163 30l-109 470h136l68 -329l208 329h156l-465 -709h-152zM442 750h165l-209 -190h-105z" />
    <glyph glyph-name="thorn" unicode="&#xfe;" horiz-adv-x="619" 
d="M171 750h137l-61 -294q18 19 53.5 35.5t88.5 16.5q43 0 79.5 -17t62 -47t40 -70.5t14.5 -87.5q0 -64 -20 -118.5t-55 -94t-83 -62t-104 -22.5q-32 0 -58.5 8t-46.5 20t-33.5 26t-19.5 26l-59 -278h-137zM305 114q30 0 56.5 12t45.5 33.5t30 50.5t11 63q0 54 -28 85.5
t-80 31.5q-30 0 -56.5 -12t-45.5 -33.5t-30 -51t-11 -63.5q0 -54 28 -85t80 -31z" />
    <glyph glyph-name="ydieresis" unicode="&#xff;" horiz-adv-x="568" 
d="M163 30l-109 470h136l68 -329l208 329h156l-465 -709h-152zM243 577q-32 0 -54.5 22t-22.5 53q0 32 22.5 54t54.5 22q30 0 52 -22t22 -54q0 -31 -22 -53t-52 -22zM477 577q-32 0 -54 22t-22 53q0 32 22 54t54 22q31 0 53 -22t22 -54q0 -31 -22 -53t-53 -22z" />
    <glyph glyph-name="Abreve" unicode="&#x102;" horiz-adv-x="745" 
d="M401 710h130l155 -710h-140l-34 162h-301l-103 -162h-164zM292 289h193l-48 227zM493 750q-35 0 -67 12.5t-54.5 35t-32.5 55t-1 72.5h77q-9 -50 16 -73t66 -23q88 0 108 96h80q-11 -83 -62.5 -129t-129.5 -46z" />
    <glyph glyph-name="Amacron" unicode="&#x100;" horiz-adv-x="745" 
d="M401 710h130l155 -710h-140l-34 162h-301l-103 -162h-164zM292 289h193l-48 227zM333 887h343l-21 -96h-342z" />
    <glyph glyph-name="Aogonek" unicode="&#x104;" horiz-adv-x="745" 
d="M401 710h130l155 -710q-53 -22 -79.5 -45t-26.5 -43q0 -14 9.5 -20t23.5 -6t28 4t23 9l-19 -91q-14 -9 -40 -18t-61 -9q-42 0 -70.5 22t-28.5 64t29 78.5t72 54.5l-34 162h-301l-103 -162h-164zM292 289h193l-48 227z" />
    <glyph glyph-name="Cacute" unicode="&#x106;" horiz-adv-x="795" 
d="M399 -12q-80 0 -143 26t-107 71t-67.5 106t-23.5 131q0 81 27.5 153.5t79 127.5t126.5 87t170 32q68 0 124 -19t98.5 -53t70.5 -80.5t40 -101.5h-157q-21 52 -68 83t-119 31q-52 0 -97 -19t-78 -52.5t-51.5 -78.5t-18.5 -97q0 -45 13 -83t39 -65.5t64.5 -43t89.5 -15.5
q66 0 119.5 31t85.5 83h157q-20 -55 -53.5 -101.5t-81 -80.5t-107.5 -53t-132 -19zM550 927h156l-152 -157h-106z" />
    <glyph glyph-name="Ccaron" unicode="&#x10c;" horiz-adv-x="795" 
d="M399 -12q-80 0 -143 26t-107 71t-67.5 106t-23.5 131q0 81 27.5 153.5t79 127.5t126.5 87t170 32q68 0 124 -19t98.5 -53t70.5 -80.5t40 -101.5h-157q-21 52 -68 83t-119 31q-52 0 -97 -19t-78 -52.5t-51.5 -78.5t-18.5 -97q0 -45 13 -83t39 -65.5t64.5 -43t89.5 -15.5
q66 0 119.5 31t85.5 83h157q-20 -55 -53.5 -101.5t-81 -80.5t-107.5 -53t-132 -19zM685 835l-188 -73l-158 80l29 103l145 -73l187 73z" />
    <glyph glyph-name="Ccircumflex" unicode="&#x108;" horiz-adv-x="795" 
d="M399 -12q-80 0 -143 26t-107 71t-67.5 106t-23.5 131q0 81 27.5 153.5t79 127.5t126.5 87t170 32q68 0 124 -19t98.5 -53t70.5 -80.5t40 -101.5h-157q-21 52 -68 83t-119 31q-52 0 -97 -19t-78 -52.5t-51.5 -78.5t-18.5 -97q0 -45 13 -83t39 -65.5t64.5 -43t89.5 -15.5
q66 0 119.5 31t85.5 83h157q-20 -55 -53.5 -101.5t-81 -80.5t-107.5 -53t-132 -19zM345 872l187 73l159 -80l-30 -103l-144 73l-188 -73z" />
    <glyph glyph-name="Cdotaccent" unicode="&#x10a;" horiz-adv-x="795" 
d="M399 -12q-80 0 -143 26t-107 71t-67.5 106t-23.5 131q0 81 27.5 153.5t79 127.5t126.5 87t170 32q68 0 124 -19t98.5 -53t70.5 -80.5t40 -101.5h-157q-21 52 -68 83t-119 31q-52 0 -97 -19t-78 -52.5t-51.5 -78.5t-18.5 -97q0 -45 13 -83t39 -65.5t64.5 -43t89.5 -15.5
q66 0 119.5 31t85.5 83h157q-20 -55 -53.5 -101.5t-81 -80.5t-107.5 -53t-132 -19zM514 772q-32 0 -54.5 22t-22.5 53q0 32 22.5 54t54.5 22q31 0 53 -22t22 -54q0 -31 -22 -53t-53 -22z" />
    <glyph glyph-name="Dcaron" unicode="&#x10e;" horiz-adv-x="725" 
d="M288 133q54 0 102.5 18t85 51t58 79.5t21.5 103.5q0 42 -13.5 77t-39 60.5t-63 40t-84.5 14.5h-65l-94 -444h92zM173 710h199q75 0 136 -24.5t104.5 -66.5t67 -97.5t23.5 -116.5q0 -100 -32 -176t-89 -127t-135.5 -76.5t-171.5 -25.5h-253zM604 835l-188 -73l-158 80
l29 103l145 -73l187 73z" />
    <glyph glyph-name="Dcroat" unicode="&#x110;" horiz-adv-x="739" 
d="M302 133q54 0 102.5 18t85 51t58 79.5t21.5 103.5q0 42 -13.5 77t-39 60.5t-63 40t-84.5 14.5h-65l-94 -444h92zM187 710h199q75 0 136 -24.5t104.5 -66.5t67 -97.5t23.5 -116.5q0 -100 -32 -176t-89 -127t-135.5 -76.5t-171.5 -25.5h-253zM54 421h345l-26 -126h-346z
" />
    <glyph glyph-name="Ebreve" unicode="&#x114;" horiz-adv-x="568" 
d="M173 710h442l-29 -138h-297l-32 -146h238l-30 -138h-237l-32 -150h297l-29 -138h-442zM418 750q-35 0 -67 12.5t-54.5 35t-32.5 55t-1 72.5h77q-9 -50 16 -73t66 -23q88 0 108 96h80q-11 -83 -62.5 -129t-129.5 -46z" />
    <glyph glyph-name="Ecaron" unicode="&#x11a;" horiz-adv-x="568" 
d="M173 710h442l-29 -138h-297l-32 -146h238l-30 -138h-237l-32 -150h297l-29 -138h-442zM592 835l-188 -73l-158 80l29 103l145 -73l187 73z" />
    <glyph glyph-name="Emacron" unicode="&#x112;" horiz-adv-x="568" 
d="M173 710h442l-29 -138h-297l-32 -146h238l-30 -138h-237l-32 -150h297l-29 -138h-442zM258 887h343l-21 -96h-342z" />
    <glyph glyph-name="Eogonek" unicode="&#x118;" horiz-adv-x="568" 
d="M173 710h442l-29 -138h-297l-32 -146h238l-30 -138h-237l-32 -150h297l-29 -138h-442zM322 -219q-43 0 -71.5 22t-28.5 64t27.5 76.5t69.5 56.5h145q-53 -22 -79.5 -45t-26.5 -43q0 -14 9.5 -20t23.5 -6t28 4t23 9l-19 -91q-14 -9 -40 -18t-61 -9z" />
    <glyph glyph-name="Edotaccent" unicode="&#x116;" horiz-adv-x="568" 
d="M173 710h442l-29 -138h-297l-32 -146h238l-30 -138h-237l-32 -150h297l-29 -138h-442zM421 772q-32 0 -54.5 22t-22.5 53q0 32 22.5 54t54.5 22q31 0 53 -22t22 -54q0 -31 -22 -53t-53 -22z" />
    <glyph glyph-name="Gbreve" unicode="&#x11e;" horiz-adv-x="819" 
d="M410 -12q-81 0 -146 26t-110.5 71.5t-70 107t-24.5 132.5q0 80 26.5 152t77.5 126.5t125.5 86.5t171.5 32q63 0 115.5 -16.5t93.5 -46t70 -70.5t46 -89h-164q-28 40 -70.5 61t-99.5 21q-54 0 -99 -18.5t-77.5 -51.5t-50.5 -77.5t-18 -96.5q0 -47 14 -85.5t41.5 -66
t67 -43t90.5 -15.5q84 0 137.5 41t78.5 120h-233l29 136h360q1 -9 1.5 -18t0.5 -19q0 -85 -22.5 -158t-69 -127t-119 -84.5t-172.5 -30.5zM504 750q-35 0 -67 12.5t-54.5 35t-32.5 55t-1 72.5h77q-9 -50 16 -73t66 -23q88 0 108 96h80q-11 -83 -62.5 -129t-129.5 -46z" />
    <glyph glyph-name="Gcircumflex" unicode="&#x11c;" horiz-adv-x="819" 
d="M410 -12q-81 0 -146 26t-110.5 71.5t-70 107t-24.5 132.5q0 80 26.5 152t77.5 126.5t125.5 86.5t171.5 32q63 0 115.5 -16.5t93.5 -46t70 -70.5t46 -89h-164q-28 40 -70.5 61t-99.5 21q-54 0 -99 -18.5t-77.5 -51.5t-50.5 -77.5t-18 -96.5q0 -47 14 -85.5t41.5 -66
t67 -43t90.5 -15.5q84 0 137.5 41t78.5 120h-233l29 136h360q1 -9 1.5 -18t0.5 -19q0 -85 -22.5 -158t-69 -127t-119 -84.5t-172.5 -30.5zM338 872l187 73l159 -80l-30 -103l-144 73l-188 -73z" />
    <glyph glyph-name="uni0122" unicode="&#x122;" horiz-adv-x="819" 
d="M410 -12q-81 0 -146 26t-110.5 71.5t-70 107t-24.5 132.5q0 80 26.5 152t77.5 126.5t125.5 86.5t171.5 32q63 0 115.5 -16.5t93.5 -46t70 -70.5t46 -89h-164q-28 40 -70.5 61t-99.5 21q-54 0 -99 -18.5t-77.5 -51.5t-50.5 -77.5t-18 -96.5q0 -47 14 -85.5t41.5 -66
t67 -43t90.5 -15.5q84 0 137.5 41t78.5 120h-233l29 136h360q1 -9 1.5 -18t0.5 -19q0 -85 -22.5 -158t-69 -127t-119 -84.5t-172.5 -30.5zM334 -306h-60l59 98q-17 10 -27 27t-10 37q0 32 22 54t54 22q31 0 53 -22t22 -54q0 -27 -18 -48z" />
    <glyph glyph-name="Gdotaccent" unicode="&#x120;" horiz-adv-x="819" 
d="M410 -12q-81 0 -146 26t-110.5 71.5t-70 107t-24.5 132.5q0 80 26.5 152t77.5 126.5t125.5 86.5t171.5 32q63 0 115.5 -16.5t93.5 -46t70 -70.5t46 -89h-164q-28 40 -70.5 61t-99.5 21q-54 0 -99 -18.5t-77.5 -51.5t-50.5 -77.5t-18 -96.5q0 -47 14 -85.5t41.5 -66
t67 -43t90.5 -15.5q84 0 137.5 41t78.5 120h-233l29 136h360q1 -9 1.5 -18t0.5 -19q0 -85 -22.5 -158t-69 -127t-119 -84.5t-172.5 -30.5zM507 772q-32 0 -54.5 22t-22.5 53q0 32 22.5 54t54.5 22q31 0 53 -22t22 -54q0 -31 -22 -53t-53 -22z" />
    <glyph glyph-name="Hbar" unicode="&#x126;" horiz-adv-x="785" 
d="M188 710h145l-61 -283h309l60 283h145l-151 -710h-145l62 289h-309l-61 -289h-145zM96 619h742l-21 -100h-742z" />
    <glyph glyph-name="Hcircumflex" unicode="&#x124;" horiz-adv-x="756" 
d="M173 710h145l-61 -283h309l60 283h145l-151 -710h-145l62 289h-309l-61 -289h-145zM333 872l187 73l159 -80l-30 -103l-144 73l-188 -73z" />
    <glyph glyph-name="Ibreve" unicode="&#x12c;" horiz-adv-x="303" 
d="M173 710h145l-151 -710h-145zM273 750q-35 0 -67 12.5t-54.5 35t-32.5 55t-1 72.5h77q-9 -50 16 -73t66 -23q88 0 108 96h80q-11 -83 -62.5 -129t-129.5 -46z" />
    <glyph glyph-name="Idotaccent" unicode="&#x130;" horiz-adv-x="303" 
d="M173 710h145l-151 -710h-145zM276 772q-32 0 -54.5 22t-22.5 53q0 32 22.5 54t54.5 22q31 0 53 -22t22 -54q0 -31 -22 -53t-53 -22z" />
    <glyph glyph-name="Imacron" unicode="&#x12a;" horiz-adv-x="303" 
d="M173 710h145l-151 -710h-145zM112 887h343l-21 -96h-342z" />
    <glyph glyph-name="Iogonek" unicode="&#x12e;" horiz-adv-x="303" 
d="M173 710h145l-151 -710h-145zM25 -219q-43 0 -71.5 22t-28.5 64t27.5 76.5t69.5 56.5h145q-53 -22 -79.5 -45t-26.5 -43q0 -14 9.5 -20t23.5 -6t28 4t23 9l-19 -91q-14 -9 -40 -18t-61 -9z" />
    <glyph glyph-name="Itilde" unicode="&#x128;" horiz-adv-x="303" 
d="M173 710h145l-151 -710h-145zM77 804q6 28 20.5 49.5t33 35t38.5 20.5t38 7q23 0 42 -7t35.5 -16t31.5 -16t29 -7q20 0 32.5 11.5t21.5 35.5h79l-6 -26q-6 -29 -20.5 -50t-33 -34.5t-38.5 -20.5t-38 -7q-23 0 -42 7t-36 16t-31.5 16t-28.5 7q-38 0 -54 -47h-78z" />
    <glyph glyph-name="uni1ECA" unicode="&#x1eca;" horiz-adv-x="303" 
d="M173 710h145l-151 -710h-145zM66 -219q-32 0 -54.5 22t-22.5 53q0 32 22.5 54t54.5 22q31 0 53 -22t22 -54q0 -31 -22 -53t-53 -22z" />
    <glyph glyph-name="Jcircumflex" unicode="&#x134;" horiz-adv-x="536" 
d="M410 710h144l-113 -533q-20 -97 -76.5 -143t-147.5 -46q-40 0 -81.5 12t-74.5 38.5t-52.5 67.5t-14.5 98h143q-1 -21 6 -36.5t18.5 -25.5t26 -14.5t28.5 -4.5q35 0 56.5 20.5t29.5 58.5zM343 872l187 73l159 -80l-30 -103l-144 73l-188 -73z" />
    <glyph glyph-name="uni0136" unicode="&#x136;" horiz-adv-x="690" 
d="M235 324l-69 -324h-144l151 710h144l-65 -305l317 305h183l-370 -355l280 -355h-172zM260 -306h-60l59 98q-17 10 -27 27t-10 37q0 32 22 54t54 22q31 0 53 -22t22 -54q0 -27 -18 -48z" />
    <glyph glyph-name="Lacute" unicode="&#x139;" horiz-adv-x="543" 
d="M173 710h145l-122 -572h304l-29 -138h-449zM314 927h156l-152 -157h-106z" />
    <glyph glyph-name="Lcaron" unicode="&#x13d;" horiz-adv-x="545" 
d="M173 710h145l-122 -572h304l-29 -138h-449zM418 750h137l-99 -161h-93z" />
    <glyph glyph-name="uni013B" unicode="&#x13b;" horiz-adv-x="543" 
d="M173 710h145l-122 -572h304l-29 -138h-449zM179 -306h-60l59 98q-17 10 -27 27t-10 37q0 32 22 54t54 22q31 0 53 -22t22 -54q0 -27 -18 -48z" />
    <glyph glyph-name="Ldot" unicode="&#x13f;" horiz-adv-x="549" 
d="M173 710h145l-122 -572h304l-29 -138h-449zM456 349q-32 0 -54 22t-22 53q0 32 22 54t54 22q31 0 53 -22t22 -54q0 -31 -22 -53t-53 -22z" />
    <glyph glyph-name="glyph221" horiz-adv-x="549" 
d="M173 710h145l-122 -572h304l-29 -138h-449zM456 349q-32 0 -54 22t-22 53q0 32 22 54t54 22q31 0 53 -22t22 -54q0 -31 -22 -53t-53 -22z" />
    <glyph glyph-name="Lslash" unicode="&#x141;" horiz-adv-x="570" 
d="M200 710h145l-122 -572h304l-29 -138h-449zM23 213l25 120l396 202l-26 -120z" />
    <glyph glyph-name="Eng" unicode="&#x14a;" horiz-adv-x="793" 
d="M446 -219q-35 0 -64 7t-48 15l28 131q16 -7 34 -11.5t35 -4.5q33 0 51.5 18t26.5 59l7 34l-247 452l-102 -481h-145l151 710h125l262 -479l102 479h145l-163 -767q-9 -40 -27.5 -70.5t-44.5 -50.5t-58 -30.5t-68 -10.5z" />
    <glyph glyph-name="Nacute" unicode="&#x143;" horiz-adv-x="793" 
d="M531 0l-263 479l-101 -479h-145l151 710h125l261 -480l103 480h145l-151 -710h-125zM555 927h156l-152 -157h-106z" />
    <glyph glyph-name="Ncaron" unicode="&#x147;" horiz-adv-x="793" 
d="M531 0l-263 479l-101 -479h-145l151 710h125l261 -480l103 480h145l-151 -710h-125zM690 835l-188 -73l-158 80l29 103l145 -73l187 73z" />
    <glyph glyph-name="uni0145" unicode="&#x145;" horiz-adv-x="793" 
d="M531 0l-263 479l-101 -479h-145l151 710h125l261 -480l103 480h145l-151 -710h-125zM273 -306h-60l59 98q-17 10 -27 27t-10 37q0 32 22 54t54 22q31 0 53 -22t22 -54q0 -27 -18 -48z" />
    <glyph glyph-name="OE" unicode="&#x152;" horiz-adv-x="1113" 
d="M574 33q-39 -21 -85.5 -33t-100.5 -12q-75 0 -135.5 26t-103.5 71t-66.5 106t-23.5 131q0 81 27 153.5t79 127.5t127 87t170 32q80 0 139.5 -27t98.5 -71l18 86h443l-29 -138h-298l-31 -146h237l-29 -138h-238l-32 -150h298l-29 -138h-443zM411 128q52 0 96.5 19
t77.5 52.5t52 78.5t19 97q0 45 -13 83t-39 65.5t-64.5 43t-89.5 15.5q-52 0 -97 -19t-78 -52.5t-51.5 -78.5t-18.5 -97q0 -45 13 -83t39 -65.5t64.5 -43t89.5 -15.5z" />
    <glyph glyph-name="Obreve" unicode="&#x14e;" horiz-adv-x="824" 
d="M411 128q52 0 96.5 19t77.5 52.5t52 78.5t19 97q0 45 -13 83t-39 65.5t-64.5 43t-89.5 15.5q-52 0 -97 -19t-78 -52.5t-51.5 -78.5t-18.5 -97q0 -45 13 -83t39 -65.5t64.5 -43t89.5 -15.5zM399 -12q-80 0 -143.5 26t-107 71t-66.5 106t-23 131q0 81 27 153.5t79 127.5
t127 87t170 32q80 0 143 -26t107 -71t67 -106t23 -131q0 -81 -27.5 -153.5t-79 -127.5t-126.5 -87t-170 -32zM521 750q-35 0 -67 12.5t-54.5 35t-32.5 55t-1 72.5h77q-9 -50 16 -73t66 -23q88 0 108 96h80q-11 -83 -62.5 -129t-129.5 -46z" />
    <glyph glyph-name="Ohungarumlaut" unicode="&#x150;" horiz-adv-x="824" 
d="M411 128q52 0 96.5 19t77.5 52.5t52 78.5t19 97q0 45 -13 83t-39 65.5t-64.5 43t-89.5 15.5q-52 0 -97 -19t-78 -52.5t-51.5 -78.5t-18.5 -97q0 -45 13 -83t39 -65.5t64.5 -43t89.5 -15.5zM399 -12q-80 0 -143.5 26t-107 71t-66.5 106t-23 131q0 81 27 153.5t79 127.5
t127 87t170 32q80 0 143 -26t107 -71t67 -106t23 -131q0 -81 -27.5 -153.5t-79 -127.5t-126.5 -87t-170 -32zM637 927h147l-154 -157h-92zM454 927h148l-154 -157h-92z" />
    <glyph glyph-name="Omacron" unicode="&#x14c;" horiz-adv-x="824" 
d="M411 128q52 0 96.5 19t77.5 52.5t52 78.5t19 97q0 45 -13 83t-39 65.5t-64.5 43t-89.5 15.5q-52 0 -97 -19t-78 -52.5t-51.5 -78.5t-18.5 -97q0 -45 13 -83t39 -65.5t64.5 -43t89.5 -15.5zM399 -12q-80 0 -143.5 26t-107 71t-66.5 106t-23 131q0 81 27 153.5t79 127.5
t127 87t170 32q80 0 143 -26t107 -71t67 -106t23 -131q0 -81 -27.5 -153.5t-79 -127.5t-126.5 -87t-170 -32zM361 887h343l-21 -96h-342z" />
    <glyph glyph-name="uni1ECC" unicode="&#x1ecc;" horiz-adv-x="824" 
d="M411 128q52 0 96.5 19t77.5 52.5t52 78.5t19 97q0 45 -13 83t-39 65.5t-64.5 43t-89.5 15.5q-52 0 -97 -19t-78 -52.5t-51.5 -78.5t-18.5 -97q0 -45 13 -83t39 -65.5t64.5 -43t89.5 -15.5zM399 -12q-80 0 -143.5 26t-107 71t-66.5 106t-23 131q0 81 27 153.5t79 127.5
t127 87t170 32q80 0 143 -26t107 -71t67 -106t23 -131q0 -81 -27.5 -153.5t-79 -127.5t-126.5 -87t-170 -32zM335 -219q-32 0 -54.5 22t-22.5 53q0 32 22.5 54t54.5 22q31 0 53 -22t22 -54q0 -31 -22 -53t-53 -22z" />
    <glyph glyph-name="Racute" unicode="&#x154;" horiz-adv-x="652" 
d="M173 710h236q52 0 92 -14.5t67.5 -39.5t41.5 -58t14 -69q0 -39 -10.5 -75.5t-34 -66.5t-61 -51.5t-91.5 -31.5l194 -304h-161l-191 299h-39l-63 -299h-145zM371 423q49 0 77 23.5t29 61.5q0 29 -19.5 49t-61.5 20h-107l-32 -154h114zM461 927h156l-152 -157h-106z" />
    <glyph glyph-name="Rcaron" unicode="&#x158;" horiz-adv-x="652" 
d="M173 710h236q52 0 92 -14.5t67.5 -39.5t41.5 -58t14 -69q0 -39 -10.5 -75.5t-34 -66.5t-61 -51.5t-91.5 -31.5l194 -304h-161l-191 299h-39l-63 -299h-145zM371 423q49 0 77 23.5t29 61.5q0 29 -19.5 49t-61.5 20h-107l-32 -154h114zM595 835l-188 -73l-158 80l29 103
l145 -73l187 73z" />
    <glyph glyph-name="uni0156" unicode="&#x156;" horiz-adv-x="652" 
d="M173 710h236q52 0 92 -14.5t67.5 -39.5t41.5 -58t14 -69q0 -39 -10.5 -75.5t-34 -66.5t-61 -51.5t-91.5 -31.5l194 -304h-161l-191 299h-39l-63 -299h-145zM371 423q49 0 77 23.5t29 61.5q0 29 -19.5 49t-61.5 20h-107l-32 -154h114zM239 -306h-60l59 98q-17 10 -27 27
t-10 37q0 32 22 54t54 22q31 0 53 -22t22 -54q0 -27 -18 -48z" />
    <glyph glyph-name="Sacute" unicode="&#x15a;" horiz-adv-x="584" 
d="M286 -12q-70 0 -121 21t-83.5 54.5t-48 74.5t-15.5 82h145q5 -45 40.5 -71.5t86.5 -26.5q42 0 68 22t26 52q0 34 -23 54.5t-71 41.5l-37 16q-31 13 -58 32t-47.5 44t-32.5 56t-12 70q0 45 18 83.5t50 67t76.5 45t98.5 16.5q59 0 103.5 -19.5t74.5 -50.5t45.5 -69.5
t16.5 -76.5h-144q-7 41 -37 61.5t-67 20.5q-38 0 -63.5 -19t-25.5 -50t20.5 -49t56.5 -33l51 -21q75 -31 114.5 -85t39.5 -129q0 -47 -17 -86t-49 -67.5t-77 -44.5t-102 -16zM445 927h156l-152 -157h-106z" />
    <glyph glyph-name="Scaron" unicode="&#x160;" horiz-adv-x="584" 
d="M286 -12q-70 0 -121 21t-83.5 54.5t-48 74.5t-15.5 82h145q5 -45 40.5 -71.5t86.5 -26.5q42 0 68 22t26 52q0 34 -23 54.5t-71 41.5l-37 16q-31 13 -58 32t-47.5 44t-32.5 56t-12 70q0 45 18 83.5t50 67t76.5 45t98.5 16.5q59 0 103.5 -19.5t74.5 -50.5t45.5 -69.5
t16.5 -76.5h-144q-7 41 -37 61.5t-67 20.5q-38 0 -63.5 -19t-25.5 -50t20.5 -49t56.5 -33l51 -21q75 -31 114.5 -85t39.5 -129q0 -47 -17 -86t-49 -67.5t-77 -44.5t-102 -16zM579 835l-188 -73l-158 80l29 103l145 -73l187 73z" />
    <glyph glyph-name="Scedilla" unicode="&#x15e;" horiz-adv-x="584" 
d="M286 -12q-70 0 -121 21t-83.5 54.5t-48 74.5t-15.5 82h145q5 -45 40.5 -71.5t86.5 -26.5q42 0 68 22t26 52q0 34 -23 54.5t-71 41.5l-37 16q-31 13 -58 32t-47.5 44t-32.5 56t-12 70q0 45 18 83.5t50 67t76.5 45t98.5 16.5q59 0 103.5 -19.5t74.5 -50.5t45.5 -69.5
t16.5 -76.5h-144q-7 41 -37 61.5t-67 20.5q-38 0 -63.5 -19t-25.5 -50t20.5 -49t56.5 -33l51 -21q75 -31 114.5 -85t39.5 -129q0 -47 -17 -86t-49 -67.5t-77 -44.5t-102 -16zM134 -143q16 -8 35.5 -11.5t37.5 -3.5q25 0 47.5 8t22.5 28q0 13 -11 19t-28 6q-9 0 -20.5 -2.5
t-22.5 -7.5l-31 19l72 91h64l-39 -49q14 4 24.5 4.5t18.5 0.5q35 0 54 -19t19 -48q0 -26 -13 -46.5t-35 -34.5t-50.5 -22t-59.5 -8q-21 0 -48 2.5t-50 12.5z" />
    <glyph glyph-name="Scircumflex" unicode="&#x15c;" horiz-adv-x="584" 
d="M286 -12q-70 0 -121 21t-83.5 54.5t-48 74.5t-15.5 82h145q5 -45 40.5 -71.5t86.5 -26.5q42 0 68 22t26 52q0 34 -23 54.5t-71 41.5l-37 16q-31 13 -58 32t-47.5 44t-32.5 56t-12 70q0 45 18 83.5t50 67t76.5 45t98.5 16.5q59 0 103.5 -19.5t74.5 -50.5t45.5 -69.5
t16.5 -76.5h-144q-7 41 -37 61.5t-67 20.5q-38 0 -63.5 -19t-25.5 -50t20.5 -49t56.5 -33l51 -21q75 -31 114.5 -85t39.5 -129q0 -47 -17 -86t-49 -67.5t-77 -44.5t-102 -16zM240 872l187 73l159 -80l-30 -103l-144 73l-188 -73z" />
    <glyph glyph-name="uni0218" unicode="&#x218;" horiz-adv-x="584" 
d="M286 -12q-70 0 -121 21t-83.5 54.5t-48 74.5t-15.5 82h145q5 -45 40.5 -71.5t86.5 -26.5q42 0 68 22t26 52q0 34 -23 54.5t-71 41.5l-37 16q-31 13 -58 32t-47.5 44t-32.5 56t-12 70q0 45 18 83.5t50 67t76.5 45t98.5 16.5q59 0 103.5 -19.5t74.5 -50.5t45.5 -69.5
t16.5 -76.5h-144q-7 41 -37 61.5t-67 20.5q-38 0 -63.5 -19t-25.5 -50t20.5 -49t56.5 -33l51 -21q75 -31 114.5 -85t39.5 -129q0 -47 -17 -86t-49 -67.5t-77 -44.5t-102 -16zM207 -306h-60l59 98q-17 10 -27 27t-10 37q0 32 22 54t54 22q31 0 53 -22t22 -54q0 -27 -18 -48z
" />
    <glyph glyph-name="Tbar" unicode="&#x166;" horiz-adv-x="584" 
d="M282 572h-190l29 138h526l-29 -138h-191l-122 -572h-145zM109 422h425l-26 -126h-426z" />
    <glyph glyph-name="Tcaron" unicode="&#x164;" horiz-adv-x="560" 
d="M271 572h-190l29 138h526l-29 -138h-191l-122 -572h-145zM574 835l-188 -73l-158 80l29 103l145 -73l187 73z" />
    <glyph glyph-name="uni0162" unicode="&#x162;" horiz-adv-x="560" 
d="M271 572h-190l29 138h526l-29 -138h-191l-122 -572h-145zM154 -306h-60l59 98q-17 10 -27 27t-10 37q0 32 22 54t54 22q31 0 53 -22t22 -54q0 -27 -18 -48z" />
    <glyph glyph-name="uni021A" unicode="&#x21a;" horiz-adv-x="560" 
d="M271 572h-190l29 138h526l-29 -138h-191l-122 -572h-145zM154 -306h-60l59 98q-17 10 -27 27t-10 37q0 32 22 54t54 22q31 0 53 -22t22 -54q0 -27 -18 -48z" />
    <glyph glyph-name="Ubreve" unicode="&#x16c;" horiz-adv-x="719" 
d="M650 285q-17 -77 -43 -132.5t-65 -92.5t-93 -54.5t-126 -17.5q-63 0 -115 23t-86 64t-47 98t1 125l87 412h145l-89 -421q-9 -42 -3.5 -72.5t22 -50t42 -29t57.5 -9.5q65 0 107 37t59 115l91 430h147zM479 750q-35 0 -67 12.5t-54.5 35t-32.5 55t-1 72.5h77q-9 -50 16 -73
t66 -23q88 0 108 96h80q-11 -83 -62.5 -129t-129.5 -46z" />
    <glyph glyph-name="Uhungarumlaut" unicode="&#x170;" horiz-adv-x="719" 
d="M650 285q-17 -77 -43 -132.5t-65 -92.5t-93 -54.5t-126 -17.5q-63 0 -115 23t-86 64t-47 98t1 125l87 412h145l-89 -421q-9 -42 -3.5 -72.5t22 -50t42 -29t57.5 -9.5q65 0 107 37t59 115l91 430h147zM595 927h147l-154 -157h-92zM412 927h148l-154 -157h-92z" />
    <glyph glyph-name="Umacron" unicode="&#x16a;" horiz-adv-x="719" 
d="M650 285q-17 -77 -43 -132.5t-65 -92.5t-93 -54.5t-126 -17.5q-63 0 -115 23t-86 64t-47 98t1 125l87 412h145l-89 -421q-9 -42 -3.5 -72.5t22 -50t42 -29t57.5 -9.5q65 0 107 37t59 115l91 430h147zM319 887h343l-21 -96h-342z" />
    <glyph glyph-name="Uogonek" unicode="&#x172;" horiz-adv-x="719" 
d="M316 -219q-42 0 -70.5 22t-28.5 64q0 34 18 64t59 60q-65 6 -111.5 33t-74 69t-36 95t3.5 110l87 412h145l-89 -421q-9 -42 -3.5 -72.5t22 -50t42 -29t57.5 -9.5q65 0 107 37t59 115l91 430h147l-91 -425q-13 -62 -30 -105.5t-39 -74.5t-49.5 -52t-61.5 -38
q-20 -10 -40.5 -21.5t-38 -24t-28.5 -27t-11 -30.5q0 -14 9.5 -20t23.5 -6t28 4t24 9l-20 -91q-14 -9 -40 -18t-61 -9z" />
    <glyph glyph-name="Uring" unicode="&#x16e;" horiz-adv-x="719" 
d="M650 285q-17 -77 -43 -132.5t-65 -92.5t-93 -54.5t-126 -17.5q-63 0 -115 23t-86 64t-47 98t1 125l87 412h145l-89 -421q-9 -42 -3.5 -72.5t22 -50t42 -29t57.5 -9.5q65 0 107 37t59 115l91 430h147zM486 753q-25 0 -47 9.5t-38.5 26t-26.5 38t-10 46.5t10 46.5t26.5 38
t38.5 26t47 9.5t47 -9.5t38.5 -26t26.5 -38t10 -46.5t-10 -46.5t-26.5 -38t-38.5 -26t-47 -9.5zM486 815q25 0 42 17t17 41t-17 41t-42 17t-42 -17t-17 -41t17 -41t42 -17z" />
    <glyph glyph-name="Utilde" unicode="&#x168;" horiz-adv-x="719" 
d="M650 285q-17 -77 -43 -132.5t-65 -92.5t-93 -54.5t-126 -17.5q-63 0 -115 23t-86 64t-47 98t1 125l87 412h145l-89 -421q-9 -42 -3.5 -72.5t22 -50t42 -29t57.5 -9.5q65 0 107 37t59 115l91 430h147zM283 804q6 28 20.5 49.5t33 35t38.5 20.5t38 7q23 0 42 -7t35.5 -16
t31.5 -16t29 -7q20 0 32.5 11.5t21.5 35.5h79l-6 -26q-6 -29 -20.5 -50t-33 -34.5t-38.5 -20.5t-38 -7q-23 0 -42 7t-36 16t-31.5 16t-28.5 7q-38 0 -54 -47h-78z" />
    <glyph glyph-name="uni1EE4" unicode="&#x1ee4;" horiz-adv-x="719" 
d="M650 285q-17 -77 -43 -132.5t-65 -92.5t-93 -54.5t-126 -17.5q-63 0 -115 23t-86 64t-47 98t1 125l87 412h145l-89 -421q-9 -42 -3.5 -72.5t22 -50t42 -29t57.5 -9.5q65 0 107 37t59 115l91 430h147zM272 -219q-32 0 -54.5 22t-22.5 53q0 32 22.5 54t54.5 22q31 0 53 -22
t22 -54q0 -31 -22 -53t-53 -22z" />
    <glyph glyph-name="Wacute" unicode="&#x1e82;" horiz-adv-x="965" 
d="M510 371l-241 -371h-137l-19 710h151l7 -464l306 476l94 -482l208 470h160l-322 -710h-137zM640 927h156l-152 -157h-106z" />
    <glyph glyph-name="Wcircumflex" unicode="&#x174;" horiz-adv-x="965" 
d="M510 371l-241 -371h-137l-19 710h151l7 -464l306 476l94 -482l208 470h160l-322 -710h-137zM435 872l187 73l159 -80l-30 -103l-144 73l-188 -73z" />
    <glyph glyph-name="Wdieresis" unicode="&#x1e84;" horiz-adv-x="965" 
d="M510 371l-241 -371h-137l-19 710h151l7 -464l306 476l94 -482l208 470h160l-322 -710h-137zM486 772q-32 0 -54 22t-22 53q0 32 22 54t54 22q31 0 53 -22t22 -54q0 -31 -22 -53t-53 -22zM721 772q-32 0 -54 22t-22 53q0 32 22 54t54 22q31 0 53 -22t22 -54q0 -31 -22 -53
t-53 -22z" />
    <glyph glyph-name="Wgrave" unicode="&#x1e80;" horiz-adv-x="965" 
d="M510 371l-241 -371h-137l-19 710h151l7 -464l306 476l94 -482l208 470h160l-322 -710h-137zM531 770l-94 157h150l42 -157h-98z" />
    <glyph glyph-name="Ycircumflex" unicode="&#x176;" horiz-adv-x="690" 
d="M278 299l-174 411h151l112 -276l230 276h177l-350 -412l-63 -298h-146zM287 872l187 73l159 -80l-30 -103l-144 73l-188 -73z" />
    <glyph glyph-name="Ydieresis" unicode="&#x178;" horiz-adv-x="690" 
d="M278 299l-174 411h151l112 -276l230 276h177l-350 -412l-63 -298h-146zM337 772q-32 0 -54 22t-22 53q0 32 22 54t54 22q31 0 53 -22t22 -54q0 -31 -22 -53t-53 -22zM572 772q-32 0 -54 22t-22 53q0 32 22 54t54 22q31 0 53 -22t22 -54q0 -31 -22 -53t-53 -22z" />
    <glyph glyph-name="Ygrave" unicode="&#x1ef2;" horiz-adv-x="690" 
d="M278 299l-174 411h151l112 -276l230 276h177l-350 -412l-63 -298h-146zM382 770l-94 157h150l42 -157h-98z" />
    <glyph glyph-name="uni0232" unicode="&#x232;" horiz-adv-x="690" 
d="M278 299l-174 411h151l112 -276l230 276h177l-350 -412l-63 -298h-146zM292 887h343l-21 -96h-342z" />
    <glyph glyph-name="Zacute" unicode="&#x179;" horiz-adv-x="614" 
d="M1 99l426 473h-319l29 138h528l-21 -99l-427 -473h333l-29 -138h-541zM468 927h156l-152 -157h-106z" />
    <glyph glyph-name="Zcaron" unicode="&#x17d;" horiz-adv-x="614" 
d="M1 99l426 473h-319l29 138h528l-21 -99l-427 -473h333l-29 -138h-541zM603 835l-188 -73l-158 80l29 103l145 -73l187 73z" />
    <glyph glyph-name="Zdotaccent" unicode="&#x17b;" horiz-adv-x="614" 
d="M1 99l426 473h-319l29 138h528l-21 -99l-427 -473h333l-29 -138h-541zM432 772q-32 0 -54.5 22t-22.5 53q0 32 22.5 54t54.5 22q31 0 53 -22t22 -54q0 -31 -22 -53t-53 -22z" />
    <glyph glyph-name="uni1E9E" unicode="&#x1e9e;" horiz-adv-x="655" 
d="M173 710h484l-21 -98l-138 -171q55 -21 83.5 -68t28.5 -101q0 -63 -20.5 -113.5t-60 -85.5t-96.5 -54t-130 -19h-57l29 138h43q61 0 101 30.5t40 89.5q0 41 -27 66t-69 25h-43l21 100l104 129h-156l-122 -578h-145z" />
    <glyph glyph-name="uni018F" unicode="&#x18f;" horiz-adv-x="821" 
d="M395 -12q-80 0 -143 26t-107 71t-67 106t-23 131q0 25 1 42.5t6 40.5h588q-8 80 -60 128.5t-146 48.5q-56 0 -103 -22t-79 -60h-169q22 49 56.5 89.5t80 70t102.5 46t124 16.5q80 0 143.5 -26t107.5 -71t67.5 -106t23.5 -131q0 -81 -27.5 -153.5t-79 -127.5t-126.5 -87
t-170 -32zM407 128q78 0 138 41.5t88 108.5h-424q14 -66 64.5 -108t133.5 -42z" />
    <glyph glyph-name="abreve" unicode="&#x103;" horiz-adv-x="620" 
d="M231 -8q-44 0 -80 17t-61.5 47t-40 70.5t-14.5 87.5q0 64 20 118.5t55 94t83 62t105 22.5q31 0 57.5 -8t46.5 -20t34 -26t20 -26l14 69h137l-106 -500h-137l9 44q-18 -19 -53 -35.5t-89 -16.5zM280 110q30 0 56.5 12t45.5 33.5t30 51t11 63.5q0 54 -28 85t-80 31
q-30 0 -56.5 -12t-45.5 -33.5t-30 -50.5t-11 -63q0 -54 28 -85.5t80 -31.5zM395 550q-39 0 -71.5 15t-54 40.5t-30 60.5t0.5 76h81q-7 -29 -2.5 -50t16 -35t29 -21t37.5 -7q39 1 69 25.5t38 87.5h80q-1 -41 -14.5 -76t-38 -60.5t-60 -40.5t-80.5 -15z" />
    <glyph glyph-name="amacron" unicode="&#x101;" horiz-adv-x="620" 
d="M231 -8q-44 0 -80 17t-61.5 47t-40 70.5t-14.5 87.5q0 64 20 118.5t55 94t83 62t105 22.5q31 0 57.5 -8t46.5 -20t34 -26t20 -26l14 69h137l-106 -500h-137l9 44q-18 -19 -53 -35.5t-89 -16.5zM280 110q30 0 56.5 12t45.5 33.5t30 51t11 63.5q0 54 -28 85t-80 31
q-30 0 -56.5 -12t-45.5 -33.5t-30 -50.5t-11 -63q0 -54 28 -85.5t80 -31.5zM239 710h342l-20 -97h-343z" />
    <glyph glyph-name="aogonek" unicode="&#x105;" horiz-adv-x="620" 
d="M231 -8q-44 0 -80 17t-61.5 47t-40 70.5t-14.5 87.5q0 64 20 118.5t55 94t83 62t105 22.5q31 0 57.5 -8t46.5 -20t34 -26t20 -26l14 69h137l-106 -500h-137l9 44q-18 -19 -53 -35.5t-89 -16.5zM280 110q30 0 56.5 12t45.5 33.5t30 51t11 63.5q0 54 -28 85t-80 31
q-30 0 -56.5 -12t-45.5 -33.5t-30 -50.5t-11 -63q0 -54 28 -85.5t80 -31.5zM365 -219q-44 0 -71 25.5t-27 60.5q0 39 27 74.5t70 58.5h137q-53 -22 -80.5 -47t-27.5 -48q0 -14 9 -20.5t23 -6.5t29 5t24 10l-18 -85q-14 -9 -38.5 -18t-56.5 -9z" />
    <glyph glyph-name="cacute" unicode="&#x107;" horiz-adv-x="585" 
d="M276 -11q-59 0 -104 20t-75.5 53t-46 76t-15.5 89q0 60 20.5 111.5t58 90t90 60.5t116.5 22q54 0 95.5 -16t71.5 -44t47.5 -64.5t23.5 -77.5h-142q-11 35 -38.5 56t-68.5 21q-29 0 -54 -11.5t-43 -32t-28 -47t-10 -56.5q0 -56 29.5 -91.5t83.5 -35.5q40 0 71 22.5
t48 56.5h143q-12 -44 -35 -81t-57 -64t-79.5 -42t-101.5 -15zM459 750h165l-209 -190h-105z" />
    <glyph glyph-name="ccaron" unicode="&#x10d;" horiz-adv-x="585" 
d="M276 -11q-59 0 -104 20t-75.5 53t-46 76t-15.5 89q0 60 20.5 111.5t58 90t90 60.5t116.5 22q54 0 95.5 -16t71.5 -44t47.5 -64.5t23.5 -77.5h-142q-11 35 -38.5 56t-68.5 21q-29 0 -54 -11.5t-43 -32t-28 -47t-10 -56.5q0 -56 29.5 -91.5t83.5 -35.5q40 0 71 22.5
t48 56.5h143q-12 -44 -35 -81t-57 -64t-79.5 -42t-101.5 -15zM202 656l27 100l140 -100l212 100l-31 -116l-195 -92z" />
    <glyph glyph-name="ccircumflex" unicode="&#x109;" horiz-adv-x="585" 
d="M276 -11q-59 0 -104 20t-75.5 53t-46 76t-15.5 89q0 60 20.5 111.5t58 90t90 60.5t116.5 22q54 0 95.5 -16t71.5 -44t47.5 -64.5t23.5 -77.5h-142q-11 35 -38.5 56t-68.5 21q-29 0 -54 -11.5t-43 -32t-28 -47t-10 -56.5q0 -56 29.5 -91.5t83.5 -35.5q40 0 71 22.5
t48 56.5h143q-12 -44 -35 -81t-57 -64t-79.5 -42t-101.5 -15zM554 649l-28 -101l-140 100l-211 -100l31 116l195 92z" />
    <glyph glyph-name="cdotaccent" unicode="&#x10b;" horiz-adv-x="585" 
d="M276 -11q-59 0 -104 20t-75.5 53t-46 76t-15.5 89q0 60 20.5 111.5t58 90t90 60.5t116.5 22q54 0 95.5 -16t71.5 -44t47.5 -64.5t23.5 -77.5h-142q-11 35 -38.5 56t-68.5 21q-29 0 -54 -11.5t-43 -32t-28 -47t-10 -56.5q0 -56 29.5 -91.5t83.5 -35.5q40 0 71 22.5
t48 56.5h143q-12 -44 -35 -81t-57 -64t-79.5 -42t-101.5 -15zM378 577q-32 0 -54 22t-22 53q0 32 22 54t54 22t53.5 -22t21.5 -54q0 -31 -21.5 -53t-53.5 -22z" />
    <glyph glyph-name="dcaron" unicode="&#x10f;" horiz-adv-x="628" 
d="M231 -11q-44 0 -80 17t-61.5 47t-40 70.5t-14.5 87.5q0 64 20 118.5t55 94.5t83 62t105 22q31 0 57.5 -8t46.5 -20t34 -26t20 -26l67 322h137l-158 -750h-138l9 42q-18 -19 -53 -36t-89 -17zM280 108q30 0 56.5 12t45.5 33.5t30 50.5t11 63q0 54 -28 85.5t-80 31.5
q-30 0 -56.5 -12t-45.5 -33.5t-30 -50.5t-11 -63q0 -54 28 -85.5t80 -31.5zM701 750h137l-99 -161h-93z" />
    <glyph glyph-name="dcroat" unicode="&#x111;" horiz-adv-x="620" 
d="M231 -11q-44 0 -80 17t-61.5 47t-40 70.5t-14.5 87.5q0 64 20 118.5t55 94.5t83 62t105 22q31 0 57.5 -8t46.5 -20t34 -26t20 -26l67 322h137l-158 -750h-138l9 42q-18 -19 -53 -36t-89 -17zM280 108q30 0 56.5 12t45.5 33.5t30 50.5t11 63q0 54 -28 85.5t-80 31.5
q-30 0 -56.5 -12t-45.5 -33.5t-30 -50.5t-11 -63q0 -54 28 -85.5t80 -31.5zM363 657h339l-19 -90h-338z" />
    <glyph glyph-name="ebreve" unicode="&#x115;" horiz-adv-x="592" 
d="M275 -11q-56 0 -100.5 19.5t-75.5 52t-47.5 75.5t-16.5 91q0 61 20 113t56.5 90t89 59.5t118.5 21.5q56 0 104 -20.5t81 -58.5t46.5 -92.5t1.5 -121.5h-388q4 -51 37.5 -80.5t81.5 -29.5q36 0 65.5 14t46.5 41h145q-37 -90 -104 -132t-161 -42zM305 400q-21 0 -41.5 -6
t-38.5 -17.5t-32 -28.5t-21 -40h244q-6 48 -38.5 70t-72.5 22zM362 550q-39 0 -71.5 15t-54 40.5t-30 60.5t0.5 76h81q-7 -29 -2.5 -50t16 -35t29 -21t37.5 -7q39 1 69 25.5t38 87.5h80q-1 -41 -14.5 -76t-38 -60.5t-60 -40.5t-80.5 -15z" />
    <glyph glyph-name="ecaron" unicode="&#x11b;" horiz-adv-x="592" 
d="M275 -11q-56 0 -100.5 19.5t-75.5 52t-47.5 75.5t-16.5 91q0 61 20 113t56.5 90t89 59.5t118.5 21.5q56 0 104 -20.5t81 -58.5t46.5 -92.5t1.5 -121.5h-388q4 -51 37.5 -80.5t81.5 -29.5q36 0 65.5 14t46.5 41h145q-37 -90 -104 -132t-161 -42zM305 400q-21 0 -41.5 -6
t-38.5 -17.5t-32 -28.5t-21 -40h244q-6 48 -38.5 70t-72.5 22zM190 656l27 100l140 -100l212 100l-31 -116l-195 -92z" />
    <glyph glyph-name="emacron" unicode="&#x113;" horiz-adv-x="592" 
d="M275 -11q-56 0 -100.5 19.5t-75.5 52t-47.5 75.5t-16.5 91q0 61 20 113t56.5 90t89 59.5t118.5 21.5q56 0 104 -20.5t81 -58.5t46.5 -92.5t1.5 -121.5h-388q4 -51 37.5 -80.5t81.5 -29.5q36 0 65.5 14t46.5 41h145q-37 -90 -104 -132t-161 -42zM305 400q-21 0 -41.5 -6
t-38.5 -17.5t-32 -28.5t-21 -40h244q-6 48 -38.5 70t-72.5 22zM207 710h342l-20 -97h-343z" />
    <glyph glyph-name="eogonek" unicode="&#x119;" horiz-adv-x="592" 
d="M368 -219q-43 0 -70 24.5t-27 61.5q0 32 18 63.5t49 63.5q-21 -3 -35.5 -4t-27.5 -1q-56 0 -100.5 19.5t-75.5 52t-47.5 75.5t-16.5 91q0 61 20 113t56.5 90t89 59.5t118.5 21.5q56 0 104 -20.5t81 -58.5t46.5 -92.5t1.5 -121.5h-388q4 -51 38 -80.5t82 -29.5
q37 0 65.5 14.5t45.5 40.5h145q-10 -25 -22.5 -45.5t-26.5 -38.5q-12 -15 -28.5 -36.5t-31 -44.5t-24.5 -46.5t-10 -41.5t9 -25t23 -7t29.5 5t23.5 10l-18 -85q-14 -9 -39 -18t-57 -9zM305 400q-21 0 -41.5 -6t-38.5 -17.5t-32 -28.5t-21 -40h244q-6 48 -38.5 70t-72.5 22z
" />
    <glyph glyph-name="edotaccent" unicode="&#x117;" horiz-adv-x="592" 
d="M275 -11q-56 0 -100.5 19.5t-75.5 52t-47.5 75.5t-16.5 91q0 61 20 113t56.5 90t89 59.5t118.5 21.5q56 0 104 -20.5t81 -58.5t46.5 -92.5t1.5 -121.5h-388q4 -51 37.5 -80.5t81.5 -29.5q36 0 65.5 14t46.5 41h145q-37 -90 -104 -132t-161 -42zM305 400q-21 0 -41.5 -6
t-38.5 -17.5t-32 -28.5t-21 -40h244q-6 48 -38.5 70t-72.5 22zM366 577q-32 0 -54 22t-22 53q0 32 22 54t54 22t53.5 -22t21.5 -54q0 -31 -21.5 -53t-53.5 -22z" />
    <glyph glyph-name="gbreve" unicode="&#x11f;" horiz-adv-x="621" 
d="M233 -219q-49 0 -90.5 14t-73 39.5t-51 60t-22.5 74.5h134q4 -19 14.5 -33t25 -23t32.5 -13.5t36 -4.5q47 0 83 31.5t46 90.5l7 41q-18 -19 -53 -35.5t-89 -16.5q-43 0 -79 16.5t-62 45t-40.5 67.5t-14.5 85q0 63 20 116.5t55.5 92.5t83.5 60.5t104 21.5q31 0 57.5 -8
t46.5 -20t34 -26t20 -26l14 69h137l-103 -485q-26 -122 -97 -177.5t-175 -56.5zM281 125q30 0 55.5 11.5t45 31.5t31 47.5t11.5 60.5q1 52 -28 81t-80 29q-30 0 -56 -11.5t-45.5 -32t-30.5 -48t-11 -60.5q0 -51 29 -80t79 -29zM384 550q-39 0 -71.5 15t-54 40.5t-30 60.5
t0.5 76h81q-7 -29 -2.5 -50t16 -35t29 -21t37.5 -7q39 1 69 25.5t38 87.5h80q-1 -41 -14.5 -76t-38 -60.5t-60 -40.5t-80.5 -15z" />
    <glyph glyph-name="gcircumflex" unicode="&#x11d;" horiz-adv-x="621" 
d="M233 -219q-49 0 -90.5 14t-73 39.5t-51 60t-22.5 74.5h134q4 -19 14.5 -33t25 -23t32.5 -13.5t36 -4.5q47 0 83 31.5t46 90.5l7 41q-18 -19 -53 -35.5t-89 -16.5q-43 0 -79 16.5t-62 45t-40.5 67.5t-14.5 85q0 63 20 116.5t55.5 92.5t83.5 60.5t104 21.5q31 0 57.5 -8
t46.5 -20t34 -26t20 -26l14 69h137l-103 -485q-26 -122 -97 -177.5t-175 -56.5zM281 125q30 0 55.5 11.5t45 31.5t31 47.5t11.5 60.5q1 52 -28 81t-80 29q-30 0 -56 -11.5t-45.5 -32t-30.5 -48t-11 -60.5q0 -51 29 -80t79 -29zM563 649l-28 -101l-140 100l-211 -100l31 116
l195 92z" />
    <glyph glyph-name="uni0123" unicode="&#x123;" horiz-adv-x="621" 
d="M233 -219q-49 0 -90.5 14t-73 39.5t-51 60t-22.5 74.5h134q4 -19 14.5 -33t25 -23t32.5 -13.5t36 -4.5q47 0 83 31.5t46 90.5l7 41q-18 -19 -53 -35.5t-89 -16.5q-43 0 -79 16.5t-62 45t-40.5 67.5t-14.5 85q0 63 20 116.5t55.5 92.5t83.5 60.5t104 21.5q31 0 57.5 -8
t46.5 -20t34 -26t20 -26l14 69h137l-103 -485q-26 -122 -97 -177.5t-175 -56.5zM281 125q30 0 55.5 11.5t45 31.5t31 47.5t11.5 60.5q1 52 -28 81t-80 29q-30 0 -56 -11.5t-45.5 -32t-30.5 -48t-11 -60.5q0 -51 29 -80t79 -29zM386 577q-31 0 -53 22t-22 54q0 27 18 48
l95 114h60l-59 -98q17 -10 27 -27t10 -37q0 -32 -22 -54t-54 -22z" />
    <glyph glyph-name="gdotaccent" unicode="&#x121;" horiz-adv-x="621" 
d="M233 -219q-49 0 -90.5 14t-73 39.5t-51 60t-22.5 74.5h134q4 -19 14.5 -33t25 -23t32.5 -13.5t36 -4.5q47 0 83 31.5t46 90.5l7 41q-18 -19 -53 -35.5t-89 -16.5q-43 0 -79 16.5t-62 45t-40.5 67.5t-14.5 85q0 63 20 116.5t55.5 92.5t83.5 60.5t104 21.5q31 0 57.5 -8
t46.5 -20t34 -26t20 -26l14 69h137l-103 -485q-26 -122 -97 -177.5t-175 -56.5zM281 125q30 0 55.5 11.5t45 31.5t31 47.5t11.5 60.5q1 52 -28 81t-80 29q-30 0 -56 -11.5t-45.5 -32t-30.5 -48t-11 -60.5q0 -51 29 -80t79 -29zM387 577q-32 0 -54 22t-22 53q0 32 22 54
t54 22t53.5 -22t21.5 -54q0 -31 -21.5 -53t-53.5 -22z" />
    <glyph glyph-name="hbar" unicode="&#x127;" horiz-adv-x="598" 
d="M172 750h137l-64 -302q25 27 63.5 44.5t84.5 17.5t79.5 -20t53 -52t24.5 -74t-4 -85l-59 -279h-137l57 269q12 56 -7.5 87t-64.5 31q-48 0 -82.5 -33t-49.5 -105l-53 -249h-137zM91 657h339l-19 -90h-338z" />
    <glyph glyph-name="hcircumflex" unicode="&#x125;" horiz-adv-x="598" 
d="M172 750h137l-64 -302q25 27 63.5 44.5t84.5 17.5t79.5 -20t53 -52t24.5 -74t-4 -85l-59 -279h-137l57 269q12 56 -7.5 87t-64.5 31q-48 0 -82.5 -33t-49.5 -105l-53 -249h-137zM261 872l187 73l159 -80l-30 -103l-144 73l-188 -73z" />
    <glyph glyph-name="dotlessi" unicode="&#x131;" horiz-adv-x="270" 
d="M119 500h137l-106 -500h-137z" />
    <glyph glyph-name="ibreve" unicode="&#x12d;" horiz-adv-x="270" 
d="M119 500h137l-106 -500h-137zM217 550q-39 0 -71.5 15t-54 40.5t-30 60.5t0.5 76h81q-7 -29 -2.5 -50t16 -35t29 -21t37.5 -7q39 1 69 25.5t38 87.5h80q-1 -41 -14.5 -76t-38 -60.5t-60 -40.5t-80.5 -15z" />
    <glyph glyph-name="imacron" unicode="&#x12b;" horiz-adv-x="270" 
d="M119 500h137l-106 -500h-137zM61 710h342l-20 -97h-343z" />
    <glyph glyph-name="iogonek" unicode="&#x12f;" horiz-adv-x="270" 
d="M225 582q-36 0 -62 25.5t-26 61.5t26 61.5t62 25.5t61.5 -25.5t25.5 -61.5t-25.5 -61.5t-61.5 -25.5zM119 500h137l-106 -500h-137zM14 -219q-44 0 -71 25.5t-27 60.5q0 39 27 74.5t70 58.5h137q-53 -22 -80.5 -47t-27.5 -48q0 -14 9 -20.5t23 -6.5t29 5t24 10l-18 -85
q-14 -9 -38.5 -18t-56.5 -9z" />
    <glyph glyph-name="itilde" unicode="&#x129;" horiz-adv-x="270" 
d="M119 500h137l-106 -500h-137zM420 710l-7 -26q-16 -57 -51 -84.5t-83 -27.5q-23 0 -41 7t-33 16t-28.5 16t-26.5 7q-20 0 -32 -12t-21 -35h-83l7 26q16 57 51 84.5t82 27.5q23 0 41.5 -7t33.5 -16t28.5 -16t26.5 -7q20 0 32 12t21 35h83z" />
    <glyph glyph-name="uni1ECB" unicode="&#x1ecb;" horiz-adv-x="270" 
d="M225 582q-36 0 -62 25.5t-26 61.5t26 61.5t62 25.5t61.5 -25.5t25.5 -61.5t-25.5 -61.5t-61.5 -25.5zM119 500h137l-106 -500h-137zM52 -219q-32 0 -54 22t-22 53q0 32 22 54t54 22q31 0 53 -22t22 -54q0 -31 -22 -53t-53 -22z" />
    <glyph glyph-name="uni0237" unicode="&#x237;" horiz-adv-x="277" 
d="M-72 -219q-17 0 -32.5 1t-26.5 4l25 117q5 -2 13 -2.5t15 -0.5q38 0 61 19t33 64l110 517h137l-115 -540q-20 -97 -74.5 -138t-145.5 -41z" />
    <glyph glyph-name="jcircumflex" unicode="&#x135;" horiz-adv-x="277" 
d="M-72 -219q-17 0 -32.5 1t-26.5 4l25 117q5 -2 13 -2.5t15 -0.5q38 0 61 19t33 64l110 517h137l-115 -540q-20 -97 -74.5 -138t-145.5 -41zM403 649l-28 -101l-140 100l-211 -100l31 116l195 92z" />
    <glyph glyph-name="uni0137" unicode="&#x137;" horiz-adv-x="554" 
d="M199 232l-49 -232h-137l159 750h137l-92 -433l191 183h175l-249 -238l189 -262h-156zM192 -306h-60l59 98q-17 10 -27 27t-10 37q0 32 22 54t54 22q31 0 53 -22t22 -54q0 -27 -18 -48z" />
    <glyph glyph-name="lacute" unicode="&#x13a;" horiz-adv-x="270" 
d="M172 750h137l-159 -750h-137zM355 1000h165l-209 -190h-105z" />
    <glyph glyph-name="lcaron" unicode="&#x13e;" horiz-adv-x="277" 
d="M172 750h137l-159 -750h-137zM350 750h137l-99 -161h-93z" />
    <glyph glyph-name="uni013C" unicode="&#x13c;" horiz-adv-x="270" 
d="M172 750h137l-159 -750h-137zM15 -306h-60l59 98q-17 10 -27 27t-10 37q0 32 22 54t54 22q31 0 53 -22t22 -54q0 -27 -18 -48z" />
    <glyph glyph-name="ldot" unicode="&#x140;" horiz-adv-x="405" 
d="M172 750h137l-159 -750h-137zM362 288q-32 0 -54 22t-22 53q0 32 22 54t54 22q31 0 53 -22t22 -54q0 -31 -22 -53t-53 -22z" />
    <glyph glyph-name="glyph297" horiz-adv-x="405" 
d="M172 750h137l-159 -750h-137zM362 288q-32 0 -54 22t-22 53q0 32 22 54t54 22q31 0 53 -22t22 -54q0 -31 -22 -53t-53 -22z" />
    <glyph glyph-name="lslash" unicode="&#x142;" horiz-adv-x="351" 
d="M213 750h137l-159 -750h-137zM27 225l24 114l322 167l-25 -115z" />
    <glyph glyph-name="eng" unicode="&#x14b;" horiz-adv-x="597" 
d="M277 -216q-26 0 -50 4.5t-39 9.5l23 120q11 -2 23.5 -4.5t26.5 -2.5q35 0 56 20.5t32 68.5l58 269q5 25 4 46t-9.5 37t-25.5 25t-44 9q-30 0 -60.5 -15.5t-51.5 -41.5l-70 -329h-137l106 500h137l-8 -40q26 24 59.5 37.5t78.5 13.5q46 0 80.5 -20t55.5 -52.5t27 -74
t-3 -85.5l-72 -333q-17 -76 -71.5 -119t-125.5 -43z" />
    <glyph glyph-name="nacute" unicode="&#x144;" horiz-adv-x="598" 
d="M119 500h137l-11 -52q25 27 63.5 44.5t84.5 17.5t79.5 -20t53 -52t24.5 -74t-4 -85l-59 -279h-137l57 269q12 56 -7.5 87t-64.5 31q-48 0 -82.5 -33t-49.5 -105l-53 -249h-137zM469 750h165l-209 -190h-105z" />
    <glyph glyph-name="ncaron" unicode="&#x148;" horiz-adv-x="598" 
d="M119 500h137l-11 -52q25 27 63.5 44.5t84.5 17.5t79.5 -20t53 -52t24.5 -74t-4 -85l-59 -279h-137l57 269q12 56 -7.5 87t-64.5 31q-48 0 -82.5 -33t-49.5 -105l-53 -249h-137zM212 656l27 100l140 -100l212 100l-31 -116l-195 -92z" />
    <glyph glyph-name="uni0146" unicode="&#x146;" horiz-adv-x="598" 
d="M119 500h137l-11 -52q25 27 63.5 44.5t84.5 17.5t79.5 -20t53 -52t24.5 -74t-4 -85l-59 -279h-137l57 269q12 56 -7.5 87t-64.5 31q-48 0 -82.5 -33t-49.5 -105l-53 -249h-137zM183 -306h-60l59 98q-17 10 -27 27t-10 37q0 32 22 54t54 22q31 0 53 -22t22 -54
q0 -27 -18 -48z" />
    <glyph glyph-name="oe" unicode="&#x153;" horiz-adv-x="978" 
d="M662 -11q-60 0 -106 21t-77 57q-37 -37 -88.5 -58t-114.5 -21q-60 0 -105 20t-75 53.5t-45.5 76.5t-15.5 89q0 60 20.5 111.5t58 90t90 60.5t116.5 22q61 0 106.5 -21t75.5 -56q37 36 88.5 56.5t116.5 20.5q55 0 102.5 -20.5t80.5 -58.5t47 -92.5t2 -121.5h-389
q4 -51 38 -80.5t82 -29.5q37 0 65.5 14t45.5 41h145q-36 -90 -103 -132t-161 -42zM287 116q29 0 54 11t43 30.5t28 46t10 56.5q0 57 -30 90t-84 33q-29 0 -53.5 -11.5t-42.5 -31t-28 -45.5t-10 -56q0 -56 29.5 -89.5t83.5 -33.5zM693 400q-21 0 -42 -6t-39 -17.5
t-32.5 -28.5t-21.5 -40h244q-3 24 -12.5 41.5t-24.5 28.5t-33.5 16.5t-38.5 5.5z" />
    <glyph glyph-name="obreve" unicode="&#x14f;" horiz-adv-x="596" 
d="M287 116q29 0 54 11t43 30.5t28 46t10 56.5q0 57 -30 90t-84 33q-29 0 -53.5 -11.5t-42.5 -31t-28 -45.5t-10 -56q0 -56 29.5 -89.5t83.5 -33.5zM276 -12q-60 0 -105 20t-75 53.5t-45.5 76.5t-15.5 89q0 60 20.5 111.5t58 90t90 60.5t116.5 22q60 0 105 -20t75 -53.5
t45 -76.5t15 -89q0 -60 -20.5 -111.5t-57.5 -90t-89.5 -60.5t-116.5 -22zM380 550q-39 0 -71.5 15t-54 40.5t-30 60.5t0.5 76h81q-7 -29 -2.5 -50t16 -35t29 -21t37.5 -7q39 1 69 25.5t38 87.5h80q-1 -41 -14.5 -76t-38 -60.5t-60 -40.5t-80.5 -15z" />
    <glyph glyph-name="ohungarumlaut" unicode="&#x151;" horiz-adv-x="596" 
d="M287 116q29 0 54 11t43 30.5t28 46t10 56.5q0 57 -30 90t-84 33q-29 0 -53.5 -11.5t-42.5 -31t-28 -45.5t-10 -56q0 -56 29.5 -89.5t83.5 -33.5zM276 -12q-60 0 -105 20t-75 53.5t-45.5 76.5t-15.5 89q0 60 20.5 111.5t58 90t90 60.5t116.5 22q60 0 105 -20t75 -53.5
t45 -76.5t15 -89q0 -60 -20.5 -111.5t-57.5 -90t-89.5 -60.5t-116.5 -22zM501 750h146l-159 -190h-94zM314 750h147l-159 -190h-94z" />
    <glyph glyph-name="omacron" unicode="&#x14d;" horiz-adv-x="596" 
d="M287 116q29 0 54 11t43 30.5t28 46t10 56.5q0 57 -30 90t-84 33q-29 0 -53.5 -11.5t-42.5 -31t-28 -45.5t-10 -56q0 -56 29.5 -89.5t83.5 -33.5zM276 -12q-60 0 -105 20t-75 53.5t-45.5 76.5t-15.5 89q0 60 20.5 111.5t58 90t90 60.5t116.5 22q60 0 105 -20t75 -53.5
t45 -76.5t15 -89q0 -60 -20.5 -111.5t-57.5 -90t-89.5 -60.5t-116.5 -22zM224 710h342l-20 -97h-343z" />
    <glyph glyph-name="uni1ECD" unicode="&#x1ecd;" horiz-adv-x="596" 
d="M287 116q29 0 54 11t43 30.5t28 46t10 56.5q0 57 -30 90t-84 33q-29 0 -53.5 -11.5t-42.5 -31t-28 -45.5t-10 -56q0 -56 29.5 -89.5t83.5 -33.5zM276 -12q-60 0 -105 20t-75 53.5t-45.5 76.5t-15.5 89q0 60 20.5 111.5t58 90t90 60.5t116.5 22q60 0 105 -20t75 -53.5
t45 -76.5t15 -89q0 -60 -20.5 -111.5t-57.5 -90t-89.5 -60.5t-116.5 -22zM220 -219q-32 0 -54 22t-22 53q0 32 22 54t54 22q31 0 53 -22t22 -54q0 -31 -22 -53t-53 -22z" />
    <glyph glyph-name="racute" unicode="&#x155;" horiz-adv-x="395" 
d="M119 500h137l-16 -73q20 37 58.5 58t83.5 21q11 0 22 -1t23 -5l-29 -139q-16 5 -30 8t-29 3q-51 0 -87.5 -35.5t-50.5 -97.5l-51 -239h-137zM386 750h165l-209 -190h-105z" />
    <glyph glyph-name="rcaron" unicode="&#x159;" horiz-adv-x="395" 
d="M119 500h137l-16 -73q20 37 58.5 58t83.5 21q11 0 22 -1t23 -5l-29 -139q-16 5 -30 8t-29 3q-51 0 -87.5 -35.5t-50.5 -97.5l-51 -239h-137zM130 656l27 100l140 -100l212 100l-31 -116l-195 -92z" />
    <glyph glyph-name="uni0157" unicode="&#x157;" horiz-adv-x="395" 
d="M119 500h137l-16 -73q20 37 58.5 58t83.5 21q11 0 22 -1t23 -5l-29 -139q-16 5 -30 8t-29 3q-51 0 -87.5 -35.5t-50.5 -97.5l-51 -239h-137zM14 -306h-60l59 98q-17 10 -27 27t-10 37q0 32 22 54t54 22q31 0 53 -22t22 -54q0 -27 -18 -48z" />
    <glyph glyph-name="sacute" unicode="&#x15b;" horiz-adv-x="494" 
d="M233 -11q-49 0 -90 12.5t-70.5 35t-46 53.5t-16.5 69h142q0 -17 7.5 -29t20 -20t28 -12t31.5 -4q29 0 45.5 12t16.5 29q0 35 -52 52l-72 24q-51 17 -81 53.5t-30 90.5q0 72 52 114t152 42q39 0 73.5 -11.5t61.5 -32t43 -49.5t18 -65h-137q-1 15 -7.5 24.5t-16.5 15.5
t-21 8.5t-21 2.5q-26 0 -41.5 -10.5t-15.5 -29.5t13.5 -30t30.5 -17l60 -20q60 -20 95 -56t35 -94q0 -75 -56 -116.5t-151 -41.5zM406 750h165l-209 -190h-105z" />
    <glyph glyph-name="scaron" unicode="&#x161;" horiz-adv-x="494" 
d="M233 -11q-49 0 -90 12.5t-70.5 35t-46 53.5t-16.5 69h142q0 -17 7.5 -29t20 -20t28 -12t31.5 -4q29 0 45.5 12t16.5 29q0 35 -52 52l-72 24q-51 17 -81 53.5t-30 90.5q0 72 52 114t152 42q39 0 73.5 -11.5t61.5 -32t43 -49.5t18 -65h-137q-1 15 -7.5 24.5t-16.5 15.5
t-21 8.5t-21 2.5q-26 0 -41.5 -10.5t-15.5 -29.5t13.5 -30t30.5 -17l60 -20q60 -20 95 -56t35 -94q0 -75 -56 -116.5t-151 -41.5zM149 656l27 100l140 -100l212 100l-31 -116l-195 -92z" />
    <glyph glyph-name="scedilla" unicode="&#x15f;" horiz-adv-x="494" 
d="M233 -11q-49 0 -90 12.5t-70.5 35t-46 53.5t-16.5 69h142q0 -17 7.5 -29t20 -20t28 -12t31.5 -4q29 0 45.5 12t16.5 29q0 35 -52 52l-72 24q-51 17 -81 53.5t-30 90.5q0 72 52 114t152 42q39 0 73.5 -11.5t61.5 -32t43 -49.5t18 -65h-137q-1 15 -7.5 24.5t-16.5 15.5
t-21 8.5t-21 2.5q-26 0 -41.5 -10.5t-15.5 -29.5t13.5 -30t30.5 -17l60 -20q60 -20 95 -56t35 -94q0 -75 -56 -116.5t-151 -41.5zM78 -143q18 -8 40 -11.5t37 -3.5q11 0 22.5 1.5t21.5 6t16 11t6 17.5q0 13 -11 19t-28 6q-9 0 -20.5 -2.5t-22.5 -7.5l-31 19l70 91h66
l-39 -51q22 7 45 7q32 0 51.5 -18t19.5 -48q0 -50 -42 -81t-112 -31q-25 0 -52 3.5t-50 11.5z" />
    <glyph glyph-name="scircumflex" unicode="&#x15d;" horiz-adv-x="494" 
d="M233 -11q-49 0 -90 12.5t-70.5 35t-46 53.5t-16.5 69h142q0 -17 7.5 -29t20 -20t28 -12t31.5 -4q29 0 45.5 12t16.5 29q0 35 -52 52l-72 24q-51 17 -81 53.5t-30 90.5q0 72 52 114t152 42q39 0 73.5 -11.5t61.5 -32t43 -49.5t18 -65h-137q-1 15 -7.5 24.5t-16.5 15.5
t-21 8.5t-21 2.5q-26 0 -41.5 -10.5t-15.5 -29.5t13.5 -30t30.5 -17l60 -20q60 -20 95 -56t35 -94q0 -75 -56 -116.5t-151 -41.5zM501 649l-28 -101l-140 100l-211 -100l31 116l195 92z" />
    <glyph glyph-name="uni0219" unicode="&#x219;" horiz-adv-x="494" 
d="M233 -11q-49 0 -90 12.5t-70.5 35t-46 53.5t-16.5 69h142q0 -17 7.5 -29t20 -20t28 -12t31.5 -4q29 0 45.5 12t16.5 29q0 35 -52 52l-72 24q-51 17 -81 53.5t-30 90.5q0 72 52 114t152 42q39 0 73.5 -11.5t61.5 -32t43 -49.5t18 -65h-137q-1 15 -7.5 24.5t-16.5 15.5
t-21 8.5t-21 2.5q-26 0 -41.5 -10.5t-15.5 -29.5t13.5 -30t30.5 -17l60 -20q60 -20 95 -56t35 -94q0 -75 -56 -116.5t-151 -41.5zM156 -306h-60l59 98q-17 10 -27 27t-10 37q0 32 22 54t54 22q31 0 53 -22t22 -54q0 -27 -18 -48z" />
    <glyph glyph-name="tbar" unicode="&#x167;" horiz-adv-x="432" 
d="M267 -5q-42 1 -76 15.5t-55.5 42.5t-29 68t3.5 91l35 168h-101l26 120h101l29 139h137l-29 -139h141l-26 -120h-141l-37 -177q-5 -24 -2 -40.5t12.5 -26.5t24.5 -14t34 -4q17 0 30 2t25 6l-26 -122q-15 -4 -33.5 -7t-42.5 -2zM42 310h380l-19 -90h-379z" />
    <glyph glyph-name="tcaron" unicode="&#x165;" horiz-adv-x="421" 
d="M263 -5q-42 1 -76 15.5t-55.5 42.5t-29 68t3.5 91l35 168h-101l26 120h101l29 139h137l-29 -139h141l-26 -120h-141l-37 -177q-5 -24 -2 -40.5t12.5 -26.5t24.5 -14t34 -4q17 0 30 2t25 6l-26 -122q-15 -4 -33.5 -7t-42.5 -2zM390 710h137l-99 -161h-93z" />
    <glyph glyph-name="uni0163" unicode="&#x163;" horiz-adv-x="421" 
d="M263 -5q-42 1 -76 15.5t-55.5 42.5t-29 68t3.5 91l35 168h-101l26 120h101l29 139h137l-29 -139h141l-26 -120h-141l-37 -177q-5 -24 -2 -40.5t12.5 -26.5t24.5 -14t34 -4q17 0 30 2t25 6l-26 -122q-15 -4 -33.5 -7t-42.5 -2zM158 -306h-60l59 98q-17 10 -27 27t-10 37
q0 32 22 54t54 22q31 0 53 -22t22 -54q0 -27 -18 -48z" />
    <glyph glyph-name="uni021B" unicode="&#x21b;" horiz-adv-x="421" 
d="M263 -5q-42 1 -76 15.5t-55.5 42.5t-29 68t3.5 91l35 168h-101l26 120h101l29 139h137l-29 -139h141l-26 -120h-141l-37 -177q-5 -24 -2 -40.5t12.5 -26.5t24.5 -14t34 -4q17 0 30 2t25 6l-26 -122q-15 -4 -33.5 -7t-42.5 -2zM158 -306h-60l59 98q-17 10 -27 27t-10 37
q0 32 22 54t54 22q31 0 53 -22t22 -54q0 -27 -18 -48z" />
    <glyph glyph-name="ubreve" unicode="&#x16d;" horiz-adv-x="587" 
d="M206 -10q-45 0 -78 20t-53 52.5t-26 74t3 84.5l59 279h137l-58 -278q-11 -51 8 -79t60 -28q97 0 125 131l54 254h137l-106 -500h-137l11 52q-22 -28 -56 -45t-80 -17zM371 550q-39 0 -71.5 15t-54 40.5t-30 60.5t0.5 76h81q-7 -29 -2.5 -50t16 -35t29 -21t37.5 -7
q39 1 69 25.5t38 87.5h80q-1 -41 -14.5 -76t-38 -60.5t-60 -40.5t-80.5 -15z" />
    <glyph glyph-name="uhungarumlaut" unicode="&#x171;" horiz-adv-x="587" 
d="M206 -10q-45 0 -78 20t-53 52.5t-26 74t3 84.5l59 279h137l-58 -278q-11 -51 8 -79t60 -28q97 0 125 131l54 254h137l-106 -500h-137l11 52q-22 -28 -56 -45t-80 -17zM493 750h146l-159 -190h-94zM306 750h147l-159 -190h-94z" />
    <glyph glyph-name="umacron" unicode="&#x16b;" horiz-adv-x="587" 
d="M206 -10q-45 0 -78 20t-53 52.5t-26 74t3 84.5l59 279h137l-58 -278q-11 -51 8 -79t60 -28q97 0 125 131l54 254h137l-106 -500h-137l11 52q-22 -28 -56 -45t-80 -17zM216 710h342l-20 -97h-343z" />
    <glyph glyph-name="uogonek" unicode="&#x173;" horiz-adv-x="587" 
d="M206 -10q-45 0 -78 20t-53 52.5t-26 74t3 84.5l59 279h137l-58 -278q-11 -51 8 -79t60 -28q97 0 125 131l54 254h137l-106 -500h-137l11 52q-22 -28 -56 -45t-80 -17zM332 -219q-44 0 -71 25.5t-27 60.5q0 39 27 74.5t70 58.5h137q-53 -22 -80.5 -47t-27.5 -48
q0 -14 9 -20.5t23 -6.5t29 5t24 10l-18 -85q-14 -9 -38.5 -18t-56.5 -9z" />
    <glyph glyph-name="uring" unicode="&#x16f;" horiz-adv-x="587" 
d="M206 -10q-45 0 -78 20t-53 52.5t-26 74t3 84.5l59 279h137l-58 -278q-11 -51 8 -79t60 -28q97 0 125 131l54 254h137l-106 -500h-137l11 52q-22 -28 -56 -45t-80 -17zM377 543q-25 0 -47 9.5t-38.5 26t-26.5 38t-10 46.5t10 46.5t26.5 38t38.5 26t47 9.5t47 -9.5
t38.5 -26t26.5 -38t10 -46.5t-10 -46.5t-26.5 -38t-38.5 -26t-47 -9.5zM377 605q25 0 42 17t17 41t-17 41t-42 17t-42 -17t-17 -41t17 -41t42 -17z" />
    <glyph glyph-name="utilde" unicode="&#x169;" horiz-adv-x="587" 
d="M206 -10q-45 0 -78 20t-53 52.5t-26 74t3 84.5l59 279h137l-58 -278q-11 -51 8 -79t60 -28q97 0 125 131l54 254h137l-106 -500h-137l11 52q-22 -28 -56 -45t-80 -17zM575 710l-7 -26q-16 -57 -51 -84.5t-83 -27.5q-23 0 -41 7t-33 16t-28.5 16t-26.5 7q-20 0 -32 -12
t-21 -35h-83l7 26q16 57 51 84.5t82 27.5q23 0 41.5 -7t33.5 -16t28.5 -16t26.5 -7q20 0 32 12t21 35h83z" />
    <glyph glyph-name="uni1EE5" unicode="&#x1ee5;" horiz-adv-x="587" 
d="M206 -10q-45 0 -78 20t-53 52.5t-26 74t3 84.5l59 279h137l-58 -278q-11 -51 8 -79t60 -28q97 0 125 131l54 254h137l-106 -500h-137l11 52q-22 -28 -56 -45t-80 -17zM228 -219q-32 0 -54 22t-22 53q0 32 22 54t54 22q31 0 53 -22t22 -54q0 -31 -22 -53t-53 -22z" />
    <glyph glyph-name="wacute" unicode="&#x1e83;" horiz-adv-x="799" 
d="M57 500h138l28 -325l175 325h106l29 -316l161 316h153l-271 -500h-136l-30 283l-157 -283h-136zM565 750h165l-209 -190h-105z" />
    <glyph glyph-name="wcircumflex" unicode="&#x175;" horiz-adv-x="799" 
d="M57 500h138l28 -325l175 325h106l29 -316l161 316h153l-271 -500h-136l-30 283l-157 -283h-136zM660 649l-28 -101l-140 100l-211 -100l31 116l195 92z" />
    <glyph glyph-name="wdieresis" unicode="&#x1e85;" horiz-adv-x="799" 
d="M57 500h138l28 -325l175 325h106l29 -316l161 316h153l-271 -500h-136l-30 283l-157 -283h-136zM366 577q-32 0 -54.5 22t-22.5 53q0 32 22.5 54t54.5 22q30 0 52 -22t22 -54q0 -31 -22 -53t-52 -22zM600 577q-32 0 -54 22t-22 53q0 32 22 54t54 22q31 0 53 -22t22 -54
q0 -31 -22 -53t-53 -22z" />
    <glyph glyph-name="wgrave" unicode="&#x1e81;" horiz-adv-x="799" 
d="M57 500h138l28 -325l175 325h106l29 -316l161 316h153l-271 -500h-136l-30 283l-157 -283h-136zM416 560l-69 190h146l12 -190h-89z" />
    <glyph glyph-name="ycircumflex" unicode="&#x177;" horiz-adv-x="568" 
d="M163 30l-109 470h136l68 -329l208 329h156l-465 -709h-152zM537 649l-28 -101l-140 100l-211 -100l31 116l195 92z" />
    <glyph glyph-name="ygrave" unicode="&#x1ef3;" horiz-adv-x="568" 
d="M163 30l-109 470h136l68 -329l208 329h156l-465 -709h-152zM293 560l-69 190h146l12 -190h-89z" />
    <glyph glyph-name="uni0233" unicode="&#x233;" horiz-adv-x="568" 
d="M163 30l-109 470h136l68 -329l208 329h156l-465 -709h-152zM202 710h342l-20 -97h-343z" />
    <glyph glyph-name="zacute" unicode="&#x17a;" horiz-adv-x="497" 
d="M10 107l284 269h-224l27 124h408l-23 -108l-282 -268h233l-26 -124h-419zM413 750h165l-209 -190h-105z" />
    <glyph glyph-name="zcaron" unicode="&#x17e;" horiz-adv-x="497" 
d="M10 107l284 269h-224l27 124h408l-23 -108l-282 -268h233l-26 -124h-419zM156 656l27 100l140 -100l212 100l-31 -116l-195 -92z" />
    <glyph glyph-name="zdotaccent" unicode="&#x17c;" horiz-adv-x="497" 
d="M10 107l284 269h-224l27 124h408l-23 -108l-282 -268h233l-26 -124h-419zM332 577q-32 0 -54 22t-22 53q0 32 22 54t54 22t53.5 -22t21.5 -54q0 -31 -21.5 -53t-53.5 -22z" />
    <glyph glyph-name="uni0259" unicode="&#x259;" horiz-adv-x="599" 
d="M287 -11q-49 0 -98.5 17t-87 52.5t-56 91t-4.5 132.5h391q-1 47 -31.5 78.5t-89.5 31.5q-32 0 -65.5 -13t-51.5 -42h-144q13 40 39.5 72.5t61 55t76.5 34.5t87 12q55 0 101 -17t79 -48t51 -75.5t18 -98.5q0 -58 -18.5 -109.5t-54 -90t-87 -61t-116.5 -22.5zM286 100
q47 0 80.5 24.5t47.5 67.5h-237q3 -26 13.5 -43.5t26 -28.5t33.5 -15.5t36 -4.5z" />
    <glyph glyph-name="uni0410" unicode="&#x410;" horiz-adv-x="745" 
d="M401 710h130l155 -710h-140l-34 162h-301l-103 -162h-164zM292 289h193l-48 227z" />
    <glyph glyph-name="uni0411" unicode="&#x411;" horiz-adv-x="640" 
d="M389 444q46 0 85 -15.5t67 -42.5t43.5 -63t15.5 -76q0 -122 -78 -184.5t-214 -62.5h-285l151 710h467l-29 -138h-323l-27 -128h127zM330 134q55 0 90.5 24.5t35.5 72.5q0 37 -24.5 58.5t-66.5 21.5h-132l-37 -177h134z" />
    <glyph glyph-name="uni0412" unicode="&#x412;" horiz-adv-x="635" 
d="M174 710h211q51 0 90.5 -15t67 -40t41.5 -57.5t14 -66.5q0 -50 -22.5 -93t-65.5 -72q34 -20 55 -54t21 -85q0 -48 -17.5 -89.5t-53 -72t-88 -48t-122.5 -17.5h-282zM319 134q60 0 91.5 26t31.5 64q0 29 -20.5 50.5t-60.5 21.5h-132l-34 -162h124zM343 419q54 0 82.5 26
t28.5 64q0 28 -20.5 48t-58.5 20h-86l-33 -158h87z" />
    <glyph glyph-name="uni0413" unicode="&#x413;" horiz-adv-x="519" 
d="M565 572h-275l-122 -572h-145l151 710h420z" />
    <glyph glyph-name="uni0414" unicode="&#x414;" horiz-adv-x="775" 
d="M555 0h-453l-31 -148h-131l60 286h13q21 0 40 9t35.5 31.5t31 60.5t26.5 96l79 375h520l-122 -572h91l-60 -286h-130zM289 327q-15 -70 -30 -114t-43 -75h262l93 434h-230z" />
    <glyph glyph-name="uni0415" unicode="&#x415;" horiz-adv-x="569" 
d="M174 710h442l-29 -138h-298l-31 -146h238l-30 -138h-238l-31 -150h297l-29 -138h-442z" />
    <glyph glyph-name="uni0416" unicode="&#x416;" horiz-adv-x="1019" 
d="M591 311l-65 -311h-145l65 307l-329 -307h-191l398 373l-211 337h156l195 -315l67 315h145l-66 -312l309 312h181l-361 -361l242 -349h-170z" />
    <glyph glyph-name="uni0417" unicode="&#x417;" horiz-adv-x="601" 
d="M97 515q12 52 36.5 91t58.5 65t75.5 38.5t87.5 12.5q47 0 88 -13.5t72 -38t48.5 -60t17.5 -80.5q0 -57 -25 -102.5t-75 -72.5q29 -24 45 -58t16 -78q0 -55 -19 -98t-53 -72t-80.5 -44.5t-101.5 -15.5q-59 0 -108 17t-85 47t-57.5 71.5t-25.5 90.5h144q11 -45 47 -68
t87 -23q27 0 47.5 8.5t34.5 22t21 31.5t7 36q0 35 -24 58.5t-72 23.5h-74l26 122h76q51 0 80 22.5t29 64.5q0 36 -25.5 55.5t-63.5 19.5q-39 0 -67.5 -18.5t-42.5 -54.5h-145z" />
    <glyph glyph-name="uni0418" unicode="&#x418;" horiz-adv-x="794" 
d="M23 0l150 710h145l-96 -449l460 449h125l-150 -710h-145l95 450l-459 -450h-125z" />
    <glyph glyph-name="uni041A" unicode="&#x41a;" horiz-adv-x="691" 
d="M235 325l-69 -325h-143l151 710h143l-65 -305l318 305h182l-369 -355l280 -355h-172z" />
    <glyph glyph-name="uni041B" unicode="&#x41b;" horiz-adv-x="742" 
d="M236 710h520l-151 -710h-145l122 572h-230l-75 -354q-14 -65 -33.5 -109t-48 -71t-67.5 -38.5t-90 -11.5q-25 0 -43.5 2.5t-32.5 5.5l28 133q11 -2 21.5 -3.5t23.5 -1.5q19 0 34 5t27.5 18t22 35t16.5 55z" />
    <glyph glyph-name="uni041C" unicode="&#x41c;" horiz-adv-x="885" 
d="M174 710h132l154 -321l307 321h132l-151 -710h-145l95 448l-278 -290l-152 316l-101 -474h-144z" />
    <glyph glyph-name="uni041D" unicode="&#x41d;" horiz-adv-x="757" 
d="M174 710h144l-60 -283h309l60 283h144l-151 -710h-144l61 289h-308l-62 -289h-144z" />
    <glyph glyph-name="uni041E" unicode="&#x41e;" horiz-adv-x="825" 
d="M411 128q52 0 96.5 19t77.5 52.5t52 78.5t19 97q0 45 -13 83t-39 65.5t-64.5 43t-89.5 15.5q-52 0 -97 -19t-78 -52.5t-51.5 -78.5t-18.5 -97q0 -45 13 -83t39 -65.5t64.5 -43t89.5 -15.5zM399 -12q-80 0 -143.5 26t-107 71t-66.5 106t-23 131q0 81 27 153.5t79 127.5
t127 87t170 32q80 0 143 -26t107 -71t67 -106t23 -131q0 -81 -27.5 -153.5t-79 -127.5t-126.5 -87t-170 -32z" />
    <glyph glyph-name="uni041F" unicode="&#x41f;" horiz-adv-x="750" 
d="M589 572h-300l-121 -572h-145l150 710h590l-150 -710h-145z" />
    <glyph glyph-name="uni0420" unicode="&#x420;" horiz-adv-x="598" 
d="M174 710h201q53 0 97 -17t75.5 -46.5t49 -68t17.5 -81.5q0 -53 -17 -101t-54 -84.5t-94 -58t-136 -21.5h-96l-50 -232h-144zM338 367q28 0 52 9t41.5 24.5t27.5 37t10 45.5q0 18 -5.5 34t-17.5 29t-31 20.5t-47 7.5h-79l-44 -207h93z" />
    <glyph glyph-name="uni0421" unicode="&#x421;" horiz-adv-x="795" 
d="M399 -12q-80 0 -143 26t-107 71t-67.5 106t-23.5 131q0 81 27.5 153.5t79 127.5t126.5 87t170 32q68 0 124 -19t98.5 -53t70.5 -80.5t40 -101.5h-157q-21 52 -68 83t-119 31q-52 0 -97 -19t-78 -52.5t-51.5 -78.5t-18.5 -97q0 -45 13 -83t39 -65.5t64.5 -43t89.5 -15.5
q66 0 119.5 31t85.5 83h157q-20 -55 -53.5 -101.5t-81 -80.5t-107.5 -53t-132 -19z" />
    <glyph glyph-name="uni0422" unicode="&#x422;" horiz-adv-x="560" 
d="M271 572h-190l29 138h526l-29 -138h-191l-122 -572h-145z" />
    <glyph glyph-name="uni0423" unicode="&#x423;" horiz-adv-x="735" 
d="M385 330l273 380h174l-386 -537q-36 -50 -67.5 -85t-64.5 -57t-70 -32.5t-83 -10.5q-35 0 -57 3t-41 8l28 133q14 -3 31.5 -5t34.5 -2q32 0 63.5 11t51.5 43l1 2l-162 529h157z" />
    <glyph glyph-name="uni0424" unicode="&#x424;" horiz-adv-x="907" 
d="M480 58l-19 -88h-143l19 88q-66 3 -118 27t-87.5 62.5t-54 88.5t-18.5 106q0 62 21.5 119.5t64.5 101t108 69.5t153 26h58l18 82h145l-18 -83q66 -3 117.5 -27t87 -62t54 -88t18.5 -105q0 -62 -21.5 -119.5t-64.5 -101.5t-108.5 -70t-152.5 -26h-59zM205 347
q0 -32 10 -60t30 -49t50 -33.5t70 -13.5l71 335h-49q-39 0 -72 -13t-57.5 -36.5t-38.5 -56.5t-14 -73zM558 191q38 0 71 13t57.5 37t38.5 57t14 73q0 31 -10 59t-29.5 49t-49 33.5t-69.5 13.5l-73 -335h50z" />
    <glyph glyph-name="uni0425" unicode="&#x425;" horiz-adv-x="692" 
d="M-63 0l346 367l-184 343h156l128 -240l223 240h173l-331 -361l194 -349h-156l-136 250l-239 -250h-174z" />
    <glyph glyph-name="uni0426" unicode="&#x426;" horiz-adv-x="771" 
d="M711 138l-61 -286h-131l32 148h-528l150 710h145l-121 -572h276l122 572h145l-121 -572h92z" />
    <glyph glyph-name="uni0427" unicode="&#x427;" horiz-adv-x="679" 
d="M397 0l67 316q-27 -31 -71.5 -51.5t-102.5 -20.5q-54 0 -96.5 21t-69.5 58t-36.5 87.5t2.5 109.5l39 190h146l-40 -190q-14 -65 12.5 -101t90.5 -36q65 0 111.5 42t63.5 120l35 165h145l-151 -710h-145z" />
    <glyph glyph-name="uni0428" unicode="&#x428;" horiz-adv-x="980" 
d="M173 710h145l-121 -572h192l121 572h146l-121 -572h192l121 572h145l-150 -710h-820z" />
    <glyph glyph-name="uni0429" unicode="&#x429;" horiz-adv-x="1024" 
d="M804 0h-781l150 710h145l-121 -572h192l121 572h146l-121 -572h192l121 572h145l-121 -572h92l-61 -286h-131z" />
    <glyph glyph-name="uni042A" unicode="&#x42a;" horiz-adv-x="726" 
d="M108 710h322l-55 -256h97q52 0 92.5 -16.5t68 -44.5t41.5 -65t14 -77q0 -117 -76 -184t-225 -67h-253l121 572h-176zM347 320l-40 -186h107q60 0 96.5 27t36.5 78q0 38 -25.5 59.5t-73.5 21.5h-101z" />
    <glyph glyph-name="uni042B" unicode="&#x42b;" horiz-adv-x="900" 
d="M303 134q60 0 96.5 27t36.5 78q0 38 -25.5 59.5t-73.5 21.5h-102l-39 -186h107zM361 454q52 0 92.5 -16.5t68 -44.5t41.5 -65t14 -77q0 -116 -76.5 -183.5t-224.5 -67.5h-253l151 710h144l-54 -256h97zM769 710h144l-151 -710h-144z" />
    <glyph glyph-name="uni042C" unicode="&#x42c;" horiz-adv-x="614" 
d="M303 134q60 0 96.5 27t36.5 78q0 38 -25.5 59.5t-73.5 21.5h-102l-39 -186h107zM361 454q52 0 92.5 -16.5t68 -44.5t41.5 -65t14 -77q0 -116 -76.5 -183.5t-224.5 -67.5h-253l151 710h144l-54 -256h97z" />
    <glyph glyph-name="uni042D" unicode="&#x42d;" horiz-adv-x="796" 
d="M623 419q-11 74 -62 119t-140 45q-67 0 -120 -31t-85 -83h-157q19 55 53 101.5t81 80.5t107 53t132 19q80 0 143.5 -26t107.5 -71t67 -106t23 -131q0 -81 -27 -153.5t-79 -127.5t-126.5 -87t-169.5 -32q-68 0 -124 19t-98.5 53t-70.5 80.5t-40 101.5h157q21 -52 68 -83
t119 -31q40 0 76.5 12t66.5 33t52.5 51t34.5 66h-315l28 128h298z" />
    <glyph glyph-name="uni042E" unicode="&#x42e;" horiz-adv-x="1092" 
d="M678 -12q-71 0 -129 23t-101 63.5t-68.5 95.5t-31.5 119h-118l-62 -289h-145l150 710h145l-61 -286h101q15 64 48 118.5t81.5 94.5t112 62.5t139.5 22.5q75 0 136 -26t104.5 -71t67 -106t23.5 -131q0 -83 -27.5 -155.5t-78.5 -127t-123.5 -86t-162.5 -31.5zM727 582
q-49 0 -91.5 -18t-74 -51t-50 -78.5t-18.5 -99.5q0 -46 13 -84t38 -65.5t61.5 -42.5t83.5 -15q49 0 91.5 18t74 51t50 78.5t18.5 99.5q0 46 -13 84t-38 65.5t-61.5 42.5t-83.5 15z" />
    <glyph glyph-name="uni042F" unicode="&#x42f;" horiz-adv-x="651" 
d="M369 0l52 246h-52l-257 -246h-187l298 283q-43 27 -69 72t-26 102q0 61 21.5 108t60.5 79.5t93 49t120 16.5h242l-150 -710h-146zM403 578q-61 0 -97 -30.5t-36 -81.5q0 -38 25 -63t75 -25h80l42 200h-89z" />
    <glyph glyph-name="uni0405" unicode="&#x405;" horiz-adv-x="585" 
d="M286 -12q-70 0 -121 21t-83.5 54.5t-48 74.5t-15.5 82h145q5 -45 40.5 -71.5t86.5 -26.5q42 0 68 22t26 52q0 34 -23 54.5t-71 41.5l-37 16q-31 13 -58 32t-47.5 44t-32.5 56t-12 70q0 45 18 83.5t50 67t76.5 45t98.5 16.5q59 0 103.5 -19.5t74.5 -50.5t45.5 -69.5
t16.5 -76.5h-144q-7 41 -37 61.5t-67 20.5q-38 0 -63.5 -19t-25.5 -50t20.5 -49t56.5 -33l51 -21q75 -31 114.5 -85t39.5 -129q0 -47 -17 -86t-49 -67.5t-77 -44.5t-102 -16z" />
    <glyph glyph-name="uni0404" unicode="&#x404;" horiz-adv-x="795" 
d="M208 291q12 -74 63 -118.5t140 -44.5q66 0 119.5 31t85.5 83h157q-20 -55 -53.5 -101.5t-81 -80.5t-107.5 -53t-132 -19q-80 0 -143 26t-107 71t-67.5 106t-23.5 131q0 81 27.5 153.5t79 127.5t126.5 87t170 32q68 0 124 -19t98.5 -53t70.5 -80.5t40 -101.5h-157
q-21 52 -68 83t-119 31q-41 0 -77.5 -12t-66.5 -34t-52.5 -51.5t-34.5 -65.5h316l-28 -128h-299z" />
    <glyph glyph-name="uni0406" unicode="&#x406;" horiz-adv-x="304" 
d="M174 710h144l-151 -710h-144z" />
    <glyph glyph-name="uni0408" unicode="&#x408;" horiz-adv-x="536" 
d="M410 710h144l-113 -533q-20 -97 -76.5 -143t-147.5 -46q-40 0 -81.5 12t-74.5 38.5t-52.5 67.5t-14.5 98h143q-1 -21 6 -36.5t18.5 -25.5t26 -14.5t28.5 -4.5q35 0 56.5 20.5t29.5 58.5z" />
    <glyph glyph-name="uni040F" unicode="&#x40f;" horiz-adv-x="729" 
d="M343 -148h-132l31 148h-219l151 710h145l-122 -572h279l122 572h145l-151 -710h-218z" />
    <glyph glyph-name="uni0409" unicode="&#x409;" horiz-adv-x="1042" 
d="M1003 236q0 -56 -19.5 -100t-56 -74t-88.5 -46t-117 -16h-271l122 572h-221l-75 -354q-14 -65 -33.5 -109t-48 -71t-67.5 -38.5t-90 -11.5q-25 0 -43.5 2.5t-32.5 5.5l28 133q11 -2 21.5 -3.5t23.5 -1.5q19 0 34 5t27.5 18t22 35t16.5 55l101 473h512l-60 -283h111
q47 0 84.5 -15t64 -41.5t41 -61t14.5 -73.5zM862 224q0 34 -22.5 49.5t-62.5 15.5h-118l-32 -153h122q50 0 81.5 22t31.5 66z" />
    <glyph glyph-name="uni040A" unicode="&#x40a;" horiz-adv-x="1043" 
d="M174 710h144l-60 -283h295l60 283h145l-61 -283h104q46 0 84 -15t64 -41.5t40.5 -61t14.5 -73.5q0 -113 -75 -174.5t-206 -61.5h-261l62 289h-295l-62 -289h-144zM668 289l-33 -153h115q50 0 81.5 22t31.5 66q0 34 -22.5 49.5t-62.5 15.5h-110z" />
    <glyph glyph-name="uni0402" unicode="&#x402;" horiz-adv-x="768" 
d="M530 447q42 0 78 -16t62.5 -44t41.5 -66.5t15 -83.5q0 -66 -21.5 -113t-58 -77.5t-84.5 -45t-100 -14.5q-28 0 -51 3t-41 8l28 130q31 -7 69 -7q48 0 80.5 27t32.5 76q0 42 -26.5 63.5t-75.5 21.5q-27 0 -53.5 -10t-48.5 -28.5t-38.5 -45t-23.5 -60.5l-35 -165h-146
l122 572h-175l29 138h535l-29 -138h-214l-41 -193q23 29 66 48.5t103 19.5z" />
    <glyph glyph-name="uni040B" unicode="&#x40b;" horiz-adv-x="769" 
d="M645 710l-29 -138h-214l-41 -194q28 32 71 50.5t97 18.5q51 0 91 -21t65 -57.5t33 -86.5t-4 -107l-38 -175h-143l37 177q13 62 -10 97t-81 35t-104.5 -41t-63.5 -121l-31 -147h-146l121 572h-174l29 138h535z" />
    <glyph glyph-name="uni0474" unicode="&#x474;" horiz-adv-x="788" 
d="M783 722q25 0 47 -4.5t33 -9.5l-30 -134q-24 5 -43.5 6t-37 -6t-35 -24.5t-37.5 -49.5l-314 -500h-129l-143 710h145l97 -501l213 345q30 48 55.5 80t52 51.5t57 28t69.5 8.5z" />
    <glyph glyph-name="uni04AE" unicode="&#x4ae;" horiz-adv-x="690" 
d="M278 299l-174 411h151l112 -276l230 276h177l-350 -412l-63 -298h-146z" />
    <glyph glyph-name="uni04BA" unicode="&#x4ba;" horiz-adv-x="681" 
d="M318.98 709.957l-66.9961 -315.981q26.999 30.998 71.4961 51.4971t102.493 20.499q53.9971 0 96.4941 -20.999q42.498 -20.998 69.4961 -57.9961t36.498 -87.4951q9.49902 -50.4971 -2.5 -109.493l-38.998 -189.988h-145.991l39.998 189.988
q13.999 64.9961 -12.499 100.994q-26.499 35.998 -90.4951 35.998q-64.9961 0 -111.493 -41.998q-46.4971 -41.9971 -63.4961 -119.992l-34.9971 -164.99h-144.991l150.99 709.957h144.991z" />
    <glyph glyph-name="uni04C0" unicode="&#x4c0;" horiz-adv-x="304" 
d="M174 710h144l-151 -710h-144z" />
    <glyph glyph-name="uni04D8" unicode="&#x4d8;" horiz-adv-x="821" 
d="M395 -12q-80 0 -143 26t-107 71t-67 106t-23 131q0 25 1 42.5t6 40.5h588q-8 80 -60 128.5t-146 48.5q-56 0 -103 -22t-79 -60h-169q22 49 56.5 89.5t80 70t102.5 46t124 16.5q80 0 143.5 -26t107.5 -71t67.5 -106t23.5 -131q0 -81 -27.5 -153.5t-79 -127.5t-126.5 -87
t-170 -32zM407 128q78 0 138 41.5t88 108.5h-424q14 -66 64.5 -108t133.5 -42z" />
    <glyph glyph-name="uni0462" unicode="&#x462;" horiz-adv-x="746" 
d="M100 643h180l15 67h145l-14 -67h218l-27 -127h-218l-13 -62h97q52 0 92.5 -16.5t68 -44.5t41.5 -65t14 -77q0 -116 -76.5 -183.5t-224.5 -67.5h-253l109 516h-180zM425 134q60 0 96.5 27t36.5 78q0 38 -25.5 59.5t-73.5 21.5h-102l-39 -186h107z" />
    <glyph glyph-name="uni0419" unicode="&#x419;" horiz-adv-x="794" 
d="M23 0l150 710h145l-96 -449l460 449h125l-150 -710h-145l95 450l-459 -450h-125zM526 750q-35 0 -67 12.5t-54.5 35t-32.5 55t-1 72.5h87q-5 -25 -0.5 -43t15 -30t25.5 -17.5t32 -5.5q18 0 34.5 6t30 18t23 30t11.5 42h89q-11 -83 -62.5 -129t-129.5 -46z" />
    <glyph glyph-name="uni0401" unicode="&#x401;" horiz-adv-x="569" 
d="M174 710h442l-29 -138h-298l-31 -146h238l-30 -138h-238l-31 -150h297l-29 -138h-442zM307 772q-32 0 -54 22t-22 53q0 32 22 54t54 22q31 0 53 -22t22 -54q0 -31 -22 -53t-53 -22zM542 772q-32 0 -54 22t-22 53q0 32 22 54t54 22q31 0 53 -22t22 -54q0 -31 -22 -53
t-53 -22z" />
    <glyph glyph-name="uni040C" unicode="&#x40c;" horiz-adv-x="691" 
d="M235 325l-69 -325h-143l151 710h143l-65 -305l318 305h182l-369 -355l280 -355h-172zM509 927h156l-152 -157h-106z" />
    <glyph glyph-name="uni0490" unicode="&#x490;" horiz-adv-x="519" 
d="M565 572h-275l-122 -572h-145l151 710h420zM463 710l31 148h131l-31 -148h-131z" />
    <glyph glyph-name="uni0403" unicode="&#x403;" horiz-adv-x="519" 
d="M565 572h-275l-122 -572h-145l151 710h420zM450 927h156l-152 -157h-106z" />
    <glyph glyph-name="uni040E" unicode="&#x40e;" horiz-adv-x="735" 
d="M385 330l273 380h174l-386 -537q-36 -50 -67.5 -85t-64.5 -57t-70 -32.5t-83 -10.5q-35 0 -57 3t-41 8l28 133q14 -3 31.5 -5t34.5 -2q32 0 63.5 11t51.5 43l1 2l-162 529h157zM488 750q-35 0 -67 12.5t-54.5 35t-32.5 55t-1 72.5h87q-5 -25 -0.5 -43t15 -30t25.5 -17.5
t32 -5.5q18 0 34.5 6t30 18t23 30t11.5 42h89q-11 -83 -62.5 -129t-129.5 -46z" />
    <glyph glyph-name="uni0407" unicode="&#x407;" horiz-adv-x="304" 
d="M174 710h144l-151 -710h-144zM183 787q-31 0 -53.5 22t-22.5 53q0 32 22.5 54t53.5 22t53 -22t22 -54q0 -31 -22 -53t-53 -22zM372 787q-31 0 -53 22t-22 53q0 32 22 54t53 22q32 0 54 -22t22 -54q0 -31 -22 -53t-54 -22z" />
    <glyph glyph-name="uni0472" unicode="&#x472;" horiz-adv-x="825" 
d="M411 128q52 0 96.5 19t77.5 52.5t52 78.5t19 97q0 45 -13 83t-39 65.5t-64.5 43t-89.5 15.5q-52 0 -97 -19t-78 -52.5t-51.5 -78.5t-18.5 -97q0 -45 13 -83t39 -65.5t64.5 -43t89.5 -15.5zM399 -12q-80 0 -143.5 26t-107 71t-66.5 106t-23 131q0 81 27 153.5t79 127.5
t127 87t170 32q80 0 143 -26t107 -71t67 -106t23 -131q0 -81 -27.5 -153.5t-79 -127.5t-126.5 -87t-170 -32zM540 400q38 0 75.5 11t65.5 28l-27 -127q-28 -17 -65.5 -27.5t-75.5 -10.5q-27 0 -51.5 6t-47.5 13t-46.5 13t-47.5 6q-38 0 -75.5 -10.5t-65.5 -27.5l27 126
q27 17 65.5 28t76.5 11q33 0 57.5 -6t46 -13.5t42 -13.5t46.5 -6z" />
    <glyph glyph-name="uni04E8" unicode="&#x4e8;" horiz-adv-x="825" 
d="M411 128q52 0 96.5 19t77.5 52.5t52 78.5t19 97q0 45 -13 83t-39 65.5t-64.5 43t-89.5 15.5q-52 0 -97 -19t-78 -52.5t-51.5 -78.5t-18.5 -97q0 -45 13 -83t39 -65.5t64.5 -43t89.5 -15.5zM399 -12q-80 0 -143.5 26t-107 71t-66.5 106t-23 131q0 81 27 153.5t79 127.5
t127 87t170 32q80 0 143 -26t107 -71t67 -106t23 -131q0 -81 -27.5 -153.5t-79 -127.5t-126.5 -87t-170 -32zM145 418h596l-27 -128h-596z" />
    <glyph glyph-name="uni0492" unicode="&#x492;" horiz-adv-x="550" 
d="M593 572h-275l-122 -572h-145l151 710h420zM51 420h397l-26 -128h-398z" />
    <glyph glyph-name="uni04B0" unicode="&#x4b0;" horiz-adv-x="679" 
d="M275 299l-174 411h151l112 -276l230 276h177l-350 -412l-63 -298h-146zM539 170h-439l27 129h438z" />
    <glyph glyph-name="uni04E2" unicode="&#x4e2;" horiz-adv-x="794" 
d="M23 0l150 710h145l-96 -449l460 449h125l-150 -710h-145l95 450l-459 -450h-125zM366 887h343l-21 -96h-342z" />
    <glyph glyph-name="uni04EE" unicode="&#x4ee;" horiz-adv-x="735" 
d="M385 330l273 380h174l-386 -537q-36 -50 -67.5 -85t-64.5 -57t-70 -32.5t-83 -10.5q-35 0 -57 3t-41 8l28 133q14 -3 31.5 -5t34.5 -2q32 0 63.5 11t51.5 43l1 2l-162 529h157zM329 887h343l-21 -96h-342z" />
    <glyph glyph-name="uni0496" unicode="&#x496;" horiz-adv-x="1050" 
d="M591 311l-65 -311h-145l65 307l-329 -307h-191l398 373l-211 337h156l195 -315l67 315h145l-66 -312l309 312h181l-361 -361l242 -349h-170zM856 0h-24l29 138h155l-60 -286h-131z" />
    <glyph glyph-name="uni049A" unicode="&#x49a;" horiz-adv-x="725" 
d="M235 325l-69 -325h-143l151 710h143l-65 -305l318 305h182l-369 -355l280 -355h-172zM538 0h-24l29 138h155l-60 -286h-131z" />
    <glyph glyph-name="uni04A2" unicode="&#x4a2;" horiz-adv-x="801" 
d="M174 710h144l-60 -283h309l60 283h144l-151 -710h-144l61 289h-308l-62 -289h-144zM582 0h-24l29 138h155l-60 -286h-131z" />
    <glyph glyph-name="uni04B2" unicode="&#x4b2;" horiz-adv-x="736" 
d="M-63 0l346 367l-184 343h156l128 -240l223 240h173l-331 -361l194 -349h-156l-136 250l-239 -250h-174zM544 0h-24l29 138h155l-60 -286h-131z" />
    <glyph glyph-name="uni04B6" unicode="&#x4b6;" horiz-adv-x="723" 
d="M397 0l67 316q-27 -31 -71.5 -51.5t-102.5 -20.5q-54 0 -96.5 21t-69.5 58t-36.5 87.5t2.5 109.5l39 190h146l-40 -190q-14 -65 12.5 -101t90.5 -36q65 0 111.5 42t63.5 120l35 165h145l-151 -710h-145zM504 0h-24l29 138h155l-60 -286h-131z" />
    <glyph glyph-name="uni0430" unicode="&#x430;" horiz-adv-x="620" 
d="M231 -8q-44 0 -80 17t-61.5 47t-40 70.5t-14.5 87.5q0 64 20 118.5t55 94t83 62t105 22.5q31 0 57.5 -8t46.5 -20t34 -26t20 -26l14 69h137l-106 -500h-137l9 44q-18 -19 -53 -35.5t-89 -16.5zM280 110q30 0 56.5 12t45.5 33.5t30 51t11 63.5q0 54 -28 85t-80 31
q-30 0 -56.5 -12t-45.5 -33.5t-30 -50.5t-11 -63q0 -54 28 -85.5t80 -31.5z" />
    <glyph glyph-name="uni0431" unicode="&#x431;" horiz-adv-x="606" 
d="M283 -10q-58 0 -107 23t-81 65t-43.5 101.5t4.5 133.5l8 37q21 96 51.5 161.5t75.5 107.5t106 66t144 38l186 31l-27 -133l-151 -25q-88 -14 -141 -47t-78 -101q27 21 61 30t66 9q46 0 85 -16t67 -44.5t44 -69.5t16 -90q0 -56 -19 -106t-55.5 -88t-89.5 -60.5t-122 -22.5
zM317 369q-30 0 -55 -11t-43 -30t-28 -44.5t-10 -54.5q0 -51 31 -81.5t83 -30.5q31 0 56 10.5t43 29t27.5 44t9.5 54.5q0 54 -30.5 84t-83.5 30z" />
    <glyph glyph-name="uni0432" unicode="&#x432;" horiz-adv-x="562" 
d="M119 500h240q35 0 63.5 -11.5t48.5 -30.5t31 -44t11 -52q0 -36 -14.5 -64t-38.5 -46q21 -16 33 -41t12 -54q0 -30 -12 -58.5t-36 -50.5t-61.5 -35t-88.5 -13h-294zM303 112q33 0 49.5 15t16.5 40q0 20 -13 32t-36 12h-124l-21 -99h128zM316 303q30 0 46 14t16 37
q0 20 -13 30.5t-34 10.5h-96l-19 -92h100z" />
    <glyph glyph-name="uni0433" unicode="&#x433;" horiz-adv-x="428" 
d="M119 500h345l-26 -120h-207l-81 -380h-137z" />
    <glyph glyph-name="uni0434" unicode="&#x434;" horiz-adv-x="654" 
d="M16 120q34 0 57.5 28t39.5 101l54 251h430l-81 -380h81l-52 -243h-122l26 123h-349l-26 -123h-122l51 243h13zM249 241q-10 -48 -21 -74.5t-28 -46.5h179l55 260h-156z" />
    <glyph glyph-name="uni0435" unicode="&#x435;" horiz-adv-x="593" 
d="M275 -11q-56 0 -100 19.5t-75 52t-47.5 75.5t-16.5 91q0 61 20 113t56.5 90t89 59.5t118.5 21.5q55 0 103 -20.5t81 -58.5t47 -92.5t2 -121.5h-389q5 -51 38.5 -80.5t81.5 -29.5q36 0 65.5 14t46.5 41h145q-37 -90 -104.5 -132t-161.5 -42zM306 400q-21 0 -41.5 -6
t-38.5 -17.5t-32 -28.5t-21 -40h243q-3 24 -13 41.5t-25 28.5t-33.5 16.5t-38.5 5.5z" />
    <glyph glyph-name="uni0436" unicode="&#x436;" horiz-adv-x="819" 
d="M468 202l-43 -202h-137l42 199l-216 -199h-178l293 264l-149 236h146l125 -204l43 204h137l-43 -202l202 202h163l-257 -257l183 -243h-156z" />
    <glyph glyph-name="uni0437" unicode="&#x437;" horiz-adv-x="505" 
d="M230 -11q-42 0 -80 11t-69 32.5t-52 53t-28 71.5h141q8 -28 33 -42t58 -14q34 0 54 16.5t20 44.5q0 20 -13 34t-45 14h-55l20 94h55q26 0 47 11t21 40q0 23 -16.5 36t-46.5 13q-29 0 -50 -12.5t-32 -38.5h-138q23 82 84 120t141 38q91 0 139.5 -41.5t48.5 -107.5
q0 -34 -16.5 -64.5t-51.5 -49.5q22 -16 34 -41t12 -57q0 -29 -13 -58t-39 -52t-67 -37t-96 -14z" />
    <glyph glyph-name="uni0438" unicode="&#x438;" horiz-adv-x="616" 
d="M13 0l106 500h137l-59 -281l283 281h123l-106 -500h-137l61 284l-285 -284h-123z" />
    <glyph glyph-name="uni043A" unicode="&#x43a;" horiz-adv-x="549" 
d="M195 212l-45 -212h-137l106 500h137l-43 -200l208 200h168l-259 -250l185 -250h-160z" />
    <glyph glyph-name="uni043B" unicode="&#x43b;" horiz-adv-x="612" 
d="M43 -10q-25 0 -44.5 3t-32.5 6l25 115q9 -2 20 -3.5t21 -1.5q30 0 46 16.5t26 62.5l67 312h428l-106 -500h-137l80 380h-154l-42 -200q-11 -53 -28.5 -89t-41.5 -58.5t-55.5 -32.5t-71.5 -10z" />
    <glyph glyph-name="uni043C" unicode="&#x43c;" horiz-adv-x="694" 
d="M235 500l115 -207l215 207h115l-106 -500h-137l60 280l-179 -172l-105 189l-63 -297h-137l106 500h116z" />
    <glyph glyph-name="uni043D" unicode="&#x43d;" horiz-adv-x="613" 
d="M119 500h137l-40 -189h206l40 189h137l-106 -500h-137l41 192h-206l-41 -192h-137z" />
    <glyph glyph-name="uni043E" unicode="&#x43e;" horiz-adv-x="596" 
d="M287 116q29 0 54 11t43 30.5t28 46t10 56.5q0 57 -30 90t-84 33q-29 0 -53.5 -11.5t-42.5 -31t-28 -45.5t-10 -56q0 -56 29.5 -89.5t83.5 -33.5zM276 -12q-60 0 -105 20t-75 53.5t-45.5 76.5t-15.5 89q0 60 20.5 111.5t58 90t90 60.5t116.5 22q60 0 105 -20t75 -53.5
t45 -76.5t15 -89q0 -60 -20.5 -111.5t-57.5 -90t-89.5 -60.5t-116.5 -22z" />
    <glyph glyph-name="uni043F" unicode="&#x43f;" horiz-adv-x="603" 
d="M119 500h470l-106 -500h-137l81 380h-196l-81 -380h-137z" />
    <glyph glyph-name="uni0440" unicode="&#x440;" horiz-adv-x="620" 
d="M119 500h137l-9 -44q18 19 53.5 35.5t88.5 16.5q43 0 79.5 -17t62 -47t40 -70.5t14.5 -87.5q0 -64 -20 -118.5t-55 -94t-83 -62t-104 -22.5q-32 0 -58.5 8t-46.5 20t-33.5 26t-19.5 26l-59 -278h-137zM305 114q30 0 56.5 12t45.5 33.5t30 50.5t11 63q0 54 -28 85.5
t-80 31.5q-30 0 -56.5 -12t-45.5 -33.5t-30 -51t-11 -63.5q0 -54 28 -85t80 -31z" />
    <glyph glyph-name="uni0441" unicode="&#x441;" horiz-adv-x="586" 
d="M276 -11q-59 0 -104 20t-75.5 53t-46 76t-15.5 89q0 60 20.5 111.5t58 90t90 60.5t116.5 22q54 0 95.5 -16t71.5 -44t47.5 -64.5t23.5 -77.5h-142q-11 35 -38.5 56t-68.5 21q-29 0 -54 -11.5t-43 -32t-28 -47t-10 -56.5q0 -56 29.5 -91.5t83.5 -35.5q40 0 71 22.5
t48 56.5h143q-12 -44 -35 -81t-57 -64t-79.5 -42t-101.5 -15z" />
    <glyph glyph-name="uni0442" unicode="&#x442;" horiz-adv-x="456" 
d="M183 380h-139l26 120h423l-25 -120h-148l-81 -380h-137z" />
    <glyph glyph-name="uni0443" unicode="&#x443;" horiz-adv-x="569" 
d="M257 -63q-29 -45 -54 -74.5t-51 -47.5t-55.5 -25.5t-67.5 -7.5q-25 0 -45 2.5t-34 6.5l25 115q11 -2 22.5 -3.5t26.5 -1.5q28 0 50.5 15t48.5 54l39 61l-108 469h136l72 -314l204 314h156z" />
    <glyph glyph-name="uni0444" unicode="&#x444;" horiz-adv-x="768" 
d="M219 -209l41 198q-53 2 -94.5 21.5t-70 51t-44 73.5t-15.5 90q0 58 19.5 110t56 91t90 62t122.5 23h46l51 239h137l-51 -239q52 -2 94 -21.5t71.5 -51t45 -73.5t15.5 -90q0 -58 -19.5 -110t-56 -91t-90 -62t-122.5 -23h-48l-41 -198h-137zM450 114q31 0 57.5 11.5t46 32
t30.5 49t11 61.5q0 48 -30 80t-84 36l-57 -270h26zM174 232q0 -48 29.5 -80.5t83.5 -37.5l57 271h-25q-32 0 -58.5 -11.5t-45.5 -31.5t-30 -48.5t-11 -61.5z" />
    <glyph glyph-name="uni0445" unicode="&#x445;" horiz-adv-x="559" 
d="M262 148l-148 -148h-166l247 246l-134 254h146l85 -163l155 163h165l-254 -265l136 -235h-147z" />
    <glyph glyph-name="uni0446" unicode="&#x446;" horiz-adv-x="645" 
d="M540 -123h-123l26 123h-430l106 500h137l-80 -380h196l80 380h137l-80 -380h82z" />
    <glyph glyph-name="uni0447" unicode="&#x447;" horiz-adv-x="560" 
d="M302 0l43 201q-23 -25 -53 -38t-77 -13q-39 0 -73 16t-56.5 44t-31.5 66.5t0 83.5l29 140h138l-29 -133q-6 -26 -2 -44.5t14.5 -30t26 -16.5t33.5 -5t36 6t34.5 19t29.5 33.5t19 49.5l26 121h137l-106 -500h-138z" />
    <glyph glyph-name="uni0448" unicode="&#x448;" horiz-adv-x="833" 
d="M119 500h137l-80 -380h145l80 380h137l-80 -380h145l80 380h137l-106 -500h-701z" />
    <glyph glyph-name="uni0449" unicode="&#x449;" horiz-adv-x="878" 
d="M770 -123h-122l26 123h-661l106 500h137l-80 -380h145l80 380h137l-80 -380h145l80 380h137l-80 -380h82z" />
    <glyph glyph-name="uni044A" unicode="&#x44a;" horiz-adv-x="581" 
d="M375 351q37 0 67.5 -12.5t52 -34.5t33.5 -52t12 -64q0 -40 -14 -74t-41 -59.5t-67 -40t-93 -14.5h-237l80 381h-125l26 119h262l-31 -149h75zM326 117q39 0 61.5 17t22.5 49q0 51 -61 51h-74l-25 -117h76z" />
    <glyph glyph-name="uni044B" unicode="&#x44b;" horiz-adv-x="752" 
d="M601 500h137l-106 -500h-137zM119 500h138l-31 -149h75q37 0 67.5 -12.5t52 -34.5t33.5 -52t12 -64q0 -39 -14 -73.5t-41 -60t-67 -40t-93 -14.5h-238zM176 117h76q39 0 61.5 17t22.5 49q0 51 -61 51h-74z" />
    <glyph glyph-name="uni044C" unicode="&#x44c;" horiz-adv-x="508" 
d="M119 500h138l-31 -149h75q37 0 67.5 -12.5t52 -34.5t33.5 -52t12 -64q0 -39 -14 -73.5t-41 -60t-67 -40t-93 -14.5h-238zM176 117h76q39 0 61.5 17t22.5 49q0 51 -61 51h-74z" />
    <glyph glyph-name="uni044D" unicode="&#x44d;" horiz-adv-x="585" 
d="M310 511q59 0 104 -20t75.5 -53t46 -76t15.5 -89q0 -60 -20.5 -111.5t-57.5 -90t-90 -60.5t-117 -22q-54 0 -95.5 16t-71.5 44t-47.5 64.5t-23.5 77.5h142q11 -35 38.5 -56t68.5 -21q45 0 79 27t48 69h-171l19 91h155q-9 40 -37 63.5t-70 23.5q-41 0 -72 -22.5t-48 -56.5
h-143q12 44 35 81t57 64t79.5 42t101.5 15z" />
    <glyph glyph-name="uni044E" unicode="&#x44e;" horiz-adv-x="820" 
d="M508 -12q-51 0 -91.5 16.5t-69.5 44t-46.5 64.5t-23.5 78h-86l-41 -191h-137l106 500h137l-40 -190h70q12 44 36 81t58.5 63.5t78 41.5t93.5 15q57 0 100.5 -20t73 -53.5t44 -76.5t14.5 -89q0 -60 -20 -111.5t-56 -90t-87 -60.5t-113 -22zM519 116q27 0 50.5 11
t40.5 30.5t26.5 46t9.5 56.5q0 57 -28 90t-78 33q-27 0 -50 -11.5t-40 -31t-27 -45.5t-10 -56q0 -56 29 -89.5t77 -33.5z" />
    <glyph glyph-name="uni044F" unicode="&#x44f;" horiz-adv-x="542" 
d="M529 500l-106 -500h-137l33 158h-46l-170 -158h-166l219 204q-32 22 -49.5 53t-17.5 69q0 36 13 67.5t38.5 55.5t63.5 37.5t89 13.5h236zM369 389h-73q-39 0 -58.5 -18.5t-19.5 -45.5q0 -26 17 -41.5t48 -15.5h60z" />
    <glyph glyph-name="uni0455" unicode="&#x455;" horiz-adv-x="494" 
d="M233 -11q-49 0 -90 12.5t-70.5 35t-46 53.5t-16.5 69h142q0 -17 7.5 -29t20 -20t28 -12t31.5 -4q29 0 45.5 12t16.5 29q0 35 -52 52l-72 24q-51 17 -81 53.5t-30 90.5q0 72 52 114t152 42q39 0 73.5 -11.5t61.5 -32t43 -49.5t18 -65h-137q-1 15 -7.5 24.5t-16.5 15.5
t-21 8.5t-21 2.5q-26 0 -41.5 -10.5t-15.5 -29.5t13.5 -30t30.5 -17l60 -20q60 -20 95 -56t35 -94q0 -75 -56 -116.5t-151 -41.5z" />
    <glyph glyph-name="uni0454" unicode="&#x454;" horiz-adv-x="587" 
d="M276 -11q-59 0 -104 20t-75.5 53t-46 76t-15.5 89q0 60 20.5 111.5t58 90t90 60.5t116.5 22q54 0 95.5 -16t71.5 -44t47.5 -64.5t23.5 -77.5h-142q-11 35 -38.5 56t-68.5 21q-43 0 -75 -23.5t-48 -61.5h170l-19 -91h-161q8 -45 36 -71.5t75 -26.5q40 0 71 22.5t48 56.5
h143q-12 -44 -35 -81t-57 -64t-79.5 -42t-101.5 -15z" />
    <glyph glyph-name="uni0456" unicode="&#x456;" horiz-adv-x="270" 
d="M224 582q-18 0 -33.5 7t-27.5 18.5t-19 27.5t-7 34t7 34t19 27.5t27.5 18.5t33.5 7q37 0 62.5 -25.5t25.5 -61.5t-25.5 -61.5t-62.5 -25.5zM119 500h137l-106 -500h-137z" />
    <glyph glyph-name="uni0458" unicode="&#x458;" horiz-adv-x="277" 
d="M-72 -219q-17 0 -32.5 1t-26.5 4l25 117q5 -2 13 -2.5t15 -0.5q38 0 61 19t33 64l110 517h137l-115 -540q-20 -97 -74.5 -138t-145.5 -41zM231 582q-18 0 -33.5 7t-27.5 18.5t-19 27.5t-7 34t7 34t19 27.5t27.5 18.5t33.5 7q37 0 62.5 -25.5t25.5 -61.5t-25.5 -61.5
t-62.5 -25.5z" />
    <glyph glyph-name="uni045F" unicode="&#x45f;" horiz-adv-x="604" 
d="M310 0l-26 -123h-122l26 123h-175l106 500h137l-80 -379h197l81 379h137l-106 -500h-175z" />
    <glyph glyph-name="uni0459" unicode="&#x459;" horiz-adv-x="833" 
d="M239 180q-11 -53 -28 -89t-41 -58.5t-56 -32.5t-72 -10q-25 0 -43.5 2.5t-32.5 4.5l26 117q18 -5 39 -5q27 0 44.5 16.5t27.5 62.5l67 312h425l-40 -189h82q34 0 62 -11t48.5 -30.5t31.5 -45.5t11 -57q0 -36 -12.5 -66.5t-37.5 -53t-62 -35t-85 -12.5h-241l80 380h-151z
M597 115q29 0 46.5 11.5t17.5 34.5q0 19 -13 27.5t-35 8.5h-82l-18 -82h84z" />
    <glyph glyph-name="uni045A" unicode="&#x45a;" horiz-adv-x="828" 
d="M216 311h196l40 189h137l-40 -189h83q34 0 62 -11t48.5 -30.5t31.5 -45.5t11 -57q0 -36 -12.5 -66.5t-37.5 -53t-62 -35t-86 -12.5h-241l41 192h-196l-41 -192h-137l106 500h137zM592 115q29 0 46 11.5t17 34.5q0 19 -12.5 27.5t-34.5 8.5h-82l-18 -82h84z" />
    <glyph glyph-name="uni0452" unicode="&#x452;" horiz-adv-x="598" 
d="M407 269q12 56 -7.5 87t-64.5 31q-48 0 -82.5 -33t-49.5 -105l-53 -249h-137l123 577h-88l19 91h88l17 82h137l-17 -82h166l-19 -91h-166l-28 -129q25 27 63.5 44.5t84.5 17.5t79.5 -20t53 -52t24.5 -74t-4 -85l-68 -319q-20 -97 -74.5 -138t-145.5 -41q-17 0 -32.5 1
t-26.5 4l25 117q5 -2 13 -2.5t15 -0.5q38 0 61 19t33 64z" />
    <glyph glyph-name="uni045B" unicode="&#x45b;" horiz-adv-x="598" 
d="M13 0l123 577h-88l19 91h88l17 82h137l-17 -82h166l-19 -91h-166l-28 -129q25 27 63.5 44.5t84.5 17.5t79.5 -20t53 -52t24.5 -74t-4 -85l-59 -279h-137l57 269q12 56 -7.5 87t-64.5 31q-48 0 -82.5 -33t-49.5 -105l-53 -249h-137z" />
    <glyph glyph-name="uni0457" unicode="&#x457;" horiz-adv-x="270" 
d="M119 500h137l-106 -500h-137zM125 577q-32 0 -54 22t-22 53q0 32 22 54t54 22q31 0 53 -22t22 -54q0 -31 -22 -53t-53 -22zM314 577q-31 0 -53 22t-22 53q0 32 22 54t53 22t53 -22t22 -54q0 -31 -22 -53t-53 -22z" />
    <glyph glyph-name="uni0475" unicode="&#x475;" horiz-adv-x="600" 
d="M256 170l129 204q26 41 49.5 68t46 42.5t46.5 21.5t52 6q24 0 38.5 -3.5t24.5 -6.5l-25 -117q-38 5 -61 -7t-47 -49l-216 -329h-126l-115 500h135z" />
    <glyph glyph-name="uni04AF" unicode="&#x4af;" horiz-adv-x="571" 
d="M164 0l-111 500h135l73 -327l211 327h153l-324 -500l-44 -209h-137z" />
    <glyph glyph-name="uni04BB" unicode="&#x4bb;" horiz-adv-x="598" 
d="M172 750h137l-64 -302q25 27 63.5 44.5t84.5 17.5t79.5 -20t53 -52t24.5 -74t-4 -85l-59 -279h-137l57 269q12 56 -7.5 87t-64.5 31q-48 0 -82.5 -33t-49.5 -105l-53 -249h-137z" />
    <glyph glyph-name="uni04CF" unicode="&#x4cf;" horiz-adv-x="270" 
d="M172 750h137l-159 -750h-137z" />
    <glyph glyph-name="uni04D9" unicode="&#x4d9;" horiz-adv-x="600" 
d="M287 -11q-49 0 -98.5 17t-87 52.5t-56 91t-4.5 132.5h391q-1 47 -31.5 78.5t-89.5 31.5q-32 0 -65.5 -13t-51.5 -42h-144q13 40 39.5 72.5t61 55t76.5 34.5t87 12q55 0 101 -17t79 -48t51 -75.5t18 -98.5q0 -58 -18.5 -109.5t-54 -90t-87 -61t-116.5 -22.5zM286 100
q47 0 80.5 24.5t47.5 67.5h-237q3 -26 13.5 -43.5t26 -28.5t33.5 -15.5t36 -4.5z" />
    <glyph glyph-name="uni0463" unicode="&#x463;" horiz-adv-x="563" 
d="M68 500h99l53 250h137l-53 -250h170l-19 -90h-170l-12 -59h75q37 0 67.5 -12.5t52 -34.5t33.5 -52t12 -64q0 -39 -13.5 -73.5t-40.5 -60t-67.5 -40t-93.5 -14.5h-237l87 410h-99zM224 117h75q39 0 62 17t23 49q0 51 -61 51h-75z" />
    <glyph glyph-name="uni0439" unicode="&#x439;" horiz-adv-x="616" 
d="M13 0l106 500h137l-59 -281l283 281h123l-106 -500h-137l61 284l-285 -284h-123zM402 558q-39 0 -71.5 15t-54 40.5t-30 60.5t0.5 76h90q-7 -29 -4 -50t13 -35t26 -21t36 -7q38 1 64 25.5t34 87.5h89q-1 -41 -14.5 -76t-38 -60.5t-60 -40.5t-80.5 -15z" />
    <glyph glyph-name="uni0451" unicode="&#x451;" horiz-adv-x="593" 
d="M275 -11q-56 0 -100 19.5t-75 52t-47.5 75.5t-16.5 91q0 61 20 113t56.5 90t89 59.5t118.5 21.5q55 0 103 -20.5t81 -58.5t47 -92.5t2 -121.5h-389q5 -51 38.5 -80.5t81.5 -29.5q36 0 65.5 14t46.5 41h145q-37 -90 -104.5 -132t-161.5 -42zM306 400q-21 0 -41.5 -6
t-38.5 -17.5t-32 -28.5t-21 -40h243q-3 24 -13 41.5t-25 28.5t-33.5 16.5t-38.5 5.5zM234 577q-32 0 -54.5 22t-22.5 53q0 32 22.5 54t54.5 22q30 0 52 -22t22 -54q0 -31 -22 -53t-52 -22zM468 577q-32 0 -54 22t-22 53q0 32 22 54t54 22q31 0 53 -22t22 -54q0 -31 -22 -53
t-53 -22z" />
    <glyph glyph-name="uni045C" unicode="&#x45c;" horiz-adv-x="549" 
d="M195 212l-45 -212h-137l106 500h137l-43 -200l208 200h168l-259 -250l185 -250h-160zM451 750h165l-209 -190h-105z" />
    <glyph glyph-name="uni0491" unicode="&#x491;" horiz-adv-x="428" 
d="M119 500h345l-26 -120h-207l-81 -380h-137zM341 500l26 123h123l-26 -123h-123z" />
    <glyph glyph-name="uni0453" unicode="&#x453;" horiz-adv-x="428" 
d="M119 500h345l-26 -120h-207l-81 -380h-137zM405 750h165l-209 -190h-105z" />
    <glyph glyph-name="uni045E" unicode="&#x45e;" horiz-adv-x="569" 
d="M257 -63q-29 -45 -54 -74.5t-51 -47.5t-55.5 -25.5t-67.5 -7.5q-25 0 -45 2.5t-34 6.5l25 115q11 -2 22.5 -3.5t26.5 -1.5q28 0 50.5 15t48.5 54l39 61l-108 469h136l72 -314l204 314h156zM359 558q-39 0 -71.5 15t-54 40.5t-30 60.5t0.5 76h90q-7 -29 -4 -50t13 -35
t26 -21t36 -7q38 1 64 25.5t34 87.5h89q-1 -41 -14.5 -76t-38 -60.5t-60 -40.5t-80.5 -15z" />
    <glyph glyph-name="uni0473" unicode="&#x473;" horiz-adv-x="596" 
d="M287 116q29 0 54 11t43 30.5t28 46t10 56.5q0 57 -30 90t-84 33q-29 0 -53.5 -11.5t-42.5 -31t-28 -45.5t-10 -56q0 -56 29.5 -89.5t83.5 -33.5zM276 -12q-60 0 -105 20t-75 53.5t-45.5 76.5t-15.5 89q0 60 20.5 111.5t58 90t90 60.5t116.5 22q60 0 105 -20t75 -53.5
t45 -76.5t15 -89q0 -60 -20.5 -111.5t-57.5 -90t-89.5 -60.5t-116.5 -22zM117 294h380l-18 -87h-380z" />
    <glyph glyph-name="uni04E9" unicode="&#x4e9;" horiz-adv-x="596" 
d="M287 116q29 0 54 11t43 30.5t28 46t10 56.5q0 57 -30 90t-84 33q-29 0 -53.5 -11.5t-42.5 -31t-28 -45.5t-10 -56q0 -56 29.5 -89.5t83.5 -33.5zM276 -12q-60 0 -105 20t-75 53.5t-45.5 76.5t-15.5 89q0 60 20.5 111.5t58 90t90 60.5t116.5 22q60 0 105 -20t75 -53.5
t45 -76.5t15 -89q0 -60 -20.5 -111.5t-57.5 -90t-89.5 -60.5t-116.5 -22zM117 294h380l-18 -87h-380z" />
    <glyph glyph-name="uni0493" unicode="&#x493;" horiz-adv-x="459" 
d="M151 500h345l-26 -120h-207l-81 -380h-137zM7 197l20 90h323l-20 -90h-323z" />
    <glyph glyph-name="uni04B1" unicode="&#x4b1;" horiz-adv-x="572" 
d="M165 0l-111 500h135l73 -327l211 327h153l-324 -500l-44 -209h-137zM37 0h393l-19 -90h-393z" />
    <glyph glyph-name="uni04E3" unicode="&#x4e3;" horiz-adv-x="616" 
d="M13 0l106 500h137l-59 -281l283 281h123l-106 -500h-137l61 284l-285 -284h-123zM244 710h342l-20 -97h-343z" />
    <glyph glyph-name="uni04EF" unicode="&#x4ef;" horiz-adv-x="569" 
d="M257 -63q-29 -45 -54 -74.5t-51 -47.5t-55.5 -25.5t-67.5 -7.5q-25 0 -45 2.5t-34 6.5l25 115q11 -2 22.5 -3.5t26.5 -1.5q28 0 50.5 15t48.5 54l39 61l-108 469h136l72 -314l204 314h156zM201 710h342l-20 -97h-343z" />
    <glyph glyph-name="uni0497" unicode="&#x497;" horiz-adv-x="843" 
d="M468 202l-43 -202h-137l42 199l-216 -199h-178l293 264l-149 236h146l125 -204l43 204h137l-43 -202l202 202h163l-257 -257l183 -243h-156zM660 0h-23l25 120h146l-52 -243h-122z" />
    <glyph glyph-name="uni049B" unicode="&#x49b;" horiz-adv-x="574" 
d="M195 212l-45 -212h-137l106 500h137l-43 -200l208 200h168l-259 -250l185 -250h-160zM396 0h-23l25 120h146l-52 -243h-122z" />
    <glyph glyph-name="uni04A3" unicode="&#x4a3;" horiz-adv-x="656" 
d="M119 500h137l-40 -189h206l40 189h137l-106 -500h-137l41 192h-206l-41 -192h-137zM452 0h-23l25 120h146l-52 -243h-122z" />
    <glyph glyph-name="uni04B3" unicode="&#x4b3;" horiz-adv-x="586" 
d="M262 148l-148 -148h-166l247 246l-134 254h146l85 -163l155 163h165l-254 -265l136 -235h-147zM395 0h-23l25 120h146l-52 -243h-122z" />
    <glyph glyph-name="uni04B7" unicode="&#x4b7;" horiz-adv-x="605" 
d="M302 0l43 201q-23 -25 -53 -38t-77 -13q-39 0 -73 16t-56.5 44t-31.5 66.5t0 83.5l29 140h138l-29 -133q-6 -26 -2 -44.5t14.5 -30t26 -16.5t33.5 -5t36 6t34.5 19t29.5 33.5t19 49.5l26 121h137l-106 -500h-138zM400 0h-23l25 120h146l-52 -243h-122z" />
    <glyph glyph-name="uniF6D4" unicode="&#xf6d4;" 
d="M138 558q-39 0 -71.5 15t-54 40.5t-30 60.5t0.5 76h90q-7 -29 -4 -50t13 -35t26 -21t36 -7q38 1 64 25.5t34 87.5h89q-1 -41 -14.5 -76t-38 -60.5t-60 -40.5t-80.5 -15z" />
    <glyph glyph-name="glyph470" 
d="M47 500l26 123h123l-26 -123h-123z" />
    <glyph glyph-name="glyph471" 
d="M-120 197l20 90h323l-20 -90h-323z" />
    <glyph glyph-name="glyph472" 
d="M-127 295h380l-18 -87h-380z" />
    <glyph glyph-name="glyph473" 
d="M-196 0h393l-19 -90h-393z" />
    <glyph glyph-name="glyph474" 
d="M-52 0h-23l25 120h146l-52 -243h-122z" />
    <glyph glyph-name="uniF6D1" unicode="&#xf6d1;" 
d="M177 750q-35 0 -67 12.5t-54.5 35t-32.5 55t-1 72.5h87q-5 -25 -0.5 -43t15 -30t25.5 -17.5t32 -5.5q18 0 34.5 6t30 18t23 30t11.5 42h89q-11 -83 -62.5 -129t-129.5 -46z" />
    <glyph glyph-name="glyph476" 
d="M90 710l31 148h131l-31 -148h-131z" />
    <glyph glyph-name="glyph477" 
d="M186 401q38 0 75.5 11t65.5 28l-27 -127q-28 -17 -65.5 -27.5t-75.5 -10.5q-27 0 -51.5 6t-47.5 13t-46.5 13t-47.5 6q-38 0 -75.5 -10.5t-65.5 -27.5l27 126q27 17 65.5 28t76.5 11q33 0 57.5 -6t46 -13.5t42 -13.5t46.5 -6z" />
    <glyph glyph-name="glyph478" 
d="M-109 420h397l-26 -128h-398z" />
    <glyph glyph-name="glyph479" 
d="M-210 416h596l-27 -128h-596z" />
    <glyph glyph-name="glyph480" 
d="M256 170h-439l27 129h438z" />
    <glyph glyph-name="glyph481" 
d="M-30 0h-24l29 138h155l-60 -286h-131z" />
    <glyph glyph-name="uni20B8" unicode="&#x20b8;" horiz-adv-x="592" 
d="M269 463h-195l30 135h525l-29 -135h-194l-99 -463h-137zM127 710h526l-12 -57h-526z" />
    <glyph glyph-name="uni20BD" unicode="&#x20bd;" horiz-adv-x="622" 
d="M75 387h85l69 323h170q54 0 98 -14.5t75 -41t48 -64t17 -83.5q0 -52 -17 -97.5t-52.5 -80t-91.5 -54.5t-134 -20h-73l-15 -69h163l-13 -58h-162l-27 -128h-137l27 128h-85l12 58h85l15 69h-85zM374 387q55 0 89 29t34 80q0 35 -21.5 58t-75.5 23h-63l-39 -190h76z" />
    <glyph glyph-name="uni20B4" unicode="&#x20b4;" horiz-adv-x="629" 
d="M55 334h545l-13 -57h-353q-23 -14 -34.5 -34.5t-11.5 -43.5q0 -39 31 -60.5t82 -21.5t86 25.5t46 76.5h136q-17 -113 -90.5 -172t-190.5 -59q-50 0 -93 14t-75 38.5t-50.5 58.5t-18.5 73q0 65 42 105h-50zM79 446h352q39 25 39 74q0 38 -25.5 55.5t-60.5 17.5
q-43 0 -71.5 -22.5t-43.5 -64.5h-136q9 54 33 94.5t58.5 67.5t78 40.5t91.5 13.5q47 0 86 -13t67 -36.5t43.5 -55.5t15.5 -71q0 -58 -31 -100h48l-13 -57h-544z" />
    <glyph glyph-name="ellipsis" unicode="&#x2026;" horiz-adv-x="804" 
d="M109 -8q-42 0 -71 29t-29 71t29 71t71 29t71 -29t29 -71t-29 -71t-71 -29zM375 -8q-42 0 -71 29t-29 71t29 71t71 29t71 -29t29 -71t-29 -71t-71 -29zM641 -8q-42 0 -71 29t-29 71t29 71t71 29t71 -29t29 -71t-29 -71t-71 -29z" />
    <glyph glyph-name="endash" unicode="&#x2013;" horiz-adv-x="588" 
d="M76 346h472l-28 -132h-473z" />
    <glyph glyph-name="emdash" unicode="&#x2014;" horiz-adv-x="882" 
d="M76 346h766l-28 -132h-767z" />
    <glyph glyph-name="guilsinglleft" unicode="&#x2039;" horiz-adv-x="325" 
d="M215 467h122l-169 -235l73 -199h-111l-103 217z" />
    <glyph glyph-name="guilsinglright" unicode="&#x203a;" horiz-adv-x="327" 
d="M108 35h-122l169 235l-73 199h111l103 -217z" />
    <glyph glyph-name="quoteleft" unicode="&#x2018;" horiz-adv-x="275" 
d="M245.985 709.957h80.9951l-101.994 -157.99q25.998 -16.999 36.998 -39.998q10.999 -22.999 10.999 -45.9971q0 -41.9971 -28.998 -70.9961q-28.998 -28.998 -70.9961 -28.998q-20.999 0 -38.9971 8q-17.999 7.99902 -31.498 21.498q-13.5 13.499 -21.499 31.498
q-8 17.999 -8 38.998q0 36.998 28.999 70.9951z" />
    <glyph glyph-name="quoteright" unicode="&#x2019;" horiz-adv-x="277" 
d="M154 377h-81l102 158q-26 17 -37 40t-11 46q0 42 29 71t71 29q21 0 39 -8t31.5 -21.5t21.5 -31.5t8 -39q0 -37 -29 -71z" />
    <glyph glyph-name="uni02BB" unicode="&#x2bb;" horiz-adv-x="275" 
d="M245.985 709.957h80.9951l-101.994 -157.99q25.998 -16.999 36.998 -39.998q10.999 -22.999 10.999 -45.9971q0 -41.9971 -28.998 -70.9961q-28.998 -28.998 -70.9961 -28.998q-20.999 0 -38.9971 8q-17.999 7.99902 -31.498 21.498q-13.5 13.499 -21.499 31.498
q-8 17.999 -8 38.998q0 36.998 28.999 70.9951z" />
    <glyph glyph-name="uni02BC" unicode="&#x2bc;" horiz-adv-x="277" 
d="M154 377h-81l102 158q-26 17 -37 40t-11 46q0 42 29 71t71 29q21 0 39 -8t31.5 -21.5t21.5 -31.5t8 -39q0 -37 -29 -71z" />
    <glyph glyph-name="quotedblleft" unicode="&#x201c;" horiz-adv-x="505" 
d="M245.985 709.957h80.9951l-101.994 -157.99q25.998 -16.999 36.998 -39.998q10.999 -22.999 10.999 -45.9971q0 -41.9971 -28.998 -70.9961q-28.998 -28.998 -70.9961 -28.998q-20.999 0 -38.9971 8q-17.999 7.99902 -31.498 21.498q-13.5 13.499 -21.499 31.498
q-8 17.999 -8 38.998q0 36.998 28.999 70.9951zM475.971 709.957h80.9951l-101.993 -157.99q25.998 -16.999 36.9971 -39.998q11 -22.999 11 -45.9971q0 -41.9971 -28.999 -70.9961q-28.998 -28.998 -70.9951 -28.998q-20.999 0 -38.998 8q-17.999 7.99902 -31.498 21.498
t-21.498 31.498q-8 17.999 -8 38.998q0 36.998 28.998 70.9951z" />
    <glyph glyph-name="quotedblright" unicode="&#x201d;" horiz-adv-x="507" 
d="M154 377h-81l102 158q-26 17 -37 40t-11 46q0 42 29 71t71 29q21 0 39 -8t31.5 -21.5t21.5 -31.5t8 -39q0 -37 -29 -71zM384 377h-81l102 158q-26 17 -37 40t-11 46q0 42 29 71t71 29q21 0 39 -8t31.5 -21.5t21.5 -31.5t8 -39q0 -37 -29 -71z" />
    <glyph glyph-name="quotesinglbase" unicode="&#x201a;" horiz-adv-x="280" 
d="M39 -152h-81l102 158q-26 17 -37 40t-11 46q0 42 29 71t71 29q21 0 39 -8t31.5 -21.5t21.5 -31.5t8 -39q0 -37 -29 -71z" />
    <glyph glyph-name="quotedblbase" unicode="&#x201e;" horiz-adv-x="510" 
d="M39 -152h-81l102 158q-26 17 -37 40t-11 46q0 42 29 71t71 29q21 0 39 -8t31.5 -21.5t21.5 -31.5t8 -39q0 -37 -29 -71zM269 -152h-81l102 158q-26 17 -37 40t-11 46q0 42 29 71t71 29q21 0 39 -8t31.5 -21.5t21.5 -31.5t8 -39q0 -37 -29 -71z" />
    <glyph glyph-name="bullet" unicode="&#x2022;" horiz-adv-x="400" 
d="M207 166q-28 0 -52.5 10.5t-43 29t-29.5 43.5t-11 53t11 53t29.5 43.5t43 29t52.5 10.5t53 -10.5t43.5 -29t29.5 -43.5t11 -53t-11 -53t-29.5 -43.5t-43.5 -29t-53 -10.5z" />
    <glyph glyph-name="dagger" unicode="&#x2020;" horiz-adv-x="519" 
d="M229 391h-174l24 109h173l45 210h116l-45 -210h174l-23 -109h-174l-104 -489h-116z" />
    <glyph glyph-name="daggerdbl" unicode="&#x2021;" horiz-adv-x="540" 
d="M297 112l-45 -210h-116l45 210h-174l23 109h174l36 170h-174l23 109h174l45 210h116l-45 -210h174l-23 -109h-174l-36 -170h174l-23 -109h-174z" />
    <glyph glyph-name="perthousand" unicode="&#x2030;" horiz-adv-x="1483" 
d="M1239 -8q-41 0 -77 15.5t-62.5 42.5t-42 62.5t-15.5 76.5t15.5 77t42 62.5t62.5 42t77 15.5q40 0 76 -15.5t63 -42t42.5 -62.5t15.5 -77t-15.5 -76.5t-42.5 -62.5t-63 -42.5t-76 -15.5zM1239 108q33 0 56 24t23 57t-23 57t-56 24q-34 0 -57.5 -24t-23.5 -57t23.5 -57
t57.5 -24zM174 0l600 710h155l-599 -710h-156zM820 -8q-41 0 -77 15.5t-62.5 42.5t-42 62.5t-15.5 76.5t15.5 77t42 62.5t62.5 42t77 15.5q40 0 76 -15.5t63 -42t42.5 -62.5t15.5 -77t-15.5 -76.5t-42.5 -62.5t-63 -42.5t-76 -15.5zM820 108q33 0 56 24t23 57t-23 57t-56 24
q-34 0 -57.5 -24t-23.5 -57t23.5 -57t57.5 -24zM285 324q-41 0 -77 15.5t-62.5 42.5t-42 62.5t-15.5 76.5t15.5 77t42 62.5t62.5 42t77 15.5q40 0 76 -15.5t63 -42t42.5 -62.5t15.5 -77t-15.5 -76.5t-42.5 -62.5t-63 -42.5t-76 -15.5zM285 440q33 0 56 24t23 57t-23 57
t-56 24q-35 0 -58 -24t-23 -57t23 -57t58 -24z" />
    <glyph glyph-name="uni2117" unicode="&#x2117;" horiz-adv-x="821" 
d="M430 -12q-75 0 -142 29t-116.5 79t-78.5 116.5t-29 142.5t29 142.5t78.5 116.5t116.5 79t142 29q76 0 142.5 -29t116.5 -79t79 -116.5t29 -142.5t-29 -142.5t-79 -116.5t-116.5 -79t-142.5 -29zM430 72q58 0 110 22.5t90 60.5t60.5 89.5t22.5 110.5q0 58 -22.5 110
t-60.5 90t-90 60.5t-110 22.5t-109.5 -22.5t-89.5 -60.5t-60.5 -90t-22.5 -110q0 -59 22.5 -110.5t60.5 -89.5t89.5 -60.5t109.5 -22.5zM586 413q0 -27 -10 -50t-27 -40t-41 -27t-52 -10h-43v-117h-84v371h127q28 0 52 -9.5t41 -27t27 -40.5t10 -50zM505 413q0 21 -14 35
t-36 14h-42v-97h42q22 0 36 14t14 34z" />
    <glyph glyph-name="trademark" unicode="&#x2122;" horiz-adv-x="866" 
d="M478 710h99l79 -121l78 121h99v-362h-101v187l-76 -117l-77 118v-188h-101v362zM218 606h-97v104h300v-104h-97v-258h-106v258z" />
    <glyph glyph-name="uni2116" unicode="&#x2116;" horiz-adv-x="1107" 
d="M534 0l-263 479l-101 -479h-145l151 710h125l261 -480l103 480h145l-151 -710h-125zM977 405q-32 0 -60 12.5t-49 33.5t-33 49t-12 60t12 60t33 49t49 33.5t60 12.5t60 -12.5t49 -33.5t33.5 -49t12.5 -60t-12.5 -60t-33.5 -49t-49 -33.5t-60 -12.5zM783 359h304l-19 -90
h-304zM978 495q26 0 45 19t19 46t-19 46t-45 19q-27 0 -46 -19t-19 -46t19 -46t46 -19z" />
    <glyph glyph-name="glyph505" horiz-adv-x="535" 
d="M438 723l-131 -252l233 10l-415 -492l242 402l-205 -12l147 296zM530 465q5 0 5 -5q0 4 4 5q-4 0 -4 5t5 5t5 -5t-4 -5q3 -1 4 -4q0 4 5 4t5 -5t-4 -5q4 -2 4 -5q0 -5 -4 -5q3 -1 4 -4q0 4 5 4t5 -5t-4 -5q4 -2 4 -5q0 -5 -5 -5t-5 4q-2 -4 -4 -4q4 -2 4 -5q0 -5 -5 -5
t-5 4q-2 -4 -4 -4q4 -2 4 -5q0 -5 -5 -5t-5 4q-2 -4 -4 -4q4 -2 4 -5q0 -5 -5 -5t-5 4q-2 -4 -4 -4q4 -2 4 -5q0 -5 -5 -5t-5 4q-2 -4 -4 -4q4 -2 4 -5q0 -5 -5 -5t-5 4q-2 -4 -4 -4q4 -2 4 -5q0 -5 -5 -5t-5 4q-2 -4 -4 -4q4 -2 4 -5q0 -5 -4 -5q4 -2 4 -5q0 -5 -5 -5t-5 4
q-2 -4 -4 -4q4 -2 4 -5q0 -5 -5 -5t-5 4q-2 -4 -4 -4q4 -2 4 -5q0 -5 -5 -5t-5 4q-2 -4 -4 -4q4 -2 4 -5q0 -5 -5 -5t-5 4q-2 -4 -4 -4q4 -2 4 -5q0 -5 -5 -5t-5 4q-2 -4 -4 -4q4 -2 4 -5q0 -5 -5 -5t-5 4q-2 -4 -4 -4q4 -2 4 -5q0 -5 -5 -5t-5 4q-2 -4 -4 -4q4 -2 4 -5
q0 -5 -5 -5t-5 4q-2 -4 -4 -4q4 -2 4 -5q0 -5 -5 -5t-5 4q-2 -4 -4 -4q4 -2 4 -5q0 -5 -5 -5t-5 4q-2 -4 -4 -4q4 -2 4 -5q0 -5 -5 -5t-5 4q-2 -4 -4 -4q4 -2 4 -5q0 -5 -5 -5t-5 4q-2 -4 -4 -4q4 -2 4 -5q0 -5 -5 -5t-5 4q-2 -4 -4 -4q4 -2 4 -5q0 -5 -4 -5q4 -2 4 -5
q0 -5 -5 -5t-5 4q-2 -4 -4 -4q4 -2 4 -5q0 -5 -5 -5t-5 4q-2 -4 -4 -4q4 -2 4 -5q0 -5 -5 -5t-5 4q-2 -4 -4 -4q4 -2 4 -5q0 -5 -5 -5t-5 4q-2 -4 -4 -4q4 -2 4 -5q0 -5 -5 -5t-5 4q-2 -4 -4 -4q4 -2 4 -5q0 -5 -5 -5t-5 4q-2 -4 -4 -4q4 -2 4 -5q0 -5 -5 -5t-5 4
q-2 -4 -4 -4q4 -2 4 -5q0 -5 -5 -5t-5 4q-2 -4 -4 -4q4 -2 4 -5q0 -5 -5 -5t-5 4q-2 -4 -4 -4q4 -2 4 -5q0 -5 -5 -5t-5 4q-2 -4 -4 -4q4 -2 4 -5q0 -5 -5 -5t-5 4q-2 -4 -4 -4q4 -2 4 -5q0 -5 -4 -5q4 -2 4 -5q0 -5 -5 -5t-5 4q-2 -4 -4 -4q4 -2 4 -5q0 -5 -5 -5t-5 4
q-2 -4 -4 -4q4 -2 4 -5q0 -5 -5 -5t-5 4q-2 -4 -4 -4q4 -2 4 -5q0 -5 -5 -5t-5 4q-2 -4 -4 -4q4 -2 4 -5q0 -5 -5 -5t-5 4q-2 -4 -4 -4q4 -2 4 -5q0 -5 -5 -5t-5 4q-2 -4 -4 -4q4 -2 4 -5q0 -5 -5 -5t-5 4q-2 -4 -4 -4q4 -2 4 -5q0 -5 -5 -5t-5 4q-2 -4 -4 -4q4 -2 4 -5
q0 -5 -5 -5t-5 4q-2 -4 -4 -4q4 -2 4 -5q0 -5 -5 -5t-5 4q-1 -3 -4 -4q4 0 4 -5t-5 -5t-5 4q-1 -3 -4 -4q4 0 4 -5t-5 -5t-5 5t4 5q-4 1 -4 5q0 5 5 5t5 -5q0 5 4 5q-4 1 -4 5t4 5q-4 0 -4 5t5 5t5 -5q0 4 4 5q-4 0 -4 5t5 5q3 0 5 -4q0 2 4 4q-4 0 -4 5t5 5q3 0 5 -4
q0 2 4 4q-4 0 -4 5t5 5q3 0 5 -4q0 2 4 4q-4 0 -4 5t5 5t5 -5q0 4 4 5q-4 0 -4 5t5 5t5 -5q0 4 4 5q-4 0 -4 5q0 4 4 5q-4 0 -4 5t5 5t5 -5q0 4 4 5q-4 0 -4 5t5 5q3 0 5 -4q0 2 4 4q-4 0 -4 5t5 5q3 0 5 -4q0 2 4 4q-4 0 -4 5t5 5t5 -5q0 4 4 5q-4 0 -4 5t5 5t5 -5q0 4 4 5
q-4 0 -4 5q0 4 4 5q-4 0 -4 5t5 5q3 0 5 -4q0 2 4 4q-4 0 -4 5t5 5t5 -5q0 4 4 5q-4 0 -4 5t5 5t5 -5q0 4 4 5q-4 0 -4 5t5 5t5 -5q0 4 4 5q-4 0 -4 5t5 5t5 -5q0 4 4 5q-4 0 -4 5q0 4 4 5q-4 0 -4 5t5 5t5 -5q0 4 4 5q-4 0 -4 5t5 5q3 0 5 -4q0 2 4 4q-4 0 -4 5t5 5t5 -5
q0 4 4 5q-4 0 -4 5t5 5t5 -5q0 4 4 5q-4 0 -4 5t5 5t5 -5q0 4 4 5q-4 0 -4 5t5 5t5 -5q0 4 4 5q-4 0 -4 5q0 4 4 5q-4 0 -4 5t5 5t5 -5q0 4 4 5q-4 0 -4 5t5 5q3 0 5 -4q0 2 4 4q-4 0 -4 5t5 5t5 -5q0 4 4 5q-4 0 -4 5t5 5q3 0 5 -4q0 2 4 4q-4 0 -4 5t5 5q3 0 5 -4q0 2 4 4
q-4 0 -4 5q0 4 4 5q-4 0 -4 5t5 5t5 -5q0 4 4 5q-4 0 -4 5t5 5t5 -5q0 4 4 5q-4 0 -4 5t5 5t5 -5q0 4 4 5q-4 0 -4 5t5 5t5 -5q0 4 4 5q-4 0 -4 5t5 5t5 -5q0 4 4 5q-4 0 -4 5q0 4 4 5q-4 0 -4 5t5 5t5 -5q0 4 4 5q-4 0 -4 5t5 5q3 0 5 -4q0 2 4 4q-4 0 -4 5t5 5q3 0 5 -4
q0 2 4 4q-4 0 -4 5t5 5q3 0 5 -4q0 2 4 4q-4 0 -4 5t5 5t5 -5q0 4 4 5q-4 0 -4 5t5 5q3 0 5 -4q0 2 4 4q-4 0 -4 5q0 4 4 5q-4 0 -4 5t5 5zM430 695q3 0 5 -4q0 2 4 4q-4 0 -4 5q0 4 4 5q-4 0 -4 5t5 5t5 -5t-4 -5q3 -1 4 -4q0 4 5 4t5 -5t-4 -5q3 -1 4 -4q0 4 5 4t5 -5
t-4 -5q4 -2 4 -5q0 -5 -5 -5t-5 4q-2 -4 -4 -4q4 -2 4 -5q0 -5 -4 -5q4 -2 4 -5q0 -5 -5 -5t-5 4q-2 -4 -4 -4q4 -2 4 -5q0 -5 -5 -5t-5 4q-2 -4 -4 -4q4 -2 4 -5q0 -5 -4 -5q4 -2 4 -5q0 -5 -5 -5t-5 4q-2 -4 -4 -4q4 -2 4 -5q0 -5 -4 -5q4 -2 4 -5q0 -5 -5 -5t-5 4
q-2 -4 -4 -4q4 -2 4 -5q0 -5 -4 -5q4 -2 4 -5q0 -5 -5 -5t-5 4q-2 -4 -4 -4q4 -2 4 -5q0 -5 -5 -5t-5 4q-2 -4 -4 -4q4 -2 4 -5q0 -5 -4 -5q4 -2 4 -5q0 -5 -5 -5t-5 4q-2 -4 -4 -4q4 -2 4 -5q0 -5 -4 -5q4 -2 4 -5q0 -5 -5 -5t-5 4q-2 -4 -4 -4q4 -2 4 -5q0 -5 -4 -5
q4 -2 4 -5q0 -5 -5 -5t-5 4q-2 -4 -4 -4q4 -2 4 -5q0 -5 -4 -5q4 -2 4 -5q0 -5 -5 -5t-5 4q-2 -4 -4 -4q4 -2 4 -5q0 -5 -4 -5q4 -2 4 -5q0 -5 -5 -5t-5 4q-1 -4 -5 -4q-5 0 -5 4q-1 -4 -5 -4q-5 0 -5 4q-1 -4 -5 -4q-5 0 -5 5t5 5q3 0 5 -4q0 2 4 4q-4 0 -4 5q0 4 4 5
q-4 0 -4 5t5 5q3 0 5 -4q0 2 4 4q-4 0 -4 5q0 4 4 5q-4 0 -4 5t5 5t5 -5q0 4 4 5q-4 0 -4 5q0 4 4 5q-4 0 -4 5t5 5q3 0 5 -4q0 2 4 4q-4 0 -4 5q0 4 4 5q-4 0 -4 5t5 5t5 -5q0 4 4 5q-4 0 -4 5q0 4 4 5q-4 0 -4 5t5 5q3 0 5 -4q0 2 4 4q-4 0 -4 5q0 4 4 5q-4 0 -4 5t5 5
t5 -5q0 4 4 5q-4 0 -4 5t5 5q3 0 5 -4q0 2 4 4q-4 0 -4 5q0 4 4 5q-4 0 -4 5t5 5q3 0 5 -4q0 2 4 4q-4 0 -4 5q0 4 4 5q-4 0 -4 5t5 5q3 0 5 -4q0 2 4 4q-4 0 -4 5q0 4 4 5q-4 0 -4 5t5 5t5 -5q0 4 4 5q-4 0 -4 5q0 4 4 5q-4 0 -4 5t5 5zM350 385q5 0 5 -5t-5 -5t-5 4
q-2 -4 -4 -4q4 -2 4 -5q0 -5 -4 -5q4 -2 4 -5q0 -5 -5 -5t-5 4q-1 -4 -5 -4q-5 0 -5 4q-1 -4 -5 -4q-5 0 -5 4q-1 -4 -5 -4q-5 0 -5 4q-1 -4 -5 -4q-5 0 -5 4q-1 -4 -5 -4q-5 0 -5 4q-1 -4 -5 -4q-5 0 -5 4q-1 -4 -5 -4q-5 0 -5 4q-2 -4 -4 -4q4 -2 4 -5q0 -5 -5 -5t-5 4
q-1 -4 -5 -4q-5 0 -5 4q-1 -4 -5 -4q-5 0 -5 4q-1 -4 -5 -4q-5 0 -5 4q-1 -4 -5 -4q-5 0 -5 4q-1 -4 -5 -4q-5 0 -5 4q-1 -4 -5 -4q-5 0 -5 4q-1 -4 -5 -4q-5 0 -5 4q-1 -4 -5 -4q-5 0 -5 5q0 4 4 5q-4 0 -4 4q-1 -4 -5 -4q-5 0 -5 5q0 4 4 5q-4 0 -4 5t5 5t5 -5q0 5 5 5
t5 -5q0 5 5 5q3 0 5 -4q0 4 5 4t5 -5q0 5 5 5q3 0 5 -4q0 4 5 4t5 -5q0 5 5 5t5 -5q0 5 5 5t5 -5q0 5 5 5t5 -5q0 5 5 5t5 -5q0 4 4 5q-4 0 -4 5t5 5q3 0 5 -4q0 4 5 4t5 -5q0 5 5 5q3 0 5 -4q0 4 5 4t5 -5q0 5 5 5t5 -5q0 5 5 5q3 0 5 -4q0 4 5 4q3 0 5 -4q0 4 5 4
q3 0 5 -4q0 4 5 4zM185 39q-2 -4 -4 -4q4 -2 4 -5q0 4 4 5q-4 0 -4 4zM195 49q-2 -4 -4 -4q4 -2 4 -5q0 4 4 5q-4 0 -4 4zM205 59q-2 -4 -4 -4q4 -2 4 -5q0 4 4 5q-4 0 -4 4zM215 69q-2 -4 -4 -4q3 -1 4 -4q0 2 4 4q-4 0 -4 4zM215 79q-2 -4 -4 -4q3 -1 4 -4q0 2 4 4
q-4 0 -4 4zM229 75q-4 0 -4 4q-2 -4 -4 -4q3 -1 4 -4q0 2 4 4zM235 89q-2 -4 -4 -4q3 -1 4 -4q0 2 4 4q-4 0 -4 4zM229 85q-4 0 -4 4q-2 -4 -4 -4q3 -1 4 -4q0 2 4 4zM245 99q-2 -4 -4 -4q4 -2 4 -5q0 4 4 5q-4 0 -4 4zM235 99q-2 -4 -4 -4q3 -1 4 -4q0 2 4 4q-4 0 -4 4z
M245 109q-2 -4 -4 -4q4 -2 4 -5q0 4 4 5q-4 0 -4 4zM255 119q-2 -4 -4 -4q4 -2 4 -5q0 4 4 5q-4 0 -4 4zM265 129q-2 -4 -4 -4q3 -1 4 -4q0 2 4 4q-4 0 -4 4zM335 369q-2 -4 -4 -4q3 -1 4 -4q0 2 4 4q-4 0 -4 4zM325 369q-2 -4 -4 -4q4 -2 4 -5q0 4 4 5q-4 0 -4 4zM315 369
q-2 -4 -4 -4q4 -2 4 -5q0 4 4 5q-4 0 -4 4zM305 369q-2 -4 -4 -4q4 -2 4 -5q0 4 4 5q-4 0 -4 4zM295 369q-2 -4 -4 -4q4 -2 4 -5q0 4 4 5q-4 0 -4 4zM335 379q-2 -4 -4 -4q3 -1 4 -4q0 2 4 4q-4 0 -4 4zM325 379q-2 -4 -4 -4q3 -1 4 -4q0 2 4 4q-4 0 -4 4zM315 379
q-2 -4 -4 -4q4 -2 4 -5q0 4 4 5q-4 0 -4 4zM305 379q-2 -4 -4 -4q3 -1 4 -4q0 2 4 4q-4 0 -4 4zM295 379q-2 -4 -4 -4q3 -1 4 -4q0 2 4 4q-4 0 -4 4zM255 359q-2 -4 -4 -4q3 -1 4 -4q0 2 4 4q-4 0 -4 4zM245 359q-2 -4 -4 -4q4 -2 4 -5q0 4 4 5q-4 0 -4 4zM235 359
q-2 -4 -4 -4q4 -2 4 -5q0 4 4 5q-4 0 -4 4zM285 369q-2 -4 -4 -4q4 -2 4 -5q0 4 4 5q-4 0 -4 4zM275 369q-2 -4 -4 -4q3 -1 4 -4q0 2 4 4q-4 0 -4 4zM265 369q-2 -4 -4 -4q4 -2 4 -5q0 4 4 5q-4 0 -4 4zM255 369q-2 -4 -4 -4q4 -2 4 -5q0 4 4 5q-4 0 -4 4zM245 369
q-2 -4 -4 -4q4 -2 4 -5q0 4 4 5q-4 0 -4 4zM235 369q-2 -4 -4 -4q4 -2 4 -5q0 4 4 5q-4 0 -4 4zM285 379q-2 -4 -4 -4q4 -2 4 -5q0 4 4 5q-4 0 -4 4zM275 379q-2 -4 -4 -4q3 -1 4 -4q0 2 4 4q-4 0 -4 4zM225 359q-2 -4 -4 -4q4 -2 4 -5q0 4 4 5q-4 0 -4 4zM215 359
q-2 -4 -4 -4q4 -2 4 -5q0 4 4 5q-4 0 -4 4zM205 359q-2 -4 -4 -4q4 -2 4 -5q0 4 4 5q-4 0 -4 4zM195 359q-2 -4 -4 -4q4 -2 4 -5q0 4 4 5q-4 0 -4 4zM185 359q-2 -4 -4 -4q4 -2 4 -5q0 4 4 5q-4 0 -4 4zM225 369q-2 -4 -4 -4q4 -2 4 -5q0 4 4 5q-4 0 -4 4zM215 369
q-2 -4 -4 -4q4 -2 4 -5q0 4 4 5q-4 0 -4 4zM205 369q-2 -4 -4 -4q4 -2 4 -5q0 4 4 5q-4 0 -4 4zM195 369q-2 -4 -4 -4q4 -2 4 -5q0 4 4 5q-4 0 -4 4zM185 369q-2 -4 -4 -4q4 -2 4 -5q0 4 4 5q-4 0 -4 4zM175 369q-2 -4 -4 -4q4 -2 4 -5q0 4 4 5q-4 0 -4 4zM485 369
q-2 -4 -4 -4q4 -2 4 -5q0 4 4 5q-4 0 -4 4zM275 139q-2 -4 -4 -4q4 -2 4 -5q0 4 4 5q-4 0 -4 4zM269 135q-4 0 -4 4q-2 -4 -4 -4q4 -2 4 -5q0 4 4 5zM285 149q-2 -4 -4 -4q4 -2 4 -5q0 4 4 5q-4 0 -4 4zM275 149q-2 -4 -4 -4q3 -1 4 -4q0 2 4 4q-4 0 -4 4zM295 159
q-2 -4 -4 -4q4 -2 4 -5q0 4 4 5q-4 0 -4 4zM285 159q-2 -4 -4 -4q4 -2 4 -5q0 4 4 5q-4 0 -4 4zM305 169q-2 -4 -4 -4q4 -2 4 -5q0 4 4 5q-4 0 -4 4zM295 169q-2 -4 -4 -4q4 -2 4 -5q0 4 4 5q-4 0 -4 4zM315 179q-2 -4 -4 -4q4 -2 4 -5q0 4 4 5q-4 0 -4 4zM305 179
q-2 -4 -4 -4q4 -2 4 -5q0 4 4 5q-4 0 -4 4zM315 189q-2 -4 -4 -4q4 -2 4 -5q0 4 4 5q-4 0 -4 4zM315 199q-2 -4 -4 -4q4 -2 4 -5q0 4 4 5q-4 0 -4 4zM329 185q-4 0 -4 4q-2 -4 -4 -4q3 -1 4 -4q0 2 4 4zM335 199q-2 -4 -4 -4q4 -2 4 -5q0 4 4 5q-4 0 -4 4zM329 195
q-4 0 -4 4q-2 -4 -4 -4q4 -2 4 -5q0 4 4 5zM345 209q-2 -4 -4 -4q4 -2 4 -5q0 4 4 5q-4 0 -4 4zM335 209q-2 -4 -4 -4q4 -2 4 -5q0 4 4 5q-4 0 -4 4zM329 205q-4 0 -4 4q-2 -4 -4 -4q4 -2 4 -5q0 4 4 5zM355 219q-2 -4 -4 -4q3 -1 4 -4q0 2 4 4q-4 0 -4 4zM345 219
q-2 -4 -4 -4q4 -2 4 -5q0 4 4 5q-4 0 -4 4zM335 219q-2 -4 -4 -4q3 -1 4 -4q0 2 4 4q-4 0 -4 4zM355 229q-2 -4 -4 -4q4 -2 4 -5q0 4 4 5q-4 0 -4 4zM345 229q-2 -4 -4 -4q3 -1 4 -4q0 2 4 4q-4 0 -4 4zM365 239q-2 -4 -4 -4q3 -1 4 -4q0 2 4 4q-4 0 -4 4zM355 239
q-2 -4 -4 -4q4 -2 4 -5q0 4 4 5q-4 0 -4 4zM375 249q-2 -4 -4 -4q4 -2 4 -5q0 4 4 5q-4 0 -4 4zM365 249q-2 -4 -4 -4q4 -2 4 -5q0 4 4 5q-4 0 -4 4zM375 259q-2 -4 -4 -4q4 -2 4 -5q0 4 4 5q-4 0 -4 4zM375 269q-2 -4 -4 -4q3 -1 4 -4q0 2 4 4q-4 0 -4 4zM389 255
q-4 0 -4 4q-2 -4 -4 -4q4 -2 4 -5q0 4 4 5zM395 269q-2 -4 -4 -4q4 -2 4 -5q0 4 4 5q-4 0 -4 4zM389 265q-4 0 -4 4q-2 -4 -4 -4q4 -2 4 -5q0 4 4 5zM405 279q-2 -4 -4 -4q3 -1 4 -4q0 2 4 4q-4 0 -4 4zM395 279q-2 -4 -4 -4q3 -1 4 -4q0 2 4 4q-4 0 -4 4zM389 275
q-4 0 -4 4q-2 -4 -4 -4q3 -1 4 -4q0 2 4 4zM415 289q-2 -4 -4 -4q4 -2 4 -5q0 4 4 5q-4 0 -4 4zM405 289q-2 -4 -4 -4q4 -2 4 -5q0 4 4 5q-4 0 -4 4zM395 289q-2 -4 -4 -4q4 -2 4 -5q0 4 4 5q-4 0 -4 4zM425 299q-2 -4 -4 -4q4 -2 4 -5q0 4 4 5q-4 0 -4 4zM415 299
q-2 -4 -4 -4q3 -1 4 -4q0 2 4 4q-4 0 -4 4zM405 299q-2 -4 -4 -4q4 -2 4 -5q0 4 4 5q-4 0 -4 4zM435 309q-2 -4 -4 -4q4 -2 4 -5q0 4 4 5q-4 0 -4 4zM425 309q-2 -4 -4 -4q3 -1 4 -4q0 2 4 4q-4 0 -4 4zM415 309q-2 -4 -4 -4q4 -2 4 -5q0 4 4 5q-4 0 -4 4zM345 489
q-2 -4 -4 -4q3 -1 4 -4q0 2 4 4q-4 0 -4 4zM335 489q-2 -4 -4 -4q3 -1 4 -4q0 2 4 4q-4 0 -4 4zM345 499q-2 -4 -4 -4q4 -2 4 -5q0 4 4 5q-4 0 -4 4zM335 499q-2 -4 -4 -4q3 -1 4 -4q0 2 4 4q-4 0 -4 4zM355 509q-2 -4 -4 -4q3 -1 4 -4q0 2 4 4q-4 0 -4 4zM345 509
q-2 -4 -4 -4q4 -2 4 -5q0 4 4 5q-4 0 -4 4zM355 519q-2 -4 -4 -4q4 -2 4 -5q0 4 4 5q-4 0 -4 4zM345 519q-2 -4 -4 -4q4 -2 4 -5q0 4 4 5q-4 0 -4 4zM355 529q-2 -4 -4 -4q4 -2 4 -5q0 4 4 5q-4 0 -4 4zM355 539q-2 -4 -4 -4q4 -2 4 -5q0 4 4 5q-4 0 -4 4zM435 319
q-2 -4 -4 -4q4 -2 4 -5q0 4 4 5q-4 0 -4 4zM425 319q-2 -4 -4 -4q3 -1 4 -4q0 2 4 4q-4 0 -4 4zM435 329q-2 -4 -4 -4q4 -2 4 -5q0 4 4 5q-4 0 -4 4zM425 329q-2 -4 -4 -4q4 -2 4 -5q0 4 4 5q-4 0 -4 4zM435 339q-2 -4 -4 -4q3 -1 4 -4q0 2 4 4q-4 0 -4 4zM449 315
q-4 0 -4 4q-2 -4 -4 -4q3 -1 4 -4q0 2 4 4zM455 329q-2 -4 -4 -4q3 -1 4 -4q0 2 4 4q-4 0 -4 4zM449 325q-4 0 -4 4q-2 -4 -4 -4q4 -2 4 -5q0 4 4 5zM465 339q-2 -4 -4 -4q4 -2 4 -5q0 4 4 5q-4 0 -4 4zM455 339q-2 -4 -4 -4q4 -2 4 -5q0 4 4 5q-4 0 -4 4zM449 335
q-4 0 -4 4q-2 -4 -4 -4q3 -1 4 -4q0 2 4 4zM475 349q-2 -4 -4 -4q4 -2 4 -5q0 4 4 5q-4 0 -4 4zM465 349q-2 -4 -4 -4q3 -1 4 -4q0 2 4 4q-4 0 -4 4zM455 349q-2 -4 -4 -4q4 -2 4 -5q0 4 4 5q-4 0 -4 4zM449 345q-4 0 -4 4q-2 -4 -4 -4q4 -2 4 -5q0 4 4 5zM485 359
q-2 -4 -4 -4q4 -2 4 -5q0 4 4 5q-4 0 -4 4zM475 359q-2 -4 -4 -4q3 -1 4 -4q0 2 4 4q-4 0 -4 4zM465 359q-2 -4 -4 -4q3 -1 4 -4q0 2 4 4q-4 0 -4 4zM455 359q-2 -4 -4 -4q3 -1 4 -4q0 2 4 4q-4 0 -4 4zM375 549q-2 -4 -4 -4q3 -1 4 -4q0 2 4 4q-4 0 -4 4zM475 369
q-2 -4 -4 -4q4 -2 4 -5q0 4 4 5q-4 0 -4 4zM465 369q-2 -4 -4 -4q3 -1 4 -4q0 2 4 4q-4 0 -4 4zM495 379q-2 -4 -4 -4q3 -1 4 -4q0 2 4 4q-4 0 -4 4zM485 379q-2 -4 -4 -4q3 -1 4 -4q0 2 4 4q-4 0 -4 4zM475 379q-2 -4 -4 -4q4 -2 4 -5q0 4 4 5q-4 0 -4 4zM495 389
q-2 -4 -4 -4q4 -2 4 -5q0 4 4 5q-4 0 -4 4zM485 389q-2 -4 -4 -4q4 -2 4 -5q0 4 4 5q-4 0 -4 4zM475 389q-2 -4 -4 -4q3 -1 4 -4q0 2 4 4q-4 0 -4 4zM495 399q-2 -4 -4 -4q4 -2 4 -5q0 4 4 5q-4 0 -4 4zM485 399q-2 -4 -4 -4q4 -2 4 -5q0 4 4 5q-4 0 -4 4zM495 409
q-2 -4 -4 -4q4 -2 4 -5q0 4 4 5q-4 0 -4 4zM509 385q-4 0 -4 4q-2 -4 -4 -4q4 -2 4 -5q0 4 4 5zM515 399q-2 -4 -4 -4q4 -2 4 -5q0 4 4 5q-4 0 -4 4zM509 395q-4 0 -4 4q-2 -4 -4 -4q3 -1 4 -4q0 2 4 4zM525 409q-2 -4 -4 -4q4 -2 4 -5q0 4 4 5q-4 0 -4 4zM515 409
q-2 -4 -4 -4q3 -1 4 -4q0 2 4 4q-4 0 -4 4zM509 405q-4 0 -4 4q-2 -4 -4 -4q4 -2 4 -5q0 4 4 5zM535 419q-2 -4 -4 -4q4 -2 4 -5q0 4 4 5q-4 0 -4 4zM525 419q-2 -4 -4 -4q3 -1 4 -4q0 2 4 4q-4 0 -4 4zM515 419q-2 -4 -4 -4q4 -2 4 -5q0 4 4 5q-4 0 -4 4zM509 415
q-4 0 -4 4q-2 -4 -4 -4q3 -1 4 -4q0 2 4 4zM545 429q-2 -4 -4 -4q3 -1 4 -4q0 2 4 4q-4 0 -4 4zM535 429q-2 -4 -4 -4q4 -2 4 -5q0 4 4 5q-4 0 -4 4zM525 429q-2 -4 -4 -4q3 -1 4 -4q0 2 4 4q-4 0 -4 4zM515 429q-2 -4 -4 -4q3 -1 4 -4q0 2 4 4q-4 0 -4 4zM555 439
q-2 -4 -4 -4q3 -1 4 -4q0 2 4 4q-4 0 -4 4zM545 439q-2 -4 -4 -4q3 -1 4 -4q0 2 4 4q-4 0 -4 4zM535 439q-2 -4 -4 -4q4 -2 4 -5q0 4 4 5q-4 0 -4 4zM525 439q-2 -4 -4 -4q3 -1 4 -4q0 2 4 4q-4 0 -4 4zM545 449q-2 -4 -4 -4q3 -1 4 -4q0 2 4 4q-4 0 -4 4zM535 449
q-2 -4 -4 -4q3 -1 4 -4q0 2 4 4q-4 0 -4 4zM545 459q-2 -4 -4 -4q4 -2 4 -5q0 4 4 5q-4 0 -4 4zM535 459q-2 -4 -4 -4q4 -2 4 -5q0 4 4 5q-4 0 -4 4zM415 629q-2 -4 -4 -4q3 -1 4 -4q0 2 4 4q-4 0 -4 4zM369 525q-4 0 -4 4q-2 -4 -4 -4q4 -2 4 -5q0 4 4 5zM369 535
q-4 0 -4 4q-2 -4 -4 -4q4 -2 4 -5q0 4 4 5zM405 629q-2 -4 -4 -4q3 -1 4 -4q0 2 4 4q-4 0 -4 4zM369 545q-4 0 -4 4q-2 -4 -4 -4q4 -2 4 -5q0 4 4 5zM375 559q-2 -4 -4 -4q3 -1 4 -4q0 2 4 4q-4 0 -4 4zM369 555q-4 0 -4 4q-2 -4 -4 -4q4 -2 4 -5q0 4 4 5zM385 569
q-2 -4 -4 -4q4 -2 4 -5q0 4 4 5q-4 0 -4 4zM375 569q-2 -4 -4 -4q4 -2 4 -5q0 4 4 5q-4 0 -4 4zM385 579q-2 -4 -4 -4q4 -2 4 -5q0 4 4 5q-4 0 -4 4zM375 579q-2 -4 -4 -4q3 -1 4 -4q0 2 4 4q-4 0 -4 4zM395 589q-2 -4 -4 -4q4 -2 4 -5q0 4 4 5q-4 0 -4 4zM385 589
q-2 -4 -4 -4q4 -2 4 -5q0 4 4 5q-4 0 -4 4zM405 599q-2 -4 -4 -4q3 -1 4 -4q0 2 4 4q-4 0 -4 4zM395 599q-2 -4 -4 -4q4 -2 4 -5q0 4 4 5q-4 0 -4 4zM385 599q-2 -4 -4 -4q4 -2 4 -5q0 4 4 5q-4 0 -4 4zM405 609q-2 -4 -4 -4q3 -1 4 -4q0 2 4 4q-4 0 -4 4zM395 609
q-2 -4 -4 -4q4 -2 4 -5q0 4 4 5q-4 0 -4 4zM415 619q-2 -4 -4 -4q4 -2 4 -5q0 4 4 5q-4 0 -4 4zM405 619q-2 -4 -4 -4q4 -2 4 -5q0 4 4 5q-4 0 -4 4zM429 665q-4 0 -4 4q-2 -4 -4 -4q4 -2 4 -5q0 4 4 5zM435 689q-2 -4 -4 -4q4 -2 4 -5q0 4 4 5q-4 0 -4 4zM415 639
q-2 -4 -4 -4q3 -1 4 -4q0 2 4 4q-4 0 -4 4zM415 649q-2 -4 -4 -4q4 -2 4 -5q0 4 4 5q-4 0 -4 4zM429 635q-4 0 -4 4q-2 -4 -4 -4q3 -1 4 -4q0 2 4 4zM429 645q-4 0 -4 4q-2 -4 -4 -4q4 -2 4 -5q0 4 4 5zM435 659q-2 -4 -4 -4q3 -1 4 -4q0 2 4 4q-4 0 -4 4zM429 655
q-4 0 -4 4q-2 -4 -4 -4q4 -2 4 -5q0 4 4 5zM445 669q-2 -4 -4 -4q3 -1 4 -4q0 2 4 4q-4 0 -4 4zM435 669q-2 -4 -4 -4q4 -2 4 -5q0 4 4 5q-4 0 -4 4zM155 9q-2 -4 -4 -4q4 -2 4 -5q0 4 4 5q-4 0 -4 4zM445 679q-2 -4 -4 -4q4 -2 4 -5q0 4 4 5q-4 0 -4 4zM435 679
q-2 -4 -4 -4q4 -2 4 -5q0 4 4 5q-4 0 -4 4zM455 689q-2 -4 -4 -4q4 -2 4 -5q0 4 4 5q-4 0 -4 4zM445 689q-2 -4 -4 -4q3 -1 4 -4q0 2 4 4q-4 0 -4 4zM169 15q-4 0 -4 4q-2 -4 -4 -4q4 -2 4 -5q0 4 4 5zM445 699q-2 -4 -4 -4q4 -2 4 -5q0 4 4 5q-4 0 -4 4zM175 29
q-2 -4 -4 -4q4 -2 4 -5q0 4 4 5q-4 0 -4 4z" />
    <glyph glyph-name="minus" unicode="&#x2212;" horiz-adv-x="566" 
d="M78 349h421v-119h-421v119z" />
    <glyph glyph-name="uni2007" unicode="&#x2007;" horiz-adv-x="590" 
 />
    <glyph glyph-name="uni2008" unicode="&#x2008;" horiz-adv-x="278" 
 />
    <glyph glyph-name="uni2009" unicode="&#x2009;" horiz-adv-x="125" 
 />
    <glyph glyph-name="uni200B" unicode="&#x200b;" 
 />
    <glyph glyph-name="uni2060" unicode="&#x2060;" horiz-adv-x="227" 
 />
    <glyph glyph-name="uniFEFF" unicode="&#xfeff;" 
 />
    <glyph glyph-name="Euro" unicode="&#x20ac;" horiz-adv-x="858" 
d="M57 392l33 57h54q18 58 52 108t82.5 87t111.5 57.5t139 20.5q63 0 116 -16.5t94.5 -46t70.5 -70.5t44 -89h-157q-25 38 -72 62.5t-107 24.5q-77 0 -136.5 -37.5t-88.5 -100.5h363l-31 -57h-351q-6 -27 -6 -57v-16h315l-31 -56h-275q17 -65 67 -102.5t135 -37.5
q55 0 100.5 24t77.5 63h157q-21 -49 -53 -90t-75 -70t-97.5 -45.5t-121.5 -16.5q-71 0 -129 20.5t-101 57.5t-70.5 87.5t-36.5 109.5h-100l33 56h63v3q0 18 1.5 35.5t3.5 34.5h-74z" />
    <glyph glyph-name="uniFB00" unicode="&#xfb00;" horiz-adv-x="786" 
d="M146 380h-101l25 120h102l13 64q19 93 79 142.5t153 49.5q29 0 49.5 -3t35.5 -8l-26 -121q-11 4 -24 6.5t-30 2.5q-45 0 -69 -20.5t-34 -65.5l-10 -47h110l-26 -120h-110l-80 -380h-137zM523 380h-81l26 120h81l14 64q20 93 79 142.5t152 49.5q29 0 49.5 -3t35.5 -8
l-26 -121q-11 4 -24 6.5t-29 2.5q-46 0 -70 -20.5t-34 -65.5l-10 -47h141l-26 -120h-141l-80 -380h-137z" />
    <glyph glyph-name="uniFB01" unicode="&#xfb01;" horiz-adv-x="679" 
d="M146 380h-101l25 120h102l13 64q19 93 79 142.5t153 49.5q29 0 49.5 -3t35.5 -8l-26 -121q-11 4 -24 6.5t-30 2.5q-45 0 -69 -20.5t-34 -65.5l-10 -47h141l-26 -120h-141l-80 -380h-137zM634 582q-36 0 -62 25.5t-26 61.5t26 61.5t62 25.5t61.5 -25.5t25.5 -61.5
t-25.5 -61.5t-61.5 -25.5zM528 500h137l-106 -500h-137z" />
    <glyph glyph-name="uniFB03" unicode="&#xfb03;" horiz-adv-x="1056" 
d="M1011 582q-36 0 -62 25.5t-26 61.5t26 61.5t62 25.5t61.5 -25.5t25.5 -61.5t-25.5 -61.5t-61.5 -25.5zM905 500h137l-106 -500h-137zM146 380h-101l25 120h102l13 64q19 93 79 142.5t153 49.5q29 0 49.5 -3t35.5 -8l-26 -121q-11 4 -24 6.5t-30 2.5q-45 0 -69 -20.5
t-34 -65.5l-10 -47h110l-26 -120h-110l-80 -380h-137zM523 380h-81l26 120h81l14 64q20 93 79 142.5t152 49.5q29 0 49.5 -3t35.5 -8l-26 -121q-11 4 -24 6.5t-29 2.5q-46 0 -70 -20.5t-34 -65.5l-10 -47h141l-26 -120h-141l-80 -380h-137z" />
    <glyph glyph-name="uniFB02" unicode="&#xfb02;" horiz-adv-x="679" 
d="M146 380h-101l25 120h102l13 64q19 93 79 142.5t153 49.5q29 0 49.5 -3t35.5 -8l-26 -121q-11 4 -24 6.5t-30 2.5q-45 0 -69 -20.5t-34 -65.5l-10 -47h141l-26 -120h-141l-80 -380h-137zM581 750h137l-159 -750h-137z" />
    <glyph glyph-name="uniFB04" unicode="&#xfb04;" horiz-adv-x="1056" 
d="M958 750h137l-159 -750h-137zM146 380h-101l25 120h102l13 64q19 93 79 142.5t153 49.5q29 0 49.5 -3t35.5 -8l-26 -121q-11 4 -24 6.5t-30 2.5q-45 0 -69 -20.5t-34 -65.5l-10 -47h110l-26 -120h-110l-80 -380h-137zM523 380h-81l26 120h81l14 64q20 93 79 142.5
t152 49.5q29 0 49.5 -3t35.5 -8l-26 -121q-11 4 -24 6.5t-29 2.5q-46 0 -70 -20.5t-34 -65.5l-10 -47h141l-26 -120h-141l-80 -380h-137z" />
    <glyph glyph-name="glyph526" 
d="M143 582q-36 0 -62 25.5t-26 61.5t26 61.5t62 25.5t61.5 -25.5t25.5 -61.5t-25.5 -61.5t-61.5 -25.5z" />
    <glyph glyph-name="breve" unicode="&#x2d8;" 
d="M138 558q-39 0 -71.5 15t-54 40.5t-30 60.5t0.5 76h81q-7 -29 -2.5 -50t16 -35t29 -21t37.5 -7q39 1 69 25.5t38 87.5h80q-1 -41 -14.5 -76t-38 -60.5t-60 -40.5t-80.5 -15z" />
    <glyph glyph-name="caron" unicode="&#x2c7;" 
d="M-37 656l27 100l140 -100l212 100l-31 -116l-195 -92z" />
    <glyph glyph-name="circumflex" unicode="&#x2c6;" 
d="M315 649l-28 -101l-140 100l-211 -100l31 116l195 92z" />
    <glyph glyph-name="dotaccent" unicode="&#x2d9;" 
d="M139 577q-32 0 -54 22t-22 53q0 32 22 54t54 22t53.5 -22t21.5 -54q0 -31 -21.5 -53t-53.5 -22z" />
    <glyph glyph-name="glyph531" 
d="M0 -75q-32 0 -54 22t-22 53q0 32 22 54t54 22q31 0 53 -22t22 -54q0 -31 -22 -53t-53 -22z" />
    <glyph glyph-name="glyph532" 
d="M-30 -219q-32 0 -54 22t-22 53q0 32 22 54t54 22q31 0 53 -22t22 -54q0 -31 -22 -53t-53 -22z" />
    <glyph glyph-name="hungarumlaut" unicode="&#x2dd;" 
d="M212 750h146l-159 -190h-94zM25 750h147l-159 -190h-94z" />
    <glyph glyph-name="glyph534" 
d="M-68 -306h-60l59 98q-17 10 -27 27t-10 37q0 32 22 54t54 22q31 0 53 -22t22 -54q0 -27 -18 -48z" />
    <glyph glyph-name="ogonek" unicode="&#x2db;" 
d="M-32 -219q-44 0 -71 25.5t-27 60.5q0 39 27 74.5t70 58.5h137q-53 -22 -80.5 -47t-27.5 -48q0 -14 9 -20.5t23 -6.5t29 5t24 10l-18 -85q-14 -9 -38.5 -18t-56.5 -9z" />
    <glyph glyph-name="ring" unicode="&#x2da;" 
d="M141 543q-25 0 -47 9.5t-38.5 26t-26.5 38t-10 46.5t10 46.5t26.5 38t38.5 26t47 9.5t47 -9.5t38.5 -26t26.5 -38t10 -46.5t-10 -46.5t-26.5 -38t-38.5 -26t-47 -9.5zM141 605q25 0 42 17t17 41t-17 41t-42 17t-42 -17t-17 -41t17 -41t42 -17z" />
    <glyph glyph-name="tilde" unicode="&#x2dc;" 
d="M339 710l-7 -26q-16 -57 -51 -84.5t-83 -27.5q-23 0 -41 7t-33 16t-28.5 16t-26.5 7q-20 0 -32 -12t-21 -35h-83l7 26q16 57 51 84.5t82 27.5q23 0 41.5 -7t33.5 -16t28.5 -16t26.5 -7q20 0 32 12t21 35h83z" />
    <glyph glyph-name="glyph538" 
d="M93 710h137l-99 -161h-93z" />
    <glyph glyph-name="glyph539" 
d="M138 577q-31 0 -53 22t-22 54q0 27 18 48l95 114h60l-59 -98q17 -10 27 -27t10 -37q0 -32 -22 -54t-54 -22z" />
    <glyph glyph-name="glyph540" 
d="M44 577q-31 0 -53.5 22t-22.5 53q0 32 22.5 54t53.5 22t53 -22t22 -54q0 -31 -22 -53t-53 -22zM233 577q-31 0 -53 22t-22 53q0 32 22 54t53 22q32 0 54 -22t22 -54q0 -31 -22 -53t-54 -22z" />
    <glyph glyph-name="glyph541" 
d="M-216 -11l-42 50l581 472l41 -50z" />
    <glyph glyph-name="glyph542" 
d="M-30 657h339l-19 -90h-338z" />
    <glyph glyph-name="glyph543" 
d="M-30 657h339l-19 -90h-338z" />
    <glyph glyph-name="glyph544" 
d="M-93 233l24 114l322 167l-25 -115z" />
    <glyph glyph-name="glyph545" 
d="M-124 310h380l-19 -90h-379z" />
    <glyph glyph-name="zero.zero" horiz-adv-x="628" 
d="M286 -11q-63 0 -112 22.5t-79 62.5t-40.5 95.5t3.5 121.5l35 169q12 60 36.5 108.5t60.5 82.5t84 52.5t109 18.5q63 0 112 -22.5t79 -62.5t40 -95.5t-3 -121.5l-35 -169q-12 -60 -36.5 -108.5t-60.5 -82.5t-84 -52.5t-109 -18.5zM295 124q118 0 147 137l23 111l-280 -159
q6 -43 36 -66t74 -23zM204 339l279 159q-6 43 -35.5 66t-72.5 23q-118 0 -147 -137z" />
    <glyph glyph-name="one.oldstyle" horiz-adv-x="347" 
d="M178 440h-131l126 120h171l-125 -560h-137z" />
    <glyph glyph-name="two.oldstyle" horiz-adv-x="506" 
d="M5 65q10 48 34 81.5t55.5 58.5t68.5 44t74 39q20 10 39.5 21t35 24t25 28t9.5 35q0 24 -14 38.5t-43 14.5q-31 0 -51.5 -19t-24.5 -49h-136q5 45 24.5 80.5t49.5 59.5t69 36.5t84 12.5q35 0 67.5 -11t58 -32t41 -51t15.5 -68q0 -41 -11.5 -72t-33 -56t-52 -45.5
t-68.5 -41.5q-9 -5 -26 -13t-35 -18t-33 -21t-19 -21h218l-29 -120h-407z" />
    <glyph glyph-name="three.oldstyle" horiz-adv-x="527" 
d="M237 -78q-39 0 -79.5 13t-72.5 39.5t-51 66.5t-15 95h132q0 -48 27.5 -70.5t64.5 -22.5q38 0 60.5 23t22.5 61q0 33 -22 55t-57 22h-53l24 100h42q41 0 64 22.5t23 57.5q0 31 -18 48t-49 17q-33 0 -57.5 -23t-28.5 -64h-138q4 54 27 93t56 64.5t73 38t80 12.5
q43 0 78.5 -12.5t60.5 -35t38.5 -53.5t13.5 -67q0 -57 -23.5 -97.5t-68.5 -62.5q28 -17 46 -49.5t18 -72.5q0 -38 -13.5 -74t-40.5 -63.5t-68 -44t-96 -16.5z" />
    <glyph glyph-name="four.oldstyle" horiz-adv-x="556" 
d="M270 75h-294l23 99l387 386h123l-75 -373h77l-26 -112h-78l-28 -143h-137zM297 187l31 163l-153 -163h122z" />
    <glyph glyph-name="five.oldstyle" horiz-adv-x="515" 
d="M226 -78q-40 0 -78.5 12t-70 36.5t-53 60.5t-27.5 84h141q13 -35 37 -53.5t55 -18.5q38 0 63.5 26.5t25.5 71.5q0 37 -19 65.5t-61 28.5q-26 0 -50 -14.5t-41 -50.5l-122 36l137 354h332l-28 -119h-215l-43 -112q18 8 40 12.5t43 4.5q38 0 68.5 -15.5t51.5 -41.5
t32.5 -60.5t11.5 -73.5q0 -48 -13.5 -90.5t-41.5 -74t-71.5 -50t-103.5 -18.5z" />
    <glyph glyph-name="six.oldstyle" horiz-adv-x="523" 
d="M243 -11q-52 0 -92.5 16.5t-68.5 43t-42.5 61t-14.5 70.5q0 34 5.5 61t18.5 53t34 53t52 62l194 218h173l-194 -220q34 -3 64.5 -18t53.5 -40.5t37 -59.5t14 -75q0 -47 -16.5 -88t-47 -71.5t-74 -48t-96.5 -17.5zM243 107q42 0 69 29.5t27 74.5q0 38 -22 64.5t-60 26.5
q-42 0 -69 -29.5t-27 -74.5q0 -38 22 -64.5t60 -26.5z" />
    <glyph glyph-name="seven.oldstyle" horiz-adv-x="482" 
d="M336 441h-271l28 119h436l-25 -107l-375 -521h-166z" />
    <glyph glyph-name="eight.oldstyle" horiz-adv-x="544" 
d="M488 204q0 -56 -21 -96.5t-55 -66.5t-77.5 -39t-88.5 -13q-51 0 -92 16.5t-69 43t-43 59.5t-15 67q0 54 27.5 104t90.5 78q-18 20 -28 46t-10 55q0 83 59 131t159 48q40 0 74.5 -13t59.5 -34.5t39.5 -50t15.5 -59.5q1 -45 -21.5 -83.5t-63.5 -64.5q27 -26 43 -59.5
t16 -68.5zM168 187q0 -35 22 -60t60 -25q43 0 69.5 29.5t26.5 71.5q0 35 -21.5 60t-60.5 25q-44 0 -70 -29.5t-26 -71.5zM239 449q0 -29 18 -47t47 -18q32 0 55 21.5t23 57.5q0 29 -17.5 47.5t-46.5 18.5q-33 0 -56 -22t-23 -58z" />
    <glyph glyph-name="nine.oldstyle" horiz-adv-x="523" 
d="M224 151q-34 3 -64.5 18t-54 40.5t-37 60t-13.5 75.5q0 47 16.5 88t47 71.5t73.5 48t96 17.5q52 0 93 -16.5t69 -43t42.5 -61t14.5 -70.5q0 -34 -6 -61t-19 -52.5t-34 -53t-52 -62.5l-193 -218h-173zM275 257q42 0 68.5 29.5t26.5 74.5q0 38 -21.5 64.5t-59.5 26.5
q-42 0 -69 -29.5t-27 -74.5q0 -38 22 -64.5t60 -26.5z" />
    <glyph glyph-name="zero.oldstyle" horiz-adv-x="546" 
d="M240 -9q-55 0 -96 18t-66.5 50.5t-34.5 77.5t2 99l25 127q19 96 81.5 151.5t163.5 55.5q55 0 96.5 -18.5t67 -51t34 -77.5t-2.5 -99l-26 -126q-20 -95 -82 -151t-162 -56zM250 111q42 0 66 24t35 73l29 137q5 25 1.5 44t-14 32.5t-26.5 20.5t-35 7q-43 0 -66.5 -23.5
t-34.5 -72.5l-30 -137q-5 -25 -1.5 -44.5t14 -33t26.5 -20.5t36 -7z" />
    <glyph glyph-name="zero.oldstyle.zero" horiz-adv-x="546" 
d="M240 -9q-55 0 -96 18t-66.5 50.5t-34.5 77.5t2 99l25 127q19 96 81.5 151.5t163.5 55.5q55 0 96.5 -18.5t67 -51t34 -77.5t-2.5 -99l-26 -126q-20 -95 -82 -151t-162 -56zM250 111q42 0 66 24t35 73l13 64l-189 -108q7 -26 27 -39.5t48 -13.5zM191 290l188 108
q-7 25 -27 38t-46 13q-43 0 -66.5 -23.5t-34.5 -72.5z" />
    <glyph glyph-name="one.tnum" horiz-adv-x="590" 
d="M520 128l-27 -128h-485l27 128h174l95 447h-151l129 135h188l-124 -582h174z" />
    <glyph glyph-name="two.tnum" horiz-adv-x="590" 
d="M12 72q13 61 42.5 104.5t69 76t85 57t90.5 47.5q31 17 58 33t46 34t30 38.5t11 46.5q0 35 -24 56.5t-64 21.5q-44 0 -77 -26.5t-39 -73.5h-137q6 57 29 101t58.5 73.5t81.5 45t97 15.5q42 0 80.5 -13.5t68.5 -39t48 -63t18 -84.5q0 -51 -12.5 -90t-38 -71t-64.5 -59
t-91 -54q-19 -10 -43 -22t-47 -26t-41.5 -30.5t-25.5 -34.5h287l-29 -135h-482z" />
    <glyph glyph-name="three.tnum" horiz-adv-x="590" 
d="M289 -11q-46 0 -91.5 14.5t-81.5 44.5t-57 75t-16 107h132q0 -27 9.5 -47t26 -33t37.5 -19.5t44 -6.5q51 0 82.5 28t31.5 72q0 36 -27.5 60t-72.5 24h-67l24 112h52q57 0 87 25.5t29 69.5q0 34 -25.5 53t-62.5 19q-21 0 -41.5 -7t-37.5 -20t-28.5 -31.5t-14.5 -41.5h-137
q5 60 30.5 104.5t63 73.5t83 43t91.5 14q47 0 86.5 -14t68.5 -39.5t45 -60t16 -75.5q0 -65 -29.5 -110.5t-82.5 -70.5q37 -20 59.5 -57t22.5 -82q0 -44 -15.5 -84t-46.5 -71.5t-78 -50t-109 -18.5z" />
    <glyph glyph-name="four.tnum" horiz-adv-x="590" 
d="M336 162h-353l23 111l461 437h123l-90 -422h92l-26 -126h-93l-34 -162h-137zM363 288l43 206l-217 -206h174z" />
    <glyph glyph-name="five.tnum" horiz-adv-x="590" 
d="M279 -11q-45 0 -88.5 13.5t-79.5 41t-60.5 68t-30.5 94.5h141q15 -40 47 -61t76 -21q25 0 46.5 8.5t37.5 24t25.5 37t9.5 46.5q0 20 -6 38.5t-18.5 33t-32 23.5t-46.5 9q-33 0 -65 -16t-54 -58l-122 41l164 399h365l-29 -133h-248l-53 -125q20 8 43 12t45 4
q44 0 79.5 -17.5t61 -47t39.5 -69t14 -82.5q0 -55 -15.5 -103t-47.5 -83.5t-81.5 -56t-116.5 -20.5z" />
    <glyph glyph-name="six.tnum" horiz-adv-x="590" 
d="M284 -11q-58 0 -104 18.5t-77.5 48.5t-48.5 69t-17 80q0 39 7 70.5t22 61.5t38.5 60t57.5 65l240 248h181l-239 -249q40 -2 76 -19t63 -45.5t43 -67.5t16 -85q0 -53 -18 -99.5t-51.5 -81t-81.5 -54.5t-107 -20zM284 121q26 0 47.5 9t37 25t24 37.5t8.5 46.5q0 22 -8 41
t-22.5 33.5t-34 22.5t-42.5 8q-52 0 -84.5 -34t-32.5 -85q0 -22 8.5 -41t22.5 -33t33.5 -22t42.5 -8z" />
    <glyph glyph-name="seven.tnum" horiz-adv-x="590" 
d="M441 577h-321l28 133h495l-25 -119l-445 -591h-166z" />
    <glyph glyph-name="eight.tnum" horiz-adv-x="590" 
d="M540 231q0 -63 -21.5 -108.5t-58 -75t-84 -44t-99.5 -14.5q-60 0 -105.5 18.5t-75.5 48.5t-45.5 67.5t-15.5 75.5q0 30 7 60t23 57.5t41 50t60 37.5q-22 23 -32.5 52.5t-10.5 62.5q0 47 17.5 84.5t49 64t75 40.5t95.5 14q48 0 86 -14.5t65 -39.5t41.5 -57t15.5 -67
q1 -51 -24.5 -94.5t-70.5 -73.5q35 -29 51 -67t16 -78zM175 213q0 -19 6.5 -36.5t19.5 -31t33.5 -21.5t47.5 -8q54 0 85.5 33t31.5 81q0 18 -6 35.5t-19 31.5t-33.5 22.5t-48.5 8.5q-54 -1 -85.5 -34t-31.5 -81zM256 509q0 -32 21 -53.5t63 -21.5q43 1 69.5 25.5t26.5 66.5
q0 32 -21 53t-63 21q-43 -1 -69.5 -25t-26.5 -66z" />
    <glyph glyph-name="nine.tnum" horiz-adv-x="590" 
d="M287 250q-41 2 -77 18.5t-63 45t-42.5 68t-15.5 86.5q0 53 18 99t51.5 80.5t81.5 54.5t107 20q58 0 104 -18.5t77.5 -48.5t48.5 -69t17 -80q0 -39 -6.5 -70.5t-21.5 -61.5t-39 -60t-58 -65l-241 -249h-182zM337 367q26 0 47.5 9t37 25t24 38t8.5 47q0 22 -8.5 41t-23 33
t-34 22t-42.5 8q-26 0 -47 -9t-36.5 -25t-24 -37.5t-8.5 -46.5q0 -22 8 -41t22.5 -33.5t34 -22.5t42.5 -8z" />
    <glyph glyph-name="zero.tnum" horiz-adv-x="590" 
d="M267 -11q-63 0 -112 22.5t-79 62.5t-40.5 95.5t3.5 121.5l35 169q12 60 36.5 108.5t60.5 82.5t84 52.5t109 18.5q63 0 112 -22.5t79 -62.5t40 -95.5t-3 -121.5l-35 -169q-12 -60 -36.5 -108.5t-60.5 -82.5t-84 -52.5t-109 -18.5zM276 124q118 0 147 137l38 181
q14 69 -17.5 107t-87.5 38q-118 0 -147 -137l-39 -180q-8 -35 -2.5 -62t20 -45.5t37.5 -28.5t51 -10z" />
    <glyph glyph-name="zero.tnum.zero" horiz-adv-x="590" 
d="M266 -11q-63 0 -112 22.5t-79 62.5t-40.5 95.5t3.5 121.5l35 169q12 60 36.5 108.5t60.5 82.5t84 52.5t109 18.5q63 0 112 -22.5t79 -62.5t40 -95.5t-3 -121.5l-35 -169q-12 -60 -36.5 -108.5t-60.5 -82.5t-84 -52.5t-109 -18.5zM275 124q118 0 147 137l23 111l-280 -159
q6 -43 36 -66t74 -23zM184 339l279 159q-6 43 -35.5 66t-72.5 23q-118 0 -147 -137z" />
    <glyph glyph-name="uni21B2" unicode="&#x21b2;" horiz-adv-x="833" 
d="M39 249l306 306l76 -78l-173 -173h401v406h110v-516h-511l173 -173l-76 -78z" />
    <glyph glyph-name="uni21B3" unicode="&#x21b3;" horiz-adv-x="911" 
d="M561 -57l-76 78l173 173h-511v516h110v-406h401l-173 173l76 78l306 -306z" />
    <glyph glyph-name="uni21B0" unicode="&#x21b0;" horiz-adv-x="905" 
d="M656 -194v388h-401l173 -173l-76 -78l-306 306l306 306l76 -78l-173 -173h511v-498h-110z" />
    <glyph glyph-name="uni21B1" unicode="&#x21b1;" horiz-adv-x="823" 
d="M56 304h511l-173 173l76 78l306 -306l-306 -306l-76 78l173 173h-401v-388h-110v498z" />
    <glyph glyph-name="arrowleft" unicode="&#x2190;" horiz-adv-x="821" 
d="M43 249l306 306l75 -78l-173 -173h512v-110h-512l173 -173l-75 -78z" />
    <glyph glyph-name="arrowup" unicode="&#x2191;" horiz-adv-x="699" 
d="M327 513l-173 -173l-78 76l306 306l306 -306l-78 -76l-173 173v-513h-110v513z" />
    <glyph glyph-name="arrowright" unicode="&#x2192;" horiz-adv-x="822" 
d="M393 21l173 173h-511v110h511l-173 173l76 78l306 -306l-306 -306z" />
    <glyph glyph-name="arrowdown" unicode="&#x2193;" horiz-adv-x="695" 
d="M356 -12l-306 306l78 76l173 -173v513h110v-513l172 173l79 -76z" />
    <glyph glyph-name="uni2196" unicode="&#x2196;" horiz-adv-x="800" 
d="M640 -12l-399 398v-247h-109v433h433v-110h-247l399 -397z" />
    <glyph glyph-name="uni2197" unicode="&#x2197;" horiz-adv-x="671" 
d="M8 65l399 397h-247v110h433v-433h-109v247l-399 -398z" />
    <glyph glyph-name="uni2198" unicode="&#x2198;" horiz-adv-x="790" 
d="M248 110h246l-398 397l77 77l399 -398v247h109v-433h-433v110z" />
    <glyph glyph-name="uni2199" unicode="&#x2199;" horiz-adv-x="673" 
d="M599 584l77 -77l-398 -397h246v-110h-433v433h109v-247z" />
    <glyph glyph-name="onethird" unicode="&#x2153;" horiz-adv-x="875" 
d="M172 614h-95l90 96h123l-92 -432h-97zM29 0l651 710h125l-651 -710h-125zM669 -6q-28 0 -56 8.5t-50.5 27t-36 47t-10.5 68.5h93q1 -29 20 -42t43 -13q27 0 42 14t15 35q0 17 -13 30t-38 13h-41l16 77h31q32 0 46.5 14t13.5 35q-1 17 -13 26.5t-32 9.5q-23 0 -41.5 -13.5
t-20.5 -35.5h-98q3 38 19 65.5t39.5 45t52 26t56.5 8.5q63 0 98.5 -34.5t35.5 -83.5q0 -78 -65 -109q20 -11 33.5 -33.5t13.5 -50.5q0 -26 -9.5 -50t-28.5 -43t-48 -30.5t-67 -11.5z" />
    <glyph glyph-name="uni2155" unicode="&#x2155;" horiz-adv-x="862" 
d="M172 614h-95l90 96h123l-92 -432h-97zM29 0l651 710h125l-651 -710h-125zM656 -6q-29 0 -57 8.5t-50.5 25.5t-37.5 42.5t-19 59.5h101q18 -40 64 -40q25 0 44 16.5t19 42.5q0 18 -11 34.5t-40 16.5q-22 0 -40 -11t-30 -34l-86 29l102 249h229l-20 -95h-147l-25 -59
q11 4 24 5.5t25 1.5q27 0 48.5 -10.5t36.5 -28t23 -41t8 -49.5q0 -34 -9.5 -64t-29.5 -52t-50 -34.5t-72 -12.5z" />
    <glyph glyph-name="uni2159" unicode="&#x2159;" horiz-adv-x="818" 
d="M172 614h-95l90 96h123l-92 -432h-97zM29 0l651 710h125l-651 -710h-125zM614 -6q-37 0 -65 11.5t-47.5 30t-29.5 41.5t-10 46q0 24 4 44t13.5 39t25 39.5t38.5 45.5l130 142h128l-139 -151q23 -3 44 -13t36.5 -26.5t24.5 -39t9 -49.5q0 -34 -11.5 -63.5t-32.5 -51
t-51 -33.5t-67 -12zM615 88q26 0 43 16.5t17 44.5q0 20 -15 35.5t-38 15.5q-26 0 -43 -17t-17 -44q0 -21 15 -36t38 -15z" />
    <glyph glyph-name="uni2150" unicode="&#x2150;" horiz-adv-x="899" 
d="M172 614h-95l90 96h123l-92 -432h-97zM29 0l651 710h125l-651 -710h-125zM781 338h-185l20 95h310l-19 -86l-265 -346h-118z" />
    <glyph glyph-name="oneeighth" unicode="&#x215b;" horiz-adv-x="867" 
d="M172 614h-95l90 96h123l-92 -432h-97zM29 0l651 710h125l-651 -710h-125zM649 -6q-36 0 -64 11t-47 28.5t-28.5 40.5t-9.5 47q0 17 3.5 34.5t12 34t23 30.5t37.5 24q-24 27 -24 68q0 57 40.5 92.5t112.5 35.5q28 0 52 -8.5t41 -23.5t27 -35t11 -42q1 -31 -14 -58t-44 -47
q36 -35 36 -83q0 -40 -14 -68t-37 -46t-52.5 -26.5t-61.5 -8.5zM653 84q30 0 45 17t15 42q0 20 -14 33.5t-39 13.5q-30 0 -45 -16.5t-15 -42.5q0 -20 14 -33.5t39 -13.5zM690 266q23 0 37.5 13.5t14.5 36.5q0 17 -11.5 27.5t-31.5 10.5q-23 0 -38 -13.5t-15 -36.5
q0 -17 12 -27.5t32 -10.5z" />
    <glyph glyph-name="uni2151" unicode="&#x2151;" horiz-adv-x="868" 
d="M172 614h-95l90 96h123l-92 -432h-97zM29 0l651 710h125l-651 -710h-125zM651 152q-46 5 -79 39t-33 90q0 34 11 63t32 50.5t51 33.5t68 12q37 0 65 -11.5t47.5 -29.5t29.5 -41t10 -47t-4 -44t-13.5 -39t-25 -39.5t-38.5 -45.5l-131 -142h-128zM693 234q26 0 43 17t17 44
q0 21 -14.5 36t-38.5 15q-26 0 -43 -16.5t-17 -44.5q0 -20 15 -35.5t38 -15.5z" />
    <glyph glyph-name="uni2152" unicode="&#x2152;" horiz-adv-x="1143" 
d="M172 614h-95l90 96h123l-92 -432h-97zM29 0l651 710h125l-651 -710h-125zM629 337h-95l90 96h123l-92 -432h-97zM913 -6q-40 0 -70.5 14t-49.5 39.5t-25 60.5t2 77l19 96q14 73 59.5 116t119.5 43q40 0 70.5 -14t49.5 -39.5t25 -60.5t-2 -77l-19 -96q-14 -73 -59.5 -116
t-119.5 -43zM918 90q34 0 52 17.5t26 54.5l23 104q8 37 -9.5 57.5t-46.5 20.5q-33 0 -51.5 -17.5t-26.5 -53.5l-22 -105q-8 -37 9 -57.5t46 -20.5z" />
    <glyph glyph-name="twothirds" unicode="&#x2154;" horiz-adv-x="973" 
d="M43 330q7 36 24.5 62t41 45.5t51 34.5t54.5 29q15 8 30 16.5t26.5 17.5t18.5 20.5t7 25.5q0 18 -11 29t-33 11q-24 0 -40 -14t-19 -35h-97q8 70 54 107.5t112 37.5q26 0 50 -8.5t42.5 -24.5t29.5 -39.5t11 -53.5q0 -32 -8 -56t-23.5 -43t-38 -35t-52.5 -31
q-8 -4 -19.5 -10t-23.5 -13t-22 -14.5t-14 -14.5h157l-20 -96h-299zM127 0l651 710h125l-651 -710h-125zM767 -6q-28 0 -56 8.5t-50.5 27t-36 47t-10.5 68.5h93q1 -29 20 -42t43 -13q27 0 42 14t15 35q0 17 -13 30t-38 13h-41l16 77h31q32 0 46.5 14t13.5 35q-1 17 -13 26.5
t-32 9.5q-23 0 -41.5 -13.5t-20.5 -35.5h-98q3 38 19 65.5t39.5 45t52 26t56.5 8.5q63 0 98.5 -34.5t35.5 -83.5q0 -78 -65 -109q20 -11 33.5 -33.5t13.5 -50.5q0 -26 -9.5 -50t-28.5 -43t-48 -30.5t-67 -11.5z" />
    <glyph glyph-name="uni2156" unicode="&#x2156;" horiz-adv-x="960" 
d="M43 330q7 36 24.5 62t41 45.5t51 34.5t54.5 29q15 8 30 16.5t26.5 17.5t18.5 20.5t7 25.5q0 18 -11 29t-33 11q-24 0 -40 -14t-19 -35h-97q8 70 54 107.5t112 37.5q26 0 50 -8.5t42.5 -24.5t29.5 -39.5t11 -53.5q0 -32 -8 -56t-23.5 -43t-38 -35t-52.5 -31
q-8 -4 -19.5 -10t-23.5 -13t-22 -14.5t-14 -14.5h157l-20 -96h-299zM127 0l651 710h125l-651 -710h-125zM754 -6q-29 0 -57 8.5t-50.5 25.5t-37.5 42.5t-19 59.5h101q18 -40 64 -40q25 0 44 16.5t19 42.5q0 18 -11 34.5t-40 16.5q-22 0 -40 -11t-30 -34l-86 29l102 249h229
l-20 -95h-147l-25 -59q11 4 24 5.5t25 1.5q27 0 48.5 -10.5t36.5 -28t23 -41t8 -49.5q0 -34 -9.5 -64t-29.5 -52t-50 -34.5t-72 -12.5z" />
    <glyph glyph-name="uni2157" unicode="&#x2157;" horiz-adv-x="934" 
d="M217 271q-28 0 -56 8.5t-50.5 27t-36 47t-10.5 68.5h93q1 -29 20 -42t43 -13q27 0 42 14t15 35q0 17 -13 30t-38 13h-41l16 77h31q32 0 46.5 14t13.5 35q-1 17 -13 26.5t-32 9.5q-23 0 -41.5 -13.5t-20.5 -35.5h-98q3 38 19 65.5t39.5 45t52 26t56.5 8.5q63 0 98.5 -34.5
t35.5 -83.5q0 -78 -65 -109q20 -11 33.5 -33.5t13.5 -50.5q0 -26 -9.5 -50t-28.5 -43t-48 -30.5t-67 -11.5zM100 0l651 710h125l-651 -710h-125zM727 -6q-29 0 -57 8.5t-50.5 25.5t-37.5 42.5t-19 59.5h101q18 -40 64 -40q25 0 44 16.5t19 42.5q0 18 -11 34.5t-40 16.5
q-22 0 -40 -11t-30 -34l-86 29l102 249h229l-20 -95h-147l-25 -59q11 4 24 5.5t25 1.5q27 0 48.5 -10.5t36.5 -28t23 -41t8 -49.5q0 -34 -9.5 -64t-29.5 -52t-50 -34.5t-72 -12.5z" />
    <glyph glyph-name="threeeighths" unicode="&#x215c;" horiz-adv-x="938" 
d="M217 271q-28 0 -56 8.5t-50.5 27t-36 47t-10.5 68.5h93q1 -29 20 -42t43 -13q27 0 42 14t15 35q0 17 -13 30t-38 13h-41l16 77h31q32 0 46.5 14t13.5 35q-1 17 -13 26.5t-32 9.5q-23 0 -41.5 -13.5t-20.5 -35.5h-98q3 38 19 65.5t39.5 45t52 26t56.5 8.5q63 0 98.5 -34.5
t35.5 -83.5q0 -78 -65 -109q20 -11 33.5 -33.5t13.5 -50.5q0 -26 -9.5 -50t-28.5 -43t-48 -30.5t-67 -11.5zM100 0l651 710h125l-651 -710h-125zM721 -6q-36 0 -64 11t-47 28.5t-28.5 40.5t-9.5 47q0 17 3.5 34.5t12 34t23 30.5t37.5 24q-24 27 -24 68q0 57 40.5 92.5
t112.5 35.5q28 0 52 -8.5t41 -23.5t27 -35t11 -42q1 -31 -14 -58t-44 -47q36 -35 36 -83q0 -40 -14 -68t-37 -46t-52.5 -26.5t-61.5 -8.5zM725 84q30 0 45 17t15 42q0 20 -14 33.5t-39 13.5q-30 0 -45 -16.5t-15 -42.5q0 -20 14 -33.5t39 -13.5zM762 266q23 0 37.5 13.5
t14.5 36.5q0 17 -11.5 27.5t-31.5 10.5q-23 0 -38 -13.5t-15 -36.5q0 -17 12 -27.5t32 -10.5z" />
    <glyph glyph-name="uni2158" unicode="&#x2158;" horiz-adv-x="956" 
d="M245 368h-208l17 79l273 263h88l-54 -253h55l-19 -89h-55l-19 -90h-97zM263 457l21 99l-104 -99h83zM123 0l651 710h125l-651 -710h-125zM750 -6q-29 0 -57 8.5t-50.5 25.5t-37.5 42.5t-19 59.5h101q18 -40 64 -40q25 0 44 16.5t19 42.5q0 18 -11 34.5t-40 16.5
q-22 0 -40 -11t-30 -34l-86 29l102 249h229l-20 -95h-147l-25 -59q11 4 24 5.5t25 1.5q27 0 48.5 -10.5t36.5 -28t23 -41t8 -49.5q0 -34 -9.5 -64t-29.5 -52t-50 -34.5t-72 -12.5z" />
    <glyph glyph-name="uni215A" unicode="&#x215a;" horiz-adv-x="888" 
d="M212 271q-29 0 -57 8.5t-50.5 25.5t-37.5 42.5t-19 59.5h101q18 -40 64 -40q25 0 44 16.5t19 42.5q0 18 -11 34.5t-40 16.5q-22 0 -40 -11t-30 -34l-86 29l102 249h229l-20 -95h-147l-25 -59q11 4 24 5.5t25 1.5q27 0 48.5 -10.5t36.5 -28t23 -41t8 -49.5q0 -34 -9.5 -64
t-29.5 -52t-50 -34.5t-72 -12.5zM98 0l651 710h125l-651 -710h-125zM684 -6q-37 0 -65 11.5t-47.5 30t-29.5 41.5t-10 46q0 24 4 44t13.5 39t25 39.5t38.5 45.5l130 142h128l-139 -151q23 -3 44 -13t36.5 -26.5t24.5 -39t9 -49.5q0 -34 -11.5 -63.5t-32.5 -51t-51 -33.5
t-67 -12zM685 88q26 0 43 16.5t17 44.5q0 20 -15 35.5t-38 15.5q-26 0 -43 -17t-17 -44q0 -21 15 -36t38 -15z" />
    <glyph glyph-name="fiveeighths" unicode="&#x215d;" horiz-adv-x="936" 
d="M212 271q-29 0 -57 8.5t-50.5 25.5t-37.5 42.5t-19 59.5h101q18 -40 64 -40q25 0 44 16.5t19 42.5q0 18 -11 34.5t-40 16.5q-22 0 -40 -11t-30 -34l-86 29l102 249h229l-20 -95h-147l-25 -59q11 4 24 5.5t25 1.5q27 0 48.5 -10.5t36.5 -28t23 -41t8 -49.5q0 -34 -9.5 -64
t-29.5 -52t-50 -34.5t-72 -12.5zM98 0l651 710h125l-651 -710h-125zM719 -6q-36 0 -64 11t-47 28.5t-28.5 40.5t-9.5 47q0 17 3.5 34.5t12 34t23 30.5t37.5 24q-24 27 -24 68q0 57 40.5 92.5t112.5 35.5q28 0 52 -8.5t41 -23.5t27 -35t11 -42q1 -31 -14 -58t-44 -47
q36 -35 36 -83q0 -40 -14 -68t-37 -46t-52.5 -26.5t-61.5 -8.5zM723 84q30 0 45 17t15 42q0 20 -14 33.5t-39 13.5q-30 0 -45 -16.5t-15 -42.5q0 -20 14 -33.5t39 -13.5zM760 266q23 0 37.5 13.5t14.5 36.5q0 17 -11.5 27.5t-31.5 10.5q-23 0 -38 -13.5t-15 -36.5
q0 -17 12 -27.5t32 -10.5z" />
    <glyph glyph-name="seveneighths" unicode="&#x215e;" horiz-adv-x="858" 
d="M286 615h-185l20 95h310l-19 -86l-265 -346h-118zM20 0l651 710h125l-651 -710h-125zM641 -6q-36 0 -64 11t-47 28.5t-28.5 40.5t-9.5 47q0 17 3.5 34.5t12 34t23 30.5t37.5 24q-24 27 -24 68q0 57 40.5 92.5t112.5 35.5q28 0 52 -8.5t41 -23.5t27 -35t11 -42
q1 -31 -14 -58t-44 -47q36 -35 36 -83q0 -40 -14 -68t-37 -46t-52.5 -26.5t-61.5 -8.5zM645 84q30 0 45 17t15 42q0 20 -14 33.5t-39 13.5q-30 0 -45 -16.5t-15 -42.5q0 -20 14 -33.5t39 -13.5zM682 266q23 0 37.5 13.5t14.5 36.5q0 17 -11.5 27.5t-31.5 10.5
q-23 0 -38 -13.5t-15 -36.5q0 -17 12 -27.5t32 -10.5z" />
    <glyph glyph-name="uni215F" unicode="&#x215f;" horiz-adv-x="485" 
d="M172 614h-95l90 96h123l-92 -432h-97zM29 0l651 710h125l-651 -710h-125z" />
    <glyph glyph-name="fraction" unicode="&#x2044;" horiz-adv-x="180" 
d="M-276 0l651 710h125l-651 -710h-125z" />
    <glyph glyph-name="uni2074" unicode="&#x2074;" horiz-adv-x="393" 
d="M273 500h-208l17 79l273 263h88l-54 -253h55l-19 -89h-55l-19 -90h-97zM291 589l21 99l-104 -99h83z" />
    <glyph glyph-name="uni2075" unicode="&#x2075;" horiz-adv-x="359" 
d="M240 403q-29 0 -57 8.5t-50.5 25.5t-37.5 42.5t-19 59.5h101q18 -40 64 -40q25 0 44 16.5t19 42.5q0 18 -11 34.5t-40 16.5q-22 0 -40 -11t-30 -34l-86 29l102 249h229l-20 -95h-147l-25 -59q11 4 24 5.5t25 1.5q27 0 48.5 -10.5t36.5 -28t23 -41t8 -49.5q0 -34 -9.5 -64
t-29.5 -52t-50 -34.5t-72 -12.5z" />
    <glyph glyph-name="uni2076" unicode="&#x2076;" horiz-adv-x="353" 
d="M236 403q-37 0 -65 11.5t-47.5 30t-29.5 41.5t-10 46q0 24 4 44t13.5 39t25 39.5t38.5 45.5l130 142h128l-139 -151q23 -3 44 -13t36.5 -26.5t24.5 -39t9 -49.5q0 -34 -11.5 -63.5t-32.5 -51t-51 -33.5t-67 -12zM237 497q26 0 43 16.5t17 44.5q0 20 -15 35.5t-38 15.5
q-26 0 -43 -17t-17 -44q0 -21 15 -36t38 -15z" />
    <glyph glyph-name="uni2077" unicode="&#x2077;" horiz-adv-x="346" 
d="M314 747h-185l20 95h310l-19 -86l-265 -346h-118z" />
    <glyph glyph-name="uni2078" unicode="&#x2078;" horiz-adv-x="365" 
d="M235 403q-36 0 -64 11t-47 28.5t-28.5 40.5t-9.5 47q0 17 3.5 34.5t12 34t23 30.5t37.5 24q-24 27 -24 68q0 57 40.5 92.5t112.5 35.5q28 0 52 -8.5t41 -23.5t27 -35t11 -42q1 -31 -14 -58t-44 -47q36 -35 36 -83q0 -40 -14 -68t-37 -46t-52.5 -26.5t-61.5 -8.5zM239 493
q30 0 45 17t15 42q0 20 -14 33.5t-39 13.5q-30 0 -45 -16.5t-15 -42.5q0 -20 14 -33.5t39 -13.5zM276 675q23 0 37.5 13.5t14.5 36.5q0 17 -11.5 27.5t-31.5 10.5q-23 0 -38 -13.5t-15 -36.5q0 -17 12 -27.5t32 -10.5z" />
    <glyph glyph-name="uni2079" unicode="&#x2079;" horiz-adv-x="353" 
d="M223 561q-46 5 -79 39t-33 90q0 34 11 63t32 50.5t51 33.5t68 12q37 0 65 -11.5t47.5 -29.5t29.5 -41t10 -47t-4 -44t-13.5 -39t-25 -39.5t-38.5 -45.5l-131 -142h-128zM265 643q26 0 43 17t17 44q0 21 -14.5 36t-38.5 15q-26 0 -43 -16.5t-17 -44.5q0 -20 15 -35.5
t38 -15.5z" />
    <glyph glyph-name="uni2070" unicode="&#x2070;" horiz-adv-x="387" 
d="M244 403q-40 0 -70.5 14t-49.5 39.5t-25 60.5t2 77l19 96q14 73 59.5 116t119.5 43q40 0 70.5 -14t49.5 -39.5t25 -60.5t-2 -77l-19 -96q-14 -73 -59.5 -116t-119.5 -43zM249 499q34 0 52 17.5t26 54.5l23 104q8 37 -9.5 57.5t-46.5 20.5q-33 0 -51.5 -17.5t-26.5 -53.5
l-22 -105q-8 -37 9 -57.5t46 -20.5z" />
    <glyph glyph-name="uni2070.aalt" horiz-adv-x="387" 
d="M244 403q-40 0 -70.5 14t-49.5 39.5t-25 60.5t2 77l19 96q14 73 59.5 116t119.5 43q40 0 70.5 -14t49.5 -39.5t25 -60.5t-2 -77l-19 -96q-14 -73 -59.5 -116t-119.5 -43zM249 499q34 0 52 17.5t26 54.5l11 51l-146 -73q2 -24 18 -37t39 -13zM205 631l146 73q-3 23 -19 36
t-38 13q-33 0 -51.5 -17.5t-26.5 -53.5z" />
    <glyph glyph-name="uni2081" unicode="&#x2081;" horiz-adv-x="240" 
d="M89 222h-95l90 96h123l-92 -432h-97z" />
    <glyph glyph-name="uni2082" unicode="&#x2082;" horiz-adv-x="357" 
d="M-40 -62q7 36 24.5 62t41 45.5t51 34.5t54.5 29q15 8 30 16.5t26.5 17.5t18.5 20.5t7 25.5q0 18 -11 29t-33 11q-24 0 -40 -14t-19 -35h-97q8 70 54 107.5t112 37.5q26 0 50 -8.5t42.5 -24.5t29.5 -39.5t11 -53.5q0 -32 -8 -56t-23.5 -43t-38 -35t-52.5 -31
q-8 -4 -19.5 -10t-23.5 -13t-22 -14.5t-14 -14.5h157l-20 -96h-299z" />
    <glyph glyph-name="uni2083" unicode="&#x2083;" horiz-adv-x="364" 
d="M134 -121q-28 0 -56 8.5t-50.5 27t-36 47t-10.5 68.5h93q1 -29 20 -42t43 -13q27 0 42 14t15 35q0 17 -13 30t-38 13h-41l16 77h31q32 0 46.5 14t13.5 35q-1 17 -13 26.5t-32 9.5q-23 0 -41.5 -13.5t-20.5 -35.5h-98q3 38 19 65.5t39.5 45t52 26t56.5 8.5
q63 0 98.5 -34.5t35.5 -83.5q0 -78 -65 -109q20 -11 33.5 -33.5t13.5 -50.5q0 -26 -9.5 -50t-28.5 -43t-48 -30.5t-67 -11.5z" />
    <glyph glyph-name="uni2084" unicode="&#x2084;" horiz-adv-x="393" 
d="M163 -24h-208l17 79l273 263h88l-54 -253h55l-19 -89h-55l-19 -90h-97zM181 65l21 99l-104 -99h83z" />
    <glyph glyph-name="uni2085" unicode="&#x2085;" horiz-adv-x="359" 
d="M130 -121q-29 0 -57 8.5t-50.5 25.5t-37.5 42.5t-19 59.5h101q18 -40 64 -40q25 0 44 16.5t19 42.5q0 18 -11 34.5t-40 16.5q-22 0 -40 -11t-30 -34l-86 29l102 249h229l-20 -95h-147l-25 -59q11 4 24 5.5t25 1.5q27 0 48.5 -10.5t36.5 -28t23 -41t8 -49.5
q0 -34 -9.5 -64t-29.5 -52t-50 -34.5t-72 -12.5z" />
    <glyph glyph-name="uni2086" unicode="&#x2086;" horiz-adv-x="353" 
d="M125 -121q-37 0 -65 11.5t-47.5 30t-29.5 41.5t-10 46q0 24 4 44t13.5 39t25 39.5t38.5 45.5l130 142h128l-139 -151q23 -3 44 -13t36.5 -26.5t24.5 -39t9 -49.5q0 -34 -11.5 -63.5t-32.5 -51t-51 -33.5t-67 -12zM126 -27q26 0 43 16.5t17 44.5q0 20 -15 35.5t-38 15.5
q-26 0 -43 -17t-17 -44q0 -21 15 -36t38 -15z" />
    <glyph glyph-name="uni2087" unicode="&#x2087;" horiz-adv-x="346" 
d="M203 223h-185l20 95h310l-19 -86l-265 -346h-118z" />
    <glyph glyph-name="uni2088" unicode="&#x2088;" horiz-adv-x="365" 
d="M124 -121q-36 0 -64 11t-47 28.5t-28.5 40.5t-9.5 47q0 17 3.5 34.5t12 34t23 30.5t37.5 24q-24 27 -24 68q0 57 40.5 92.5t112.5 35.5q28 0 52 -8.5t41 -23.5t27 -35t11 -42q1 -31 -14 -58t-44 -47q36 -35 36 -83q0 -40 -14 -68t-37 -46t-52.5 -26.5t-61.5 -8.5z
M128 -31q30 0 45 17t15 42q0 20 -14 33.5t-39 13.5q-30 0 -45 -16.5t-15 -42.5q0 -20 14 -33.5t39 -13.5zM165 151q23 0 37.5 13.5t14.5 36.5q0 17 -11.5 27.5t-31.5 10.5q-23 0 -38 -13.5t-15 -36.5q0 -17 12 -27.5t32 -10.5z" />
    <glyph glyph-name="uni2089" unicode="&#x2089;" horiz-adv-x="353" 
d="M113 37q-46 5 -79 39t-33 90q0 34 11 63t32 50.5t51 33.5t68 12q37 0 65 -11.5t47.5 -29.5t29.5 -41t10 -47t-4 -44t-13.5 -39t-25 -39.5t-38.5 -45.5l-131 -142h-128zM155 119q26 0 43 17t17 44q0 21 -14.5 36t-38.5 15q-26 0 -43 -16.5t-17 -44.5q0 -20 15 -35.5
t38 -15.5z" />
    </font>
</defs>
</svg>
