<?xml version="1.0" standalone="no"?>
<!DOCTYPE svg PUBLIC "-//W3C//DTD SVG 1.1//EN" "http://www.w3.org/Graphics/SVG/1.1/DTD/svg11.dtd" >
<svg xmlns="http://www.w3.org/2000/svg" xmlns:xlink="http://www.w3.org/1999/xlink" version="1.1">
<metadata>
Created by Christoph Koeberlin (http://christoph.koe.berlin)
Copyright (c) 2018 Swiss Typefaces Sarl. All rights reserved.
</metadata>
<defs>
<font id="Font" horiz-adv-x="0" >
  <font-face 
    font-family="Font"
    font-weight="300"
    font-style="italic"
    font-stretch="normal"
    units-per-em="1000"
    panose-1="2 11 3 4 0 0 0 0 0 0"
    ascent="800"
    descent="-200"
    x-height="500"
    cap-height="710"
    bbox="-328 -258 1453 993"
    underline-thickness="50"
    underline-position="-165"
    slope="-12"
    unicode-range="U+0020-FEFF"
  />
<missing-glyph horiz-adv-x="682" 
d="M242 710h500l-151 -710h-500zM255 682l-139 -654l289 327zM578 28l139 654l-291 -327zM271 691l147 -321l285 321h-432zM130 19h432l-147 320z" />
    <glyph glyph-name="f_f.liga" unicode="ff" horiz-adv-x="698" 
d="M160 434h-107l14 66h107l23 108q17 78 63.5 113t110.5 35q40 0 71 -13l-13 -63q-11 5 -27.5 8t-34.5 3q-43 0 -68 -25.5t-34 -67.5l-21 -98h131l-14 -66h-131l-92 -434h-70zM509 434h-90l14 66h90l23 108q17 78 63.5 113t110.5 35q40 0 71 -13l-13 -63q-11 5 -27.5 8
t-34.5 3q-43 0 -68 -25.5t-34 -67.5l-21 -98h146l-14 -66h-146l-92 -434h-70z" />
    <glyph glyph-name="f_i.liga" unicode="fi" horiz-adv-x="593" 
d="M160 434h-107l14 66h107l23 108q17 78 63.5 113t110.5 35q40 0 71 -13l-13 -63q-11 5 -27.5 8t-34.5 3q-43 0 -68 -25.5t-34 -67.5l-21 -98h146l-14 -66h-146l-92 -434h-70zM569 650q-23 0 -38.5 15.5t-15.5 37.5t15.5 37.5t38.5 15.5q22 0 37 -15.5t15 -37.5t-15 -37.5
t-37 -15.5zM489 500h70l-106 -500h-70z" />
    <glyph glyph-name="f_f_i.liga" unicode="ffi" horiz-adv-x="942" 
d="M918 650q-23 0 -38.5 15.5t-15.5 37.5t15.5 37.5t38.5 15.5q22 0 37 -15.5t15 -37.5t-15 -37.5t-37 -15.5zM838 500h70l-106 -500h-70zM160 434h-107l14 66h107l23 108q17 78 63.5 113t110.5 35q40 0 71 -13l-13 -63q-11 5 -27.5 8t-34.5 3q-43 0 -68 -25.5t-34 -67.5
l-21 -98h131l-14 -66h-131l-92 -434h-70zM509 434h-90l14 66h90l23 108q17 78 63.5 113t110.5 35q40 0 71 -13l-13 -63q-11 5 -27.5 8t-34.5 3q-43 0 -68 -25.5t-34 -67.5l-21 -98h146l-14 -66h-146l-92 -434h-70z" />
    <glyph glyph-name="f_l.liga" unicode="fl" horiz-adv-x="593" 
d="M160 434h-107l14 66h107l23 108q17 78 63.5 113t110.5 35q40 0 71 -13l-13 -63q-11 5 -27.5 8t-34.5 3q-43 0 -68 -25.5t-34 -67.5l-21 -98h146l-14 -66h-146l-92 -434h-70zM542 750h70l-159 -750h-70z" />
    <glyph glyph-name="f_f_l.liga" unicode="ffl" horiz-adv-x="942" 
d="M891 750h70l-159 -750h-70zM160 434h-107l14 66h107l23 108q17 78 63.5 113t110.5 35q40 0 71 -13l-13 -63q-11 5 -27.5 8t-34.5 3q-43 0 -68 -25.5t-34 -67.5l-21 -98h131l-14 -66h-131l-92 -434h-70zM509 434h-90l14 66h90l23 108q17 78 63.5 113t110.5 35q40 0 71 -13
l-13 -63q-11 5 -27.5 8t-34.5 3q-43 0 -68 -25.5t-34 -67.5l-21 -98h146l-14 -66h-146l-92 -434h-70z" />
    <glyph glyph-name="f_t.liga" unicode="ft" horiz-adv-x="709" 
d="M160 434h-107l14 66h107l23 108q17 78 63.5 113t110.5 35q40 0 71 -13l-13 -63q-11 5 -27.5 8t-34.5 3q-43 0 -68 -25.5t-34 -67.5l-21 -98h129l-14 -66h-129l-92 -434h-70zM582 -5q-34 0 -62.5 9.5t-47.5 29t-26 50.5t2 75l59 275h-90l14 66h90l30 139h70l-30 -139h146
l-14 -66h-146l-59 -281q-6 -28 -2.5 -46.5t14.5 -29t28 -15t37 -4.5q14 0 27.5 2t22.5 4l-12 -63q-24 -6 -51 -6z" />
    <glyph glyph-name="t_t.liga" unicode="tt" horiz-adv-x="702" 
d="M233 -5q-34 0 -62.5 9.5t-47.5 29t-26 50.5t2 75l59 275h-107l14 66h107l30 139h70l-30 -139h127l-14 -66h-127l-59 -281q-6 -28 -2 -46.5t14.5 -29t27.5 -15t37 -4.5q14 0 27.5 2t22.5 4l-12 -63q-24 -6 -51 -6zM575 -5q-34 0 -62.5 9.5t-47.5 29t-26 50.5t2 75l59 275
h-87l14 66h87l30 139h70l-30 -139h146l-14 -66h-146l-59 -281q-6 -28 -2 -46.5t14.5 -29t27.5 -15t37 -4.5q14 0 27.5 2t22.5 4l-12 -63q-24 -6 -51 -6z" />
    <glyph glyph-name="uni0407_uni0407.liga" unicode="&#x407;&#x407;" horiz-adv-x="550" 
d="M192 710h76l-151 -710h-76zM466 710h76l-151 -710h-76zM146 789q-23 0 -38.5 15.5t-15.5 37.5t15.5 37.5t38.5 15.5q22 0 37 -15.5t15 -37.5t-15 -37.5t-37 -15.5zM396 789q-23 0 -38.5 15.5t-15.5 37.5t15.5 37.5t38.5 15.5q22 0 37 -15.5t15 -37.5t-15 -37.5t-37 -15.5
zM646 789q-23 0 -38.5 15.5t-15.5 37.5t15.5 37.5t38.5 15.5q22 0 37 -15.5t15 -37.5t-15 -37.5t-37 -15.5z" />
    <glyph glyph-name="uni0457_uni0458.liga" unicode="&#x457;&#x458;" horiz-adv-x="485" 
d="M34 0l106 500h70l-106 -500h-70zM127 602q-23 0 -39.5 16.5t-16.5 39.5t16.5 39t39.5 16t39.5 -16t16.5 -39t-16.5 -39.5t-39.5 -16.5zM327 602q-23 0 -39.5 16.5t-16.5 39.5t16.5 39t39.5 16t39.5 -16t16.5 -39t-16.5 -39.5t-39.5 -16.5zM527 602q-23 0 -39.5 16.5
t-16.5 39.5t16.5 39t39.5 16t39.5 -16t16.5 -39t-16.5 -39.5t-39.5 -16.5zM178 -219q-32 0 -54 8l13 64q8 -2 18.5 -4t24.5 -2q30 0 50 17t29 60l122 576h70l-125 -589q-14 -68 -49 -99t-99 -31z" />
    <glyph glyph-name="uni0457_uni0457.liga" unicode="&#x457;&#x457;" horiz-adv-x="485" 
d="M140 500h70l-106 -500h-70zM127 602q-23 0 -39.5 16.5t-16.5 39.5t16.5 39t39.5 16t39.5 -16t16.5 -39t-16.5 -39.5t-39.5 -16.5zM327 602q-23 0 -39.5 16.5t-16.5 39.5t16.5 39t39.5 16t39.5 -16t16.5 -39t-16.5 -39.5t-39.5 -16.5zM381 500h70l-106 -500h-70zM527 602
q-23 0 -39.5 16.5t-16.5 39.5t16.5 39t39.5 16t39.5 -16t16.5 -39t-16.5 -39.5t-39.5 -16.5z" />
    <glyph glyph-name=".notdef" horiz-adv-x="682" 
d="M242 710h500l-151 -710h-500zM255 682l-139 -654l289 327zM578 28l139 654l-291 -327zM271 691l147 -321l285 321h-432zM130 19h432l-147 320z" />
    <glyph glyph-name="glyph1" 
 />
    <glyph glyph-name="glyph2" horiz-adv-x="245" 
 />
    <glyph glyph-name="space" unicode=" " horiz-adv-x="245" 
 />
    <glyph glyph-name="exclam" unicode="!" horiz-adv-x="267" 
d="M131 420l62 290h70l-62 -290l-57 -208h-44zM89 -8q-28 0 -47 20t-19 47t19 47t47 20t47 -20t19 -47t-19 -47t-47 -20z" />
    <glyph glyph-name="quotedbl" unicode="&#x22;" horiz-adv-x="404" 
d="M161 710h66l-50 -235h-66zM363 710h66l-50 -235h-66z" />
    <glyph glyph-name="numbersign" unicode="#" horiz-adv-x="708" 
d="M422 205h-193l-63 -205h-68l64 205h-124v63h143l58 183h-128v63h148l61 196h67l-61 -196h192l62 196h66l-61 -196h125v-63h-144l-58 -183h130v-63h-150l-63 -205h-67zM249 268h192l58 183h-192z" />
    <glyph glyph-name="dollar" unicode="$" horiz-adv-x="525" 
d="M183 -2q-32 9 -60.5 26.5t-49.5 43t-32.5 58t-8.5 71.5h71q-1 -51 26.5 -84.5t67.5 -47.5l58 272q-71 38 -105.5 83t-34.5 116q0 41 15 75.5t43 59t68.5 38t90.5 13.5h5l16 76h54l-18 -84q29 -8 54 -23t43.5 -36.5t28.5 -48.5t10 -59h-72q-2 34 -22.5 60.5t-55.5 38.5
l-55 -258l9 -4q59 -31 94 -77.5t35 -120.5q0 -43 -14.5 -79t-42 -62t-68 -40.5t-91.5 -14.5h-7l-16 -78h-54zM388 184q0 45 -21 73.5t-64 52.5l-54 -253h1q60 0 99 33.5t39 93.5zM185 538q0 -47 22 -74t64 -50l51 241q-30 0 -55 -9.5t-43.5 -25.5t-28.5 -37t-10 -45z" />
    <glyph glyph-name="percent" unicode="%" horiz-adv-x="1081" 
d="M217 0l601 710h85l-601 -710h-85zM832 -8q-41 0 -77 15.5t-62.5 42.5t-42 62.5t-15.5 76.5t15.5 77t42 62.5t62.5 42t77 15.5q40 0 76 -15.5t63 -42t42.5 -62.5t15.5 -77t-15.5 -76.5t-42.5 -62.5t-63 -42.5t-76 -15.5zM832 58q27 0 50.5 10.5t41.5 28.5t28 41.5t10 50.5
t-10 50.5t-28 41.5t-41.5 28.5t-50.5 10.5t-50.5 -10.5t-41.5 -28.5t-28 -41.5t-10 -50.5t10 -50.5t28 -41.5t41.5 -28.5t50.5 -10.5zM288 324q-41 0 -77 15.5t-62.5 42.5t-42 62.5t-15.5 76.5t15.5 77t42 62.5t62.5 42t77 15.5q40 0 76 -15.5t63 -42t42.5 -62.5t15.5 -77
t-15.5 -76.5t-42.5 -62.5t-63 -42.5t-76 -15.5zM288 390q27 0 50.5 10.5t41.5 28.5t28 41.5t10 50.5t-10 50.5t-28 41.5t-41.5 28.5t-50.5 10.5t-50.5 -10.5t-41.5 -28.5t-28 -41.5t-10 -50.5t10 -50.5t28 -41.5t41.5 -28.5t50.5 -10.5z" />
    <glyph glyph-name="ampersand" unicode="&#x26;" horiz-adv-x="707" 
d="M232 -10q-37 0 -69.5 13t-56.5 36t-38 55t-14 70q0 41 13 74.5t36.5 61.5t56.5 51t72 44l17 9q-23 29 -44 65.5t-21 78.5q0 34 13 65.5t38 55.5t60.5 38.5t80.5 14.5q36 0 65 -12t49.5 -31.5t31.5 -45t11 -52.5q0 -39 -17.5 -68t-44.5 -51.5t-59.5 -41t-62.5 -34.5
l130 -161l106 117h85l-150 -167l142 -175h-84l-103 126q-31 -35 -58.5 -60.5t-56 -42t-59.5 -25t-69 -8.5zM242 55q28 0 51.5 8t46 23.5t45.5 38t50 51.5l-146 179l-32 -17q-67 -35 -99 -73.5t-32 -94.5q0 -51 32 -83t84 -32zM253 552q0 -33 15.5 -60t39.5 -56l10 5
q28 15 54.5 28t46.5 28t32 35t12 50q0 32 -25 55t-67 23q-30 0 -52 -9.5t-36.5 -24.5t-22 -34.5t-7.5 -39.5z" />
    <glyph glyph-name="quotesingle" unicode="'" horiz-adv-x="202" 
d="M161 710h66l-50 -235h-66z" />
    <glyph glyph-name="parenleft" unicode="(" horiz-adv-x="275" 
d="M128 -157q-12 35 -24.5 80.5t-22.5 97.5t-16.5 109t-5.5 115q1 133 50 275t160 284h69q-61 -75 -102 -149.5t-65.5 -145t-35.5 -136t-12 -122.5q-1 -56 4 -113t13.5 -110t20 -100.5t24.5 -84.5h-57z" />
    <glyph glyph-name="parenright" unicode=")" horiz-adv-x="276" 
d="M173 803q12 -35 24.5 -80.5t22.5 -97.5t16.5 -109t5.5 -115q-1 -133 -50 -275t-160 -284h-69q61 75 102 149.5t65.5 145t35.5 136t12 122.5q1 56 -4 113t-13.5 110t-20 100.5t-24.5 84.5h57z" />
    <glyph glyph-name="asterisk" unicode="*" horiz-adv-x="431" 
d="M150 427l75 104l-122 41l16 56l124 -41v123h58v-123l124 40l18 -55l-123 -40l76 -105l-46 -33l-78 104l-75 -104z" />
    <glyph glyph-name="plus" unicode="+" horiz-adv-x="505" 
d="M46 321h179v179h66v-179h179v-63h-179v-179h-66v179h-179v63z" />
    <glyph glyph-name="comma" unicode="," horiz-adv-x="247" 
d="M12 -140h-52l91 144q-27 24 -27 55q0 27 19 47t47 20t47 -20t19 -47q0 -13 -3.5 -23t-14.5 -23z" />
    <glyph glyph-name="hyphen" unicode="-" horiz-adv-x="380" 
d="M78 316h245l-15 -72h-245z" />
    <glyph glyph-name="period" unicode="." horiz-adv-x="242" 
d="M87 -8q-28 0 -47 20t-19 47t19 47t47 20t47 -20t19 -47t-19 -47t-47 -20z" />
    <glyph glyph-name="slash" unicode="/" horiz-adv-x="374" 
d="M354 710h67l-386 -820h-67z" />
    <glyph glyph-name="zero" unicode="0" horiz-adv-x="616" 
d="M273 -10q-56 0 -100 20t-72.5 55.5t-38.5 84.5t3 108l43 201q13 60 34.5 109t54.5 83t79 52.5t107 18.5q56 0 100 -20t72 -56t38 -85t-2 -107l-43 -201q-13 -61 -35 -109.5t-55 -82.5t-78.5 -52.5t-106.5 -18.5zM279 58q75 0 126 47t73 148l44 206q10 45 3.5 81t-26 61.5
t-51 39t-71.5 13.5q-75 0 -126.5 -47.5t-72.5 -147.5l-44 -206q-10 -45 -3.5 -81.5t26 -61.5t50.5 -38.5t72 -13.5z" />
    <glyph glyph-name="one" unicode="1" horiz-adv-x="317" 
d="M227 641h-133l76 69h142l-151 -710h-70z" />
    <glyph glyph-name="two" unicode="2" horiz-adv-x="556" 
d="M7 32q15 67 47 112.5t74 78.5t89.5 57t92.5 48q49 26 82 50t53 49t28.5 51.5t8.5 57.5q0 27 -10.5 49t-29 37t-42.5 23.5t-51 8.5q-29 0 -57.5 -9t-51.5 -28t-39.5 -47.5t-21.5 -68.5h-72q5 55 26.5 96t55 69t76 42t89.5 14q39 0 75 -12.5t64 -36t44.5 -57.5t16.5 -76
q0 -47 -11 -83t-36.5 -67.5t-67.5 -61.5t-105 -64q-38 -21 -75.5 -40t-69.5 -41t-56.5 -50t-36.5 -66h374l-14 -67h-456z" />
    <glyph glyph-name="three" unicode="3" horiz-adv-x="584" 
d="M282 -12q-46 0 -90.5 16.5t-78 46t-53 70.5t-14.5 91h72q-3 -37 10.5 -65.5t37 -48t54 -30t62.5 -10.5q74 0 120.5 41.5t46.5 117.5q0 57 -34 88.5t-97 31.5h-80l15 69h56q30 0 59.5 8.5t53.5 25t39 42t15 59.5q0 26 -10 47t-28 35.5t-42 22.5t-52 8q-27 0 -55 -8.5
t-52.5 -27.5t-43 -48t-25.5 -69h-72q8 52 30.5 93t56.5 69.5t76.5 43.5t89.5 15q35 0 70.5 -11t64 -33t46.5 -55.5t18 -77.5q0 -62 -33.5 -106t-89.5 -67q51 -24 73.5 -66.5t22.5 -89.5t-16 -88.5t-46.5 -72.5t-75 -49t-101.5 -18z" />
    <glyph glyph-name="four" unicode="4" horiz-adv-x="609" 
d="M390 202h-385l12 57l491 451h60l-94 -441h100l-14 -67h-100l-43 -202h-70zM404 269l68 320l-349 -320h281z" />
    <glyph glyph-name="five" unicode="5" horiz-adv-x="552" 
d="M257 -10q-39 0 -79 12.5t-74 37.5t-57 62t-28 86h72q15 -63 61 -96.5t110 -33.5q80 0 123 48.5t43 126.5q0 34 -10.5 63t-29.5 49.5t-45.5 32t-58.5 11.5q-36 0 -75 -14.5t-71 -55.5l-61 19l149 372h328l-15 -69h-267l-83 -207q22 11 49 17.5t55 6.5q42 0 80 -17
t66 -46.5t44.5 -69t16.5 -84.5q0 -52 -15 -98t-45.5 -80t-76 -53.5t-106.5 -19.5z" />
    <glyph glyph-name="six" unicode="6" horiz-adv-x="562" 
d="M279 -10q-51 0 -94.5 17t-76 48t-51 73t-18.5 92q0 34 8.5 63t22.5 53t32 44.5t38 38.5l317 291h99l-282 -259q6 1 12 1.5t12 0.5q43 0 82.5 -17.5t69.5 -48.5t47.5 -73.5t17.5 -91.5q0 -45 -17 -86.5t-48.5 -74t-75 -52t-95.5 -19.5zM277 58q37 0 68 14t52.5 37.5
t33.5 53.5t12 63q0 37 -13 67t-35 51.5t-52.5 33.5t-64.5 12q-38 0 -69 -14t-52.5 -37t-33.5 -53t-12 -63q0 -36 13.5 -66.5t36 -52.5t53 -34t63.5 -12z" />
    <glyph glyph-name="seven" unicode="7" horiz-adv-x="493" 
d="M470 641h-365l15 69h457l-12 -57l-472 -653h-86z" />
    <glyph glyph-name="eight" unicode="8" horiz-adv-x="575" 
d="M515 228q0 -56 -18 -100t-50 -75.5t-76 -48t-96 -16.5q-59 0 -102.5 21.5t-72 53.5t-42.5 70.5t-14 72.5q0 37 10.5 70.5t30 61.5t47 48t60.5 31q-30 26 -42 59t-12 64q0 49 18.5 83.5t47 56.5t64 32t68.5 10q51 0 86 -17t56.5 -43t31.5 -56.5t10 -58.5q0 -54 -27 -93.5
t-69 -57.5q25 -15 42.5 -35.5t28 -43.5t15.5 -46.5t5 -42.5zM115 207q0 -23 8.5 -49t28 -49t51 -38t76.5 -15q36 0 66.5 12.5t53 35t35 52.5t12.5 66q0 21 -7.5 47t-25.5 49.5t-49 39.5t-79 16q-39 0 -70 -12.5t-53.5 -35t-34.5 -53t-12 -66.5zM208 536q0 -7 3.5 -24.5
t15.5 -35.5t35 -32t62 -14q55 0 91 31t36 89q0 7 -3.5 24t-15.5 35t-35 31.5t-62 13.5q-55 0 -91 -30t-36 -88z" />
    <glyph glyph-name="nine" unicode="9" horiz-adv-x="561" 
d="M326 261q-6 -2 -12 -2h-11q-44 0 -83 17.5t-69 48.5t-47.5 73.5t-17.5 91.5q0 45 17 86.5t48.5 74t74.5 52t96 19.5q51 0 94.5 -17t76 -48t51 -73t18.5 -92q0 -35 -8.5 -63.5t-22.5 -52.5t-32.5 -44.5t-37.5 -38.5l-319 -293h-99zM323 322q38 0 69 14t52.5 37t33.5 53
t12 63q0 36 -13.5 66.5t-36 52.5t-53 34t-63.5 12q-38 0 -68.5 -14t-52 -37.5t-33.5 -53.5t-12 -63q0 -37 13 -67t35 -51.5t52 -33.5t65 -12z" />
    <glyph glyph-name="colon" unicode=":" horiz-adv-x="271" 
d="M92 -8q-28 0 -47 20t-19 47t19 47t47 20t47 -20t19 -47t-19 -47t-47 -20zM174 378q-28 0 -47 20t-19 47t19 47t47 20t47 -20t19 -47t-19 -47t-47 -20z" />
    <glyph glyph-name="semicolon" unicode=";" horiz-adv-x="282" 
d="M181 378q-28 0 -47 20t-19 47t19 47t47 20t47 -20t19 -47t-19 -47t-47 -20zM21 -140h-52l91 144q-27 24 -27 55q0 27 19 47t47 20t47 -20t19 -47q0 -13 -3.5 -23t-14.5 -23z" />
    <glyph glyph-name="less" unicode="&#x3c;" horiz-adv-x="463" 
d="M134 290l253 -253h-89l-253 253l253 253h89z" />
    <glyph glyph-name="equal" unicode="=" horiz-adv-x="629" 
d="M106 212h424v-63h-424v63zM106 431h424v-63h-424v63z" />
    <glyph glyph-name="greater" unicode="&#x3e;" horiz-adv-x="468" 
d="M341 290l-253 253h89l253 -253l-253 -253h-89z" />
    <glyph glyph-name="question" unicode="?" horiz-adv-x="510" 
d="M195 229q6 27 20.5 50.5t32.5 42.5t37 33.5t34 24.5q62 41 94.5 80t32.5 81q0 50 -33 81.5t-90 31.5q-28 0 -56 -9t-51 -27.5t-38 -46t-18 -63.5h-70q3 48 22.5 87.5t51 67.5t74 43.5t93.5 15.5q41 0 75.5 -13.5t59 -36.5t38.5 -55.5t14 -69.5q0 -36 -11.5 -65.5t-32 -55
t-48 -47.5t-59.5 -43q-29 -19 -58 -44.5t-40 -62.5h-74zM195 -8q-28 0 -47 20t-19 47t19 47t47 20t47 -20t19 -47t-19 -47t-47 -20z" />
    <glyph glyph-name="at" unicode="@" horiz-adv-x="819" 
d="M423 -10q-81 0 -145.5 27t-110 74t-69.5 110.5t-24 135.5q0 85 32 156t86 122t124.5 79t147.5 28q72 0 133.5 -22.5t107.5 -64t72 -99.5t26 -130q0 -65 -15.5 -111.5t-40 -76.5t-56 -44.5t-64.5 -14.5q-25 0 -42.5 5.5t-30 14.5t-20.5 20.5t-12 23.5q-18 -28 -55.5 -45.5
t-74.5 -17.5q-30 0 -57.5 11.5t-49 33t-34 54t-12.5 74.5q0 48 16 88t44 69t65 45t78 16q48 0 78.5 -23t39.5 -51l12 65h69l-50 -243q-3 -17 -4 -31t3 -25t13.5 -17t26.5 -6q48 0 77 46.5t29 141.5q0 57 -20.5 103.5t-56.5 79.5t-86 51.5t-110 18.5q-64 0 -122 -23
t-102.5 -65t-71 -102t-26.5 -134q0 -63 19.5 -115.5t56 -90.5t89 -59t117.5 -21q45 0 95 10t91 30v-67q-44 -17 -93.5 -25.5t-92.5 -8.5zM401 221q24 0 46.5 9t40.5 25.5t30 38t17 47.5q6 32 1.5 59t-17 47t-32.5 31.5t-46 11.5q-24 0 -46.5 -9t-40.5 -25.5t-30.5 -38.5
t-16.5 -47q-6 -32 -1.5 -59t17 -47t32.5 -31.5t46 -11.5z" />
    <glyph glyph-name="A" unicode="A" horiz-adv-x="709" 
d="M416 710h61l166 -710h-73l-52 221h-339l-145 -221h-85zM225 292h277l-72 311z" />
    <glyph glyph-name="B" unicode="B" horiz-adv-x="633" 
d="M192 710h195q49 0 86 -14.5t62 -38.5t37 -54t12 -61q0 -68 -32.5 -112.5t-87.5 -65.5q45 -16 73 -52.5t28 -91.5q0 -102 -73 -161t-209 -59h-242zM296 69q47 0 83 11.5t61 31t37.5 46.5t12.5 59q0 24 -9 45t-27.5 37t-46 25.5t-64.5 9.5h-155l-56 -265h164zM342 400
q78 0 122.5 37.5t44.5 95.5q0 22 -8 41.5t-24 34.5t-39.5 23.5t-54.5 8.5h-130l-51 -241h140z" />
    <glyph glyph-name="C" unicode="C" horiz-adv-x="793" 
d="M396 -12q-75 0 -136 26t-104.5 70.5t-67 104t-23.5 126.5q0 84 28.5 158t81.5 129.5t128 87.5t169 32q61 0 113.5 -19t93 -52t67 -77.5t37.5 -95.5h-80q-10 37 -30.5 68.5t-51.5 54.5t-70.5 36t-86.5 13q-69 0 -128 -25.5t-102 -70t-67.5 -104t-24.5 -127.5
q0 -57 17.5 -105t51 -83t83 -55t113.5 -20q93 0 162.5 47t109.5 125h80q-21 -54 -54.5 -99t-79 -77t-103 -50t-126.5 -18z" />
    <glyph glyph-name="D" unicode="D" horiz-adv-x="724" 
d="M291 72q69 0 128 24t102.5 66t68.5 99.5t25 125.5q0 57 -17.5 103t-51.5 79t-83 51t-113 18h-97l-121 -566h159zM192 710h169q75 0 136 -24t104 -66.5t66.5 -100t23.5 -124.5q0 -83 -29 -155t-82 -125t-129.5 -84t-170.5 -31h-239z" />
    <glyph glyph-name="E" unicode="E" horiz-adv-x="553" 
d="M192 710h405l-15 -72h-329l-51 -237h269l-15 -72h-269l-55 -257h329l-15 -72h-405z" />
    <glyph glyph-name="F" unicode="F" horiz-adv-x="533" 
d="M192 710h407l-15 -72h-331l-51 -237h262l-15 -72h-262l-70 -329h-76z" />
    <glyph glyph-name="G" unicode="G" horiz-adv-x="824" 
d="M393 -12q-75 0 -135.5 26t-103 70.5t-65.5 104t-23 126.5q0 84 28 158t81 129.5t128.5 87.5t170.5 32q60 0 110.5 -16.5t90 -46.5t67.5 -70.5t43 -88.5h-80q-27 69 -87.5 109.5t-154.5 40.5q-69 0 -127.5 -25.5t-101.5 -70t-67 -104t-24 -127.5q0 -57 16.5 -105t49.5 -83
t82 -55t113 -20q61 0 113 20.5t91.5 56.5t66 85t35.5 106h-291l15 72h357v-6q0 -83 -27 -157t-78 -129.5t-125 -87.5t-168 -32z" />
    <glyph glyph-name="H" unicode="H" horiz-adv-x="767" 
d="M192 710h76l-66 -309h415l66 309h76l-151 -710h-76l70 329h-415l-70 -329h-76z" />
    <glyph glyph-name="I" unicode="I" horiz-adv-x="276" 
d="M192 710h76l-151 -710h-76z" />
    <glyph glyph-name="J" unicode="J" horiz-adv-x="519" 
d="M442 710h76l-110 -519q-10 -47 -26 -85t-42 -64t-63.5 -40t-89.5 -14q-37 0 -73 13t-64 38t-43.5 62t-10.5 85h76q-2 -32 7.5 -55.5t26.5 -39t39.5 -23.5t46.5 -8q66 0 97 39.5t46 109.5z" />
    <glyph glyph-name="K" unicode="K" horiz-adv-x="661" 
d="M189 343l-73 -343h-75l151 710h75l-66 -311l387 311h109l-429 -344l360 -366h-103z" />
    <glyph glyph-name="L" unicode="L" horiz-adv-x="542" 
d="M192 710h76l-136 -638h355l-15 -72h-431z" />
    <glyph glyph-name="M" unicode="M" horiz-adv-x="888" 
d="M192 710h70l190 -395l358 395h70l-151 -710h-76l119 560l-339 -374l-192 398l-124 -584h-76z" />
    <glyph glyph-name="N" unicode="N" horiz-adv-x="796" 
d="M570 0l-328 589l-125 -589h-76l151 710h67l327 -590l126 590h76l-151 -710h-67z" />
    <glyph glyph-name="O" unicode="O" horiz-adv-x="834" 
d="M404 60q69 0 127.5 25.5t101.5 70t67.5 104t24.5 127.5q0 57 -17 105t-50 83t-82 55t-113 20q-69 0 -127.5 -25.5t-101.5 -70t-67 -104t-24 -127.5q0 -57 16.5 -105t49.5 -83t82 -55t113 -20zM393 -12q-75 0 -135.5 26t-103 70.5t-65.5 104t-23 126.5q0 84 28 158
t81 129.5t128.5 87.5t170.5 32q75 0 135.5 -26t103 -70.5t65.5 -104t23 -126.5q0 -84 -28.5 -158t-81 -129.5t-128.5 -87.5t-170 -32z" />
    <glyph glyph-name="P" unicode="P" horiz-adv-x="585" 
d="M192 710h196q53 0 92 -16t65 -43t39 -62.5t13 -74.5q0 -52 -19 -97t-56 -78.5t-91.5 -52.5t-124.5 -19h-132l-57 -267h-76zM322 336q46 0 83 14t63 38t40 56.5t14 68.5q0 25 -8 48t-25.5 40.5t-44 27.5t-62.5 10h-129l-65 -303h134z" />
    <glyph glyph-name="Q" unicode="Q" horiz-adv-x="840" 
d="M393 -12q-75 0 -135.5 26t-103 70.5t-65.5 104t-23 126.5q0 84 28 158t81 129.5t128.5 87.5t170.5 32q75 0 135.5 -26t103 -70.5t65.5 -104t23 -126.5q0 -91 -32 -168.5t-92 -133.5l77 -93h-90l-42 50q-48 -29 -105 -45.5t-124 -16.5zM404 60q48 0 90.5 12.5t79.5 35.5
l-98 120l53 45l100 -122q45 45 70.5 105.5t25.5 130.5q0 57 -17 105t-50 83t-82 55t-113 20q-69 0 -127.5 -25.5t-101.5 -70t-67 -104t-24 -127.5q0 -57 16.5 -105t49.5 -83t82 -55t113 -20z" />
    <glyph glyph-name="R" unicode="R" horiz-adv-x="625" 
d="M192 710h218q42 0 76.5 -13.5t59.5 -37t39 -55.5t14 -68q0 -49 -16.5 -87t-48 -65t-76 -41t-99.5 -15l219 -328h-89l-221 330h-81l-70 -330h-76zM349 400q88 0 130 35t43 96q1 47 -31.5 77.5t-90.5 30.5h-147l-51 -239h147z" />
    <glyph glyph-name="S" unicode="S" horiz-adv-x="553" 
d="M261 -12q-55 0 -99 16t-75 43t-48 62t-19 72h76q5 -28 20.5 -50.5t38 -38t51 -24t60.5 -8.5q29 0 55.5 9.5t46 26t31 38t11.5 45.5q0 51 -28.5 82t-80.5 57l-45 23q-29 15 -54.5 32.5t-44.5 40t-30 51t-10 63.5q1 43 17.5 79t45.5 61.5t69 39.5t88 14q54 0 92.5 -17
t64 -44t38 -60t14.5 -64h-76q-7 54 -44.5 83.5t-94.5 29.5q-32 0 -57.5 -9.5t-43.5 -25t-27.5 -36.5t-9.5 -43q1 -47 24 -72.5t63 -46.5l52 -27q74 -38 114 -85.5t40 -117.5q0 -42 -15 -78.5t-44 -63t-70.5 -42t-95.5 -15.5z" />
    <glyph glyph-name="T" unicode="T" horiz-adv-x="565" 
d="M321 638h-230l15 72h535l-15 -72h-230l-136 -638h-75z" />
    <glyph glyph-name="U" unicode="U" horiz-adv-x="729" 
d="M637 269q-28 -133 -104 -207t-212 -74q-63 0 -112 19.5t-80.5 56.5t-42.5 88.5t3 116.5l93 441h76l-93 -442q-11 -51 -4.5 -90t27.5 -65.5t55.5 -39.5t80.5 -13q91 0 153 52.5t84 155.5l93 442h76z" />
    <glyph glyph-name="V" unicode="V" horiz-adv-x="692" 
d="M101 710h74l129 -594l382 594h88l-456 -710h-62z" />
    <glyph glyph-name="W" unicode="W" horiz-adv-x="943" 
d="M524 512l-291 -512h-66l-51 710h75l38 -578l336 590l77 -590l285 578h83l-353 -710h-66z" />
    <glyph glyph-name="X" unicode="X" horiz-adv-x="656" 
d="M-47 0l347 360l-200 350h84l168 -295l284 295h97l-345 -359l203 -351h-84l-171 298l-284 -298h-99z" />
    <glyph glyph-name="Y" unicode="Y" horiz-adv-x="666" 
d="M300 301l-193 409h83l158 -334l299 334h96l-368 -410l-64 -300h-75z" />
    <glyph glyph-name="Z" unicode="Z" horiz-adv-x="572" 
d="M-16 50l517 588h-380l15 72h488l-11 -50l-517 -588h403l-15 -72h-511z" />
    <glyph glyph-name="bracketleft" unicode="[" horiz-adv-x="298" 
d="M212 800h176l-13 -63h-110l-178 -834h110l-13 -63h-176z" />
    <glyph glyph-name="backslash" unicode="\" horiz-adv-x="659" 
d="M177.989 710h-66.9961l385.977 -820h66.9961z" />
    <glyph glyph-name="bracketright" unicode="]" horiz-adv-x="298" 
d="M110 -160h-176l13 63h110l178 834h-110l13 63h176z" />
    <glyph glyph-name="asciicircum" unicode="^" horiz-adv-x="423" 
d="M108 500l132 210h52l132 -210h-70l-88 140l-88 -140h-70z" />
    <glyph glyph-name="underscore" unicode="_" horiz-adv-x="534" 
d="M5 0h421l-13 -63h-421z" />
    <glyph glyph-name="grave" unicode="`" 
d="M142 578l-60 152h83l30 -152h-53z" />
    <glyph glyph-name="a" unicode="a" horiz-adv-x="636" 
d="M265 -10q-45 0 -85 15t-70 44.5t-48 72t-18 96.5q0 60 20.5 113t59 92.5t92 63t119.5 23.5q33 0 61.5 -9t51 -23.5t39 -33.5t25.5 -39l20 95h70l-106 -500h-70l16 69q-13 -18 -33 -33t-43.5 -25t-49.5 -15.5t-51 -5.5zM274 55q43 0 82.5 16t69 45t47 70t17.5 91
q0 42 -12 73.5t-33 52.5t-50 31.5t-63 10.5q-44 0 -83 -16t-68.5 -45t-47 -70t-17.5 -91q0 -42 12 -73.5t33 -52.5t50 -31.5t63 -10.5z" />
    <glyph glyph-name="b" unicode="b" horiz-adv-x="636" 
d="M301 -10q-33 0 -61.5 9t-51 23.5t-39 33.5t-25.5 39l-20 -95h-70l159 750h70l-69 -319q13 18 33 33t43.5 25t49 15.5t51.5 5.5q45 0 85 -15t70 -44.5t48 -72t18 -96.5q0 -60 -20.5 -113t-59 -92.5t-92 -63t-119.5 -23.5zM304 55q43 0 82.5 16t69 45t47 70t17.5 91
q0 42 -12 73.5t-33 52.5t-50 31.5t-63 10.5q-44 0 -83 -16t-68.5 -45t-47 -70t-17.5 -91q0 -42 12 -73.5t33 -52.5t50 -31.5t63 -10.5z" />
    <glyph glyph-name="c" unicode="c" horiz-adv-x="595" 
d="M289 -10q-60 0 -105 20t-75.5 53.5t-46 77.5t-15.5 92q0 56 19 106t55 88t87.5 60.5t116.5 22.5q49 0 89 -14t70 -38.5t49.5 -57.5t28.5 -71h-76q-17 56 -60.5 86t-105.5 30q-44 0 -80.5 -16t-63.5 -44t-42 -65.5t-15 -80.5t12.5 -77t36 -58t55.5 -36.5t71 -12.5
q63 0 110.5 32t70.5 84h76q-13 -39 -36.5 -72t-57 -57.5t-75.5 -38t-93 -13.5z" />
    <glyph glyph-name="d" unicode="d" horiz-adv-x="636" 
d="M265 -10q-45 0 -85 15t-70 44.5t-48 72t-18 96.5q0 60 20.5 113t59 92.5t92 63t119.5 23.5q33 0 61.5 -9t51 -23.5t39 -33.5t25.5 -39l73 345h70l-159 -750h-70l16 69q-13 -18 -33 -33t-43.5 -25t-49.5 -15.5t-51 -5.5zM274 55q43 0 82.5 16t69 45t47 70t17.5 91
q0 42 -12 73.5t-33 52.5t-50 31.5t-63 10.5q-44 0 -83 -16t-68.5 -45t-47 -70t-17.5 -91q0 -42 12 -73.5t33 -52.5t50 -31.5t63 -10.5z" />
    <glyph glyph-name="e" unicode="e" horiz-adv-x="582" 
d="M268 -10q-47 0 -87.5 16.5t-70.5 47t-47.5 74.5t-17.5 98q0 58 20.5 110t57 90.5t87 61t111.5 22.5q54 0 98.5 -18.5t73.5 -54t41 -88t1 -119.5h-421q-1 -38 9.5 -70.5t31.5 -55.5t51 -36t68 -13q24 0 48 5t46 16.5t41 29t32 43.5h74q-12 -31 -32.5 -60t-51 -51t-71 -35
t-92.5 -13zM314 445q-31 0 -60.5 -9.5t-54 -29t-43 -48.5t-27.5 -67h337q2 70 -38.5 112t-113.5 42z" />
    <glyph glyph-name="f" unicode="f" horiz-adv-x="349" 
d="M160 434h-107l14 66h107l23 108q17 78 63.5 113t110.5 35q40 0 71 -13l-13 -63q-11 5 -27.5 8t-34.5 3q-43 0 -68 -25.5t-34 -67.5l-21 -98h146l-14 -66h-146l-92 -434h-70z" />
    <glyph glyph-name="g" unicode="g" horiz-adv-x="636" 
d="M232 -219q-52 0 -93 13.5t-70.5 37t-46 54t-20.5 63.5h69q10 -46 53 -75t114 -29q70 0 123.5 43.5t70.5 131.5l11 59q-13 -18 -33 -33t-43.5 -25t-49.5 -15.5t-51 -5.5q-44 0 -84 15t-70.5 43.5t-48.5 69.5t-18 94q0 59 21 111.5t59 91.5t92 62t119 23q33 0 61.5 -9
t51 -23.5t39 -33.5t25.5 -39l20 95h70l-105 -493q-24 -112 -91.5 -169t-174.5 -57zM275 65q43 0 82 15.5t69 44t47.5 68.5t17.5 89q0 40 -12 71t-33 51t-50 30.5t-63 10.5q-43 0 -82 -15.5t-68.5 -44t-47.5 -68t-18 -88.5q0 -41 12 -71.5t33 -51t50 -31t63 -10.5z" />
    <glyph glyph-name="h" unicode="h" horiz-adv-x="587" 
d="M193 750h70l-68 -318q35 44 79.5 61t88.5 17q42 0 76 -16t55 -45t28 -69t-3 -89l-63 -291h-70l62 290q16 74 -12.5 114.5t-88.5 40.5q-32 0 -61 -11t-53.5 -33t-43 -56t-28.5 -79l-57 -266h-70z" />
    <glyph glyph-name="i" unicode="i" horiz-adv-x="244" 
d="M220 650q-23 0 -38.5 15.5t-15.5 37.5t15.5 37.5t38.5 15.5q22 0 37 -15.5t15 -37.5t-15 -37.5t-37 -15.5zM140 500h70l-106 -500h-70z" />
    <glyph glyph-name="j" unicode="j" horiz-adv-x="251" 
d="M-56 -219q-32 0 -54 8l13 64q8 -2 18.5 -4t24.5 -2q30 0 50 17t29 60l122 576h70l-125 -589q-14 -68 -49 -99t-99 -31zM227 650q-23 0 -38.5 15.5t-15.5 37.5t15.5 37.5t38.5 15.5q22 0 37 -15.5t15 -37.5t-15 -37.5t-37 -15.5z" />
    <glyph glyph-name="k" unicode="k" horiz-adv-x="532" 
d="M158 255l-54 -255h-70l159 750h70l-95 -447l271 197h105l-311 -226l262 -274h-93z" />
    <glyph glyph-name="l" unicode="l" horiz-adv-x="244" 
d="M193 750h70l-159 -750h-70z" />
    <glyph glyph-name="m" unicode="m" horiz-adv-x="883" 
d="M140 500h70l-15 -68q31 41 74.5 59.5t85.5 18.5q51 0 85 -26t48 -70q24 39 71 67.5t110 28.5q46 0 78.5 -17t50.5 -46.5t22.5 -69.5t-5.5 -86l-63 -291h-70l62 290q14 69 -8 112t-75 43q-30 0 -58 -12t-51 -34t-39.5 -54t-25.5 -71l-59 -274h-70l62 290q14 69 -8 112
t-75 43q-60 0 -108.5 -45.5t-67.5 -133.5l-57 -266h-70z" />
    <glyph glyph-name="n" unicode="n" horiz-adv-x="587" 
d="M140 500h70l-15 -68q35 44 79.5 61t88.5 17q42 0 76 -16t55 -45t28 -69t-3 -89l-63 -291h-70l62 290q16 74 -12.5 114.5t-88.5 40.5q-32 0 -61 -11t-53.5 -33t-43 -56t-28.5 -79l-57 -266h-70z" />
    <glyph glyph-name="o" unicode="o" horiz-adv-x="613" 
d="M294 55q43 0 80 16.5t64 44.5t42 65.5t15 80.5t-12.5 77t-36 57.5t-55.5 36t-71 12.5q-44 0 -80.5 -16t-63.5 -44t-42 -65.5t-15 -80.5t12.5 -77t36 -58t55.5 -36.5t71 -12.5zM289 -10q-60 0 -105 20t-75.5 53.5t-46 77.5t-15.5 92q0 56 19 106t55 88t87.5 60.5
t116.5 22.5q60 0 105 -20t75.5 -53t46 -77t15.5 -92q0 -56 -19 -106.5t-55 -88.5t-87.5 -60.5t-116.5 -22.5z" />
    <glyph glyph-name="p" unicode="p" horiz-adv-x="636" 
d="M140 500h69l-15 -69q13 18 33 33t43.5 25t49 15.5t51.5 5.5q45 0 85 -15t70 -44.5t48 -72t18 -96.5q0 -60 -20.5 -113t-59 -92.5t-92 -63t-119.5 -23.5q-33 0 -61.5 9t-51 23.5t-39 33.5t-25.5 39l-61 -289h-70zM304 55q43 0 82.5 16t69 45t47 70t17.5 91q0 42 -12 73.5
t-33 52.5t-50 31.5t-63 10.5q-44 0 -83 -16t-68.5 -45t-47 -70t-17.5 -91q0 -42 12 -73.5t33 -52.5t50 -31.5t63 -10.5z" />
    <glyph glyph-name="q" unicode="q" horiz-adv-x="636" 
d="M442 69q-13 -18 -33 -33t-43.5 -25t-49.5 -15.5t-51 -5.5q-45 0 -85 15t-70 44.5t-48 72t-18 96.5q0 60 20.5 113t59 92.5t92 63t119.5 23.5q33 0 61.5 -9t51 -23.5t39 -33.5t25.5 -39l20 95h70l-151 -709h-70zM274 55q43 0 82.5 16t69 45t47 70t17.5 91q0 42 -12 73.5
t-33 52.5t-50 31.5t-63 10.5q-44 0 -83 -16t-68.5 -45t-47 -70t-17.5 -91q0 -42 12 -73.5t33 -52.5t50 -31.5t63 -10.5z" />
    <glyph glyph-name="r" unicode="r" horiz-adv-x="362" 
d="M140 500h70l-20 -93q13 26 32.5 44.5t42 30.5t46 17.5t45.5 5.5q20 0 35 -4l-15 -73q-18 7 -41 7t-50 -11t-52 -33.5t-45.5 -57t-30.5 -82.5l-53 -251h-70z" />
    <glyph glyph-name="s" unicode="s" horiz-adv-x="446" 
d="M199 -10q-40 0 -73.5 11t-58 31t-38.5 47.5t-15 61.5h70q5 -44 38 -66t81 -22q20 0 39 6t33.5 16.5t23.5 24.5t9 30q0 32 -19 52.5t-59 36.5l-42 17q-44 17 -74 49.5t-30 84.5q0 33 12.5 59t34.5 44t52 27.5t65 9.5q39 0 69.5 -12.5t52 -32.5t33 -44.5t13.5 -49.5h-69
q-7 32 -32 54.5t-70 22.5q-18 0 -34 -5t-29 -14t-20.5 -22t-7.5 -29q0 -31 15 -48.5t48 -31.5l44 -18q24 -10 45 -22t37 -28.5t25.5 -39t9.5 -52.5q0 -66 -48 -107t-131 -41z" />
    <glyph glyph-name="t" unicode="t" horiz-adv-x="360" 
d="M233 -5q-34 0 -62.5 9.5t-47.5 29t-26 50.5t2 75l59 275h-107l14 66h107l30 139h70l-30 -139h146l-14 -66h-146l-59 -281q-6 -28 -2 -46.5t14.5 -29t27.5 -15t37 -4.5q14 0 27.5 2t22.5 4l-12 -63q-24 -6 -51 -6z" />
    <glyph glyph-name="u" unicode="u" horiz-adv-x="578" 
d="M223 -10q-42 0 -75.5 16t-54.5 45t-28 69t4 89l63 291h70l-62 -290q-16 -72 11 -113.5t84 -41.5q63 -1 112.5 44t69.5 135l57 266h70l-106 -500h-70l15 68q-33 -42 -75.5 -60t-84.5 -18z" />
    <glyph glyph-name="v" unicode="v" horiz-adv-x="537" 
d="M60 500h71l100 -403l271 403h81l-340 -500h-55z" />
    <glyph glyph-name="w" unicode="w" horiz-adv-x="749" 
d="M66 500h69l49 -379l212 379h54l52 -379l209 379h78l-277 -500h-58l-51 381l-214 -381h-58z" />
    <glyph glyph-name="x" unicode="x" horiz-adv-x="514" 
d="M250 197l-202 -197h-94l262 256l-135 244h77l109 -194l190 194h91l-248 -253l149 -247h-80z" />
    <glyph glyph-name="y" unicode="y" horiz-adv-x="538" 
d="M182 28l-121 472h74l98 -397l268 397h83l-482 -709h-81z" />
    <glyph glyph-name="z" unicode="z" horiz-adv-x="475" 
d="M-2 56l375 379h-291l14 65h388l-12 -57l-374 -378h303l-14 -65h-401z" />
    <glyph glyph-name="braceleft" unicode="{" horiz-adv-x="306" 
d="M149 -160q-58 0 -88 36t-15 107l50 238q8 38 0 56.5t-43 18.5h-17l14 63h17q19 0 31.5 3.5t20.5 12.5t13 23.5t10 35.5l51 237q7 35 16.5 59.5t26 40t42 22.5t64.5 7h54l-13 -63h-48q-20 0 -33 -4t-22 -13t-14.5 -24t-9.5 -36l-49 -229q-5 -25 -11 -42.5t-15 -30.5
t-21 -22t-29 -16q28 -17 33 -42.5t-5 -73.5l-49 -233q-7 -32 4 -50t43 -18h48l-13 -63h-43z" />
    <glyph glyph-name="bar" unicode="|" horiz-adv-x="299" 
d="M124 710h67v-820h-67v820z" />
    <glyph glyph-name="braceright" unicode="}" horiz-adv-x="307" 
d="M181 801q58 0 88 -36t15 -107l-50 -238q-8 -38 0 -56.5t43 -18.5h17l-14 -63h-17q-19 0 -31.5 -3.5t-20.5 -12.5t-13 -23.5t-10 -35.5l-51 -237q-7 -35 -16.5 -59.5t-26 -40t-42 -22.5t-64.5 -7h-54l13 63h48q20 0 33 4t22 13t14.5 24t9.5 36l49 229q5 25 11 42.5
t15 30.5t21 22t29 16q-28 17 -33 42.5t5 73.5l49 233q7 32 -4 50t-43 18h-48l13 63h43z" />
    <glyph glyph-name="asciitilde" unicode="~" horiz-adv-x="406" 
d="M118 349h46l95 -61l28 61h66l-55 -119h-46l-96 60l-27 -60h-66z" />
    <glyph glyph-name="uni00A0" unicode="&#xa0;" horiz-adv-x="245" 
 />
    <glyph glyph-name="exclamdown" unicode="&#xa1;" horiz-adv-x="252" 
d="M124 81l-62 -290h-70l62 290l57 208h44zM165 378q-28 0 -47 20t-19 47t19 47t47 20t47 -20t19 -47t-19 -47t-47 -20z" />
    <glyph glyph-name="cent" unicode="&#xa2;" horiz-adv-x="609" 
d="M277 -10l-16 -78h-54l18 86q-44 10 -76.5 32.5t-55 54t-33.5 69.5t-11 79q0 56 19 106t55 88t87.5 60.5t116.5 22.5h7l17 78h54l-18 -84q72 -16 117 -63.5t60 -111.5h-76q-14 43 -43.5 71t-71.5 39l-82 -384h5q63 0 110.5 32t70.5 84h76q-13 -39 -36.5 -72t-57 -57.5
t-75.5 -38t-93 -13.5h-14zM121 239q0 -70 32 -115.5t86 -61.5l81 383q-43 0 -79.5 -16.5t-63 -44.5t-41.5 -65.5t-15 -79.5z" />
    <glyph glyph-name="sterling" unicode="&#xa3;" horiz-adv-x="548" 
d="M81 392h60q-2 17 -2 34v35q0 54 15 101.5t45 83t74.5 56t103.5 20.5q46 0 82 -18t60 -47.5t34.5 -67t6.5 -77.5h-70q3 27 -3.5 53t-21.5 45.5t-39.5 31.5t-57.5 12q-38 0 -67.5 -15t-49.5 -39.5t-30.5 -57.5t-10.5 -69q0 -44 3 -81h197l-11 -54h-181q2 -19 3 -36.5
t1 -35.5q0 -63 -17 -113.5t-55 -84.5h317l-14 -68h-455l14 68h49q38 27 64 68t26 107q0 21 -2 44.5t-4 50.5h-75z" />
    <glyph glyph-name="yen" unicode="&#xa5;" horiz-adv-x="663" 
d="M109 354h171l-153 356h78l142 -340l285 340h91l-304 -356h170l-11 -54h-205l-16 -74h205l-11 -54h-206l-36 -172h-70l36 172h-204l11 54h205l16 74h-205z" />
    <glyph glyph-name="brokenbar" unicode="&#xa6;" horiz-adv-x="299" 
d="M124 257h67v-367h-67v367zM124 710h67v-367h-67v367z" />
    <glyph glyph-name="section" unicode="&#xa7;" horiz-adv-x="459" 
d="M162 -219q-22 0 -49.5 6.5t-52 22t-41.5 40.5t-19 61h68q3 -20 13.5 -33t24.5 -21t29 -11.5t28 -3.5q50 0 76 28.5t26 76.5q0 21 -7 38.5t-18 31.5t-25 25.5t-27 19.5l-54 33q-41 25 -62 65t-20 83q1 61 37.5 108.5t115.5 70.5q-35 26 -58.5 62.5t-23.5 90.5
q0 31 11.5 57.5t32.5 46.5t51 31.5t66 11.5q26 0 51 -7t45.5 -22t34.5 -40t19 -61h-68q-2 20 -11 33.5t-21 21.5t-26 11.5t-26 3.5q-42 0 -67 -23t-24 -65q0 -20 7.5 -37t18.5 -31.5t25 -25.5t27 -19l54 -33q43 -26 64 -66.5t21 -82.5q0 -59 -38 -105.5t-116 -72.5
q35 -26 57.5 -60.5t22.5 -83.5q0 -81 -46 -128.5t-126 -47.5zM273 378q-72 -17 -113.5 -47.5t-41.5 -78.5q0 -31 18 -59t44 -44l7 -4q71 17 112 49t41 77q0 31 -18 60t-44 45z" />
    <glyph glyph-name="dieresis" unicode="&#xa8;" 
d="M29 602q-23 0 -38.5 15.5t-15.5 37.5t15.5 37.5t38.5 15.5q22 0 37 -15.5t15 -37.5t-15 -37.5t-37 -15.5zM251 602q-23 0 -38.5 15.5t-15.5 37.5t15.5 37.5t38.5 15.5q22 0 37 -15.5t15 -37.5t-15 -37.5t-37 -15.5z" />
    <glyph glyph-name="copyright" unicode="&#xa9;" horiz-adv-x="842" 
d="M445 163q-42 0 -77.5 15t-62 40.5t-41 60.5t-14.5 76t14.5 76t41 61t62 41t77.5 15q33 0 62.5 -10t53.5 -28t40.5 -42t23.5 -52h-72q-12 31 -41.5 49.5t-66.5 18.5q-29 0 -52.5 -10t-40 -27.5t-26 -41t-9.5 -50.5t9.5 -50.5t26 -40.5t40 -27t52.5 -10q37 0 66.5 18.5
t41.5 49.5h72q-7 -29 -23.5 -53t-40.5 -41.5t-53.5 -27.5t-62.5 -10zM440 55q62 0 116.5 23.5t95.5 64.5t65 95.5t24 116.5t-24 116.5t-65 95.5t-95.5 64.5t-116.5 23.5t-116.5 -23.5t-95 -64.5t-64.5 -95.5t-24 -116.5t24 -116.5t64.5 -95.5t95 -64.5t116.5 -23.5zM440 -12
q-75 0 -142 29t-117 79t-79 116.5t-29 142.5t29 142.5t79 116.5t117 79t142 29q76 0 143 -29t117 -79t79 -116.5t29 -142.5t-29 -142.5t-79 -116.5t-117 -79t-143 -29z" />
    <glyph glyph-name="ordfeminine" unicode="&#xaa;" horiz-adv-x="423" 
d="M231 404q-27 0 -50 9.5t-40 27.5t-26.5 43t-9.5 56q0 37 12 69t34 56t53 37.5t68 13.5q38 0 64.5 -18t35.5 -38l11 50h61l-64 -300h-61l8 34q-14 -17 -39.5 -28.5t-56.5 -11.5zM247 459q22 0 42 8.5t35 23.5t23.5 36t8.5 47q0 42 -22 64t-58 22q-23 0 -42.5 -8.5
t-34.5 -23.5t-23.5 -36.5t-8.5 -46.5q0 -42 22 -64t58 -22z" />
    <glyph glyph-name="guillemotleft" unicode="&#xab;" horiz-adv-x="463" 
d="M393 467h61l-163 -228l71 -206h-56l-98 217zM229 467h61l-163 -228l71 -206h-56l-98 217z" />
    <glyph glyph-name="uni00AD" unicode="&#xad;" horiz-adv-x="380" 
d="M78 316h245l-15 -72h-245z" />
    <glyph glyph-name="registered" unicode="&#xae;" horiz-adv-x="842" 
d="M440 -12q-75 0 -142 29t-117 79t-79 116.5t-29 142.5t29 142.5t79 116.5t117 79t142 29q76 0 143 -29t117 -79t79 -116.5t29 -142.5t-29 -142.5t-79 -116.5t-117 -79t-143 -29zM440 55q62 0 116.5 23.5t95.5 64.5t65 95.5t24 116.5t-24 116.5t-65 95.5t-95.5 64.5
t-116.5 23.5t-116.5 -23.5t-95 -64.5t-64.5 -95.5t-24 -116.5t24 -116.5t64.5 -95.5t95 -64.5t116.5 -23.5zM323 542h137q53 0 83.5 -30.5t30.5 -77.5q0 -38 -21.5 -63t-60.5 -36l137 -166h-81l-133 161h-25v-161h-67v373zM453 388q25 0 40 12t15 34q0 23 -15 34.5t-40 11.5
h-63v-92h63z" />
    <glyph glyph-name="macron" unicode="&#xaf;" 
d="M-7 710h316l-13 -61h-316z" />
    <glyph glyph-name="degree" unicode="&#xb0;" horiz-adv-x="337" 
d="M234 523q29 0 49 20t20 49t-20 49t-49 20t-49 -20t-20 -49t20 -49t49 -20zM234 470q-25 0 -47.5 9.5t-39 26t-26 39t-9.5 47.5t9.5 47.5t26 39t39 26t47.5 9.5t47.5 -9.5t39 -26t26 -39t9.5 -47.5t-9.5 -47.5t-26 -39t-39 -26t-47.5 -9.5z" />
    <glyph glyph-name="uni00B2" unicode="&#xb2;" horiz-adv-x="354" 
d="M74 440q9 39 27.5 66.5t43.5 47t53.5 34.5t55.5 29q50 27 73.5 51.5t23.5 59.5q0 28 -19.5 44.5t-48.5 16.5q-32 0 -58 -19.5t-31 -58.5h-62q3 34 17 59.5t35 43t47.5 26.5t56.5 9q24 0 47 -8t40.5 -23t28 -36.5t10.5 -48.5q0 -30 -7 -52.5t-22.5 -41.5t-40.5 -36.5
t-60 -36.5q-18 -10 -37 -19.5t-36.5 -21t-30.5 -25t-19 -31.5h204l-13 -59h-284z" />
    <glyph glyph-name="uni00B3" unicode="&#xb3;" horiz-adv-x="367" 
d="M244 403q-28 0 -55.5 9.5t-48.5 27.5t-33.5 44t-9.5 60h60q-1 -20 6.5 -35t19.5 -25.5t28 -15.5t33 -5q39 0 63 21.5t24 59.5q0 29 -18.5 46t-52.5 17h-45l12 54h33q35 0 61 18t26 53q0 26 -19.5 41.5t-48.5 15.5q-15 0 -30 -4.5t-27.5 -14.5t-22 -24.5t-12.5 -34.5h-62
q4 34 18.5 59.5t36 43t48 26.5t55.5 9q24 0 47 -7.5t40.5 -22t28 -35t10.5 -46.5q0 -38 -19.5 -65.5t-52.5 -41.5q27 -14 40.5 -38t13.5 -53q0 -27 -9.5 -52t-28 -44t-46 -30t-63.5 -11z" />
    <glyph glyph-name="acute" unicode="&#xb4;" 
d="M158 730h105l-184 -152h-63z" />
    <glyph glyph-name="paragraph" unicode="&#xb6;" horiz-adv-x="622" 
d="M263 260q-37 5 -70 23.5t-58 47t-39.5 66.5t-14.5 83q0 41 18.5 82t54.5 74t87.5 53.5t117.5 20.5h247l-190 -894h-67l176 828h-113l-176 -828h-67z" />
    <glyph glyph-name="periodcentered" unicode="&#xb7;" horiz-adv-x="263" 
d="M132 202q-28 0 -47 20t-19 47t19 47t47 20t47 -20t19 -47t-19 -47t-47 -20z" />
    <glyph glyph-name="cedilla" unicode="&#xb8;" 
d="M-137 -153q16 -8 36.5 -12t38.5 -4q34 0 56 12t22 33q0 13 -10.5 21.5t-30.5 8.5q-12 0 -24.5 -2.5t-24.5 -7.5l-27 21l67 86h55l-44 -56q15 6 32 6q33 0 51 -20.5t18 -48.5t-10.5 -47.5t-29.5 -32t-44.5 -18t-55.5 -5.5q-22 0 -46 4t-40 11z" />
    <glyph glyph-name="uni00B9" unicode="&#xb9;" horiz-adv-x="223" 
d="M206 782h-86l61 60h99l-92 -432h-61z" />
    <glyph glyph-name="ordmasculine" unicode="&#xba;" horiz-adv-x="404" 
d="M255 460q45 0 73.5 31t28.5 76q0 43 -24 67.5t-64 24.5q-45 0 -73.5 -30.5t-28.5 -75.5q0 -43 24 -68t64 -25zM250 404q-36 0 -63 12t-45 32t-27.5 46t-9.5 54q0 34 12 65t33.5 53.5t53 36t70.5 13.5q36 0 63 -12t45 -32t27.5 -46t9.5 -54q0 -35 -12 -65.5t-33.5 -53
t-53 -36t-70.5 -13.5z" />
    <glyph glyph-name="guillemotright" unicode="&#xbb;" horiz-adv-x="465" 
d="M230 34h-61l163 228l-71 206h56l98 -217zM66 34h-61l163 228l-71 206h56l98 -217z" />
    <glyph glyph-name="onequarter" unicode="&#xbc;" horiz-adv-x="815" 
d="M178 650h-86l61 60h99l-92 -432h-61zM11 0l651 710h74l-651 -710h-74zM640 113h-226l11 49l290 271h54l-56 -263h59l-12 -57h-59l-24 -112h-61zM652 170l34 161l-173 -161h139z" />
    <glyph glyph-name="onehalf" unicode="&#xbd;" horiz-adv-x="798" 
d="M178 650h-86l61 60h99l-92 -432h-61zM11 0l651 710h74l-651 -710h-74zM431 31q9 39 27.5 66.5t43.5 47t53.5 34.5t55.5 29q50 27 73.5 51.5t23.5 59.5q0 28 -19.5 44.5t-48.5 16.5q-32 0 -58 -19.5t-31 -58.5h-62q3 34 17 59.5t35 43t47.5 26.5t56.5 9q24 0 47 -8
t40.5 -23t28 -36.5t10.5 -48.5q0 -30 -7 -52.5t-22.5 -41.5t-40.5 -36.5t-60 -36.5q-18 -10 -37 -19.5t-36.5 -21t-30.5 -25t-19 -31.5h204l-13 -59h-284z" />
    <glyph glyph-name="threequarters" unicode="&#xbe;" horiz-adv-x="918" 
d="M216 271q-28 0 -55.5 9.5t-48.5 27.5t-33.5 44t-9.5 60h60q-1 -20 6.5 -35t19.5 -25.5t28 -15.5t33 -5q39 0 63 21.5t24 59.5q0 29 -18.5 46t-52.5 17h-45l12 54h33q35 0 61 18t26 53q0 26 -19.5 41.5t-48.5 15.5q-15 0 -30 -4.5t-27.5 -14.5t-22 -24.5t-12.5 -34.5h-62
q4 34 18.5 59.5t36 43t48 26.5t55.5 9q24 0 47 -7.5t40.5 -22t28 -35t10.5 -46.5q0 -38 -19.5 -65.5t-52.5 -41.5q27 -14 40.5 -38t13.5 -53q0 -27 -9.5 -52t-28 -44t-46 -30t-63.5 -11zM114 0l651 710h74l-651 -710h-74zM743 113h-226l11 49l290 271h54l-56 -263h59
l-12 -57h-59l-24 -112h-61zM755 170l34 161l-173 -161h139z" />
    <glyph glyph-name="questiondown" unicode="&#xbf;" horiz-adv-x="496" 
d="M165 -220q-41 0 -75.5 13.5t-59.5 36.5t-38.5 55t-13.5 70q0 36 11.5 65.5t32 55t48 47.5t59.5 43q29 19 58 44.5t40 62.5h74q-6 -27 -20.5 -50.5t-32.5 -42.5t-37 -33.5t-34 -24.5q-62 -41 -94.5 -80t-32.5 -81q0 -50 33 -81.5t90 -31.5q28 0 56 9t51 27.5t38 46
t18 63.5h70q-3 -48 -22.5 -87.5t-51 -67.5t-74 -43.5t-93.5 -15.5zM299 376q-28 0 -47 20t-19 47t19 47t47 20t47 -20t19 -47t-19 -47t-47 -20z" />
    <glyph glyph-name="Agrave" unicode="&#xc0;" horiz-adv-x="709" 
d="M416 710h61l166 -710h-73l-52 221h-339l-145 -221h-85zM225 292h277l-72 311zM412 770l-87 157h91l52 -157h-56z" />
    <glyph glyph-name="Aacute" unicode="&#xc1;" horiz-adv-x="709" 
d="M416 710h61l166 -710h-73l-52 221h-339l-145 -221h-85zM225 292h277l-72 311zM549 927h96l-141 -157h-64z" />
    <glyph glyph-name="Acircumflex" unicode="&#xc2;" horiz-adv-x="709" 
d="M416 710h61l166 -710h-73l-52 221h-339l-145 -221h-85zM225 292h277l-72 311zM314 841l173 87l144 -98l-13 -62l-136 92l-184 -92z" />
    <glyph glyph-name="Atilde" unicode="&#xc3;" horiz-adv-x="709" 
d="M416 710h61l166 -710h-73l-52 221h-339l-145 -221h-85zM225 292h277l-72 311zM298 804q11 42 43.5 65.5t71.5 23.5q19 0 37 -6.5t34 -15t30.5 -15t26.5 -6.5q32 0 51 43h61l-4 -16q-11 -42 -43.5 -65.5t-71.5 -23.5q-19 0 -37 6.5t-34 15t-30.5 15t-26.5 6.5
q-32 0 -51 -43h-61z" />
    <glyph glyph-name="Adieresis" unicode="&#xc4;" horiz-adv-x="709" 
d="M416 710h61l166 -710h-73l-52 221h-339l-145 -221h-85zM225 292h277l-72 311zM363 789q-23 0 -38.5 15.5t-15.5 37.5t15.5 37.5t38.5 15.5q22 0 37 -15.5t15 -37.5t-15 -37.5t-37 -15.5zM585 789q-23 0 -38.5 15.5t-15.5 37.5t15.5 37.5t38.5 15.5q22 0 37 -15.5
t15 -37.5t-15 -37.5t-37 -15.5z" />
    <glyph glyph-name="Aring" unicode="&#xc5;" horiz-adv-x="709" 
d="M416 710h61l166 -710h-73l-52 221h-339l-145 -221h-85zM225 292h277l-72 311zM479 753q-25 0 -47 9.5t-38.5 26t-26 38t-9.5 46.5t9.5 46.5t26 38t38.5 26t47 9.5t47 -9.5t38.5 -26t26.5 -38t10 -46.5t-10 -46.5t-26.5 -38t-38.5 -26t-47 -9.5zM479 800q31 0 52.5 21
t21.5 52q0 30 -21.5 52t-52.5 22q-30 0 -51.5 -22t-21.5 -52q0 -31 21.5 -52t51.5 -21z" />
    <glyph glyph-name="AE" unicode="&#xc6;" horiz-adv-x="912" 
d="M447 221h-254l-182 -221h-88l584 710h449l-15 -72h-329l-51 -237h269l-15 -72h-269l-55 -257h329l-15 -72h-405zM462 292l73 346l-284 -346h211z" />
    <glyph glyph-name="Ccedilla" unicode="&#xc7;" horiz-adv-x="793" 
d="M396 -12q-75 0 -136 26t-104.5 70.5t-67 104t-23.5 126.5q0 84 28.5 158t81.5 129.5t128 87.5t169 32q61 0 113.5 -19t93 -52t67 -77.5t37.5 -95.5h-80q-10 37 -30.5 68.5t-51.5 54.5t-70.5 36t-86.5 13q-69 0 -128 -25.5t-102 -70t-67.5 -104t-24.5 -127.5
q0 -57 17.5 -105t51 -83t83 -55t113.5 -20q93 0 162.5 47t109.5 125h80q-21 -54 -54.5 -99t-79 -77t-103 -50t-126.5 -18zM252 -154q17 -8 37 -11.5t39 -3.5q32 0 54.5 13t22.5 34q0 28 -41 28q-12 0 -24.5 -2.5t-24.5 -7.5l-27 21l67 86h55l-44 -56q12 4 20.5 5t16.5 1
q29 0 46.5 -18t17.5 -45q0 -55 -39.5 -82t-102.5 -27q-19 0 -42 3.5t-42 11.5z" />
    <glyph glyph-name="Egrave" unicode="&#xc8;" horiz-adv-x="553" 
d="M192 710h405l-15 -72h-329l-51 -237h269l-15 -72h-269l-55 -257h329l-15 -72h-405zM360 770l-87 157h91l52 -157h-56z" />
    <glyph glyph-name="Eacute" unicode="&#xc9;" horiz-adv-x="553" 
d="M192 710h405l-15 -72h-329l-51 -237h269l-15 -72h-269l-55 -257h329l-15 -72h-405zM497 927h96l-141 -157h-64z" />
    <glyph glyph-name="Ecircumflex" unicode="&#xca;" horiz-adv-x="553" 
d="M192 710h405l-15 -72h-329l-51 -237h269l-15 -72h-269l-55 -257h329l-15 -72h-405zM262 841l173 87l144 -98l-13 -62l-136 92l-184 -92z" />
    <glyph glyph-name="Edieresis" unicode="&#xcb;" horiz-adv-x="553" 
d="M192 710h405l-15 -72h-329l-51 -237h269l-15 -72h-269l-55 -257h329l-15 -72h-405zM311 789q-23 0 -38.5 15.5t-15.5 37.5t15.5 37.5t38.5 15.5q22 0 37 -15.5t15 -37.5t-15 -37.5t-37 -15.5zM533 789q-23 0 -38.5 15.5t-15.5 37.5t15.5 37.5t38.5 15.5q22 0 37 -15.5
t15 -37.5t-15 -37.5t-37 -15.5z" />
    <glyph glyph-name="Igrave" unicode="&#xcc;" horiz-adv-x="276" 
d="M192 710h76l-151 -710h-76zM196 770l-87 157h91l52 -157h-56z" />
    <glyph glyph-name="Iacute" unicode="&#xcd;" horiz-adv-x="276" 
d="M192 710h76l-151 -710h-76zM333 927h96l-141 -157h-64z" />
    <glyph glyph-name="Icircumflex" unicode="&#xce;" horiz-adv-x="276" 
d="M192 710h76l-151 -710h-76zM98 841l173 87l144 -98l-13 -62l-136 92l-184 -92z" />
    <glyph glyph-name="Idieresis" unicode="&#xcf;" horiz-adv-x="276" 
d="M192 710h76l-151 -710h-76zM147 789q-23 0 -38.5 15.5t-15.5 37.5t15.5 37.5t38.5 15.5q22 0 37 -15.5t15 -37.5t-15 -37.5t-37 -15.5zM369 789q-23 0 -38.5 15.5t-15.5 37.5t15.5 37.5t38.5 15.5q22 0 37 -15.5t15 -37.5t-15 -37.5t-37 -15.5z" />
    <glyph glyph-name="Eth" unicode="&#xd0;" horiz-adv-x="729" 
d="M296 72q69 0 128 24t102.5 66t68.5 99.5t25 125.5q0 57 -17.5 103t-51.5 79t-83 51t-113 18h-97l-121 -566h159zM197 710h169q75 0 136 -24t104 -66.5t66.5 -100t23.5 -124.5q0 -83 -29 -155t-82 -125t-129.5 -84t-170.5 -31h-239zM56 394h320l-14 -68h-320z" />
    <glyph glyph-name="Ntilde" unicode="&#xd1;" horiz-adv-x="796" 
d="M570 0l-328 589l-125 -589h-76l151 710h67l327 -590l126 590h76l-151 -710h-67zM337 804q11 42 43.5 65.5t71.5 23.5q19 0 37 -6.5t34 -15t30.5 -15t26.5 -6.5q32 0 51 43h61l-4 -16q-11 -42 -43.5 -65.5t-71.5 -23.5q-19 0 -37 6.5t-34 15t-30.5 15t-26.5 6.5
q-32 0 -51 -43h-61z" />
    <glyph glyph-name="Ograve" unicode="&#xd2;" horiz-adv-x="834" 
d="M404 60q69 0 127.5 25.5t101.5 70t67.5 104t24.5 127.5q0 57 -17 105t-50 83t-82 55t-113 20q-69 0 -127.5 -25.5t-101.5 -70t-67 -104t-24 -127.5q0 -57 16.5 -105t49.5 -83t82 -55t113 -20zM393 -12q-75 0 -135.5 26t-103 70.5t-65.5 104t-23 126.5q0 84 28 158
t81 129.5t128.5 87.5t170.5 32q75 0 135.5 -26t103 -70.5t65.5 -104t23 -126.5q0 -84 -28.5 -158t-81 -129.5t-128.5 -87.5t-170 -32zM463 770l-87 157h91l52 -157h-56z" />
    <glyph glyph-name="Oacute" unicode="&#xd3;" horiz-adv-x="834" 
d="M404 60q69 0 127.5 25.5t101.5 70t67.5 104t24.5 127.5q0 57 -17 105t-50 83t-82 55t-113 20q-69 0 -127.5 -25.5t-101.5 -70t-67 -104t-24 -127.5q0 -57 16.5 -105t49.5 -83t82 -55t113 -20zM393 -12q-75 0 -135.5 26t-103 70.5t-65.5 104t-23 126.5q0 84 28 158
t81 129.5t128.5 87.5t170.5 32q75 0 135.5 -26t103 -70.5t65.5 -104t23 -126.5q0 -84 -28.5 -158t-81 -129.5t-128.5 -87.5t-170 -32zM600 927h96l-141 -157h-64z" />
    <glyph glyph-name="Ocircumflex" unicode="&#xd4;" horiz-adv-x="834" 
d="M404 60q69 0 127.5 25.5t101.5 70t67.5 104t24.5 127.5q0 57 -17 105t-50 83t-82 55t-113 20q-69 0 -127.5 -25.5t-101.5 -70t-67 -104t-24 -127.5q0 -57 16.5 -105t49.5 -83t82 -55t113 -20zM393 -12q-75 0 -135.5 26t-103 70.5t-65.5 104t-23 126.5q0 84 28 158
t81 129.5t128.5 87.5t170.5 32q75 0 135.5 -26t103 -70.5t65.5 -104t23 -126.5q0 -84 -28.5 -158t-81 -129.5t-128.5 -87.5t-170 -32zM365 841l173 87l144 -98l-13 -62l-136 92l-184 -92z" />
    <glyph glyph-name="Otilde" unicode="&#xd5;" horiz-adv-x="834" 
d="M404 60q69 0 127.5 25.5t101.5 70t67.5 104t24.5 127.5q0 57 -17 105t-50 83t-82 55t-113 20q-69 0 -127.5 -25.5t-101.5 -70t-67 -104t-24 -127.5q0 -57 16.5 -105t49.5 -83t82 -55t113 -20zM393 -12q-75 0 -135.5 26t-103 70.5t-65.5 104t-23 126.5q0 84 28 158
t81 129.5t128.5 87.5t170.5 32q75 0 135.5 -26t103 -70.5t65.5 -104t23 -126.5q0 -84 -28.5 -158t-81 -129.5t-128.5 -87.5t-170 -32zM349 804q11 42 43.5 65.5t71.5 23.5q19 0 37 -6.5t34 -15t30.5 -15t26.5 -6.5q32 0 51 43h61l-4 -16q-11 -42 -43.5 -65.5t-71.5 -23.5
q-19 0 -37 6.5t-34 15t-30.5 15t-26.5 6.5q-32 0 -51 -43h-61z" />
    <glyph glyph-name="Odieresis" unicode="&#xd6;" horiz-adv-x="834" 
d="M404 60q69 0 127.5 25.5t101.5 70t67.5 104t24.5 127.5q0 57 -17 105t-50 83t-82 55t-113 20q-69 0 -127.5 -25.5t-101.5 -70t-67 -104t-24 -127.5q0 -57 16.5 -105t49.5 -83t82 -55t113 -20zM393 -12q-75 0 -135.5 26t-103 70.5t-65.5 104t-23 126.5q0 84 28 158
t81 129.5t128.5 87.5t170.5 32q75 0 135.5 -26t103 -70.5t65.5 -104t23 -126.5q0 -84 -28.5 -158t-81 -129.5t-128.5 -87.5t-170 -32zM414 789q-23 0 -38.5 15.5t-15.5 37.5t15.5 37.5t38.5 15.5q22 0 37 -15.5t15 -37.5t-15 -37.5t-37 -15.5zM636 789q-23 0 -38.5 15.5
t-15.5 37.5t15.5 37.5t38.5 15.5q22 0 37 -15.5t15 -37.5t-15 -37.5t-37 -15.5z" />
    <glyph glyph-name="multiply" unicode="&#xd7;" horiz-adv-x="519" 
d="M69 145l147 145l-147 145l47 46l147 -144l147 144l47 -46l-147 -145l147 -145l-47 -46l-147 144l-147 -144z" />
    <glyph glyph-name="Oslash" unicode="&#xd8;" horiz-adv-x="834" 
d="M404 60q69 0 127.5 25.5t101.5 70t67.5 104t24.5 127.5q0 57 -17 105t-50 83t-82 55t-113 20q-69 0 -127.5 -25.5t-101.5 -70t-67 -104t-24 -127.5q0 -57 16.5 -105t49.5 -83t82 -55t113 -20zM393 -12q-75 0 -135.5 26t-103 70.5t-65.5 104t-23 126.5q0 84 28 158
t81 129.5t128.5 87.5t170.5 32q75 0 135.5 -26t103 -70.5t65.5 -104t23 -126.5q0 -84 -28.5 -158t-81 -129.5t-128.5 -87.5t-170 -32zM72 -20l-41 43l767 707l41 -44z" />
    <glyph glyph-name="Ugrave" unicode="&#xd9;" horiz-adv-x="729" 
d="M637 269q-28 -133 -104 -207t-212 -74q-63 0 -112 19.5t-80.5 56.5t-42.5 88.5t3 116.5l93 441h76l-93 -442q-11 -51 -4.5 -90t27.5 -65.5t55.5 -39.5t80.5 -13q91 0 153 52.5t84 155.5l93 442h76zM423 770l-87 157h91l52 -157h-56z" />
    <glyph glyph-name="Uacute" unicode="&#xda;" horiz-adv-x="729" 
d="M637 269q-28 -133 -104 -207t-212 -74q-63 0 -112 19.5t-80.5 56.5t-42.5 88.5t3 116.5l93 441h76l-93 -442q-11 -51 -4.5 -90t27.5 -65.5t55.5 -39.5t80.5 -13q91 0 153 52.5t84 155.5l93 442h76zM560 927h96l-141 -157h-64z" />
    <glyph glyph-name="Ucircumflex" unicode="&#xdb;" horiz-adv-x="729" 
d="M637 269q-28 -133 -104 -207t-212 -74q-63 0 -112 19.5t-80.5 56.5t-42.5 88.5t3 116.5l93 441h76l-93 -442q-11 -51 -4.5 -90t27.5 -65.5t55.5 -39.5t80.5 -13q91 0 153 52.5t84 155.5l93 442h76zM325 841l173 87l144 -98l-13 -62l-136 92l-184 -92z" />
    <glyph glyph-name="Udieresis" unicode="&#xdc;" horiz-adv-x="729" 
d="M637 269q-28 -133 -104 -207t-212 -74q-63 0 -112 19.5t-80.5 56.5t-42.5 88.5t3 116.5l93 441h76l-93 -442q-11 -51 -4.5 -90t27.5 -65.5t55.5 -39.5t80.5 -13q91 0 153 52.5t84 155.5l93 442h76zM374 789q-23 0 -38.5 15.5t-15.5 37.5t15.5 37.5t38.5 15.5
q22 0 37 -15.5t15 -37.5t-15 -37.5t-37 -15.5zM596 789q-23 0 -38.5 15.5t-15.5 37.5t15.5 37.5t38.5 15.5q22 0 37 -15.5t15 -37.5t-15 -37.5t-37 -15.5z" />
    <glyph glyph-name="Yacute" unicode="&#xdd;" horiz-adv-x="666" 
d="M300 301l-193 409h83l158 -334l299 334h96l-368 -410l-64 -300h-75zM522 927h96l-141 -157h-64z" />
    <glyph glyph-name="Thorn" unicode="&#xde;" horiz-adv-x="594" 
d="M192 710h76l-28 -133h120q53 0 92 -16t65 -43t39 -62.5t13 -74.5q0 -52 -19 -97t-56 -78.5t-91.5 -52.5t-124.5 -19h-132l-29 -134h-76zM294 203q46 0 83 14t63 38t40 56.5t14 68.5q0 25 -8 48t-25.5 40.5t-44 27.5t-62.5 10h-129l-65 -303h134z" />
    <glyph glyph-name="germandbls" unicode="&#xdf;" horiz-adv-x="573" 
d="M156 573q18 84 74 133.5t145 49.5q38 0 70.5 -13.5t56 -37t36.5 -55.5t13 -69q0 -64 -33.5 -117.5t-97.5 -76.5q27 -14 46 -33.5t30.5 -42t16.5 -45.5t5 -43q0 -50 -17.5 -91t-51.5 -70.5t-84.5 -45.5t-116.5 -16h-55l14 67h52q42 0 77 11t60 31t39 49t14 65q0 58 -39 96
t-108 38h-29l14 67h28q35 0 65 11t52.5 30.5t35 46t12.5 58.5q0 52 -29 85.5t-83 33.5q-55 0 -93.5 -34t-50.5 -91l-120 -564h-70z" />
    <glyph glyph-name="agrave" unicode="&#xe0;" horiz-adv-x="636" 
d="M265 -10q-45 0 -85 15t-70 44.5t-48 72t-18 96.5q0 60 20.5 113t59 92.5t92 63t119.5 23.5q33 0 61.5 -9t51 -23.5t39 -33.5t25.5 -39l20 95h70l-106 -500h-70l16 69q-13 -18 -33 -33t-43.5 -25t-49.5 -15.5t-51 -5.5zM274 55q43 0 82.5 16t69 45t47 70t17.5 91
q0 42 -12 73.5t-33 52.5t-50 31.5t-63 10.5q-44 0 -83 -16t-68.5 -45t-47 -70t-17.5 -91q0 -42 12 -73.5t33 -52.5t50 -31.5t63 -10.5zM350 578l-60 152h83l30 -152h-53z" />
    <glyph glyph-name="aacute" unicode="&#xe1;" horiz-adv-x="636" 
d="M265 -10q-45 0 -85 15t-70 44.5t-48 72t-18 96.5q0 60 20.5 113t59 92.5t92 63t119.5 23.5q33 0 61.5 -9t51 -23.5t39 -33.5t25.5 -39l20 95h70l-106 -500h-70l16 69q-13 -18 -33 -33t-43.5 -25t-49.5 -15.5t-51 -5.5zM274 55q43 0 82.5 16t69 45t47 70t17.5 91
q0 42 -12 73.5t-33 52.5t-50 31.5t-63 10.5q-44 0 -83 -16t-68.5 -45t-47 -70t-17.5 -91q0 -42 12 -73.5t33 -52.5t50 -31.5t63 -10.5zM495 730h105l-184 -152h-63z" />
    <glyph glyph-name="acircumflex" unicode="&#xe2;" horiz-adv-x="636" 
d="M265 -10q-45 0 -85 15t-70 44.5t-48 72t-18 96.5q0 60 20.5 113t59 92.5t92 63t119.5 23.5q33 0 61.5 -9t51 -23.5t39 -33.5t25.5 -39l20 95h70l-106 -500h-70l16 69q-13 -18 -33 -33t-43.5 -25t-49.5 -15.5t-51 -5.5zM274 55q43 0 82.5 16t69 45t47 70t17.5 91
q0 42 -12 73.5t-33 52.5t-50 31.5t-63 10.5q-44 0 -83 -16t-68.5 -45t-47 -70t-17.5 -91q0 -42 12 -73.5t33 -52.5t50 -31.5t63 -10.5zM550 649l-13 -65l-127 103l-184 -103l16 73l176 99z" />
    <glyph glyph-name="atilde" unicode="&#xe3;" horiz-adv-x="636" 
d="M265 -10q-45 0 -85 15t-70 44.5t-48 72t-18 96.5q0 60 20.5 113t59 92.5t92 63t119.5 23.5q33 0 61.5 -9t51 -23.5t39 -33.5t25.5 -39l20 95h70l-106 -500h-70l16 69q-13 -18 -33 -33t-43.5 -25t-49.5 -15.5t-51 -5.5zM274 55q43 0 82.5 16t69 45t47 70t17.5 91
q0 42 -12 73.5t-33 52.5t-50 31.5t-63 10.5q-44 0 -83 -16t-68.5 -45t-47 -70t-17.5 -91q0 -42 12 -73.5t33 -52.5t50 -31.5t63 -10.5zM575 705l-4 -16q-6 -23 -17.5 -39.5t-27 -27.5t-34 -16.5t-36.5 -5.5q-20 0 -37 6.5t-32 15t-29 15t-29 6.5q-16 0 -29.5 -9.5
t-22.5 -33.5h-61l4 16q6 23 17.5 39.5t27 27.5t34 16.5t36.5 5.5q20 0 37 -6.5t32 -15t29 -15t29 -6.5q16 0 29.5 9.5t22.5 33.5h61z" />
    <glyph glyph-name="adieresis" unicode="&#xe4;" horiz-adv-x="636" 
d="M265 -10q-45 0 -85 15t-70 44.5t-48 72t-18 96.5q0 60 20.5 113t59 92.5t92 63t119.5 23.5q33 0 61.5 -9t51 -23.5t39 -33.5t25.5 -39l20 95h70l-106 -500h-70l16 69q-13 -18 -33 -33t-43.5 -25t-49.5 -15.5t-51 -5.5zM274 55q43 0 82.5 16t69 45t47 70t17.5 91
q0 42 -12 73.5t-33 52.5t-50 31.5t-63 10.5q-44 0 -83 -16t-68.5 -45t-47 -70t-17.5 -91q0 -42 12 -73.5t33 -52.5t50 -31.5t63 -10.5zM285 602q-23 0 -38.5 15.5t-15.5 37.5t15.5 37.5t38.5 15.5q22 0 37 -15.5t15 -37.5t-15 -37.5t-37 -15.5zM507 602q-23 0 -38.5 15.5
t-15.5 37.5t15.5 37.5t38.5 15.5q22 0 37 -15.5t15 -37.5t-15 -37.5t-37 -15.5z" />
    <glyph glyph-name="aring" unicode="&#xe5;" horiz-adv-x="636" 
d="M265 -10q-45 0 -85 15t-70 44.5t-48 72t-18 96.5q0 60 20.5 113t59 92.5t92 63t119.5 23.5q33 0 61.5 -9t51 -23.5t39 -33.5t25.5 -39l20 95h70l-106 -500h-70l16 69q-13 -18 -33 -33t-43.5 -25t-49.5 -15.5t-51 -5.5zM274 55q43 0 82.5 16t69 45t47 70t17.5 91
q0 42 -12 73.5t-33 52.5t-50 31.5t-63 10.5q-44 0 -83 -16t-68.5 -45t-47 -70t-17.5 -91q0 -42 12 -73.5t33 -52.5t50 -31.5t63 -10.5zM396 543q-25 0 -47 9.5t-38.5 26t-26 38t-9.5 46.5t9.5 46.5t26 38t38.5 26t47 9.5t47 -9.5t38.5 -26t26.5 -38t10 -46.5t-10 -46.5
t-26.5 -38t-38.5 -26t-47 -9.5zM396 590q31 0 52.5 21t21.5 52q0 30 -21.5 52t-52.5 22q-30 0 -51.5 -22t-21.5 -52q0 -31 21.5 -52t51.5 -21z" />
    <glyph glyph-name="ae" unicode="&#xe6;" horiz-adv-x="916" 
d="M602 -10q-65 0 -116.5 30.5t-80.5 86.5q-13 -24 -31 -44.5t-42.5 -36t-57 -24t-74.5 -8.5q-81 0 -128.5 37t-47.5 104q0 37 15 62.5t45.5 43.5t76 30t106.5 21q33 5 56.5 8t39 8.5t24.5 14t13 24.5q9 42 -20 70t-95 28q-50 0 -89.5 -26.5t-47.5 -81.5h-72q4 39 22 70.5
t46.5 54.5t66 35.5t81.5 12.5q54 0 97.5 -21t63.5 -66q37 40 88 63.5t114 23.5q54 0 98.5 -18.5t73.5 -54t41 -88t1 -119.5h-421q-1 -38 9.5 -70.5t31.5 -55.5t51 -36t68 -13q24 0 48 5t46 16.5t41 29t32 43.5h74q-12 -31 -32.5 -60t-51 -51t-71 -35t-92.5 -13zM648 445
q-31 0 -60.5 -9.5t-54 -29t-43 -48.5t-27.5 -67h337q2 70 -38.5 112t-113.5 42zM380 247q0 7 1 10q-11 -5 -30 -9.5t-40 -8t-41.5 -7.5t-34.5 -7q-39 -9 -64.5 -17.5t-40.5 -19t-20.5 -23.5t-5.5 -32q0 -37 31.5 -57.5t79.5 -20.5q59 0 98.5 30t52.5 93z" />
    <glyph glyph-name="ccedilla" unicode="&#xe7;" horiz-adv-x="595" 
d="M289 -10q-60 0 -105 20t-75.5 53.5t-46 77.5t-15.5 92q0 56 19 106t55 88t87.5 60.5t116.5 22.5q49 0 89 -14t70 -38.5t49.5 -57.5t28.5 -71h-76q-17 56 -60.5 86t-105.5 30q-44 0 -80.5 -16t-63.5 -44t-42 -65.5t-15 -80.5t12.5 -77t36 -58t55.5 -36.5t71 -12.5
q63 0 110.5 32t70.5 84h76q-13 -39 -36.5 -72t-57 -57.5t-75.5 -38t-93 -13.5zM154 -153q16 -8 36.5 -12t38.5 -4q34 0 56 12t22 33q0 13 -10.5 21.5t-30.5 8.5q-12 0 -24.5 -2.5t-24.5 -7.5l-27 21l67 86h55l-44 -56q15 6 32 6q33 0 51 -20.5t18 -48.5t-10.5 -47.5
t-29.5 -32t-44.5 -18t-55.5 -5.5q-22 0 -46 4t-40 11z" />
    <glyph glyph-name="egrave" unicode="&#xe8;" horiz-adv-x="582" 
d="M268 -10q-47 0 -87.5 16.5t-70.5 47t-47.5 74.5t-17.5 98q0 58 20.5 110t57 90.5t87 61t111.5 22.5q54 0 98.5 -18.5t73.5 -54t41 -88t1 -119.5h-421q-1 -38 9.5 -70.5t31.5 -55.5t51 -36t68 -13q24 0 48 5t46 16.5t41 29t32 43.5h74q-12 -31 -32.5 -60t-51 -51t-71 -35
t-92.5 -13zM314 445q-31 0 -60.5 -9.5t-54 -29t-43 -48.5t-27.5 -67h337q2 70 -38.5 112t-113.5 42zM319 578l-60 152h83l30 -152h-53z" />
    <glyph glyph-name="eacute" unicode="&#xe9;" horiz-adv-x="582" 
d="M268 -10q-47 0 -87.5 16.5t-70.5 47t-47.5 74.5t-17.5 98q0 58 20.5 110t57 90.5t87 61t111.5 22.5q54 0 98.5 -18.5t73.5 -54t41 -88t1 -119.5h-421q-1 -38 9.5 -70.5t31.5 -55.5t51 -36t68 -13q24 0 48 5t46 16.5t41 29t32 43.5h74q-12 -31 -32.5 -60t-51 -51t-71 -35
t-92.5 -13zM314 445q-31 0 -60.5 -9.5t-54 -29t-43 -48.5t-27.5 -67h337q2 70 -38.5 112t-113.5 42zM464 730h105l-184 -152h-63z" />
    <glyph glyph-name="ecircumflex" unicode="&#xea;" horiz-adv-x="582" 
d="M268 -10q-47 0 -87.5 16.5t-70.5 47t-47.5 74.5t-17.5 98q0 58 20.5 110t57 90.5t87 61t111.5 22.5q54 0 98.5 -18.5t73.5 -54t41 -88t1 -119.5h-421q-1 -38 9.5 -70.5t31.5 -55.5t51 -36t68 -13q24 0 48 5t46 16.5t41 29t32 43.5h74q-12 -31 -32.5 -60t-51 -51t-71 -35
t-92.5 -13zM314 445q-31 0 -60.5 -9.5t-54 -29t-43 -48.5t-27.5 -67h337q2 70 -38.5 112t-113.5 42zM519 649l-13 -65l-127 103l-184 -103l16 73l176 99z" />
    <glyph glyph-name="edieresis" unicode="&#xeb;" horiz-adv-x="582" 
d="M268 -10q-47 0 -87.5 16.5t-70.5 47t-47.5 74.5t-17.5 98q0 58 20.5 110t57 90.5t87 61t111.5 22.5q54 0 98.5 -18.5t73.5 -54t41 -88t1 -119.5h-421q-1 -38 9.5 -70.5t31.5 -55.5t51 -36t68 -13q24 0 48 5t46 16.5t41 29t32 43.5h74q-12 -31 -32.5 -60t-51 -51t-71 -35
t-92.5 -13zM314 445q-31 0 -60.5 -9.5t-54 -29t-43 -48.5t-27.5 -67h337q2 70 -38.5 112t-113.5 42zM254 602q-23 0 -38.5 15.5t-15.5 37.5t15.5 37.5t38.5 15.5q22 0 37 -15.5t15 -37.5t-15 -37.5t-37 -15.5zM476 602q-23 0 -38.5 15.5t-15.5 37.5t15.5 37.5t38.5 15.5
q22 0 37 -15.5t15 -37.5t-15 -37.5t-37 -15.5z" />
    <glyph glyph-name="igrave" unicode="&#xec;" horiz-adv-x="244" 
d="M140 500h70l-106 -500h-70zM162 578l-60 152h83l30 -152h-53z" />
    <glyph glyph-name="iacute" unicode="&#xed;" horiz-adv-x="244" 
d="M140 500h70l-106 -500h-70zM307 730h105l-184 -152h-63z" />
    <glyph glyph-name="icircumflex" unicode="&#xee;" horiz-adv-x="244" 
d="M140 500h70l-106 -500h-70zM362 649l-13 -65l-127 103l-184 -103l16 73l176 99z" />
    <glyph glyph-name="idieresis" unicode="&#xef;" horiz-adv-x="244" 
d="M140 500h70l-106 -500h-70zM109 602q-23 0 -39.5 16.5t-16.5 39.5t16.5 39t39.5 16t39.5 -16t16.5 -39t-16.5 -39.5t-39.5 -16.5zM307 602q-23 0 -39.5 16.5t-16.5 39.5t16.5 39t39.5 16t39.5 -16t16.5 -39t-16.5 -39.5t-39.5 -16.5z" />
    <glyph glyph-name="eth" unicode="&#xf0;" horiz-adv-x="614" 
d="M536 396q20 -43 25.5 -73t5.5 -55q0 -56 -19 -106.5t-55 -88.5t-87.5 -60.5t-116.5 -22.5q-60 0 -105 20t-75.5 53.5t-46 77.5t-15.5 92q0 56 19 106t55 88t87.5 60.5t116.5 22.5q24 0 50.5 -5.5t43.5 -13.5l-41 87h-149l13 61h108l-52 111h72l52 -111h126l-13 -61h-85z
M294 55q43 0 80 16.5t64 44.5t42 65.5t15 80.5t-12.5 77t-36 57.5t-55.5 36t-71 12.5q-44 0 -80.5 -16t-63.5 -44t-42 -65.5t-15 -80.5t12.5 -77t36 -58t55.5 -36.5t71 -12.5z" />
    <glyph glyph-name="ntilde" unicode="&#xf1;" horiz-adv-x="587" 
d="M140 500h70l-15 -68q35 44 79.5 61t88.5 17q42 0 76 -16t55 -45t28 -69t-3 -89l-63 -291h-70l62 290q16 74 -12.5 114.5t-88.5 40.5q-32 0 -61 -11t-53.5 -33t-43 -56t-28.5 -79l-57 -266h-70zM563 705l-4 -16q-6 -23 -17.5 -39.5t-27 -27.5t-34 -16.5t-36.5 -5.5
q-20 0 -37 6.5t-32 15t-29 15t-29 6.5q-16 0 -29.5 -9.5t-22.5 -33.5h-61l4 16q6 23 17.5 39.5t27 27.5t34 16.5t36.5 5.5q20 0 37 -6.5t32 -15t29 -15t29 -6.5q16 0 29.5 9.5t22.5 33.5h61z" />
    <glyph glyph-name="ograve" unicode="&#xf2;" horiz-adv-x="613" 
d="M294 55q43 0 80 16.5t64 44.5t42 65.5t15 80.5t-12.5 77t-36 57.5t-55.5 36t-71 12.5q-44 0 -80.5 -16t-63.5 -44t-42 -65.5t-15 -80.5t12.5 -77t36 -58t55.5 -36.5t71 -12.5zM289 -10q-60 0 -105 20t-75.5 53.5t-46 77.5t-15.5 92q0 56 19 106t55 88t87.5 60.5
t116.5 22.5q60 0 105 -20t75.5 -53t46 -77t15.5 -92q0 -56 -19 -106.5t-55 -88.5t-87.5 -60.5t-116.5 -22.5zM344 578l-60 152h83l30 -152h-53z" />
    <glyph glyph-name="oacute" unicode="&#xf3;" horiz-adv-x="613" 
d="M294 55q43 0 80 16.5t64 44.5t42 65.5t15 80.5t-12.5 77t-36 57.5t-55.5 36t-71 12.5q-44 0 -80.5 -16t-63.5 -44t-42 -65.5t-15 -80.5t12.5 -77t36 -58t55.5 -36.5t71 -12.5zM289 -10q-60 0 -105 20t-75.5 53.5t-46 77.5t-15.5 92q0 56 19 106t55 88t87.5 60.5
t116.5 22.5q60 0 105 -20t75.5 -53t46 -77t15.5 -92q0 -56 -19 -106.5t-55 -88.5t-87.5 -60.5t-116.5 -22.5zM489 730h105l-184 -152h-63z" />
    <glyph glyph-name="ocircumflex" unicode="&#xf4;" horiz-adv-x="613" 
d="M294 55q43 0 80 16.5t64 44.5t42 65.5t15 80.5t-12.5 77t-36 57.5t-55.5 36t-71 12.5q-44 0 -80.5 -16t-63.5 -44t-42 -65.5t-15 -80.5t12.5 -77t36 -58t55.5 -36.5t71 -12.5zM289 -10q-60 0 -105 20t-75.5 53.5t-46 77.5t-15.5 92q0 56 19 106t55 88t87.5 60.5
t116.5 22.5q60 0 105 -20t75.5 -53t46 -77t15.5 -92q0 -56 -19 -106.5t-55 -88.5t-87.5 -60.5t-116.5 -22.5zM544 649l-13 -65l-127 103l-184 -103l16 73l176 99z" />
    <glyph glyph-name="otilde" unicode="&#xf5;" horiz-adv-x="613" 
d="M294 55q43 0 80 16.5t64 44.5t42 65.5t15 80.5t-12.5 77t-36 57.5t-55.5 36t-71 12.5q-44 0 -80.5 -16t-63.5 -44t-42 -65.5t-15 -80.5t12.5 -77t36 -58t55.5 -36.5t71 -12.5zM289 -10q-60 0 -105 20t-75.5 53.5t-46 77.5t-15.5 92q0 56 19 106t55 88t87.5 60.5
t116.5 22.5q60 0 105 -20t75.5 -53t46 -77t15.5 -92q0 -56 -19 -106.5t-55 -88.5t-87.5 -60.5t-116.5 -22.5zM569 705l-4 -16q-6 -23 -17.5 -39.5t-27 -27.5t-34 -16.5t-36.5 -5.5q-20 0 -37 6.5t-32 15t-29 15t-29 6.5q-16 0 -29.5 -9.5t-22.5 -33.5h-61l4 16
q6 23 17.5 39.5t27 27.5t34 16.5t36.5 5.5q20 0 37 -6.5t32 -15t29 -15t29 -6.5q16 0 29.5 9.5t22.5 33.5h61z" />
    <glyph glyph-name="odieresis" unicode="&#xf6;" horiz-adv-x="613" 
d="M294 55q43 0 80 16.5t64 44.5t42 65.5t15 80.5t-12.5 77t-36 57.5t-55.5 36t-71 12.5q-44 0 -80.5 -16t-63.5 -44t-42 -65.5t-15 -80.5t12.5 -77t36 -58t55.5 -36.5t71 -12.5zM289 -10q-60 0 -105 20t-75.5 53.5t-46 77.5t-15.5 92q0 56 19 106t55 88t87.5 60.5
t116.5 22.5q60 0 105 -20t75.5 -53t46 -77t15.5 -92q0 -56 -19 -106.5t-55 -88.5t-87.5 -60.5t-116.5 -22.5zM279 602q-23 0 -38.5 15.5t-15.5 37.5t15.5 37.5t38.5 15.5q22 0 37 -15.5t15 -37.5t-15 -37.5t-37 -15.5zM501 602q-23 0 -38.5 15.5t-15.5 37.5t15.5 37.5
t38.5 15.5q22 0 37 -15.5t15 -37.5t-15 -37.5t-37 -15.5z" />
    <glyph glyph-name="oslash" unicode="&#xf8;" horiz-adv-x="618" 
d="M295 55q43 0 80 16.5t64 44.5t42 65.5t15 80.5t-12.5 77t-36 57.5t-55.5 36t-71 12.5q-44 0 -80.5 -16t-63.5 -44t-42 -65.5t-15 -80.5t12.5 -77t36 -58t55.5 -36.5t71 -12.5zM290 -10q-60 0 -105 20t-75.5 53.5t-46 77.5t-15.5 92q0 56 19 106t55 88t87.5 60.5
t116.5 22.5q60 0 105 -20t75.5 -53t46 -77t15.5 -92q0 -56 -19 -106.5t-55 -88.5t-87.5 -60.5t-116.5 -22.5zM44 -10l-33 40l575 480l33 -40z" />
    <glyph glyph-name="ugrave" unicode="&#xf9;" horiz-adv-x="578" 
d="M223 -10q-42 0 -75.5 16t-54.5 45t-28 69t4 89l63 291h70l-62 -290q-16 -72 11 -113.5t84 -41.5q63 -1 112.5 44t69.5 135l57 266h70l-106 -500h-70l15 68q-33 -42 -75.5 -60t-84.5 -18zM324 578l-60 152h83l30 -152h-53z" />
    <glyph glyph-name="uacute" unicode="&#xfa;" horiz-adv-x="578" 
d="M223 -10q-42 0 -75.5 16t-54.5 45t-28 69t4 89l63 291h70l-62 -290q-16 -72 11 -113.5t84 -41.5q63 -1 112.5 44t69.5 135l57 266h70l-106 -500h-70l15 68q-33 -42 -75.5 -60t-84.5 -18zM469 730h105l-184 -152h-63z" />
    <glyph glyph-name="ucircumflex" unicode="&#xfb;" horiz-adv-x="578" 
d="M223 -10q-42 0 -75.5 16t-54.5 45t-28 69t4 89l63 291h70l-62 -290q-16 -72 11 -113.5t84 -41.5q63 -1 112.5 44t69.5 135l57 266h70l-106 -500h-70l15 68q-33 -42 -75.5 -60t-84.5 -18zM524 649l-13 -65l-127 103l-184 -103l16 73l176 99z" />
    <glyph glyph-name="udieresis" unicode="&#xfc;" horiz-adv-x="578" 
d="M223 -10q-42 0 -75.5 16t-54.5 45t-28 69t4 89l63 291h70l-62 -290q-16 -72 11 -113.5t84 -41.5q63 -1 112.5 44t69.5 135l57 266h70l-106 -500h-70l15 68q-33 -42 -75.5 -60t-84.5 -18zM259 602q-23 0 -38.5 15.5t-15.5 37.5t15.5 37.5t38.5 15.5q22 0 37 -15.5
t15 -37.5t-15 -37.5t-37 -15.5zM481 602q-23 0 -38.5 15.5t-15.5 37.5t15.5 37.5t38.5 15.5q22 0 37 -15.5t15 -37.5t-15 -37.5t-37 -15.5z" />
    <glyph glyph-name="yacute" unicode="&#xfd;" horiz-adv-x="538" 
d="M182 28l-121 472h74l98 -397l268 397h83l-482 -709h-81zM451 730h105l-184 -152h-63z" />
    <glyph glyph-name="thorn" unicode="&#xfe;" horiz-adv-x="636" 
d="M192 750h69l-67 -319q13 18 33 33t43.5 25t49 15.5t51.5 5.5q45 0 85 -15t70 -44.5t48 -72t18 -96.5q0 -60 -20.5 -113t-59 -92.5t-92 -63t-119.5 -23.5q-33 0 -61.5 9t-51 23.5t-39 33.5t-25.5 39l-64 -304h-70zM304 55q43 0 82.5 16t69 45t47 70t17.5 91q0 42 -12 73.5
t-33 52.5t-50 31.5t-63 10.5q-44 0 -83 -16t-68.5 -45t-47 -70t-17.5 -91q0 -42 12 -73.5t33 -52.5t50 -31.5t63 -10.5z" />
    <glyph glyph-name="ydieresis" unicode="&#xff;" horiz-adv-x="538" 
d="M182 28l-121 472h74l98 -397l268 397h83l-482 -709h-81zM241 602q-23 0 -38.5 15.5t-15.5 37.5t15.5 37.5t38.5 15.5q22 0 37 -15.5t15 -37.5t-15 -37.5t-37 -15.5zM463 602q-23 0 -38.5 15.5t-15.5 37.5t15.5 37.5t38.5 15.5q22 0 37 -15.5t15 -37.5t-15 -37.5
t-37 -15.5z" />
    <glyph glyph-name="Abreve" unicode="&#x102;" horiz-adv-x="709" 
d="M416 710h61l166 -710h-73l-52 221h-339l-145 -221h-85zM225 292h277l-72 311zM470 762q-30 0 -58 10.5t-47.5 30.5t-29 48.5t-1.5 63.5h49q-5 -27 0.5 -46.5t18.5 -32t31.5 -18.5t39.5 -6q48 0 76.5 26.5t39.5 76.5h53q-11 -71 -57.5 -112t-114.5 -41z" />
    <glyph glyph-name="Amacron" unicode="&#x100;" horiz-adv-x="709" 
d="M416 710h61l166 -710h-73l-52 221h-339l-145 -221h-85zM225 292h277l-72 311zM321 870h316l-13 -61h-316z" />
    <glyph glyph-name="Aogonek" unicode="&#x104;" horiz-adv-x="709" 
d="M416 710h61l166 -710q-69 -40 -94.5 -72.5t-25.5 -54.5q0 -14 9.5 -21t25.5 -7t29 4.5t27 14.5l-13 -61q-14 -10 -33.5 -16t-42.5 -6q-33 0 -55 19t-22 53q0 25 11.5 47t29 40.5t39 33.5t42.5 26l-52 221h-339l-145 -221h-85zM225 292h277l-72 311z" />
    <glyph glyph-name="Cacute" unicode="&#x106;" horiz-adv-x="793" 
d="M396 -12q-75 0 -136 26t-104.5 70.5t-67 104t-23.5 126.5q0 84 28.5 158t81.5 129.5t128 87.5t169 32q61 0 113.5 -19t93 -52t67 -77.5t37.5 -95.5h-80q-10 37 -30.5 68.5t-51.5 54.5t-70.5 36t-86.5 13q-69 0 -128 -25.5t-102 -70t-67.5 -104t-24.5 -127.5
q0 -57 17.5 -105t51 -83t83 -55t113.5 -20q93 0 162.5 47t109.5 125h80q-21 -54 -54.5 -99t-79 -77t-103 -50t-126.5 -18zM590 927h96l-141 -157h-64z" />
    <glyph glyph-name="Ccaron" unicode="&#x10c;" horiz-adv-x="793" 
d="M396 -12q-75 0 -136 26t-104.5 70.5t-67 104t-23.5 126.5q0 84 28.5 158t81.5 129.5t128 87.5t169 32q61 0 113.5 -19t93 -52t67 -77.5t37.5 -95.5h-80q-10 37 -30.5 68.5t-51.5 54.5t-70.5 36t-86.5 13q-69 0 -128 -25.5t-102 -70t-67.5 -104t-24.5 -127.5
q0 -57 17.5 -105t51 -83t83 -55t113.5 -20q93 0 162.5 47t109.5 125h80q-21 -54 -54.5 -99t-79 -77t-103 -50t-126.5 -18zM676 855l-173 -87l-144 98l13 62l136 -92l184 92z" />
    <glyph glyph-name="Ccircumflex" unicode="&#x108;" horiz-adv-x="793" 
d="M396 -12q-75 0 -136 26t-104.5 70.5t-67 104t-23.5 126.5q0 84 28.5 158t81.5 129.5t128 87.5t169 32q61 0 113.5 -19t93 -52t67 -77.5t37.5 -95.5h-80q-10 37 -30.5 68.5t-51.5 54.5t-70.5 36t-86.5 13q-69 0 -128 -25.5t-102 -70t-67.5 -104t-24.5 -127.5
q0 -57 17.5 -105t51 -83t83 -55t113.5 -20q93 0 162.5 47t109.5 125h80q-21 -54 -54.5 -99t-79 -77t-103 -50t-126.5 -18zM355 841l173 87l144 -98l-13 -62l-136 92l-184 -92z" />
    <glyph glyph-name="Cdotaccent" unicode="&#x10a;" horiz-adv-x="793" 
d="M396 -12q-75 0 -136 26t-104.5 70.5t-67 104t-23.5 126.5q0 84 28.5 158t81.5 129.5t128 87.5t169 32q61 0 113.5 -19t93 -52t67 -77.5t37.5 -95.5h-80q-10 37 -30.5 68.5t-51.5 54.5t-70.5 36t-86.5 13q-69 0 -128 -25.5t-102 -70t-67.5 -104t-24.5 -127.5
q0 -57 17.5 -105t51 -83t83 -55t113.5 -20q93 0 162.5 47t109.5 125h80q-21 -54 -54.5 -99t-79 -77t-103 -50t-126.5 -18zM516 789q-23 0 -38.5 15.5t-15.5 37.5t15.5 37.5t38.5 15.5q22 0 37 -15.5t15 -37.5t-15 -37.5t-37 -15.5z" />
    <glyph glyph-name="Dcaron" unicode="&#x10e;" horiz-adv-x="724" 
d="M291 72q69 0 128 24t102.5 66t68.5 99.5t25 125.5q0 57 -17.5 103t-51.5 79t-83 51t-113 18h-97l-121 -566h159zM192 710h169q75 0 136 -24t104 -66.5t66.5 -100t23.5 -124.5q0 -83 -29 -155t-82 -125t-129.5 -84t-170.5 -31h-239zM624 855l-173 -87l-144 98l13 62
l136 -92l184 92z" />
    <glyph glyph-name="Dcroat" unicode="&#x110;" horiz-adv-x="729" 
d="M296 72q69 0 128 24t102.5 66t68.5 99.5t25 125.5q0 57 -17.5 103t-51.5 79t-83 51t-113 18h-97l-121 -566h159zM197 710h169q75 0 136 -24t104 -66.5t66.5 -100t23.5 -124.5q0 -83 -29 -155t-82 -125t-129.5 -84t-170.5 -31h-239zM56 394h320l-14 -68h-320z" />
    <glyph glyph-name="Ebreve" unicode="&#x114;" horiz-adv-x="553" 
d="M192 710h405l-15 -72h-329l-51 -237h269l-15 -72h-269l-55 -257h329l-15 -72h-405zM418 762q-30 0 -58 10.5t-47.5 30.5t-29 48.5t-1.5 63.5h49q-5 -27 0.5 -46.5t18.5 -32t31.5 -18.5t39.5 -6q48 0 76.5 26.5t39.5 76.5h53q-11 -71 -57.5 -112t-114.5 -41z" />
    <glyph glyph-name="Ecaron" unicode="&#x11a;" horiz-adv-x="553" 
d="M192 710h405l-15 -72h-329l-51 -237h269l-15 -72h-269l-55 -257h329l-15 -72h-405zM583 855l-173 -87l-144 98l13 62l136 -92l184 92z" />
    <glyph glyph-name="Emacron" unicode="&#x112;" horiz-adv-x="553" 
d="M192 710h405l-15 -72h-329l-51 -237h269l-15 -72h-269l-55 -257h329l-15 -72h-405zM269 870h316l-13 -61h-316z" />
    <glyph glyph-name="Eogonek" unicode="&#x118;" horiz-adv-x="553" 
d="M192 710h405l-15 -72h-329l-51 -237h269l-15 -72h-269l-55 -257h329l-15 -72h-405zM328 -219q-33 0 -55 19t-22 53q0 25 11.5 47t29 40.5t38.5 33.5t40 26h76q-69 -40 -94.5 -72.5t-25.5 -54.5q0 -14 9.5 -21t25.5 -7t29 4.5t27 14.5l-13 -61q-14 -10 -33.5 -16t-42.5 -6
z" />
    <glyph glyph-name="Edotaccent" unicode="&#x116;" horiz-adv-x="553" 
d="M192 710h405l-15 -72h-329l-51 -237h269l-15 -72h-269l-55 -257h329l-15 -72h-405zM423 789q-23 0 -38.5 15.5t-15.5 37.5t15.5 37.5t38.5 15.5q22 0 37 -15.5t15 -37.5t-15 -37.5t-37 -15.5z" />
    <glyph glyph-name="Gbreve" unicode="&#x11e;" horiz-adv-x="824" 
d="M393 -12q-75 0 -135.5 26t-103 70.5t-65.5 104t-23 126.5q0 84 28 158t81 129.5t128.5 87.5t170.5 32q60 0 110.5 -16.5t90 -46.5t67.5 -70.5t43 -88.5h-80q-27 69 -87.5 109.5t-154.5 40.5q-69 0 -127.5 -25.5t-101.5 -70t-67 -104t-24 -127.5q0 -57 16.5 -105t49.5 -83
t82 -55t113 -20q61 0 113 20.5t91.5 56.5t66 85t35.5 106h-291l15 72h357v-6q0 -83 -27 -157t-78 -129.5t-125 -87.5t-168 -32zM507 762q-30 0 -58 10.5t-47.5 30.5t-29 48.5t-1.5 63.5h49q-5 -27 0.5 -46.5t18.5 -32t31.5 -18.5t39.5 -6q48 0 76.5 26.5t39.5 76.5h53
q-11 -71 -57.5 -112t-114.5 -41z" />
    <glyph glyph-name="Gcircumflex" unicode="&#x11c;" horiz-adv-x="824" 
d="M393 -12q-75 0 -135.5 26t-103 70.5t-65.5 104t-23 126.5q0 84 28 158t81 129.5t128.5 87.5t170.5 32q60 0 110.5 -16.5t90 -46.5t67.5 -70.5t43 -88.5h-80q-27 69 -87.5 109.5t-154.5 40.5q-69 0 -127.5 -25.5t-101.5 -70t-67 -104t-24 -127.5q0 -57 16.5 -105t49.5 -83
t82 -55t113 -20q61 0 113 20.5t91.5 56.5t66 85t35.5 106h-291l15 72h357v-6q0 -83 -27 -157t-78 -129.5t-125 -87.5t-168 -32zM351 841l173 87l144 -98l-13 -62l-136 92l-184 -92z" />
    <glyph glyph-name="uni0122" unicode="&#x122;" horiz-adv-x="824" 
d="M393 -12q-75 0 -135.5 26t-103 70.5t-65.5 104t-23 126.5q0 84 28 158t81 129.5t128.5 87.5t170.5 32q60 0 110.5 -16.5t90 -46.5t67.5 -70.5t43 -88.5h-80q-27 69 -87.5 109.5t-154.5 40.5q-69 0 -127.5 -25.5t-101.5 -70t-67 -104t-24 -127.5q0 -57 16.5 -105t49.5 -83
t82 -55t113 -20q61 0 113 20.5t91.5 56.5t66 85t35.5 106h-291l15 72h357v-6q0 -83 -27 -157t-78 -129.5t-125 -87.5t-168 -32zM323 -258h-40l50 86q-24 16 -24 44q0 22 15.5 37.5t38.5 15.5q22 0 37 -15.5t15 -37.5q0 -13 -5 -22t-10 -15z" />
    <glyph glyph-name="Gdotaccent" unicode="&#x120;" horiz-adv-x="824" 
d="M393 -12q-75 0 -135.5 26t-103 70.5t-65.5 104t-23 126.5q0 84 28 158t81 129.5t128.5 87.5t170.5 32q60 0 110.5 -16.5t90 -46.5t67.5 -70.5t43 -88.5h-80q-27 69 -87.5 109.5t-154.5 40.5q-69 0 -127.5 -25.5t-101.5 -70t-67 -104t-24 -127.5q0 -57 16.5 -105t49.5 -83
t82 -55t113 -20q61 0 113 20.5t91.5 56.5t66 85t35.5 106h-291l15 72h357v-6q0 -83 -27 -157t-78 -129.5t-125 -87.5t-168 -32zM512 789q-23 0 -38.5 15.5t-15.5 37.5t15.5 37.5t38.5 15.5q22 0 37 -15.5t15 -37.5t-15 -37.5t-37 -15.5z" />
    <glyph glyph-name="Hbar" unicode="&#x126;" horiz-adv-x="774" 
d="M196 710h76l-66 -309h415l66 309h76l-151 -710h-76l70 329h-415l-70 -329h-76zM95 588h715l-13 -63h-715z" />
    <glyph glyph-name="Hcircumflex" unicode="&#x124;" horiz-adv-x="767" 
d="M192 710h76l-66 -309h415l66 309h76l-151 -710h-76l70 329h-415l-70 -329h-76zM343 841l173 87l144 -98l-13 -62l-136 92l-184 -92z" />
    <glyph glyph-name="Ibreve" unicode="&#x12c;" horiz-adv-x="276" 
d="M192 710h76l-151 -710h-76zM254 762q-30 0 -58 10.5t-47.5 30.5t-29 48.5t-1.5 63.5h49q-5 -27 0.5 -46.5t18.5 -32t31.5 -18.5t39.5 -6q48 0 76.5 26.5t39.5 76.5h53q-11 -71 -57.5 -112t-114.5 -41z" />
    <glyph glyph-name="Idotaccent" unicode="&#x130;" horiz-adv-x="276" 
d="M192 710h76l-151 -710h-76zM259 789q-23 0 -38.5 15.5t-15.5 37.5t15.5 37.5t38.5 15.5q22 0 37 -15.5t15 -37.5t-15 -37.5t-37 -15.5z" />
    <glyph glyph-name="Imacron" unicode="&#x12a;" horiz-adv-x="276" 
d="M192 710h76l-151 -710h-76zM105 870h316l-13 -61h-316z" />
    <glyph glyph-name="Iogonek" unicode="&#x12e;" horiz-adv-x="276" 
d="M192 710h76l-151 -710h-76zM-1 -219q-33 0 -55 19t-22 53q0 25 11.5 47t29 40.5t38.5 33.5t40 26h76q-69 -40 -94.5 -72.5t-25.5 -54.5q0 -14 9.5 -21t25.5 -7t29 4.5t27 14.5l-13 -61q-14 -10 -33.5 -16t-42.5 -6z" />
    <glyph glyph-name="Itilde" unicode="&#x128;" horiz-adv-x="276" 
d="M192 710h76l-151 -710h-76zM82 804q11 42 43.5 65.5t71.5 23.5q19 0 37 -6.5t34 -15t30.5 -15t26.5 -6.5q32 0 51 43h61l-4 -16q-11 -42 -43.5 -65.5t-71.5 -23.5q-19 0 -37 6.5t-34 15t-30.5 15t-26.5 6.5q-32 0 -51 -43h-61z" />
    <glyph glyph-name="uni1ECA" unicode="&#x1eca;" horiz-adv-x="276" 
d="M192 710h76l-151 -710h-76zM53 -181q-23 0 -38.5 15.5t-15.5 37.5t15.5 37.5t38.5 15.5q22 0 37 -15.5t15 -37.5t-15 -37.5t-37 -15.5z" />
    <glyph glyph-name="Jcircumflex" unicode="&#x134;" horiz-adv-x="519" 
d="M442 710h76l-110 -519q-10 -47 -26 -85t-42 -64t-63.5 -40t-89.5 -14q-37 0 -73 13t-64 38t-43.5 62t-10.5 85h76q-2 -32 7.5 -55.5t26.5 -39t39.5 -23.5t46.5 -8q66 0 97 39.5t46 109.5zM349 841l173 87l144 -98l-13 -62l-136 92l-184 -92z" />
    <glyph glyph-name="uni0136" unicode="&#x136;" horiz-adv-x="661" 
d="M189 343l-73 -343h-75l151 710h75l-66 -311l387 311h109l-429 -344l360 -366h-103zM254 -258h-40l50 86q-24 16 -24 44q0 22 15.5 37.5t38.5 15.5q22 0 37 -15.5t15 -37.5q0 -13 -5 -22t-10 -15z" />
    <glyph glyph-name="Lacute" unicode="&#x139;" horiz-adv-x="542" 
d="M192 710h76l-136 -638h355l-15 -72h-431zM333 927h96l-141 -157h-64z" />
    <glyph glyph-name="Lcaron" unicode="&#x13d;" horiz-adv-x="543" 
d="M192 710h76l-136 -638h355l-15 -72h-431zM410 750h72l-80 -166h-50z" />
    <glyph glyph-name="uni013B" unicode="&#x13b;" horiz-adv-x="542" 
d="M192 710h76l-136 -638h355l-15 -72h-431zM183 -258h-40l50 86q-24 16 -24 44q0 22 15.5 37.5t38.5 15.5q22 0 37 -15.5t15 -37.5q0 -13 -5 -22t-10 -15z" />
    <glyph glyph-name="Ldot" unicode="&#x13f;" horiz-adv-x="546" 
d="M192 710h76l-136 -638h355l-15 -72h-431zM436 338q-23 0 -38.5 15.5t-15.5 37.5t15.5 37.5t38.5 15.5q22 0 37 -15.5t15 -37.5t-15 -37.5t-37 -15.5z" />
    <glyph glyph-name="Lslash" unicode="&#x141;" horiz-adv-x="557" 
d="M207 710h76l-136 -638h355l-15 -72h-431zM27 213l17 78l361 207l-17 -78z" />
    <glyph glyph-name="Eng" unicode="&#x14a;" horiz-adv-x="796" 
d="M469 -219q-26 0 -49.5 6t-41.5 16l14 65q13 -8 33.5 -14t43.5 -6q28 0 47.5 17.5t28.5 60.5l18 86l-320 577l-126 -589h-76l151 710h67l327 -590l126 590h76l-170 -799q-14 -68 -51.5 -99t-97.5 -31z" />
    <glyph glyph-name="Nacute" unicode="&#x143;" horiz-adv-x="796" 
d="M570 0l-328 589l-125 -589h-76l151 710h67l327 -590l126 590h76l-151 -710h-67zM588 927h96l-141 -157h-64z" />
    <glyph glyph-name="Ncaron" unicode="&#x147;" horiz-adv-x="796" 
d="M570 0l-328 589l-125 -589h-76l151 710h67l327 -590l126 590h76l-151 -710h-67zM674 855l-173 -87l-144 98l13 62l136 -92l184 92z" />
    <glyph glyph-name="uni0145" unicode="&#x145;" horiz-adv-x="796" 
d="M570 0l-328 589l-125 -589h-76l151 710h67l327 -590l126 590h76l-151 -710h-67zM277 -258h-40l50 86q-24 16 -24 44q0 22 15.5 37.5t38.5 15.5q22 0 37 -15.5t15 -37.5q0 -13 -5 -22t-10 -15z" />
    <glyph glyph-name="OE" unicode="&#x152;" horiz-adv-x="1158" 
d="M663 82q-50 -45 -119 -69.5t-151 -24.5q-75 0 -135.5 26t-103 70.5t-65.5 104t-23 126.5q0 84 28 158t81 129.5t128.5 87.5t170.5 32q51 0 96 -13t82 -35.5t65 -53.5t46 -68l34 158h405l-15 -72h-329l-51 -237h269l-15 -72h-269l-55 -257h329l-15 -72h-405zM404 60
q69 0 127.5 25.5t101.5 70t67.5 104t24.5 127.5q0 57 -17 105t-50 83t-82 55t-113 20q-69 0 -127.5 -25.5t-101.5 -70t-67 -104t-24 -127.5q0 -57 16.5 -105t49.5 -83t82 -55t113 -20z" />
    <glyph glyph-name="Obreve" unicode="&#x14e;" horiz-adv-x="834" 
d="M404 60q69 0 127.5 25.5t101.5 70t67.5 104t24.5 127.5q0 57 -17 105t-50 83t-82 55t-113 20q-69 0 -127.5 -25.5t-101.5 -70t-67 -104t-24 -127.5q0 -57 16.5 -105t49.5 -83t82 -55t113 -20zM393 -12q-75 0 -135.5 26t-103 70.5t-65.5 104t-23 126.5q0 84 28 158
t81 129.5t128.5 87.5t170.5 32q75 0 135.5 -26t103 -70.5t65.5 -104t23 -126.5q0 -84 -28.5 -158t-81 -129.5t-128.5 -87.5t-170 -32zM521 762q-30 0 -58 10.5t-47.5 30.5t-29 48.5t-1.5 63.5h49q-5 -27 0.5 -46.5t18.5 -32t31.5 -18.5t39.5 -6q48 0 76.5 26.5t39.5 76.5h53
q-11 -71 -57.5 -112t-114.5 -41z" />
    <glyph glyph-name="Ohungarumlaut" unicode="&#x150;" horiz-adv-x="834" 
d="M404 60q69 0 127.5 25.5t101.5 70t67.5 104t24.5 127.5q0 57 -17 105t-50 83t-82 55t-113 20q-69 0 -127.5 -25.5t-101.5 -70t-67 -104t-24 -127.5q0 -57 16.5 -105t49.5 -83t82 -55t113 -20zM393 -12q-75 0 -135.5 26t-103 70.5t-65.5 104t-23 126.5q0 84 28 158
t81 129.5t128.5 87.5t170.5 32q75 0 135.5 -26t103 -70.5t65.5 -104t23 -126.5q0 -84 -28.5 -158t-81 -129.5t-128.5 -87.5t-170 -32zM655 927h87l-134 -157h-54zM493 927h87l-134 -157h-54z" />
    <glyph glyph-name="Omacron" unicode="&#x14c;" horiz-adv-x="834" 
d="M404 60q69 0 127.5 25.5t101.5 70t67.5 104t24.5 127.5q0 57 -17 105t-50 83t-82 55t-113 20q-69 0 -127.5 -25.5t-101.5 -70t-67 -104t-24 -127.5q0 -57 16.5 -105t49.5 -83t82 -55t113 -20zM393 -12q-75 0 -135.5 26t-103 70.5t-65.5 104t-23 126.5q0 84 28 158
t81 129.5t128.5 87.5t170.5 32q75 0 135.5 -26t103 -70.5t65.5 -104t23 -126.5q0 -84 -28.5 -158t-81 -129.5t-128.5 -87.5t-170 -32zM372 870h316l-13 -61h-316z" />
    <glyph glyph-name="uni1ECC" unicode="&#x1ecc;" horiz-adv-x="834" 
d="M404 60q69 0 127.5 25.5t101.5 70t67.5 104t24.5 127.5q0 57 -17 105t-50 83t-82 55t-113 20q-69 0 -127.5 -25.5t-101.5 -70t-67 -104t-24 -127.5q0 -57 16.5 -105t49.5 -83t82 -55t113 -20zM393 -12q-75 0 -135.5 26t-103 70.5t-65.5 104t-23 126.5q0 84 28 158
t81 129.5t128.5 87.5t170.5 32q75 0 135.5 -26t103 -70.5t65.5 -104t23 -126.5q0 -84 -28.5 -158t-81 -129.5t-128.5 -87.5t-170 -32zM349 -181q-23 0 -38.5 15.5t-15.5 37.5t15.5 37.5t38.5 15.5q22 0 37 -15.5t15 -37.5t-15 -37.5t-37 -15.5z" />
    <glyph glyph-name="Racute" unicode="&#x154;" horiz-adv-x="625" 
d="M192 710h218q42 0 76.5 -13.5t59.5 -37t39 -55.5t14 -68q0 -49 -16.5 -87t-48 -65t-76 -41t-99.5 -15l219 -328h-89l-221 330h-81l-70 -330h-76zM349 400q88 0 130 35t43 96q1 47 -31.5 77.5t-90.5 30.5h-147l-51 -239h147zM496 927h96l-141 -157h-64z" />
    <glyph glyph-name="Rcaron" unicode="&#x158;" horiz-adv-x="625" 
d="M192 710h218q42 0 76.5 -13.5t59.5 -37t39 -55.5t14 -68q0 -49 -16.5 -87t-48 -65t-76 -41t-99.5 -15l219 -328h-89l-221 330h-81l-70 -330h-76zM349 400q88 0 130 35t43 96q1 47 -31.5 77.5t-90.5 30.5h-147l-51 -239h147zM582 855l-173 -87l-144 98l13 62l136 -92
l184 92z" />
    <glyph glyph-name="uni0156" unicode="&#x156;" horiz-adv-x="625" 
d="M192 710h218q42 0 76.5 -13.5t59.5 -37t39 -55.5t14 -68q0 -49 -16.5 -87t-48 -65t-76 -41t-99.5 -15l219 -328h-89l-221 330h-81l-70 -330h-76zM349 400q88 0 130 35t43 96q1 47 -31.5 77.5t-90.5 30.5h-147l-51 -239h147zM237 -258h-40l50 86q-24 16 -24 44
q0 22 15.5 37.5t38.5 15.5q22 0 37 -15.5t15 -37.5q0 -13 -5 -22t-10 -15z" />
    <glyph glyph-name="Sacute" unicode="&#x15a;" horiz-adv-x="553" 
d="M261 -12q-55 0 -99 16t-75 43t-48 62t-19 72h76q5 -28 20.5 -50.5t38 -38t51 -24t60.5 -8.5q29 0 55.5 9.5t46 26t31 38t11.5 45.5q0 51 -28.5 82t-80.5 57l-45 23q-29 15 -54.5 32.5t-44.5 40t-30 51t-10 63.5q1 43 17.5 79t45.5 61.5t69 39.5t88 14q54 0 92.5 -17
t64 -44t38 -60t14.5 -64h-76q-7 54 -44.5 83.5t-94.5 29.5q-32 0 -57.5 -9.5t-43.5 -25t-27.5 -36.5t-9.5 -43q1 -47 24 -72.5t63 -46.5l52 -27q74 -38 114 -85.5t40 -117.5q0 -42 -15 -78.5t-44 -63t-70.5 -42t-95.5 -15.5zM456 927h96l-141 -157h-64z" />
    <glyph glyph-name="Scaron" unicode="&#x160;" horiz-adv-x="553" 
d="M261 -12q-55 0 -99 16t-75 43t-48 62t-19 72h76q5 -28 20.5 -50.5t38 -38t51 -24t60.5 -8.5q29 0 55.5 9.5t46 26t31 38t11.5 45.5q0 51 -28.5 82t-80.5 57l-45 23q-29 15 -54.5 32.5t-44.5 40t-30 51t-10 63.5q1 43 17.5 79t45.5 61.5t69 39.5t88 14q54 0 92.5 -17
t64 -44t38 -60t14.5 -64h-76q-7 54 -44.5 83.5t-94.5 29.5q-32 0 -57.5 -9.5t-43.5 -25t-27.5 -36.5t-9.5 -43q1 -47 24 -72.5t63 -46.5l52 -27q74 -38 114 -85.5t40 -117.5q0 -42 -15 -78.5t-44 -63t-70.5 -42t-95.5 -15.5zM542 855l-173 -87l-144 98l13 62l136 -92l184 92
z" />
    <glyph glyph-name="Scedilla" unicode="&#x15e;" horiz-adv-x="553" 
d="M261 -12q-55 0 -99 16t-75 43t-48 62t-19 72h76q5 -28 20.5 -50.5t38 -38t51 -24t60.5 -8.5q29 0 55.5 9.5t46 26t31 38t11.5 45.5q0 51 -28.5 82t-80.5 57l-45 23q-29 15 -54.5 32.5t-44.5 40t-30 51t-10 63.5q1 43 17.5 79t45.5 61.5t69 39.5t88 14q54 0 92.5 -17
t64 -44t38 -60t14.5 -64h-76q-7 54 -44.5 83.5t-94.5 29.5q-32 0 -57.5 -9.5t-43.5 -25t-27.5 -36.5t-9.5 -43q1 -47 24 -72.5t63 -46.5l52 -27q74 -38 114 -85.5t40 -117.5q0 -42 -15 -78.5t-44 -63t-70.5 -42t-95.5 -15.5zM114 -154q17 -8 37 -11.5t39 -3.5q32 0 54.5 13
t22.5 34q0 28 -41 28q-12 0 -24.5 -2.5t-24.5 -7.5l-27 21l67 86h55l-44 -56q12 4 20.5 5t16.5 1q29 0 46.5 -18t17.5 -45q0 -55 -39.5 -82t-102.5 -27q-19 0 -42 3.5t-42 11.5z" />
    <glyph glyph-name="Scircumflex" unicode="&#x15c;" horiz-adv-x="553" 
d="M261 -12q-55 0 -99 16t-75 43t-48 62t-19 72h76q5 -28 20.5 -50.5t38 -38t51 -24t60.5 -8.5q29 0 55.5 9.5t46 26t31 38t11.5 45.5q0 51 -28.5 82t-80.5 57l-45 23q-29 15 -54.5 32.5t-44.5 40t-30 51t-10 63.5q1 43 17.5 79t45.5 61.5t69 39.5t88 14q54 0 92.5 -17
t64 -44t38 -60t14.5 -64h-76q-7 54 -44.5 83.5t-94.5 29.5q-32 0 -57.5 -9.5t-43.5 -25t-27.5 -36.5t-9.5 -43q1 -47 24 -72.5t63 -46.5l52 -27q74 -38 114 -85.5t40 -117.5q0 -42 -15 -78.5t-44 -63t-70.5 -42t-95.5 -15.5zM221 841l173 87l144 -98l-13 -62l-136 92
l-184 -92z" />
    <glyph glyph-name="uni0218" unicode="&#x218;" horiz-adv-x="553" 
d="M261 -12q-55 0 -99 16t-75 43t-48 62t-19 72h76q5 -28 20.5 -50.5t38 -38t51 -24t60.5 -8.5q29 0 55.5 9.5t46 26t31 38t11.5 45.5q0 51 -28.5 82t-80.5 57l-45 23q-29 15 -54.5 32.5t-44.5 40t-30 51t-10 63.5q1 43 17.5 79t45.5 61.5t69 39.5t88 14q54 0 92.5 -17
t64 -44t38 -60t14.5 -64h-76q-7 54 -44.5 83.5t-94.5 29.5q-32 0 -57.5 -9.5t-43.5 -25t-27.5 -36.5t-9.5 -43q1 -47 24 -72.5t63 -46.5l52 -27q74 -38 114 -85.5t40 -117.5q0 -42 -15 -78.5t-44 -63t-70.5 -42t-95.5 -15.5zM182 -258h-40l50 86q-24 16 -24 44
q0 22 15.5 37.5t38.5 15.5q22 0 37 -15.5t15 -37.5q0 -13 -5 -22t-10 -15z" />
    <glyph glyph-name="Tbar" unicode="&#x166;" horiz-adv-x="592" 
d="M334 638h-230l15 72h535l-15 -72h-230l-136 -638h-75zM120 400h399l-14 -68h-399z" />
    <glyph glyph-name="Tcaron" unicode="&#x164;" horiz-adv-x="565" 
d="M321 638h-230l15 72h535l-15 -72h-230l-136 -638h-75zM562 855l-173 -87l-144 98l13 62l136 -92l184 92z" />
    <glyph glyph-name="uni0162" unicode="&#x162;" horiz-adv-x="565" 
d="M321 638h-230l15 72h535l-15 -72h-230l-136 -638h-75zM156 -258h-40l50 86q-24 16 -24 44q0 22 15.5 37.5t38.5 15.5q22 0 37 -15.5t15 -37.5q0 -13 -5 -22t-10 -15z" />
    <glyph glyph-name="uni021A" unicode="&#x21a;" horiz-adv-x="565" 
d="M321 638h-230l15 72h535l-15 -72h-230l-136 -638h-75zM156 -258h-40l50 86q-24 16 -24 44q0 22 15.5 37.5t38.5 15.5q22 0 37 -15.5t15 -37.5q0 -13 -5 -22t-10 -15z" />
    <glyph glyph-name="Ubreve" unicode="&#x16c;" horiz-adv-x="729" 
d="M637 269q-28 -133 -104 -207t-212 -74q-63 0 -112 19.5t-80.5 56.5t-42.5 88.5t3 116.5l93 441h76l-93 -442q-11 -51 -4.5 -90t27.5 -65.5t55.5 -39.5t80.5 -13q91 0 153 52.5t84 155.5l93 442h76zM481 762q-30 0 -58 10.5t-47.5 30.5t-29 48.5t-1.5 63.5h49
q-5 -27 0.5 -46.5t18.5 -32t31.5 -18.5t39.5 -6q48 0 76.5 26.5t39.5 76.5h53q-11 -71 -57.5 -112t-114.5 -41z" />
    <glyph glyph-name="Uhungarumlaut" unicode="&#x170;" horiz-adv-x="729" 
d="M637 269q-28 -133 -104 -207t-212 -74q-63 0 -112 19.5t-80.5 56.5t-42.5 88.5t3 116.5l93 441h76l-93 -442q-11 -51 -4.5 -90t27.5 -65.5t55.5 -39.5t80.5 -13q91 0 153 52.5t84 155.5l93 442h76zM615 927h87l-134 -157h-54zM453 927h87l-134 -157h-54z" />
    <glyph glyph-name="Umacron" unicode="&#x16a;" horiz-adv-x="729" 
d="M637 269q-28 -133 -104 -207t-212 -74q-63 0 -112 19.5t-80.5 56.5t-42.5 88.5t3 116.5l93 441h76l-93 -442q-11 -51 -4.5 -90t27.5 -65.5t55.5 -39.5t80.5 -13q91 0 153 52.5t84 155.5l93 442h76zM332 870h316l-13 -61h-316z" />
    <glyph glyph-name="Uogonek" unicode="&#x172;" horiz-adv-x="729" 
d="M326 -219q-33 0 -55 19t-22 53q0 38 26.5 72t71.5 64q-11 -1 -16 -1h-10q-63 0 -112 19.5t-80.5 56.5t-42.5 88.5t3 116.5l93 441h76l-93 -442q-11 -51 -4.5 -90t27.5 -65.5t55.5 -39.5t80.5 -13q91 0 153 52.5t84 155.5l93 442h76l-93 -441q-20 -92 -60 -154t-96 -91
q-32 -17 -60.5 -35.5t-50 -38t-34 -39.5t-12.5 -38q0 -14 9.5 -21t25.5 -7t29 4.5t27 14.5l-13 -61q-14 -10 -33.5 -16t-42.5 -6z" />
    <glyph glyph-name="Uring" unicode="&#x16e;" horiz-adv-x="729" 
d="M637 269q-28 -133 -104 -207t-212 -74q-63 0 -112 19.5t-80.5 56.5t-42.5 88.5t3 116.5l93 441h76l-93 -442q-11 -51 -4.5 -90t27.5 -65.5t55.5 -39.5t80.5 -13q91 0 153 52.5t84 155.5l93 442h76zM490 753q-25 0 -47 9.5t-38.5 26t-26 38t-9.5 46.5t9.5 46.5t26 38
t38.5 26t47 9.5t47 -9.5t38.5 -26t26.5 -38t10 -46.5t-10 -46.5t-26.5 -38t-38.5 -26t-47 -9.5zM490 800q31 0 52.5 21t21.5 52q0 30 -21.5 52t-52.5 22q-30 0 -51.5 -22t-21.5 -52q0 -31 21.5 -52t51.5 -21z" />
    <glyph glyph-name="Utilde" unicode="&#x168;" horiz-adv-x="729" 
d="M637 269q-28 -133 -104 -207t-212 -74q-63 0 -112 19.5t-80.5 56.5t-42.5 88.5t3 116.5l93 441h76l-93 -442q-11 -51 -4.5 -90t27.5 -65.5t55.5 -39.5t80.5 -13q91 0 153 52.5t84 155.5l93 442h76zM309 804q11 42 43.5 65.5t71.5 23.5q19 0 37 -6.5t34 -15t30.5 -15
t26.5 -6.5q32 0 51 43h61l-4 -16q-11 -42 -43.5 -65.5t-71.5 -23.5q-19 0 -37 6.5t-34 15t-30.5 15t-26.5 6.5q-32 0 -51 -43h-61z" />
    <glyph glyph-name="uni1EE4" unicode="&#x1ee4;" horiz-adv-x="729" 
d="M637 269q-28 -133 -104 -207t-212 -74q-63 0 -112 19.5t-80.5 56.5t-42.5 88.5t3 116.5l93 441h76l-93 -442q-11 -51 -4.5 -90t27.5 -65.5t55.5 -39.5t80.5 -13q91 0 153 52.5t84 155.5l93 442h76zM279 -181q-23 0 -38.5 15.5t-15.5 37.5t15.5 37.5t38.5 15.5
q22 0 37 -15.5t15 -37.5t-15 -37.5t-37 -15.5z" />
    <glyph glyph-name="Wacute" unicode="&#x1e82;" horiz-adv-x="943" 
d="M524 512l-291 -512h-66l-51 710h75l38 -578l336 590l77 -590l285 578h83l-353 -710h-66zM662 927h96l-141 -157h-64z" />
    <glyph glyph-name="Wcircumflex" unicode="&#x174;" horiz-adv-x="943" 
d="M524 512l-291 -512h-66l-51 710h75l38 -578l336 590l77 -590l285 578h83l-353 -710h-66zM427 841l173 87l144 -98l-13 -62l-136 92l-184 -92z" />
    <glyph glyph-name="Wdieresis" unicode="&#x1e84;" horiz-adv-x="943" 
d="M524 512l-291 -512h-66l-51 710h75l38 -578l336 590l77 -590l285 578h83l-353 -710h-66zM476 789q-23 0 -38.5 15.5t-15.5 37.5t15.5 37.5t38.5 15.5q22 0 37 -15.5t15 -37.5t-15 -37.5t-37 -15.5zM698 789q-23 0 -38.5 15.5t-15.5 37.5t15.5 37.5t38.5 15.5
q22 0 37 -15.5t15 -37.5t-15 -37.5t-37 -15.5z" />
    <glyph glyph-name="Wgrave" unicode="&#x1e80;" horiz-adv-x="943" 
d="M524 512l-291 -512h-66l-51 710h75l38 -578l336 590l77 -590l285 578h83l-353 -710h-66zM525 770l-87 157h91l52 -157h-56z" />
    <glyph glyph-name="Ycircumflex" unicode="&#x176;" horiz-adv-x="666" 
d="M300 301l-193 409h83l158 -334l299 334h96l-368 -410l-64 -300h-75zM287 841l173 87l144 -98l-13 -62l-136 92l-184 -92z" />
    <glyph glyph-name="Ydieresis" unicode="&#x178;" horiz-adv-x="666" 
d="M300 301l-193 409h83l158 -334l299 334h96l-368 -410l-64 -300h-75zM336 789q-23 0 -38.5 15.5t-15.5 37.5t15.5 37.5t38.5 15.5q22 0 37 -15.5t15 -37.5t-15 -37.5t-37 -15.5zM558 789q-23 0 -38.5 15.5t-15.5 37.5t15.5 37.5t38.5 15.5q22 0 37 -15.5t15 -37.5
t-15 -37.5t-37 -15.5z" />
    <glyph glyph-name="Ygrave" unicode="&#x1ef2;" horiz-adv-x="666" 
d="M300 301l-193 409h83l158 -334l299 334h96l-368 -410l-64 -300h-75zM385 770l-87 157h91l52 -157h-56z" />
    <glyph glyph-name="uni0232" unicode="&#x232;" horiz-adv-x="666" 
d="M300 301l-193 409h83l158 -334l299 334h96l-368 -410l-64 -300h-75zM294 870h316l-13 -61h-316z" />
    <glyph glyph-name="Zacute" unicode="&#x179;" horiz-adv-x="572" 
d="M-16 50l517 588h-380l15 72h488l-11 -50l-517 -588h403l-15 -72h-511zM492 927h96l-141 -157h-64z" />
    <glyph glyph-name="Zcaron" unicode="&#x17d;" horiz-adv-x="572" 
d="M-16 50l517 588h-380l15 72h488l-11 -50l-517 -588h403l-15 -72h-511zM578 855l-173 -87l-144 98l13 62l136 -92l184 92z" />
    <glyph glyph-name="Zdotaccent" unicode="&#x17b;" horiz-adv-x="572" 
d="M-16 50l517 588h-380l15 72h488l-11 -50l-517 -588h403l-15 -72h-511zM418 789q-23 0 -38.5 15.5t-15.5 37.5t15.5 37.5t38.5 15.5q22 0 37 -15.5t15 -37.5t-15 -37.5t-37 -15.5z" />
    <glyph glyph-name="uni1E9E" unicode="&#x1e9e;" horiz-adv-x="634" 
d="M192 710h427l-11 -50l-189 -224q39 -6 68.5 -23.5t49.5 -42t30.5 -53.5t10.5 -59q0 -63 -21.5 -111.5t-59.5 -81t-91 -49t-116 -16.5h-54l15 72h44q41 0 78.5 11.5t65.5 34.5t44.5 56t16.5 77q0 57 -39 90t-102 33h-44l13 60l175 207h-250l-136 -641h-76z" />
    <glyph glyph-name="uni018F" unicode="&#x18f;" horiz-adv-x="833" 
d="M392 -12q-75 0 -135.5 26t-103 70.5t-65.5 104t-23 126.5q0 21 1.5 42t5.5 41h652q-2 56 -21 102.5t-54 79.5t-85 51.5t-113 18.5q-89 0 -161 -40t-112 -110h-83q22 49 57 90t81.5 70.5t104 45.5t124.5 16q76 0 138 -25t106.5 -69.5t69 -104t24.5 -128.5
q0 -84 -28.5 -158t-81 -129.5t-128.5 -87.5t-170 -32zM403 60q61 0 114.5 20.5t95 56.5t69 85.5t37.5 106.5h-577q-2 -45 10.5 -92.5t43 -86.5t81.5 -64.5t126 -25.5z" />
    <glyph glyph-name="abreve" unicode="&#x103;" horiz-adv-x="636" 
d="M265 -10q-45 0 -85 15t-70 44.5t-48 72t-18 96.5q0 60 20.5 113t59 92.5t92 63t119.5 23.5q33 0 61.5 -9t51 -23.5t39 -33.5t25.5 -39l20 95h70l-106 -500h-70l16 69q-13 -18 -33 -33t-43.5 -25t-49.5 -15.5t-51 -5.5zM274 55q43 0 82.5 16t69 45t47 70t17.5 91
q0 42 -12 73.5t-33 52.5t-50 31.5t-63 10.5q-44 0 -83 -16t-68.5 -45t-47 -70t-17.5 -91q0 -42 12 -73.5t33 -52.5t50 -31.5t63 -10.5zM395 566q-29 0 -57 10.5t-48 31.5t-30 52t-3 71h53q-5 -29 0 -51t17.5 -36t31.5 -21t42 -7q41 0 70.5 28t40.5 87h53q-10 -80 -55 -122.5
t-115 -42.5z" />
    <glyph glyph-name="amacron" unicode="&#x101;" horiz-adv-x="636" 
d="M265 -10q-45 0 -85 15t-70 44.5t-48 72t-18 96.5q0 60 20.5 113t59 92.5t92 63t119.5 23.5q33 0 61.5 -9t51 -23.5t39 -33.5t25.5 -39l20 95h70l-106 -500h-70l16 69q-13 -18 -33 -33t-43.5 -25t-49.5 -15.5t-51 -5.5zM274 55q43 0 82.5 16t69 45t47 70t17.5 91
q0 42 -12 73.5t-33 52.5t-50 31.5t-63 10.5q-44 0 -83 -16t-68.5 -45t-47 -70t-17.5 -91q0 -42 12 -73.5t33 -52.5t50 -31.5t63 -10.5zM250 710h316l-13 -61h-316z" />
    <glyph glyph-name="aogonek" unicode="&#x105;" horiz-adv-x="636" 
d="M265 -10q-45 0 -85 15t-70 44.5t-48 72t-18 96.5q0 60 20.5 113t59 92.5t92 63t119.5 23.5q33 0 61.5 -9t51 -23.5t39 -33.5t25.5 -39l20 95h70l-106 -500h-70l16 69q-13 -18 -33 -33t-43.5 -25t-49.5 -15.5t-51 -5.5zM274 55q43 0 82.5 16t69 45t47 70t17.5 91
q0 42 -12 73.5t-33 52.5t-50 31.5t-63 10.5q-44 0 -83 -16t-68.5 -45t-47 -70t-17.5 -91q0 -42 12 -73.5t33 -52.5t50 -31.5t63 -10.5zM384 -219q-36 0 -57.5 20.5t-21.5 54.5q0 22 11 42.5t28.5 39t39 34.5t42.5 28h70q-69 -40 -95.5 -75t-26.5 -57q0 -29 34 -29
q14 0 29 4.5t29 14.5l-12 -57q-14 -9 -31.5 -14.5t-38.5 -5.5z" />
    <glyph glyph-name="cacute" unicode="&#x107;" horiz-adv-x="595" 
d="M289 -10q-60 0 -105 20t-75.5 53.5t-46 77.5t-15.5 92q0 56 19 106t55 88t87.5 60.5t116.5 22.5q49 0 89 -14t70 -38.5t49.5 -57.5t28.5 -71h-76q-17 56 -60.5 86t-105.5 30q-44 0 -80.5 -16t-63.5 -44t-42 -65.5t-15 -80.5t12.5 -77t36 -58t55.5 -36.5t71 -12.5
q63 0 110.5 32t70.5 84h76q-13 -39 -36.5 -72t-57 -57.5t-75.5 -38t-93 -13.5zM473 730h105l-184 -152h-63z" />
    <glyph glyph-name="ccaron" unicode="&#x10d;" horiz-adv-x="595" 
d="M289 -10q-60 0 -105 20t-75.5 53.5t-46 77.5t-15.5 92q0 56 19 106t55 88t87.5 60.5t116.5 22.5q49 0 89 -14t70 -38.5t49.5 -57.5t28.5 -71h-76q-17 56 -60.5 86t-105.5 30q-44 0 -80.5 -16t-63.5 -44t-42 -65.5t-15 -80.5t12.5 -77t36 -58t55.5 -36.5t71 -12.5
q63 0 110.5 32t70.5 84h76q-13 -39 -36.5 -72t-57 -57.5t-75.5 -38t-93 -13.5zM227 694l13 62l124 -104l187 104l-16 -75l-176 -97z" />
    <glyph glyph-name="ccircumflex" unicode="&#x109;" horiz-adv-x="595" 
d="M289 -10q-60 0 -105 20t-75.5 53.5t-46 77.5t-15.5 92q0 56 19 106t55 88t87.5 60.5t116.5 22.5q49 0 89 -14t70 -38.5t49.5 -57.5t28.5 -71h-76q-17 56 -60.5 86t-105.5 30q-44 0 -80.5 -16t-63.5 -44t-42 -65.5t-15 -80.5t12.5 -77t36 -58t55.5 -36.5t71 -12.5
q63 0 110.5 32t70.5 84h76q-13 -39 -36.5 -72t-57 -57.5t-75.5 -38t-93 -13.5zM528 649l-13 -65l-127 103l-184 -103l16 73l176 99z" />
    <glyph glyph-name="cdotaccent" unicode="&#x10b;" horiz-adv-x="595" 
d="M289 -10q-60 0 -105 20t-75.5 53.5t-46 77.5t-15.5 92q0 56 19 106t55 88t87.5 60.5t116.5 22.5q49 0 89 -14t70 -38.5t49.5 -57.5t28.5 -71h-76q-17 56 -60.5 86t-105.5 30q-44 0 -80.5 -16t-63.5 -44t-42 -65.5t-15 -80.5t12.5 -77t36 -58t55.5 -36.5t71 -12.5
q63 0 110.5 32t70.5 84h76q-13 -39 -36.5 -72t-57 -57.5t-75.5 -38t-93 -13.5zM375 602q-23 0 -38.5 15.5t-15.5 37.5t15.5 37.5t38.5 15.5q22 0 37 -15.5t15 -37.5t-15 -37.5t-37 -15.5z" />
    <glyph glyph-name="dcaron" unicode="&#x10f;" horiz-adv-x="639" 
d="M265 -10q-45 0 -85 15t-70 44.5t-48 72t-18 96.5q0 60 20.5 113t59 92.5t92 63t119.5 23.5q33 0 61.5 -9t51 -23.5t39 -33.5t25.5 -39l73 345h70l-159 -750h-70l16 69q-13 -18 -33 -33t-43.5 -25t-49.5 -15.5t-51 -5.5zM274 55q43 0 82.5 16t69 45t47 70t17.5 91
q0 42 -12 73.5t-33 52.5t-50 31.5t-63 10.5q-44 0 -83 -16t-68.5 -45t-47 -70t-17.5 -91q0 -42 12 -73.5t33 -52.5t50 -31.5t63 -10.5zM718 750h72l-80 -166h-50z" />
    <glyph glyph-name="dcroat" unicode="&#x111;" horiz-adv-x="636" 
d="M265 -10q-45 0 -85 15t-70 44.5t-48 72t-18 96.5q0 60 20.5 113t59 92.5t92 63t119.5 23.5q33 0 61.5 -9t51 -23.5t39 -33.5t25.5 -39l73 345h70l-159 -750h-70l16 69q-13 -18 -33 -33t-43.5 -25t-49.5 -15.5t-51 -5.5zM274 55q43 0 82.5 16t69 45t47 70t17.5 91
q0 42 -12 73.5t-33 52.5t-50 31.5t-63 10.5q-44 0 -83 -16t-68.5 -45t-47 -70t-17.5 -91q0 -42 12 -73.5t33 -52.5t50 -31.5t63 -10.5zM388 641h318l-13 -61h-318z" />
    <glyph glyph-name="ebreve" unicode="&#x115;" horiz-adv-x="582" 
d="M268 -10q-47 0 -87.5 16.5t-70.5 47t-47.5 74.5t-17.5 98q0 58 20.5 110t57 90.5t87 61t111.5 22.5q54 0 98.5 -18.5t73.5 -54t41 -88t1 -119.5h-421q-1 -38 9.5 -70.5t31.5 -55.5t51 -36t68 -13q24 0 48 5t46 16.5t41 29t32 43.5h74q-12 -31 -32.5 -60t-51 -51t-71 -35
t-92.5 -13zM314 445q-31 0 -60.5 -9.5t-54 -29t-43 -48.5t-27.5 -67h337q2 70 -38.5 112t-113.5 42zM364 566q-29 0 -57 10.5t-48 31.5t-30 52t-3 71h53q-5 -29 0 -51t17.5 -36t31.5 -21t42 -7q41 0 70.5 28t40.5 87h53q-10 -80 -55 -122.5t-115 -42.5z" />
    <glyph glyph-name="ecaron" unicode="&#x11b;" horiz-adv-x="582" 
d="M268 -10q-47 0 -87.5 16.5t-70.5 47t-47.5 74.5t-17.5 98q0 58 20.5 110t57 90.5t87 61t111.5 22.5q54 0 98.5 -18.5t73.5 -54t41 -88t1 -119.5h-421q-1 -38 9.5 -70.5t31.5 -55.5t51 -36t68 -13q24 0 48 5t46 16.5t41 29t32 43.5h74q-12 -31 -32.5 -60t-51 -51t-71 -35
t-92.5 -13zM314 445q-31 0 -60.5 -9.5t-54 -29t-43 -48.5t-27.5 -67h337q2 70 -38.5 112t-113.5 42zM218 694l13 62l124 -104l187 104l-16 -75l-176 -97z" />
    <glyph glyph-name="emacron" unicode="&#x113;" horiz-adv-x="582" 
d="M268 -10q-47 0 -87.5 16.5t-70.5 47t-47.5 74.5t-17.5 98q0 58 20.5 110t57 90.5t87 61t111.5 22.5q54 0 98.5 -18.5t73.5 -54t41 -88t1 -119.5h-421q-1 -38 9.5 -70.5t31.5 -55.5t51 -36t68 -13q24 0 48 5t46 16.5t41 29t32 43.5h74q-12 -31 -32.5 -60t-51 -51t-71 -35
t-92.5 -13zM314 445q-31 0 -60.5 -9.5t-54 -29t-43 -48.5t-27.5 -67h337q2 70 -38.5 112t-113.5 42zM219 710h316l-13 -61h-316z" />
    <glyph glyph-name="eogonek" unicode="&#x119;" horiz-adv-x="583" 
d="M371 -219q-36 0 -57.5 20.5t-21.5 54.5q0 21 6.5 40.5t17 38.5t23.5 35.5t25 31.5q-26 -7 -48 -9.5t-44 -2.5q-48 0 -89.5 16.5t-72 47t-48 74.5t-17.5 98q0 58 20.5 110t57 90.5t87 61t111.5 22.5q54 0 98.5 -18.5t73.5 -54t41 -88t1 -119.5h-421q-1 -38 10 -70.5
t32 -55.5t52 -36t70 -13q53 0 95 22t68 72h74q-8 -20 -17.5 -38.5t-23.5 -35.5q-16 -20 -35.5 -45t-37 -52t-29 -53.5t-11.5 -50.5q0 -19 10.5 -27t25.5 -8q13 0 27.5 4.5t28.5 14.5l-12 -57q-14 -9 -31.5 -14.5t-38.5 -5.5zM314 445q-31 0 -60.5 -9.5t-54 -29t-43 -48.5
t-27.5 -67h337q2 70 -38.5 112t-113.5 42z" />
    <glyph glyph-name="edotaccent" unicode="&#x117;" horiz-adv-x="582" 
d="M268 -10q-47 0 -87.5 16.5t-70.5 47t-47.5 74.5t-17.5 98q0 58 20.5 110t57 90.5t87 61t111.5 22.5q54 0 98.5 -18.5t73.5 -54t41 -88t1 -119.5h-421q-1 -38 9.5 -70.5t31.5 -55.5t51 -36t68 -13q24 0 48 5t46 16.5t41 29t32 43.5h74q-12 -31 -32.5 -60t-51 -51t-71 -35
t-92.5 -13zM314 445q-31 0 -60.5 -9.5t-54 -29t-43 -48.5t-27.5 -67h337q2 70 -38.5 112t-113.5 42zM366 602q-23 0 -38.5 15.5t-15.5 37.5t15.5 37.5t38.5 15.5q22 0 37 -15.5t15 -37.5t-15 -37.5t-37 -15.5z" />
    <glyph glyph-name="gbreve" unicode="&#x11f;" horiz-adv-x="636" 
d="M232 -219q-52 0 -93 13.5t-70.5 37t-46 54t-20.5 63.5h69q10 -46 53 -75t114 -29q70 0 123.5 43.5t70.5 131.5l11 59q-13 -18 -33 -33t-43.5 -25t-49.5 -15.5t-51 -5.5q-44 0 -84 15t-70.5 43.5t-48.5 69.5t-18 94q0 59 21 111.5t59 91.5t92 62t119 23q33 0 61.5 -9
t51 -23.5t39 -33.5t25.5 -39l20 95h70l-105 -493q-24 -112 -91.5 -169t-174.5 -57zM275 65q43 0 82 15.5t69 44t47.5 68.5t17.5 89q0 40 -12 71t-33 51t-50 30.5t-63 10.5q-43 0 -82 -15.5t-68.5 -44t-47.5 -68t-18 -88.5q0 -41 12 -71.5t33 -51t50 -31t63 -10.5zM401 566
q-29 0 -57 10.5t-48 31.5t-30 52t-3 71h53q-5 -29 0 -51t17.5 -36t31.5 -21t42 -7q41 0 70.5 28t40.5 87h53q-10 -80 -55 -122.5t-115 -42.5z" />
    <glyph glyph-name="gcircumflex" unicode="&#x11d;" horiz-adv-x="636" 
d="M232 -219q-52 0 -93 13.5t-70.5 37t-46 54t-20.5 63.5h69q10 -46 53 -75t114 -29q70 0 123.5 43.5t70.5 131.5l11 59q-13 -18 -33 -33t-43.5 -25t-49.5 -15.5t-51 -5.5q-44 0 -84 15t-70.5 43.5t-48.5 69.5t-18 94q0 59 21 111.5t59 91.5t92 62t119 23q33 0 61.5 -9
t51 -23.5t39 -33.5t25.5 -39l20 95h70l-105 -493q-24 -112 -91.5 -169t-174.5 -57zM275 65q43 0 82 15.5t69 44t47.5 68.5t17.5 89q0 40 -12 71t-33 51t-50 30.5t-63 10.5q-43 0 -82 -15.5t-68.5 -44t-47.5 -68t-18 -88.5q0 -41 12 -71.5t33 -51t50 -31t63 -10.5zM556 649
l-13 -65l-127 103l-184 -103l16 73l176 99z" />
    <glyph glyph-name="uni0123" unicode="&#x123;" horiz-adv-x="636" 
d="M232 -219q-52 0 -93 13.5t-70.5 37t-46 54t-20.5 63.5h69q10 -46 53 -75t114 -29q70 0 123.5 43.5t70.5 131.5l11 59q-13 -18 -33 -33t-43.5 -25t-49.5 -15.5t-51 -5.5q-44 0 -84 15t-70.5 43.5t-48.5 69.5t-18 94q0 59 21 111.5t59 91.5t92 62t119 23q33 0 61.5 -9
t51 -23.5t39 -33.5t25.5 -39l20 95h70l-105 -493q-24 -112 -91.5 -169t-174.5 -57zM275 65q43 0 82 15.5t69 44t47.5 68.5t17.5 89q0 40 -12 71t-33 51t-50 30.5t-63 10.5q-43 0 -82 -15.5t-68.5 -44t-47.5 -68t-18 -88.5q0 -41 12 -71.5t33 -51t50 -31t63 -10.5zM401 602
q-22 0 -37 15.5t-15 37.5q0 13 5 22t10 15l77 93h40l-50 -86q24 -16 24 -44q0 -22 -15.5 -37.5t-38.5 -15.5z" />
    <glyph glyph-name="gdotaccent" unicode="&#x121;" horiz-adv-x="636" 
d="M232 -219q-52 0 -93 13.5t-70.5 37t-46 54t-20.5 63.5h69q10 -46 53 -75t114 -29q70 0 123.5 43.5t70.5 131.5l11 59q-13 -18 -33 -33t-43.5 -25t-49.5 -15.5t-51 -5.5q-44 0 -84 15t-70.5 43.5t-48.5 69.5t-18 94q0 59 21 111.5t59 91.5t92 62t119 23q33 0 61.5 -9
t51 -23.5t39 -33.5t25.5 -39l20 95h70l-105 -493q-24 -112 -91.5 -169t-174.5 -57zM275 65q43 0 82 15.5t69 44t47.5 68.5t17.5 89q0 40 -12 71t-33 51t-50 30.5t-63 10.5q-43 0 -82 -15.5t-68.5 -44t-47.5 -68t-18 -88.5q0 -41 12 -71.5t33 -51t50 -31t63 -10.5zM403 602
q-23 0 -38.5 15.5t-15.5 37.5t15.5 37.5t38.5 15.5q22 0 37 -15.5t15 -37.5t-15 -37.5t-37 -15.5z" />
    <glyph glyph-name="hbar" unicode="&#x127;" horiz-adv-x="587" 
d="M193 750h70l-68 -318q35 44 79.5 61t88.5 17q42 0 76 -16t55 -45t28 -69t-3 -89l-63 -291h-70l62 290q16 74 -12.5 114.5t-88.5 40.5q-32 0 -61 -11t-53.5 -33t-43 -56t-28.5 -79l-57 -266h-70zM96 641h318l-13 -61h-318z" />
    <glyph glyph-name="hcircumflex" unicode="&#x125;" horiz-adv-x="587" 
d="M193 750h70l-68 -318q35 44 79.5 61t88.5 17q42 0 76 -16t55 -45t28 -69t-3 -89l-63 -291h-70l62 290q16 74 -12.5 114.5t-88.5 40.5q-32 0 -61 -11t-53.5 -33t-43 -56t-28.5 -79l-57 -266h-70zM260 841l173 87l144 -98l-13 -62l-136 92l-184 -92z" />
    <glyph glyph-name="dotlessi" unicode="&#x131;" horiz-adv-x="244" 
d="M140 500h70l-106 -500h-70z" />
    <glyph glyph-name="ibreve" unicode="&#x12d;" horiz-adv-x="244" 
d="M140 500h70l-106 -500h-70zM207 566q-29 0 -57 10.5t-48 31.5t-30 52t-3 71h53q-5 -29 0 -51t17.5 -36t31.5 -21t42 -7q41 0 70.5 28t40.5 87h53q-10 -80 -55 -122.5t-115 -42.5z" />
    <glyph glyph-name="imacron" unicode="&#x12b;" horiz-adv-x="244" 
d="M140 500h70l-106 -500h-70zM62 710h316l-13 -61h-316z" />
    <glyph glyph-name="iogonek" unicode="&#x12f;" horiz-adv-x="244" 
d="M220 650q-23 0 -38.5 15.5t-15.5 37.5t15.5 37.5t38.5 15.5q22 0 37 -15.5t15 -37.5t-15 -37.5t-37 -15.5zM140 500h70l-106 -500h-70zM-8 -219q-36 0 -57.5 20.5t-21.5 54.5q0 22 11 42.5t28.5 39t39 34.5t42.5 28h70q-69 -40 -95.5 -75t-26.5 -57q0 -29 34 -29
q14 0 29 4.5t29 14.5l-12 -57q-14 -9 -31.5 -14.5t-38.5 -5.5z" />
    <glyph glyph-name="itilde" unicode="&#x129;" horiz-adv-x="244" 
d="M140 500h70l-106 -500h-70zM387 705l-4 -16q-6 -23 -17.5 -39.5t-27 -27.5t-34 -16.5t-36.5 -5.5q-20 0 -37 6.5t-32 15t-29 15t-29 6.5q-16 0 -29.5 -9.5t-22.5 -33.5h-61l4 16q6 23 17.5 39.5t27 27.5t34 16.5t36.5 5.5q20 0 37 -6.5t32 -15t29 -15t29 -6.5
q16 0 29.5 9.5t22.5 33.5h61z" />
    <glyph glyph-name="uni1ECB" unicode="&#x1ecb;" horiz-adv-x="244" 
d="M220 650q-23 0 -38.5 15.5t-15.5 37.5t15.5 37.5t38.5 15.5q22 0 37 -15.5t15 -37.5t-15 -37.5t-37 -15.5zM140 500h70l-106 -500h-70zM44 -181q-23 0 -38.5 15.5t-15.5 37.5t15.5 37.5t38.5 15.5q22 0 37 -15.5t15 -37.5t-15 -37.5t-37 -15.5z" />
    <glyph glyph-name="uni0237" unicode="&#x237;" horiz-adv-x="251" 
d="M-56 -219q-32 0 -54 8l13 64q8 -2 18.5 -4t24.5 -2q30 0 50 17t29 60l122 576h70l-125 -589q-14 -68 -49 -99t-99 -31z" />
    <glyph glyph-name="jcircumflex" unicode="&#x135;" horiz-adv-x="251" 
d="M-56 -219q-32 0 -54 8l13 64q8 -2 18.5 -4t24.5 -2q30 0 50 17t29 60l122 576h70l-125 -589q-14 -68 -49 -99t-99 -31zM361 649l-13 -65l-127 103l-184 -103l16 73l176 99z" />
    <glyph glyph-name="uni0137" unicode="&#x137;" horiz-adv-x="532" 
d="M158 255l-54 -255h-70l159 750h70l-95 -447l271 197h105l-311 -226l262 -274h-93zM187 -258h-40l50 86q-24 16 -24 44q0 22 15.5 37.5t38.5 15.5q22 0 37 -15.5t15 -37.5q0 -13 -5 -22t-10 -15z" />
    <glyph glyph-name="lacute" unicode="&#x13a;" horiz-adv-x="244" 
d="M193 750h70l-159 -750h-70zM361 980h105l-184 -152h-63z" />
    <glyph glyph-name="lcaron" unicode="&#x13e;" horiz-adv-x="247" 
d="M193 750h70l-159 -750h-70zM327 750h72l-80 -166h-50z" />
    <glyph glyph-name="uni013C" unicode="&#x13c;" horiz-adv-x="244" 
d="M193 750h70l-159 -750h-70zM3 -258h-40l50 86q-24 16 -24 44q0 22 15.5 37.5t38.5 15.5q22 0 37 -15.5t15 -37.5q0 -13 -5 -22t-10 -15z" />
    <glyph glyph-name="ldot" unicode="&#x140;" horiz-adv-x="378" 
d="M193 750h70l-159 -750h-70zM336 312q-23 0 -38.5 15.5t-15.5 37.5t15.5 37.5t38.5 15.5q22 0 37 -15.5t15 -37.5t-15 -37.5t-37 -15.5z" />
    <glyph glyph-name="glyph296" horiz-adv-x="378" 
d="M193 750h70l-159 -750h-70zM336 312q-23 0 -38.5 15.5t-15.5 37.5t15.5 37.5t38.5 15.5q22 0 37 -15.5t15 -37.5t-15 -37.5t-37 -15.5z" />
    <glyph glyph-name="lslash" unicode="&#x142;" horiz-adv-x="304" 
d="M223 750h70l-159 -750h-70zM38 255l15 71l262 150l-15 -71z" />
    <glyph glyph-name="eng" unicode="&#x14b;" horiz-adv-x="587" 
d="M289 -219q-19 0 -37.5 3t-32.5 9l13 64q27 -11 54 -11q32 0 53 17.5t31 59.5l78 367q16 75 -12 115t-91 40q-29 0 -55 -10t-48 -25.5t-39.5 -35.5t-27.5 -41l-71 -333h-70l106 500h70l-14 -62q24 29 68 50.5t98 21.5q42 0 76 -16t55.5 -44.5t28.5 -69t-3 -89.5l-82 -381
q-14 -66 -51 -97.5t-97 -31.5z" />
    <glyph glyph-name="nacute" unicode="&#x144;" horiz-adv-x="587" 
d="M140 500h70l-15 -68q35 44 79.5 61t88.5 17q42 0 76 -16t55 -45t28 -69t-3 -89l-63 -291h-70l62 290q16 74 -12.5 114.5t-88.5 40.5q-32 0 -61 -11t-53.5 -33t-43 -56t-28.5 -79l-57 -266h-70zM483 730h105l-184 -152h-63z" />
    <glyph glyph-name="ncaron" unicode="&#x148;" horiz-adv-x="587" 
d="M140 500h70l-15 -68q35 44 79.5 61t88.5 17q42 0 76 -16t55 -45t28 -69t-3 -89l-63 -291h-70l62 290q16 74 -12.5 114.5t-88.5 40.5q-32 0 -61 -11t-53.5 -33t-43 -56t-28.5 -79l-57 -266h-70zM237 694l13 62l124 -104l187 104l-16 -75l-176 -97z" />
    <glyph glyph-name="uni0146" unicode="&#x146;" horiz-adv-x="587" 
d="M140 500h70l-15 -68q35 44 79.5 61t88.5 17q42 0 76 -16t55 -45t28 -69t-3 -89l-63 -291h-70l62 290q16 74 -12.5 114.5t-88.5 40.5q-32 0 -61 -11t-53.5 -33t-43 -56t-28.5 -79l-57 -266h-70zM178 -258h-40l50 86q-24 16 -24 44q0 22 15.5 37.5t38.5 15.5q22 0 37 -15.5
t15 -37.5q0 -13 -5 -22t-10 -15z" />
    <glyph glyph-name="oe" unicode="&#x153;" horiz-adv-x="1033" 
d="M722 -10q-67 0 -120 31t-81 88q-35 -54 -93.5 -86.5t-138.5 -32.5q-60 0 -105 20t-75.5 53.5t-46 77.5t-15.5 92q0 56 19 106t55 88t87.5 60.5t116.5 22.5q81 0 135 -35t80 -90q37 57 98 91t141 34q51 0 94 -18.5t71.5 -54t40 -88t0.5 -119.5h-421q-1 -38 10 -70.5
t32 -55.5t52 -36t70 -13q53 0 95 21.5t68 72.5h74q-12 -31 -31 -60t-48 -51t-69.5 -35t-94.5 -13zM294 55q43 0 80 16.5t64 44.5t42 65.5t15 80.5t-12.5 77t-36 57.5t-55.5 36t-71 12.5q-44 0 -80.5 -16t-63.5 -44t-42 -65.5t-15 -80.5t12.5 -77t36 -58t55.5 -36.5t71 -12.5
zM775 445q-31 0 -62 -9.5t-58 -29t-47 -48.5t-29 -67h337q2 70 -33.5 112t-107.5 42z" />
    <glyph glyph-name="obreve" unicode="&#x14f;" horiz-adv-x="613" 
d="M294 55q43 0 80 16.5t64 44.5t42 65.5t15 80.5t-12.5 77t-36 57.5t-55.5 36t-71 12.5q-44 0 -80.5 -16t-63.5 -44t-42 -65.5t-15 -80.5t12.5 -77t36 -58t55.5 -36.5t71 -12.5zM289 -10q-60 0 -105 20t-75.5 53.5t-46 77.5t-15.5 92q0 56 19 106t55 88t87.5 60.5
t116.5 22.5q60 0 105 -20t75.5 -53t46 -77t15.5 -92q0 -56 -19 -106.5t-55 -88.5t-87.5 -60.5t-116.5 -22.5zM389 566q-29 0 -57 10.5t-48 31.5t-30 52t-3 71h53q-5 -29 0 -51t17.5 -36t31.5 -21t42 -7q41 0 70.5 28t40.5 87h53q-10 -80 -55 -122.5t-115 -42.5z" />
    <glyph glyph-name="ohungarumlaut" unicode="&#x151;" horiz-adv-x="613" 
d="M294 55q43 0 80 16.5t64 44.5t42 65.5t15 80.5t-12.5 77t-36 57.5t-55.5 36t-71 12.5q-44 0 -80.5 -16t-63.5 -44t-42 -65.5t-15 -80.5t12.5 -77t36 -58t55.5 -36.5t71 -12.5zM289 -10q-60 0 -105 20t-75.5 53.5t-46 77.5t-15.5 92q0 56 19 106t55 88t87.5 60.5
t116.5 22.5q60 0 105 -20t75.5 -53t46 -77t15.5 -92q0 -56 -19 -106.5t-55 -88.5t-87.5 -60.5t-116.5 -22.5zM510 750h90l-143 -190h-54zM348 750h90l-143 -190h-54z" />
    <glyph glyph-name="omacron" unicode="&#x14d;" horiz-adv-x="613" 
d="M294 55q43 0 80 16.5t64 44.5t42 65.5t15 80.5t-12.5 77t-36 57.5t-55.5 36t-71 12.5q-44 0 -80.5 -16t-63.5 -44t-42 -65.5t-15 -80.5t12.5 -77t36 -58t55.5 -36.5t71 -12.5zM289 -10q-60 0 -105 20t-75.5 53.5t-46 77.5t-15.5 92q0 56 19 106t55 88t87.5 60.5
t116.5 22.5q60 0 105 -20t75.5 -53t46 -77t15.5 -92q0 -56 -19 -106.5t-55 -88.5t-87.5 -60.5t-116.5 -22.5zM244 710h316l-13 -61h-316z" />
    <glyph glyph-name="uni1ECD" unicode="&#x1ecd;" horiz-adv-x="613" 
d="M294 55q43 0 80 16.5t64 44.5t42 65.5t15 80.5t-12.5 77t-36 57.5t-55.5 36t-71 12.5q-44 0 -80.5 -16t-63.5 -44t-42 -65.5t-15 -80.5t12.5 -77t36 -58t55.5 -36.5t71 -12.5zM289 -10q-60 0 -105 20t-75.5 53.5t-46 77.5t-15.5 92q0 56 19 106t55 88t87.5 60.5
t116.5 22.5q60 0 105 -20t75.5 -53t46 -77t15.5 -92q0 -56 -19 -106.5t-55 -88.5t-87.5 -60.5t-116.5 -22.5zM245 -181q-23 0 -38.5 15.5t-15.5 37.5t15.5 37.5t38.5 15.5q22 0 37 -15.5t15 -37.5t-15 -37.5t-37 -15.5z" />
    <glyph glyph-name="racute" unicode="&#x155;" horiz-adv-x="362" 
d="M140 500h70l-20 -93q13 26 32.5 44.5t42 30.5t46 17.5t45.5 5.5q20 0 35 -4l-15 -73q-18 7 -41 7t-50 -11t-52 -33.5t-45.5 -57t-30.5 -82.5l-53 -251h-70zM397 730h105l-184 -152h-63z" />
    <glyph glyph-name="rcaron" unicode="&#x159;" horiz-adv-x="362" 
d="M140 500h70l-20 -93q13 26 32.5 44.5t42 30.5t46 17.5t45.5 5.5q20 0 35 -4l-15 -73q-18 7 -41 7t-50 -11t-52 -33.5t-45.5 -57t-30.5 -82.5l-53 -251h-70zM151 694l13 62l124 -104l187 104l-16 -75l-176 -97z" />
    <glyph glyph-name="uni0157" unicode="&#x157;" horiz-adv-x="362" 
d="M140 500h70l-20 -93q13 26 32.5 44.5t42 30.5t46 17.5t45.5 5.5q20 0 35 -4l-15 -73q-18 7 -41 7t-50 -11t-52 -33.5t-45.5 -57t-30.5 -82.5l-53 -251h-70zM3 -258h-40l50 86q-24 16 -24 44q0 22 15.5 37.5t38.5 15.5q22 0 37 -15.5t15 -37.5q0 -13 -5 -22t-10 -15z" />
    <glyph glyph-name="sacute" unicode="&#x15b;" horiz-adv-x="446" 
d="M199 -10q-40 0 -73.5 11t-58 31t-38.5 47.5t-15 61.5h70q5 -44 38 -66t81 -22q20 0 39 6t33.5 16.5t23.5 24.5t9 30q0 32 -19 52.5t-59 36.5l-42 17q-44 17 -74 49.5t-30 84.5q0 33 12.5 59t34.5 44t52 27.5t65 9.5q39 0 69.5 -12.5t52 -32.5t33 -44.5t13.5 -49.5h-69
q-7 32 -32 54.5t-70 22.5q-18 0 -34 -5t-29 -14t-20.5 -22t-7.5 -29q0 -31 15 -48.5t48 -31.5l44 -18q24 -10 45 -22t37 -28.5t25.5 -39t9.5 -52.5q0 -66 -48 -107t-131 -41zM391 730h105l-184 -152h-63z" />
    <glyph glyph-name="scaron" unicode="&#x161;" horiz-adv-x="446" 
d="M199 -10q-40 0 -73.5 11t-58 31t-38.5 47.5t-15 61.5h70q5 -44 38 -66t81 -22q20 0 39 6t33.5 16.5t23.5 24.5t9 30q0 32 -19 52.5t-59 36.5l-42 17q-44 17 -74 49.5t-30 84.5q0 33 12.5 59t34.5 44t52 27.5t65 9.5q39 0 69.5 -12.5t52 -32.5t33 -44.5t13.5 -49.5h-69
q-7 32 -32 54.5t-70 22.5q-18 0 -34 -5t-29 -14t-20.5 -22t-7.5 -29q0 -31 15 -48.5t48 -31.5l44 -18q24 -10 45 -22t37 -28.5t25.5 -39t9.5 -52.5q0 -66 -48 -107t-131 -41zM145 694l13 62l124 -104l187 104l-16 -75l-176 -97z" />
    <glyph glyph-name="scedilla" unicode="&#x15f;" horiz-adv-x="446" 
d="M199 -10q-40 0 -73.5 11t-58 31t-38.5 47.5t-15 61.5h70q5 -44 38 -66t81 -22q20 0 39 6t33.5 16.5t23.5 24.5t9 30q0 32 -19 52.5t-59 36.5l-42 17q-44 17 -74 49.5t-30 84.5q0 33 12.5 59t34.5 44t52 27.5t65 9.5q39 0 69.5 -12.5t52 -32.5t33 -44.5t13.5 -49.5h-69
q-7 32 -32 54.5t-70 22.5q-18 0 -34 -5t-29 -14t-20.5 -22t-7.5 -29q0 -31 15 -48.5t48 -31.5l44 -18q24 -10 45 -22t37 -28.5t25.5 -39t9.5 -52.5q0 -66 -48 -107t-131 -41zM59 -153q16 -8 36.5 -12t38.5 -4q34 0 56 12t22 33q0 13 -10.5 21.5t-30.5 8.5q-12 0 -24.5 -2.5
t-24.5 -7.5l-27 21l67 86h55l-44 -56q15 6 32 6q33 0 51 -20.5t18 -48.5t-10.5 -47.5t-29.5 -32t-44.5 -18t-55.5 -5.5q-22 0 -46 4t-40 11z" />
    <glyph glyph-name="scircumflex" unicode="&#x15d;" horiz-adv-x="446" 
d="M199 -10q-40 0 -73.5 11t-58 31t-38.5 47.5t-15 61.5h70q5 -44 38 -66t81 -22q20 0 39 6t33.5 16.5t23.5 24.5t9 30q0 32 -19 52.5t-59 36.5l-42 17q-44 17 -74 49.5t-30 84.5q0 33 12.5 59t34.5 44t52 27.5t65 9.5q39 0 69.5 -12.5t52 -32.5t33 -44.5t13.5 -49.5h-69
q-7 32 -32 54.5t-70 22.5q-18 0 -34 -5t-29 -14t-20.5 -22t-7.5 -29q0 -31 15 -48.5t48 -31.5l44 -18q24 -10 45 -22t37 -28.5t25.5 -39t9.5 -52.5q0 -66 -48 -107t-131 -41zM446 649l-13 -65l-127 103l-184 -103l16 73l176 99z" />
    <glyph glyph-name="uni0219" unicode="&#x219;" horiz-adv-x="446" 
d="M199 -10q-40 0 -73.5 11t-58 31t-38.5 47.5t-15 61.5h70q5 -44 38 -66t81 -22q20 0 39 6t33.5 16.5t23.5 24.5t9 30q0 32 -19 52.5t-59 36.5l-42 17q-44 17 -74 49.5t-30 84.5q0 33 12.5 59t34.5 44t52 27.5t65 9.5q39 0 69.5 -12.5t52 -32.5t33 -44.5t13.5 -49.5h-69
q-7 32 -32 54.5t-70 22.5q-18 0 -34 -5t-29 -14t-20.5 -22t-7.5 -29q0 -31 15 -48.5t48 -31.5l44 -18q24 -10 45 -22t37 -28.5t25.5 -39t9.5 -52.5q0 -66 -48 -107t-131 -41zM121 -258h-40l50 86q-24 16 -24 44q0 22 15.5 37.5t38.5 15.5q22 0 37 -15.5t15 -37.5
q0 -13 -5 -22t-10 -15z" />
    <glyph glyph-name="tbar" unicode="&#x167;" horiz-adv-x="374" 
d="M238 -5q-34 0 -62.5 9.5t-47.5 29t-26 50.5t2 75l59 275h-107l14 66h107l30 139h70l-30 -139h146l-14 -66h-146l-59 -281q-6 -28 -2 -46.5t14.5 -29t27.5 -15t37 -4.5q14 0 27.5 2t22.5 4l-12 -63q-24 -6 -51 -6zM50 342h323l-13 -61h-323z" />
    <glyph glyph-name="tcaron" unicode="&#x165;" horiz-adv-x="360" 
d="M233 -5q-34 0 -62.5 9.5t-47.5 29t-26 50.5t2 75l59 275h-107l14 66h107l30 139h70l-30 -139h146l-14 -66h-146l-59 -281q-6 -28 -2 -46.5t14.5 -29t27.5 -15t37 -4.5q14 0 27.5 2t22.5 4l-12 -63q-24 -6 -51 -6zM350 710h72l-80 -166h-50z" />
    <glyph glyph-name="uni0163" unicode="&#x163;" horiz-adv-x="360" 
d="M233 -5q-34 0 -62.5 9.5t-47.5 29t-26 50.5t2 75l59 275h-107l14 66h107l30 139h70l-30 -139h146l-14 -66h-146l-59 -281q-6 -28 -2 -46.5t14.5 -29t27.5 -15t37 -4.5q14 0 27.5 2t22.5 4l-12 -63q-24 -6 -51 -6zM121 -258h-40l50 86q-24 16 -24 44q0 22 15.5 37.5
t38.5 15.5q22 0 37 -15.5t15 -37.5q0 -13 -5 -22t-10 -15z" />
    <glyph glyph-name="uni021B" unicode="&#x21b;" horiz-adv-x="360" 
d="M233 -5q-34 0 -62.5 9.5t-47.5 29t-26 50.5t2 75l59 275h-107l14 66h107l30 139h70l-30 -139h146l-14 -66h-146l-59 -281q-6 -28 -2 -46.5t14.5 -29t27.5 -15t37 -4.5q14 0 27.5 2t22.5 4l-12 -63q-24 -6 -51 -6zM121 -258h-40l50 86q-24 16 -24 44q0 22 15.5 37.5
t38.5 15.5q22 0 37 -15.5t15 -37.5q0 -13 -5 -22t-10 -15z" />
    <glyph glyph-name="ubreve" unicode="&#x16d;" horiz-adv-x="578" 
d="M223 -10q-42 0 -75.5 16t-54.5 45t-28 69t4 89l63 291h70l-62 -290q-16 -72 11 -113.5t84 -41.5q63 -1 112.5 44t69.5 135l57 266h70l-106 -500h-70l15 68q-33 -42 -75.5 -60t-84.5 -18zM369 566q-29 0 -57 10.5t-48 31.5t-30 52t-3 71h53q-5 -29 0 -51t17.5 -36
t31.5 -21t42 -7q41 0 70.5 28t40.5 87h53q-10 -80 -55 -122.5t-115 -42.5z" />
    <glyph glyph-name="uhungarumlaut" unicode="&#x171;" horiz-adv-x="578" 
d="M223 -10q-42 0 -75.5 16t-54.5 45t-28 69t4 89l63 291h70l-62 -290q-16 -72 11 -113.5t84 -41.5q63 -1 112.5 44t69.5 135l57 266h70l-106 -500h-70l15 68q-33 -42 -75.5 -60t-84.5 -18zM490 750h90l-143 -190h-54zM328 750h90l-143 -190h-54z" />
    <glyph glyph-name="umacron" unicode="&#x16b;" horiz-adv-x="578" 
d="M223 -10q-42 0 -75.5 16t-54.5 45t-28 69t4 89l63 291h70l-62 -290q-16 -72 11 -113.5t84 -41.5q63 -1 112.5 44t69.5 135l57 266h70l-106 -500h-70l15 68q-33 -42 -75.5 -60t-84.5 -18zM224 710h316l-13 -61h-316z" />
    <glyph glyph-name="uogonek" unicode="&#x173;" horiz-adv-x="578" 
d="M223 -10q-42 0 -75.5 16t-54.5 45t-28 69t4 89l63 291h70l-62 -290q-16 -72 11 -113.5t84 -41.5q63 -1 112.5 44t69.5 135l57 266h70l-106 -500h-70l15 68q-33 -42 -75.5 -60t-84.5 -18zM326 -219q-36 0 -57.5 20.5t-21.5 54.5q0 22 11 42.5t28.5 39t39 34.5t42.5 28h70
q-69 -40 -95.5 -75t-26.5 -57q0 -29 34 -29q14 0 29 4.5t29 14.5l-12 -57q-14 -9 -31.5 -14.5t-38.5 -5.5z" />
    <glyph glyph-name="uring" unicode="&#x16f;" horiz-adv-x="578" 
d="M223 -10q-42 0 -75.5 16t-54.5 45t-28 69t4 89l63 291h70l-62 -290q-16 -72 11 -113.5t84 -41.5q63 -1 112.5 44t69.5 135l57 266h70l-106 -500h-70l15 68q-33 -42 -75.5 -60t-84.5 -18zM370 543q-25 0 -47 9.5t-38.5 26t-26 38t-9.5 46.5t9.5 46.5t26 38t38.5 26t47 9.5
t47 -9.5t38.5 -26t26.5 -38t10 -46.5t-10 -46.5t-26.5 -38t-38.5 -26t-47 -9.5zM370 590q31 0 52.5 21t21.5 52q0 30 -21.5 52t-52.5 22q-30 0 -51.5 -22t-21.5 -52q0 -31 21.5 -52t51.5 -21z" />
    <glyph glyph-name="utilde" unicode="&#x169;" horiz-adv-x="578" 
d="M223 -10q-42 0 -75.5 16t-54.5 45t-28 69t4 89l63 291h70l-62 -290q-16 -72 11 -113.5t84 -41.5q63 -1 112.5 44t69.5 135l57 266h70l-106 -500h-70l15 68q-33 -42 -75.5 -60t-84.5 -18zM549 705l-4 -16q-6 -23 -17.5 -39.5t-27 -27.5t-34 -16.5t-36.5 -5.5
q-20 0 -37 6.5t-32 15t-29 15t-29 6.5q-16 0 -29.5 -9.5t-22.5 -33.5h-61l4 16q6 23 17.5 39.5t27 27.5t34 16.5t36.5 5.5q20 0 37 -6.5t32 -15t29 -15t29 -6.5q16 0 29.5 9.5t22.5 33.5h61z" />
    <glyph glyph-name="uni1EE5" unicode="&#x1ee5;" horiz-adv-x="578" 
d="M223 -10q-42 0 -75.5 16t-54.5 45t-28 69t4 89l63 291h70l-62 -290q-16 -72 11 -113.5t84 -41.5q63 -1 112.5 44t69.5 135l57 266h70l-106 -500h-70l15 68q-33 -42 -75.5 -60t-84.5 -18zM206 -181q-23 0 -38.5 15.5t-15.5 37.5t15.5 37.5t38.5 15.5q22 0 37 -15.5
t15 -37.5t-15 -37.5t-37 -15.5z" />
    <glyph glyph-name="wacute" unicode="&#x1e83;" horiz-adv-x="749" 
d="M66 500h69l49 -379l212 379h54l52 -379l209 379h78l-277 -500h-58l-51 381l-214 -381h-58zM555 730h105l-184 -152h-63z" />
    <glyph glyph-name="wcircumflex" unicode="&#x175;" horiz-adv-x="749" 
d="M66 500h69l49 -379l212 379h54l52 -379l209 379h78l-277 -500h-58l-51 381l-214 -381h-58zM610 649l-13 -65l-127 103l-184 -103l16 73l176 99z" />
    <glyph glyph-name="wdieresis" unicode="&#x1e85;" horiz-adv-x="749" 
d="M66 500h69l49 -379l212 379h54l52 -379l209 379h78l-277 -500h-58l-51 381l-214 -381h-58zM345 602q-23 0 -38.5 15.5t-15.5 37.5t15.5 37.5t38.5 15.5q22 0 37 -15.5t15 -37.5t-15 -37.5t-37 -15.5zM567 602q-23 0 -38.5 15.5t-15.5 37.5t15.5 37.5t38.5 15.5
q22 0 37 -15.5t15 -37.5t-15 -37.5t-37 -15.5z" />
    <glyph glyph-name="wgrave" unicode="&#x1e81;" horiz-adv-x="749" 
d="M66 500h69l49 -379l212 379h54l52 -379l209 379h78l-277 -500h-58l-51 381l-214 -381h-58zM410 578l-60 152h83l30 -152h-53z" />
    <glyph glyph-name="ycircumflex" unicode="&#x177;" horiz-adv-x="538" 
d="M182 28l-121 472h74l98 -397l268 397h83l-482 -709h-81zM506 649l-13 -65l-127 103l-184 -103l16 73l176 99z" />
    <glyph glyph-name="ygrave" unicode="&#x1ef3;" horiz-adv-x="538" 
d="M182 28l-121 472h74l98 -397l268 397h83l-482 -709h-81zM306 578l-60 152h83l30 -152h-53z" />
    <glyph glyph-name="uni0233" unicode="&#x233;" horiz-adv-x="538" 
d="M182 28l-121 472h74l98 -397l268 397h83l-482 -709h-81zM206 710h316l-13 -61h-316z" />
    <glyph glyph-name="zacute" unicode="&#x17a;" horiz-adv-x="475" 
d="M-2 56l375 379h-291l14 65h388l-12 -57l-374 -378h303l-14 -65h-401zM432 730h105l-184 -152h-63z" />
    <glyph glyph-name="zcaron" unicode="&#x17e;" horiz-adv-x="475" 
d="M-2 56l375 379h-291l14 65h388l-12 -57l-374 -378h303l-14 -65h-401zM186 694l13 62l124 -104l187 104l-16 -75l-176 -97z" />
    <glyph glyph-name="zdotaccent" unicode="&#x17c;" horiz-adv-x="475" 
d="M-2 56l375 379h-291l14 65h388l-12 -57l-374 -378h303l-14 -65h-401zM334 602q-23 0 -38.5 15.5t-15.5 37.5t15.5 37.5t38.5 15.5q22 0 37 -15.5t15 -37.5t-15 -37.5t-37 -15.5z" />
    <glyph glyph-name="uni0259" unicode="&#x259;" horiz-adv-x="583" 
d="M261 -10q-53 0 -97 18.5t-73.5 54t-42 87.5t-1.5 120h421q1 38 -9.5 70t-31.5 55.5t-51.5 36.5t-67.5 13q-24 0 -48 -5t-46 -16.5t-41 -29.5t-32 -43h-74q12 31 32.5 60t51 51t71 35t92.5 13q46 0 87 -16.5t71 -47t47.5 -74.5t17.5 -98q0 -59 -19.5 -110.5t-55.5 -90
t-87 -61t-114 -22.5zM268 55q31 0 60 9.5t54 29t43.5 48.5t27.5 67h-337q-2 -70 38.5 -112t113.5 -42z" />
    <glyph glyph-name="ellipsis" unicode="&#x2026;" horiz-adv-x="699" 
d="M85 -8q-28 0 -47 20t-19 47t19 47t47 20t47 -20t19 -47t-19 -47t-47 -20zM316 -8q-28 0 -47 20t-19 47t19 47t47 20t47 -20t19 -47t-19 -47t-47 -20zM548 -8q-28 0 -47 20t-19 47t19 47t47 20t47 -20t19 -47t-19 -47t-47 -20z" />
    <glyph glyph-name="endash" unicode="&#x2013;" horiz-adv-x="557" 
d="M78 316h422l-15 -72h-422z" />
    <glyph glyph-name="emdash" unicode="&#x2014;" horiz-adv-x="557" 
d="M78 316h422l-15 -72h-422z" />
    <glyph glyph-name="guilsinglleft" unicode="&#x2039;" horiz-adv-x="299" 
d="M229 467h61l-163 -228l71 -206h-56l-98 217z" />
    <glyph glyph-name="guilsinglright" unicode="&#x203a;" horiz-adv-x="301" 
d="M66 34h-61l163 228l-71 206h56l98 -217z" />
    <glyph glyph-name="quoteleft" unicode="&#x2018;" horiz-adv-x="244" 
d="M239.985 709.957h51.9971l-90.9951 -143.991q26.999 -23.999 26.999 -54.9971q0 -26.998 -18.999 -46.9971t-46.9971 -19.999t-46.9971 19.999t-18.999 46.9971q0 12.999 3.5 22.999q3.5 9.99902 14.499 22.998z" />
    <glyph glyph-name="quoteright" unicode="&#x2019;" horiz-adv-x="246" 
d="M144 450h-52l91 144q-27 24 -27 55q0 27 19 47t47 20t47 -20t19 -47q0 -13 -3.5 -23t-14.5 -23z" />
    <glyph glyph-name="uni02BB" unicode="&#x2bb;" horiz-adv-x="244" 
d="M239.985 709.957h51.9971l-90.9951 -143.991q26.999 -23.999 26.999 -54.9971q0 -26.998 -18.999 -46.9971t-46.9971 -19.999t-46.9971 19.999t-18.999 46.9971q0 12.999 3.5 22.999q3.5 9.99902 14.499 22.998z" />
    <glyph glyph-name="uni02BC" unicode="&#x2bc;" horiz-adv-x="246" 
d="M144 450h-52l91 144q-27 24 -27 55q0 27 19 47t47 20t47 -20t19 -47q0 -13 -3.5 -23t-14.5 -23z" />
    <glyph glyph-name="quotedblleft" unicode="&#x201c;" horiz-adv-x="416" 
d="M239.985 709.957h51.9971l-90.9951 -143.991q26.999 -23.999 26.999 -54.9971q0 -26.998 -18.999 -46.9971t-46.9971 -19.999t-46.9971 19.999t-18.999 46.9971q0 12.999 3.5 22.999q3.5 9.99902 14.499 22.998zM411.975 709.957h51.9971l-90.9941 -143.991
q26.998 -23.999 26.998 -54.9971q0 -26.998 -18.999 -46.9971t-46.9971 -19.999t-46.9971 19.999t-18.999 46.9971q0 12.999 3.5 22.999q3.5 9.99902 14.499 22.998z" />
    <glyph glyph-name="quotedblright" unicode="&#x201d;" horiz-adv-x="418" 
d="M144 450h-52l91 144q-27 24 -27 55q0 27 19 47t47 20t47 -20t19 -47q0 -13 -3.5 -23t-14.5 -23zM316 450h-52l91 144q-27 24 -27 55q0 27 19 47t47 20t47 -20t19 -47q0 -13 -3.5 -23t-14.5 -23z" />
    <glyph glyph-name="quotesinglbase" unicode="&#x201a;" horiz-adv-x="247" 
d="M12 -140h-52l91 144q-27 24 -27 55q0 27 19 47t47 20t47 -20t19 -47q0 -13 -3.5 -23t-14.5 -23z" />
    <glyph glyph-name="quotedblbase" unicode="&#x201e;" horiz-adv-x="419" 
d="M12 -140h-52l91 144q-27 24 -27 55q0 27 19 47t47 20t47 -20t19 -47q0 -13 -3.5 -23t-14.5 -23zM184 -140h-52l91 144q-27 24 -27 55q0 27 19 47t47 20t47 -20t19 -47q0 -13 -3.5 -23t-14.5 -23z" />
    <glyph glyph-name="bullet" unicode="&#x2022;" horiz-adv-x="426" 
d="M219 166q-28 0 -52.5 10.5t-43 29t-29.5 43.5t-11 53t11 53t29.5 43.5t43 29t52.5 10.5t53 -10.5t43.5 -29t29.5 -43.5t11 -53t-11 -53t-29.5 -43.5t-43.5 -29t-53 -10.5z" />
    <glyph glyph-name="dagger" unicode="&#x2020;" horiz-adv-x="505" 
d="M255 435h-188l14 65h188l45 210h67l-45 -210h188l-14 -65h-188l-113 -533h-67z" />
    <glyph glyph-name="daggerdbl" unicode="&#x2021;" horiz-adv-x="533" 
d="M268 112l-45 -210h-67l45 210h-188l13 65h188l55 258h-188l14 65h188l45 210h67l-45 -210h188l-14 -65h-188l-55 -258h188l-13 -65h-188z" />
    <glyph glyph-name="perthousand" unicode="&#x2030;" horiz-adv-x="1506" 
d="M1256 -8q-41 0 -77 15.5t-62.5 42.5t-42 62.5t-15.5 76.5t15.5 77t42 62.5t62.5 42t77 15.5q40 0 76 -15.5t63 -42t42.5 -62.5t15.5 -77t-15.5 -76.5t-42.5 -62.5t-63 -42.5t-76 -15.5zM1256 58q27 0 50.5 10.5t41.5 28.5t28 41.5t10 50.5t-10 50.5t-28 41.5t-41.5 28.5
t-50.5 10.5t-50.5 -10.5t-41.5 -28.5t-28 -41.5t-10 -50.5t10 -50.5t28 -41.5t41.5 -28.5t50.5 -10.5zM217 0l601 710h85l-601 -710h-85zM832 -8q-41 0 -77 15.5t-62.5 42.5t-42 62.5t-15.5 76.5t15.5 77t42 62.5t62.5 42t77 15.5q40 0 76 -15.5t63 -42t42.5 -62.5t15.5 -77
t-15.5 -76.5t-42.5 -62.5t-63 -42.5t-76 -15.5zM832 58q27 0 50.5 10.5t41.5 28.5t28 41.5t10 50.5t-10 50.5t-28 41.5t-41.5 28.5t-50.5 10.5t-50.5 -10.5t-41.5 -28.5t-28 -41.5t-10 -50.5t10 -50.5t28 -41.5t41.5 -28.5t50.5 -10.5zM288 324q-41 0 -77 15.5t-62.5 42.5
t-42 62.5t-15.5 76.5t15.5 77t42 62.5t62.5 42t77 15.5q40 0 76 -15.5t63 -42t42.5 -62.5t15.5 -77t-15.5 -76.5t-42.5 -62.5t-63 -42.5t-76 -15.5zM288 390q27 0 50.5 10.5t41.5 28.5t28 41.5t10 50.5t-10 50.5t-28 41.5t-41.5 28.5t-50.5 10.5t-50.5 -10.5t-41.5 -28.5
t-28 -41.5t-10 -50.5t10 -50.5t28 -41.5t41.5 -28.5t50.5 -10.5z" />
    <glyph glyph-name="uni2117" unicode="&#x2117;" horiz-adv-x="842" 
d="M440 -12q-75 0 -142 29t-117 79t-79 116.5t-29 142.5t29 142.5t79 116.5t117 79t142 29q76 0 143 -29t117 -79t79 -116.5t29 -142.5t-29 -142.5t-79 -116.5t-117 -79t-143 -29zM440 55q62 0 116.5 23.5t95.5 64.5t65 95.5t24 116.5t-24 116.5t-65 95.5t-95.5 64.5
t-116.5 23.5t-116.5 -23.5t-95 -64.5t-64.5 -95.5t-24 -116.5t24 -116.5t64.5 -95.5t95 -64.5t116.5 -23.5zM592 418q0 -26 -9.5 -48t-26.5 -38.5t-41 -26t-52 -9.5h-54v-127h-67v373h121q28 0 52 -9.5t41 -26t26.5 -39.5t9.5 -49zM527 418q0 26 -17.5 43.5t-47.5 17.5h-53
v-121h53q30 0 47.5 17t17.5 43z" />
    <glyph glyph-name="trademark" unicode="&#x2122;" horiz-adv-x="906" 
d="M485 710h59l124 -172l124 172h59v-392h-61v287l-122 -169l-122 169v-287h-61v392zM240 650h-117v60h295v-60h-117v-332h-61v332z" />
    <glyph glyph-name="uni2116" unicode="&#x2116;" horiz-adv-x="1118" 
d="M573 0l-328 589l-125 -589h-76l151 710h67l327 -590l126 590h76l-151 -710h-67zM982 405q-32 0 -60 12.5t-49 33.5t-33 49t-12 60t12 60t33 49t49 33.5t60 12.5t60 -12.5t49 -33.5t33.5 -49t12.5 -60t-12.5 -60t-33.5 -49t-49 -33.5t-60 -12.5zM982 464q40 0 68 28t28 68
t-28 68t-68 28q-20 0 -37 -7.5t-30 -20.5t-20.5 -30.5t-7.5 -37.5t7.5 -37.5t20.5 -30.5t30 -20.5t37 -7.5zM791 359h299l-13 -59h-299z" />
    <glyph glyph-name="glyph357" horiz-adv-x="535" 
d="M443 723l-131 -252l233 10l-415 -492l242 402l-205 -12l147 296zM535 465q5 0 5 -5q0 4 4 5q-4 0 -4 5t5 5t5 -5t-4 -5q3 -1 4 -4q0 4 5 4t5 -5t-4 -5q4 -2 4 -5q0 -5 -4 -5q3 -1 4 -4q0 4 5 4t5 -5t-4 -5q4 -2 4 -5q0 -5 -5 -5t-5 4q-2 -4 -4 -4q4 -2 4 -5q0 -5 -5 -5
t-5 4q-2 -4 -4 -4q4 -2 4 -5q0 -5 -5 -5t-5 4q-2 -4 -4 -4q4 -2 4 -5q0 -5 -5 -5t-5 4q-2 -4 -4 -4q4 -2 4 -5q0 -5 -5 -5t-5 4q-2 -4 -4 -4q4 -2 4 -5q0 -5 -5 -5t-5 4q-2 -4 -4 -4q4 -2 4 -5q0 -5 -5 -5t-5 4q-2 -4 -4 -4q4 -2 4 -5q0 -5 -4 -5q4 -2 4 -5q0 -5 -5 -5t-5 4
q-2 -4 -4 -4q4 -2 4 -5q0 -5 -5 -5t-5 4q-2 -4 -4 -4q4 -2 4 -5q0 -5 -5 -5t-5 4q-2 -4 -4 -4q4 -2 4 -5q0 -5 -5 -5t-5 4q-2 -4 -4 -4q4 -2 4 -5q0 -5 -5 -5t-5 4q-2 -4 -4 -4q4 -2 4 -5q0 -5 -5 -5t-5 4q-2 -4 -4 -4q4 -2 4 -5q0 -5 -5 -5t-5 4q-2 -4 -4 -4q4 -2 4 -5
q0 -5 -5 -5t-5 4q-2 -4 -4 -4q4 -2 4 -5q0 -5 -5 -5t-5 4q-2 -4 -4 -4q4 -2 4 -5q0 -5 -5 -5t-5 4q-2 -4 -4 -4q4 -2 4 -5q0 -5 -5 -5t-5 4q-2 -4 -4 -4q4 -2 4 -5q0 -5 -5 -5t-5 4q-2 -4 -4 -4q4 -2 4 -5q0 -5 -5 -5t-5 4q-2 -4 -4 -4q4 -2 4 -5q0 -5 -4 -5q4 -2 4 -5
q0 -5 -5 -5t-5 4q-2 -4 -4 -4q4 -2 4 -5q0 -5 -5 -5t-5 4q-2 -4 -4 -4q4 -2 4 -5q0 -5 -5 -5t-5 4q-2 -4 -4 -4q4 -2 4 -5q0 -5 -5 -5t-5 4q-2 -4 -4 -4q4 -2 4 -5q0 -5 -5 -5t-5 4q-2 -4 -4 -4q4 -2 4 -5q0 -5 -5 -5t-5 4q-2 -4 -4 -4q4 -2 4 -5q0 -5 -5 -5t-5 4
q-2 -4 -4 -4q4 -2 4 -5q0 -5 -5 -5t-5 4q-2 -4 -4 -4q4 -2 4 -5q0 -5 -5 -5t-5 4q-2 -4 -4 -4q4 -2 4 -5q0 -5 -5 -5t-5 4q-2 -4 -4 -4q4 -2 4 -5q0 -5 -5 -5t-5 4q-2 -4 -4 -4q4 -2 4 -5q0 -5 -4 -5q4 -2 4 -5q0 -5 -5 -5t-5 4q-2 -4 -4 -4q4 -2 4 -5q0 -5 -5 -5t-5 4
q-2 -4 -4 -4q4 -2 4 -5q0 -5 -5 -5t-5 4q-2 -4 -4 -4q4 -2 4 -5q0 -5 -5 -5t-5 4q-2 -4 -4 -4q4 -2 4 -5q0 -5 -5 -5t-5 4q-2 -4 -4 -4q4 -2 4 -5q0 -5 -5 -5t-5 4q-2 -4 -4 -4q4 -2 4 -5q0 -5 -5 -5t-5 4q-2 -4 -4 -4q4 -2 4 -5q0 -5 -5 -5t-5 4q-2 -4 -4 -4q4 -2 4 -5
q0 -5 -5 -5t-5 4q-2 -4 -4 -4q4 -2 4 -5q0 -5 -5 -5t-5 4q-1 -3 -4 -4q4 0 4 -5t-5 -5t-5 4q-1 -3 -4 -4q4 0 4 -5t-5 -5t-5 5t4 5q-4 1 -4 5q0 5 5 5t5 -5q0 5 4 5q-4 1 -4 5t4 5q-4 0 -4 5t5 5t5 -5q0 4 4 5q-4 0 -4 5t5 5q3 0 5 -4q0 2 4 4q-4 0 -4 5t5 5q3 0 5 -4
q0 2 4 4q-4 0 -4 5t5 5q3 0 5 -4q0 2 4 4q-4 0 -4 5t5 5t5 -5q0 4 4 5q-4 0 -4 5t5 5t5 -5q0 4 4 5q-4 0 -4 5q0 4 4 5q-4 0 -4 5t5 5t5 -5q0 4 4 5q-4 0 -4 5t5 5q3 0 5 -4q0 2 4 4q-4 0 -4 5t5 5q3 0 5 -4q0 2 4 4q-4 0 -4 5t5 5t5 -5q0 4 4 5q-4 0 -4 5t5 5t5 -5q0 4 4 5
q-4 0 -4 5q0 4 4 5q-4 0 -4 5t5 5q3 0 5 -4q0 2 4 4q-4 0 -4 5t5 5t5 -5q0 4 4 5q-4 0 -4 5t5 5t5 -5q0 4 4 5q-4 0 -4 5t5 5t5 -5q0 4 4 5q-4 0 -4 5t5 5t5 -5q0 4 4 5q-4 0 -4 5q0 4 4 5q-4 0 -4 5t5 5t5 -5q0 4 4 5q-4 0 -4 5t5 5q3 0 5 -4q0 2 4 4q-4 0 -4 5t5 5t5 -5
q0 4 4 5q-4 0 -4 5t5 5t5 -5q0 4 4 5q-4 0 -4 5t5 5t5 -5q0 4 4 5q-4 0 -4 5t5 5t5 -5q0 4 4 5q-4 0 -4 5q0 4 4 5q-4 0 -4 5t5 5t5 -5q0 4 4 5q-4 0 -4 5t5 5q3 0 5 -4q0 2 4 4q-4 0 -4 5t5 5t5 -5q0 4 4 5q-4 0 -4 5t5 5q3 0 5 -4q0 2 4 4q-4 0 -4 5t5 5q3 0 5 -4q0 2 4 4
q-4 0 -4 5q0 4 4 5q-4 0 -4 5t5 5t5 -5q0 4 4 5q-4 0 -4 5t5 5t5 -5q0 4 4 5q-4 0 -4 5t5 5t5 -5q0 4 4 5q-4 0 -4 5t5 5t5 -5q0 4 4 5q-4 0 -4 5t5 5t5 -5q0 4 4 5q-4 0 -4 5q0 4 4 5q-4 0 -4 5t5 5t5 -5q0 4 4 5q-4 0 -4 5t5 5q3 0 5 -4q0 2 4 4q-4 0 -4 5t5 5q3 0 5 -4
q0 2 4 4q-4 0 -4 5t5 5q3 0 5 -4q0 2 4 4q-4 0 -4 5t5 5t5 -5q0 4 4 5q-4 0 -4 5t5 5q3 0 5 -4q0 2 4 4q-4 0 -4 5q0 4 4 5q-4 0 -4 5t5 5zM435 695q3 0 5 -4q0 2 4 4q-4 0 -4 5q0 4 4 5q-4 0 -4 5t5 5t5 -5t-4 -5q3 -1 4 -4q0 4 5 4t5 -5t-4 -5q3 -1 4 -4q0 4 5 4t5 -5
t-4 -5q4 -2 4 -5q0 -5 -5 -5t-5 4q-2 -4 -4 -4q4 -2 4 -5q0 -5 -4 -5q4 -2 4 -5q0 -5 -5 -5t-5 4q-2 -4 -4 -4q4 -2 4 -5q0 -5 -5 -5t-5 4q-2 -4 -4 -4q4 -2 4 -5q0 -5 -4 -5q4 -2 4 -5q0 -5 -5 -5t-5 4q-2 -4 -4 -4q4 -2 4 -5q0 -5 -4 -5q4 -2 4 -5q0 -5 -5 -5t-5 4
q-2 -4 -4 -4q4 -2 4 -5q0 -5 -4 -5q4 -2 4 -5q0 -5 -5 -5t-5 4q-2 -4 -4 -4q4 -2 4 -5q0 -5 -5 -5t-5 4q-2 -4 -4 -4q4 -2 4 -5q0 -5 -4 -5q4 -2 4 -5q0 -5 -5 -5t-5 4q-2 -4 -4 -4q4 -2 4 -5q0 -5 -4 -5q4 -2 4 -5q0 -5 -5 -5t-5 4q-2 -4 -4 -4q4 -2 4 -5q0 -5 -4 -5
q4 -2 4 -5q0 -5 -5 -5t-5 4q-2 -4 -4 -4q4 -2 4 -5q0 -5 -4 -5q4 -2 4 -5q0 -5 -5 -5t-5 4q-2 -4 -4 -4q4 -2 4 -5q0 -5 -4 -5q4 -2 4 -5q0 -5 -5 -5t-5 4q-1 -4 -5 -4q-5 0 -5 4q-1 -4 -5 -4q-5 0 -5 4q-1 -4 -5 -4q-5 0 -5 5t5 5q3 0 5 -4q0 2 4 4q-4 0 -4 5q0 4 4 5
q-4 0 -4 5t5 5q3 0 5 -4q0 2 4 4q-4 0 -4 5q0 4 4 5q-4 0 -4 5t5 5t5 -5q0 4 4 5q-4 0 -4 5q0 4 4 5q-4 0 -4 5t5 5q3 0 5 -4q0 2 4 4q-4 0 -4 5q0 4 4 5q-4 0 -4 5t5 5t5 -5q0 4 4 5q-4 0 -4 5q0 4 4 5q-4 0 -4 5t5 5q3 0 5 -4q0 2 4 4q-4 0 -4 5q0 4 4 5q-4 0 -4 5t5 5
t5 -5q0 4 4 5q-4 0 -4 5t5 5q3 0 5 -4q0 2 4 4q-4 0 -4 5q0 4 4 5q-4 0 -4 5t5 5q3 0 5 -4q0 2 4 4q-4 0 -4 5q0 4 4 5q-4 0 -4 5t5 5q3 0 5 -4q0 2 4 4q-4 0 -4 5q0 4 4 5q-4 0 -4 5t5 5t5 -5q0 4 4 5q-4 0 -4 5q0 4 4 5q-4 0 -4 5t5 5zM355 385q5 0 5 -5t-5 -5t-5 4
q-2 -4 -4 -4q4 -2 4 -5q0 -5 -4 -5q4 -2 4 -5q0 -5 -5 -5t-5 4q-1 -4 -5 -4q-5 0 -5 4q-1 -4 -5 -4q-5 0 -5 4q-1 -4 -5 -4q-5 0 -5 4q-1 -4 -5 -4q-5 0 -5 4q-1 -4 -5 -4q-5 0 -5 4q-1 -4 -5 -4q-5 0 -5 4q-1 -4 -5 -4q-5 0 -5 4q-2 -4 -4 -4q4 -2 4 -5q0 -5 -5 -5t-5 4
q-1 -4 -5 -4q-5 0 -5 4q-1 -4 -5 -4q-5 0 -5 4q-1 -4 -5 -4q-5 0 -5 4q-1 -4 -5 -4q-5 0 -5 4q-1 -4 -5 -4q-5 0 -5 4q-1 -4 -5 -4q-5 0 -5 4q-1 -4 -5 -4q-5 0 -5 4q-1 -4 -5 -4q-5 0 -5 5q0 4 4 5q-4 0 -4 4q-1 -4 -5 -4q-5 0 -5 5q0 4 4 5q-4 0 -4 5t5 5t5 -5q0 5 5 5
t5 -5q0 5 5 5q3 0 5 -4q0 4 5 4t5 -5q0 5 5 5q3 0 5 -4q0 4 5 4t5 -5q0 5 5 5t5 -5q0 5 5 5t5 -5q0 5 5 5t5 -5q0 5 5 5t5 -5q0 4 4 5q-4 0 -4 5t5 5q3 0 5 -4q0 4 5 4t5 -5q0 5 5 5q3 0 5 -4q0 4 5 4t5 -5q0 5 5 5t5 -5q0 5 5 5q3 0 5 -4q0 4 5 4q3 0 5 -4q0 4 5 4
q3 0 5 -4q0 4 5 4zM190 39q-2 -4 -4 -4q4 -2 4 -5q0 4 4 5q-4 0 -4 4zM200 49q-2 -4 -4 -4q4 -2 4 -5q0 4 4 5q-4 0 -4 4zM210 59q-2 -4 -4 -4q4 -2 4 -5q0 4 4 5q-4 0 -4 4zM220 69q-2 -4 -4 -4q3 -1 4 -4q0 2 4 4q-4 0 -4 4zM220 79q-2 -4 -4 -4q3 -1 4 -4q0 2 4 4
q-4 0 -4 4zM234 75q-4 0 -4 4q-2 -4 -4 -4q3 -1 4 -4q0 2 4 4zM240 89q-2 -4 -4 -4q3 -1 4 -4q0 2 4 4q-4 0 -4 4zM234 85q-4 0 -4 4q-2 -4 -4 -4q3 -1 4 -4q0 2 4 4zM250 99q-2 -4 -4 -4q4 -2 4 -5q0 4 4 5q-4 0 -4 4zM240 99q-2 -4 -4 -4q3 -1 4 -4q0 2 4 4q-4 0 -4 4z
M250 109q-2 -4 -4 -4q4 -2 4 -5q0 4 4 5q-4 0 -4 4zM260 119q-2 -4 -4 -4q4 -2 4 -5q0 4 4 5q-4 0 -4 4zM270 129q-2 -4 -4 -4q3 -1 4 -4q0 2 4 4q-4 0 -4 4zM340 369q-2 -4 -4 -4q3 -1 4 -4q0 2 4 4q-4 0 -4 4zM330 369q-2 -4 -4 -4q4 -2 4 -5q0 4 4 5q-4 0 -4 4zM320 369
q-2 -4 -4 -4q4 -2 4 -5q0 4 4 5q-4 0 -4 4zM310 369q-2 -4 -4 -4q4 -2 4 -5q0 4 4 5q-4 0 -4 4zM300 369q-2 -4 -4 -4q4 -2 4 -5q0 4 4 5q-4 0 -4 4zM340 379q-2 -4 -4 -4q3 -1 4 -4q0 2 4 4q-4 0 -4 4zM330 379q-2 -4 -4 -4q3 -1 4 -4q0 2 4 4q-4 0 -4 4zM320 379
q-2 -4 -4 -4q4 -2 4 -5q0 4 4 5q-4 0 -4 4zM310 379q-2 -4 -4 -4q3 -1 4 -4q0 2 4 4q-4 0 -4 4zM300 379q-2 -4 -4 -4q3 -1 4 -4q0 2 4 4q-4 0 -4 4zM260 359q-2 -4 -4 -4q3 -1 4 -4q0 2 4 4q-4 0 -4 4zM250 359q-2 -4 -4 -4q4 -2 4 -5q0 4 4 5q-4 0 -4 4zM240 359
q-2 -4 -4 -4q4 -2 4 -5q0 4 4 5q-4 0 -4 4zM290 369q-2 -4 -4 -4q4 -2 4 -5q0 4 4 5q-4 0 -4 4zM280 369q-2 -4 -4 -4q3 -1 4 -4q0 2 4 4q-4 0 -4 4zM270 369q-2 -4 -4 -4q4 -2 4 -5q0 4 4 5q-4 0 -4 4zM260 369q-2 -4 -4 -4q4 -2 4 -5q0 4 4 5q-4 0 -4 4zM250 369
q-2 -4 -4 -4q4 -2 4 -5q0 4 4 5q-4 0 -4 4zM240 369q-2 -4 -4 -4q4 -2 4 -5q0 4 4 5q-4 0 -4 4zM290 379q-2 -4 -4 -4q4 -2 4 -5q0 4 4 5q-4 0 -4 4zM280 379q-2 -4 -4 -4q3 -1 4 -4q0 2 4 4q-4 0 -4 4zM230 359q-2 -4 -4 -4q4 -2 4 -5q0 4 4 5q-4 0 -4 4zM220 359
q-2 -4 -4 -4q4 -2 4 -5q0 4 4 5q-4 0 -4 4zM210 359q-2 -4 -4 -4q4 -2 4 -5q0 4 4 5q-4 0 -4 4zM200 359q-2 -4 -4 -4q4 -2 4 -5q0 4 4 5q-4 0 -4 4zM190 359q-2 -4 -4 -4q4 -2 4 -5q0 4 4 5q-4 0 -4 4zM230 369q-2 -4 -4 -4q4 -2 4 -5q0 4 4 5q-4 0 -4 4zM220 369
q-2 -4 -4 -4q4 -2 4 -5q0 4 4 5q-4 0 -4 4zM210 369q-2 -4 -4 -4q4 -2 4 -5q0 4 4 5q-4 0 -4 4zM200 369q-2 -4 -4 -4q4 -2 4 -5q0 4 4 5q-4 0 -4 4zM190 369q-2 -4 -4 -4q4 -2 4 -5q0 4 4 5q-4 0 -4 4zM180 369q-2 -4 -4 -4q4 -2 4 -5q0 4 4 5q-4 0 -4 4zM490 369
q-2 -4 -4 -4q4 -2 4 -5q0 4 4 5q-4 0 -4 4zM280 139q-2 -4 -4 -4q4 -2 4 -5q0 4 4 5q-4 0 -4 4zM274 135q-4 0 -4 4q-2 -4 -4 -4q4 -2 4 -5q0 4 4 5zM290 149q-2 -4 -4 -4q4 -2 4 -5q0 4 4 5q-4 0 -4 4zM280 149q-2 -4 -4 -4q3 -1 4 -4q0 2 4 4q-4 0 -4 4zM300 159
q-2 -4 -4 -4q4 -2 4 -5q0 4 4 5q-4 0 -4 4zM290 159q-2 -4 -4 -4q4 -2 4 -5q0 4 4 5q-4 0 -4 4zM310 169q-2 -4 -4 -4q4 -2 4 -5q0 4 4 5q-4 0 -4 4zM300 169q-2 -4 -4 -4q4 -2 4 -5q0 4 4 5q-4 0 -4 4zM320 179q-2 -4 -4 -4q4 -2 4 -5q0 4 4 5q-4 0 -4 4zM310 179
q-2 -4 -4 -4q4 -2 4 -5q0 4 4 5q-4 0 -4 4zM320 189q-2 -4 -4 -4q4 -2 4 -5q0 4 4 5q-4 0 -4 4zM320 199q-2 -4 -4 -4q4 -2 4 -5q0 4 4 5q-4 0 -4 4zM334 185q-4 0 -4 4q-2 -4 -4 -4q3 -1 4 -4q0 2 4 4zM340 199q-2 -4 -4 -4q4 -2 4 -5q0 4 4 5q-4 0 -4 4zM334 195
q-4 0 -4 4q-2 -4 -4 -4q4 -2 4 -5q0 4 4 5zM350 209q-2 -4 -4 -4q4 -2 4 -5q0 4 4 5q-4 0 -4 4zM340 209q-2 -4 -4 -4q4 -2 4 -5q0 4 4 5q-4 0 -4 4zM334 205q-4 0 -4 4q-2 -4 -4 -4q4 -2 4 -5q0 4 4 5zM360 219q-2 -4 -4 -4q3 -1 4 -4q0 2 4 4q-4 0 -4 4zM350 219
q-2 -4 -4 -4q4 -2 4 -5q0 4 4 5q-4 0 -4 4zM340 219q-2 -4 -4 -4q3 -1 4 -4q0 2 4 4q-4 0 -4 4zM360 229q-2 -4 -4 -4q4 -2 4 -5q0 4 4 5q-4 0 -4 4zM350 229q-2 -4 -4 -4q3 -1 4 -4q0 2 4 4q-4 0 -4 4zM370 239q-2 -4 -4 -4q3 -1 4 -4q0 2 4 4q-4 0 -4 4zM360 239
q-2 -4 -4 -4q4 -2 4 -5q0 4 4 5q-4 0 -4 4zM380 249q-2 -4 -4 -4q4 -2 4 -5q0 4 4 5q-4 0 -4 4zM370 249q-2 -4 -4 -4q4 -2 4 -5q0 4 4 5q-4 0 -4 4zM380 259q-2 -4 -4 -4q4 -2 4 -5q0 4 4 5q-4 0 -4 4zM380 269q-2 -4 -4 -4q3 -1 4 -4q0 2 4 4q-4 0 -4 4zM394 255
q-4 0 -4 4q-2 -4 -4 -4q4 -2 4 -5q0 4 4 5zM400 269q-2 -4 -4 -4q4 -2 4 -5q0 4 4 5q-4 0 -4 4zM394 265q-4 0 -4 4q-2 -4 -4 -4q4 -2 4 -5q0 4 4 5zM410 279q-2 -4 -4 -4q3 -1 4 -4q0 2 4 4q-4 0 -4 4zM400 279q-2 -4 -4 -4q3 -1 4 -4q0 2 4 4q-4 0 -4 4zM394 275
q-4 0 -4 4q-2 -4 -4 -4q3 -1 4 -4q0 2 4 4zM420 289q-2 -4 -4 -4q4 -2 4 -5q0 4 4 5q-4 0 -4 4zM410 289q-2 -4 -4 -4q4 -2 4 -5q0 4 4 5q-4 0 -4 4zM400 289q-2 -4 -4 -4q4 -2 4 -5q0 4 4 5q-4 0 -4 4zM430 299q-2 -4 -4 -4q4 -2 4 -5q0 4 4 5q-4 0 -4 4zM420 299
q-2 -4 -4 -4q3 -1 4 -4q0 2 4 4q-4 0 -4 4zM410 299q-2 -4 -4 -4q4 -2 4 -5q0 4 4 5q-4 0 -4 4zM440 309q-2 -4 -4 -4q4 -2 4 -5q0 4 4 5q-4 0 -4 4zM430 309q-2 -4 -4 -4q3 -1 4 -4q0 2 4 4q-4 0 -4 4zM420 309q-2 -4 -4 -4q4 -2 4 -5q0 4 4 5q-4 0 -4 4zM350 489
q-2 -4 -4 -4q3 -1 4 -4q0 2 4 4q-4 0 -4 4zM340 489q-2 -4 -4 -4q3 -1 4 -4q0 2 4 4q-4 0 -4 4zM350 499q-2 -4 -4 -4q4 -2 4 -5q0 4 4 5q-4 0 -4 4zM340 499q-2 -4 -4 -4q3 -1 4 -4q0 2 4 4q-4 0 -4 4zM360 509q-2 -4 -4 -4q3 -1 4 -4q0 2 4 4q-4 0 -4 4zM350 509
q-2 -4 -4 -4q4 -2 4 -5q0 4 4 5q-4 0 -4 4zM360 519q-2 -4 -4 -4q4 -2 4 -5q0 4 4 5q-4 0 -4 4zM350 519q-2 -4 -4 -4q4 -2 4 -5q0 4 4 5q-4 0 -4 4zM360 529q-2 -4 -4 -4q4 -2 4 -5q0 4 4 5q-4 0 -4 4zM360 539q-2 -4 -4 -4q4 -2 4 -5q0 4 4 5q-4 0 -4 4zM440 319
q-2 -4 -4 -4q4 -2 4 -5q0 4 4 5q-4 0 -4 4zM430 319q-2 -4 -4 -4q3 -1 4 -4q0 2 4 4q-4 0 -4 4zM440 329q-2 -4 -4 -4q4 -2 4 -5q0 4 4 5q-4 0 -4 4zM430 329q-2 -4 -4 -4q4 -2 4 -5q0 4 4 5q-4 0 -4 4zM440 339q-2 -4 -4 -4q3 -1 4 -4q0 2 4 4q-4 0 -4 4zM454 315
q-4 0 -4 4q-2 -4 -4 -4q3 -1 4 -4q0 2 4 4zM460 329q-2 -4 -4 -4q3 -1 4 -4q0 2 4 4q-4 0 -4 4zM454 325q-4 0 -4 4q-2 -4 -4 -4q4 -2 4 -5q0 4 4 5zM470 339q-2 -4 -4 -4q4 -2 4 -5q0 4 4 5q-4 0 -4 4zM460 339q-2 -4 -4 -4q4 -2 4 -5q0 4 4 5q-4 0 -4 4zM454 335
q-4 0 -4 4q-2 -4 -4 -4q3 -1 4 -4q0 2 4 4zM480 349q-2 -4 -4 -4q4 -2 4 -5q0 4 4 5q-4 0 -4 4zM470 349q-2 -4 -4 -4q3 -1 4 -4q0 2 4 4q-4 0 -4 4zM460 349q-2 -4 -4 -4q4 -2 4 -5q0 4 4 5q-4 0 -4 4zM454 345q-4 0 -4 4q-2 -4 -4 -4q4 -2 4 -5q0 4 4 5zM490 359
q-2 -4 -4 -4q4 -2 4 -5q0 4 4 5q-4 0 -4 4zM480 359q-2 -4 -4 -4q3 -1 4 -4q0 2 4 4q-4 0 -4 4zM470 359q-2 -4 -4 -4q3 -1 4 -4q0 2 4 4q-4 0 -4 4zM460 359q-2 -4 -4 -4q3 -1 4 -4q0 2 4 4q-4 0 -4 4zM380 549q-2 -4 -4 -4q3 -1 4 -4q0 2 4 4q-4 0 -4 4zM480 369
q-2 -4 -4 -4q4 -2 4 -5q0 4 4 5q-4 0 -4 4zM470 369q-2 -4 -4 -4q3 -1 4 -4q0 2 4 4q-4 0 -4 4zM500 379q-2 -4 -4 -4q3 -1 4 -4q0 2 4 4q-4 0 -4 4zM490 379q-2 -4 -4 -4q3 -1 4 -4q0 2 4 4q-4 0 -4 4zM480 379q-2 -4 -4 -4q4 -2 4 -5q0 4 4 5q-4 0 -4 4zM500 389
q-2 -4 -4 -4q4 -2 4 -5q0 4 4 5q-4 0 -4 4zM490 389q-2 -4 -4 -4q4 -2 4 -5q0 4 4 5q-4 0 -4 4zM480 389q-2 -4 -4 -4q3 -1 4 -4q0 2 4 4q-4 0 -4 4zM500 399q-2 -4 -4 -4q4 -2 4 -5q0 4 4 5q-4 0 -4 4zM490 399q-2 -4 -4 -4q4 -2 4 -5q0 4 4 5q-4 0 -4 4zM500 409
q-2 -4 -4 -4q4 -2 4 -5q0 4 4 5q-4 0 -4 4zM514 385q-4 0 -4 4q-2 -4 -4 -4q4 -2 4 -5q0 4 4 5zM520 399q-2 -4 -4 -4q4 -2 4 -5q0 4 4 5q-4 0 -4 4zM514 395q-4 0 -4 4q-2 -4 -4 -4q3 -1 4 -4q0 2 4 4zM530 409q-2 -4 -4 -4q4 -2 4 -5q0 4 4 5q-4 0 -4 4zM520 409
q-2 -4 -4 -4q3 -1 4 -4q0 2 4 4q-4 0 -4 4zM514 405q-4 0 -4 4q-2 -4 -4 -4q4 -2 4 -5q0 4 4 5zM540 419q-2 -4 -4 -4q4 -2 4 -5q0 4 4 5q-4 0 -4 4zM530 419q-2 -4 -4 -4q3 -1 4 -4q0 2 4 4q-4 0 -4 4zM520 419q-2 -4 -4 -4q4 -2 4 -5q0 4 4 5q-4 0 -4 4zM514 415
q-4 0 -4 4q-2 -4 -4 -4q3 -1 4 -4q0 2 4 4zM550 429q-2 -4 -4 -4q3 -1 4 -4q0 2 4 4q-4 0 -4 4zM540 429q-2 -4 -4 -4q4 -2 4 -5q0 4 4 5q-4 0 -4 4zM530 429q-2 -4 -4 -4q3 -1 4 -4q0 2 4 4q-4 0 -4 4zM520 429q-2 -4 -4 -4q3 -1 4 -4q0 2 4 4q-4 0 -4 4zM560 439
q-2 -4 -4 -4q3 -1 4 -4q0 2 4 4q-4 0 -4 4zM550 439q-2 -4 -4 -4q3 -1 4 -4q0 2 4 4q-4 0 -4 4zM540 439q-2 -4 -4 -4q4 -2 4 -5q0 4 4 5q-4 0 -4 4zM530 439q-2 -4 -4 -4q3 -1 4 -4q0 2 4 4q-4 0 -4 4zM550 449q-2 -4 -4 -4q3 -1 4 -4q0 2 4 4q-4 0 -4 4zM540 449
q-2 -4 -4 -4q3 -1 4 -4q0 2 4 4q-4 0 -4 4zM550 459q-2 -4 -4 -4q4 -2 4 -5q0 4 4 5q-4 0 -4 4zM540 459q-2 -4 -4 -4q4 -2 4 -5q0 4 4 5q-4 0 -4 4zM420 629q-2 -4 -4 -4q3 -1 4 -4q0 2 4 4q-4 0 -4 4zM374 525q-4 0 -4 4q-2 -4 -4 -4q4 -2 4 -5q0 4 4 5zM374 535
q-4 0 -4 4q-2 -4 -4 -4q4 -2 4 -5q0 4 4 5zM410 629q-2 -4 -4 -4q3 -1 4 -4q0 2 4 4q-4 0 -4 4zM374 545q-4 0 -4 4q-2 -4 -4 -4q4 -2 4 -5q0 4 4 5zM380 559q-2 -4 -4 -4q3 -1 4 -4q0 2 4 4q-4 0 -4 4zM374 555q-4 0 -4 4q-2 -4 -4 -4q4 -2 4 -5q0 4 4 5zM390 569
q-2 -4 -4 -4q4 -2 4 -5q0 4 4 5q-4 0 -4 4zM380 569q-2 -4 -4 -4q4 -2 4 -5q0 4 4 5q-4 0 -4 4zM390 579q-2 -4 -4 -4q4 -2 4 -5q0 4 4 5q-4 0 -4 4zM380 579q-2 -4 -4 -4q3 -1 4 -4q0 2 4 4q-4 0 -4 4zM400 589q-2 -4 -4 -4q4 -2 4 -5q0 4 4 5q-4 0 -4 4zM390 589
q-2 -4 -4 -4q4 -2 4 -5q0 4 4 5q-4 0 -4 4zM410 599q-2 -4 -4 -4q3 -1 4 -4q0 2 4 4q-4 0 -4 4zM400 599q-2 -4 -4 -4q4 -2 4 -5q0 4 4 5q-4 0 -4 4zM390 599q-2 -4 -4 -4q4 -2 4 -5q0 4 4 5q-4 0 -4 4zM410 609q-2 -4 -4 -4q3 -1 4 -4q0 2 4 4q-4 0 -4 4zM400 609
q-2 -4 -4 -4q4 -2 4 -5q0 4 4 5q-4 0 -4 4zM420 619q-2 -4 -4 -4q4 -2 4 -5q0 4 4 5q-4 0 -4 4zM410 619q-2 -4 -4 -4q4 -2 4 -5q0 4 4 5q-4 0 -4 4zM434 665q-4 0 -4 4q-2 -4 -4 -4q4 -2 4 -5q0 4 4 5zM440 689q-2 -4 -4 -4q4 -2 4 -5q0 4 4 5q-4 0 -4 4zM420 639
q-2 -4 -4 -4q3 -1 4 -4q0 2 4 4q-4 0 -4 4zM420 649q-2 -4 -4 -4q4 -2 4 -5q0 4 4 5q-4 0 -4 4zM434 635q-4 0 -4 4q-2 -4 -4 -4q3 -1 4 -4q0 2 4 4zM434 645q-4 0 -4 4q-2 -4 -4 -4q4 -2 4 -5q0 4 4 5zM440 659q-2 -4 -4 -4q3 -1 4 -4q0 2 4 4q-4 0 -4 4zM434 655
q-4 0 -4 4q-2 -4 -4 -4q4 -2 4 -5q0 4 4 5zM450 669q-2 -4 -4 -4q3 -1 4 -4q0 2 4 4q-4 0 -4 4zM440 669q-2 -4 -4 -4q4 -2 4 -5q0 4 4 5q-4 0 -4 4zM160 9q-2 -4 -4 -4q4 -2 4 -5q0 4 4 5q-4 0 -4 4zM450 679q-2 -4 -4 -4q4 -2 4 -5q0 4 4 5q-4 0 -4 4zM440 679
q-2 -4 -4 -4q4 -2 4 -5q0 4 4 5q-4 0 -4 4zM460 689q-2 -4 -4 -4q4 -2 4 -5q0 4 4 5q-4 0 -4 4zM450 689q-2 -4 -4 -4q3 -1 4 -4q0 2 4 4q-4 0 -4 4zM174 15q-4 0 -4 4q-2 -4 -4 -4q4 -2 4 -5q0 4 4 5zM450 699q-2 -4 -4 -4q4 -2 4 -5q0 4 4 5q-4 0 -4 4zM180 29
q-2 -4 -4 -4q4 -2 4 -5q0 4 4 5q-4 0 -4 4z" />
    <glyph glyph-name="minus" unicode="&#x2212;" horiz-adv-x="579" 
d="M82 321h424v-63h-424v63z" />
    <glyph glyph-name="uni2007" unicode="&#x2007;" horiz-adv-x="590" 
 />
    <glyph glyph-name="uni2008" unicode="&#x2008;" horiz-adv-x="242" 
 />
    <glyph glyph-name="uni2009" unicode="&#x2009;" horiz-adv-x="125" 
 />
    <glyph glyph-name="uni200B" unicode="&#x200b;" 
 />
    <glyph glyph-name="uni2060" unicode="&#x2060;" horiz-adv-x="262" 
 />
    <glyph glyph-name="uniFEFF" unicode="&#xfeff;" 
 />
    <glyph glyph-name="Euro" unicode="&#x20ac;" horiz-adv-x="903" 
d="M68 408l39 54h92q20 57 55 104.5t83.5 82t109.5 54t133 19.5q58 0 108.5 -17.5t90.5 -47.5t67.5 -70.5t41.5 -86.5h-76q-12 33 -34 61t-53 49t-69 33t-82 12q-52 0 -98.5 -14t-85 -39.5t-68 -61t-47.5 -78.5h435l-39 -54h-414q-10 -39 -10 -85v-18h350l-36 -54h-307
q20 -89 86 -142.5t177 -53.5q86 0 152 43t108 112h76q-21 -48 -53.5 -89t-76 -70.5t-98 -46t-119.5 -16.5q-66 0 -121 20t-97 55.5t-69.5 83.5t-37.5 104h-146l38 54h102v10q0 48 9 93h-116z" />
    <glyph glyph-name="uniFB00" unicode="&#xfb00;" horiz-adv-x="698" 
d="M160 434h-107l14 66h107l23 108q17 78 63.5 113t110.5 35q40 0 71 -13l-13 -63q-11 5 -27.5 8t-34.5 3q-43 0 -68 -25.5t-34 -67.5l-21 -98h131l-14 -66h-131l-92 -434h-70zM509 434h-90l14 66h90l23 108q17 78 63.5 113t110.5 35q40 0 71 -13l-13 -63q-11 5 -27.5 8
t-34.5 3q-43 0 -68 -25.5t-34 -67.5l-21 -98h146l-14 -66h-146l-92 -434h-70z" />
    <glyph glyph-name="uniFB01" unicode="&#xfb01;" horiz-adv-x="593" 
d="M160 434h-107l14 66h107l23 108q17 78 63.5 113t110.5 35q40 0 71 -13l-13 -63q-11 5 -27.5 8t-34.5 3q-43 0 -68 -25.5t-34 -67.5l-21 -98h146l-14 -66h-146l-92 -434h-70zM569 650q-23 0 -38.5 15.5t-15.5 37.5t15.5 37.5t38.5 15.5q22 0 37 -15.5t15 -37.5t-15 -37.5
t-37 -15.5zM489 500h70l-106 -500h-70z" />
    <glyph glyph-name="uniFB03" unicode="&#xfb03;" horiz-adv-x="942" 
d="M918 650q-23 0 -38.5 15.5t-15.5 37.5t15.5 37.5t38.5 15.5q22 0 37 -15.5t15 -37.5t-15 -37.5t-37 -15.5zM838 500h70l-106 -500h-70zM160 434h-107l14 66h107l23 108q17 78 63.5 113t110.5 35q40 0 71 -13l-13 -63q-11 5 -27.5 8t-34.5 3q-43 0 -68 -25.5t-34 -67.5
l-21 -98h131l-14 -66h-131l-92 -434h-70zM509 434h-90l14 66h90l23 108q17 78 63.5 113t110.5 35q40 0 71 -13l-13 -63q-11 5 -27.5 8t-34.5 3q-43 0 -68 -25.5t-34 -67.5l-21 -98h146l-14 -66h-146l-92 -434h-70z" />
    <glyph glyph-name="uniFB02" unicode="&#xfb02;" horiz-adv-x="593" 
d="M160 434h-107l14 66h107l23 108q17 78 63.5 113t110.5 35q40 0 71 -13l-13 -63q-11 5 -27.5 8t-34.5 3q-43 0 -68 -25.5t-34 -67.5l-21 -98h146l-14 -66h-146l-92 -434h-70zM542 750h70l-159 -750h-70z" />
    <glyph glyph-name="uniFB04" unicode="&#xfb04;" horiz-adv-x="942" 
d="M891 750h70l-159 -750h-70zM160 434h-107l14 66h107l23 108q17 78 63.5 113t110.5 35q40 0 71 -13l-13 -63q-11 5 -27.5 8t-34.5 3q-43 0 -68 -25.5t-34 -67.5l-21 -98h131l-14 -66h-131l-92 -434h-70zM509 434h-90l14 66h90l23 108q17 78 63.5 113t110.5 35q40 0 71 -13
l-13 -63q-11 5 -27.5 8t-34.5 3q-43 0 -68 -25.5t-34 -67.5l-21 -98h146l-14 -66h-146l-92 -434h-70z" />
    <glyph glyph-name="glyph378" 
d="M150 650q-23 0 -38.5 15.5t-15.5 37.5t15.5 37.5t38.5 15.5q22 0 37 -15.5t15 -37.5t-15 -37.5t-37 -15.5z" />
    <glyph glyph-name="breve" unicode="&#x2d8;" 
d="M143 585q-29 0 -57 10.5t-48 31.5t-30 52t-3 71h53q-5 -29 0 -51t17.5 -36t31.5 -21t42 -7q41 0 70.5 28t40.5 87h53q-10 -80 -55 -122.5t-115 -42.5z" />
    <glyph glyph-name="caron" unicode="&#x2c7;" 
d="M-8 694l13 62l124 -104l187 104l-16 -75l-176 -97z" />
    <glyph glyph-name="circumflex" unicode="&#x2c6;" 
d="M293 649l-13 -65l-127 103l-184 -103l16 73l176 99z" />
    <glyph glyph-name="dotaccent" unicode="&#x2d9;" 
d="M140 602q-23 0 -38.5 15.5t-15.5 37.5t15.5 37.5t38.5 15.5q22 0 37 -15.5t15 -37.5t-15 -37.5t-37 -15.5z" />
    <glyph glyph-name="glyph383" 
d="M0 -53q-23 0 -38.5 15.5t-15.5 37.5t15.5 37.5t38.5 15.5q22 0 37 -15.5t15 -37.5t-15 -37.5t-37 -15.5z" />
    <glyph glyph-name="glyph384" 
d="M-26 -181q-23 0 -38.5 15.5t-15.5 37.5t15.5 37.5t38.5 15.5q22 0 37 -15.5t15 -37.5t-15 -37.5t-37 -15.5z" />
    <glyph glyph-name="hungarumlaut" unicode="&#x2dd;" 
d="M229 750h90l-143 -190h-54zM67 750h90l-143 -190h-54z" />
    <glyph glyph-name="glyph386" 
d="M-66 -258h-40l50 86q-24 16 -24 44q0 22 15.5 37.5t38.5 15.5q22 0 37 -15.5t15 -37.5q0 -13 -5 -22t-10 -15z" />
    <glyph glyph-name="ogonek" unicode="&#x2db;" 
d="M-31 -219q-36 0 -57.5 20.5t-21.5 54.5q0 22 11 42.5t28.5 39t39 34.5t42.5 28h70q-69 -40 -95.5 -75t-26.5 -57q0 -29 34 -29q14 0 29 4.5t29 14.5l-12 -57q-14 -9 -31.5 -14.5t-38.5 -5.5z" />
    <glyph glyph-name="ring" unicode="&#x2da;" 
d="M140 543q-25 0 -47 9.5t-38.5 26t-26 38t-9.5 46.5t9.5 46.5t26 38t38.5 26t47 9.5t47 -9.5t38.5 -26t26.5 -38t10 -46.5t-10 -46.5t-26.5 -38t-38.5 -26t-47 -9.5zM140 590q31 0 52.5 21t21.5 52q0 30 -21.5 52t-52.5 22q-30 0 -51.5 -22t-21.5 -52q0 -31 21.5 -52
t51.5 -21z" />
    <glyph glyph-name="tilde" unicode="&#x2dc;" 
d="M319 705l-4 -16q-6 -23 -17.5 -39.5t-27 -27.5t-34 -16.5t-36.5 -5.5q-20 0 -37 6.5t-32 15t-29 15t-29 6.5q-16 0 -29.5 -9.5t-22.5 -33.5h-61l4 16q6 23 17.5 39.5t27 27.5t34 16.5t36.5 5.5q20 0 37 -6.5t32 -15t29 -15t29 -6.5q16 0 29.5 9.5t22.5 33.5h61z" />
    <glyph glyph-name="glyph390" 
d="M126 710h72l-80 -166h-50z" />
    <glyph glyph-name="glyph391" 
d="M138 602q-22 0 -37 15.5t-15 37.5q0 13 5 22t10 15l77 93h40l-50 -86q24 -16 24 -44q0 -22 -15.5 -37.5t-38.5 -15.5z" />
    <glyph glyph-name="glyph392" 
d="M41 602q-23 0 -39.5 16.5t-16.5 39.5t16.5 39t39.5 16t39.5 -16t16.5 -39t-16.5 -39.5t-39.5 -16.5zM239 602q-23 0 -39.5 16.5t-16.5 39.5t16.5 39t39.5 16t39.5 -16t16.5 -39t-16.5 -39.5t-39.5 -16.5z" />
    <glyph glyph-name="glyph393" 
d="M-218 -10l-33 40l575 480l33 -40z" />
    <glyph glyph-name="glyph394" 
d="M-23 641h318l-13 -61h-318z" />
    <glyph glyph-name="glyph395" 
d="M-23 641h318l-13 -61h-318z" />
    <glyph glyph-name="glyph396" 
d="M-60 260l15 71l262 150l-15 -71z" />
    <glyph glyph-name="glyph397" 
d="M-88 342h323l-13 -61h-323z" />
    <glyph glyph-name="zero.zero" horiz-adv-x="616" 
d="M273 -10q-56 0 -100 20t-72.5 55.5t-38.5 84.5t3 108l43 201q13 60 34.5 109t54.5 83t79 52.5t107 18.5q56 0 100 -20t72 -56t38 -85t-2 -107l-43 -201q-13 -61 -35 -109.5t-55 -82.5t-78.5 -52.5t-106.5 -18.5zM140 281l388 227q1 69 -40.5 107.5t-110.5 38.5
q-75 0 -126.5 -47.5t-72.5 -147.5zM279 58q75 0 126 47t73 148l37 176l-387 -226q-1 -69 40.5 -107t110.5 -38z" />
    <glyph glyph-name="one.oldstyle" horiz-adv-x="289" 
d="M182 495h-115l73 65h126l-126 -560h-70z" />
    <glyph glyph-name="two.oldstyle" horiz-adv-x="489" 
d="M5 32q12 52 38.5 87.5t61 61t74 44.5t77.5 38q75 38 107 73.5t32 82.5q0 39 -30.5 62.5t-73.5 23.5q-23 0 -45 -6.5t-40.5 -20.5t-31 -35t-16.5 -50h-71q4 43 22.5 76.5t47 55.5t64.5 33.5t76 11.5q33 0 63.5 -10t54 -29t37.5 -46.5t14 -61.5q0 -38 -9.5 -66.5
t-30.5 -53.5t-55.5 -48t-85.5 -49q-29 -15 -58 -29t-54 -30t-44.5 -36t-28.5 -47h298l-15 -64h-385z" />
    <glyph glyph-name="three.oldstyle" horiz-adv-x="519" 
d="M230 -79q-39 0 -77.5 14.5t-67.5 40.5t-46 63t-13 82h71q-2 -32 8.5 -56t30 -41t44.5 -25.5t51 -8.5q60 0 98 35.5t38 99.5q0 48 -28.5 75t-80.5 27h-66l14 65h47q25 0 50 7t44 21.5t31 36.5t12 51q-1 45 -32 70t-76 25q-22 0 -45 -7.5t-43 -23.5t-34.5 -40.5
t-20.5 -58.5h-71q6 47 26 83.5t49.5 62t66 38.5t77.5 13q32 0 63 -10t56 -30t40 -49t15 -68q0 -55 -28 -94.5t-76 -59.5q42 -21 61 -58t19 -78t-13.5 -78t-40 -64.5t-65 -43.5t-88.5 -16z" />
    <glyph glyph-name="four.oldstyle" horiz-adv-x="529" 
d="M309 107h-326l12 55l417 398h61l-80 -388h85l-14 -65h-85l-36 -175h-70zM323 172l54 266l-279 -266h225z" />
    <glyph glyph-name="five.oldstyle" horiz-adv-x="482" 
d="M204 -77q-34 0 -69 11t-64.5 33.5t-50 55.5t-24.5 77h72q13 -53 50.5 -81.5t89.5 -28.5q64 0 100 41t36 108q0 58 -32 95t-86 37q-31 0 -63 -13t-59 -49l-61 19l131 332h287l-15 -68h-227l-66 -175q18 9 40.5 15t45.5 6q37 0 69 -15t56 -41t37.5 -61t13.5 -75
q0 -46 -13 -86.5t-39.5 -71t-66 -48t-92.5 -17.5z" />
    <glyph glyph-name="six.oldstyle" horiz-adv-x="501" 
d="M240 -10q-45 0 -82.5 15.5t-65.5 42.5t-43.5 64t-15.5 80q0 61 26 104t64 78l262 253h95l-236 -228q5 0 9 0.5t8 0.5q37 0 71 -15.5t59.5 -42.5t40.5 -64.5t15 -80.5q0 -40 -15 -77.5t-42.5 -66t-65.5 -46t-84 -17.5zM239 56q30 0 55 12t43 32t28 46t10 54
q0 31 -10.5 56.5t-28.5 44t-42.5 28.5t-52.5 10q-31 0 -56 -12t-43 -31.5t-27.5 -45.5t-9.5 -54q0 -31 11 -56.5t29 -44t42.5 -29t51.5 -10.5z" />
    <glyph glyph-name="seven.oldstyle" horiz-adv-x="435" 
d="M378 492h-309l15 68h398l-12 -57l-402 -571h-86z" />
    <glyph glyph-name="eight.oldstyle" horiz-adv-x="513" 
d="M449 203q0 -50 -16 -89.5t-44.5 -67t-66.5 -42t-83 -14.5q-51 0 -88.5 18.5t-62 47t-37 62.5t-12.5 64q0 32 8.5 61.5t25 53.5t39 42.5t51.5 28.5q-24 23 -34 52t-10 56q0 43 15.5 74t41 50.5t56.5 29t63 9.5q43 0 74 -14.5t50.5 -37.5t28.5 -50.5t9 -52.5
q0 -47 -23.5 -82.5t-59.5 -52.5q20 -13 34.5 -31t23.5 -37.5t13 -40t4 -37.5zM110 185q0 -20 7.5 -42.5t23 -41.5t41 -32t61.5 -13q29 0 54 11t43 30t28.5 45t10.5 56q0 18 -6 40.5t-21 42t-40 33t-63 13.5q-32 0 -57.5 -11t-43.5 -30t-28 -45t-10 -56zM188 472
q0 -7 3.5 -22t14 -30t29 -26.5t49.5 -11.5q45 0 74.5 26.5t29.5 76.5q0 7 -3.5 22t-13.5 30t-28.5 26t-49.5 11q-45 0 -75 -26t-30 -76z" />
    <glyph glyph-name="nine.oldstyle" horiz-adv-x="499" 
d="M261 160q-5 -1 -8.5 -1h-7.5q-37 0 -71 15.5t-59.5 42.5t-40.5 64t-15 81q0 40 15 77.5t42.5 66t65.5 46t84 17.5q45 0 82.5 -15.5t65.5 -42.5t43.5 -64t15.5 -80q0 -62 -26.5 -104.5t-63.5 -77.5l-262 -253h-95zM265 220q31 0 56 12t43 31.5t27.5 45.5t9.5 54
q0 31 -11 56.5t-29 44t-42.5 29t-51.5 10.5q-30 0 -55 -12t-43 -32t-28 -46t-10 -54q0 -31 10.5 -56.5t28.5 -44t42.5 -28.5t52.5 -10z" />
    <glyph glyph-name="zero.oldstyle" horiz-adv-x="539" 
d="M229 -8q-48 0 -85.5 16t-61.5 45t-32.5 68.5t2.5 87.5l34 153q11 48 29.5 86.5t47 65.5t67 41.5t89.5 14.5q48 0 85.5 -16.5t61.5 -45.5t32 -68.5t-2 -86.5l-34 -154q-11 -48 -29.5 -86t-47 -65t-67 -41.5t-89.5 -14.5zM235 56q60 0 100 35t57 110l36 158q8 34 3 61
t-20.5 46t-40.5 29t-57 10q-60 0 -100 -35t-57 -109l-36 -159q-15 -68 18 -107t97 -39z" />
    <glyph glyph-name="zero.oldstyle.zero" horiz-adv-x="539" 
d="M229 -8q-48 0 -85.5 16t-61.5 45t-32.5 68.5t2.5 87.5l34 153q11 48 29.5 86.5t47 65.5t67 41.5t89.5 14.5q48 0 85.5 -16.5t61.5 -45.5t32 -68.5t-2 -86.5l-34 -154q-11 -48 -29.5 -86t-47 -65t-67 -41.5t-89.5 -14.5zM235 56q60 0 100 35t57 110l30 131l-306 -179
q4 -46 35.5 -71.5t83.5 -25.5zM126 231l306 178q-4 45 -36 70.5t-83 25.5q-60 0 -100 -35t-57 -109z" />
    <glyph glyph-name="one.tnum" horiz-adv-x="590" 
d="M476 67l-14 -67h-426l14 67h178l122 574h-133l76 69h142l-137 -643h178z" />
    <glyph glyph-name="two.tnum" horiz-adv-x="590" 
d="M24 32q15 67 47 112.5t74 78.5t89.5 57t92.5 48q49 26 82 50t53 49t28.5 51.5t8.5 57.5q0 27 -10.5 49t-29 37t-42.5 23.5t-51 8.5q-29 0 -57.5 -9t-51.5 -28t-39.5 -47.5t-21.5 -68.5h-72q5 55 26.5 96t55 69t76 42t89.5 14q39 0 75 -12.5t64 -36t44.5 -57.5t16.5 -76
q0 -47 -11 -83t-36.5 -67.5t-67.5 -61.5t-105 -64q-38 -21 -75.5 -40t-69.5 -41t-56.5 -50t-36.5 -66h374l-14 -67h-456z" />
    <glyph glyph-name="three.tnum" horiz-adv-x="590" 
d="M285 -12q-46 0 -90.5 16.5t-78 46t-53 70.5t-14.5 91h72q-3 -37 10.5 -65.5t37 -48t54 -30t62.5 -10.5q74 0 120.5 41.5t46.5 117.5q0 57 -34 88.5t-97 31.5h-80l15 69h56q30 0 59.5 8.5t53.5 25t39 42t15 59.5q0 26 -10 47t-28 35.5t-42 22.5t-52 8q-27 0 -55 -8.5
t-52.5 -27.5t-43 -48t-25.5 -69h-72q8 52 30.5 93t56.5 69.5t76.5 43.5t89.5 15q35 0 70.5 -11t64 -33t46.5 -55.5t18 -77.5q0 -62 -33.5 -106t-89.5 -67q51 -24 73.5 -66.5t22.5 -89.5t-16 -88.5t-46.5 -72.5t-75 -49t-101.5 -18z" />
    <glyph glyph-name="four.tnum" horiz-adv-x="590" 
d="M387 202h-385l12 57l491 451h60l-94 -441h100l-14 -67h-100l-43 -202h-70zM401 269l68 320l-349 -320h281z" />
    <glyph glyph-name="five.tnum" horiz-adv-x="590" 
d="M276 -10q-39 0 -79 12.5t-74 37.5t-57 62t-28 86h72q15 -63 61 -96.5t110 -33.5q80 0 123 48.5t43 126.5q0 34 -10.5 63t-29.5 49.5t-45.5 32t-58.5 11.5q-36 0 -75 -14.5t-71 -55.5l-61 19l149 372h328l-15 -69h-267l-83 -207q22 11 49 17.5t55 6.5q42 0 80 -17
t66 -46.5t44.5 -69t16.5 -84.5q0 -52 -15 -98t-45.5 -80t-76 -53.5t-106.5 -19.5z" />
    <glyph glyph-name="six.tnum" horiz-adv-x="590" 
d="M293 -10q-51 0 -94.5 17t-76 48t-51 73t-18.5 92q0 34 8.5 63t22.5 53t32 44.5t38 38.5l317 291h99l-282 -259q6 1 12 1.5t12 0.5q43 0 82.5 -17.5t69.5 -48.5t47.5 -73.5t17.5 -91.5q0 -45 -17 -86.5t-48.5 -74t-75 -52t-95.5 -19.5zM291 58q37 0 68 14t52.5 37.5
t33.5 53.5t12 63q0 37 -13 67t-35 51.5t-52.5 33.5t-64.5 12q-38 0 -69 -14t-52.5 -37t-33.5 -53t-12 -63q0 -36 13.5 -66.5t36 -52.5t53 -34t63.5 -12z" />
    <glyph glyph-name="seven.tnum" horiz-adv-x="590" 
d="M514 641h-365l15 69h457l-12 -57l-472 -653h-86z" />
    <glyph glyph-name="eight.tnum" horiz-adv-x="590" 
d="M523 228q0 -56 -18 -100t-50 -75.5t-76 -48t-96 -16.5q-59 0 -102.5 21.5t-72 53.5t-42.5 70.5t-14 72.5q0 37 10.5 70.5t30 61.5t47 48t60.5 31q-30 26 -42 59t-12 64q0 49 18.5 83.5t47 56.5t64 32t68.5 10q51 0 86 -17t56.5 -43t31.5 -56.5t10 -58.5q0 -54 -27 -93.5
t-69 -57.5q25 -15 42.5 -35.5t28 -43.5t15.5 -46.5t5 -42.5zM123 207q0 -23 8.5 -49t28 -49t51 -38t76.5 -15q36 0 66.5 12.5t53 35t35 52.5t12.5 66q0 21 -7.5 47t-25.5 49.5t-49 39.5t-79 16q-39 0 -70 -12.5t-53.5 -35t-34.5 -53t-12 -66.5zM216 536q0 -7 3.5 -24.5
t15.5 -35.5t35 -32t62 -14q55 0 91 31t36 89q0 7 -3.5 24t-15.5 35t-35 31.5t-62 13.5q-55 0 -91 -30t-36 -88z" />
    <glyph glyph-name="nine.tnum" horiz-adv-x="590" 
d="M340 261q-6 -2 -12 -2h-11q-44 0 -83 17.5t-69 48.5t-47.5 73.5t-17.5 91.5q0 45 17 86.5t48.5 74t74.5 52t96 19.5q51 0 94.5 -17t76 -48t51 -73t18.5 -92q0 -35 -8.5 -63.5t-22.5 -52.5t-32.5 -44.5t-37.5 -38.5l-319 -293h-99zM337 322q38 0 69 14t52.5 37t33.5 53
t12 63q0 36 -13.5 66.5t-36 52.5t-53 34t-63.5 12q-38 0 -68.5 -14t-52 -37.5t-33.5 -53.5t-12 -63q0 -37 13 -67t35 -51.5t52 -33.5t65 -12z" />
    <glyph glyph-name="zero.tnum" horiz-adv-x="590" 
d="M261 -10q-56 0 -100 20t-72.5 55.5t-38.5 84.5t3 108l43 201q13 60 34.5 109t54.5 83t79 52.5t107 18.5q56 0 100 -20t72 -56t38 -85t-2 -107l-43 -201q-13 -61 -35 -109.5t-55 -82.5t-78.5 -52.5t-106.5 -18.5zM267 58q75 0 126 47t73 148l44 206q10 45 3.5 81t-26 61.5
t-51 39t-71.5 13.5q-75 0 -126.5 -47.5t-72.5 -147.5l-44 -206q-10 -45 -3.5 -81.5t26 -61.5t50.5 -38.5t72 -13.5z" />
    <glyph glyph-name="zero.tnum.zero" horiz-adv-x="590" 
d="M260 -10q-56 0 -100 20t-72.5 55.5t-38.5 84.5t3 108l43 201q13 60 34.5 109t54.5 83t79 52.5t107 18.5q56 0 100 -20t72 -56t38 -85t-2 -107l-43 -201q-13 -61 -35 -109.5t-55 -82.5t-78.5 -52.5t-106.5 -18.5zM127 281l388 227q1 69 -40.5 107.5t-110.5 38.5
q-75 0 -126.5 -47.5t-72.5 -147.5zM266 58q75 0 126 47t73 148l37 176l-387 -226q-1 -69 40.5 -107t110.5 -38z" />
    <glyph glyph-name="uni21B2" unicode="&#x21b2;" horiz-adv-x="840" 
d="M44 248l306 306l40 -42l-234 -234h549v432h59v-492h-608l234 -235l-40 -41z" />
    <glyph glyph-name="uni21B3" unicode="&#x21b3;" horiz-adv-x="923" 
d="M566 -58l-40 41l234 235h-608v492h59v-432h549l-234 234l40 42l306 -306z" />
    <glyph glyph-name="uni21B0" unicode="&#x21b0;" horiz-adv-x="917" 
d="M714 -194v414h-549l234 -234l-40 -42l-306 306l306 306l40 -41l-234 -235h608v-474h-59z" />
    <glyph glyph-name="uni21B1" unicode="&#x21b1;" horiz-adv-x="830" 
d="M56 280h608l-234 235l40 41l306 -306l-306 -306l-40 42l234 234h-549v-414h-59v474z" />
    <glyph glyph-name="arrowleft" unicode="&#x2190;" horiz-adv-x="829" 
d="M50 250l306 306l40 -42l-234 -234h608v-60h-608l234 -235l-40 -41z" />
    <glyph glyph-name="arrowup" unicode="&#x2191;" horiz-adv-x="710" 
d="M357 610l-235 -234l-41 40l306 306l306 -306l-42 -40l-234 234v-610h-60v610z" />
    <glyph glyph-name="arrowright" unicode="&#x2192;" horiz-adv-x="828" 
d="M427 -14l234 234h-608v60h608l-234 235l40 41l306 -306l-306 -306z" />
    <glyph glyph-name="arrowdown" unicode="&#x2193;" horiz-adv-x="707" 
d="M360 -12l-306 306l41 40l235 -234v610h60v-610l234 234l42 -40z" />
    <glyph glyph-name="uni2196" unicode="&#x2196;" horiz-adv-x="817" 
d="M682 -12l-485 484v-332h-57v432h433v-58h-334l485 -484z" />
    <glyph glyph-name="uni2197" unicode="&#x2197;" horiz-adv-x="673" 
d="M6 30l485 484h-334v58h433v-432h-57v332l-485 -484z" />
    <glyph glyph-name="uni2198" unicode="&#x2198;" horiz-adv-x="807" 
d="M258 58h334l-485 484l42 42l485 -484v332h57v-432h-433v58z" />
    <glyph glyph-name="uni2199" unicode="&#x2199;" horiz-adv-x="675" 
d="M638 584l42 -42l-485 -484h334v-58h-433v432h57v-332z" />
    <glyph glyph-name="onethird" unicode="&#x2153;" horiz-adv-x="811" 
d="M178 650h-86l61 60h99l-92 -432h-61zM11 0l651 710h74l-651 -710h-74zM601 -6q-28 0 -55.5 9.5t-48.5 27.5t-33.5 44t-9.5 60h60q-1 -20 6.5 -35t19.5 -25.5t28 -15.5t33 -5q39 0 63 21.5t24 59.5q0 29 -18.5 46t-52.5 17h-45l12 54h33q35 0 61 18t26 53q0 26 -19.5 41.5
t-48.5 15.5q-15 0 -30 -4.5t-27.5 -14.5t-22 -24.5t-12.5 -34.5h-62q4 34 18.5 59.5t36 43t48 26.5t55.5 9q24 0 47 -7.5t40.5 -22t28 -35t10.5 -46.5q0 -38 -19.5 -65.5t-52.5 -41.5q27 -14 40.5 -38t13.5 -53q0 -27 -9.5 -52t-28 -44t-46 -30t-63.5 -11z" />
    <glyph glyph-name="uni2155" unicode="&#x2155;" horiz-adv-x="796" 
d="M178 650h-86l61 60h99l-92 -432h-61zM11 0l651 710h74l-651 -710h-74zM587 -5q-25 0 -50.5 8t-46.5 23.5t-36 39t-18 54.5h63q9 -32 33.5 -49t57.5 -17q41 0 64.5 25t23.5 66q0 34 -20 57t-55 23q-20 0 -43 -9t-40 -34l-53 17l94 234h210l-13 -60h-157l-43 -104
q28 13 59 13q26 0 48.5 -10.5t39 -28.5t26 -42t9.5 -51q0 -32 -9.5 -60.5t-28.5 -49.5t-47.5 -33t-67.5 -12z" />
    <glyph glyph-name="uni2159" unicode="&#x2159;" horiz-adv-x="766" 
d="M178 650h-86l61 60h99l-92 -432h-61zM11 0l651 710h74l-651 -710h-74zM564 -5q-33 0 -60 10.5t-46.5 29t-30.5 43.5t-11 53q0 44 18.5 74.5t49.5 62.5l172 165h83l-159 -154h4q26 0 49.5 -10.5t41.5 -28.5t28.5 -43t10.5 -55t-11 -56.5t-30.5 -46.5t-47 -32t-61.5 -12z
M564 54q39 0 63 26.5t24 61.5q0 37 -24.5 60t-59.5 23q-40 0 -64 -26t-24 -62t25 -59.5t60 -23.5z" />
    <glyph glyph-name="uni2150" unicode="&#x2150;" horiz-adv-x="824" 
d="M178 650h-86l61 60h99l-92 -432h-61zM11 0l651 710h74l-651 -710h-74zM754 373h-210l12 60h289l-11 -52l-280 -380h-74z" />
    <glyph glyph-name="oneeighth" unicode="&#x215b;" horiz-adv-x="807" 
d="M178 650h-86l61 60h99l-92 -432h-61zM11 0l651 710h74l-651 -710h-74zM594 -6q-36 0 -63 12t-44.5 31t-26.5 42t-9 45q0 42 21.5 77t63.5 50q-16 15 -23 34t-7 39q0 29 11 50.5t29.5 36t42 22t48.5 7.5q30 0 52 -9.5t37 -25t22.5 -34.5t7.5 -38q0 -32 -16 -57.5
t-42 -39.5q26 -18 37 -45t11 -50q0 -36 -12 -63.5t-32.5 -46t-48.5 -28t-59 -9.5zM597 51q38 1 63 25.5t25 61.5q0 12 -4.5 25.5t-14 25.5t-25.5 19.5t-39 7.5q-42 -1 -65.5 -26t-23.5 -62q0 -12 4.5 -26t15 -25t26 -18.5t38.5 -7.5zM628 264q30 0 49 17t19 48
q0 7 -2.5 16.5t-9.5 18t-19 14.5t-30 6q-30 0 -49.5 -17t-19.5 -48q0 -7 2.5 -16.5t9.5 -18t19 -14.5t31 -6z" />
    <glyph glyph-name="uni2151" unicode="&#x2151;" horiz-adv-x="806" 
d="M178 650h-86l61 60h99l-92 -432h-61zM11 0l651 710h74l-651 -710h-74zM619 156h-3q-26 0 -49.5 10.5t-41.5 28.5t-28.5 43t-10.5 55q0 29 10.5 55.5t30 47t47 32.5t61.5 12q33 0 60 -11t46.5 -29.5t30.5 -43t11 -52.5q0 -45 -18 -75t-50 -62l-172 -166h-84zM633 209
q19 0 35.5 7t28 19t18 28t6.5 34q0 37 -25 60.5t-60 23.5q-20 0 -36 -7t-27.5 -19t-18 -28t-6.5 -34q0 -37 24.5 -60.5t60.5 -23.5z" />
    <glyph glyph-name="uni2152" unicode="&#x2152;" horiz-adv-x="1080" 
d="M178 650h-86l61 60h99l-92 -432h-61zM11 0l651 710h74l-651 -710h-74zM593 373h-86l61 60h99l-92 -432h-61zM847 -5q-36 0 -64.5 12.5t-46 35.5t-23.5 54.5t2 69.5l23 113q16 74 56.5 117t115.5 43q36 0 64 -13t46 -35.5t24 -54.5t-2 -69l-24 -114q-16 -74 -56.5 -116.5
t-114.5 -42.5zM851 54q83 0 107 103l25 118q11 49 -12 77t-66 28q-41 0 -68 -24.5t-38 -77.5l-25 -119q-11 -49 11.5 -77t65.5 -28z" />
    <glyph glyph-name="twothirds" unicode="&#x2154;" horiz-adv-x="930" 
d="M46 308q9 39 27.5 66.5t43.5 47t53.5 34.5t55.5 29q50 27 73.5 51.5t23.5 59.5q0 28 -19.5 44.5t-48.5 16.5q-32 0 -58 -19.5t-31 -58.5h-62q3 34 17 59.5t35 43t47.5 26.5t56.5 9q24 0 47 -8t40.5 -23t28 -36.5t10.5 -48.5q0 -30 -7 -52.5t-22.5 -41.5t-40.5 -36.5
t-60 -36.5q-18 -10 -37 -19.5t-36.5 -21t-30.5 -25t-19 -31.5h204l-13 -59h-284zM130 0l651 710h74l-651 -710h-74zM720 -6q-28 0 -55.5 9.5t-48.5 27.5t-33.5 44t-9.5 60h60q-1 -20 6.5 -35t19.5 -25.5t28 -15.5t33 -5q39 0 63 21.5t24 59.5q0 29 -18.5 46t-52.5 17h-45
l12 54h33q35 0 61 18t26 53q0 26 -19.5 41.5t-48.5 15.5q-15 0 -30 -4.5t-27.5 -14.5t-22 -24.5t-12.5 -34.5h-62q4 34 18.5 59.5t36 43t48 26.5t55.5 9q24 0 47 -7.5t40.5 -22t28 -35t10.5 -46.5q0 -38 -19.5 -65.5t-52.5 -41.5q27 -14 40.5 -38t13.5 -53q0 -27 -9.5 -52
t-28 -44t-46 -30t-63.5 -11z" />
    <glyph glyph-name="uni2156" unicode="&#x2156;" horiz-adv-x="915" 
d="M46 308q9 39 27.5 66.5t43.5 47t53.5 34.5t55.5 29q50 27 73.5 51.5t23.5 59.5q0 28 -19.5 44.5t-48.5 16.5q-32 0 -58 -19.5t-31 -58.5h-62q3 34 17 59.5t35 43t47.5 26.5t56.5 9q24 0 47 -8t40.5 -23t28 -36.5t10.5 -48.5q0 -30 -7 -52.5t-22.5 -41.5t-40.5 -36.5
t-60 -36.5q-18 -10 -37 -19.5t-36.5 -21t-30.5 -25t-19 -31.5h204l-13 -59h-284zM130 0l651 710h74l-651 -710h-74zM706 -5q-25 0 -50.5 8t-46.5 23.5t-36 39t-18 54.5h63q9 -32 33.5 -49t57.5 -17q41 0 64.5 25t23.5 66q0 34 -20 57t-55 23q-20 0 -43 -9t-40 -34l-53 17
l94 234h210l-13 -60h-157l-43 -104q28 13 59 13q26 0 48.5 -10.5t39 -28.5t26 -42t9.5 -51q0 -32 -9.5 -60.5t-28.5 -49.5t-47.5 -33t-67.5 -12z" />
    <glyph glyph-name="uni2157" unicode="&#x2157;" horiz-adv-x="899" 
d="M216 271q-28 0 -55.5 9.5t-48.5 27.5t-33.5 44t-9.5 60h60q-1 -20 6.5 -35t19.5 -25.5t28 -15.5t33 -5q39 0 63 21.5t24 59.5q0 29 -18.5 46t-52.5 17h-45l12 54h33q35 0 61 18t26 53q0 26 -19.5 41.5t-48.5 15.5q-15 0 -30 -4.5t-27.5 -14.5t-22 -24.5t-12.5 -34.5h-62
q4 34 18.5 59.5t36 43t48 26.5t55.5 9q24 0 47 -7.5t40.5 -22t28 -35t10.5 -46.5q0 -38 -19.5 -65.5t-52.5 -41.5q27 -14 40.5 -38t13.5 -53q0 -27 -9.5 -52t-28 -44t-46 -30t-63.5 -11zM114 0l651 710h74l-651 -710h-74zM690 -5q-25 0 -50.5 8t-46.5 23.5t-36 39t-18 54.5
h63q9 -32 33.5 -49t57.5 -17q41 0 64.5 25t23.5 66q0 34 -20 57t-55 23q-20 0 -43 -9t-40 -34l-53 17l94 234h210l-13 -60h-157l-43 -104q28 13 59 13q26 0 48.5 -10.5t39 -28.5t26 -42t9.5 -51q0 -32 -9.5 -60.5t-28.5 -49.5t-47.5 -33t-67.5 -12z" />
    <glyph glyph-name="threeeighths" unicode="&#x215c;" horiz-adv-x="910" 
d="M216 271q-28 0 -55.5 9.5t-48.5 27.5t-33.5 44t-9.5 60h60q-1 -20 6.5 -35t19.5 -25.5t28 -15.5t33 -5q39 0 63 21.5t24 59.5q0 29 -18.5 46t-52.5 17h-45l12 54h33q35 0 61 18t26 53q0 26 -19.5 41.5t-48.5 15.5q-15 0 -30 -4.5t-27.5 -14.5t-22 -24.5t-12.5 -34.5h-62
q4 34 18.5 59.5t36 43t48 26.5t55.5 9q24 0 47 -7.5t40.5 -22t28 -35t10.5 -46.5q0 -38 -19.5 -65.5t-52.5 -41.5q27 -14 40.5 -38t13.5 -53q0 -27 -9.5 -52t-28 -44t-46 -30t-63.5 -11zM114 0l651 710h74l-651 -710h-74zM697 -6q-36 0 -63 12t-44.5 31t-26.5 42t-9 45
q0 42 21.5 77t63.5 50q-16 15 -23 34t-7 39q0 29 11 50.5t29.5 36t42 22t48.5 7.5q30 0 52 -9.5t37 -25t22.5 -34.5t7.5 -38q0 -32 -16 -57.5t-42 -39.5q26 -18 37 -45t11 -50q0 -36 -12 -63.5t-32.5 -46t-48.5 -28t-59 -9.5zM700 51q38 1 63 25.5t25 61.5q0 12 -4.5 25.5
t-14 25.5t-25.5 19.5t-39 7.5q-42 -1 -65.5 -26t-23.5 -62q0 -12 4.5 -26t15 -25t26 -18.5t38.5 -7.5zM731 264q30 0 49 17t19 48q0 7 -2.5 16.5t-9.5 18t-19 14.5t-30 6q-30 0 -49.5 -17t-19.5 -48q0 -7 2.5 -16.5t9.5 -18t19 -14.5t31 -6z" />
    <glyph glyph-name="uni2158" unicode="&#x2158;" horiz-adv-x="920" 
d="M272 390h-226l11 49l290 271h54l-56 -263h59l-12 -57h-59l-24 -112h-61zM284 447l34 161l-173 -161h139zM135 0l651 710h74l-651 -710h-74zM711 -5q-25 0 -50.5 8t-46.5 23.5t-36 39t-18 54.5h63q9 -32 33.5 -49t57.5 -17q41 0 64.5 25t23.5 66q0 34 -20 57t-55 23
q-20 0 -43 -9t-40 -34l-53 17l94 234h210l-13 -60h-157l-43 -104q28 13 59 13q26 0 48.5 -10.5t39 -28.5t26 -42t9.5 -51q0 -32 -9.5 -60.5t-28.5 -49.5t-47.5 -33t-67.5 -12z" />
    <glyph glyph-name="uni215A" unicode="&#x215a;" horiz-adv-x="854" 
d="M202 272q-25 0 -50.5 8t-46.5 23.5t-36 39t-18 54.5h63q9 -32 33.5 -49t57.5 -17q41 0 64.5 25t23.5 66q0 34 -20 57t-55 23q-20 0 -43 -9t-40 -34l-53 17l94 234h210l-13 -60h-157l-43 -104q28 13 59 13q26 0 48.5 -10.5t39 -28.5t26 -42t9.5 -51q0 -32 -9.5 -60.5
t-28.5 -49.5t-47.5 -33t-67.5 -12zM99 0l651 710h74l-651 -710h-74zM652 -5q-33 0 -60 10.5t-46.5 29t-30.5 43.5t-11 53q0 44 18.5 74.5t49.5 62.5l172 165h83l-159 -154h4q26 0 49.5 -10.5t41.5 -28.5t28.5 -43t10.5 -55t-11 -56.5t-30.5 -46.5t-47 -32t-61.5 -12zM652 54
q39 0 63 26.5t24 61.5q0 37 -24.5 60t-59.5 23q-40 0 -64 -26t-24 -62t25 -59.5t60 -23.5z" />
    <glyph glyph-name="fiveeighths" unicode="&#x215d;" horiz-adv-x="895" 
d="M202 272q-25 0 -50.5 8t-46.5 23.5t-36 39t-18 54.5h63q9 -32 33.5 -49t57.5 -17q41 0 64.5 25t23.5 66q0 34 -20 57t-55 23q-20 0 -43 -9t-40 -34l-53 17l94 234h210l-13 -60h-157l-43 -104q28 13 59 13q26 0 48.5 -10.5t39 -28.5t26 -42t9.5 -51q0 -32 -9.5 -60.5
t-28.5 -49.5t-47.5 -33t-67.5 -12zM99 0l651 710h74l-651 -710h-74zM682 -6q-36 0 -63 12t-44.5 31t-26.5 42t-9 45q0 42 21.5 77t63.5 50q-16 15 -23 34t-7 39q0 29 11 50.5t29.5 36t42 22t48.5 7.5q30 0 52 -9.5t37 -25t22.5 -34.5t7.5 -38q0 -32 -16 -57.5t-42 -39.5
q26 -18 37 -45t11 -50q0 -36 -12 -63.5t-32.5 -46t-48.5 -28t-59 -9.5zM685 51q38 1 63 25.5t25 61.5q0 12 -4.5 25.5t-14 25.5t-25.5 19.5t-39 7.5q-42 -1 -65.5 -26t-23.5 -62q0 -12 4.5 -26t15 -25t26 -18.5t38.5 -7.5zM716 264q30 0 49 17t19 48q0 7 -2.5 16.5t-9.5 18
t-19 14.5t-30 6q-30 0 -49.5 -17t-19.5 -48q0 -7 2.5 -16.5t9.5 -18t19 -14.5t31 -6z" />
    <glyph glyph-name="seveneighths" unicode="&#x215e;" horiz-adv-x="827" 
d="M318 650h-210l12 60h289l-11 -52l-280 -380h-74zM31 0l651 710h74l-651 -710h-74zM614 -6q-36 0 -63 12t-44.5 31t-26.5 42t-9 45q0 42 21.5 77t63.5 50q-16 15 -23 34t-7 39q0 29 11 50.5t29.5 36t42 22t48.5 7.5q30 0 52 -9.5t37 -25t22.5 -34.5t7.5 -38
q0 -32 -16 -57.5t-42 -39.5q26 -18 37 -45t11 -50q0 -36 -12 -63.5t-32.5 -46t-48.5 -28t-59 -9.5zM617 51q38 1 63 25.5t25 61.5q0 12 -4.5 25.5t-14 25.5t-25.5 19.5t-39 7.5q-42 -1 -65.5 -26t-23.5 -62q0 -12 4.5 -26t15 -25t26 -18.5t38.5 -7.5zM648 264q30 0 49 17
t19 48q0 7 -2.5 16.5t-9.5 18t-19 14.5t-30 6q-30 0 -49.5 -17t-19.5 -48q0 -7 2.5 -16.5t9.5 -18t19 -14.5t31 -6z" />
    <glyph glyph-name="uni215F" unicode="&#x215f;" horiz-adv-x="444" 
d="M178 650h-86l61 60h99l-92 -432h-61zM11 0l651 710h74l-651 -710h-74z" />
    <glyph glyph-name="fraction" unicode="&#x2044;" horiz-adv-x="180" 
d="M-253 0l651 710h74l-651 -710h-74z" />
    <glyph glyph-name="uni2074" unicode="&#x2074;" horiz-adv-x="388" 
d="M300 522h-226l11 49l290 271h54l-56 -263h59l-12 -57h-59l-24 -112h-61zM312 579l34 161l-173 -161h139z" />
    <glyph glyph-name="uni2075" unicode="&#x2075;" horiz-adv-x="352" 
d="M231 404q-25 0 -50.5 8t-46.5 23.5t-36 39t-18 54.5h63q9 -32 33.5 -49t57.5 -17q41 0 64.5 25t23.5 66q0 34 -20 57t-55 23q-20 0 -43 -9t-40 -34l-53 17l94 234h210l-13 -60h-157l-43 -104q28 13 59 13q26 0 48.5 -10.5t39 -28.5t26 -42t9.5 -51q0 -32 -9.5 -60.5
t-28.5 -49.5t-47.5 -33t-67.5 -12z" />
    <glyph glyph-name="uni2076" unicode="&#x2076;" horiz-adv-x="353" 
d="M238 404q-33 0 -60 10.5t-46.5 29t-30.5 43.5t-11 53q0 44 18.5 74.5t49.5 62.5l172 165h83l-159 -154h4q26 0 49.5 -10.5t41.5 -28.5t28.5 -43t10.5 -55t-11 -56.5t-30.5 -46.5t-47 -32t-61.5 -12zM238 463q39 0 63 26.5t24 61.5q0 37 -24.5 60t-59.5 23q-40 0 -64 -26
t-24 -62t25 -59.5t60 -23.5z" />
    <glyph glyph-name="uni2077" unicode="&#x2077;" horiz-adv-x="330" 
d="M346 782h-210l12 60h289l-11 -52l-280 -380h-74z" />
    <glyph glyph-name="uni2078" unicode="&#x2078;" horiz-adv-x="363" 
d="M237 403q-36 0 -63 12t-44.5 31t-26.5 42t-9 45q0 42 21.5 77t63.5 50q-16 15 -23 34t-7 39q0 29 11 50.5t29.5 36t42 22t48.5 7.5q30 0 52 -9.5t37 -25t22.5 -34.5t7.5 -38q0 -32 -16 -57.5t-42 -39.5q26 -18 37 -45t11 -50q0 -36 -12 -63.5t-32.5 -46t-48.5 -28
t-59 -9.5zM240 460q38 1 63 25.5t25 61.5q0 12 -4.5 25.5t-14 25.5t-25.5 19.5t-39 7.5q-42 -1 -65.5 -26t-23.5 -62q0 -12 4.5 -26t15 -25t26 -18.5t38.5 -7.5zM271 673q30 0 49 17t19 48q0 7 -2.5 16.5t-9.5 18t-19 14.5t-30 6q-30 0 -49.5 -17t-19.5 -48q0 -7 2.5 -16.5
t9.5 -18t19 -14.5t31 -6z" />
    <glyph glyph-name="uni2079" unicode="&#x2079;" horiz-adv-x="353" 
d="M253 565h-3q-26 0 -49.5 10.5t-41.5 28.5t-28.5 43t-10.5 55q0 29 10.5 55.5t30 47t47 32.5t61.5 12q33 0 60 -11t46.5 -29.5t30.5 -43t11 -52.5q0 -45 -18 -75t-50 -62l-172 -166h-84zM267 618q19 0 35.5 7t28 19t18 28t6.5 34q0 37 -25 60.5t-60 23.5q-20 0 -36 -7
t-27.5 -19t-18 -28t-6.5 -34q0 -37 24.5 -60.5t60.5 -23.5z" />
    <glyph glyph-name="uni2070" unicode="&#x2070;" horiz-adv-x="384" 
d="M238 404q-36 0 -64.5 12.5t-46 35.5t-23.5 54.5t2 69.5l23 113q16 74 56.5 117t115.5 43q36 0 64 -13t46 -35.5t24 -54.5t-2 -69l-24 -114q-16 -74 -56.5 -116.5t-114.5 -42.5zM242 463q83 0 107 103l25 118q11 49 -12 77t-66 28q-41 0 -68 -24.5t-38 -77.5l-25 -119
q-11 -49 11.5 -77t65.5 -28z" />
    <glyph glyph-name="uni2070.aalt" horiz-adv-x="384" 
d="M238 404q-36 0 -64.5 12.5t-46 35.5t-23.5 54.5t2 69.5l23 113q16 74 56.5 117t115.5 43q36 0 64 -13t46 -35.5t24 -54.5t-2 -69l-24 -114q-16 -74 -56.5 -116.5t-114.5 -42.5zM242 463q83 0 107 103l19 91l-206 -115q-1 -37 21 -58t59 -21zM171 596l206 115
q0 37 -22.5 57.5t-58.5 20.5q-41 0 -68 -24.5t-38 -77.5z" />
    <glyph glyph-name="uni2081" unicode="&#x2081;" horiz-adv-x="223" 
d="M95 258h-86l61 60h99l-92 -432h-61z" />
    <glyph glyph-name="uni2082" unicode="&#x2082;" horiz-adv-x="354" 
d="M-36 -84q9 39 27.5 66.5t43.5 47t53.5 34.5t55.5 29q50 27 73.5 51.5t23.5 59.5q0 28 -19.5 44.5t-48.5 16.5q-32 0 -58 -19.5t-31 -58.5h-62q3 34 17 59.5t35 43t47.5 26.5t56.5 9q24 0 47 -8t40.5 -23t28 -36.5t10.5 -48.5q0 -30 -7 -52.5t-22.5 -41.5t-40.5 -36.5
t-60 -36.5q-18 -10 -37 -19.5t-36.5 -21t-30.5 -25t-19 -31.5h204l-13 -59h-284z" />
    <glyph glyph-name="uni2083" unicode="&#x2083;" horiz-adv-x="367" 
d="M134 -121q-28 0 -55.5 9.5t-48.5 27.5t-33.5 44t-9.5 60h60q-1 -20 6.5 -35t19.5 -25.5t28 -15.5t33 -5q39 0 63 21.5t24 59.5q0 29 -18.5 46t-52.5 17h-45l12 54h33q35 0 61 18t26 53q0 26 -19.5 41.5t-48.5 15.5q-15 0 -30 -4.5t-27.5 -14.5t-22 -24.5t-12.5 -34.5h-62
q4 34 18.5 59.5t36 43t48 26.5t55.5 9q24 0 47 -7.5t40.5 -22t28 -35t10.5 -46.5q0 -38 -19.5 -65.5t-52.5 -41.5q27 -14 40.5 -38t13.5 -53q0 -27 -9.5 -52t-28 -44t-46 -30t-63.5 -11z" />
    <glyph glyph-name="uni2084" unicode="&#x2084;" horiz-adv-x="388" 
d="M189 -2h-226l11 49l290 271h54l-56 -263h59l-12 -57h-59l-24 -112h-61zM201 55l34 161l-173 -161h139z" />
    <glyph glyph-name="uni2085" unicode="&#x2085;" horiz-adv-x="352" 
d="M120 -120q-25 0 -50.5 8t-46.5 23.5t-36 39t-18 54.5h63q9 -32 33.5 -49t57.5 -17q41 0 64.5 25t23.5 66q0 34 -20 57t-55 23q-20 0 -43 -9t-40 -34l-53 17l94 234h210l-13 -60h-157l-43 -104q28 13 59 13q26 0 48.5 -10.5t39 -28.5t26 -42t9.5 -51q0 -32 -9.5 -60.5
t-28.5 -49.5t-47.5 -33t-67.5 -12z" />
    <glyph glyph-name="uni2086" unicode="&#x2086;" horiz-adv-x="353" 
d="M128 -120q-33 0 -60 10.5t-46.5 29t-30.5 43.5t-11 53q0 44 18.5 74.5t49.5 62.5l172 165h83l-159 -154h4q26 0 49.5 -10.5t41.5 -28.5t28.5 -43t10.5 -55t-11 -56.5t-30.5 -46.5t-47 -32t-61.5 -12zM128 -61q39 0 63 26.5t24 61.5q0 37 -24.5 60t-59.5 23q-40 0 -64 -26
t-24 -62t25 -59.5t60 -23.5z" />
    <glyph glyph-name="uni2087" unicode="&#x2087;" horiz-adv-x="330" 
d="M236 258h-210l12 60h289l-11 -52l-280 -380h-74z" />
    <glyph glyph-name="uni2088" unicode="&#x2088;" horiz-adv-x="363" 
d="M126 -121q-36 0 -63 12t-44.5 31t-26.5 42t-9 45q0 42 21.5 77t63.5 50q-16 15 -23 34t-7 39q0 29 11 50.5t29.5 36t42 22t48.5 7.5q30 0 52 -9.5t37 -25t22.5 -34.5t7.5 -38q0 -32 -16 -57.5t-42 -39.5q26 -18 37 -45t11 -50q0 -36 -12 -63.5t-32.5 -46t-48.5 -28
t-59 -9.5zM129 -64q38 1 63 25.5t25 61.5q0 12 -4.5 25.5t-14 25.5t-25.5 19.5t-39 7.5q-42 -1 -65.5 -26t-23.5 -62q0 -12 4.5 -26t15 -25t26 -18.5t38.5 -7.5zM160 149q30 0 49 17t19 48q0 7 -2.5 16.5t-9.5 18t-19 14.5t-30 6q-30 0 -49.5 -17t-19.5 -48q0 -7 2.5 -16.5
t9.5 -18t19 -14.5t31 -6z" />
    <glyph glyph-name="uni2089" unicode="&#x2089;" horiz-adv-x="353" 
d="M142 41h-3q-26 0 -49.5 10.5t-41.5 28.5t-28.5 43t-10.5 55q0 29 10.5 55.5t30 47t47 32.5t61.5 12q33 0 60 -11t46.5 -29.5t30.5 -43t11 -52.5q0 -45 -18 -75t-50 -62l-172 -166h-84zM156 94q19 0 35.5 7t28 19t18 28t6.5 34q0 37 -25 60.5t-60 23.5q-20 0 -36 -7
t-27.5 -19t-18 -28t-6.5 -34q0 -37 24.5 -60.5t60.5 -23.5z" />
    <glyph glyph-name="uni2080" unicode="&#x2080;" horiz-adv-x="384" 
d="M127 -120q-36 0 -64.5 12.5t-46 35.5t-23.5 54.5t2 69.5l23 113q16 74 56.5 117t115.5 43q36 0 64 -13t46 -35.5t24 -54.5t-2 -69l-24 -114q-16 -74 -56.5 -116.5t-114.5 -42.5zM131 -61q83 0 107 103l25 118q11 49 -12 77t-66 28q-41 0 -68 -24.5t-38 -77.5l-25 -119
q-11 -49 11.5 -77t65.5 -28z" />
    <glyph glyph-name="uni2080.aalt" horiz-adv-x="384" 
d="M126 -121q-36 0 -64.5 12.5t-46 35.5t-23.5 54.5t2 69.5l23 113q16 74 56.5 117t115.5 43q36 0 64 -13t46 -35.5t24 -54.5t-2 -69l-24 -114q-16 -74 -56.5 -116.5t-114.5 -42.5zM130 -62q83 0 107 103l19 91l-206 -115q-1 -37 21 -58t59 -21zM59 71l206 115
q0 37 -22.5 57.5t-58.5 20.5q-41 0 -68 -24.5t-38 -77.5z" />
    <glyph glyph-name="one.numr" horiz-adv-x="223" 
d="M178 650h-86l61 60h99l-92 -432h-61z" />
    <glyph glyph-name="two.numr" horiz-adv-x="354" 
d="M46 308q9 39 27.5 66.5t43.5 47t53.5 34.5t55.5 29q50 27 73.5 51.5t23.5 59.5q0 28 -19.5 44.5t-48.5 16.5q-32 0 -58 -19.5t-31 -58.5h-62q3 34 17 59.5t35 43t47.5 26.5t56.5 9q24 0 47 -8t40.5 -23t28 -36.5t10.5 -48.5q0 -30 -7 -52.5t-22.5 -41.5t-40.5 -36.5
t-60 -36.5q-18 -10 -37 -19.5t-36.5 -21t-30.5 -25t-19 -31.5h204l-13 -59h-284z" />
    <glyph glyph-name="three.numr" horiz-adv-x="367" 
d="M216 271q-28 0 -55.5 9.5t-48.5 27.5t-33.5 44t-9.5 60h60q-1 -20 6.5 -35t19.5 -25.5t28 -15.5t33 -5q39 0 63 21.5t24 59.5q0 29 -18.5 46t-52.5 17h-45l12 54h33q35 0 61 18t26 53q0 26 -19.5 41.5t-48.5 15.5q-15 0 -30 -4.5t-27.5 -14.5t-22 -24.5t-12.5 -34.5h-62
q4 34 18.5 59.5t36 43t48 26.5t55.5 9q24 0 47 -7.5t40.5 -22t28 -35t10.5 -46.5q0 -38 -19.5 -65.5t-52.5 -41.5q27 -14 40.5 -38t13.5 -53q0 -27 -9.5 -52t-28 -44t-46 -30t-63.5 -11z" />
    <glyph glyph-name="four.numr" horiz-adv-x="388" 
d="M272 390h-226l11 49l290 271h54l-56 -263h59l-12 -57h-59l-24 -112h-61zM284 447l34 161l-173 -161h139z" />
    <glyph glyph-name="five.numr" horiz-adv-x="352" 
d="M202 272q-25 0 -50.5 8t-46.5 23.5t-36 39t-18 54.5h63q9 -32 33.5 -49t57.5 -17q41 0 64.5 25t23.5 66q0 34 -20 57t-55 23q-20 0 -43 -9t-40 -34l-53 17l94 234h210l-13 -60h-157l-43 -104q28 13 59 13q26 0 48.5 -10.5t39 -28.5t26 -42t9.5 -51q0 -32 -9.5 -60.5
t-28.5 -49.5t-47.5 -33t-67.5 -12z" />
    <glyph glyph-name="six.numr" horiz-adv-x="353" 
d="M210 272q-33 0 -60 10.5t-46.5 29t-30.5 43.5t-11 53q0 44 18.5 74.5t49.5 62.5l172 165h83l-159 -154h4q26 0 49.5 -10.5t41.5 -28.5t28.5 -43t10.5 -55t-11 -56.5t-30.5 -46.5t-47 -32t-61.5 -12zM210 331q39 0 63 26.5t24 61.5q0 37 -24.5 60t-59.5 23q-40 0 -64 -26
t-24 -62t25 -59.5t60 -23.5z" />
    <glyph glyph-name="seven.numr" horiz-adv-x="330" 
d="M318 650h-210l12 60h289l-11 -52l-280 -380h-74z" />
    <glyph glyph-name="eight.numr" horiz-adv-x="363" 
d="M209 271q-36 0 -63 12t-44.5 31t-26.5 42t-9 45q0 42 21.5 77t63.5 50q-16 15 -23 34t-7 39q0 29 11 50.5t29.5 36t42 22t48.5 7.5q30 0 52 -9.5t37 -25t22.5 -34.5t7.5 -38q0 -32 -16 -57.5t-42 -39.5q26 -18 37 -45t11 -50q0 -36 -12 -63.5t-32.5 -46t-48.5 -28
t-59 -9.5zM212 328q38 1 63 25.5t25 61.5q0 12 -4.5 25.5t-14 25.5t-25.5 19.5t-39 7.5q-42 -1 -65.5 -26t-23.5 -62q0 -12 4.5 -26t15 -25t26 -18.5t38.5 -7.5zM243 541q30 0 49 17t19 48q0 7 -2.5 16.5t-9.5 18t-19 14.5t-30 6q-30 0 -49.5 -17t-19.5 -48q0 -7 2.5 -16.5
t9.5 -18t19 -14.5t31 -6z" />
    <glyph glyph-name="nine.numr" horiz-adv-x="353" 
d="M225 433h-3q-26 0 -49.5 10.5t-41.5 28.5t-28.5 43t-10.5 55q0 29 10.5 55.5t30 47t47 32.5t61.5 12q33 0 60 -11t46.5 -29.5t30.5 -43t11 -52.5q0 -45 -18 -75t-50 -62l-172 -166h-84zM239 486q19 0 35.5 7t28 19t18 28t6.5 34q0 37 -25 60.5t-60 23.5q-20 0 -36 -7
t-27.5 -19t-18 -28t-6.5 -34q0 -37 24.5 -60.5t60.5 -23.5z" />
    <glyph glyph-name="zero.numr" horiz-adv-x="384" 
d="M210 272q-36 0 -64.5 12.5t-46 35.5t-23.5 54.5t2 69.5l23 113q16 74 56.5 117t115.5 43q36 0 64 -13t46 -35.5t24 -54.5t-2 -69l-24 -114q-16 -74 -56.5 -116.5t-114.5 -42.5zM214 331q83 0 107 103l25 118q11 49 -12 77t-66 28q-41 0 -68 -24.5t-38 -77.5l-25 -119
q-11 -49 11.5 -77t65.5 -28z" />
    <glyph glyph-name="zero.numr.zero" horiz-adv-x="384" 
d="M210 272q-36 0 -64.5 12.5t-46 35.5t-23.5 54.5t2 69.5l23 113q16 74 56.5 117t115.5 43q36 0 64 -13t46 -35.5t24 -54.5t-2 -69l-24 -114q-16 -74 -56.5 -116.5t-114.5 -42.5zM214 331q83 0 107 103l19 91l-206 -115q-1 -37 21 -58t59 -21zM143 464l206 115
q0 37 -22.5 57.5t-58.5 20.5q-41 0 -68 -24.5t-38 -77.5z" />
    <glyph glyph-name="one.dnom" horiz-adv-x="223" 
d="M121 373h-86l61 60h99l-92 -432h-61z" />
    <glyph glyph-name="two.dnom" horiz-adv-x="354" 
d="M-12 31q9 39 27.5 66.5t43.5 47t53.5 34.5t55.5 29q50 27 73.5 51.5t23.5 59.5q0 28 -19.5 44.5t-48.5 16.5q-32 0 -58 -19.5t-31 -58.5h-62q3 34 17 59.5t35 43t47.5 26.5t56.5 9q24 0 47 -8t40.5 -23t28 -36.5t10.5 -48.5q0 -30 -7 -52.5t-22.5 -41.5t-40.5 -36.5
t-60 -36.5q-18 -10 -37 -19.5t-36.5 -21t-30.5 -25t-19 -31.5h204l-13 -59h-284z" />
    <glyph glyph-name="three.dnom" horiz-adv-x="367" 
d="M158 -6q-28 0 -55.5 9.5t-48.5 27.5t-33.5 44t-9.5 60h60q-1 -20 6.5 -35t19.5 -25.5t28 -15.5t33 -5q39 0 63 21.5t24 59.5q0 29 -18.5 46t-52.5 17h-45l12 54h33q35 0 61 18t26 53q0 26 -19.5 41.5t-48.5 15.5q-15 0 -30 -4.5t-27.5 -14.5t-22 -24.5t-12.5 -34.5h-62
q4 34 18.5 59.5t36 43t48 26.5t55.5 9q24 0 47 -7.5t40.5 -22t28 -35t10.5 -46.5q0 -38 -19.5 -65.5t-52.5 -41.5q27 -14 40.5 -38t13.5 -53q0 -27 -9.5 -52t-28 -44t-46 -30t-63.5 -11z" />
    <glyph glyph-name="four.dnom" horiz-adv-x="388" 
d="M214 113h-226l11 49l290 271h54l-56 -263h59l-12 -57h-59l-24 -112h-61zM226 170l34 161l-173 -161h139z" />
    <glyph glyph-name="five.dnom" horiz-adv-x="352" 
d="M144 -5q-25 0 -50.5 8t-46.5 23.5t-36 39t-18 54.5h63q9 -32 33.5 -49t57.5 -17q41 0 64.5 25t23.5 66q0 34 -20 57t-55 23q-20 0 -43 -9t-40 -34l-53 17l94 234h210l-13 -60h-157l-43 -104q28 13 59 13q26 0 48.5 -10.5t39 -28.5t26 -42t9.5 -51q0 -32 -9.5 -60.5
t-28.5 -49.5t-47.5 -33t-67.5 -12z" />
    <glyph glyph-name="six.dnom" horiz-adv-x="353" 
d="M152 -5q-33 0 -60 10.5t-46.5 29t-30.5 43.5t-11 53q0 44 18.5 74.5t49.5 62.5l172 165h83l-159 -154h4q26 0 49.5 -10.5t41.5 -28.5t28.5 -43t10.5 -55t-11 -56.5t-30.5 -46.5t-47 -32t-61.5 -12zM152 54q39 0 63 26.5t24 61.5q0 37 -24.5 60t-59.5 23q-40 0 -64 -26
t-24 -62t25 -59.5t60 -23.5z" />
    <glyph glyph-name="seven.dnom" horiz-adv-x="330" 
d="M261 373h-210l12 60h289l-11 -52l-280 -380h-74z" />
    <glyph glyph-name="eight.dnom" horiz-adv-x="363" 
d="M151 -6q-36 0 -63 12t-44.5 31t-26.5 42t-9 45q0 42 21.5 77t63.5 50q-16 15 -23 34t-7 39q0 29 11 50.5t29.5 36t42 22t48.5 7.5q30 0 52 -9.5t37 -25t22.5 -34.5t7.5 -38q0 -32 -16 -57.5t-42 -39.5q26 -18 37 -45t11 -50q0 -36 -12 -63.5t-32.5 -46t-48.5 -28
t-59 -9.5zM154 51q38 1 63 25.5t25 61.5q0 12 -4.5 25.5t-14 25.5t-25.5 19.5t-39 7.5q-42 -1 -65.5 -26t-23.5 -62q0 -12 4.5 -26t15 -25t26 -18.5t38.5 -7.5zM185 264q30 0 49 17t19 48q0 7 -2.5 16.5t-9.5 18t-19 14.5t-30 6q-30 0 -49.5 -17t-19.5 -48q0 -7 2.5 -16.5
t9.5 -18t19 -14.5t31 -6z" />
    <glyph glyph-name="nine.dnom" horiz-adv-x="353" 
d="M167 156h-3q-26 0 -49.5 10.5t-41.5 28.5t-28.5 43t-10.5 55q0 29 10.5 55.5t30 47t47 32.5t61.5 12q33 0 60 -11t46.5 -29.5t30.5 -43t11 -52.5q0 -45 -18 -75t-50 -62l-172 -166h-84zM181 209q19 0 35.5 7t28 19t18 28t6.5 34q0 37 -25 60.5t-60 23.5q-20 0 -36 -7
t-27.5 -19t-18 -28t-6.5 -34q0 -37 24.5 -60.5t60.5 -23.5z" />
    <glyph glyph-name="zero.dnom" horiz-adv-x="384" 
d="M152 -5q-36 0 -64.5 12.5t-46 35.5t-23.5 54.5t2 69.5l23 113q16 74 56.5 117t115.5 43q36 0 64 -13t46 -35.5t24 -54.5t-2 -69l-24 -114q-16 -74 -56.5 -116.5t-114.5 -42.5zM156 54q83 0 107 103l25 118q11 49 -12 77t-66 28q-41 0 -68 -24.5t-38 -77.5l-25 -119
q-11 -49 11.5 -77t65.5 -28z" />
    <glyph glyph-name="zero.dnom.zero" horiz-adv-x="385" 
d="M151 -6q-36 0 -64.5 12.5t-46 35.5t-23.5 54.5t2 69.5l23 113q16 74 56.5 117t115.5 43q36 0 64 -13t46 -35.5t24 -54.5t-2 -69l-24 -114q-16 -74 -56.5 -116.5t-114.5 -42.5zM155 53q83 0 107 103l19 91l-206 -115q-1 -37 21 -58t59 -21zM84 186l206 115
q0 37 -22.5 57.5t-58.5 20.5q-41 0 -68 -24.5t-38 -77.5z" />
    <glyph glyph-name="hyphen.aalt" horiz-adv-x="391" 
d="M98 391h245l-15 -72h-245z" />
    <glyph glyph-name="uni00AD.aalt" horiz-adv-x="391" 
d="M98 391h245l-15 -72h-245z" />
    <glyph glyph-name="endash.aalt" horiz-adv-x="568" 
d="M98 391h422l-15 -72h-422z" />
    <glyph glyph-name="emdash.aalt" horiz-adv-x="568" 
d="M98 391h422l-15 -72h-422z" />
    <glyph glyph-name="questiondown.aalt" horiz-adv-x="509" 
d="M217 -12q-41 0 -75.5 13.5t-59.5 36.5t-38.5 55t-13.5 70q0 36 11.5 65.5t32 55t48 47.5t59.5 43q29 19 58 44.5t40 62.5h74q-6 -27 -20.5 -50.5t-32.5 -42.5t-37 -33.5t-34 -24.5q-62 -41 -94.5 -80t-32.5 -81q0 -50 33 -81.5t90 -31.5q28 0 56 9t51 27.5t38 46t18 63.5
h70q-3 -48 -22.5 -87.5t-51 -67.5t-74 -43.5t-93.5 -15.5zM352 588q-28 0 -47 20t-19 47t19 47t47 20t47 -20t19 -47t-19 -47t-47 -20z" />
    <glyph glyph-name="exclamdown.aalt" horiz-adv-x="273" 
d="M179 291l-62 -291h-70l62 291l53 190h44zM220 588q-28 0 -47 20t-19 47t19 47t47 20t47 -20t19 -47t-19 -47t-47 -20z" />
    <glyph glyph-name="guilsinglleft.aalt" horiz-adv-x="331" 
d="M262 572h61l-163 -228l71 -206h-56l-98 217z" />
    <glyph glyph-name="guilsinglright.aalt" horiz-adv-x="331" 
d="M107.993 138.991h-60.9961l162.99 227.986l-70.9961 205.987h55.9971l97.9941 -216.986z" />
    <glyph glyph-name="guillemotleft.aalt" horiz-adv-x="495" 
d="M426 572h61l-163 -228l71 -206h-56l-98 217zM262 572h61l-163 -228l71 -206h-56l-98 217z" />
    <glyph glyph-name="guillemotright.aalt" horiz-adv-x="495" 
d="M-55.9961 138.991h-60.9971l162.99 227.986l-70.9951 205.987h55.9961l97.9941 -216.986zM107.993 138.991h-60.9961l162.99 227.986l-70.9961 205.987h55.9971l97.9941 -216.986z" />
    <glyph glyph-name="parenleft.aalt" horiz-adv-x="292" 
d="M138 -123q-12 35 -24.5 80.5t-22.5 97.5t-16.5 109t-5.5 115q1 133 50 275t160 284h69q-61 -75 -102 -149.5t-65.5 -145t-35.5 -136t-12 -122.5q-1 -56 4 -113t13.5 -110t20 -100.5t24.5 -84.5h-57z" />
    <glyph glyph-name="parenright.aalt" horiz-adv-x="293" 
d="M195.988 838.949q11.999 -34.998 24.498 -80.4951q12.499 -45.498 22.499 -97.4941q9.99902 -51.9971 16.499 -108.993q6.49902 -56.9971 5.49902 -114.993q-0.999023 -132.992 -49.9961 -274.983t-159.99 -283.982h-68.9961q60.9961 74.9951 101.993 149.49
q40.998 74.4961 65.4961 144.991q24.499 70.4961 35.498 135.992q11 65.4961 11.999 122.492q1 55.9971 -3.99902 112.993q-5 56.9961 -13.499 109.993q-8.5 52.9971 -19.999 100.494q-11.5 47.4971 -24.499 84.4951h56.9971z" />
    <glyph glyph-name="bracketleft.aalt" horiz-adv-x="308" 
d="M221 835h176l-13 -63h-110l-178 -834h110l-13 -63h-176z" />
    <glyph glyph-name="bracketright.aalt" horiz-adv-x="308" 
d="M125.992 -124.992h-175.989l12.999 62.9961h109.993l177.989 833.949h-109.993l12.999 62.9961h175.989z" />
    <glyph glyph-name="braceleft.aalt" horiz-adv-x="316" 
d="M159 -125q-58 0 -88 36t-15 107l50 238q8 38 0 56.5t-43 18.5h-17l14 63h17q19 0 31.5 3.5t20.5 12.5t13 23.5t10 35.5l51 237q7 35 16.5 59.5t26 40t42 22.5t64.5 7h54l-13 -63h-48q-20 0 -33 -4t-22 -13t-14.5 -24t-9.5 -36l-49 -229q-5 -25 -11 -42.5t-15 -30.5
t-21 -22t-29 -16q28 -17 33 -42.5t-5 -73.5l-49 -233q-7 -32 4 -50t43 -18h48l-13 -63h-43z" />
    <glyph glyph-name="braceright.aalt" horiz-adv-x="316" 
d="M196.988 835.949q57.9961 0 87.9941 -35.998t14.999 -106.993l-49.9971 -237.985q-7.99902 -37.998 0 -56.4971q8 -18.499 42.998 -18.499h16.999l-13.999 -62.9961h-16.999q-18.999 0 -31.498 -3.5q-12.5 -3.49902 -20.499 -12.499q-8 -8.99902 -12.999 -23.498
q-5 -14.499 -10 -35.498l-50.9971 -236.985q-6.99902 -34.998 -16.499 -59.4971q-9.49902 -24.498 -25.998 -39.9971t-41.9971 -22.499q-25.499 -6.99902 -64.4961 -6.99902h-53.9971l12.999 62.9961h47.9971q19.999 0 32.998 4q12.999 3.99902 21.999 12.999
q8.99902 8.99902 14.499 23.998t9.49902 35.998l48.9971 228.986q5 24.998 11 42.4971q5.99902 17.499 14.999 30.498q8.99902 12.999 20.998 21.999q12 8.99902 28.999 15.999q-27.999 16.999 -32.998 42.4971q-5 25.499 4.99902 73.4951l48.9971 232.986
q7 31.998 -3.99902 49.9971q-11 17.999 -42.998 17.999h-47.9971l12.999 62.9961h42.998z" />
    <glyph glyph-name="bar.aalt" horiz-adv-x="306" 
d="M139 765h67v-820h-67v820z" />
    <glyph glyph-name="brokenbar.aalt" horiz-adv-x="306" 
d="M139 312h67v-367h-67v367zM139 765h67v-367h-67v367z" />
    <glyph glyph-name="periodcentered.aalt" horiz-adv-x="272" 
d="M152 288q-28 0 -47 20t-19 47t19 47t47 20t47 -20t19 -47t-19 -47t-47 -20z" />
    <glyph glyph-name="plus.aalt" horiz-adv-x="510" 
d="M62 386h179v179h66v-179h179v-63h-179v-179h-66v179h-179v63z" />
    <glyph glyph-name="minus.aalt" horiz-adv-x="585" 
d="M97 386h424v-63h-424v63z" />
    <glyph glyph-name="multiply.aalt" horiz-adv-x="520" 
d="M83 210l147 145l-147 145l47 46l147 -144l147 144l47 -46l-147 -145l147 -145l-47 -46l-147 144l-147 -144z" />
    <glyph glyph-name="equal.aalt" horiz-adv-x="635" 
d="M120 277h424v-63h-424v63zM120 496h424v-63h-424v63z" />
    <glyph glyph-name="less.aalt" horiz-adv-x="470" 
d="M150 355l253 -253h-89l-253 253l253 253h89z" />
    <glyph glyph-name="greater.aalt" horiz-adv-x="473" 
d="M361.978 354.979l-252.984 252.984h88.9951l252.984 -252.984l-252.984 -252.984h-88.9951z" />
    <glyph glyph-name="acute.aalt" 
d="M185 927h96l-141 -157h-64z" />
    <glyph glyph-name="breve.aalt" 
d="M176 762q-30 0 -58 10.5t-47.5 30.5t-29 48.5t-1.5 63.5h49q-5 -27 0.5 -46.5t18.5 -32t31.5 -18.5t39.5 -6q48 0 76.5 26.5t39.5 76.5h53q-11 -71 -57.5 -112t-114.5 -41z" />
    <glyph glyph-name="caron.aalt" 
d="M341 855l-173 -87l-144 98l13 62l136 -92l184 92z" />
    <glyph glyph-name="cedilla.aalt" 
d="M-137 -154q17 -8 37 -11.5t39 -3.5q32 0 54.5 13t22.5 34q0 28 -41 28q-12 0 -24.5 -2.5t-24.5 -7.5l-27 21l67 86h55l-44 -56q12 4 20.5 5t16.5 1q29 0 46.5 -18t17.5 -45q0 -55 -39.5 -82t-102.5 -27q-19 0 -42 3.5t-42 11.5z" />
    <glyph glyph-name="circumflex.aalt" 
d="M19 841l173 87l144 -98l-13 -62l-136 92l-184 -92z" />
    <glyph glyph-name="dieresis.aalt" 
d="M69 789q-23 0 -38.5 15.5t-15.5 37.5t15.5 37.5t38.5 15.5q22 0 37 -15.5t15 -37.5t-15 -37.5t-37 -15.5zM291 789q-23 0 -38.5 15.5t-15.5 37.5t15.5 37.5t38.5 15.5q22 0 37 -15.5t15 -37.5t-15 -37.5t-37 -15.5z" />
    <glyph glyph-name="dotaccent.aalt" 
d="M180 789q-23 0 -38.5 15.5t-15.5 37.5t15.5 37.5t38.5 15.5q22 0 37 -15.5t15 -37.5t-15 -37.5t-37 -15.5z" />
    <glyph glyph-name="glyph523" 
d="M0 -53q-23 0 -38.5 15.5t-15.5 37.5t15.5 37.5t38.5 15.5q22 0 37 -15.5t15 -37.5t-15 -37.5t-37 -15.5z" />
    <glyph glyph-name="glyph524" 
d="M-26 -181q-23 0 -38.5 15.5t-15.5 37.5t15.5 37.5t38.5 15.5q22 0 37 -15.5t15 -37.5t-15 -37.5t-37 -15.5z" />
    <glyph glyph-name="glyph525" 
d="M-84 -258l41 87h-42l21 96h97l-21 -96l-53 -87h-43z" />
    <glyph glyph-name="grave.aalt" 
d="M194 770l-87 157h91l52 -157h-56z" />
    <glyph glyph-name="hungarumlaut.aalt" 
d="M267 927h87l-134 -157h-54zM105 927h87l-134 -157h-54z" />
    <glyph glyph-name="macron.aalt" 
d="M27 870h316l-13 -61h-316z" />
    <glyph glyph-name="ogonek.aalt" 
d="M-35 -219q-33 0 -55 19t-22 53q0 25 11.5 47t29 40.5t38.5 33.5t40 26h76q-69 -40 -94.5 -72.5t-25.5 -54.5q0 -14 9.5 -21t25.5 -7t29 4.5t27 14.5l-13 -61q-14 -10 -33.5 -16t-42.5 -6z" />
    <glyph glyph-name="ring.aalt" 
d="M185 753q-25 0 -47 9.5t-38.5 26t-26 38t-9.5 46.5t9.5 46.5t26 38t38.5 26t47 9.5t47 -9.5t38.5 -26t26.5 -38t10 -46.5t-10 -46.5t-26.5 -38t-38.5 -26t-47 -9.5zM185 800q31 0 52.5 21t21.5 52q0 30 -21.5 52t-52.5 22q-30 0 -51.5 -22t-21.5 -52q0 -31 21.5 -52
t51.5 -21z" />
    <glyph glyph-name="tilde.aalt" 
d="M3 804q11 42 43.5 65.5t71.5 23.5q19 0 37 -6.5t34 -15t30.5 -15t26.5 -6.5q32 0 51 43h61l-4 -16q-11 -42 -43.5 -65.5t-71.5 -23.5q-19 0 -37 6.5t-34 15t-30.5 15t-26.5 6.5q-32 0 -51 -43h-61z" />
    <glyph glyph-name="glyph532" 
d="M-76 394h320l-14 -68h-320z" />
    <glyph glyph-name="glyph533" 
d="M-287 -20l-41 43l767 707l41 -44z" />
    <glyph glyph-name="glyph534" 
d="M-114 213l17 78l361 207l-17 -78z" />
    <glyph glyph-name="glyph535" 
d="M-110 419h399l-14 -68h-399z" />
    <glyph glyph-name="glyph536" 
d="M-230 601h715l-13 -63h-715z" />
    <glyph glyph-name="glyph537" horiz-adv-x="546" 
d="M192 710h76l-136 -638h355l-15 -72h-431zM436 338q-23 0 -38.5 15.5t-15.5 37.5t15.5 37.5t38.5 15.5q22 0 37 -15.5t15 -37.5t-15 -37.5t-37 -15.5z" />
    <glyph glyph-name="uni0437.aalt" horiz-adv-x="509" 
d="M39 -59q13 -45 49.5 -69.5t100.5 -24.5q34 0 61.5 12t47 33.5t30.5 50.5t11 64q0 25 -6.5 48.5t-20.5 41.5t-35.5 28.5t-51.5 10.5h-82l14 65h80q33 0 60 10t46.5 28t30 42.5t10.5 52.5q0 48 -30 79t-91 31q-43 0 -80.5 -22.5t-54.5 -69.5h-73q18 74 75 116t140 42
q43 0 77.5 -13t58.5 -35.5t37 -53t13 -64.5q0 -59 -30 -108.5t-90 -72.5q75 -47 75 -159q0 -50 -17 -91t-47 -70.5t-71.5 -45.5t-90.5 -16q-39 0 -76.5 10t-68.5 29.5t-51.5 49.5t-25.5 71h76z" />
    <glyph glyph-name="uni0449" unicode="&#x449;" horiz-adv-x="842" 
d="M724 -127h-68l27 127h-649l106 500h70l-92 -434h216l92 434h70l-92 -434h216l92 434h70l-92 -434h75z" />
    <glyph glyph-name="uni0449.aalt" horiz-adv-x="912" 
d="M547 55q60 0 108.5 45.5t67.5 133.5l57 266h70l-84 -394q-5 -23 3 -31.5t28 -8.5h36l-40 -193h-68l26 127h-4q-14 0 -25.5 5t-19.5 14.5t-10.5 22.5t2.5 29v2q-36 -44 -76.5 -63.5t-88.5 -19.5q-51 0 -85 26t-48 70q-24 -39 -71 -67.5t-110 -28.5q-46 0 -78.5 17
t-50.5 46.5t-22.5 69.5t5.5 86l63 291h70l-62 -290q-14 -69 8 -112t75 -43q30 0 58 12t51 34t39.5 54t25.5 71l59 274h70l-62 -290q-14 -69 8 -112t75 -43z" />
    <glyph glyph-name="uniF6D1" unicode="&#xf6d1;" 
d="M170 762q-30 0 -58 10.5t-47.5 30.5t-29 48.5t-1.5 63.5h59q-5 -27 0 -46.5t17 -32t28.5 -18.5t34.5 -6q42 0 70 26.5t39 76.5h60q-11 -71 -57.5 -112t-114.5 -41z" />
    <glyph glyph-name="uni049A" unicode="&#x49a;" horiz-adv-x="683" 
d="M189 343l-73 -343h-75l151 710h75l-66 -311l387 311h109l-429 -344l360 -366h-103zM556 0h-28l16 72h102l-48 -220h-74z" />
    <glyph glyph-name="uni044A.aalt" horiz-adv-x="566" 
d="M240 310h122q37 0 65.5 -12t47.5 -31.5t29 -46t10 -54.5q0 -39 -14.5 -71t-42.5 -55.5t-68.5 -36.5t-92.5 -13h-3q-42 0 -74.5 13.5t-53 37t-27.5 56t1 70.5l57 267h-144l14 66h214zM309 55q60 0 96.5 31t36.5 80q0 36 -24.5 57t-69.5 21h-123l-15 -78q-11 -60 17 -85.5
t82 -25.5z" />
    <glyph glyph-name="uni04C0" unicode="&#x4c0;" horiz-adv-x="276" 
d="M192 710h76l-151 -710h-76z" />
    <glyph glyph-name="uni040E" unicode="&#x40e;" horiz-adv-x="688" 
d="M347 260l337 450h90l-429 -575q-33 -44 -59 -72t-50.5 -45t-49.5 -23.5t-56 -6.5q-23 0 -40 2t-32 6l14 69q12 -2 26 -4t34 -2q34 0 62.5 17.5t59.5 59.5l38 50l-167 524h78zM460 762q-30 0 -58 10.5t-47.5 30.5t-29 48.5t-1.5 63.5h59q-5 -27 0 -46.5t17 -32t28.5 -18.5
t34.5 -6q42 0 70 26.5t39 76.5h60q-11 -71 -57.5 -112t-114.5 -41z" />
    <glyph glyph-name="uni041E" unicode="&#x41e;" horiz-adv-x="834" 
d="M404 60q69 0 127.5 25.5t101.5 70t67.5 104t24.5 127.5q0 57 -17 105t-50 83t-82 55t-113 20q-69 0 -127.5 -25.5t-101.5 -70t-67 -104t-24 -127.5q0 -57 16.5 -105t49.5 -83t82 -55t113 -20zM393 -12q-75 0 -135.5 26t-103 70.5t-65.5 104t-23 126.5q0 84 28 158
t81 129.5t128.5 87.5t170.5 32q75 0 135.5 -26t103 -70.5t65.5 -104t23 -126.5q0 -84 -28.5 -158t-81 -129.5t-128.5 -87.5t-170 -32z" />
    <glyph glyph-name="uni041C" unicode="&#x41c;" horiz-adv-x="888" 
d="M192 710h70l190 -395l358 395h70l-151 -710h-76l119 560l-339 -374l-192 398l-124 -584h-76z" />
    <glyph glyph-name="uni041A" unicode="&#x41a;" horiz-adv-x="661" 
d="M189 343l-73 -343h-75l151 710h75l-66 -311l387 311h109l-429 -344l360 -366h-103z" />
    <glyph glyph-name="glyph549" 
d="M-94 235l14 64h288l-14 -64h-288z" />
    <glyph glyph-name="uni0416" unicode="&#x416;" horiz-adv-x="950" 
d="M523 320l-67 -320h-76l67 319l-396 -319h-115l448 360l-271 350h88l258 -335l71 335h76l-71 -334l382 334h103l-420 -366l301 -344h-96z" />
    <glyph glyph-name="uni0417" unicode="&#x417;" horiz-adv-x="585" 
d="M105 545q11 47 34.5 80.5t55 55t68.5 31.5t74 10q44 0 81.5 -12t65.5 -35t43.5 -56.5t15.5 -76.5q0 -23 -6.5 -48.5t-20.5 -49.5t-36.5 -45.5t-54.5 -35.5q40 -22 63 -63t23 -84q0 -57 -19 -99.5t-52 -71t-77.5 -43t-96.5 -14.5q-50 0 -92.5 13t-75 37.5t-53.5 59.5
t-26 78h77q7 -32 24.5 -54.5t42 -36.5t53 -20t58.5 -6q71 0 116 40.5t45 114.5q0 23 -8.5 45t-26 38.5t-44 26.5t-63.5 10h-80l13 66h84q74 0 116 37.5t42 97.5q0 54 -35 85t-96 31q-48 0 -90 -23t-64 -83h-78z" />
    <glyph glyph-name="uni0414" unicode="&#x414;" horiz-adv-x="752" 
d="M582 0h-537l-31 -148h-72l46 220h14q20 0 39 10.5t37.5 39.5t36.5 79.5t35 131.5l80 377h488l-136 -638h87l-46 -220h-72zM223 318q-22 -102 -43.5 -159t-50.5 -87h377l121 566h-336z" />
    <glyph glyph-name="uni0415" unicode="&#x415;" horiz-adv-x="553" 
d="M192 710h405l-15 -72h-329l-51 -237h269l-15 -72h-269l-55 -257h329l-15 -72h-405z" />
    <glyph glyph-name="uni0412" unicode="&#x412;" horiz-adv-x="633" 
d="M192 710h195q49 0 86 -14.5t62 -38.5t37 -54t12 -61q0 -68 -32.5 -112.5t-87.5 -65.5q45 -16 73 -52.5t28 -91.5q0 -102 -73 -161t-209 -59h-242zM296 69q47 0 83 11.5t61 31t37.5 46.5t12.5 59q0 24 -9 45t-27.5 37t-46 25.5t-64.5 9.5h-155l-56 -265h164zM342 400
q78 0 122.5 37.5t44.5 95.5q0 22 -8 41.5t-24 34.5t-39.5 23.5t-54.5 8.5h-130l-51 -241h140z" />
    <glyph glyph-name="uni0419" unicode="&#x419;" horiz-adv-x="796" 
d="M41 0l151 710h76l-122 -572l575 572h67l-151 -710h-76l121 571l-574 -571h-67zM516 762q-30 0 -58 10.5t-47.5 30.5t-29 48.5t-1.5 63.5h59q-5 -27 0 -46.5t17 -32t28.5 -18.5t34.5 -6q42 0 70 26.5t39 76.5h60q-11 -71 -57.5 -112t-114.5 -41z" />
    <glyph glyph-name="uni04CF" unicode="&#x4cf;" horiz-adv-x="244" 
d="M193 750h70l-159 -750h-70z" />
    <glyph glyph-name="uni0431.aalt" horiz-adv-x="615" 
d="M148 588q0 34 12 63.5t37.5 51.5t66.5 34.5t99 12.5h230l-13 -64h-221q-66 0 -104 -24.5t-38 -73.5q0 -44 32.5 -67t85.5 -23h5q46 0 87 -18.5t72.5 -49t50 -71t18.5 -84.5q0 -69 -21.5 -122t-60 -89t-91 -55t-113.5 -19q-49 0 -92 17t-75.5 47t-51.5 72.5t-19 93.5
q0 43 11.5 82.5t33.5 73t52.5 58.5t69.5 40q-29 16 -46 45.5t-17 68.5zM117 222q0 -41 14.5 -72.5t38.5 -52.5t55 -31.5t64 -10.5q45 0 83 14.5t65.5 42.5t42.5 68.5t15 91.5q0 32 -12.5 61t-35 51.5t-53.5 36t-69 13.5q-46 0 -84 -14.5t-65.5 -42t-43 -67t-15.5 -88.5z" />
    <glyph glyph-name="glyph558" 
d="M114 710l30 148h74l-30 -148h-74z" />
    <glyph glyph-name="uni043E" unicode="&#x43e;" horiz-adv-x="613" 
d="M294 55q43 0 80 16.5t64 44.5t42 65.5t15 80.5t-12.5 77t-36 57.5t-55.5 36t-71 12.5q-44 0 -80.5 -16t-63.5 -44t-42 -65.5t-15 -80.5t12.5 -77t36 -58t55.5 -36.5t71 -12.5zM289 -10q-60 0 -105 20t-75.5 53.5t-46 77.5t-15.5 92q0 56 19 106t55 88t87.5 60.5
t116.5 22.5q60 0 105 -20t75.5 -53t46 -77t15.5 -92q0 -56 -19 -106.5t-55 -88.5t-87.5 -60.5t-116.5 -22.5z" />
    <glyph glyph-name="uni0405" unicode="&#x405;" horiz-adv-x="554" 
d="M261 -12q-55 0 -99 16t-75 43t-48 62t-19 72h76q5 -28 20.5 -50.5t38 -38t51 -24t60.5 -8.5q29 0 55.5 9.5t46 26t31 38t11.5 45.5q0 51 -28.5 82t-80.5 57l-45 23q-29 15 -54.5 32.5t-44.5 40t-30 51t-10 63.5q1 43 17.5 79t45.5 61.5t69 39.5t88 14q54 0 92.5 -17
t64 -44t38 -60t14.5 -64h-76q-7 54 -44.5 83.5t-94.5 29.5q-32 0 -57.5 -9.5t-43.5 -25t-27.5 -36.5t-9.5 -43q1 -47 24 -72.5t63 -46.5l52 -27q74 -38 114 -85.5t40 -117.5q0 -42 -15 -78.5t-44 -63t-70.5 -42t-95.5 -15.5z" />
    <glyph glyph-name="uni043A" unicode="&#x43a;" horiz-adv-x="508" 
d="M152 226l-48 -226h-70l106 500h70l-48 -224l276 224h97l-311 -252l241 -248h-93z" />
    <glyph glyph-name="uni0442.aalt" horiz-adv-x="883" 
d="M140 500h70l-15 -68q31 41 74.5 59.5t85.5 18.5q51 0 85 -26t48 -70q24 39 71 67.5t110 28.5q46 0 78.5 -17t50.5 -46.5t22.5 -69.5t-5.5 -86l-63 -291h-70l62 290q14 69 -8 112t-75 43q-30 0 -58 -12t-51 -34t-39.5 -54t-25.5 -71l-59 -274h-70l62 290q14 69 -8 112
t-75 43q-60 0 -108.5 -45.5t-67.5 -133.5l-57 -266h-70z" />
    <glyph glyph-name="uni043F" unicode="&#x43f;" horiz-adv-x="596" 
d="M140 500h422l-106 -500h-70l92 434h-282l-92 -434h-70z" />
    <glyph glyph-name="uni0496" unicode="&#x496;" horiz-adv-x="972" 
d="M523 320l-67 -320h-76l67 319l-396 -319h-115l448 360l-271 350h88l258 -335l71 335h76l-71 -334l382 334h103l-420 -366l301 -344h-96zM835 0h-28l16 72h102l-48 -220h-74z" />
    <glyph glyph-name="uni040C" unicode="&#x40c;" horiz-adv-x="661" 
d="M189 343l-73 -343h-75l151 710h75l-66 -311l387 311h109l-429 -344l360 -366h-103zM530 927h96l-141 -157h-64z" />
    <glyph glyph-name="uni0491" unicode="&#x491;" horiz-adv-x="406" 
d="M140 500h303l-14 -66h-233l-92 -434h-70zM375 500l27 127h68l-27 -127h-68z" />
    <glyph glyph-name="uni041B.aalt" horiz-adv-x="709" 
d="M416 710h61l166 -710h-73l-140 603l-396 -603h-85z" />
    <glyph glyph-name="uni045B" unicode="&#x45b;" horiz-adv-x="587" 
d="M34 0l125 589h-74l13 63h74l21 98h70l-21 -98h176l-13 -63h-176l-34 -157q35 44 79.5 61t88.5 17q42 0 76 -16t55 -45t28 -69t-3 -89l-63 -291h-70l62 290q16 74 -12.5 114.5t-88.5 40.5q-32 0 -61 -11t-53.5 -33t-43 -56t-28.5 -79l-57 -266h-70z" />
    <glyph glyph-name="uni045C" unicode="&#x45c;" horiz-adv-x="508" 
d="M152 226l-48 -226h-70l106 500h70l-48 -224l276 224h97l-311 -252l241 -248h-93zM454 730h105l-184 -152h-63z" />
    <glyph glyph-name="uni045A" unicode="&#x45a;" horiz-adv-x="838" 
d="M165 289h283l45 211h70l-45 -211h116q37 0 65.5 -10t47.5 -27.5t29 -41.5t10 -52q0 -75 -56.5 -116.5t-164.5 -41.5h-178l47 223h-283l-47 -223h-70l106 500h70zM580 66q62 0 98 22.5t36 69.5q0 33 -24.5 49t-69.5 16h-116l-33 -157h109z" />
    <glyph glyph-name="uni045F" unicode="&#x45f;" horiz-adv-x="603" 
d="M283 0l-27 -127h-68l27 127h-181l106 500h70l-92 -434h289l92 434h70l-106 -500h-180z" />
    <glyph glyph-name="uni045E" unicode="&#x45e;" horiz-adv-x="536" 
d="M178 -97q-22 -33 -41.5 -56t-39.5 -37.5t-42.5 -21.5t-49.5 -7q-33 0 -60 8l13 62q7 -2 17.5 -3.5t25.5 -1.5q28 0 54.5 17t55.5 61l70 105l-120 471h75l98 -393l265 393h83zM356 585q-29 0 -57 10.5t-48 31.5t-30 52t-3 71h58q-5 -29 0 -51t17 -36t30 -21t39 -7
q38 0 66.5 28t39.5 87h58q-10 -80 -55 -122.5t-115 -42.5z" />
    <glyph glyph-name="uni0458" unicode="&#x458;" horiz-adv-x="252" 
d="M-56 -219q-32 0 -54 8l13 64q8 -2 18.5 -4t24.5 -2q30 0 50 17t29 60l122 576h70l-125 -589q-14 -68 -49 -99t-99 -31zM226 650q-23 0 -38.5 15.5t-15.5 37.5t15.5 37.5t38.5 15.5q22 0 37 -15.5t15 -37.5t-15 -37.5t-37 -15.5z" />
    <glyph glyph-name="uni0459" unicode="&#x459;" horiz-adv-x="811" 
d="M164 142q-17 -82 -53 -115t-99 -33q-26 0 -44 5l14 63q15 -4 32 -4q28 0 49.5 22t34.5 81l72 339h366l-45 -211h116q37 0 65.5 -10t47.5 -27.5t29 -41.5t10 -52q0 -75 -56.5 -116.5t-164.5 -41.5h-178l92 434h-226zM553 66q62 0 98 22.5t36 69.5q0 33 -24.5 49t-69.5 16
h-116l-33 -157h109z" />
    <glyph glyph-name="uni0452" unicode="&#x452;" horiz-adv-x="587" 
d="M448 290q16 74 -12.5 114.5t-88.5 40.5q-32 0 -61 -11t-53.5 -33t-43 -56t-28.5 -79l-57 -266h-70l125 589h-74l13 63h74l21 98h70l-21 -98h176l-13 -63h-176l-34 -157q35 44 79.5 61t88.5 17q42 0 76 -16t55 -45t28 -69t-3 -89l-82 -380q-14 -68 -49 -99t-99 -31
q-32 0 -54 8l13 64q8 -2 18.5 -4t24.5 -2q30 0 50 17t29 60z" />
    <glyph glyph-name="uni0453" unicode="&#x453;" horiz-adv-x="406" 
d="M140 500h303l-14 -66h-233l-92 -434h-70zM424 730h105l-184 -152h-63z" />
    <glyph glyph-name="uni0456" unicode="&#x456;" horiz-adv-x="245" 
d="M219 650q-23 0 -38.5 15.5t-15.5 37.5t15.5 37.5t38.5 15.5q22 0 37 -15.5t15 -37.5t-15 -37.5t-37 -15.5zM140 500h70l-106 -500h-70z" />
    <glyph glyph-name="uni0457" unicode="&#x457;" horiz-adv-x="244" 
d="M140 500h70l-106 -500h-70zM109 602q-23 0 -39.5 16.5t-16.5 39.5t16.5 39t39.5 16t39.5 -16t16.5 -39t-16.5 -39.5t-39.5 -16.5zM307 602q-23 0 -39.5 16.5t-16.5 39.5t16.5 39t39.5 16t39.5 -16t16.5 -39t-16.5 -39.5t-39.5 -16.5z" />
    <glyph glyph-name="uni0454" unicode="&#x454;" horiz-adv-x="596" 
d="M289 -10q-60 0 -105 20t-75.5 53.5t-46 77.5t-15.5 92q0 56 19 106t55 88t87.5 60.5t116.5 22.5q49 0 89 -14t70 -38.5t49.5 -57.5t28.5 -71h-76q-17 56 -60.5 86t-105.5 30q-37 0 -69.5 -12t-58 -33t-43.5 -50t-25 -63h258l-14 -66h-249q5 -78 53 -122t122 -44
q63 0 110.5 32t70.5 84h76q-13 -39 -36.5 -72t-57 -57.5t-75.5 -38t-93 -13.5z" />
    <glyph glyph-name="uni0455" unicode="&#x455;" horiz-adv-x="446" 
d="M199 -10q-40 0 -73.5 11t-58 31t-38.5 47.5t-15 61.5h70q5 -44 38 -66t81 -22q20 0 39 6t33.5 16.5t23.5 24.5t9 30q0 32 -19 52.5t-59 36.5l-42 17q-44 17 -74 49.5t-30 84.5q0 33 12.5 59t34.5 44t52 27.5t65 9.5q39 0 69.5 -12.5t52 -32.5t33 -44.5t13.5 -49.5h-69
q-7 32 -32 54.5t-70 22.5q-18 0 -34 -5t-29 -14t-20.5 -22t-7.5 -29q0 -31 15 -48.5t48 -31.5l44 -18q24 -10 45 -22t37 -28.5t25.5 -39t9.5 -52.5q0 -66 -48 -107t-131 -41z" />
    <glyph glyph-name="uni0429" unicode="&#x429;" horiz-adv-x="1018" 
d="M847 0h-806l151 710h76l-136 -638h282l136 638h76l-136 -638h282l136 638h76l-136 -638h88l-46 -220h-74z" />
    <glyph glyph-name="uni0428" unicode="&#x428;" horiz-adv-x="992" 
d="M192 710h76l-136 -638h282l136 638h76l-136 -638h282l136 638h76l-151 -710h-792z" />
    <glyph glyph-name="uni0427" unicode="&#x427;" horiz-adv-x="684" 
d="M449 0l80 374q-35 -50 -92 -77t-129 -27q-53 0 -98 16.5t-74.5 49t-41 81t2.5 113.5l38 180h76l-39 -180q-11 -53 -3.5 -89.5t29 -58.5t53.5 -31.5t70 -9.5q40 0 79.5 14.5t73.5 42.5t59 69t36 94l31 149h76l-151 -710h-76z" />
    <glyph glyph-name="uni0426" unicode="&#x426;" horiz-adv-x="760" 
d="M678 72l-46 -220h-74l31 148h-548l151 710h76l-136 -638h382l136 638h76l-136 -638h88z" />
    <glyph glyph-name="uni0425" unicode="&#x425;" horiz-adv-x="656" 
d="M-47 0l347 360l-200 350h84l168 -295l284 295h97l-345 -359l203 -351h-84l-171 298l-284 -298h-99z" />
    <glyph glyph-name="uni0424" unicode="&#x424;" horiz-adv-x="862" 
d="M424 65l-20 -95h-75l20 95q-69 1 -122 23t-90 58.5t-56 85.5t-19 103q0 74 27 133t74 99.5t111.5 62t139.5 21.5h58l19 89h75l-19 -89q67 -2 120.5 -24t90 -58.5t56 -85t19.5 -102.5q0 -74 -27 -133t-75 -99.5t-112.5 -62t-139.5 -21.5h-55zM140 335q0 -44 15.5 -80.5
t44.5 -62.5t70.5 -41t92.5 -16l94 446h-52q-53 0 -101 -16.5t-84.5 -48t-58 -77.5t-21.5 -104zM490 135q52 0 100 16.5t84.5 48t58.5 77t22 104.5q0 43 -16 79.5t-45 63t-70 41.5t-92 16l-94 -446h52z" />
    <glyph glyph-name="uni0423" unicode="&#x423;" horiz-adv-x="688" 
d="M347 260l337 450h90l-429 -575q-33 -44 -59 -72t-50.5 -45t-49.5 -23.5t-56 -6.5q-23 0 -40 2t-32 6l14 69q12 -2 26 -4t34 -2q34 0 62.5 17.5t59.5 59.5l38 50l-167 524h78z" />
    <glyph glyph-name="uni0422" unicode="&#x422;" horiz-adv-x="565" 
d="M321 638h-230l15 72h535l-15 -72h-230l-136 -638h-75z" />
    <glyph glyph-name="uni0421" unicode="&#x421;" horiz-adv-x="794" 
d="M396 -12q-75 0 -136 26t-104.5 70.5t-67 104t-23.5 126.5q0 84 28.5 158t81.5 129.5t128 87.5t169 32q61 0 113.5 -19t93 -52t67 -77.5t37.5 -95.5h-80q-10 37 -30.5 68.5t-51.5 54.5t-70.5 36t-86.5 13q-69 0 -128 -25.5t-102 -70t-67.5 -104t-24.5 -127.5
q0 -57 17.5 -105t51 -83t83 -55t113.5 -20q93 0 162.5 47t109.5 125h80q-21 -54 -54.5 -99t-79 -77t-103 -50t-126.5 -18z" />
    <glyph glyph-name="uni0420" unicode="&#x420;" horiz-adv-x="586" 
d="M192 710h196q53 0 92 -16t65 -43t39 -62.5t13 -74.5q0 -52 -19 -97t-56 -78.5t-91.5 -52.5t-124.5 -19h-132l-57 -267h-76zM322 336q46 0 83 14t63 38t40 56.5t14 68.5q0 25 -8 48t-25.5 40.5t-44 27.5t-62.5 10h-129l-65 -303h134z" />
    <glyph glyph-name="uni0430" unicode="&#x430;" horiz-adv-x="636" 
d="M265 -10q-45 0 -85 15t-70 44.5t-48 72t-18 96.5q0 60 20.5 113t59 92.5t92 63t119.5 23.5q33 0 61.5 -9t51 -23.5t39 -33.5t25.5 -39l20 95h70l-106 -500h-70l16 69q-13 -18 -33 -33t-43.5 -25t-49.5 -15.5t-51 -5.5zM274 55q43 0 82.5 16t69 45t47 70t17.5 91
q0 42 -12 73.5t-33 52.5t-50 31.5t-63 10.5q-44 0 -83 -16t-68.5 -45t-47 -70t-17.5 -91q0 -42 12 -73.5t33 -52.5t50 -31.5t63 -10.5z" />
    <glyph glyph-name="uni0431" unicode="&#x431;" horiz-adv-x="635" 
d="M298 -11q-59 0 -107.5 23t-80.5 63.5t-44 97t2 122.5l12 57q19 89 48.5 155t73.5 112t103.5 72.5t139.5 37.5l186 25l-13 -66l-171 -23q-61 -8 -105 -26.5t-76.5 -48t-56.5 -70.5t-43 -94q33 38 81.5 57.5t105.5 19.5q49 0 92 -15.5t75 -45.5t51 -73.5t19 -99.5
q0 -54 -20 -104.5t-57.5 -89.5t-92 -62.5t-122.5 -23.5zM339 438q-45 0 -83 -16.5t-66 -45.5t-43.5 -68.5t-15.5 -85.5q0 -40 13.5 -71.5t37 -53t54.5 -32.5t66 -11q45 0 84.5 15.5t68.5 43.5t46 66.5t17 85.5t-15 80t-39.5 53.5t-57 30t-67.5 9.5z" />
    <glyph glyph-name="uni042F" unicode="&#x42f;" horiz-adv-x="629" 
d="M394 0l63 303h-108l-306 -303h-103l325 319q-65 20 -98.5 65.5t-33.5 102.5q0 52 20 93.5t57 70.5t89.5 44t118.5 15h202l-150 -710h-76zM404 639q-94 0 -145 -40.5t-51 -106.5q0 -51 34.5 -84.5t105.5 -33.5h125l56 265h-125z" />
    </font>
</defs>
</svg>
