<?xml version="1.0" standalone="no"?>
<!DOCTYPE svg PUBLIC "-//W3C//DTD SVG 1.1//EN" "http://www.w3.org/Graphics/SVG/1.1/DTD/svg11.dtd" >
<svg xmlns="http://www.w3.org/2000/svg" xmlns:xlink="http://www.w3.org/1999/xlink" version="1.1">
<metadata>
Created by Christoph Koeberlin (http://christoph.koe.berlin)
Copyright (c) 2018 Swiss Typefaces Sarl. All rights reserved.
</metadata>
<defs>
<font id="Font" horiz-adv-x="0" >
  <font-face 
    font-family="Font"
    font-weight="500"
    font-stretch="normal"
    units-per-em="1000"
    panose-1="2 11 6 4 0 0 0 0 0 0"
    ascent="800"
    descent="-200"
    x-height="500"
    cap-height="710"
    bbox="-366 -287 1377 1000"
    underline-thickness="90"
    underline-position="-178"
    unicode-range="U+0020-FEFF"
  />
<missing-glyph horiz-adv-x="664" 
d="M82 710h500v-710h-500v710zM101 682v-654l220 327zM563 28v654l-221 -327zM116 691l216 -321l216 321h-432zM116 19h432l-216 320z" />
    <glyph glyph-name="uni0407_uni0407.liga" unicode="&#x407;&#x407;" horiz-adv-x="583" 
d="M87 710h117v-710h-117v710zM378 710h117v-710h-117v710zM26 779q-28 0 -47.5 19.5t-19.5 46.5q0 28 19.5 47.5t47.5 19.5q27 0 46.5 -19.5t19.5 -47.5q0 -27 -19.5 -46.5t-46.5 -19.5zM288 779q-28 0 -47.5 19.5t-19.5 46.5q0 28 19.5 47.5t47.5 19.5q27 0 46.5 -19.5
t19.5 -47.5q0 -27 -19.5 -46.5t-46.5 -19.5zM550 779q-28 0 -47.5 19.5t-19.5 46.5q0 28 19.5 47.5t47.5 19.5q27 0 46.5 -19.5t19.5 -47.5q0 -27 -19.5 -46.5t-46.5 -19.5z" />
    <glyph glyph-name="uni0457_uni0457.liga" unicode="&#x457;&#x457;" horiz-adv-x="517" 
d="M74 0v500h110v-500h-110zM332 0v500h110v-500h-110zM42 587q-28 0 -47.5 20t-19.5 48t19.5 47.5t47.5 19.5t48 -19.5t20 -47.5t-20 -48t-48 -20zM257 587q-28 0 -47.5 20t-19.5 48t19.5 47.5t47.5 19.5q29 0 48.5 -19.5t19.5 -47.5t-19.5 -48t-48.5 -20zM474 587
q-29 0 -48.5 20t-19.5 48t19.5 47.5t48.5 19.5q28 0 47.5 -19.5t19.5 -47.5t-19.5 -48t-47.5 -20z" />
    <glyph glyph-name="uni0457_uni0458.liga" unicode="&#x457;&#x458;" horiz-adv-x="517" 
d="M74 0v500h110v-500h-110zM42 587q-28 0 -47.5 20t-19.5 48t19.5 47.5t47.5 19.5t48 -19.5t20 -47.5t-20 -48t-48 -20zM257 587q-28 0 -47.5 20t-19.5 48t19.5 47.5t47.5 19.5q29 0 48.5 -19.5t19.5 -47.5t-19.5 -48t-48.5 -20zM474 587q-29 0 -48.5 20t-19.5 48
t19.5 47.5t48.5 19.5q28 0 47.5 -19.5t19.5 -47.5t-19.5 -48t-47.5 -20zM442 -53q0 -42 -13 -73t-36 -52t-53.5 -31t-64.5 -10q-29 0 -48 3v96q5 -1 12 -1.5t15 -0.5q37 0 57.5 19t20.5 66v537h110v-553z" />
    <glyph glyph-name="f_f.liga" unicode="ff" horiz-adv-x="750" 
d="M121 402h-104v98h104v90q0 42 13 73t36.5 52t54.5 31t67 10q26 0 46 -3.5t36 -8.5v-98q-8 5 -25.5 7.5t-33.5 2.5q-43 0 -63.5 -19t-20.5 -66v-71h117v-98h-117v-402h-110v402zM483 402h-83v98h83v90q0 42 13 73t36.5 52t54.5 31t67 10q26 0 45.5 -3.5t36.5 -8.5v-98
q-12 5 -27.5 7.5t-31.5 2.5q-43 0 -63.5 -19t-20.5 -66v-71h143v-98h-143v-402h-110v402z" />
    <glyph glyph-name="f_i.liga" unicode="fi" horiz-adv-x="646" 
d="M121 402h-104v98h104v84q0 42 13 74t36.5 54t54.5 33t67 11q26 0 46 -3.5t36 -8.5v-98q-12 5 -27.5 7.5t-31.5 2.5q-43 0 -63.5 -19t-20.5 -66v-71h143v-98h-143v-402h-110v402zM517 609q-30 0 -52 21.5t-22 52.5q0 30 22 51.5t52 21.5q31 0 52 -21.5t21 -51.5
q0 -31 -21 -52.5t-52 -21.5zM462 500h110v-500h-110v500z" />
    <glyph glyph-name="f_f_i.liga" unicode="ffi" horiz-adv-x="1009" 
d="M879 609q-30 0 -52 21.5t-22 52.5q0 30 22 51.5t52 21.5q31 0 52 -21.5t21 -51.5q0 -31 -21 -52.5t-52 -21.5zM824 500h110v-500h-110v500zM121 402h-104v98h104v90q0 42 13 73t36.5 52t54.5 31t67 10q26 0 46 -3.5t36 -8.5v-98q-8 5 -25.5 7.5t-33.5 2.5
q-43 0 -63.5 -19t-20.5 -66v-71h117v-98h-117v-402h-110v402zM483 402h-83v98h83v90q0 42 13 73t36.5 52t54.5 31t67 10q26 0 45.5 -3.5t36.5 -8.5v-98q-12 5 -27.5 7.5t-31.5 2.5q-43 0 -63.5 -19t-20.5 -66v-71h143v-98h-143v-402h-110v402z" />
    <glyph glyph-name="f_l.liga" unicode="fl" horiz-adv-x="646" 
d="M121 402h-104v98h104v84q0 42 13 74t36.5 54t54.5 33t67 11q26 0 46 -3.5t36 -8.5v-98q-12 5 -27.5 7.5t-31.5 2.5q-43 0 -63.5 -19t-20.5 -66v-71h143v-98h-143v-402h-110v402zM462 750h110v-750h-110v750z" />
    <glyph glyph-name="f_f_l.liga" unicode="ffl" horiz-adv-x="1008" 
d="M824 750h110v-750h-110v750zM121 402h-104v98h104v90q0 42 13 73t36.5 52t54.5 31t67 10q26 0 46 -3.5t36 -8.5v-98q-8 5 -25.5 7.5t-33.5 2.5q-43 0 -63.5 -19t-20.5 -66v-71h117v-98h-117v-402h-110v402zM483 402h-83v98h83v90q0 42 13 73t36.5 52t54.5 31t67 10
q26 0 45.5 -3.5t36.5 -8.5v-98q-12 5 -27.5 7.5t-31.5 2.5q-43 0 -63.5 -19t-20.5 -66v-71h143v-98h-143v-402h-110v402z" />
    <glyph glyph-name="f_t.liga" unicode="ft" horiz-adv-x="777" 
d="M121 402h-104v98h104v90q0 42 13 73t36.5 52t54.5 31t67 10q26 0 46 -3.5t36 -8.5v-98q-12 5 -27.5 7.5t-31.5 2.5q-43 0 -63.5 -19t-20.5 -66v-71h125v-98h-125v-402h-110v402zM664 -5q-36 0 -67 10t-54 30.5t-36.5 52t-13.5 73.5v241h-85v98h85v139h110v-139h143v-98
h-143v-223q0 -47 21 -65.5t63 -18.5q35 0 59 9v-98q-17 -5 -36.5 -8t-45.5 -3z" />
    <glyph glyph-name="t_t.liga" unicode="tt" horiz-adv-x="775" 
d="M663 -5q-36 0 -67 10t-54.5 30.5t-36.5 52t-13 73.5v241h-88v98h88v139h110v-139h143v-98h-143v-223q0 -47 20.5 -65.5t63.5 -18.5q16 0 31.5 2t27.5 7v-98q-17 -5 -36.5 -8t-45.5 -3zM291 -5q-36 0 -67 10t-54.5 30.5t-36.5 52t-13 73.5v241h-104v98h104v139h110v-139
h121v-98h-121v-223q0 -47 20.5 -65.5t63.5 -18.5q16 0 31.5 2t27.5 7v-98q-17 -5 -36.5 -8t-45.5 -3z" />
    <glyph glyph-name=".notdef" horiz-adv-x="664" 
d="M82 710h500v-710h-500v710zM101 682v-654l220 327zM563 28v654l-221 -327zM116 691l216 -321l216 321h-432zM116 19h432l-216 320z" />
    <glyph glyph-name="glyph1" 
 />
    <glyph glyph-name="glyph2" horiz-adv-x="235" 
 />
    <glyph glyph-name="space" unicode=" " horiz-adv-x="235" 
 />
    <glyph glyph-name="exclam" unicode="!" horiz-adv-x="279" 
d="M84 434v276h111v-276l-22 -196h-68zM139 -8q-18 0 -33.5 7t-27 18.5t-18.5 27.5t-7 34t7 33.5t18.5 27.5t27 19t33.5 7t34 -7t27.5 -19t18.5 -27.5t7 -33.5q0 -36 -25.5 -61.5t-61.5 -25.5z" />
    <glyph glyph-name="quotedbl" unicode="&#x22;" horiz-adv-x="423" 
d="M63 710h95v-266h-95v266zM265 710h95v-266h-95v266z" />
    <glyph glyph-name="numbersign" unicode="#" horiz-adv-x="732" 
d="M396 193h-163l-60 -193h-97l60 193h-103v88h131l47 152h-105v88h133l59 189h97l-59 -189h162l59 189h97l-59 -189h104v-88h-131l-48 -152h107v-88h-135l-60 -193h-96zM261 281h163l47 152h-162z" />
    <glyph glyph-name="dollar" unicode="$" horiz-adv-x="528" 
d="M239 -8q-41 4 -76 20t-61.5 42.5t-42 63.5t-16.5 85h110q5 -46 28 -70.5t58 -32.5v212l-34 13q-77 29 -118.5 79.5t-41.5 125.5q0 42 14.5 76.5t40 59t61 38.5t78.5 17v77h54v-79q37 -5 69.5 -20.5t56.5 -40t38 -56.5t14 -70h-110q-5 30 -22.5 50.5t-45.5 28.5v-198
l30 -12q79 -31 122.5 -81.5t43.5 -132.5q0 -92 -54 -141.5t-142 -54.5v-79h-54v80zM379 184q0 38 -22 62.5t-64 43.5v-193q36 5 61 27.5t25 59.5zM155 531q0 -34 20.5 -56.5t63.5 -40.5v181q-38 -5 -61 -28t-23 -56z" />
    <glyph glyph-name="percent" unicode="%" horiz-adv-x="986" 
d="M210 0l450 710h116l-450 -710h-116zM759 -8q-41 0 -77 15.5t-62.5 42.5t-42 62.5t-15.5 76.5t15.5 77t42 62.5t62.5 42t77 15.5q40 0 76 -15.5t63 -42t42.5 -62.5t15.5 -77t-15.5 -76.5t-42.5 -62.5t-63 -42.5t-76 -15.5zM759 88q21 0 39 8t31.5 22t21 32t7.5 39t-7.5 39
t-21 32t-31.5 22t-39 8t-39.5 -8t-32 -22t-21.5 -32t-8 -39t8 -39t21.5 -32t32 -22t39.5 -8zM227 324q-41 0 -77 15.5t-62.5 42.5t-42 62.5t-15.5 76.5t15.5 77t42 62.5t62.5 42t77 15.5q40 0 76 -15.5t63 -42t42.5 -62.5t15.5 -77t-15.5 -76.5t-42.5 -62.5t-63 -42.5
t-76 -15.5zM227 420q21 0 39 8t31.5 22t21.5 32t8 39t-8 39t-21.5 32t-31.5 22t-39 8t-39.5 -8t-32 -22t-21 -32t-7.5 -39t7.5 -39t21 -32t32 -22t39.5 -8z" />
    <glyph glyph-name="ampersand" unicode="&#x26;" horiz-adv-x="757" 
d="M291 -10q-53 0 -95 16t-71 44t-44.5 65.5t-15.5 81.5q0 37 11.5 67t31 54t45 43t53.5 36q-31 31 -56 69t-25 87q0 36 14.5 66.5t40 53.5t60 36t75.5 13q42 0 76.5 -14t58.5 -37.5t37.5 -54t13.5 -64.5q0 -33 -10.5 -58.5t-28.5 -46.5t-41.5 -37.5t-49.5 -30.5l135 -132
l76 95h130l-134 -164l184 -178h-145l-104 101q-54 -57 -105.5 -84t-116.5 -27zM292 88q40 0 75.5 19.5t74.5 61.5l-164 159q-54 -29 -79 -61t-25 -72q0 -27 10.5 -47t27 -33.5t37.5 -20t43 -6.5zM231 552q0 -16 5.5 -29t15 -26t23 -25.5t28.5 -27.5l3 2q39 20 62.5 41.5
t23.5 58.5q0 36 -22 59t-57 23q-33 0 -57.5 -20.5t-24.5 -55.5z" />
    <glyph glyph-name="quotesingle" unicode="'" horiz-adv-x="221" 
d="M63 710h95v-266h-95v266z" />
    <glyph glyph-name="parenleft" unicode="(" horiz-adv-x="286" 
d="M171 -160q-128 232 -128 480t128 480h89q-64 -124 -92.5 -240.5t-28.5 -239.5t28.5 -239.5t92.5 -240.5h-89z" />
    <glyph glyph-name="parenright" unicode=")" horiz-adv-x="286" 
d="M26 -160q64 124 92.5 240.5t28.5 239.5t-28.5 239.5t-92.5 240.5h89q128 -232 128 -480t-128 -480h-89z" />
    <glyph glyph-name="asterisk" unicode="*" horiz-adv-x="465" 
d="M86 386l81 111l-131 44l23 77l133 -43v135h80v-135l133 43l24 -77l-132 -43l82 -112l-64 -46l-82 111l-83 -111z" />
    <glyph glyph-name="plus" unicode="+" horiz-adv-x="496" 
d="M37 338h162v162h98v-162h162v-97h-162v-162h-98v162h-162v97z" />
    <glyph glyph-name="comma" unicode="," horiz-adv-x="268" 
d="M96 -147h-68l69 147q-20 9 -34.5 30t-14.5 49q0 18 6.5 33.5t18.5 27.5t27.5 19t33.5 7t33.5 -7t27.5 -19t18.5 -27.5t6.5 -33.5q0 -15 -4.5 -28.5t-12.5 -25.5z" />
    <glyph glyph-name="hyphen" unicode="-" horiz-adv-x="392" 
d="M62 334h269v-108h-269v108z" />
    <glyph glyph-name="period" unicode="." horiz-adv-x="265" 
d="M132 -8q-18 0 -33.5 7t-27 18.5t-18.5 27.5t-7 34t7 33.5t18.5 27.5t27 19t33.5 7t34 -7t27.5 -19t18.5 -27.5t7 -33.5q0 -36 -25.5 -61.5t-61.5 -25.5z" />
    <glyph glyph-name="slash" unicode="/" horiz-adv-x="526" 
d="M406 710h101l-386 -820h-101z" />
    <glyph glyph-name="zero" unicode="0" horiz-adv-x="626" 
d="M313 -10q-56 0 -103.5 20t-81.5 56.5t-53 86.5t-19 110v186q0 60 19 110t53 86.5t81.5 56.5t103.5 20q57 0 104 -20t81.5 -56.5t53.5 -86.5t19 -110v-186q0 -60 -19 -110t-53.5 -86.5t-81.5 -56.5t-104 -20zM313 98q66 0 107 43.5t41 121.5v186q0 78 -41 121.5t-107 43.5
q-65 0 -106 -43.5t-41 -121.5v-186q0 -78 41 -121.5t106 -43.5z" />
    <glyph glyph-name="one" unicode="1" horiz-adv-x="346" 
d="M148 601h-143l84 109h169v-710h-110v601z" />
    <glyph glyph-name="two" unicode="2" horiz-adv-x="565" 
d="M516 0h-470v40q0 58 22 102t55.5 78.5t75 63t80.5 57.5q27 20 49 38t37.5 37.5t24 41t8.5 48.5q0 48 -30 78t-83 30q-54 0 -90.5 -32t-37.5 -89h-111q0 51 18.5 93.5t51 72.5t76 46.5t94.5 16.5q45 0 85 -13.5t71 -40t49 -66.5t18 -93q0 -42 -10 -76t-29.5 -63t-49 -55.5
t-68.5 -54.5q-24 -18 -49.5 -35t-48 -35t-39.5 -38t-24 -44h325v-108z" />
    <glyph glyph-name="three" unicode="3" horiz-adv-x="584" 
d="M298 -10q-52 0 -98.5 16.5t-81.5 46.5t-56 73t-22 97h110q2 -29 14.5 -52.5t32 -39.5t45.5 -24.5t56 -8.5q54 0 90 28.5t37 80.5q0 57 -37.5 85t-99.5 28h-56v94h56q53 0 84.5 28t32.5 73q0 22 -8.5 40.5t-23.5 31.5t-35.5 20t-43.5 7q-55 0 -92.5 -32t-37.5 -89h-111
q0 54 19.5 96.5t53 72t77 45t91.5 15.5q49 0 90.5 -15t70.5 -41.5t45 -63.5t16 -80q0 -52 -26 -92.5t-61 -61.5q47 -20 77 -63.5t30 -104.5q0 -47 -17.5 -85.5t-49 -66.5t-75 -43t-96.5 -15z" />
    <glyph glyph-name="four" unicode="4" horiz-adv-x="626" 
d="M384 178h-367v89l379 443h98v-430h95v-102h-95v-178h-110v178zM384 280v266l-229 -266h229z" />
    <glyph glyph-name="five" unicode="5" horiz-adv-x="563" 
d="M279 -10q-48 0 -92 16t-77.5 44t-54 66.5t-21.5 82.5h113q11 -44 47 -72.5t85 -28.5q30 0 54.5 10.5t42 28.5t27 42t9.5 51q0 28 -9.5 52t-27 42t-41.5 28t-52 10q-44 0 -75.5 -20t-48.5 -53l-99 31l76 390h338v-107h-252l-33 -170q20 14 48 22.5t63 8.5q51 0 92 -18.5
t70.5 -51t45.5 -77.5t16 -98q0 -50 -18 -92t-50.5 -72.5t-77 -47.5t-98.5 -17z" />
    <glyph glyph-name="six" unicode="6" horiz-adv-x="564" 
d="M279 -10q-54 0 -98.5 18.5t-77 50.5t-50 76t-17.5 94q0 27 6 50.5t16.5 45.5t25 43.5t32.5 44.5l237 297h138l-200 -252h11q42 0 82 -17t70.5 -47t49.5 -72t19 -92q0 -51 -17.5 -94.5t-50 -76t-77.5 -51t-99 -18.5zM279 96q28 0 52.5 10.5t42.5 28.5t28 42t10 52
q0 27 -10 51.5t-28 42.5t-42.5 28.5t-52.5 10.5q-29 0 -53 -10.5t-41.5 -28.5t-27.5 -42.5t-10 -51.5q0 -28 10 -52t27.5 -42t41.5 -28.5t53 -10.5z" />
    <glyph glyph-name="seven" unicode="7" horiz-adv-x="525" 
d="M54 0l326 603h-349v107h480v-94l-333 -616h-124z" />
    <glyph glyph-name="eight" unicode="8" horiz-adv-x="579" 
d="M289 -10q-53 0 -97.5 16.5t-77 46.5t-51 71.5t-18.5 90.5q0 62 26.5 107.5t74.5 71.5q-32 25 -49 61t-17 80q0 40 15.5 74.5t43 59.5t66 39t84.5 14q47 0 85.5 -14t66.5 -39t43 -59.5t15 -74.5q0 -44 -17 -80t-49 -61q48 -26 74.5 -71.5t26.5 -107.5q0 -49 -18 -90.5
t-50.5 -71.5t-77.5 -46.5t-99 -16.5zM289 93q31 0 56 10t42 27t26 39.5t9 47.5t-9 48t-26 39.5t-41.5 26.5t-55.5 10t-55.5 -10t-42 -26.5t-26.5 -39.5t-9 -48t9 -47.5t26.5 -39.5t42 -27t54.5 -10zM289 434q47 0 75 28t28 66q0 40 -27.5 67t-75.5 27q-45 0 -73.5 -27
t-28.5 -67q0 -19 7.5 -36t21 -30t32 -20.5t41.5 -7.5z" />
    <glyph glyph-name="nine" unicode="9" horiz-adv-x="564" 
d="M274 254h-11q-42 0 -82 17t-71 47t-50 72t-19 92t18 94t50 76.5t77 51t99 18.5t99 -18.5t77 -51t50 -76t18 -93.5q0 -28 -6 -51.5t-16.5 -45.5t-25.5 -43.5t-33 -44.5l-238 -298h-138zM285 349q28 0 52.5 10.5t42 28.5t27.5 42.5t10 52.5q0 27 -10 51.5t-27.5 42.5
t-42 28.5t-52.5 10.5q-29 0 -53 -10.5t-41.5 -28.5t-27.5 -42.5t-10 -51.5q0 -28 10 -52.5t27.5 -42.5t41.5 -28.5t53 -10.5z" />
    <glyph glyph-name="colon" unicode=":" horiz-adv-x="286" 
d="M143 338q-18 0 -33.5 7t-27 18.5t-18.5 27.5t-7 34t7 33.5t18.5 27.5t27 19t33.5 7t34 -7t27.5 -19t18.5 -27.5t7 -33.5q0 -36 -25.5 -61.5t-61.5 -25.5zM143 -8q-18 0 -33.5 7t-27 18.5t-18.5 27.5t-7 34t7 33.5t18.5 27.5t27 19t33.5 7t34 -7t27.5 -19t18.5 -27.5
t7 -33.5q0 -36 -25.5 -61.5t-61.5 -25.5z" />
    <glyph glyph-name="semicolon" unicode=";" horiz-adv-x="293" 
d="M110 -147h-68l69 147q-20 9 -34.5 30t-14.5 49q0 18 6.5 33.5t18.5 27.5t27.5 19t33.5 7t33.5 -7t27.5 -19t18.5 -27.5t6.5 -33.5q0 -15 -4.5 -28.5t-12.5 -25.5zM147 338q-18 0 -33.5 7t-27 18.5t-18.5 27.5t-7 34t7 33.5t18.5 27.5t27 19t33.5 7t34 -7t27.5 -19
t18.5 -27.5t7 -33.5q0 -36 -25.5 -61.5t-61.5 -25.5z" />
    <glyph glyph-name="less" unicode="&#x3c;" horiz-adv-x="451" 
d="M167 290l253 -253h-138l-253 253l253 253h138z" />
    <glyph glyph-name="equal" unicode="=" horiz-adv-x="551" 
d="M65 231h422v-96h-422v96zM65 445h422v-97h-422v97z" />
    <glyph glyph-name="greater" unicode="&#x3e;" horiz-adv-x="451" 
d="M31 543h138l253 -253l-253 -253h-138l253 253z" />
    <glyph glyph-name="question" unicode="?" horiz-adv-x="512" 
d="M179 265q0 42 27.5 75t61.5 57q19 14 35.5 26t29 25.5t19.5 29t7 36.5q0 44 -29 72t-74 28q-48 0 -81.5 -30.5t-33.5 -81.5h-110q0 45 17 85t47.5 70t71.5 47.5t89 17.5t87.5 -16.5t67 -45t43 -65.5t15.5 -77q0 -62 -28 -103.5t-70 -73.5q-16 -12 -31 -23t-26 -22
t-18 -22t-7 -23v-5h-110v19zM233 -8q-18 0 -33.5 7t-27 18.5t-18.5 27.5t-7 34t7 33.5t18.5 27.5t27 19t33.5 7t34 -7t27.5 -19t18.5 -27.5t7 -33.5q0 -36 -25.5 -61.5t-61.5 -25.5z" />
    <glyph glyph-name="at" unicode="@" horiz-adv-x="808" 
d="M393 -10q-81 0 -145.5 27t-110 74t-69.5 110.5t-24 135.5q0 85 32 156t85.5 122t123.5 79t147 28q73 0 135.5 -22.5t108.5 -63.5t72 -99.5t26 -130.5q0 -65 -15 -112t-40 -77t-57.5 -44.5t-68.5 -14.5q-42 0 -68 17t-38 39q-20 -25 -54 -39.5t-72 -14.5q-34 0 -62.5 12.5
t-49 35t-32 54.5t-11.5 70q0 46 16 86t43 69.5t63.5 46.5t78.5 17q44 0 72 -20.5t39 -45.5l10 56h87l-48 -230q-3 -17 -3.5 -31t3 -25t12.5 -17t25 -6q43 0 68.5 42t25.5 134q0 57 -21 102.5t-57 76.5t-84.5 47.5t-104.5 16.5q-61 0 -117 -21.5t-99 -62t-68.5 -99
t-25.5 -131.5q0 -61 19 -112t54 -87.5t85.5 -57t113.5 -20.5q45 0 92.5 9t88.5 29v-77q-44 -16 -91.5 -23.5t-89.5 -7.5zM377 239q45 0 76 29t39 74q5 27 1.5 51t-14 41t-28 27t-39.5 10q-45 0 -76 -29t-39 -74q-5 -27 -1.5 -51t14 -41t27.5 -27t40 -10z" />
    <glyph glyph-name="A" unicode="A" horiz-adv-x="730" 
d="M314 710h102l310 -710h-122l-81 186h-318l-80 -186h-121zM250 290h228l-114 262z" />
    <glyph glyph-name="B" unicode="B" horiz-adv-x="631" 
d="M87 710h245q48 0 87 -15.5t66.5 -42.5t43 -62.5t15.5 -75.5q0 -48 -18.5 -81.5t-47.5 -55.5q49 -20 81.5 -61.5t32.5 -107.5q0 -44 -17 -82t-47 -66t-72 -44t-93 -16h-276v710zM360 107q57 0 87.5 28.5t30.5 73.5q0 44 -30.5 73t-87.5 29h-156v-204h156zM326 411
q48 0 75.5 27.5t27.5 68.5q0 39 -27.5 67.5t-75.5 28.5h-122v-192h122z" />
    <glyph glyph-name="C" unicode="C" horiz-adv-x="785" 
d="M412 -12q-79 0 -147 28t-117.5 77.5t-77.5 116.5t-28 145t28 145t77.5 116.5t117.5 77.5t147 28q64 0 120.5 -19.5t101.5 -53.5t76 -79.5t44 -97.5h-126q-11 30 -32 55.5t-49.5 43.5t-63 28t-71.5 10q-56 0 -102 -19.5t-79.5 -54t-52 -80.5t-18.5 -100t18.5 -100
t52 -80.5t79.5 -54t102 -19.5q37 0 71.5 10t63 28t49.5 43.5t32 55.5h126q-13 -52 -44 -97.5t-76 -79.5t-101.5 -53.5t-120.5 -19.5z" />
    <glyph glyph-name="D" unicode="D" horiz-adv-x="719" 
d="M87 710h218q79 0 147 -27t118 -75t78.5 -113t28.5 -140t-28.5 -140t-78.5 -113t-118 -75t-147 -27h-218v710zM305 109q57 0 103.5 19t80 52t51.5 78t18 97t-18 97t-51.5 78t-80 52t-103.5 19h-101v-492h101z" />
    <glyph glyph-name="E" unicode="E" horiz-adv-x="562" 
d="M87 710h427v-112h-310v-182h250v-112h-250v-192h310v-112h-427v710z" />
    <glyph glyph-name="F" unicode="F" horiz-adv-x="536" 
d="M87 710h422v-112h-305v-183h240v-111h-240v-304h-117v710z" />
    <glyph glyph-name="G" unicode="G" horiz-adv-x="811" 
d="M413 -12q-80 0 -147.5 28t-117.5 77.5t-78 116.5t-28 145t28 145t77.5 116.5t117.5 77.5t147 28q60 0 113.5 -17t97.5 -47t76 -70.5t49 -87.5h-133q-28 49 -82 79t-121 30q-56 0 -102 -19.5t-79.5 -54t-52 -80.5t-18.5 -100t18.5 -100t52 -80.5t80 -54t102.5 -19.5
q49 0 89.5 15t70.5 42t48.5 64.5t24.5 82.5h-243v110h363q10 -103 -14.5 -182.5t-73.5 -134t-118 -82.5t-147 -28z" />
    <glyph glyph-name="H" unicode="H" horiz-adv-x="760" 
d="M87 710h117v-294h351v294h117v-710h-117v305h-351v-305h-117v710z" />
    <glyph glyph-name="I" unicode="I" horiz-adv-x="291" 
d="M87 710h117v-710h-117v710z" />
    <glyph glyph-name="J" unicode="J" horiz-adv-x="537" 
d="M239 -12q-44 0 -83.5 13t-69.5 39t-47.5 65t-17.5 92h116q0 -25 8.5 -43.5t22.5 -31t32.5 -19t38.5 -6.5t38 6t32 19t22 33.5t8 49.5v505h117v-515q0 -55 -18 -94.5t-48 -64.5t-69 -36.5t-82 -11.5z" />
    <glyph glyph-name="K" unicode="K" horiz-adv-x="682" 
d="M203 332v-332h-116v710h116v-306l285 306h148l-316 -340l386 -370h-158z" />
    <glyph glyph-name="L" unicode="L" horiz-adv-x="549" 
d="M87 710h117v-598h325v-112h-442v710z" />
    <glyph glyph-name="M" unicode="M" horiz-adv-x="885" 
d="M194 710l248 -336l249 336h107v-710h-118v509l-237 -322l-239 323v-510h-117v710h107z" />
    <glyph glyph-name="N" unicode="N" horiz-adv-x="793" 
d="M604 0l-400 511v-511h-117v710h102l399 -510v510h118v-710h-102z" />
    <glyph glyph-name="O" unicode="O" horiz-adv-x="817" 
d="M409 101q52 0 97.5 20t79 54.5t52.5 80.5t19 99t-19 99t-52.5 80.5t-79 54.5t-97.5 20q-53 0 -98.5 -20t-79 -54.5t-52.5 -80.5t-19 -99t19 -99t52.5 -80.5t79 -54.5t98.5 -20zM409 -12q-77 0 -143.5 28.5t-116.5 78t-78.5 116.5t-28.5 144t28.5 144t78.5 116.5t116.5 78
t143.5 28.5q76 0 143 -28.5t116.5 -78t78.5 -116.5t29 -144t-29 -144t-78.5 -116.5t-116.5 -78t-143 -28.5z" />
    <glyph glyph-name="P" unicode="P" horiz-adv-x="588" 
d="M559 478q0 -49 -18 -91.5t-50.5 -73.5t-77.5 -49t-100 -18h-109v-246h-117v710h226q55 0 100 -18t77.5 -49t50.5 -73.5t18 -91.5zM444 478q0 52 -34.5 87t-97.5 35h-108v-244h108q63 0 97.5 35t34.5 87z" />
    <glyph glyph-name="Q" unicode="Q" horiz-adv-x="839" 
d="M409 -12q-77 0 -143.5 28.5t-116.5 78t-78.5 116.5t-28.5 144t28.5 144t78.5 116.5t116.5 78t143.5 28.5q76 0 143 -28.5t116.5 -78t78.5 -116.5t29 -144q0 -62 -18.5 -116.5t-51.5 -100.5l158 -138h-163l-71 61q-46 -35 -102 -54t-119 -19zM409 101q37 0 70.5 10
t62.5 28l-110 97l70 81l115 -101q19 30 29.5 65t10.5 74q0 53 -19 99t-52.5 80.5t-79 54.5t-97.5 20q-53 0 -98.5 -20t-79 -54.5t-52.5 -80.5t-19 -99t19 -99t52.5 -80.5t79 -54.5t98.5 -20z" />
    <glyph glyph-name="R" unicode="R" horiz-adv-x="645" 
d="M87 710h256q49 0 89 -15t68 -42t43 -64t15 -81q0 -75 -42 -123.5t-119 -65.5l264 -319h-144l-260 312h-53v-312h-117v710zM329 414q52 0 82 24t30 70t-30 70t-82 24h-125v-188h125z" />
    <glyph glyph-name="S" unicode="S" horiz-adv-x="577" 
d="M298 -12q-60 0 -107 18t-80 48t-51.5 69t-20.5 81h117q3 -27 16.5 -47t33 -33.5t43.5 -20t48 -6.5q51 0 85 24t34 66q0 72 -98 104l-87 29q-85 27 -129.5 77t-44.5 128q0 46 16.5 82.5t46.5 62t71.5 39t91.5 13.5q55 0 98 -18t73 -46.5t46 -65t19 -73.5h-117
q-6 25 -18.5 43t-29 29t-35.5 16.5t-38 5.5q-45 0 -75.5 -22t-31.5 -60q0 -39 24 -62t72 -39l88 -28q84 -27 130 -78.5t46 -132.5q0 -45 -17 -82.5t-48.5 -64t-75 -41.5t-95.5 -15z" />
    <glyph glyph-name="T" unicode="T" horiz-adv-x="567" 
d="M225 598h-206v112h530v-112h-207v-598h-117v598z" />
    <glyph glyph-name="U" unicode="U" horiz-adv-x="723" 
d="M362 -12q-63 0 -115 20.5t-89.5 58t-58 91.5t-20.5 120v432h117v-434q0 -84 45.5 -129.5t120.5 -45.5t120 45.5t45 129.5v434h117v-432q0 -66 -21 -120t-58.5 -91.5t-89 -58t-113.5 -20.5z" />
    <glyph glyph-name="V" unicode="V" horiz-adv-x="710" 
d="M6 710h128l221 -531l220 531h129l-298 -710h-102z" />
    <glyph glyph-name="W" unicode="W" horiz-adv-x="953" 
d="M477 434l-165 -434h-108l-183 710h123l129 -516l204 528l203 -528l130 516h124l-184 -710h-108z" />
    <glyph glyph-name="X" unicode="X" horiz-adv-x="683" 
d="M-1 0l271 360l-258 350h138l191 -259l192 259h138l-258 -351l271 -359h-140l-202 266l-202 -266h-141z" />
    <glyph glyph-name="Y" unicode="Y" horiz-adv-x="681" 
d="M282 300l-269 410h137l190 -294l191 294h138l-270 -411v-299h-117v300z" />
    <glyph glyph-name="Z" unicode="Z" horiz-adv-x="602" 
d="M36 79l362 519h-353v112h512v-79l-364 -519h372v-112h-529v79z" />
    <glyph glyph-name="bracketleft" unicode="[" horiz-adv-x="314" 
d="M85 800h202v-85h-107v-790h107v-85h-202v960z" />
    <glyph glyph-name="backslash" unicode="\" horiz-adv-x="526" 
d="M119.992 710h-100.993l385.977 -820h100.993z" />
    <glyph glyph-name="bracketright" unicode="]" horiz-adv-x="314" 
d="M229 -160h-202v85h107v790h-107v85h202v-960z" />
    <glyph glyph-name="asciicircum" unicode="^" horiz-adv-x="379" 
d="M47 500l117 210h52l116 -210h-75l-68 119l-66 -119h-76z" />
    <glyph glyph-name="underscore" unicode="_" horiz-adv-x="524" 
d="M48 0h428v-88h-428v88z" />
    <glyph glyph-name="grave" unicode="`" 
d="M-116 750h133l100 -190h-85z" />
    <glyph glyph-name="a" unicode="a" horiz-adv-x="624" 
d="M279 -10q-51 0 -95.5 20.5t-76.5 56t-50.5 82.5t-18.5 101t18.5 101t50.5 82.5t76.5 56t95.5 20.5q54 0 96.5 -23.5t63.5 -53.5v67h110v-500h-110v67q-21 -30 -63.5 -53.5t-96.5 -23.5zM299 90q33 0 60.5 12.5t47 34t30.5 50.5t11 63t-11 63t-30.5 50.5t-47 34
t-60.5 12.5t-60.5 -12.5t-47 -34t-30.5 -50.5t-11 -63t11 -63t30.5 -50.5t47 -34t60.5 -12.5z" />
    <glyph glyph-name="b" unicode="b" horiz-adv-x="624" 
d="M345 -10q-54 0 -97 23.5t-64 53.5v-67h-110v750h110v-317q21 30 64 53.5t97 23.5q51 0 95.5 -20.5t76.5 -56t50.5 -82.5t18.5 -101t-18.5 -101t-50.5 -82.5t-76.5 -56t-95.5 -20.5zM325 90q33 0 60.5 12.5t47 34t30.5 50.5t11 63t-11 63t-30.5 50.5t-47 34t-60.5 12.5
t-61 -12.5t-47.5 -34t-30.5 -50.5t-11 -63t11 -63t30.5 -50.5t47.5 -34t61 -12.5z" />
    <glyph glyph-name="c" unicode="c" horiz-adv-x="584" 
d="M300 -10q-57 0 -105 20.5t-83 55.5t-54.5 82.5t-19.5 101.5t19.5 101.5t54.5 82.5t83 55.5t105 20.5q49 0 91.5 -14.5t75 -40.5t55 -61t32.5 -77h-116q-15 41 -50.5 67t-87.5 26q-33 0 -61 -12t-47.5 -33t-30.5 -50.5t-11 -64.5t11 -64.5t30.5 -50.5t47.5 -33t61 -12
q52 0 87.5 26t50.5 67h116q-10 -42 -32.5 -77t-55 -61t-75 -40.5t-91.5 -14.5z" />
    <glyph glyph-name="d" unicode="d" horiz-adv-x="624" 
d="M279 -10q-51 0 -95.5 20.5t-76.5 56t-50.5 82.5t-18.5 101t18.5 101t50.5 82.5t76.5 56t95.5 20.5q54 0 96.5 -23.5t63.5 -53.5v317h110v-750h-110v67q-21 -30 -63.5 -53.5t-96.5 -23.5zM299 90q33 0 60.5 12.5t47 34t30.5 50.5t11 63t-11 63t-30.5 50.5t-47 34
t-60.5 12.5t-60.5 -12.5t-47 -34t-30.5 -50.5t-11 -63t11 -63t30.5 -50.5t47 -34t60.5 -12.5z" />
    <glyph glyph-name="e" unicode="e" horiz-adv-x="585" 
d="M295 -10q-56 0 -103 19.5t-81 54t-53 82.5t-19 104q0 55 18.5 103t52 82.5t81 54.5t105.5 20q57 0 105 -21t81.5 -59t50.5 -90.5t13 -116.5h-398q1 -29 12.5 -53.5t31 -43t47 -29t60.5 -10.5q42 0 75.5 17t50.5 53h115q-11 -35 -32.5 -65.5t-53 -53t-71.5 -35.5t-88 -13z
M293 418q-52 0 -91.5 -29.5t-50.5 -87.5h277q-13 61 -51 89t-84 28z" />
    <glyph glyph-name="f" unicode="f" horiz-adv-x="388" 
d="M121 402h-104v98h104v84q0 42 13 74t36.5 54t54.5 33t67 11q26 0 46 -3.5t36 -8.5v-98q-12 5 -27.5 7.5t-31.5 2.5q-43 0 -63.5 -19t-20.5 -66v-71h143v-98h-143v-402h-110v402z" />
    <glyph glyph-name="g" unicode="g" horiz-adv-x="623" 
d="M300 -219q-51 0 -94 13.5t-74.5 37.5t-50.5 57t-24 72h108q15 -45 50 -65.5t88 -20.5q28 0 53 9.5t43.5 28t29 46t10.5 63.5v59q-23 -33 -65.5 -55.5t-94.5 -22.5q-51 0 -94.5 19.5t-76 54t-51 81t-18.5 99.5t18.5 99t51 80.5t76 54t94.5 19.5q52 0 94.5 -22t65.5 -55v67
h110v-469q0 -65 -20 -112.5t-54 -78t-79.5 -45t-95.5 -14.5zM299 104q32 0 59 11.5t47 31.5t31.5 48.5t11.5 61.5t-11.5 61.5t-31.5 48.5t-47 31.5t-59 11.5t-59 -11.5t-47 -31.5t-31.5 -48.5t-11.5 -61.5t11.5 -61.5t31.5 -48.5t47 -31.5t59 -11.5z" />
    <glyph glyph-name="h" unicode="h" horiz-adv-x="594" 
d="M74 0v750h110v-318q23 38 63 58t89 20q43 0 78.5 -15t60.5 -42t38.5 -65.5t13.5 -86.5v-301h-110v283q0 60 -28 93.5t-76 33.5q-55 0 -92 -41.5t-37 -122.5v-246h-110z" />
    <glyph glyph-name="i" unicode="i" horiz-adv-x="258" 
d="M129 609q-30 0 -52 21.5t-22 52.5q0 30 22 51.5t52 21.5q31 0 52 -21.5t21 -51.5q0 -31 -21 -52.5t-52 -21.5zM74 500h110v-500h-110v500z" />
    <glyph glyph-name="j" unicode="j" horiz-adv-x="266" 
d="M192 -53q0 -42 -13.5 -73t-36 -52t-53.5 -31t-65 -10q-28 0 -47 3v96q5 -1 12 -1.5t15 -0.5q37 0 57.5 19t20.5 66v537h110v-553zM137 609q-30 0 -52 21.5t-22 52.5q0 30 22 51.5t52 21.5q31 0 52 -21.5t21 -51.5q0 -31 -21 -52.5t-52 -21.5z" />
    <glyph glyph-name="k" unicode="k" horiz-adv-x="547" 
d="M184 241v-241h-110v750h110v-440l191 190h139l-223 -223l273 -277h-141z" />
    <glyph glyph-name="l" unicode="l" horiz-adv-x="258" 
d="M74 750h110v-750h-110v750z" />
    <glyph glyph-name="m" unicode="m" horiz-adv-x="888" 
d="M711 281q0 59 -22 94t-67 35q-52 0 -84.5 -40.5t-34.5 -115.5v-254h-110v281q0 59 -22 94t-67 35q-54 0 -87 -42.5t-33 -121.5v-246h-110v500h110v-68q21 35 57.5 56.5t84.5 21.5q56 0 95.5 -26t59.5 -73q22 48 66 73.5t94 25.5q85 0 132.5 -57.5t47.5 -153.5v-299h-110
v281z" />
    <glyph glyph-name="n" unicode="n" horiz-adv-x="594" 
d="M74 500h110v-68q23 38 63 58t89 20q43 0 78.5 -15t60.5 -42t38.5 -65.5t13.5 -86.5v-301h-110v283q0 60 -28 93.5t-76 33.5q-55 0 -92 -41.5t-37 -122.5v-246h-110v500z" />
    <glyph glyph-name="o" unicode="o" horiz-adv-x="599" 
d="M300 -10q-56 0 -103.5 20t-83 55.5t-55.5 83t-20 101.5t20 101.5t55.5 83t83 55.5t103.5 20q55 0 103 -20t83.5 -55.5t55.5 -83t20 -101.5t-20 -101.5t-55.5 -83t-83.5 -55.5t-103 -20zM300 92q33 0 60.5 12t47.5 33.5t31 50.5t11 62t-11 62t-31 50.5t-47.5 33.5
t-60.5 12t-61 -12t-48 -33.5t-31 -50.5t-11 -62t11 -62t31 -50.5t48 -33.5t61 -12z" />
    <glyph glyph-name="p" unicode="p" horiz-adv-x="624" 
d="M74 -209v709h110v-67q21 30 64 53.5t97 23.5q51 0 95.5 -20.5t76.5 -56t50.5 -82.5t18.5 -101t-18.5 -101t-50.5 -82.5t-76.5 -56t-95.5 -20.5q-54 0 -97 23.5t-64 53.5v-276h-110zM325 90q33 0 60.5 12.5t47 34t30.5 50.5t11 63t-11 63t-30.5 50.5t-47 34t-60.5 12.5
t-61 -12.5t-47.5 -34t-30.5 -50.5t-11 -63t11 -63t30.5 -50.5t47.5 -34t61 -12.5z" />
    <glyph glyph-name="q" unicode="q" horiz-adv-x="624" 
d="M439 -209v276q-21 -30 -63.5 -53.5t-96.5 -23.5q-51 0 -95.5 20.5t-76.5 56t-50.5 82.5t-18.5 101t18.5 101t50.5 82.5t76.5 56t95.5 20.5q54 0 96.5 -23.5t63.5 -53.5v67h110v-709h-110zM299 90q33 0 60.5 12.5t47 34t30.5 50.5t11 63t-11 63t-30.5 50.5t-47 34
t-60.5 12.5t-60.5 -12.5t-47 -34t-30.5 -50.5t-11 -63t11 -63t30.5 -50.5t47 -34t60.5 -12.5z" />
    <glyph glyph-name="r" unicode="r" horiz-adv-x="380" 
d="M74 500h110v-89q7 21 20.5 38.5t31 30t38.5 19t42 6.5q23 0 43 -4v-113q-14 5 -27 7t-28 2q-24 0 -45.5 -10t-38 -29t-26.5 -48t-10 -66v-244h-110v500z" />
    <glyph glyph-name="s" unicode="s" horiz-adv-x="483" 
d="M250 -10q-44 0 -82 11t-66.5 32t-46 51t-19.5 68h114q7 -41 36.5 -57.5t66.5 -16.5q36 0 58.5 13.5t22.5 39.5t-17.5 41t-56.5 25l-82 22q-65 17 -96.5 56.5t-31.5 94.5q0 31 13.5 57t37.5 44.5t58.5 28.5t76.5 10q40 0 74 -11t59 -30.5t40 -47t18 -61.5h-110
q-8 32 -30.5 47t-51.5 15q-32 0 -52.5 -13.5t-20.5 -37.5t17.5 -38t49.5 -22l84 -22q68 -17 100.5 -55.5t32.5 -95.5q0 -36 -15 -64t-41 -46.5t-62 -28t-78 -9.5z" />
    <glyph glyph-name="t" unicode="t" horiz-adv-x="403" 
d="M291 -5q-36 0 -67 10t-54.5 30.5t-36.5 52t-13 73.5v241h-104v98h104v139h110v-139h143v-98h-143v-223q0 -47 20.5 -66t63.5 -19q16 0 31.5 2.5t27.5 7.5v-98q-17 -5 -36.5 -8t-45.5 -3z" />
    <glyph glyph-name="u" unicode="u" horiz-adv-x="583" 
d="M253 -10q-43 0 -77.5 15t-58.5 42.5t-37 66.5t-13 87v299h110v-281q0 -60 26 -94.5t74 -34.5q54 0 88 41.5t34 122.5v246h110v-500h-110v68q-22 -38 -60 -58t-86 -20z" />
    <glyph glyph-name="v" unicode="v" horiz-adv-x="557" 
d="M4 500h122l152 -351l153 351h123l-227 -500h-97z" />
    <glyph glyph-name="w" unicode="w" horiz-adv-x="780" 
d="M390 323l-109 -323h-104l-168 500h116l108 -345l115 345h84l113 -345l110 345h117l-168 -500h-104z" />
    <glyph glyph-name="x" unicode="x" horiz-adv-x="547" 
d="M274 169l-135 -169h-134l199 249l-188 251h131l126 -168l126 168h132l-188 -251l199 -249h-133z" />
    <glyph glyph-name="y" unicode="y" horiz-adv-x="558" 
d="M113 -209l107 236l-215 473h121l153 -354l154 354h122l-321 -709h-121z" />
    <glyph glyph-name="z" unicode="z" horiz-adv-x="490" 
d="M40 87l262 313h-258v100h400v-88l-262 -312h270v-100h-412v87z" />
    <glyph glyph-name="braceleft" unicode="{" horiz-adv-x="327" 
d="M230 -160q-69 0 -100.5 37t-31.5 106v229q0 30 -11 47.5t-45 17.5h-13v85h13q34 0 45 17.5t11 46.5v231q0 69 31.5 106t100.5 37h71v-85h-48q-35 0 -47 -16t-12 -51v-222q0 -46 -14.5 -70.5t-43.5 -35.5q29 -12 43.5 -37t14.5 -71v-220q0 -36 12 -51.5t47 -15.5h48v-85
h-71z" />
    <glyph glyph-name="bar" unicode="|" horiz-adv-x="264" 
d="M84 710h96v-820h-96v820z" />
    <glyph glyph-name="braceright" unicode="}" horiz-adv-x="327" 
d="M26 -160v85h48q35 0 47 15.5t12 51.5v220q0 46 14.5 71t43.5 37q-29 11 -43.5 35.5t-14.5 70.5v222q0 35 -12 51t-47 16h-48v85h71q69 0 100.5 -37t31.5 -106v-231q0 -29 11 -46.5t45 -17.5h13v-85h-13q-34 0 -45 -17.5t-11 -47.5v-229q0 -69 -31.5 -106t-100.5 -37h-71z
" />
    <glyph glyph-name="asciitilde" unicode="~" horiz-adv-x="381" 
d="M119 349h46l60 -55l25 55h70l-55 -119h-46l-62 54l-24 -54h-69z" />
    <glyph glyph-name="uni00A0" unicode="&#xa0;" horiz-adv-x="235" 
 />
    <glyph glyph-name="exclamdown" unicode="&#xa1;" horiz-adv-x="267" 
d="M189 68v-277h-111v277l21 196h68zM133 338q-18 0 -33.5 7t-27 18.5t-18.5 27.5t-7 34t7 33.5t18.5 27.5t27 19t33.5 7t34 -7t27.5 -19t18.5 -27.5t7 -33.5q0 -36 -25.5 -61.5t-61.5 -25.5z" />
    <glyph glyph-name="cent" unicode="&#xa2;" horiz-adv-x="591" 
d="M276 -8q-52 4 -95 26t-74 56.5t-48.5 79.5t-17.5 96t17.5 95.5t48.5 79t74 56.5t95 27v80h54v-80q89 -8 148.5 -60.5t78.5 -130.5h-116q-14 35 -42 59.5t-69 31.5v-316q41 7 69 31.5t42 59.5h116q-9 -39 -29 -72.5t-49.5 -58.5t-67 -40.5t-81.5 -19.5v-80h-54v80z
M153 250q0 -63 33.5 -106t89.5 -52v316q-56 -9 -89.5 -52t-33.5 -106z" />
    <glyph glyph-name="sterling" unicode="&#xa3;" horiz-adv-x="575" 
d="M49 389h66q-10 31 -16.5 62t-6.5 62q0 40 15.5 77.5t44 67t68.5 47t89 17.5t89 -18t69.5 -48.5t46 -71t17.5 -84.5h-110q0 23 -8.5 44t-23 36.5t-35 24.5t-45.5 9q-47 0 -77 -29.5t-30 -77.5q0 -29 7.5 -58.5t18.5 -59.5h182v-56h-163q9 -28 15 -56t6 -58q0 -59 -32 -111
h295v-108h-482v108h76q17 24 25.5 50t8.5 56q0 26 -7.5 56.5t-18.5 62.5h-84v56z" />
    <glyph glyph-name="yen" unicode="&#xa5;" horiz-adv-x="696" 
d="M82 354h176l-230 356h133l187 -300l186 300h134l-230 -356h176v-55h-211v-75h211v-55h-211v-169h-110v169h-211v55h211v75h-211v55z" />
    <glyph glyph-name="brokenbar" unicode="&#xa6;" horiz-adv-x="264" 
d="M84 245h96v-355h-96v355zM84 710h96v-355h-96v355z" />
    <glyph glyph-name="section" unicode="&#xa7;" horiz-adv-x="456" 
d="M238 -219q-31 0 -61 8t-54.5 26t-41 47t-20.5 71h97q7 -39 30.5 -53.5t49.5 -14.5q28 0 49.5 18t20.5 53q-1 37 -23 64.5t-66 51.5l-60 32q-49 26 -78.5 67t-29.5 97t25 96.5t70 66.5q-93 63 -93 160q0 34 12 62t33 47.5t50 30.5t64 11q31 0 60 -8t52 -26t38.5 -47
t19.5 -71h-96q-8 39 -27 53.5t-45 14.5q-29 0 -46.5 -17.5t-17.5 -49.5q0 -37 22.5 -59.5t64.5 -46.5l60 -32q50 -26 80 -67t30 -97q0 -57 -26 -97.5t-71 -66.5q46 -32 69.5 -76.5t24.5 -92.5q0 -36 -12.5 -64.5t-35 -48.5t-53 -31t-65.5 -11zM147 256q0 -38 20.5 -60.5
t51.5 -38.5l5 -3q38 19 62 43.5t24 63.5q0 38 -21 60.5t-51 38.5l-4 2q-39 -19 -63 -42.5t-24 -63.5z" />
    <glyph glyph-name="dieresis" unicode="&#xa8;" 
d="M-114 587q-28 0 -47.5 19.5t-19.5 46.5q0 28 19.5 47.5t47.5 19.5q27 0 46 -19.5t19 -47.5q0 -27 -19 -46.5t-46 -19.5zM115 587q-27 0 -46.5 19.5t-19.5 46.5q0 28 19.5 47.5t46.5 19.5q28 0 47 -19.5t19 -47.5q0 -27 -19 -46.5t-47 -19.5z" />
    <glyph glyph-name="copyright" unicode="&#xa9;" horiz-adv-x="816" 
d="M412 163q-42 0 -78 15t-62 40.5t-40.5 60.5t-14.5 76q0 40 14.5 75.5t40.5 61.5t62 41t78 15q31 0 60.5 -10t53.5 -27.5t41.5 -42t25.5 -54.5h-84q-12 28 -38.5 43.5t-58.5 15.5q-54 0 -86 -34t-32 -84t32 -84t86 -34q32 0 58.5 15.5t38.5 43.5h84q-8 -30 -25.5 -54.5
t-41.5 -42t-53.5 -27t-60.5 -9.5zM408 65q60 0 112.5 23t92 62t62.5 92t23 113t-23 113t-62.5 92t-92 62t-112.5 23t-112.5 -23t-92 -62t-62.5 -92t-23 -113t23 -113t62.5 -92t92 -62t112.5 -23zM408 -12q-75 0 -142 29t-117 79t-79 116.5t-29 142.5t29 142.5t79 116.5
t117 79t142 29q76 0 142.5 -29t116.5 -79t79 -116.5t29 -142.5t-29 -142.5t-79 -116.5t-116.5 -79t-142.5 -29z" />
    <glyph glyph-name="ordfeminine" unicode="&#xaa;" horiz-adv-x="413" 
d="M180 404q-30 0 -56 12.5t-44.5 33.5t-29.5 49.5t-11 60.5t11 60.5t29.5 49.5t44.5 33.5t56 12.5q31 0 53 -12.5t33 -26.5v33h83v-300h-83v33q-11 -14 -33 -26.5t-53 -12.5zM198 479q33 0 54 23t21 58t-21 58t-54 23q-35 0 -55.5 -23t-20.5 -58t20.5 -58t55.5 -23z" />
    <glyph glyph-name="guillemotleft" unicode="&#xab;" horiz-adv-x="500" 
d="M364 467h95l-116 -217l116 -217h-95l-141 217zM177 467h95l-116 -217l116 -217h-95l-141 217z" />
    <glyph glyph-name="uni00AD" unicode="&#xad;" horiz-adv-x="392" 
d="M62 334h269v-108h-269v108z" />
    <glyph glyph-name="registered" unicode="&#xae;" horiz-adv-x="816" 
d="M408 -12q-75 0 -142 29t-117 79t-79 116.5t-29 142.5t29 142.5t79 116.5t117 79t142 29q76 0 142.5 -29t116.5 -79t79 -116.5t29 -142.5t-29 -142.5t-79 -116.5t-116.5 -79t-142.5 -29zM408 65q60 0 112.5 23t92 62t62.5 92t23 113t-23 113t-62.5 92t-92 62t-112.5 23
t-112.5 -23t-92 -62t-62.5 -92t-23 -113t23 -113t62.5 -92t92 -62t112.5 -23zM286 541h143q54 0 84.5 -31.5t30.5 -78.5q0 -38 -19.5 -61.5t-57.5 -35.5l134 -165h-92l-127 156h-18v-156h-78v372zM421 391q20 0 33.5 10.5t13.5 29.5t-13.5 29t-33.5 10h-57v-79h57z" />
    <glyph glyph-name="macron" unicode="&#xaf;" 
d="M-166 710h332v-82h-332v82z" />
    <glyph glyph-name="degree" unicode="&#xb0;" horiz-adv-x="360" 
d="M180 508q27 0 46 19t19 46q0 26 -19 45.5t-46 19.5q-28 0 -46.5 -19.5t-18.5 -45.5q0 -27 18.5 -46t46.5 -19zM180 432q-29 0 -55 11t-45 30t-30 45t-11 55t11 55t30 45t45 30t55 11t55 -11t45 -30t30 -45t11 -55t-11 -55t-30 -45t-45 -30t-55 -11z" />
    <glyph glyph-name="uni00B2" unicode="&#xb2;" horiz-adv-x="354" 
d="M322 410h-293v28q0 36 12.5 63t33 48.5t45 38.5t48.5 34q29 20 48.5 41.5t19.5 50.5q0 23 -15.5 38t-42.5 15q-29 0 -47 -17.5t-18 -43.5h-83q0 32 11.5 58.5t31.5 45t47.5 29t59.5 10.5q27 0 52.5 -8.5t44.5 -25t30.5 -41.5t11.5 -58q0 -28 -6.5 -49.5t-18.5 -39.5
t-28.5 -33t-37.5 -30q-11 -8 -23.5 -16t-25 -17t-22.5 -19t-14 -21h179v-81z" />
    <glyph glyph-name="uni00B3" unicode="&#xb3;" horiz-adv-x="365" 
d="M186 404q-31 0 -59.5 9.5t-50.5 28t-36 45.5t-15 63h82q4 -32 25.5 -48.5t53.5 -16.5q29 0 47.5 14.5t18.5 40.5q0 28 -20 43t-52 15h-36v67h34q30 0 45.5 14.5t15.5 37.5q1 23 -15.5 36.5t-40.5 13.5q-29 0 -48 -17t-19 -44h-82q0 34 12.5 60.5t33.5 45t48 28t56 9.5
q33 0 59 -10t43.5 -27t27 -39.5t9.5 -48.5q-1 -32 -15.5 -56t-32.5 -37q24 -11 42 -36t18 -62q0 -29 -11 -52.5t-30.5 -40.5t-47 -26.5t-60.5 -9.5z" />
    <glyph glyph-name="acute" unicode="&#xb4;" 
d="M-17 750h133l-148 -190h-85z" />
    <glyph glyph-name="paragraph" unicode="&#xb6;" horiz-adv-x="643" 
d="M253 260q-47 0 -87.5 17.5t-71.5 48.5t-48.5 71.5t-17.5 87.5q0 46 17.5 87t48.5 72t71.5 48.5t87.5 17.5h292v-894h-96v796h-99v-796h-97v444z" />
    <glyph glyph-name="periodcentered" unicode="&#xb7;" horiz-adv-x="279" 
d="M139 189q-18 0 -33.5 7t-27 18.5t-18.5 27.5t-7 34t7 33.5t18.5 27.5t27 19t33.5 7t34 -7t27.5 -19t18.5 -27.5t7 -33.5q0 -36 -25.5 -61.5t-61.5 -25.5z" />
    <glyph glyph-name="cedilla" unicode="&#xb8;" 
d="M-112 -146q16 -9 37 -13t39 -4q24 0 44.5 8.5t20.5 29.5q0 15 -12 22t-33 7q-11 0 -22 -2.5t-21 -7.5l-34 20l54 89h58l-33 -54q9 3 19.5 5t23.5 2q35 0 59 -20t24 -57q0 -23 -11 -41t-29.5 -30.5t-42.5 -19.5t-50 -7q-20 0 -44 2.5t-47 12.5v58z" />
    <glyph glyph-name="uni00B9" unicode="&#xb9;" horiz-adv-x="235" 
d="M99 760h-91l60 82h114v-432h-83v350z" />
    <glyph glyph-name="ordmasculine" unicode="&#xba;" horiz-adv-x="390" 
d="M195 404q-33 0 -61.5 12t-49.5 33t-33.5 49.5t-12.5 61.5t12.5 61.5t33.5 49.5t49.5 33t61.5 12t61.5 -12t50 -33t34 -49.5t12.5 -61.5t-12.5 -61.5t-34 -49.5t-50 -33t-61.5 -12zM195 481q32 0 53 22t21 57t-21 57t-53 22t-53 -22t-21 -57t21 -57t53 -22z" />
    <glyph glyph-name="guillemotright" unicode="&#xbb;" horiz-adv-x="500" 
d="M463 250l-141 -217h-95l116 217l-116 217h95zM276 250l-141 -217h-95l116 217l-116 217h95z" />
    <glyph glyph-name="onequarter" unicode="&#xbc;" horiz-adv-x="806" 
d="M99 628h-91l60 82h114v-432h-83v350zM53 0l500 710h98l-500 -710h-98zM645 100h-215v67l224 266h74v-257h56v-76h-56v-99h-83v99zM645 176v134l-113 -134h113z" />
    <glyph glyph-name="onehalf" unicode="&#xbd;" horiz-adv-x="795" 
d="M99 628h-91l60 82h114v-432h-83v350zM53 0l500 710h98l-500 -710h-98zM763 1h-293v28q0 36 12.5 63t33 48.5t45 38.5t48.5 34q29 20 48.5 41.5t19.5 50.5q0 23 -15.5 38t-42.5 15q-29 0 -47 -17.5t-18 -43.5h-83q0 32 11.5 58.5t31.5 45t47.5 29t59.5 10.5
q27 0 52.5 -8.5t44.5 -25t30.5 -41.5t11.5 -58q0 -28 -6.5 -49.5t-18.5 -39.5t-28.5 -33t-37.5 -30q-11 -8 -23.5 -16t-25 -17t-22.5 -19t-14 -21h179v-81z" />
    <glyph glyph-name="threequarters" unicode="&#xbe;" horiz-adv-x="909" 
d="M186 272q-31 0 -59.5 9.5t-50.5 28t-36 45.5t-15 63h82q4 -32 25.5 -48.5t53.5 -16.5q29 0 47.5 14.5t18.5 40.5q0 28 -20 43t-52 15h-36v67h34q30 0 45.5 14.5t15.5 37.5q1 23 -15.5 36.5t-40.5 13.5q-29 0 -48 -17t-19 -44h-82q0 34 12.5 60.5t33.5 45t48 28t56 9.5
q33 0 59 -10t43.5 -27t27 -39.5t9.5 -48.5q-1 -32 -15.5 -56t-32.5 -37q24 -11 42 -36t18 -62q0 -29 -11 -52.5t-30.5 -40.5t-47 -26.5t-60.5 -9.5zM157 0l500 710h98l-500 -710h-98zM749 100h-215v67l224 266h74v-257h56v-76h-56v-99h-83v99zM749 176v134l-113 -134h113z
" />
    <glyph glyph-name="questiondown" unicode="&#xbf;" horiz-adv-x="502" 
d="M326 237q0 -42 -27.5 -75t-61.5 -57q-19 -14 -35.5 -26t-29 -25.5t-19.5 -29t-7 -36.5q0 -44 29 -72t74 -28q48 0 81.5 30.5t33.5 81.5h110q0 -45 -17 -85t-47.5 -70t-71.5 -47.5t-89 -17.5t-87.5 16.5t-67 45t-43 65t-15.5 77.5q0 62 28 103.5t70 73.5q16 12 31 23
t26 22t18 22t7 23v5h110v-19zM272 510q18 0 33.5 -7t27 -18.5t18.5 -27.5t7 -34t-7 -33.5t-18.5 -27.5t-27 -19t-33.5 -7t-34 7t-27.5 19t-18.5 27.5t-7 33.5q0 36 25.5 61.5t61.5 25.5z" />
    <glyph glyph-name="Agrave" unicode="&#xc0;" horiz-adv-x="730" 
d="M314 710h102l310 -710h-122l-81 186h-318l-80 -186h-121zM250 290h228l-114 262zM317 770l-118 157h129l75 -157h-86z" />
    <glyph glyph-name="Aacute" unicode="&#xc1;" horiz-adv-x="730" 
d="M314 710h102l310 -710h-122l-81 186h-318l-80 -186h-121zM250 290h228l-114 262zM405 927h129l-118 -157h-86z" />
    <glyph glyph-name="Acircumflex" unicode="&#xc2;" horiz-adv-x="730" 
d="M314 710h102l310 -710h-122l-81 186h-318l-80 -186h-121zM250 290h228l-114 262zM195 858l170 80l170 -80v-92l-170 80l-170 -80v92z" />
    <glyph glyph-name="Atilde" unicode="&#xc3;" horiz-adv-x="730" 
d="M314 710h102l310 -710h-122l-81 186h-318l-80 -186h-121zM250 290h228l-114 262zM188 804q8 48 39.5 75.5t72.5 27.5q21 0 39 -7t34.5 -15.5t30.5 -15.5t26 -7q18 0 28 11t15 34h72l-3 -22q-8 -48 -39.5 -75t-72.5 -27q-21 0 -39.5 7t-35 15.5t-30 15.5t-25.5 7
q-18 0 -28 -11.5t-16 -34.5h-71z" />
    <glyph glyph-name="Adieresis" unicode="&#xc4;" horiz-adv-x="730" 
d="M314 710h102l310 -710h-122l-81 186h-318l-80 -186h-121zM250 290h228l-114 262zM251 779q-28 0 -47.5 19.5t-19.5 46.5q0 28 19.5 47.5t47.5 19.5q27 0 46 -19.5t19 -47.5q0 -27 -19 -46.5t-46 -19.5zM480 779q-27 0 -46.5 19.5t-19.5 46.5q0 28 19.5 47.5t46.5 19.5
q28 0 47 -19.5t19 -47.5q0 -27 -19 -46.5t-47 -19.5z" />
    <glyph glyph-name="Aring" unicode="&#xc5;" horiz-adv-x="730" 
d="M314 710h102l310 -710h-122l-81 186h-318l-80 -186h-121zM250 290h228l-114 262zM365 753q-25 0 -47 9.5t-38.5 26t-26 38t-9.5 46.5t9.5 46.5t26 38t38.5 26t47 9.5t47 -9.5t38.5 -26t26.5 -38t10 -46.5t-10 -46.5t-26.5 -38t-38.5 -26t-47 -9.5zM365 809q28 0 47 18.5
t19 45.5q0 26 -19 45.5t-47 19.5q-26 0 -45 -19.5t-19 -45.5q0 -27 19 -45.5t45 -18.5z" />
    <glyph glyph-name="AE" unicode="&#xc6;" horiz-adv-x="927" 
d="M451 186h-240l-107 -186h-129l414 710h489v-112h-310v-182h250v-112h-250v-192h310v-112h-427v186zM271 290h180v308h-1z" />
    <glyph glyph-name="Ccedilla" unicode="&#xc7;" horiz-adv-x="785" 
d="M412 -12q-79 0 -147 28t-117.5 77.5t-77.5 116.5t-28 145t28 145t77.5 116.5t117.5 77.5t147 28q64 0 120.5 -19.5t101.5 -53.5t76 -79.5t44 -97.5h-126q-11 30 -32 55.5t-49.5 43.5t-63 28t-71.5 10q-56 0 -102 -19.5t-79.5 -54t-52 -80.5t-18.5 -100t18.5 -100
t52 -80.5t79.5 -54t102 -19.5q37 0 71.5 10t63 28t49.5 43.5t32 55.5h126q-13 -52 -44 -97.5t-76 -79.5t-101.5 -53.5t-120.5 -19.5zM297 -146q16 -9 37 -13t39 -4q24 0 44.5 8.5t20.5 29.5q0 15 -12 22t-33 7q-10 0 -21 -2.5t-22 -7.5l-34 20l54 89h58l-32 -54q9 3 19 5
t24 2q35 0 58.5 -20t23.5 -57q0 -23 -11 -41t-29 -30.5t-42 -19.5t-50 -7q-20 0 -44.5 2.5t-47.5 12.5v58z" />
    <glyph glyph-name="Egrave" unicode="&#xc8;" horiz-adv-x="562" 
d="M87 710h427v-112h-310v-182h250v-112h-250v-192h310v-112h-427v710zM253 770l-118 157h129l75 -157h-86z" />
    <glyph glyph-name="Eacute" unicode="&#xc9;" horiz-adv-x="562" 
d="M87 710h427v-112h-310v-182h250v-112h-250v-192h310v-112h-427v710zM340 927h129l-118 -157h-86z" />
    <glyph glyph-name="Ecircumflex" unicode="&#xca;" horiz-adv-x="562" 
d="M87 710h427v-112h-310v-182h250v-112h-250v-192h310v-112h-427v710zM130 858l170 80l170 -80v-92l-170 80l-170 -80v92z" />
    <glyph glyph-name="Edieresis" unicode="&#xcb;" horiz-adv-x="562" 
d="M87 710h427v-112h-310v-182h250v-112h-250v-192h310v-112h-427v710zM186 779q-28 0 -47.5 19.5t-19.5 46.5q0 28 19.5 47.5t47.5 19.5q27 0 46 -19.5t19 -47.5q0 -27 -19 -46.5t-46 -19.5zM415 779q-27 0 -46.5 19.5t-19.5 46.5q0 28 19.5 47.5t46.5 19.5q28 0 47 -19.5
t19 -47.5q0 -27 -19 -46.5t-47 -19.5z" />
    <glyph glyph-name="Igrave" unicode="&#xcc;" horiz-adv-x="291" 
d="M87 710h117v-710h-117v710zM98 770l-118 157h129l75 -157h-86z" />
    <glyph glyph-name="Iacute" unicode="&#xcd;" horiz-adv-x="291" 
d="M87 710h117v-710h-117v710zM186 927h129l-118 -157h-86z" />
    <glyph glyph-name="Icircumflex" unicode="&#xce;" horiz-adv-x="291" 
d="M87 710h117v-710h-117v710zM-24 858l170 80l170 -80v-92l-170 80l-170 -80v92z" />
    <glyph glyph-name="Idieresis" unicode="&#xcf;" horiz-adv-x="291" 
d="M87 710h117v-710h-117v710zM32 779q-28 0 -47.5 19.5t-19.5 46.5q0 28 19.5 47.5t47.5 19.5q27 0 46 -19.5t19 -47.5q0 -27 -19 -46.5t-46 -19.5zM261 779q-27 0 -46.5 19.5t-19.5 46.5q0 28 19.5 47.5t46.5 19.5q28 0 47 -19.5t19 -47.5q0 -27 -19 -46.5t-47 -19.5z" />
    <glyph glyph-name="Eth" unicode="&#xd0;" horiz-adv-x="730" 
d="M98 710h218q79 0 147 -27t118 -75t78.5 -113t28.5 -140t-28.5 -140t-78.5 -113t-118 -75t-147 -27h-218v710zM316 109q57 0 103.5 19t80 52t51.5 78t18 97t-18 97t-51.5 78t-80 52t-103.5 19h-101v-492h101zM25 410h335v-102h-335v102z" />
    <glyph glyph-name="Ntilde" unicode="&#xd1;" horiz-adv-x="793" 
d="M604 0l-400 511v-511h-117v710h102l399 -510v510h118v-710h-102zM217 804q8 48 39.5 75.5t72.5 27.5q21 0 39 -7t34.5 -15.5t30.5 -15.5t26 -7q18 0 28 11t15 34h72l-3 -22q-8 -48 -39.5 -75t-72.5 -27q-21 0 -39.5 7t-35 15.5t-30 15.5t-25.5 7q-18 0 -28 -11.5
t-16 -34.5h-71z" />
    <glyph glyph-name="Ograve" unicode="&#xd2;" horiz-adv-x="817" 
d="M409 101q52 0 97.5 20t79 54.5t52.5 80.5t19 99t-19 99t-52.5 80.5t-79 54.5t-97.5 20q-53 0 -98.5 -20t-79 -54.5t-52.5 -80.5t-19 -99t19 -99t52.5 -80.5t79 -54.5t98.5 -20zM409 -12q-77 0 -143.5 28.5t-116.5 78t-78.5 116.5t-28.5 144t28.5 144t78.5 116.5t116.5 78
t143.5 28.5q76 0 143 -28.5t116.5 -78t78.5 -116.5t29 -144t-29 -144t-78.5 -116.5t-116.5 -78t-143 -28.5zM361 770l-118 157h129l75 -157h-86z" />
    <glyph glyph-name="Oacute" unicode="&#xd3;" horiz-adv-x="817" 
d="M409 101q52 0 97.5 20t79 54.5t52.5 80.5t19 99t-19 99t-52.5 80.5t-79 54.5t-97.5 20q-53 0 -98.5 -20t-79 -54.5t-52.5 -80.5t-19 -99t19 -99t52.5 -80.5t79 -54.5t98.5 -20zM409 -12q-77 0 -143.5 28.5t-116.5 78t-78.5 116.5t-28.5 144t28.5 144t78.5 116.5t116.5 78
t143.5 28.5q76 0 143 -28.5t116.5 -78t78.5 -116.5t29 -144t-29 -144t-78.5 -116.5t-116.5 -78t-143 -28.5zM449 927h129l-118 -157h-86z" />
    <glyph glyph-name="Ocircumflex" unicode="&#xd4;" horiz-adv-x="817" 
d="M409 101q52 0 97.5 20t79 54.5t52.5 80.5t19 99t-19 99t-52.5 80.5t-79 54.5t-97.5 20q-53 0 -98.5 -20t-79 -54.5t-52.5 -80.5t-19 -99t19 -99t52.5 -80.5t79 -54.5t98.5 -20zM409 -12q-77 0 -143.5 28.5t-116.5 78t-78.5 116.5t-28.5 144t28.5 144t78.5 116.5t116.5 78
t143.5 28.5q76 0 143 -28.5t116.5 -78t78.5 -116.5t29 -144t-29 -144t-78.5 -116.5t-116.5 -78t-143 -28.5zM239 858l170 80l170 -80v-92l-170 80l-170 -80v92z" />
    <glyph glyph-name="Otilde" unicode="&#xd5;" horiz-adv-x="817" 
d="M409 101q52 0 97.5 20t79 54.5t52.5 80.5t19 99t-19 99t-52.5 80.5t-79 54.5t-97.5 20q-53 0 -98.5 -20t-79 -54.5t-52.5 -80.5t-19 -99t19 -99t52.5 -80.5t79 -54.5t98.5 -20zM409 -12q-77 0 -143.5 28.5t-116.5 78t-78.5 116.5t-28.5 144t28.5 144t78.5 116.5t116.5 78
t143.5 28.5q76 0 143 -28.5t116.5 -78t78.5 -116.5t29 -144t-29 -144t-78.5 -116.5t-116.5 -78t-143 -28.5zM232 804q8 48 39.5 75.5t72.5 27.5q21 0 39 -7t34.5 -15.5t30.5 -15.5t26 -7q18 0 28 11t15 34h72l-3 -22q-8 -48 -39.5 -75t-72.5 -27q-21 0 -39.5 7t-35 15.5
t-30 15.5t-25.5 7q-18 0 -28 -11.5t-16 -34.5h-71z" />
    <glyph glyph-name="Odieresis" unicode="&#xd6;" horiz-adv-x="817" 
d="M409 101q52 0 97.5 20t79 54.5t52.5 80.5t19 99t-19 99t-52.5 80.5t-79 54.5t-97.5 20q-53 0 -98.5 -20t-79 -54.5t-52.5 -80.5t-19 -99t19 -99t52.5 -80.5t79 -54.5t98.5 -20zM409 -12q-77 0 -143.5 28.5t-116.5 78t-78.5 116.5t-28.5 144t28.5 144t78.5 116.5t116.5 78
t143.5 28.5q76 0 143 -28.5t116.5 -78t78.5 -116.5t29 -144t-29 -144t-78.5 -116.5t-116.5 -78t-143 -28.5zM295 779q-28 0 -47.5 19.5t-19.5 46.5q0 28 19.5 47.5t47.5 19.5q27 0 46 -19.5t19 -47.5q0 -27 -19 -46.5t-46 -19.5zM524 779q-27 0 -46.5 19.5t-19.5 46.5
q0 28 19.5 47.5t46.5 19.5q28 0 47 -19.5t19 -47.5q0 -27 -19 -46.5t-47 -19.5z" />
    <glyph glyph-name="multiply" unicode="&#xd7;" horiz-adv-x="504" 
d="M48 155l135 135l-135 134l69 68l135 -133l136 133l68 -68l-134 -134l134 -135l-68 -68l-136 133l-135 -133z" />
    <glyph glyph-name="Oslash" unicode="&#xd8;" horiz-adv-x="821" 
d="M411 101q52 0 97.5 20t79 54.5t52.5 80.5t19 99t-19 99t-52.5 80.5t-79 54.5t-97.5 20q-53 0 -98.5 -20t-79 -54.5t-52.5 -80.5t-19 -99t19 -99t52.5 -80.5t79 -54.5t98.5 -20zM411 -12q-77 0 -143.5 28.5t-116.5 78t-78.5 116.5t-28.5 144t28.5 144t78.5 116.5t116.5 78
t143.5 28.5q76 0 143 -28.5t116.5 -78t78.5 -116.5t29 -144t-29 -144t-78.5 -116.5t-116.5 -78t-143 -28.5zM127 -19l-68 66l636 682l67 -65z" />
    <glyph glyph-name="Ugrave" unicode="&#xd9;" horiz-adv-x="723" 
d="M362 -12q-63 0 -115 20.5t-89.5 58t-58 91.5t-20.5 120v432h117v-434q0 -84 45.5 -129.5t120.5 -45.5t120 45.5t45 129.5v434h117v-432q0 -66 -21 -120t-58.5 -91.5t-89 -58t-113.5 -20.5zM314 770l-118 157h129l75 -157h-86z" />
    <glyph glyph-name="Uacute" unicode="&#xda;" horiz-adv-x="723" 
d="M362 -12q-63 0 -115 20.5t-89.5 58t-58 91.5t-20.5 120v432h117v-434q0 -84 45.5 -129.5t120.5 -45.5t120 45.5t45 129.5v434h117v-432q0 -66 -21 -120t-58.5 -91.5t-89 -58t-113.5 -20.5zM401 927h129l-118 -157h-86z" />
    <glyph glyph-name="Ucircumflex" unicode="&#xdb;" horiz-adv-x="723" 
d="M362 -12q-63 0 -115 20.5t-89.5 58t-58 91.5t-20.5 120v432h117v-434q0 -84 45.5 -129.5t120.5 -45.5t120 45.5t45 129.5v434h117v-432q0 -66 -21 -120t-58.5 -91.5t-89 -58t-113.5 -20.5zM192 858l170 80l170 -80v-92l-170 80l-170 -80v92z" />
    <glyph glyph-name="Udieresis" unicode="&#xdc;" horiz-adv-x="723" 
d="M362 -12q-63 0 -115 20.5t-89.5 58t-58 91.5t-20.5 120v432h117v-434q0 -84 45.5 -129.5t120.5 -45.5t120 45.5t45 129.5v434h117v-432q0 -66 -21 -120t-58.5 -91.5t-89 -58t-113.5 -20.5zM248 779q-28 0 -47.5 19.5t-19.5 46.5q0 28 19.5 47.5t47.5 19.5q27 0 46 -19.5
t19 -47.5q0 -27 -19 -46.5t-46 -19.5zM477 779q-27 0 -46.5 19.5t-19.5 46.5q0 28 19.5 47.5t46.5 19.5q28 0 47 -19.5t19 -47.5q0 -27 -19 -46.5t-47 -19.5z" />
    <glyph glyph-name="Yacute" unicode="&#xdd;" horiz-adv-x="681" 
d="M282 300l-269 410h137l190 -294l191 294h138l-270 -411v-299h-117v300zM380 927h129l-118 -157h-86z" />
    <glyph glyph-name="Thorn" unicode="&#xde;" horiz-adv-x="596" 
d="M559 355q0 -49 -18 -91.5t-50.5 -73.5t-77.5 -49t-100 -18h-109v-123h-117v710h117v-123h109q55 0 100 -18t77.5 -49t50.5 -73.5t18 -91.5zM444 355q0 52 -34.5 87t-97.5 35h-108v-244h108q63 0 97.5 35t34.5 87z" />
    <glyph glyph-name="germandbls" unicode="&#xdf;" horiz-adv-x="579" 
d="M74 539q0 50 17.5 90t47 68.5t69 43.5t83.5 15t83 -15t68.5 -42t46.5 -63.5t17 -78.5q0 -46 -21.5 -87t-59.5 -70q57 -28 87 -77.5t30 -102.5q0 -46 -17.5 -86t-48.5 -70t-74 -47t-95 -17h-44v101h39q57 0 93 34t36 87q0 26 -9.5 48t-27 38t-41 25t-51.5 9h-38v101h21
q50 0 80 31t30 75q0 22 -7.5 41t-21.5 33.5t-33 23t-42 8.5q-46 0 -76.5 -32.5t-30.5 -83.5v-539h-110v539z" />
    <glyph glyph-name="agrave" unicode="&#xe0;" horiz-adv-x="624" 
d="M279 -10q-51 0 -95.5 20.5t-76.5 56t-50.5 82.5t-18.5 101t18.5 101t50.5 82.5t76.5 56t95.5 20.5q54 0 96.5 -23.5t63.5 -53.5v67h110v-500h-110v67q-21 -30 -63.5 -53.5t-96.5 -23.5zM299 90q33 0 60.5 12.5t47 34t30.5 50.5t11 63t-11 63t-30.5 50.5t-47 34
t-60.5 12.5t-60.5 -12.5t-47 -34t-30.5 -50.5t-11 -63t11 -63t30.5 -50.5t47 -34t60.5 -12.5zM128 750h133l100 -190h-85z" />
    <glyph glyph-name="aacute" unicode="&#xe1;" horiz-adv-x="624" 
d="M279 -10q-51 0 -95.5 20.5t-76.5 56t-50.5 82.5t-18.5 101t18.5 101t50.5 82.5t76.5 56t95.5 20.5q54 0 96.5 -23.5t63.5 -53.5v67h110v-500h-110v67q-21 -30 -63.5 -53.5t-96.5 -23.5zM299 90q33 0 60.5 12.5t47 34t30.5 50.5t11 63t-11 63t-30.5 50.5t-47 34
t-60.5 12.5t-60.5 -12.5t-47 -34t-30.5 -50.5t-11 -63t11 -63t30.5 -50.5t47 -34t60.5 -12.5zM382 750h133l-148 -190h-85z" />
    <glyph glyph-name="acircumflex" unicode="&#xe2;" horiz-adv-x="624" 
d="M279 -10q-51 0 -95.5 20.5t-76.5 56t-50.5 82.5t-18.5 101t18.5 101t50.5 82.5t76.5 56t95.5 20.5q54 0 96.5 -23.5t63.5 -53.5v67h110v-500h-110v67q-21 -30 -63.5 -53.5t-96.5 -23.5zM299 90q33 0 60.5 12.5t47 34t30.5 50.5t11 63t-11 63t-30.5 50.5t-47 34
t-60.5 12.5t-60.5 -12.5t-47 -34t-30.5 -50.5t-11 -63t11 -63t30.5 -50.5t47 -34t60.5 -12.5zM486 656v-93l-166 99l-166 -99v93l166 100z" />
    <glyph glyph-name="atilde" unicode="&#xe3;" horiz-adv-x="624" 
d="M279 -10q-51 0 -95.5 20.5t-76.5 56t-50.5 82.5t-18.5 101t18.5 101t50.5 82.5t76.5 56t95.5 20.5q54 0 96.5 -23.5t63.5 -53.5v67h110v-500h-110v67q-21 -30 -63.5 -53.5t-96.5 -23.5zM299 90q33 0 60.5 12.5t47 34t30.5 50.5t11 63t-11 63t-30.5 50.5t-47 34
t-60.5 12.5t-60.5 -12.5t-47 -34t-30.5 -50.5t-11 -63t11 -63t30.5 -50.5t47 -34t60.5 -12.5zM143 605q8 48 39 75t72 27q21 0 39.5 -7t35 -15.5t30 -15.5t25.5 -7q18 0 28 11.5t16 34.5h72l-4 -22q-8 -48 -39 -75.5t-72 -27.5q-21 0 -39.5 7t-35 15.5t-30 15.5t-25.5 7
q-18 0 -28 -11t-16 -34h-72z" />
    <glyph glyph-name="adieresis" unicode="&#xe4;" horiz-adv-x="624" 
d="M279 -10q-51 0 -95.5 20.5t-76.5 56t-50.5 82.5t-18.5 101t18.5 101t50.5 82.5t76.5 56t95.5 20.5q54 0 96.5 -23.5t63.5 -53.5v67h110v-500h-110v67q-21 -30 -63.5 -53.5t-96.5 -23.5zM299 90q33 0 60.5 12.5t47 34t30.5 50.5t11 63t-11 63t-30.5 50.5t-47 34
t-60.5 12.5t-60.5 -12.5t-47 -34t-30.5 -50.5t-11 -63t11 -63t30.5 -50.5t47 -34t60.5 -12.5zM206 587q-28 0 -47.5 19.5t-19.5 46.5q0 28 19.5 47.5t47.5 19.5q27 0 46 -19.5t19 -47.5q0 -27 -19 -46.5t-46 -19.5zM435 587q-27 0 -46.5 19.5t-19.5 46.5q0 28 19.5 47.5
t46.5 19.5q28 0 47 -19.5t19 -47.5q0 -27 -19 -46.5t-47 -19.5z" />
    <glyph glyph-name="aring" unicode="&#xe5;" horiz-adv-x="624" 
d="M279 -10q-51 0 -95.5 20.5t-76.5 56t-50.5 82.5t-18.5 101t18.5 101t50.5 82.5t76.5 56t95.5 20.5q54 0 96.5 -23.5t63.5 -53.5v67h110v-500h-110v67q-21 -30 -63.5 -53.5t-96.5 -23.5zM299 90q33 0 60.5 12.5t47 34t30.5 50.5t11 63t-11 63t-30.5 50.5t-47 34
t-60.5 12.5t-60.5 -12.5t-47 -34t-30.5 -50.5t-11 -63t11 -63t30.5 -50.5t47 -34t60.5 -12.5zM320 543q-25 0 -47 9.5t-38.5 26t-26 38t-9.5 46.5t9.5 46.5t26 38t38.5 26t47 9.5t47 -9.5t38.5 -26t26.5 -38t10 -46.5t-10 -46.5t-26.5 -38t-38.5 -26t-47 -9.5zM320 599
q28 0 47 18.5t19 45.5q0 26 -19 45.5t-47 19.5q-26 0 -45 -19.5t-19 -45.5q0 -27 19 -45.5t45 -18.5z" />
    <glyph glyph-name="ae" unicode="&#xe6;" horiz-adv-x="904" 
d="M619 -10q-53 0 -107.5 20t-96.5 69q-29 -46 -77.5 -67.5t-112.5 -21.5q-45 0 -80 12.5t-59 32.5t-36 46.5t-12 55.5q0 37 15.5 63t44 45t69.5 31.5t93 22.5q27 5 46.5 9t31.5 9.5t18 14t6 22.5q0 29 -23.5 46.5t-67.5 17.5q-46 0 -78 -21t-33 -64h-110q0 37 16.5 69
t46 56t69.5 38t88 14q55 0 98.5 -18t67.5 -60q34 38 82.5 58t100.5 20q55 0 101.5 -21t79.5 -59t50.5 -90.5t14.5 -116.5h-398q1 -29 12.5 -53.5t31 -43t46.5 -29t60 -10.5q42 0 76 17t51 53h114q-10 -36 -32 -66.5t-53 -53t-70 -35t-84 -12.5zM365 253q-12 -6 -28.5 -11.5
t-34 -11t-34.5 -10.5t-30 -9q-47 -13 -65.5 -28t-18.5 -42q0 -29 23.5 -46t63.5 -17q25 0 47.5 6.5t39.5 20t27 34t10 49.5v65zM612 418q-52 0 -91.5 -29.5t-50.5 -87.5h276q-12 61 -50.5 89t-83.5 28z" />
    <glyph glyph-name="ccedilla" unicode="&#xe7;" horiz-adv-x="584" 
d="M300 -10q-57 0 -105 20.5t-83 55.5t-54.5 82.5t-19.5 101.5t19.5 101.5t54.5 82.5t83 55.5t105 20.5q49 0 91.5 -14.5t75 -40.5t55 -61t32.5 -77h-116q-15 41 -50.5 67t-87.5 26q-33 0 -61 -12t-47.5 -33t-30.5 -50.5t-11 -64.5t11 -64.5t30.5 -50.5t47.5 -33t61 -12
q52 0 87.5 26t50.5 67h116q-10 -42 -32.5 -77t-55 -61t-75 -40.5t-91.5 -14.5zM191 -146q16 -9 37 -13t39 -4q24 0 44.5 8.5t20.5 29.5q0 15 -12 22t-33 7q-11 0 -22 -2.5t-21 -7.5l-34 20l54 89h58l-33 -54q9 3 19.5 5t23.5 2q35 0 59 -20t24 -57q0 -23 -11 -41
t-29.5 -30.5t-42.5 -19.5t-50 -7q-20 0 -44 2.5t-47 12.5v58z" />
    <glyph glyph-name="egrave" unicode="&#xe8;" horiz-adv-x="585" 
d="M295 -10q-56 0 -103 19.5t-81 54t-53 82.5t-19 104q0 55 18.5 103t52 82.5t81 54.5t105.5 20q57 0 105 -21t81.5 -59t50.5 -90.5t13 -116.5h-398q1 -29 12.5 -53.5t31 -43t47 -29t60.5 -10.5q42 0 75.5 17t50.5 53h115q-11 -35 -32.5 -65.5t-53 -53t-71.5 -35.5t-88 -13z
M293 418q-52 0 -91.5 -29.5t-50.5 -87.5h277q-13 61 -51 89t-84 28zM106 750h133l100 -190h-85z" />
    <glyph glyph-name="eacute" unicode="&#xe9;" horiz-adv-x="585" 
d="M295 -10q-56 0 -103 19.5t-81 54t-53 82.5t-19 104q0 55 18.5 103t52 82.5t81 54.5t105.5 20q57 0 105 -21t81.5 -59t50.5 -90.5t13 -116.5h-398q1 -29 12.5 -53.5t31 -43t47 -29t60.5 -10.5q42 0 75.5 17t50.5 53h115q-11 -35 -32.5 -65.5t-53 -53t-71.5 -35.5t-88 -13z
M293 418q-52 0 -91.5 -29.5t-50.5 -87.5h277q-13 61 -51 89t-84 28zM360 750h133l-148 -190h-85z" />
    <glyph glyph-name="ecircumflex" unicode="&#xea;" horiz-adv-x="585" 
d="M295 -10q-56 0 -103 19.5t-81 54t-53 82.5t-19 104q0 55 18.5 103t52 82.5t81 54.5t105.5 20q57 0 105 -21t81.5 -59t50.5 -90.5t13 -116.5h-398q1 -29 12.5 -53.5t31 -43t47 -29t60.5 -10.5q42 0 75.5 17t50.5 53h115q-11 -35 -32.5 -65.5t-53 -53t-71.5 -35.5t-88 -13z
M293 418q-52 0 -91.5 -29.5t-50.5 -87.5h277q-13 61 -51 89t-84 28zM464 656v-93l-166 99l-166 -99v93l166 100z" />
    <glyph glyph-name="edieresis" unicode="&#xeb;" horiz-adv-x="585" 
d="M295 -10q-56 0 -103 19.5t-81 54t-53 82.5t-19 104q0 55 18.5 103t52 82.5t81 54.5t105.5 20q57 0 105 -21t81.5 -59t50.5 -90.5t13 -116.5h-398q1 -29 12.5 -53.5t31 -43t47 -29t60.5 -10.5q42 0 75.5 17t50.5 53h115q-11 -35 -32.5 -65.5t-53 -53t-71.5 -35.5t-88 -13z
M293 418q-52 0 -91.5 -29.5t-50.5 -87.5h277q-13 61 -51 89t-84 28zM184 587q-28 0 -47.5 19.5t-19.5 46.5q0 28 19.5 47.5t47.5 19.5q27 0 46 -19.5t19 -47.5q0 -27 -19 -46.5t-46 -19.5zM413 587q-27 0 -46.5 19.5t-19.5 46.5q0 28 19.5 47.5t46.5 19.5q28 0 47 -19.5
t19 -47.5q0 -27 -19 -46.5t-47 -19.5z" />
    <glyph glyph-name="igrave" unicode="&#xec;" horiz-adv-x="258" 
d="M74 500h110v-500h-110v500zM-62 750h133l100 -190h-85z" />
    <glyph glyph-name="iacute" unicode="&#xed;" horiz-adv-x="258" 
d="M74 500h110v-500h-110v500zM191 750h133l-148 -190h-85z" />
    <glyph glyph-name="icircumflex" unicode="&#xee;" horiz-adv-x="258" 
d="M74 500h110v-500h-110v500zM295 656v-93l-166 99l-166 -99v93l166 100z" />
    <glyph glyph-name="idieresis" unicode="&#xef;" horiz-adv-x="258" 
d="M74 500h110v-500h-110v500zM32 587q-28 0 -47.5 20t-19.5 48t19.5 47.5t47.5 19.5t48 -19.5t20 -47.5t-20 -48t-48 -20zM225 587q-28 0 -47.5 20t-19.5 48t19.5 47.5t47.5 19.5t48 -19.5t20 -47.5t-20 -48t-48 -20z" />
    <glyph glyph-name="eth" unicode="&#xf0;" horiz-adv-x="601" 
d="M403 569l108 -162q23 -35 37.5 -73.5t14.5 -83.5q0 -54 -20 -101t-55.5 -82.5t-83.5 -56t-104 -20.5t-103.5 20.5t-83 56t-55.5 82.5t-20 101q0 58 22 105.5t58 81.5t81.5 52.5t93.5 18.5q7 0 14 -0.5t15 -1.5l-42 63h-139v78h88l-68 103h121l69 -103h119v-78h-67z
M300 92q33 0 61 12t48 33.5t31 50.5t11 62t-11 62t-31 50.5t-48 33.5t-61 12t-61 -12t-47.5 -33.5t-30.5 -50.5t-11 -62t11 -62t30.5 -50.5t47.5 -33.5t61 -12z" />
    <glyph glyph-name="ntilde" unicode="&#xf1;" horiz-adv-x="594" 
d="M74 500h110v-68q23 38 63 58t89 20q43 0 78.5 -15t60.5 -42t38.5 -65.5t13.5 -86.5v-301h-110v283q0 60 -28 93.5t-76 33.5q-55 0 -92 -41.5t-37 -122.5v-246h-110v500zM123 605q8 48 39 75t72 27q21 0 39.5 -7t35 -15.5t30 -15.5t25.5 -7q18 0 28 11.5t16 34.5h72
l-4 -22q-8 -48 -39 -75.5t-72 -27.5q-21 0 -39.5 7t-35 15.5t-30 15.5t-25.5 7q-18 0 -28 -11t-16 -34h-72z" />
    <glyph glyph-name="ograve" unicode="&#xf2;" horiz-adv-x="599" 
d="M300 -10q-56 0 -103.5 20t-83 55.5t-55.5 83t-20 101.5t20 101.5t55.5 83t83 55.5t103.5 20q55 0 103 -20t83.5 -55.5t55.5 -83t20 -101.5t-20 -101.5t-55.5 -83t-83.5 -55.5t-103 -20zM300 92q33 0 60.5 12t47.5 33.5t31 50.5t11 62t-11 62t-31 50.5t-47.5 33.5
t-60.5 12t-61 -12t-48 -33.5t-31 -50.5t-11 -62t11 -62t31 -50.5t48 -33.5t61 -12zM108 750h133l100 -190h-85z" />
    <glyph glyph-name="oacute" unicode="&#xf3;" horiz-adv-x="599" 
d="M300 -10q-56 0 -103.5 20t-83 55.5t-55.5 83t-20 101.5t20 101.5t55.5 83t83 55.5t103.5 20q55 0 103 -20t83.5 -55.5t55.5 -83t20 -101.5t-20 -101.5t-55.5 -83t-83.5 -55.5t-103 -20zM300 92q33 0 60.5 12t47.5 33.5t31 50.5t11 62t-11 62t-31 50.5t-47.5 33.5
t-60.5 12t-61 -12t-48 -33.5t-31 -50.5t-11 -62t11 -62t31 -50.5t48 -33.5t61 -12zM361 750h133l-148 -190h-85z" />
    <glyph glyph-name="ocircumflex" unicode="&#xf4;" horiz-adv-x="599" 
d="M300 -10q-56 0 -103.5 20t-83 55.5t-55.5 83t-20 101.5t20 101.5t55.5 83t83 55.5t103.5 20q55 0 103 -20t83.5 -55.5t55.5 -83t20 -101.5t-20 -101.5t-55.5 -83t-83.5 -55.5t-103 -20zM300 92q33 0 60.5 12t47.5 33.5t31 50.5t11 62t-11 62t-31 50.5t-47.5 33.5
t-60.5 12t-61 -12t-48 -33.5t-31 -50.5t-11 -62t11 -62t31 -50.5t48 -33.5t61 -12zM466 656v-93l-166 99l-166 -99v93l166 100z" />
    <glyph glyph-name="otilde" unicode="&#xf5;" horiz-adv-x="599" 
d="M300 -10q-56 0 -103.5 20t-83 55.5t-55.5 83t-20 101.5t20 101.5t55.5 83t83 55.5t103.5 20q55 0 103 -20t83.5 -55.5t55.5 -83t20 -101.5t-20 -101.5t-55.5 -83t-83.5 -55.5t-103 -20zM300 92q33 0 60.5 12t47.5 33.5t31 50.5t11 62t-11 62t-31 50.5t-47.5 33.5
t-60.5 12t-61 -12t-48 -33.5t-31 -50.5t-11 -62t11 -62t31 -50.5t48 -33.5t61 -12zM123 605q8 48 39 75t72 27q21 0 39.5 -7t35 -15.5t30 -15.5t25.5 -7q18 0 28 11.5t16 34.5h72l-4 -22q-8 -48 -39 -75.5t-72 -27.5q-21 0 -39.5 7t-35 15.5t-30 15.5t-25.5 7q-18 0 -28 -11
t-16 -34h-72z" />
    <glyph glyph-name="odieresis" unicode="&#xf6;" horiz-adv-x="599" 
d="M300 -10q-56 0 -103.5 20t-83 55.5t-55.5 83t-20 101.5t20 101.5t55.5 83t83 55.5t103.5 20q55 0 103 -20t83.5 -55.5t55.5 -83t20 -101.5t-20 -101.5t-55.5 -83t-83.5 -55.5t-103 -20zM300 92q33 0 60.5 12t47.5 33.5t31 50.5t11 62t-11 62t-31 50.5t-47.5 33.5
t-60.5 12t-61 -12t-48 -33.5t-31 -50.5t-11 -62t11 -62t31 -50.5t48 -33.5t61 -12zM186 587q-28 0 -47.5 19.5t-19.5 46.5q0 28 19.5 47.5t47.5 19.5q27 0 46 -19.5t19 -47.5q0 -27 -19 -46.5t-46 -19.5zM415 587q-27 0 -46.5 19.5t-19.5 46.5q0 28 19.5 47.5t46.5 19.5
q28 0 47 -19.5t19 -47.5q0 -27 -19 -46.5t-47 -19.5z" />
    <glyph glyph-name="oslash" unicode="&#xf8;" horiz-adv-x="608" 
d="M305 -10q-56 0 -103.5 20t-83 55.5t-55.5 83t-20 101.5t20 101.5t55.5 83t83 55.5t103.5 20q55 0 103 -20t83.5 -55.5t55.5 -83t20 -101.5t-20 -101.5t-55.5 -83t-83.5 -55.5t-103 -20zM305 92q33 0 60.5 12t47.5 33.5t31 50.5t11 62t-11 62t-31 50.5t-47.5 33.5
t-60.5 12t-61 -12t-48 -33.5t-31 -50.5t-11 -62t11 -62t31 -50.5t48 -33.5t61 -12zM89 -10l-42 43l472 477l42 -42z" />
    <glyph glyph-name="ugrave" unicode="&#xf9;" horiz-adv-x="583" 
d="M253 -10q-43 0 -77.5 15t-58.5 42.5t-37 66.5t-13 87v299h110v-281q0 -60 26 -94.5t74 -34.5q54 0 88 41.5t34 122.5v246h110v-500h-110v68q-22 -38 -60 -58t-86 -20zM96 750h133l100 -190h-85z" />
    <glyph glyph-name="uacute" unicode="&#xfa;" horiz-adv-x="583" 
d="M253 -10q-43 0 -77.5 15t-58.5 42.5t-37 66.5t-13 87v299h110v-281q0 -60 26 -94.5t74 -34.5q54 0 88 41.5t34 122.5v246h110v-500h-110v68q-22 -38 -60 -58t-86 -20zM350 750h133l-148 -190h-85z" />
    <glyph glyph-name="ucircumflex" unicode="&#xfb;" horiz-adv-x="583" 
d="M253 -10q-43 0 -77.5 15t-58.5 42.5t-37 66.5t-13 87v299h110v-281q0 -60 26 -94.5t74 -34.5q54 0 88 41.5t34 122.5v246h110v-500h-110v68q-22 -38 -60 -58t-86 -20zM454 656v-93l-166 99l-166 -99v93l166 100z" />
    <glyph glyph-name="udieresis" unicode="&#xfc;" horiz-adv-x="583" 
d="M253 -10q-43 0 -77.5 15t-58.5 42.5t-37 66.5t-13 87v299h110v-281q0 -60 26 -94.5t74 -34.5q54 0 88 41.5t34 122.5v246h110v-500h-110v68q-22 -38 -60 -58t-86 -20zM174 587q-28 0 -47.5 19.5t-19.5 46.5q0 28 19.5 47.5t47.5 19.5q27 0 46 -19.5t19 -47.5
q0 -27 -19 -46.5t-46 -19.5zM403 587q-27 0 -46.5 19.5t-19.5 46.5q0 28 19.5 47.5t46.5 19.5q28 0 47 -19.5t19 -47.5q0 -27 -19 -46.5t-47 -19.5z" />
    <glyph glyph-name="yacute" unicode="&#xfd;" horiz-adv-x="558" 
d="M113 -209l107 236l-215 473h121l153 -354l154 354h122l-321 -709h-121zM343 750h133l-148 -190h-85z" />
    <glyph glyph-name="thorn" unicode="&#xfe;" horiz-adv-x="624" 
d="M74 -209v959h110v-317q21 30 64 53.5t97 23.5q51 0 95.5 -20.5t76.5 -56t50.5 -82.5t18.5 -101t-18.5 -101t-50.5 -82.5t-76.5 -56t-95.5 -20.5q-54 0 -97 23.5t-64 53.5v-276h-110zM325 90q33 0 60.5 12.5t47 34t30.5 50.5t11 63t-11 63t-30.5 50.5t-47 34t-60.5 12.5
t-61 -12.5t-47.5 -34t-30.5 -50.5t-11 -63t11 -63t30.5 -50.5t47.5 -34t61 -12.5z" />
    <glyph glyph-name="ydieresis" unicode="&#xff;" horiz-adv-x="558" 
d="M113 -209l107 236l-215 473h121l153 -354l154 354h122l-321 -709h-121zM167 587q-28 0 -47.5 19.5t-19.5 46.5q0 28 19.5 47.5t47.5 19.5q27 0 46 -19.5t19 -47.5q0 -27 -19 -46.5t-46 -19.5zM396 587q-27 0 -46.5 19.5t-19.5 46.5q0 28 19.5 47.5t46.5 19.5
q28 0 47 -19.5t19 -47.5q0 -27 -19 -46.5t-47 -19.5z" />
    <glyph glyph-name="Abreve" unicode="&#x102;" horiz-adv-x="730" 
d="M314 710h102l310 -710h-122l-81 186h-318l-80 -186h-121zM250 290h228l-114 262zM365 755q-34 0 -64.5 11.5t-53 33t-35.5 52.5t-13 69h68q0 -48 28.5 -73t69.5 -25t69.5 25t28.5 73h68q0 -38 -13 -69t-35.5 -52.5t-53 -33t-64.5 -11.5z" />
    <glyph glyph-name="Amacron" unicode="&#x100;" horiz-adv-x="730" 
d="M314 710h102l310 -710h-122l-81 186h-318l-80 -186h-121zM250 290h228l-114 262zM199 880h332v-82h-332v82z" />
    <glyph glyph-name="Aogonek" unicode="&#x104;" horiz-adv-x="730" 
d="M314 710h102l310 -710q-45 -25 -67 -51.5t-22 -49.5q0 -16 11 -22.5t25 -6.5q17 0 30.5 5.5t22.5 13.5v-81q-12 -10 -35.5 -18.5t-55.5 -8.5q-45 0 -73.5 26t-28.5 68t21.5 72.5t49.5 52.5l-81 186h-318l-80 -186h-121zM250 290h228l-114 262z" />
    <glyph glyph-name="Cacute" unicode="&#x106;" horiz-adv-x="785" 
d="M412 -12q-79 0 -147 28t-117.5 77.5t-77.5 116.5t-28 145t28 145t77.5 116.5t117.5 77.5t147 28q64 0 120.5 -19.5t101.5 -53.5t76 -79.5t44 -97.5h-126q-11 30 -32 55.5t-49.5 43.5t-63 28t-71.5 10q-56 0 -102 -19.5t-79.5 -54t-52 -80.5t-18.5 -100t18.5 -100
t52 -80.5t79.5 -54t102 -19.5q37 0 71.5 10t63 28t49.5 43.5t32 55.5h126q-13 -52 -44 -97.5t-76 -79.5t-101.5 -53.5t-120.5 -19.5zM447 927h129l-118 -157h-86z" />
    <glyph glyph-name="Ccaron" unicode="&#x10c;" horiz-adv-x="785" 
d="M412 -12q-79 0 -147 28t-117.5 77.5t-77.5 116.5t-28 145t28 145t77.5 116.5t117.5 77.5t147 28q64 0 120.5 -19.5t101.5 -53.5t76 -79.5t44 -97.5h-126q-11 30 -32 55.5t-49.5 43.5t-63 28t-71.5 10q-56 0 -102 -19.5t-79.5 -54t-52 -80.5t-18.5 -100t18.5 -100
t52 -80.5t79.5 -54t102 -19.5q37 0 71.5 10t63 28t49.5 43.5t32 55.5h126q-13 -52 -44 -97.5t-76 -79.5t-101.5 -53.5t-120.5 -19.5zM237 846v92l170 -80l170 80v-92l-170 -80z" />
    <glyph glyph-name="Ccircumflex" unicode="&#x108;" horiz-adv-x="785" 
d="M412 -12q-79 0 -147 28t-117.5 77.5t-77.5 116.5t-28 145t28 145t77.5 116.5t117.5 77.5t147 28q64 0 120.5 -19.5t101.5 -53.5t76 -79.5t44 -97.5h-126q-11 30 -32 55.5t-49.5 43.5t-63 28t-71.5 10q-56 0 -102 -19.5t-79.5 -54t-52 -80.5t-18.5 -100t18.5 -100
t52 -80.5t79.5 -54t102 -19.5q37 0 71.5 10t63 28t49.5 43.5t32 55.5h126q-13 -52 -44 -97.5t-76 -79.5t-101.5 -53.5t-120.5 -19.5zM237 858l170 80l170 -80v-92l-170 80l-170 -80v92z" />
    <glyph glyph-name="Cdotaccent" unicode="&#x10a;" horiz-adv-x="785" 
d="M412 -12q-79 0 -147 28t-117.5 77.5t-77.5 116.5t-28 145t28 145t77.5 116.5t117.5 77.5t147 28q64 0 120.5 -19.5t101.5 -53.5t76 -79.5t44 -97.5h-126q-11 30 -32 55.5t-49.5 43.5t-63 28t-71.5 10q-56 0 -102 -19.5t-79.5 -54t-52 -80.5t-18.5 -100t18.5 -100
t52 -80.5t79.5 -54t102 -19.5q37 0 71.5 10t63 28t49.5 43.5t32 55.5h126q-13 -52 -44 -97.5t-76 -79.5t-101.5 -53.5t-120.5 -19.5zM407 779q-28 0 -47.5 19.5t-19.5 46.5q0 28 19.5 47.5t47.5 19.5q27 0 46.5 -19.5t19.5 -47.5q0 -27 -19.5 -46.5t-46.5 -19.5z" />
    <glyph glyph-name="Dcaron" unicode="&#x10e;" horiz-adv-x="719" 
d="M87 710h218q79 0 147 -27t118 -75t78.5 -113t28.5 -140t-28.5 -140t-78.5 -113t-118 -75t-147 -27h-218v710zM305 109q57 0 103.5 19t80 52t51.5 78t18 97t-18 97t-51.5 78t-80 52t-103.5 19h-101v-492h101zM170 846v92l170 -80l170 80v-92l-170 -80z" />
    <glyph glyph-name="Dcroat" unicode="&#x110;" horiz-adv-x="730" 
d="M98 710h218q79 0 147 -27t118 -75t78.5 -113t28.5 -140t-28.5 -140t-78.5 -113t-118 -75t-147 -27h-218v710zM316 109q57 0 103.5 19t80 52t51.5 78t18 97t-18 97t-51.5 78t-80 52t-103.5 19h-101v-492h101zM25 410h335v-102h-335v102z" />
    <glyph glyph-name="Ebreve" unicode="&#x114;" horiz-adv-x="562" 
d="M87 710h427v-112h-310v-182h250v-112h-250v-192h310v-112h-427v710zM300 755q-34 0 -64.5 11.5t-53 33t-35.5 52.5t-13 69h68q0 -48 28.5 -73t69.5 -25t69.5 25t28.5 73h68q0 -38 -13 -69t-35.5 -52.5t-53 -33t-64.5 -11.5z" />
    <glyph glyph-name="Ecaron" unicode="&#x11a;" horiz-adv-x="562" 
d="M87 710h427v-112h-310v-182h250v-112h-250v-192h310v-112h-427v710zM130 846v92l170 -80l170 80v-92l-170 -80z" />
    <glyph glyph-name="Emacron" unicode="&#x112;" horiz-adv-x="562" 
d="M87 710h427v-112h-310v-182h250v-112h-250v-192h310v-112h-427v710zM134 880h332v-82h-332v82z" />
    <glyph glyph-name="Eogonek" unicode="&#x118;" horiz-adv-x="562" 
d="M87 710h427v-112h-310v-182h250v-112h-250v-192h310v-112h-427v710zM424 -219q-45 0 -74 26t-29 68q0 41 24 72t52 53h117q-45 -25 -67 -51.5t-22 -49.5q0 -16 11 -22.5t25 -6.5q17 0 30.5 5.5t22.5 13.5v-81q-12 -10 -35 -18.5t-55 -8.5z" />
    <glyph glyph-name="Edotaccent" unicode="&#x116;" horiz-adv-x="562" 
d="M87 710h427v-112h-310v-182h250v-112h-250v-192h310v-112h-427v710zM300 779q-28 0 -47.5 19.5t-19.5 46.5q0 28 19.5 47.5t47.5 19.5q27 0 46.5 -19.5t19.5 -47.5q0 -27 -19.5 -46.5t-46.5 -19.5z" />
    <glyph glyph-name="Gbreve" unicode="&#x11e;" horiz-adv-x="811" 
d="M413 -12q-80 0 -147.5 28t-117.5 77.5t-78 116.5t-28 145t28 145t77.5 116.5t117.5 77.5t147 28q60 0 113.5 -17t97.5 -47t76 -70.5t49 -87.5h-133q-28 49 -82 79t-121 30q-56 0 -102 -19.5t-79.5 -54t-52 -80.5t-18.5 -100t18.5 -100t52 -80.5t80 -54t102.5 -19.5
q49 0 89.5 15t70.5 42t48.5 64.5t24.5 82.5h-243v110h363q10 -103 -14.5 -182.5t-73.5 -134t-118 -82.5t-147 -28zM412 755q-34 0 -64.5 11.5t-53 33t-35.5 52.5t-13 69h68q0 -48 28.5 -73t69.5 -25t69.5 25t28.5 73h68q0 -38 -13 -69t-35.5 -52.5t-53 -33t-64.5 -11.5z" />
    <glyph glyph-name="Gcircumflex" unicode="&#x11c;" horiz-adv-x="811" 
d="M413 -12q-80 0 -147.5 28t-117.5 77.5t-78 116.5t-28 145t28 145t77.5 116.5t117.5 77.5t147 28q60 0 113.5 -17t97.5 -47t76 -70.5t49 -87.5h-133q-28 49 -82 79t-121 30q-56 0 -102 -19.5t-79.5 -54t-52 -80.5t-18.5 -100t18.5 -100t52 -80.5t80 -54t102.5 -19.5
q49 0 89.5 15t70.5 42t48.5 64.5t24.5 82.5h-243v110h363q10 -103 -14.5 -182.5t-73.5 -134t-118 -82.5t-147 -28zM242 858l170 80l170 -80v-92l-170 80l-170 -80v92z" />
    <glyph glyph-name="uni0122" unicode="&#x122;" horiz-adv-x="811" 
d="M413 -12q-80 0 -147.5 28t-117.5 77.5t-78 116.5t-28 145t28 145t77.5 116.5t117.5 77.5t147 28q60 0 113.5 -17t97.5 -47t76 -70.5t49 -87.5h-133q-28 49 -82 79t-121 30q-56 0 -102 -19.5t-79.5 -54t-52 -80.5t-18.5 -100t18.5 -100t52 -80.5t80 -54t102.5 -19.5
q49 0 89.5 15t70.5 42t48.5 64.5t24.5 82.5h-243v110h363q10 -103 -14.5 -182.5t-73.5 -134t-118 -82.5t-147 -28zM384 -197q-16 8 -27 24t-11 36q0 27 19 46.5t47 19.5q27 0 46.5 -19.5t19.5 -46.5q0 -22 -13 -41l-68 -109h-52z" />
    <glyph glyph-name="Gdotaccent" unicode="&#x120;" horiz-adv-x="811" 
d="M413 -12q-80 0 -147.5 28t-117.5 77.5t-78 116.5t-28 145t28 145t77.5 116.5t117.5 77.5t147 28q60 0 113.5 -17t97.5 -47t76 -70.5t49 -87.5h-133q-28 49 -82 79t-121 30q-56 0 -102 -19.5t-79.5 -54t-52 -80.5t-18.5 -100t18.5 -100t52 -80.5t80 -54t102.5 -19.5
q49 0 89.5 15t70.5 42t48.5 64.5t24.5 82.5h-243v110h363q10 -103 -14.5 -182.5t-73.5 -134t-118 -82.5t-147 -28zM412 779q-28 0 -47.5 19.5t-19.5 46.5q0 28 19.5 47.5t47.5 19.5q27 0 46.5 -19.5t19.5 -47.5q0 -27 -19.5 -46.5t-46.5 -19.5z" />
    <glyph glyph-name="Hbar" unicode="&#x126;" horiz-adv-x="781" 
d="M98 710h117v-294h351v294h117v-710h-117v305h-351v-305h-117v710zM25 607h731v-85h-731v85z" />
    <glyph glyph-name="Hcircumflex" unicode="&#x124;" horiz-adv-x="760" 
d="M87 710h117v-294h351v294h117v-710h-117v305h-351v-305h-117v710zM210 858l170 80l170 -80v-92l-170 80l-170 -80v92z" />
    <glyph glyph-name="Ibreve" unicode="&#x12c;" horiz-adv-x="291" 
d="M87 710h117v-710h-117v710zM146 755q-34 0 -64.5 11.5t-53 33t-35.5 52.5t-13 69h68q0 -48 28.5 -73t69.5 -25t69.5 25t28.5 73h68q0 -38 -13 -69t-35.5 -52.5t-53 -33t-64.5 -11.5z" />
    <glyph glyph-name="Idotaccent" unicode="&#x130;" horiz-adv-x="291" 
d="M87 710h117v-710h-117v710zM146 779q-28 0 -47.5 19.5t-19.5 46.5q0 28 19.5 47.5t47.5 19.5q27 0 46.5 -19.5t19.5 -47.5q0 -27 -19.5 -46.5t-46.5 -19.5z" />
    <glyph glyph-name="Imacron" unicode="&#x12a;" horiz-adv-x="291" 
d="M87 710h117v-710h-117v710zM-20 880h332v-82h-332v82z" />
    <glyph glyph-name="Iogonek" unicode="&#x12e;" horiz-adv-x="291" 
d="M87 710h117v-710h-117v710zM114 -219q-45 0 -74 26t-29 68q0 41 24 72t52 53h117q-45 -25 -67 -51.5t-22 -49.5q0 -16 11 -22.5t25 -6.5q17 0 30.5 5.5t22.5 13.5v-81q-12 -10 -35 -18.5t-55 -8.5z" />
    <glyph glyph-name="Itilde" unicode="&#x128;" horiz-adv-x="291" 
d="M87 710h117v-710h-117v710zM-31 804q8 48 39.5 75.5t72.5 27.5q21 0 39 -7t34.5 -15.5t30.5 -15.5t26 -7q18 0 28 11t15 34h72l-3 -22q-8 -48 -39.5 -75t-72.5 -27q-21 0 -39.5 7t-35 15.5t-30 15.5t-25.5 7q-18 0 -28 -11.5t-16 -34.5h-71z" />
    <glyph glyph-name="uni1ECA" unicode="&#x1eca;" horiz-adv-x="291" 
d="M87 710h117v-710h-117v710zM146 -204q-28 0 -47.5 19.5t-19.5 47.5q0 27 19.5 46.5t47.5 19.5q27 0 46.5 -19.5t19.5 -46.5q0 -28 -19.5 -47.5t-46.5 -19.5z" />
    <glyph glyph-name="Jcircumflex" unicode="&#x134;" horiz-adv-x="537" 
d="M239 -12q-44 0 -83.5 13t-69.5 39t-47.5 65t-17.5 92h116q0 -25 8.5 -43.5t22.5 -31t32.5 -19t38.5 -6.5t38 6t32 19t22 33.5t8 49.5v505h117v-515q0 -55 -18 -94.5t-48 -64.5t-69 -36.5t-82 -11.5zM227 858l170 80l170 -80v-92l-170 80l-170 -80v92z" />
    <glyph glyph-name="uni0136" unicode="&#x136;" horiz-adv-x="682" 
d="M203 332v-332h-116v710h116v-306l285 306h148l-316 -340l386 -370h-158zM347 -197q-16 8 -27 24t-11 36q0 27 19 46.5t47 19.5q27 0 46.5 -19.5t19.5 -46.5q0 -22 -13 -41l-68 -109h-52z" />
    <glyph glyph-name="Lacute" unicode="&#x139;" horiz-adv-x="549" 
d="M87 710h117v-598h325v-112h-442v710zM187 927h129l-118 -157h-86z" />
    <glyph glyph-name="Lcaron" unicode="&#x13d;" horiz-adv-x="550" 
d="M87 710h117v-598h325v-112h-442v710zM313 750h110l-57 -163h-75z" />
    <glyph glyph-name="uni013B" unicode="&#x13b;" horiz-adv-x="549" 
d="M87 710h117v-598h325v-112h-442v710zM277 -197q-16 8 -27 24t-11 36q0 27 19 46.5t47 19.5q27 0 46.5 -19.5t19.5 -46.5q0 -22 -13 -41l-68 -109h-52z" />
    <glyph glyph-name="Ldot" unicode="&#x13f;" horiz-adv-x="555" 
d="M87 710h117v-598h325v-112h-442v710zM420 345q-28 0 -47.5 19.5t-19.5 46.5q0 28 19.5 47.5t47.5 19.5q27 0 46.5 -19.5t19.5 -47.5q0 -27 -19.5 -46.5t-46.5 -19.5z" />
    <glyph glyph-name="glyph221" horiz-adv-x="555" 
d="M87 710h117v-598h325v-112h-442v710zM420 345q-28 0 -47.5 19.5t-19.5 46.5q0 28 19.5 47.5t47.5 19.5q27 0 46.5 -19.5t19.5 -47.5q0 -27 -19.5 -46.5t-46.5 -19.5z" />
    <glyph glyph-name="Lslash" unicode="&#x141;" horiz-adv-x="573" 
d="M110 710h117v-598h325v-112h-442v710zM38 213v99l338 208v-99z" />
    <glyph glyph-name="Eng" unicode="&#x14a;" horiz-adv-x="793" 
d="M706 -53q0 -42 -13 -73t-36.5 -52t-55 -31t-67.5 -10q-26 0 -45.5 3.5t-35.5 8.5v105q12 -4 28 -6.5t32 -2.5q38 0 56.5 18.5t18.5 65.5v47l-384 491v-511h-117v710h102l399 -510v510h118v-763z" />
    <glyph glyph-name="Nacute" unicode="&#x143;" horiz-adv-x="793" 
d="M604 0l-400 511v-511h-117v710h102l399 -510v510h118v-710h-102zM434 927h129l-118 -157h-86z" />
    <glyph glyph-name="Ncaron" unicode="&#x147;" horiz-adv-x="793" 
d="M604 0l-400 511v-511h-117v710h102l399 -510v510h118v-710h-102zM224 846v92l170 -80l170 80v-92l-170 -80z" />
    <glyph glyph-name="uni0145" unicode="&#x145;" horiz-adv-x="793" 
d="M604 0l-400 511v-511h-117v710h102l399 -510v510h118v-710h-102zM370 -197q-16 8 -27 24t-11 36q0 27 19 46.5t47 19.5q27 0 46.5 -19.5t19.5 -46.5q0 -22 -13 -41l-68 -109h-52z" />
    <glyph glyph-name="OE" unicode="&#x152;" horiz-adv-x="1132" 
d="M409 101q52 0 97.5 20t79 54.5t52.5 80.5t19 99t-19 99t-52.5 80.5t-79 54.5t-97.5 20q-53 0 -98.5 -20t-79 -54.5t-52.5 -80.5t-19 -99t19 -99t52.5 -80.5t79 -54.5t98.5 -20zM657 95q-44 -52 -108.5 -79.5t-139.5 -27.5q-77 0 -143.5 28.5t-116.5 78t-78.5 116.5
t-28.5 144t28.5 144t78.5 116.5t116.5 78t143.5 28.5q75 0 139.5 -27.5t108.5 -79.5v95h427v-112h-309v-182h249v-112h-249v-192h309v-112h-427v95z" />
    <glyph glyph-name="Obreve" unicode="&#x14e;" horiz-adv-x="817" 
d="M409 101q52 0 97.5 20t79 54.5t52.5 80.5t19 99t-19 99t-52.5 80.5t-79 54.5t-97.5 20q-53 0 -98.5 -20t-79 -54.5t-52.5 -80.5t-19 -99t19 -99t52.5 -80.5t79 -54.5t98.5 -20zM409 -12q-77 0 -143.5 28.5t-116.5 78t-78.5 116.5t-28.5 144t28.5 144t78.5 116.5t116.5 78
t143.5 28.5q76 0 143 -28.5t116.5 -78t78.5 -116.5t29 -144t-29 -144t-78.5 -116.5t-116.5 -78t-143 -28.5zM409 755q-34 0 -64.5 11.5t-53 33t-35.5 52.5t-13 69h68q0 -48 28.5 -73t69.5 -25t69.5 25t28.5 73h68q0 -38 -13 -69t-35.5 -52.5t-53 -33t-64.5 -11.5z" />
    <glyph glyph-name="Ohungarumlaut" unicode="&#x150;" horiz-adv-x="817" 
d="M409 101q52 0 97.5 20t79 54.5t52.5 80.5t19 99t-19 99t-52.5 80.5t-79 54.5t-97.5 20q-53 0 -98.5 -20t-79 -54.5t-52.5 -80.5t-19 -99t19 -99t52.5 -80.5t79 -54.5t98.5 -20zM409 -12q-77 0 -143.5 28.5t-116.5 78t-78.5 116.5t-28.5 144t28.5 144t78.5 116.5t116.5 78
t143.5 28.5q76 0 143 -28.5t116.5 -78t78.5 -116.5t29 -144t-29 -144t-78.5 -116.5t-116.5 -78t-143 -28.5zM530 927h120l-116 -157h-72zM355 927h121l-116 -157h-72z" />
    <glyph glyph-name="Omacron" unicode="&#x14c;" horiz-adv-x="817" 
d="M409 101q52 0 97.5 20t79 54.5t52.5 80.5t19 99t-19 99t-52.5 80.5t-79 54.5t-97.5 20q-53 0 -98.5 -20t-79 -54.5t-52.5 -80.5t-19 -99t19 -99t52.5 -80.5t79 -54.5t98.5 -20zM409 -12q-77 0 -143.5 28.5t-116.5 78t-78.5 116.5t-28.5 144t28.5 144t78.5 116.5t116.5 78
t143.5 28.5q76 0 143 -28.5t116.5 -78t78.5 -116.5t29 -144t-29 -144t-78.5 -116.5t-116.5 -78t-143 -28.5zM243 880h332v-82h-332v82z" />
    <glyph glyph-name="uni1ECC" unicode="&#x1ecc;" horiz-adv-x="817" 
d="M409 101q52 0 97.5 20t79 54.5t52.5 80.5t19 99t-19 99t-52.5 80.5t-79 54.5t-97.5 20q-53 0 -98.5 -20t-79 -54.5t-52.5 -80.5t-19 -99t19 -99t52.5 -80.5t79 -54.5t98.5 -20zM409 -12q-77 0 -143.5 28.5t-116.5 78t-78.5 116.5t-28.5 144t28.5 144t78.5 116.5t116.5 78
t143.5 28.5q76 0 143 -28.5t116.5 -78t78.5 -116.5t29 -144t-29 -144t-78.5 -116.5t-116.5 -78t-143 -28.5zM409 -204q-28 0 -47.5 19.5t-19.5 47.5q0 27 19.5 46.5t47.5 19.5q27 0 46.5 -19.5t19.5 -46.5q0 -28 -19.5 -47.5t-46.5 -19.5z" />
    <glyph glyph-name="Racute" unicode="&#x154;" horiz-adv-x="645" 
d="M87 710h256q49 0 89 -15t68 -42t43 -64t15 -81q0 -75 -42 -123.5t-119 -65.5l264 -319h-144l-260 312h-53v-312h-117v710zM329 414q52 0 82 24t30 70t-30 70t-82 24h-125v-188h125zM340 927h129l-118 -157h-86z" />
    <glyph glyph-name="Rcaron" unicode="&#x158;" horiz-adv-x="645" 
d="M87 710h256q49 0 89 -15t68 -42t43 -64t15 -81q0 -75 -42 -123.5t-119 -65.5l264 -319h-144l-260 312h-53v-312h-117v710zM329 414q52 0 82 24t30 70t-30 70t-82 24h-125v-188h125zM130 846v92l170 -80l170 80v-92l-170 -80z" />
    <glyph glyph-name="uni0156" unicode="&#x156;" horiz-adv-x="645" 
d="M87 710h256q49 0 89 -15t68 -42t43 -64t15 -81q0 -75 -42 -123.5t-119 -65.5l264 -319h-144l-260 312h-53v-312h-117v710zM329 414q52 0 82 24t30 70t-30 70t-82 24h-125v-188h125zM332 -197q-16 8 -27 24t-11 36q0 27 19 46.5t47 19.5q27 0 46.5 -19.5t19.5 -46.5
q0 -22 -13 -41l-68 -109h-52z" />
    <glyph glyph-name="Sacute" unicode="&#x15a;" horiz-adv-x="577" 
d="M298 -12q-60 0 -107 18t-80 48t-51.5 69t-20.5 81h117q3 -27 16.5 -47t33 -33.5t43.5 -20t48 -6.5q51 0 85 24t34 66q0 72 -98 104l-87 29q-85 27 -129.5 77t-44.5 128q0 46 16.5 82.5t46.5 62t71.5 39t91.5 13.5q55 0 98 -18t73 -46.5t46 -65t19 -73.5h-117
q-6 25 -18.5 43t-29 29t-35.5 16.5t-38 5.5q-45 0 -75.5 -22t-31.5 -60q0 -39 24 -62t72 -39l88 -28q84 -27 130 -78.5t46 -132.5q0 -45 -17 -82.5t-48.5 -64t-75 -41.5t-95.5 -15zM328 927h129l-118 -157h-86z" />
    <glyph glyph-name="Scaron" unicode="&#x160;" horiz-adv-x="577" 
d="M298 -12q-60 0 -107 18t-80 48t-51.5 69t-20.5 81h117q3 -27 16.5 -47t33 -33.5t43.5 -20t48 -6.5q51 0 85 24t34 66q0 72 -98 104l-87 29q-85 27 -129.5 77t-44.5 128q0 46 16.5 82.5t46.5 62t71.5 39t91.5 13.5q55 0 98 -18t73 -46.5t46 -65t19 -73.5h-117
q-6 25 -18.5 43t-29 29t-35.5 16.5t-38 5.5q-45 0 -75.5 -22t-31.5 -60q0 -39 24 -62t72 -39l88 -28q84 -27 130 -78.5t46 -132.5q0 -45 -17 -82.5t-48.5 -64t-75 -41.5t-95.5 -15zM118 846v92l170 -80l170 80v-92l-170 -80z" />
    <glyph glyph-name="Scedilla" unicode="&#x15e;" horiz-adv-x="577" 
d="M298 -12q-60 0 -107 18t-80 48t-51.5 69t-20.5 81h117q3 -27 16.5 -47t33 -33.5t43.5 -20t48 -6.5q51 0 85 24t34 66q0 72 -98 104l-87 29q-85 27 -129.5 77t-44.5 128q0 46 16.5 82.5t46.5 62t71.5 39t91.5 13.5q55 0 98 -18t73 -46.5t46 -65t19 -73.5h-117
q-6 25 -18.5 43t-29 29t-35.5 16.5t-38 5.5q-45 0 -75.5 -22t-31.5 -60q0 -39 24 -62t72 -39l88 -28q84 -27 130 -78.5t46 -132.5q0 -45 -17 -82.5t-48.5 -64t-75 -41.5t-95.5 -15zM184 -146q16 -9 37 -13t39 -4q24 0 44.5 8.5t20.5 29.5q0 15 -12 22t-33 7q-10 0 -21 -2.5
t-22 -7.5l-34 20l54 89h58l-32 -54q9 3 19 5t24 2q35 0 58.5 -20t23.5 -57q0 -23 -11 -41t-29 -30.5t-42 -19.5t-50 -7q-20 0 -44.5 2.5t-47.5 12.5v58z" />
    <glyph glyph-name="Scircumflex" unicode="&#x15c;" horiz-adv-x="577" 
d="M298 -12q-60 0 -107 18t-80 48t-51.5 69t-20.5 81h117q3 -27 16.5 -47t33 -33.5t43.5 -20t48 -6.5q51 0 85 24t34 66q0 72 -98 104l-87 29q-85 27 -129.5 77t-44.5 128q0 46 16.5 82.5t46.5 62t71.5 39t91.5 13.5q55 0 98 -18t73 -46.5t46 -65t19 -73.5h-117
q-6 25 -18.5 43t-29 29t-35.5 16.5t-38 5.5q-45 0 -75.5 -22t-31.5 -60q0 -39 24 -62t72 -39l88 -28q84 -27 130 -78.5t46 -132.5q0 -45 -17 -82.5t-48.5 -64t-75 -41.5t-95.5 -15zM118 858l170 80l170 -80v-92l-170 80l-170 -80v92z" />
    <glyph glyph-name="uni0218" unicode="&#x218;" horiz-adv-x="577" 
d="M298 -12q-60 0 -107 18t-80 48t-51.5 69t-20.5 81h117q3 -27 16.5 -47t33 -33.5t43.5 -20t48 -6.5q51 0 85 24t34 66q0 72 -98 104l-87 29q-85 27 -129.5 77t-44.5 128q0 46 16.5 82.5t46.5 62t71.5 39t91.5 13.5q55 0 98 -18t73 -46.5t46 -65t19 -73.5h-117
q-6 25 -18.5 43t-29 29t-35.5 16.5t-38 5.5q-45 0 -75.5 -22t-31.5 -60q0 -39 24 -62t72 -39l88 -28q84 -27 130 -78.5t46 -132.5q0 -45 -17 -82.5t-48.5 -64t-75 -41.5t-95.5 -15zM268 -197q-16 8 -27 24t-11 36q0 27 19 46.5t47 19.5q27 0 46.5 -19.5t19.5 -46.5
q0 -22 -13 -41l-68 -109h-52z" />
    <glyph glyph-name="Tbar" unicode="&#x166;" horiz-adv-x="593" 
d="M238 598h-206v112h530v-112h-207v-598h-117v598zM89 413h415v-103h-415v103z" />
    <glyph glyph-name="Tcaron" unicode="&#x164;" horiz-adv-x="567" 
d="M225 598h-206v112h530v-112h-207v-598h-117v598zM113 846v92l170 -80l170 80v-92l-170 -80z" />
    <glyph glyph-name="uni0162" unicode="&#x162;" horiz-adv-x="567" 
d="M225 598h-206v112h530v-112h-207v-598h-117v598zM255 -197q-16 8 -27 24t-11 36q0 27 19 46.5t47 19.5q27 0 46.5 -19.5t19.5 -46.5q0 -22 -13 -41l-68 -109h-52z" />
    <glyph glyph-name="uni021A" unicode="&#x21a;" horiz-adv-x="567" 
d="M225 598h-206v112h530v-112h-207v-598h-117v598zM255 -197q-16 8 -27 24t-11 36q0 27 19 46.5t47 19.5q27 0 46.5 -19.5t19.5 -46.5q0 -22 -13 -41l-68 -109h-52z" />
    <glyph glyph-name="Ubreve" unicode="&#x16c;" horiz-adv-x="723" 
d="M362 -12q-63 0 -115 20.5t-89.5 58t-58 91.5t-20.5 120v432h117v-434q0 -84 45.5 -129.5t120.5 -45.5t120 45.5t45 129.5v434h117v-432q0 -66 -21 -120t-58.5 -91.5t-89 -58t-113.5 -20.5zM362 755q-34 0 -64.5 11.5t-53 33t-35.5 52.5t-13 69h68q0 -48 28.5 -73
t69.5 -25t69.5 25t28.5 73h68q0 -38 -13 -69t-35.5 -52.5t-53 -33t-64.5 -11.5z" />
    <glyph glyph-name="Uhungarumlaut" unicode="&#x170;" horiz-adv-x="723" 
d="M362 -12q-63 0 -115 20.5t-89.5 58t-58 91.5t-20.5 120v432h117v-434q0 -84 45.5 -129.5t120.5 -45.5t120 45.5t45 129.5v434h117v-432q0 -66 -21 -120t-58.5 -91.5t-89 -58t-113.5 -20.5zM483 927h120l-116 -157h-72zM308 927h121l-116 -157h-72z" />
    <glyph glyph-name="Umacron" unicode="&#x16a;" horiz-adv-x="723" 
d="M362 -12q-63 0 -115 20.5t-89.5 58t-58 91.5t-20.5 120v432h117v-434q0 -84 45.5 -129.5t120.5 -45.5t120 45.5t45 129.5v434h117v-432q0 -66 -21 -120t-58.5 -91.5t-89 -58t-113.5 -20.5zM196 880h332v-82h-332v82z" />
    <glyph glyph-name="Uogonek" unicode="&#x172;" horiz-adv-x="723" 
d="M416 -219q-45 0 -74 26t-29 68q0 27 13 55.5t46 57.5h-9q-64 0 -116 20.5t-89.5 58.5t-58 91.5t-20.5 119.5v432h117v-434q0 -84 45.5 -129.5t120.5 -45.5t120 45.5t45 129.5v434h117v-432q0 -75 -25.5 -132.5t-71.5 -95.5q-27 -23 -50.5 -43t-41 -37.5t-28 -34
t-10.5 -33.5t11 -24.5t25 -7.5q17 0 30.5 5.5t22.5 13.5v-81q-12 -10 -35 -18.5t-55 -8.5z" />
    <glyph glyph-name="Uring" unicode="&#x16e;" horiz-adv-x="723" 
d="M362 -12q-63 0 -115 20.5t-89.5 58t-58 91.5t-20.5 120v432h117v-434q0 -84 45.5 -129.5t120.5 -45.5t120 45.5t45 129.5v434h117v-432q0 -66 -21 -120t-58.5 -91.5t-89 -58t-113.5 -20.5zM362 753q-25 0 -47 9.5t-38.5 26t-26 38t-9.5 46.5t9.5 46.5t26 38t38.5 26
t47 9.5t47 -9.5t38.5 -26t26.5 -38t10 -46.5t-10 -46.5t-26.5 -38t-38.5 -26t-47 -9.5zM362 809q28 0 47 18.5t19 45.5q0 26 -19 45.5t-47 19.5q-26 0 -45 -19.5t-19 -45.5q0 -27 19 -45.5t45 -18.5z" />
    <glyph glyph-name="Utilde" unicode="&#x168;" horiz-adv-x="723" 
d="M362 -12q-63 0 -115 20.5t-89.5 58t-58 91.5t-20.5 120v432h117v-434q0 -84 45.5 -129.5t120.5 -45.5t120 45.5t45 129.5v434h117v-432q0 -66 -21 -120t-58.5 -91.5t-89 -58t-113.5 -20.5zM185 804q8 48 39.5 75.5t72.5 27.5q21 0 39 -7t34.5 -15.5t30.5 -15.5t26 -7
q18 0 28 11t15 34h72l-3 -22q-8 -48 -39.5 -75t-72.5 -27q-21 0 -39.5 7t-35 15.5t-30 15.5t-25.5 7q-18 0 -28 -11.5t-16 -34.5h-71z" />
    <glyph glyph-name="uni1EE4" unicode="&#x1ee4;" horiz-adv-x="723" 
d="M362 -12q-63 0 -115 20.5t-89.5 58t-58 91.5t-20.5 120v432h117v-434q0 -84 45.5 -129.5t120.5 -45.5t120 45.5t45 129.5v434h117v-432q0 -66 -21 -120t-58.5 -91.5t-89 -58t-113.5 -20.5zM362 -204q-28 0 -47.5 19.5t-19.5 47.5q0 27 19.5 46.5t47.5 19.5
q27 0 46.5 -19.5t19.5 -46.5q0 -28 -19.5 -47.5t-46.5 -19.5z" />
    <glyph glyph-name="Wacute" unicode="&#x1e82;" horiz-adv-x="953" 
d="M477 434l-165 -434h-108l-183 710h123l129 -516l204 528l203 -528l130 516h124l-184 -710h-108zM517 927h129l-118 -157h-86z" />
    <glyph glyph-name="Wcircumflex" unicode="&#x174;" horiz-adv-x="953" 
d="M477 434l-165 -434h-108l-183 710h123l129 -516l204 528l203 -528l130 516h124l-184 -710h-108zM307 858l170 80l170 -80v-92l-170 80l-170 -80v92z" />
    <glyph glyph-name="Wdieresis" unicode="&#x1e84;" horiz-adv-x="953" 
d="M477 434l-165 -434h-108l-183 710h123l129 -516l204 528l203 -528l130 516h124l-184 -710h-108zM363 779q-28 0 -47.5 19.5t-19.5 46.5q0 28 19.5 47.5t47.5 19.5q27 0 46 -19.5t19 -47.5q0 -27 -19 -46.5t-46 -19.5zM592 779q-27 0 -46.5 19.5t-19.5 46.5
q0 28 19.5 47.5t46.5 19.5q28 0 47 -19.5t19 -47.5q0 -27 -19 -46.5t-47 -19.5z" />
    <glyph glyph-name="Wgrave" unicode="&#x1e80;" horiz-adv-x="953" 
d="M477 434l-165 -434h-108l-183 710h123l129 -516l204 528l203 -528l130 516h124l-184 -710h-108zM430 770l-118 157h129l75 -157h-86z" />
    <glyph glyph-name="Ycircumflex" unicode="&#x176;" horiz-adv-x="681" 
d="M282 300l-269 410h137l190 -294l191 294h138l-270 -411v-299h-117v300zM170 858l170 80l170 -80v-92l-170 80l-170 -80v92z" />
    <glyph glyph-name="Ydieresis" unicode="&#x178;" horiz-adv-x="681" 
d="M282 300l-269 410h137l190 -294l191 294h138l-270 -411v-299h-117v300zM226 779q-28 0 -47.5 19.5t-19.5 46.5q0 28 19.5 47.5t47.5 19.5q27 0 46 -19.5t19 -47.5q0 -27 -19 -46.5t-46 -19.5zM455 779q-27 0 -46.5 19.5t-19.5 46.5q0 28 19.5 47.5t46.5 19.5
q28 0 47 -19.5t19 -47.5q0 -27 -19 -46.5t-47 -19.5z" />
    <glyph glyph-name="Ygrave" unicode="&#x1ef2;" horiz-adv-x="681" 
d="M282 300l-269 410h137l190 -294l191 294h138l-270 -411v-299h-117v300zM293 770l-118 157h129l75 -157h-86z" />
    <glyph glyph-name="uni0232" unicode="&#x232;" horiz-adv-x="681" 
d="M282 300l-269 410h137l190 -294l191 294h138l-270 -411v-299h-117v300zM174 880h332v-82h-332v82z" />
    <glyph glyph-name="Zacute" unicode="&#x179;" horiz-adv-x="602" 
d="M36 79l362 519h-353v112h512v-79l-364 -519h372v-112h-529v79zM345 927h129l-118 -157h-86z" />
    <glyph glyph-name="Zcaron" unicode="&#x17d;" horiz-adv-x="602" 
d="M36 79l362 519h-353v112h512v-79l-364 -519h372v-112h-529v79zM135 846v92l170 -80l170 80v-92l-170 -80z" />
    <glyph glyph-name="Zdotaccent" unicode="&#x17b;" horiz-adv-x="602" 
d="M36 79l362 519h-353v112h512v-79l-364 -519h372v-112h-529v79zM305 779q-28 0 -47.5 19.5t-19.5 46.5q0 28 19.5 47.5t47.5 19.5q27 0 46.5 -19.5t19.5 -47.5q0 -27 -19.5 -46.5t-46.5 -19.5z" />
    <glyph glyph-name="uni1E9E" unicode="&#x1e9e;" horiz-adv-x="640" 
d="M87 710h461v-79l-116 -179q79 -20 122.5 -74t43.5 -143q0 -57 -19 -101t-53.5 -73.5t-81.5 -45t-104 -15.5h-41v112h44q58 0 97.5 31t39.5 92q0 31 -10.5 54t-29 38.5t-43.5 23.5t-54 8h-44v84l104 160h-199v-603h-117v710z" />
    <glyph glyph-name="uni018F" unicode="&#x18f;" horiz-adv-x="818" 
d="M409 -12q-78 0 -145.5 28.5t-116.5 78t-77 116.5t-28 144v47h612q-10 49 -33 87.5t-55.5 65t-73 40.5t-84.5 14q-35 0 -67 -8t-59.5 -22t-49.5 -34.5t-36 -44.5h-133q16 47 50 87.5t80 70.5t101 47t115 17q76 0 143 -28t116.5 -77.5t78.5 -116.5t29 -145q0 -77 -28 -144
t-77 -116.5t-116.5 -78t-145.5 -28.5zM410 101q43 0 83 13t72 38.5t55 62t32 83.5h-486q10 -47 32.5 -83.5t55 -61.5t72 -38.5t84.5 -13.5z" />
    <glyph glyph-name="abreve" unicode="&#x103;" horiz-adv-x="624" 
d="M279 -10q-51 0 -95.5 20.5t-76.5 56t-50.5 82.5t-18.5 101t18.5 101t50.5 82.5t76.5 56t95.5 20.5q54 0 96.5 -23.5t63.5 -53.5v67h110v-500h-110v67q-21 -30 -63.5 -53.5t-96.5 -23.5zM299 90q33 0 60.5 12.5t47 34t30.5 50.5t11 63t-11 63t-30.5 50.5t-47 34
t-60.5 12.5t-60.5 -12.5t-47 -34t-30.5 -50.5t-11 -63t11 -63t30.5 -50.5t47 -34t60.5 -12.5zM320 569q-34 0 -64.5 11.5t-53 33t-35.5 52.5t-13 69v15h68v-15q0 -48 28.5 -73.5t69.5 -25.5t69.5 25.5t28.5 73.5v15h68v-15q0 -38 -13 -69t-35.5 -52.5t-53 -33t-64.5 -11.5z
" />
    <glyph glyph-name="amacron" unicode="&#x101;" horiz-adv-x="624" 
d="M279 -10q-51 0 -95.5 20.5t-76.5 56t-50.5 82.5t-18.5 101t18.5 101t50.5 82.5t76.5 56t95.5 20.5q54 0 96.5 -23.5t63.5 -53.5v67h110v-500h-110v67q-21 -30 -63.5 -53.5t-96.5 -23.5zM299 90q33 0 60.5 12.5t47 34t30.5 50.5t11 63t-11 63t-30.5 50.5t-47 34
t-60.5 12.5t-60.5 -12.5t-47 -34t-30.5 -50.5t-11 -63t11 -63t30.5 -50.5t47 -34t60.5 -12.5zM154 710h332v-82h-332v82z" />
    <glyph glyph-name="aogonek" unicode="&#x105;" horiz-adv-x="624" 
d="M279 -10q-51 0 -95.5 20.5t-76.5 56t-50.5 82.5t-18.5 101t18.5 101t50.5 82.5t76.5 56t95.5 20.5q54 0 96.5 -23.5t63.5 -53.5v67h110v-500h-110v67q-21 -30 -63.5 -53.5t-96.5 -23.5zM299 90q33 0 60.5 12.5t47 34t30.5 50.5t11 63t-11 63t-30.5 50.5t-47 34
t-60.5 12.5t-60.5 -12.5t-47 -34t-30.5 -50.5t-11 -63t11 -63t30.5 -50.5t47 -34t60.5 -12.5zM462 -219q-45 0 -72.5 26t-27.5 67q0 21 7 39.5t18 34t24.5 28.5t27.5 24h110q-45 -25 -67.5 -51.5t-22.5 -52.5q0 -18 11.5 -26t25.5 -8q17 0 30.5 6t22.5 13v-73
q-12 -10 -35 -18.5t-52 -8.5z" />
    <glyph glyph-name="cacute" unicode="&#x107;" horiz-adv-x="584" 
d="M300 -10q-57 0 -105 20.5t-83 55.5t-54.5 82.5t-19.5 101.5t19.5 101.5t54.5 82.5t83 55.5t105 20.5q49 0 91.5 -14.5t75 -40.5t55 -61t32.5 -77h-116q-15 41 -50.5 67t-87.5 26q-33 0 -61 -12t-47.5 -33t-30.5 -50.5t-11 -64.5t11 -64.5t30.5 -50.5t47.5 -33t61 -12
q52 0 87.5 26t50.5 67h116q-10 -42 -32.5 -77t-55 -61t-75 -40.5t-91.5 -14.5zM363 750h133l-148 -190h-85z" />
    <glyph glyph-name="ccaron" unicode="&#x10d;" horiz-adv-x="584" 
d="M300 -10q-57 0 -105 20.5t-83 55.5t-54.5 82.5t-19.5 101.5t19.5 101.5t54.5 82.5t83 55.5t105 20.5q49 0 91.5 -14.5t75 -40.5t55 -61t32.5 -77h-116q-15 41 -50.5 67t-87.5 26q-33 0 -61 -12t-47.5 -33t-30.5 -50.5t-11 -64.5t11 -64.5t30.5 -50.5t47.5 -33t61 -12
q52 0 87.5 26t50.5 67h116q-10 -42 -32.5 -77t-55 -61t-75 -40.5t-91.5 -14.5zM136 662v94l166 -100l166 100v-94l-166 -99z" />
    <glyph glyph-name="ccircumflex" unicode="&#x109;" horiz-adv-x="584" 
d="M300 -10q-57 0 -105 20.5t-83 55.5t-54.5 82.5t-19.5 101.5t19.5 101.5t54.5 82.5t83 55.5t105 20.5q49 0 91.5 -14.5t75 -40.5t55 -61t32.5 -77h-116q-15 41 -50.5 67t-87.5 26q-33 0 -61 -12t-47.5 -33t-30.5 -50.5t-11 -64.5t11 -64.5t30.5 -50.5t47.5 -33t61 -12
q52 0 87.5 26t50.5 67h116q-10 -42 -32.5 -77t-55 -61t-75 -40.5t-91.5 -14.5zM468 656v-93l-166 99l-166 -99v93l166 100z" />
    <glyph glyph-name="cdotaccent" unicode="&#x10b;" horiz-adv-x="584" 
d="M300 -10q-57 0 -105 20.5t-83 55.5t-54.5 82.5t-19.5 101.5t19.5 101.5t54.5 82.5t83 55.5t105 20.5q49 0 91.5 -14.5t75 -40.5t55 -61t32.5 -77h-116q-15 41 -50.5 67t-87.5 26q-33 0 -61 -12t-47.5 -33t-30.5 -50.5t-11 -64.5t11 -64.5t30.5 -50.5t47.5 -33t61 -12
q52 0 87.5 26t50.5 67h116q-10 -42 -32.5 -77t-55 -61t-75 -40.5t-91.5 -14.5zM302 587q-28 0 -47.5 19.5t-19.5 46.5q0 28 19.5 47.5t47.5 19.5q27 0 46.5 -19.5t19.5 -47.5q0 -27 -19.5 -46.5t-46.5 -19.5z" />
    <glyph glyph-name="dcaron" unicode="&#x10f;" horiz-adv-x="624" 
d="M279 -10q-51 0 -95.5 20.5t-76.5 56t-50.5 82.5t-18.5 101t18.5 101t50.5 82.5t76.5 56t95.5 20.5q54 0 96.5 -23.5t63.5 -53.5v317h110v-750h-110v67q-21 -30 -63.5 -53.5t-96.5 -23.5zM299 90q33 0 60.5 12.5t47 34t30.5 50.5t11 63t-11 63t-30.5 50.5t-47 34
t-60.5 12.5t-60.5 -12.5t-47 -34t-30.5 -50.5t-11 -63t11 -63t30.5 -50.5t47 -34t60.5 -12.5zM600 750h110l-57 -163h-75z" />
    <glyph glyph-name="dcroat" unicode="&#x111;" horiz-adv-x="624" 
d="M279 -10q-51 0 -95.5 20.5t-76.5 56t-50.5 82.5t-18.5 101t18.5 101t50.5 82.5t76.5 56t95.5 20.5q54 0 96.5 -23.5t63.5 -53.5v317h110v-750h-110v67q-21 -30 -63.5 -53.5t-96.5 -23.5zM299 90q33 0 60.5 12.5t47 34t30.5 50.5t11 63t-11 63t-30.5 50.5t-47 34
t-60.5 12.5t-60.5 -12.5t-47 -34t-30.5 -50.5t-11 -63t11 -63t30.5 -50.5t47 -34t60.5 -12.5zM286 572v78h330v-78h-330z" />
    <glyph glyph-name="ebreve" unicode="&#x115;" horiz-adv-x="585" 
d="M295 -10q-56 0 -103 19.5t-81 54t-53 82.5t-19 104q0 55 18.5 103t52 82.5t81 54.5t105.5 20q57 0 105 -21t81.5 -59t50.5 -90.5t13 -116.5h-398q1 -29 12.5 -53.5t31 -43t47 -29t60.5 -10.5q42 0 75.5 17t50.5 53h115q-11 -35 -32.5 -65.5t-53 -53t-71.5 -35.5t-88 -13z
M293 418q-52 0 -91.5 -29.5t-50.5 -87.5h277q-13 61 -51 89t-84 28zM298 569q-34 0 -64.5 11.5t-53 33t-35.5 52.5t-13 69v15h68v-15q0 -48 28.5 -73.5t69.5 -25.5t69.5 25.5t28.5 73.5v15h68v-15q0 -38 -13 -69t-35.5 -52.5t-53 -33t-64.5 -11.5z" />
    <glyph glyph-name="ecaron" unicode="&#x11b;" horiz-adv-x="585" 
d="M295 -10q-56 0 -103 19.5t-81 54t-53 82.5t-19 104q0 55 18.5 103t52 82.5t81 54.5t105.5 20q57 0 105 -21t81.5 -59t50.5 -90.5t13 -116.5h-398q1 -29 12.5 -53.5t31 -43t47 -29t60.5 -10.5q42 0 75.5 17t50.5 53h115q-11 -35 -32.5 -65.5t-53 -53t-71.5 -35.5t-88 -13z
M293 418q-52 0 -91.5 -29.5t-50.5 -87.5h277q-13 61 -51 89t-84 28zM132 662v94l166 -100l166 100v-94l-166 -99z" />
    <glyph glyph-name="emacron" unicode="&#x113;" horiz-adv-x="585" 
d="M295 -10q-56 0 -103 19.5t-81 54t-53 82.5t-19 104q0 55 18.5 103t52 82.5t81 54.5t105.5 20q57 0 105 -21t81.5 -59t50.5 -90.5t13 -116.5h-398q1 -29 12.5 -53.5t31 -43t47 -29t60.5 -10.5q42 0 75.5 17t50.5 53h115q-11 -35 -32.5 -65.5t-53 -53t-71.5 -35.5t-88 -13z
M293 418q-52 0 -91.5 -29.5t-50.5 -87.5h277q-13 61 -51 89t-84 28zM132 710h332v-82h-332v82z" />
    <glyph glyph-name="eogonek" unicode="&#x119;" horiz-adv-x="586" 
d="M540 157q-6 -19 -15 -35.5t-20 -33.5q-23 -37 -37.5 -66t-22.5 -51t-11 -37.5t-3 -25.5q0 -21 13 -33.5t35 -12.5q15 0 28 5.5t23 13.5v-73q-13 -10 -36.5 -18.5t-51.5 -8.5q-48 0 -78 28t-30 72q0 32 12.5 61t36.5 61q-27 -8 -48 -10.5t-40 -2.5q-56 0 -103 19.5t-81 54
t-53 82.5t-19 104q0 55 18.5 103t52 82.5t81 54.5t105.5 20q57 0 105 -21t81.5 -59t50.5 -90.5t13 -116.5h-398q1 -29 12.5 -53.5t31 -43t47 -29t60.5 -10.5q42 0 75.5 17t50.5 53h115zM293 418q-52 0 -91.5 -29.5t-50.5 -87.5h277q-13 61 -51 89t-84 28z" />
    <glyph glyph-name="edotaccent" unicode="&#x117;" horiz-adv-x="585" 
d="M295 -10q-56 0 -103 19.5t-81 54t-53 82.5t-19 104q0 55 18.5 103t52 82.5t81 54.5t105.5 20q57 0 105 -21t81.5 -59t50.5 -90.5t13 -116.5h-398q1 -29 12.5 -53.5t31 -43t47 -29t60.5 -10.5q42 0 75.5 17t50.5 53h115q-11 -35 -32.5 -65.5t-53 -53t-71.5 -35.5t-88 -13z
M293 418q-52 0 -91.5 -29.5t-50.5 -87.5h277q-13 61 -51 89t-84 28zM298 587q-28 0 -47.5 19.5t-19.5 46.5q0 28 19.5 47.5t47.5 19.5q27 0 46.5 -19.5t19.5 -47.5q0 -27 -19.5 -46.5t-46.5 -19.5z" />
    <glyph glyph-name="gbreve" unicode="&#x11f;" horiz-adv-x="623" 
d="M300 -219q-51 0 -94 13.5t-74.5 37.5t-50.5 57t-24 72h108q15 -45 50 -65.5t88 -20.5q28 0 53 9.5t43.5 28t29 46t10.5 63.5v59q-23 -33 -65.5 -55.5t-94.5 -22.5q-51 0 -94.5 19.5t-76 54t-51 81t-18.5 99.5t18.5 99t51 80.5t76 54t94.5 19.5q52 0 94.5 -22t65.5 -55v67
h110v-469q0 -65 -20 -112.5t-54 -78t-79.5 -45t-95.5 -14.5zM299 104q32 0 59 11.5t47 31.5t31.5 48.5t11.5 61.5t-11.5 61.5t-31.5 48.5t-47 31.5t-59 11.5t-59 -11.5t-47 -31.5t-31.5 -48.5t-11.5 -61.5t11.5 -61.5t31.5 -48.5t47 -31.5t59 -11.5zM313 569
q-34 0 -64.5 11.5t-53 33t-35.5 52.5t-13 69v15h68v-15q0 -48 28.5 -73.5t69.5 -25.5t69.5 25.5t28.5 73.5v15h68v-15q0 -38 -13 -69t-35.5 -52.5t-53 -33t-64.5 -11.5z" />
    <glyph glyph-name="gcircumflex" unicode="&#x11d;" horiz-adv-x="623" 
d="M300 -219q-51 0 -94 13.5t-74.5 37.5t-50.5 57t-24 72h108q15 -45 50 -65.5t88 -20.5q28 0 53 9.5t43.5 28t29 46t10.5 63.5v59q-23 -33 -65.5 -55.5t-94.5 -22.5q-51 0 -94.5 19.5t-76 54t-51 81t-18.5 99.5t18.5 99t51 80.5t76 54t94.5 19.5q52 0 94.5 -22t65.5 -55v67
h110v-469q0 -65 -20 -112.5t-54 -78t-79.5 -45t-95.5 -14.5zM299 104q32 0 59 11.5t47 31.5t31.5 48.5t11.5 61.5t-11.5 61.5t-31.5 48.5t-47 31.5t-59 11.5t-59 -11.5t-47 -31.5t-31.5 -48.5t-11.5 -61.5t11.5 -61.5t31.5 -48.5t47 -31.5t59 -11.5zM479 656v-93l-166 99
l-166 -99v93l166 100z" />
    <glyph glyph-name="uni0123" unicode="&#x123;" horiz-adv-x="623" 
d="M300 -219q-51 0 -94 13.5t-74.5 37.5t-50.5 57t-24 72h108q15 -45 50 -65.5t88 -20.5q28 0 53 9.5t43.5 28t29 46t10.5 63.5v59q-23 -33 -65.5 -55.5t-94.5 -22.5q-51 0 -94.5 19.5t-76 54t-51 81t-18.5 99.5t18.5 99t51 80.5t76 54t94.5 19.5q52 0 94.5 -22t65.5 -55v67
h110v-469q0 -65 -20 -112.5t-54 -78t-79.5 -45t-95.5 -14.5zM299 104q32 0 59 11.5t47 31.5t31.5 48.5t11.5 61.5t-11.5 61.5t-31.5 48.5t-47 31.5t-59 11.5t-59 -11.5t-47 -31.5t-31.5 -48.5t-11.5 -61.5t11.5 -61.5t31.5 -48.5t47 -31.5t59 -11.5zM313 587q-27 0 -46.5 20
t-19.5 47q0 20 13 40l68 109h52l-39 -90q16 -8 27 -23.5t11 -35.5q0 -27 -19 -47t-47 -20z" />
    <glyph glyph-name="gdotaccent" unicode="&#x121;" horiz-adv-x="623" 
d="M300 -219q-51 0 -94 13.5t-74.5 37.5t-50.5 57t-24 72h108q15 -45 50 -65.5t88 -20.5q28 0 53 9.5t43.5 28t29 46t10.5 63.5v59q-23 -33 -65.5 -55.5t-94.5 -22.5q-51 0 -94.5 19.5t-76 54t-51 81t-18.5 99.5t18.5 99t51 80.5t76 54t94.5 19.5q52 0 94.5 -22t65.5 -55v67
h110v-469q0 -65 -20 -112.5t-54 -78t-79.5 -45t-95.5 -14.5zM299 104q32 0 59 11.5t47 31.5t31.5 48.5t11.5 61.5t-11.5 61.5t-31.5 48.5t-47 31.5t-59 11.5t-59 -11.5t-47 -31.5t-31.5 -48.5t-11.5 -61.5t11.5 -61.5t31.5 -48.5t47 -31.5t59 -11.5zM313 587
q-28 0 -47.5 19.5t-19.5 46.5q0 28 19.5 47.5t47.5 19.5q27 0 46.5 -19.5t19.5 -47.5q0 -27 -19.5 -46.5t-46.5 -19.5z" />
    <glyph glyph-name="hbar" unicode="&#x127;" horiz-adv-x="594" 
d="M74 0v750h110v-318q23 38 63 58t89 20q43 0 78.5 -15t60.5 -42t38.5 -65.5t13.5 -86.5v-301h-110v283q0 60 -28 93.5t-76 33.5q-55 0 -92 -41.5t-37 -122.5v-246h-110zM7 572v78h330v-78h-330z" />
    <glyph glyph-name="hcircumflex" unicode="&#x125;" horiz-adv-x="594" 
d="M74 0v750h110v-318q23 38 63 58t89 20q43 0 78.5 -15t60.5 -42t38.5 -65.5t13.5 -86.5v-301h-110v283q0 60 -28 93.5t-76 33.5q-55 0 -92 -41.5t-37 -122.5v-246h-110zM143 858l170 80l170 -80v-92l-170 80l-170 -80v92z" />
    <glyph glyph-name="dotlessi" unicode="&#x131;" horiz-adv-x="258" 
d="M74 500h110v-500h-110v500z" />
    <glyph glyph-name="ibreve" unicode="&#x12d;" horiz-adv-x="258" 
d="M74 500h110v-500h-110v500zM129 569q-34 0 -64.5 11.5t-53 33t-35.5 52.5t-13 69v15h68v-15q0 -48 28.5 -73.5t69.5 -25.5t69.5 25.5t28.5 73.5v15h68v-15q0 -38 -13 -69t-35.5 -52.5t-53 -33t-64.5 -11.5z" />
    <glyph glyph-name="imacron" unicode="&#x12b;" horiz-adv-x="258" 
d="M74 500h110v-500h-110v500zM-37 710h332v-82h-332v82z" />
    <glyph glyph-name="iogonek" unicode="&#x12f;" horiz-adv-x="258" 
d="M129 609q-30 0 -52 21.5t-22 52.5q0 30 22 51.5t52 21.5q31 0 52 -21.5t21 -51.5q0 -31 -21 -52.5t-52 -21.5zM74 500h110v-500h-110v500zM97 -219q-45 0 -72.5 26t-27.5 67q0 21 7 39.5t18 34t24.5 28.5t27.5 24h110q-45 -25 -67.5 -51.5t-22.5 -52.5q0 -18 11.5 -26
t25.5 -8q17 0 30.5 6t22.5 13v-73q-12 -10 -35 -18.5t-52 -8.5z" />
    <glyph glyph-name="itilde" unicode="&#x129;" horiz-adv-x="258" 
d="M74 500h110v-500h-110v500zM-48 605q8 48 39 75t72 27q21 0 39.5 -7t35 -15.5t30 -15.5t25.5 -7q18 0 28 11.5t16 34.5h72l-4 -22q-8 -48 -39 -75.5t-72 -27.5q-21 0 -39.5 7t-35 15.5t-30 15.5t-25.5 7q-18 0 -28 -11t-16 -34h-72z" />
    <glyph glyph-name="uni1ECB" unicode="&#x1ecb;" horiz-adv-x="258" 
d="M129 609q-30 0 -52 21.5t-22 52.5q0 30 22 51.5t52 21.5q31 0 52 -21.5t21 -51.5q0 -31 -21 -52.5t-52 -21.5zM74 500h110v-500h-110v500zM130 -204q-28 0 -47.5 19.5t-19.5 47.5q0 27 19.5 46.5t47.5 19.5q27 0 46.5 -19.5t19.5 -46.5q0 -28 -19.5 -47.5t-46.5 -19.5z
" />
    <glyph glyph-name="uni0237" unicode="&#x237;" horiz-adv-x="266" 
d="M192 -53q0 -42 -13.5 -73t-36 -52t-53.5 -31t-65 -10q-28 0 -47 3v96q5 -1 12 -1.5t15 -0.5q37 0 57.5 19t20.5 66v537h110v-553z" />
    <glyph glyph-name="jcircumflex" unicode="&#x135;" horiz-adv-x="266" 
d="M192 -53q0 -42 -13.5 -73t-36 -52t-53.5 -31t-65 -10q-28 0 -47 3v96q5 -1 12 -1.5t15 -0.5q37 0 57.5 19t20.5 66v537h110v-553zM303 656v-93l-166 99l-166 -99v93l166 100z" />
    <glyph glyph-name="uni0137" unicode="&#x137;" horiz-adv-x="547" 
d="M184 241v-241h-110v750h110v-440l191 190h139l-223 -223l273 -277h-141zM275 -197q-16 8 -27 24t-11 36q0 27 19 46.5t47 19.5q27 0 46.5 -19.5t19.5 -46.5q0 -22 -13 -41l-68 -109h-52z" />
    <glyph glyph-name="lacute" unicode="&#x13a;" horiz-adv-x="258" 
d="M74 750h110v-750h-110v750zM191 1000h133l-148 -190h-85z" />
    <glyph glyph-name="lcaron" unicode="&#x13e;" horiz-adv-x="258" 
d="M74 750h110v-750h-110v750zM235 750h110l-57 -163h-75z" />
    <glyph glyph-name="uni013C" unicode="&#x13c;" horiz-adv-x="258" 
d="M74 750h110v-750h-110v750zM101 -197q-16 8 -27 24t-11 36q0 27 19 46.5t47 19.5q27 0 46.5 -19.5t19.5 -46.5q0 -22 -13 -41l-68 -109h-52z" />
    <glyph glyph-name="ldot" unicode="&#x140;" horiz-adv-x="393" 
d="M74 750h110v-750h-110v750zM326 308q-28 0 -47.5 19.5t-19.5 46.5q0 28 19.5 47.5t47.5 19.5q27 0 46.5 -19.5t19.5 -47.5q0 -27 -19.5 -46.5t-46.5 -19.5z" />
    <glyph glyph-name="glyph297" horiz-adv-x="393" 
d="M74 750h110v-750h-110v750zM326 308q-28 0 -47.5 19.5t-19.5 46.5q0 28 19.5 47.5t47.5 19.5q27 0 46.5 -19.5t19.5 -47.5q0 -27 -19.5 -46.5t-46.5 -19.5z" />
    <glyph glyph-name="lslash" unicode="&#x142;" horiz-adv-x="334" 
d="M113 750h110v-750h-110v750zM37 248v91l263 162v-92z" />
    <glyph glyph-name="eng" unicode="&#x14b;" horiz-adv-x="594" 
d="M74 500h110v-68q23 38 63 58t89 20q43 0 78.5 -15t60.5 -42t38.5 -65.5t13.5 -86.5v-349q0 -42 -13.5 -73.5t-36.5 -52t-54 -30.5t-67 -10q-17 0 -32 1.5t-27 3.5v98q16 -3 35 -3q43 0 64 18.5t21 65.5v313q0 60 -28 93.5t-76 33.5q-55 0 -92 -41.5t-37 -122.5v-246h-110
v500z" />
    <glyph glyph-name="nacute" unicode="&#x144;" horiz-adv-x="594" 
d="M74 500h110v-68q23 38 63 58t89 20q43 0 78.5 -15t60.5 -42t38.5 -65.5t13.5 -86.5v-301h-110v283q0 60 -28 93.5t-76 33.5q-55 0 -92 -41.5t-37 -122.5v-246h-110v500zM362 750h133l-148 -190h-85z" />
    <glyph glyph-name="ncaron" unicode="&#x148;" horiz-adv-x="594" 
d="M74 500h110v-68q23 38 63 58t89 20q43 0 78.5 -15t60.5 -42t38.5 -65.5t13.5 -86.5v-301h-110v283q0 60 -28 93.5t-76 33.5q-55 0 -92 -41.5t-37 -122.5v-246h-110v500zM134 662v94l166 -100l166 100v-94l-166 -99z" />
    <glyph glyph-name="uni0146" unicode="&#x146;" horiz-adv-x="594" 
d="M74 500h110v-68q23 38 63 58t89 20q43 0 78.5 -15t60.5 -42t38.5 -65.5t13.5 -86.5v-301h-110v283q0 60 -28 93.5t-76 33.5q-55 0 -92 -41.5t-37 -122.5v-246h-110v500zM272 -197q-16 8 -27 24t-11 36q0 27 19 46.5t47 19.5q27 0 46.5 -19.5t19.5 -46.5q0 -22 -13 -41
l-68 -109h-52z" />
    <glyph glyph-name="oe" unicode="&#x153;" horiz-adv-x="997" 
d="M300 -10q-56 0 -103.5 20t-83 55.5t-55.5 83t-20 101.5t20 101.5t55.5 83t83 55.5t103.5 20q63 0 115.5 -25.5t87.5 -70.5q34 45 86.5 70.5t118.5 25.5q57 0 104.5 -21t81 -59t50.5 -90.5t14 -116.5h-398q1 -29 12.5 -53.5t31 -43t46.5 -29t60 -10.5q42 0 76 17t51 53
h114q-11 -35 -32.5 -65.5t-53 -53t-71.5 -35.5t-88 -13q-65 0 -116.5 25t-86.5 70q-35 -45 -87.5 -70t-115.5 -25zM300 92q33 0 60.5 12t47.5 33.5t31 50.5t11 62t-11 62t-31 50.5t-47.5 33.5t-60.5 12t-61 -12t-48 -33.5t-31 -50.5t-11 -62t11 -62t31 -50.5t48 -33.5
t61 -12zM704 418q-52 0 -91 -29.5t-50 -87.5h276q-12 61 -50.5 89t-84.5 28z" />
    <glyph glyph-name="obreve" unicode="&#x14f;" horiz-adv-x="599" 
d="M300 -10q-56 0 -103.5 20t-83 55.5t-55.5 83t-20 101.5t20 101.5t55.5 83t83 55.5t103.5 20q55 0 103 -20t83.5 -55.5t55.5 -83t20 -101.5t-20 -101.5t-55.5 -83t-83.5 -55.5t-103 -20zM300 92q33 0 60.5 12t47.5 33.5t31 50.5t11 62t-11 62t-31 50.5t-47.5 33.5
t-60.5 12t-61 -12t-48 -33.5t-31 -50.5t-11 -62t11 -62t31 -50.5t48 -33.5t61 -12zM300 569q-34 0 -64.5 11.5t-53 33t-35.5 52.5t-13 69v15h68v-15q0 -48 28.5 -73.5t69.5 -25.5t69.5 25.5t28.5 73.5v15h68v-15q0 -38 -13 -69t-35.5 -52.5t-53 -33t-64.5 -11.5z" />
    <glyph glyph-name="ohungarumlaut" unicode="&#x151;" horiz-adv-x="599" 
d="M300 -10q-56 0 -103.5 20t-83 55.5t-55.5 83t-20 101.5t20 101.5t55.5 83t83 55.5t103.5 20q55 0 103 -20t83.5 -55.5t55.5 -83t20 -101.5t-20 -101.5t-55.5 -83t-83.5 -55.5t-103 -20zM300 92q33 0 60.5 12t47.5 33.5t31 50.5t11 62t-11 62t-31 50.5t-47.5 33.5
t-60.5 12t-61 -12t-48 -33.5t-31 -50.5t-11 -62t11 -62t31 -50.5t48 -33.5t61 -12zM414 750h120l-116 -190h-72zM239 750h121l-116 -190h-72z" />
    <glyph glyph-name="omacron" unicode="&#x14d;" horiz-adv-x="599" 
d="M300 -10q-56 0 -103.5 20t-83 55.5t-55.5 83t-20 101.5t20 101.5t55.5 83t83 55.5t103.5 20q55 0 103 -20t83.5 -55.5t55.5 -83t20 -101.5t-20 -101.5t-55.5 -83t-83.5 -55.5t-103 -20zM300 92q33 0 60.5 12t47.5 33.5t31 50.5t11 62t-11 62t-31 50.5t-47.5 33.5
t-60.5 12t-61 -12t-48 -33.5t-31 -50.5t-11 -62t11 -62t31 -50.5t48 -33.5t61 -12zM134 710h332v-82h-332v82z" />
    <glyph glyph-name="uni1ECD" unicode="&#x1ecd;" horiz-adv-x="599" 
d="M300 -10q-56 0 -103.5 20t-83 55.5t-55.5 83t-20 101.5t20 101.5t55.5 83t83 55.5t103.5 20q55 0 103 -20t83.5 -55.5t55.5 -83t20 -101.5t-20 -101.5t-55.5 -83t-83.5 -55.5t-103 -20zM300 92q33 0 60.5 12t47.5 33.5t31 50.5t11 62t-11 62t-31 50.5t-47.5 33.5
t-60.5 12t-61 -12t-48 -33.5t-31 -50.5t-11 -62t11 -62t31 -50.5t48 -33.5t61 -12zM300 -204q-28 0 -47.5 19.5t-19.5 47.5q0 27 19.5 46.5t47.5 19.5q27 0 46.5 -19.5t19.5 -46.5q0 -28 -19.5 -47.5t-46.5 -19.5z" />
    <glyph glyph-name="racute" unicode="&#x155;" horiz-adv-x="380" 
d="M74 500h110v-89q7 21 20.5 38.5t31 30t38.5 19t42 6.5q23 0 43 -4v-113q-14 5 -27 7t-28 2q-24 0 -45.5 -10t-38 -29t-26.5 -48t-10 -66v-244h-110v500zM278 750h133l-148 -190h-85z" />
    <glyph glyph-name="rcaron" unicode="&#x159;" horiz-adv-x="380" 
d="M74 500h110v-89q7 21 20.5 38.5t31 30t38.5 19t42 6.5q23 0 43 -4v-113q-14 5 -27 7t-28 2q-24 0 -45.5 -10t-38 -29t-26.5 -48t-10 -66v-244h-110v500zM50 662v94l166 -100l166 100v-94l-166 -99z" />
    <glyph glyph-name="uni0157" unicode="&#x157;" horiz-adv-x="380" 
d="M74 500h110v-89q7 21 20.5 38.5t31 30t38.5 19t42 6.5q23 0 43 -4v-113q-14 5 -27 7t-28 2q-24 0 -45.5 -10t-38 -29t-26.5 -48t-10 -66v-244h-110v500zM101 -197q-16 8 -27 24t-11 36q0 27 19 46.5t47 19.5q27 0 46.5 -19.5t19.5 -46.5q0 -22 -13 -41l-68 -109h-52z" />
    <glyph glyph-name="sacute" unicode="&#x15b;" horiz-adv-x="483" 
d="M250 -10q-44 0 -82 11t-66.5 32t-46 51t-19.5 68h114q7 -41 36.5 -57.5t66.5 -16.5q36 0 58.5 13.5t22.5 39.5t-17.5 41t-56.5 25l-82 22q-65 17 -96.5 56.5t-31.5 94.5q0 31 13.5 57t37.5 44.5t58.5 28.5t76.5 10q40 0 74 -11t59 -30.5t40 -47t18 -61.5h-110
q-8 32 -30.5 47t-51.5 15q-32 0 -52.5 -13.5t-20.5 -37.5t17.5 -38t49.5 -22l84 -22q68 -17 100.5 -55.5t32.5 -95.5q0 -36 -15 -64t-41 -46.5t-62 -28t-78 -9.5zM307 750h133l-148 -190h-85z" />
    <glyph glyph-name="scaron" unicode="&#x161;" horiz-adv-x="483" 
d="M250 -10q-44 0 -82 11t-66.5 32t-46 51t-19.5 68h114q7 -41 36.5 -57.5t66.5 -16.5q36 0 58.5 13.5t22.5 39.5t-17.5 41t-56.5 25l-82 22q-65 17 -96.5 56.5t-31.5 94.5q0 31 13.5 57t37.5 44.5t58.5 28.5t76.5 10q40 0 74 -11t59 -30.5t40 -47t18 -61.5h-110
q-8 32 -30.5 47t-51.5 15q-32 0 -52.5 -13.5t-20.5 -37.5t17.5 -38t49.5 -22l84 -22q68 -17 100.5 -55.5t32.5 -95.5q0 -36 -15 -64t-41 -46.5t-62 -28t-78 -9.5zM79 662v94l166 -100l166 100v-94l-166 -99z" />
    <glyph glyph-name="scedilla" unicode="&#x15f;" horiz-adv-x="483" 
d="M250 -10q-44 0 -82 11t-66.5 32t-46 51t-19.5 68h114q7 -41 36.5 -57.5t66.5 -16.5q36 0 58.5 13.5t22.5 39.5t-17.5 41t-56.5 25l-82 22q-65 17 -96.5 56.5t-31.5 94.5q0 31 13.5 57t37.5 44.5t58.5 28.5t76.5 10q40 0 74 -11t59 -30.5t40 -47t18 -61.5h-110
q-8 32 -30.5 47t-51.5 15q-32 0 -52.5 -13.5t-20.5 -37.5t17.5 -38t49.5 -22l84 -22q68 -17 100.5 -55.5t32.5 -95.5q0 -36 -15 -64t-41 -46.5t-62 -28t-78 -9.5zM130 -146q16 -9 37 -13t39 -4q24 0 44.5 8.5t20.5 29.5q0 15 -12 22t-33 7q-11 0 -22 -2.5t-21 -7.5l-34 20
l54 89h58l-33 -54q9 3 19.5 5t23.5 2q35 0 59 -20t24 -57q0 -23 -11 -41t-29.5 -30.5t-42.5 -19.5t-50 -7q-20 0 -44 2.5t-47 12.5v58z" />
    <glyph glyph-name="scircumflex" unicode="&#x15d;" horiz-adv-x="483" 
d="M250 -10q-44 0 -82 11t-66.5 32t-46 51t-19.5 68h114q7 -41 36.5 -57.5t66.5 -16.5q36 0 58.5 13.5t22.5 39.5t-17.5 41t-56.5 25l-82 22q-65 17 -96.5 56.5t-31.5 94.5q0 31 13.5 57t37.5 44.5t58.5 28.5t76.5 10q40 0 74 -11t59 -30.5t40 -47t18 -61.5h-110
q-8 32 -30.5 47t-51.5 15q-32 0 -52.5 -13.5t-20.5 -37.5t17.5 -38t49.5 -22l84 -22q68 -17 100.5 -55.5t32.5 -95.5q0 -36 -15 -64t-41 -46.5t-62 -28t-78 -9.5zM411 656v-93l-166 99l-166 -99v93l166 100z" />
    <glyph glyph-name="uni0219" unicode="&#x219;" horiz-adv-x="483" 
d="M250 -10q-44 0 -82 11t-66.5 32t-46 51t-19.5 68h114q7 -41 36.5 -57.5t66.5 -16.5q36 0 58.5 13.5t22.5 39.5t-17.5 41t-56.5 25l-82 22q-65 17 -96.5 56.5t-31.5 94.5q0 31 13.5 57t37.5 44.5t58.5 28.5t76.5 10q40 0 74 -11t59 -30.5t40 -47t18 -61.5h-110
q-8 32 -30.5 47t-51.5 15q-32 0 -52.5 -13.5t-20.5 -37.5t17.5 -38t49.5 -22l84 -22q68 -17 100.5 -55.5t32.5 -95.5q0 -36 -15 -64t-41 -46.5t-62 -28t-78 -9.5zM211 -197q-16 8 -27 24t-11 36q0 27 19 46.5t47 19.5q27 0 46.5 -19.5t19.5 -46.5q0 -22 -13 -41l-68 -109
h-52z" />
    <glyph glyph-name="tbar" unicode="&#x167;" horiz-adv-x="415" 
d="M299 -5q-36 0 -67 10t-54.5 30.5t-36.5 52t-13 73.5v241h-104v98h104v139h110v-139h143v-98h-143v-223q0 -47 20.5 -66t63.5 -19q16 0 31.5 2.5t27.5 7.5v-98q-17 -5 -36.5 -8t-45.5 -3zM24 323h357v-79h-357v79z" />
    <glyph glyph-name="tcaron" unicode="&#x165;" horiz-adv-x="403" 
d="M291 -5q-36 0 -67 10t-54.5 30.5t-36.5 52t-13 73.5v241h-104v98h104v139h110v-139h143v-98h-143v-223q0 -47 20.5 -66t63.5 -19q16 0 31.5 2.5t27.5 7.5v-98q-17 -5 -36.5 -8t-45.5 -3zM280 710h110l-57 -163h-75z" />
    <glyph glyph-name="uni0163" unicode="&#x163;" horiz-adv-x="403" 
d="M291 -5q-36 0 -67 10t-54.5 30.5t-36.5 52t-13 73.5v241h-104v98h104v139h110v-139h143v-98h-143v-223q0 -47 20.5 -66t63.5 -19q16 0 31.5 2.5t27.5 7.5v-98q-17 -5 -36.5 -8t-45.5 -3zM225 -197q-16 8 -27 24t-11 36q0 27 19 46.5t47 19.5q27 0 46.5 -19.5t19.5 -46.5
q0 -22 -13 -41l-68 -109h-52z" />
    <glyph glyph-name="uni021B" unicode="&#x21b;" horiz-adv-x="403" 
d="M291 -5q-36 0 -67 10t-54.5 30.5t-36.5 52t-13 73.5v241h-104v98h104v139h110v-139h143v-98h-143v-223q0 -47 20.5 -66t63.5 -19q16 0 31.5 2.5t27.5 7.5v-98q-17 -5 -36.5 -8t-45.5 -3zM225 -197q-16 8 -27 24t-11 36q0 27 19 46.5t47 19.5q27 0 46.5 -19.5t19.5 -46.5
q0 -22 -13 -41l-68 -109h-52z" />
    <glyph glyph-name="ubreve" unicode="&#x16d;" horiz-adv-x="583" 
d="M253 -10q-43 0 -77.5 15t-58.5 42.5t-37 66.5t-13 87v299h110v-281q0 -60 26 -94.5t74 -34.5q54 0 88 41.5t34 122.5v246h110v-500h-110v68q-22 -38 -60 -58t-86 -20zM288 569q-34 0 -64.5 11.5t-53 33t-35.5 52.5t-13 69v15h68v-15q0 -48 28.5 -73.5t69.5 -25.5
t69.5 25.5t28.5 73.5v15h68v-15q0 -38 -13 -69t-35.5 -52.5t-53 -33t-64.5 -11.5z" />
    <glyph glyph-name="uhungarumlaut" unicode="&#x171;" horiz-adv-x="583" 
d="M253 -10q-43 0 -77.5 15t-58.5 42.5t-37 66.5t-13 87v299h110v-281q0 -60 26 -94.5t74 -34.5q54 0 88 41.5t34 122.5v246h110v-500h-110v68q-22 -38 -60 -58t-86 -20zM402 750h120l-116 -190h-72zM227 750h121l-116 -190h-72z" />
    <glyph glyph-name="umacron" unicode="&#x16b;" horiz-adv-x="583" 
d="M253 -10q-43 0 -77.5 15t-58.5 42.5t-37 66.5t-13 87v299h110v-281q0 -60 26 -94.5t74 -34.5q54 0 88 41.5t34 122.5v246h110v-500h-110v68q-22 -38 -60 -58t-86 -20zM122 710h332v-82h-332v82z" />
    <glyph glyph-name="uogonek" unicode="&#x173;" horiz-adv-x="583" 
d="M253 -10q-43 0 -77.5 15t-58.5 42.5t-37 66.5t-13 87v299h110v-281q0 -60 26 -94.5t74 -34.5q54 0 88 41.5t34 122.5v246h110v-500h-110v68q-22 -38 -60 -58t-86 -20zM422 -219q-45 0 -72.5 26t-27.5 67q0 21 7 39.5t18 34t24.5 28.5t27.5 24h110q-45 -25 -67.5 -51.5
t-22.5 -52.5q0 -18 11.5 -26t25.5 -8q17 0 30.5 6t22.5 13v-73q-12 -10 -35 -18.5t-52 -8.5z" />
    <glyph glyph-name="uring" unicode="&#x16f;" horiz-adv-x="583" 
d="M253 -10q-43 0 -77.5 15t-58.5 42.5t-37 66.5t-13 87v299h110v-281q0 -60 26 -94.5t74 -34.5q54 0 88 41.5t34 122.5v246h110v-500h-110v68q-22 -38 -60 -58t-86 -20zM288 543q-25 0 -47 9.5t-38.5 26t-26 38t-9.5 46.5t9.5 46.5t26 38t38.5 26t47 9.5t47 -9.5t38.5 -26
t26.5 -38t10 -46.5t-10 -46.5t-26.5 -38t-38.5 -26t-47 -9.5zM288 599q28 0 47 18.5t19 45.5q0 26 -19 45.5t-47 19.5q-26 0 -45 -19.5t-19 -45.5q0 -27 19 -45.5t45 -18.5z" />
    <glyph glyph-name="utilde" unicode="&#x169;" horiz-adv-x="583" 
d="M253 -10q-43 0 -77.5 15t-58.5 42.5t-37 66.5t-13 87v299h110v-281q0 -60 26 -94.5t74 -34.5q54 0 88 41.5t34 122.5v246h110v-500h-110v68q-22 -38 -60 -58t-86 -20zM111 605q8 48 39 75t72 27q21 0 39.5 -7t35 -15.5t30 -15.5t25.5 -7q18 0 28 11.5t16 34.5h72l-4 -22
q-8 -48 -39 -75.5t-72 -27.5q-21 0 -39.5 7t-35 15.5t-30 15.5t-25.5 7q-18 0 -28 -11t-16 -34h-72z" />
    <glyph glyph-name="uni1EE5" unicode="&#x1ee5;" horiz-adv-x="583" 
d="M253 -10q-43 0 -77.5 15t-58.5 42.5t-37 66.5t-13 87v299h110v-281q0 -60 26 -94.5t74 -34.5q54 0 88 41.5t34 122.5v246h110v-500h-110v68q-22 -38 -60 -58t-86 -20zM291 -204q-28 0 -47.5 19.5t-19.5 47.5q0 27 19.5 46.5t47.5 19.5q27 0 46.5 -19.5t19.5 -46.5
q0 -28 -19.5 -47.5t-46.5 -19.5z" />
    <glyph glyph-name="wacute" unicode="&#x1e83;" horiz-adv-x="780" 
d="M390 323l-109 -323h-104l-168 500h116l108 -345l115 345h84l113 -345l110 345h117l-168 -500h-104zM453 750h133l-148 -190h-85z" />
    <glyph glyph-name="wcircumflex" unicode="&#x175;" horiz-adv-x="780" 
d="M390 323l-109 -323h-104l-168 500h116l108 -345l115 345h84l113 -345l110 345h117l-168 -500h-104zM557 656v-93l-166 99l-166 -99v93l166 100z" />
    <glyph glyph-name="wdieresis" unicode="&#x1e85;" horiz-adv-x="780" 
d="M390 323l-109 -323h-104l-168 500h116l108 -345l115 345h84l113 -345l110 345h117l-168 -500h-104zM277 587q-28 0 -47.5 19.5t-19.5 46.5q0 28 19.5 47.5t47.5 19.5q27 0 46 -19.5t19 -47.5q0 -27 -19 -46.5t-46 -19.5zM506 587q-27 0 -46.5 19.5t-19.5 46.5
q0 28 19.5 47.5t46.5 19.5q28 0 47 -19.5t19 -47.5q0 -27 -19 -46.5t-47 -19.5z" />
    <glyph glyph-name="wgrave" unicode="&#x1e81;" horiz-adv-x="780" 
d="M390 323l-109 -323h-104l-168 500h116l108 -345l115 345h84l113 -345l110 345h117l-168 -500h-104zM199 750h133l100 -190h-85z" />
    <glyph glyph-name="ycircumflex" unicode="&#x177;" horiz-adv-x="558" 
d="M113 -209l107 236l-215 473h121l153 -354l154 354h122l-321 -709h-121zM447 656v-93l-166 99l-166 -99v93l166 100z" />
    <glyph glyph-name="ygrave" unicode="&#x1ef3;" horiz-adv-x="558" 
d="M113 -209l107 236l-215 473h121l153 -354l154 354h122l-321 -709h-121zM89 750h133l100 -190h-85z" />
    <glyph glyph-name="uni0233" unicode="&#x233;" horiz-adv-x="558" 
d="M113 -209l107 236l-215 473h121l153 -354l154 354h122l-321 -709h-121zM115 710h332v-82h-332v82z" />
    <glyph glyph-name="zacute" unicode="&#x17a;" horiz-adv-x="490" 
d="M40 87l262 313h-258v100h400v-88l-262 -312h270v-100h-412v87zM306 750h133l-148 -190h-85z" />
    <glyph glyph-name="zcaron" unicode="&#x17e;" horiz-adv-x="490" 
d="M40 87l262 313h-258v100h400v-88l-262 -312h270v-100h-412v87zM78 662v94l166 -100l166 100v-94l-166 -99z" />
    <glyph glyph-name="zdotaccent" unicode="&#x17c;" horiz-adv-x="490" 
d="M40 87l262 313h-258v100h400v-88l-262 -312h270v-100h-412v87zM244 587q-28 0 -47.5 19.5t-19.5 46.5q0 28 19.5 47.5t47.5 19.5q27 0 46.5 -19.5t19.5 -47.5q0 -27 -19.5 -46.5t-46.5 -19.5z" />
    <glyph glyph-name="uni0259" unicode="&#x259;" horiz-adv-x="586" 
d="M294 510q55 0 101 -19.5t80 -54t53 -82.5t19 -104q0 -58 -17.5 -105.5t-50 -82t-80 -53.5t-107.5 -19q-57 0 -105 21t-82 59t-51.5 90.5t-14.5 116.5h398q-2 28 -13 53t-30 43.5t-44.5 29t-56.5 10.5q-95 0 -133 -70h-114q10 35 32 65.5t53.5 53t72.5 35.5t90 13zM296 82
q52 0 89.5 29.5t48.5 87.5h-276q6 -31 19.5 -53t32 -36.5t40.5 -21t46 -6.5z" />
    <glyph glyph-name="uni0410" unicode="&#x410;" horiz-adv-x="730" 
d="M314 710h102l310 -710h-122l-81 186h-318l-80 -186h-121zM250 290h228l-114 262z" />
    <glyph glyph-name="uni0411" unicode="&#x411;" horiz-adv-x="630" 
d="M358 429q52 0 96 -15t76 -42.5t50.5 -67.5t18.5 -90q0 -49 -18.5 -88.5t-50.5 -67.5t-76 -43t-96 -15h-271v710h448v-112h-330v-169h153zM483 214q0 52 -33 79.5t-93 27.5h-152v-212h152q60 0 93 27t33 78z" />
    <glyph glyph-name="uni0412" unicode="&#x412;" horiz-adv-x="631" 
d="M87 710h245q48 0 87 -15.5t66.5 -42.5t43 -62.5t15.5 -75.5q0 -48 -18.5 -81.5t-47.5 -55.5q49 -20 81.5 -61.5t32.5 -107.5q0 -44 -17 -82t-47 -66t-72 -44t-93 -16h-276v710zM360 107q57 0 87.5 28.5t30.5 73.5q0 44 -30.5 73t-87.5 29h-156v-204h156zM326 411
q48 0 75.5 27.5t27.5 68.5q0 39 -27.5 67.5t-75.5 28.5h-122v-192h122z" />
    <glyph glyph-name="uni0413" unicode="&#x413;" horiz-adv-x="517" 
d="M497 598h-292v-598h-118v710h410v-112z" />
    <glyph glyph-name="uni0414" unicode="&#x414;" horiz-adv-x="766" 
d="M625 0h-487v-148h-107v260h13q18 0 34.5 10t29 35t20 68.5t7.5 111.5v373h507v-598h90v-260h-107v148zM253 323q0 -81 -11 -129.5t-31 -81.5h314v486h-272v-275z" />
    <glyph glyph-name="uni0415" unicode="&#x415;" horiz-adv-x="562" 
d="M87 710h427v-112h-310v-182h250v-112h-250v-192h310v-112h-427v710z" />
    <glyph glyph-name="uni0416" unicode="&#x416;" horiz-adv-x="992" 
d="M554 315v-315h-117v314l-300 -314h-150l337 356l-307 354h141l279 -322v322h117v-322l280 322h141l-308 -354l338 -356h-150z" />
    <glyph glyph-name="uni0417" unicode="&#x417;" horiz-adv-x="586" 
d="M54 527q10 53 34 90t57 60.5t71.5 34t77.5 10.5q49 0 89.5 -13.5t69.5 -38.5t45 -60t16 -78q0 -42 -17 -83.5t-62 -72.5q52 -26 78.5 -71.5t26.5 -101.5q0 -52 -20 -92t-54 -67.5t-78 -41.5t-93 -14q-48 0 -93.5 13t-81.5 39t-60 66t-31 93h118q13 -53 54 -77t93 -24
q63 0 97 31t34 82q0 46 -31.5 75.5t-91.5 29.5h-83v100h80q50 0 75.5 28.5t25.5 70.5q0 43 -28 71t-81 28q-42 0 -75 -22.5t-45 -64.5h-117z" />
    <glyph glyph-name="uni0418" unicode="&#x418;" horiz-adv-x="793" 
d="M87 0v710h118v-510l399 510h102v-710h-117v511l-400 -511h-102z" />
    <glyph glyph-name="uni041A" unicode="&#x41a;" horiz-adv-x="682" 
d="M203 332v-332h-116v710h116v-306l285 306h148l-316 -340l386 -370h-158z" />
    <glyph glyph-name="uni041B" unicode="&#x41b;" horiz-adv-x="736" 
d="M141 710h508v-710h-118v598h-272v-389q0 -57 -13 -99t-36 -69t-55.5 -40t-72.5 -13q-38 0 -61 4v109q19 -3 46 -3q18 0 32 5.5t23 19.5t14 39t5 63v485z" />
    <glyph glyph-name="uni041C" unicode="&#x41c;" horiz-adv-x="885" 
d="M194 710l248 -336l249 336h107v-710h-118v509l-237 -322l-239 323v-510h-117v710h107z" />
    <glyph glyph-name="uni041D" unicode="&#x41d;" horiz-adv-x="760" 
d="M87 710h117v-294h351v294h117v-710h-117v305h-351v-305h-117v710z" />
    <glyph glyph-name="uni041E" unicode="&#x41e;" horiz-adv-x="817" 
d="M409 101q52 0 97.5 20t79 54.5t52.5 80.5t19 99t-19 99t-52.5 80.5t-79 54.5t-97.5 20q-53 0 -98.5 -20t-79 -54.5t-52.5 -80.5t-19 -99t19 -99t52.5 -80.5t79 -54.5t98.5 -20zM409 -12q-77 0 -143.5 28.5t-116.5 78t-78.5 116.5t-28.5 144t28.5 144t78.5 116.5t116.5 78
t143.5 28.5q76 0 143 -28.5t116.5 -78t78.5 -116.5t29 -144t-29 -144t-78.5 -116.5t-116.5 -78t-143 -28.5z" />
    <glyph glyph-name="uni041F" unicode="&#x41f;" horiz-adv-x="747" 
d="M544 598h-341v-598h-116v710h573v-710h-116v598z" />
    <glyph glyph-name="uni0420" unicode="&#x420;" horiz-adv-x="588" 
d="M559 478q0 -49 -18 -91.5t-50.5 -73.5t-77.5 -49t-100 -18h-109v-246h-117v710h226q55 0 100 -18t77.5 -49t50.5 -73.5t18 -91.5zM444 478q0 52 -34.5 87t-97.5 35h-108v-244h108q63 0 97.5 35t34.5 87z" />
    <glyph glyph-name="uni0421" unicode="&#x421;" horiz-adv-x="785" 
d="M412 -12q-79 0 -147 28t-117.5 77.5t-77.5 116.5t-28 145t28 145t77.5 116.5t117.5 77.5t147 28q64 0 120.5 -19.5t101.5 -53.5t76 -79.5t44 -97.5h-126q-11 30 -32 55.5t-49.5 43.5t-63 28t-71.5 10q-56 0 -102 -19.5t-79.5 -54t-52 -80.5t-18.5 -100t18.5 -100
t52 -80.5t79.5 -54t102 -19.5q37 0 71.5 10t63 28t49.5 43.5t32 55.5h126q-13 -52 -44 -97.5t-76 -79.5t-101.5 -53.5t-120.5 -19.5z" />
    <glyph glyph-name="uni0422" unicode="&#x422;" horiz-adv-x="567" 
d="M225 598h-206v112h530v-112h-207v-598h-117v598z" />
    <glyph glyph-name="uni0423" unicode="&#x423;" horiz-adv-x="710" 
d="M133 103q14 -2 29 -3t33 -1q33 0 60 14.5t50 58.5l-277 538h134l210 -409l211 409h131l-286 -552q-23 -46 -46.5 -78.5t-49.5 -52.5t-56 -29.5t-66 -9.5q-28 0 -44 2t-33 4v109z" />
    <glyph glyph-name="uni0424" unicode="&#x424;" horiz-adv-x="882" 
d="M383 549h-4q-114 1 -167.5 -51.5t-53.5 -138.5q0 -43 13 -78.5t40 -60.5t69 -38.5t99 -13.5h4v381zM383 -30v91h-4q-78 0 -141 20t-107 58t-68 93.5t-24 126.5q0 70 24 125t68 93t107 58t141 20h4v85h117v-85h3q78 0 141 -20t107.5 -58t68 -93t23.5 -125
q0 -71 -24 -126.5t-68 -93.5t-107 -58t-141 -20h-3v-91h-117zM504 168q114 0 167.5 52.5t53.5 138.5t-54 138.5t-167 51.5h-4v-381h4z" />
    <glyph glyph-name="uni0425" unicode="&#x425;" horiz-adv-x="683" 
d="M-1 0l271 360l-258 350h138l191 -259l192 259h138l-258 -351l271 -359h-140l-202 266l-202 -266h-141z" />
    <glyph glyph-name="uni0426" unicode="&#x426;" horiz-adv-x="765" 
d="M731 112v-260h-108v148h-536v710h118v-598h318v598h118v-598h90z" />
    <glyph glyph-name="uni0427" unicode="&#x427;" horiz-adv-x="686" 
d="M481 0v341q-32 -44 -82 -65.5t-115 -21.5q-53 0 -97 17t-75.5 48.5t-49.5 76t-18 99.5v215h118v-190q0 -79 39 -116.5t107 -37.5q34 0 65 11t55 33.5t38.5 57.5t14.5 83v159h118v-710h-118z" />
    <glyph glyph-name="uni0428" unicode="&#x428;" horiz-adv-x="983" 
d="M87 710h118v-598h228v598h117v-598h228v598h118v-710h-809v710z" />
    <glyph glyph-name="uni0429" unicode="&#x429;" horiz-adv-x="1020" 
d="M878 0h-791v710h118v-598h228v598h117v-598h228v598h118v-598h90v-260h-108v148z" />
    <glyph glyph-name="uni042A" unicode="&#x42a;" horiz-adv-x="720" 
d="M446 439q54 0 99 -16t77 -45t49.5 -69.5t17.5 -89.5q0 -48 -17.5 -88.5t-49.5 -69.5t-77 -45t-99 -16h-243v598h-184v112h302v-271h125zM444 109q61 0 95 28t34 82t-34 82.5t-95 28.5h-123v-221h123z" />
    <glyph glyph-name="uni042B" unicode="&#x42b;" horiz-adv-x="873" 
d="M330 439q54 0 99 -16t77 -45t49.5 -69.5t17.5 -89.5q0 -48 -17.5 -88.5t-49.5 -69.5t-77 -45t-99 -16h-243v710h118v-271h125zM328 109q61 0 95 28t34 82t-34 82.5t-95 28.5h-123v-221h123zM668 710h117v-710h-117v710z" />
    <glyph glyph-name="uni042C" unicode="&#x42c;" horiz-adv-x="604" 
d="M330 439q54 0 99 -16t77 -45t49.5 -69.5t17.5 -89.5q0 -48 -17.5 -88.5t-49.5 -69.5t-77 -45t-99 -16h-243v710h118v-271h125zM328 109q61 0 95 28t34 82t-34 82.5t-95 28.5h-123v-221h123z" />
    <glyph glyph-name="uni042D" unicode="&#x42d;" horiz-adv-x="784" 
d="M371.978 -11q78.9951 0 146.991 28q67.9951 28 117.492 77.5t77.4951 116.5q27.999 67 27.999 145q0 77 -27.999 144q-27.998 67 -77.4951 116.5t-117.492 78q-67.9961 28.5 -146.991 28.5q-63.9961 0 -120.493 -19.5q-56.4961 -19.5 -101.493 -53.5
q-44.998 -34 -75.9961 -79.5t-43.9971 -97.5h125.992q11 30 31.998 55q20.999 25 49.4971 43.5t62.9961 28.5t71.4961 10q47.9971 0 89.4941 -15q41.498 -15 73.4961 -42t53.4961 -63.5q21.499 -36.5 30.498 -79.5h-336.979v-106h336.979q-7.99902 -44 -29.498 -81
t-53.4971 -64t-73.4951 -42.5t-90.4941 -15.5q-36.998 0 -71.4961 10t-62.9961 28.5t-49.4971 43.5q-20.998 25 -31.998 55h-125.992q12.999 -52 43.9971 -97.5t75.9961 -79q44.9971 -33.5 101.493 -53q56.4971 -19.5 120.493 -19.5z" />
    <glyph glyph-name="uni042E" unicode="&#x42e;" horiz-adv-x="1072" 
d="M87 710h118v-296h117q10 67 40.5 123.5t77 97.5t106.5 64t128 23q75 0 140 -28t113 -77.5t75.5 -116.5t27.5 -145t-27.5 -145t-75.5 -116.5t-113 -77.5t-140 -28q-69 0 -130 24t-107.5 66t-77 100t-38.5 127h-116v-305h-118v710zM911 355q0 55 -18 101.5t-49.5 80.5
t-75 53t-94.5 19t-95 -19t-75.5 -53t-49.5 -80.5t-18 -101.5t18 -101.5t49.5 -80.5t75.5 -53t95 -19t94.5 19t75 53t49.5 80.5t18 101.5z" />
    <glyph glyph-name="uni042F" unicode="&#x42f;" horiz-adv-x="638" 
d="M434 269h-71l-234 -269h-143l248 287q-69 22 -110 76t-41 127q0 48 16.5 88.5t48 69.5t76 45.5t100.5 16.5h227v-710h-117v269zM199 490q0 -52 33.5 -83t93.5 -31h108v226h-108q-60 0 -93.5 -30.5t-33.5 -81.5z" />
    <glyph glyph-name="uni0405" unicode="&#x405;" horiz-adv-x="578" 
d="M298 -12q-59 0 -106.5 18t-80.5 48t-51.5 69t-19.5 81h117q3 -27 16.5 -47t33 -33.5t43.5 -20t48 -6.5q25 0 46.5 6t37.5 18t25.5 28.5t9.5 37.5q0 71 -98 104l-88 29q-84 27 -128.5 77t-45.5 128q0 46 16.5 82.5t46.5 62t71.5 39t91.5 13.5q55 0 98 -18t73 -46.5t46 -65
t19 -73.5h-116q-7 25 -19.5 43t-28.5 29t-35 16.5t-38 5.5q-45 0 -76 -22t-31 -60q-1 -39 23.5 -62t72.5 -39l87 -28q84 -27 130.5 -78.5t46.5 -132.5q0 -45 -17.5 -82.5t-48.5 -64t-75 -41.5t-96 -15z" />
    <glyph glyph-name="uni0404" unicode="&#x404;" horiz-adv-x="784" 
d="M412 -11q-79 0 -147 28t-117.5 77.5t-77.5 116.5t-28 145q0 77 28 144t77.5 116.5t117.5 78t147 28.5q64 0 120.5 -19.5t101.5 -53.5t76 -79.5t44 -97.5h-126q-11 30 -32 55t-49.5 43.5t-63 28.5t-71.5 10q-48 0 -89.5 -15t-73.5 -42t-53.5 -63.5t-30.5 -79.5h337v-106
h-337q8 -44 29.5 -81t53.5 -64t73.5 -42.5t90.5 -15.5q37 0 71.5 10t63 28.5t49.5 43.5t32 55h126q-13 -52 -44 -97.5t-76 -79t-101.5 -53t-120.5 -19.5z" />
    <glyph glyph-name="uni0406" unicode="&#x406;" horiz-adv-x="291" 
d="M87 710h117v-710h-117v710z" />
    <glyph glyph-name="uni0408" unicode="&#x408;" horiz-adv-x="537" 
d="M239 -12q-44 0 -83.5 13t-69.5 39t-47.5 65t-17.5 92h116q0 -25 8.5 -43.5t22.5 -31t32.5 -19t38.5 -6.5t38 6t32 19t22 33.5t8 49.5v505h117v-515q0 -55 -18 -94.5t-48 -64.5t-69 -36.5t-82 -11.5z" />
    <glyph glyph-name="uni040F" unicode="&#x40f;" horiz-adv-x="735" 
d="M422 -148h-108v148h-227v710h118v-598h325v598h117v-710h-225v-148z" />
    <glyph glyph-name="uni0409" unicode="&#x409;" horiz-adv-x="1037" 
d="M891 211q0 45 -32.5 70t-95.5 25h-119v-196h119q63 0 95.5 25t32.5 76zM644 710v-294h120q57 0 101.5 -15.5t76 -42.5t48 -64t16.5 -81q0 -46 -17.5 -85t-49 -67.5t-76 -44.5t-99.5 -16h-238v598h-267v-388q0 -58 -13 -100t-36 -69t-55.5 -40t-72.5 -13q-20 0 -33.5 1
t-27.5 3v109q21 -3 46 -3q18 0 32 5.5t23 19.5t14 39t5 63v485h503z" />
    <glyph glyph-name="uni040A" unicode="&#x40a;" horiz-adv-x="1044" 
d="M87 710h118v-294h334v294h117v-294h116q57 0 101.5 -15.5t76 -42.5t48 -64t16.5 -81q0 -46 -17.5 -85t-49 -67.5t-76 -44.5t-99.5 -16h-233v305h-334v-305h-118v710zM656 306v-196h114q128 0 128 101q0 45 -32.5 70t-95.5 25h-114z" />
    <glyph glyph-name="uni0402" unicode="&#x402;" horiz-adv-x="759" 
d="M500 444q55 0 97 -18t71 -49.5t44 -73.5t15 -89q0 -56 -19 -98.5t-50.5 -71t-73 -42.5t-86.5 -14q-28 0 -46 2t-35 4v107q19 -2 36.5 -3.5t37.5 -1.5q25 0 46.5 7.5t38 22.5t26 37t9.5 51q0 53 -35 86t-98 33q-35 0 -65 -11.5t-53 -34t-36 -55.5t-13 -76v-156h-117v598
h-175v112h512v-112h-220v-240q29 41 79 63.5t110 22.5z" />
    <glyph glyph-name="uni040B" unicode="&#x40b;" horiz-adv-x="769" 
d="M19 598v112h512v-112h-220v-240q29 40 78 63t112 23q49 0 90 -17t71 -48t46.5 -75t16.5 -98v-206h-117v181q0 78 -37 115t-98 37q-30 0 -59 -10.5t-52 -33t-37 -57t-14 -81.5v-151h-117v598h-175z" />
    <glyph glyph-name="uni0474" unicode="&#x474;" horiz-adv-x="781" 
d="M355 179l162 387q18 45 37 75t40.5 48t46.5 25.5t56 7.5q23 0 39 -2.5t27 -5.5v-110q-26 4 -45 4t-34.5 -7.5t-29 -25.5t-26.5 -50l-221 -525h-102l-299 710h129z" />
    <glyph glyph-name="uni04AE" unicode="&#x4ae;" horiz-adv-x="681" 
d="M282 300l-269 410h137l190 -294l191 294h138l-270 -411v-299h-117v300z" />
    <glyph glyph-name="uni04BA" unicode="&#x4ba;" horiz-adv-x="686" 
d="M204.987 709.957v-340.979q31.998 43.9971 81.9951 65.4961t114.993 21.499q52.9971 0 96.9941 -16.999t75.4951 -48.4971t49.4971 -75.9961q17.999 -44.4971 17.999 -99.4932v-214.987h-117.993v189.988q0 78.9951 -38.9971 116.493q-38.998 37.4971 -106.994 37.4971
q-33.998 0 -64.9961 -10.999t-54.9961 -33.498q-23.999 -22.498 -38.498 -57.4961t-14.499 -82.9951v-158.99h-117.992v709.957h117.992z" />
    <glyph glyph-name="uni04C0" unicode="&#x4c0;" horiz-adv-x="291" 
d="M87 710h117v-710h-117v710z" />
    <glyph glyph-name="uni04D8" unicode="&#x4d8;" horiz-adv-x="817" 
d="M408 -12q-78 0 -145.5 28.5t-116.5 78t-77 116.5t-28 144v47h612q-10 49 -33 87.5t-55.5 65t-72.5 40.5t-84 14q-70 0 -127 -30t-86 -79h-132q16 47 50 87.5t79.5 70.5t101 47t114.5 17q76 0 143 -28t116.5 -77.5t78.5 -116.5t29 -145q0 -77 -28 -144t-77 -116.5
t-116.5 -78t-145.5 -28.5zM409 101q44 0 83.5 13t72 38.5t55 62t31.5 83.5h-486q10 -47 33 -83.5t55 -61.5t72 -38.5t84 -13.5z" />
    <glyph glyph-name="uni0462" unicode="&#x462;" horiz-adv-x="731" 
d="M453 429q54 0 99 -15.5t76.5 -44t49 -68t17.5 -87.5q0 -47 -17.5 -86.5t-49 -68t-76.5 -44t-99 -15.5h-243v525h-182v101h182v84h117v-84h222v-101h-222v-96h126zM450 109q61 0 95.5 26.5t34.5 78.5t-34.5 79t-95.5 27h-123v-211h123z" />
    <glyph glyph-name="uni0419" unicode="&#x419;" horiz-adv-x="793" 
d="M87 0v710h118v-510l399 510h102v-710h-117v511l-400 -511h-102zM406 755q-34 0 -64.5 11.5t-53 33t-35.5 52.5t-13 69h77q0 -45 24 -71t65 -26t65 26t24 71h77q0 -38 -13 -69t-35.5 -52.5t-53 -33t-64.5 -11.5z" />
    <glyph glyph-name="uni0401" unicode="&#x401;" horiz-adv-x="562" 
d="M87 710h427v-112h-310v-182h250v-112h-250v-192h310v-112h-427v710zM186 779q-28 0 -47.5 19.5t-19.5 46.5q0 28 19.5 47.5t47.5 19.5q27 0 46 -19.5t19 -47.5q0 -27 -19 -46.5t-46 -19.5zM415 779q-27 0 -46.5 19.5t-19.5 46.5q0 28 19.5 47.5t46.5 19.5q28 0 47 -19.5
t19 -47.5q0 -27 -19 -46.5t-47 -19.5z" />
    <glyph glyph-name="uni040C" unicode="&#x40c;" horiz-adv-x="682" 
d="M203 332v-332h-116v710h116v-306l285 306h148l-316 -340l386 -370h-158zM386 927h129l-118 -157h-86z" />
    <glyph glyph-name="uni0490" unicode="&#x490;" horiz-adv-x="517" 
d="M497 598h-292v-598h-118v710h410v-112zM389 710v148h108v-148h-108z" />
    <glyph glyph-name="uni0403" unicode="&#x403;" horiz-adv-x="517" 
d="M497 598h-292v-598h-118v710h410v-112zM333 927h129l-118 -157h-86z" />
    <glyph glyph-name="uni040E" unicode="&#x40e;" horiz-adv-x="710" 
d="M133 103q14 -2 29 -3t33 -1q33 0 60 14.5t50 58.5l-277 538h134l210 -409l211 409h131l-286 -552q-23 -46 -46.5 -78.5t-49.5 -52.5t-56 -29.5t-66 -9.5q-28 0 -44 2t-33 4v109zM373 755q-34 0 -64.5 11.5t-53 33t-35.5 52.5t-13 69h77q0 -45 24 -71t65 -26t65 26t24 71
h77q0 -38 -13 -69t-35.5 -52.5t-53 -33t-64.5 -11.5z" />
    <glyph glyph-name="uni0407" unicode="&#x407;" horiz-adv-x="291" 
d="M87 710h117v-710h-117v710zM48 797q-28 0 -47.5 20t-19.5 48t19.5 47.5t47.5 19.5t48 -19.5t20 -47.5t-20 -48t-48 -20zM241 797q-28 0 -47.5 20t-19.5 48t19.5 47.5t47.5 19.5t48 -19.5t20 -47.5t-20 -48t-48 -20z" />
    <glyph glyph-name="uni0472" unicode="&#x472;" horiz-adv-x="817" 
d="M409 101q52 0 97.5 20t79 54.5t52.5 80.5t19 99t-19 99t-52.5 80.5t-79 54.5t-97.5 20q-53 0 -98.5 -20t-79 -54.5t-52.5 -80.5t-19 -99t19 -99t52.5 -80.5t79 -54.5t98.5 -20zM409 -12q-77 0 -143.5 28.5t-116.5 78t-78.5 116.5t-28.5 144t28.5 144t78.5 116.5t116.5 78
t143.5 28.5q76 0 143 -28.5t116.5 -78t78.5 -116.5t29 -144t-29 -144t-78.5 -116.5t-116.5 -78t-143 -28.5zM521 387q38 0 75.5 11.5t66.5 31.5v-104q-29 -20 -67 -31.5t-75 -11.5q-31 0 -59.5 6.5t-56 15t-54.5 15t-55 6.5q-38 0 -76 -11.5t-67 -31.5v104q29 20 67 31.5
t76 11.5q36 0 64.5 -6.5t54 -15t51 -15t55.5 -6.5z" />
    <glyph glyph-name="uni04E8" unicode="&#x4e8;" horiz-adv-x="817" 
d="M409 101q52 0 97.5 20t79 54.5t52.5 80.5t19 99t-19 99t-52.5 80.5t-79 54.5t-97.5 20q-53 0 -98.5 -20t-79 -54.5t-52.5 -80.5t-19 -99t19 -99t52.5 -80.5t79 -54.5t98.5 -20zM409 -12q-77 0 -143.5 28.5t-116.5 78t-78.5 116.5t-28.5 144t28.5 144t78.5 116.5t116.5 78
t143.5 28.5q76 0 143 -28.5t116.5 -78t78.5 -116.5t29 -144t-29 -144t-78.5 -116.5t-116.5 -78t-143 -28.5zM98 408h620v-106h-620v106z" />
    <glyph glyph-name="uni0492" unicode="&#x492;" horiz-adv-x="542" 
d="M520 598h-292v-598h-118v710h410v-112zM20 410h379v-106h-379v106z" />
    <glyph glyph-name="uni04B0" unicode="&#x4b0;" horiz-adv-x="676" 
d="M280 300l-269 410h137l190 -294l191 294h138l-270 -411v-299h-117v300zM547 194h-420v106h420v-106z" />
    <glyph glyph-name="uni04E2" unicode="&#x4e2;" horiz-adv-x="793" 
d="M87 0v710h118v-510l399 510h102v-710h-117v511l-400 -511h-102zM240 880h332v-82h-332v82z" />
    <glyph glyph-name="uni04EE" unicode="&#x4ee;" horiz-adv-x="710" 
d="M133 103q14 -2 29 -3t33 -1q33 0 60 14.5t50 58.5l-277 538h134l210 -409l211 409h131l-286 -552q-23 -46 -46.5 -78.5t-49.5 -52.5t-56 -29.5t-66 -9.5q-28 0 -44 2t-33 4v109zM207 880h332v-82h-332v82z" />
    <glyph glyph-name="uni0496" unicode="&#x496;" horiz-adv-x="1017" 
d="M554 315v-315h-117v314l-300 -314h-150l337 356l-307 354h141l279 -322v322h117v-322l280 322h141l-308 -354l338 -356h-150zM904 0h-26v112h134v-260h-108v148z" />
    <glyph glyph-name="uni049A" unicode="&#x49a;" horiz-adv-x="707" 
d="M203 332v-332h-116v710h116v-306l285 306h148l-316 -340l386 -370h-158zM601 0h-26v112h134v-260h-108v148z" />
    <glyph glyph-name="uni04A2" unicode="&#x4a2;" horiz-adv-x="797" 
d="M87 710h117v-294h351v294h117v-710h-117v305h-351v-305h-117v710zM656 0h-26v112h134v-260h-108v148z" />
    <glyph glyph-name="uni04B2" unicode="&#x4b2;" horiz-adv-x="721" 
d="M-1 0l271 360l-258 350h138l191 -259l192 259h138l-258 -351l271 -359h-140l-202 266l-202 -266h-141zM607 0h-26v112h134v-260h-108v148z" />
    <glyph glyph-name="uni04B6" unicode="&#x4b6;" horiz-adv-x="723" 
d="M481 0v341q-32 -44 -82 -65.5t-115 -21.5q-53 0 -97 17t-75.5 48.5t-49.5 76t-18 99.5v215h118v-190q0 -79 39 -116.5t107 -37.5q34 0 65 11t55 33.5t38.5 57.5t14.5 83v159h118v-710h-118zM582 0h-26v112h134v-260h-108v148z" />
    <glyph glyph-name="uni0430" unicode="&#x430;" horiz-adv-x="624" 
d="M279 -10q-51 0 -95.5 20.5t-76.5 56t-50.5 82.5t-18.5 101t18.5 101t50.5 82.5t76.5 56t95.5 20.5q54 0 96.5 -23.5t63.5 -53.5v67h110v-500h-110v67q-21 -30 -63.5 -53.5t-96.5 -23.5zM299 90q33 0 60.5 12.5t47 34t30.5 50.5t11 63t-11 63t-30.5 50.5t-47 34
t-60.5 12.5t-60.5 -12.5t-47 -34t-30.5 -50.5t-11 -63t11 -63t30.5 -50.5t47 -34t60.5 -12.5z" />
    <glyph glyph-name="uni0431" unicode="&#x431;" horiz-adv-x="616" 
d="M316 -10q-62 0 -110 21t-81.5 59.5t-51 93t-17.5 120.5v40q0 95 18 164t54.5 116t91 75t127.5 42l181 33v-105l-157 -28q-98 -18 -144.5 -64t-57.5 -134q33 38 76 55t89 17q57 0 102 -19.5t76.5 -52.5t48.5 -77.5t17 -93.5q0 -55 -20 -102.5t-55 -83t-83 -56t-104 -20.5z
M315 92q33 0 60.5 11t47.5 32t31.5 50t11.5 65q0 31 -11 58t-31 46.5t-47.5 31t-60.5 11.5q-34 0 -61.5 -11.5t-47 -32t-30.5 -47t-11 -56.5q0 -36 11 -65t31 -50t47 -32t60 -11z" />
    <glyph glyph-name="uni0432" unicode="&#x432;" horiz-adv-x="550" 
d="M74 500h228q45 0 78.5 -11.5t55.5 -31t33 -45.5t11 -55q0 -54 -41 -91q35 -19 54 -50t19 -68q0 -29 -10 -55.5t-32 -47t-56 -33t-83 -12.5h-257v500zM330 93q32 0 52 16t20 46q0 31 -20 47t-52 16h-146v-125h146zM306 298q23 0 43.5 12.5t20.5 44.5t-20.5 44t-43.5 12
h-122v-113h122z" />
    <glyph glyph-name="uni0433" unicode="&#x433;" horiz-adv-x="419" 
d="M74 500h328v-98h-218v-402h-110v500z" />
    <glyph glyph-name="uni0434" unicode="&#x434;" horiz-adv-x="638" 
d="M44 98q15 0 27.5 6.5t22.5 23t15.5 45t5.5 72.5v255h412v-402h78v-223h-100v125h-373v-125h-101v223h13zM225 234q0 -27 -2 -47.5t-6 -36.5t-9 -28.5t-12 -23.5h221v304h-192v-168z" />
    <glyph glyph-name="uni0435" unicode="&#x435;" horiz-adv-x="585" 
d="M295 -10q-56 0 -103 19.5t-81 54t-53 82.5t-19 104q0 55 18.5 103t52 82.5t81 54.5t105.5 20q57 0 105 -21t81.5 -59t50.5 -90.5t13 -116.5h-398q1 -29 12.5 -53.5t31 -43t47 -29t60.5 -10.5q42 0 75.5 17t50.5 53h115q-11 -35 -32.5 -65.5t-53 -53t-71.5 -35.5t-88 -13z
M293 418q-52 0 -91.5 -29.5t-50.5 -87.5h277q-13 61 -51 89t-84 28z" />
    <glyph glyph-name="uni0436" unicode="&#x436;" horiz-adv-x="800" 
d="M455 213v-213h-110v214l-212 -214h-140l251 254l-217 246h131l187 -214v214h110v-213l186 213h131l-217 -246l252 -254h-140z" />
    <glyph glyph-name="uni0437" unicode="&#x437;" horiz-adv-x="493" 
d="M247 -10q-38 0 -74 9.5t-65 28.5t-50 48t-29 69h113q11 -32 38.5 -48t66.5 -16q48 1 71.5 21t23.5 49q0 32 -23 49.5t-65 17.5h-59v81h57q34 0 54.5 15t20.5 46q0 29 -22 45.5t-60 16.5q-35 0 -60 -16t-34 -45h-110q8 40 28 68t48 46t61.5 26.5t68.5 8.5q47 0 82 -12
t58 -32t34 -45.5t11 -52.5q0 -32 -12.5 -59t-41.5 -46q35 -18 55 -48t20 -72q0 -29 -13 -56.5t-38.5 -49t-64.5 -34.5t-90 -13z" />
    <glyph glyph-name="uni0438" unicode="&#x438;" horiz-adv-x="611" 
d="M74 0v500h110v-333l255 333h98v-500h-110v333l-255 -333h-98z" />
    <glyph glyph-name="uni043A" unicode="&#x43a;" horiz-adv-x="537" 
d="M184 213v-213h-110v500h110v-214l197 214h134l-227 -246l263 -254h-145z" />
    <glyph glyph-name="uni043B" unicode="&#x43b;" horiz-adv-x="595" 
d="M74 -8q-35 0 -54 4v95q8 -1 16.5 -1.5t16.5 -0.5q29 0 45 19t16 74v318h407v-500h-110v402h-187v-237q0 -45 -12 -77.5t-32.5 -54t-48 -31.5t-57.5 -10z" />
    <glyph glyph-name="uni043C" unicode="&#x43c;" horiz-adv-x="692" 
d="M170 500l175 -228l177 228h96v-500h-110v327l-162 -210l-162 210v-327h-110v500h96z" />
    <glyph glyph-name="uni043D" unicode="&#x43d;" horiz-adv-x="609" 
d="M74 500h110v-198h241v198h110v-500h-110v204h-241v-204h-110v500z" />
    <glyph glyph-name="uni043E" unicode="&#x43e;" horiz-adv-x="599" 
d="M300 -10q-56 0 -103.5 20t-83 55.5t-55.5 83t-20 101.5t20 101.5t55.5 83t83 55.5t103.5 20q55 0 103 -20t83.5 -55.5t55.5 -83t20 -101.5t-20 -101.5t-55.5 -83t-83.5 -55.5t-103 -20zM300 92q33 0 60.5 12t47.5 33.5t31 50.5t11 62t-11 62t-31 50.5t-47.5 33.5
t-60.5 12t-61 -12t-48 -33.5t-31 -50.5t-11 -62t11 -62t31 -50.5t48 -33.5t61 -12z" />
    <glyph glyph-name="uni043F" unicode="&#x43f;" horiz-adv-x="599" 
d="M74 500h451v-500h-110v402h-231v-402h-110v500z" />
    <glyph glyph-name="uni0440" unicode="&#x440;" horiz-adv-x="624" 
d="M74 -209v709h110v-67q21 30 64 53.5t97 23.5q51 0 95.5 -20.5t76.5 -56t50.5 -82.5t18.5 -101t-18.5 -101t-50.5 -82.5t-76.5 -56t-95.5 -20.5q-54 0 -97 23.5t-64 53.5v-276h-110zM325 90q33 0 60.5 12.5t47 34t30.5 50.5t11 63t-11 63t-30.5 50.5t-47 34t-60.5 12.5
t-61 -12.5t-47.5 -34t-30.5 -50.5t-11 -63t11 -63t30.5 -50.5t47.5 -34t61 -12.5z" />
    <glyph glyph-name="uni0441" unicode="&#x441;" horiz-adv-x="584" 
d="M300 -10q-57 0 -105 20.5t-83 55.5t-54.5 82.5t-19.5 101.5t19.5 101.5t54.5 82.5t83 55.5t105 20.5q49 0 91.5 -14.5t75 -40.5t55 -61t32.5 -77h-116q-15 41 -50.5 67t-87.5 26q-33 0 -61 -12t-47.5 -33t-30.5 -50.5t-11 -64.5t11 -64.5t30.5 -50.5t47.5 -33t61 -12
q52 0 87.5 26t50.5 67h116q-10 -42 -32.5 -77t-55 -61t-75 -40.5t-91.5 -14.5z" />
    <glyph glyph-name="uni0442" unicode="&#x442;" horiz-adv-x="452" 
d="M167 402h-150v98h417v-98h-157v-402h-110v402z" />
    <glyph glyph-name="uni0443" unicode="&#x443;" horiz-adv-x="558" 
d="M295 -77q-33 -74 -76 -108t-109 -34q-20 0 -34 1t-27 4v95q11 -1 22 -1.5t27 -0.5q26 0 48 15.5t42 57.5l33 73l-216 475h121l157 -347l150 347h122z" />
    <glyph glyph-name="uni0444" unicode="&#x444;" horiz-adv-x="747" 
d="M319 -209v199h-8q-66 0 -116.5 21t-85.5 57t-53 83t-18 99t18 99t53 83t85.5 57t116.5 21h8v241h110v-241h8q65 0 116 -21t85.5 -57t52.5 -83t18 -99t-18 -99t-52.5 -83t-85.5 -57t-116 -21h-8v-199h-110zM429 409v-318h8q38 0 68 12.5t50.5 34t31.5 50.5t11 62t-11 62
t-32 50.5t-51 34t-67 12.5h-8zM319 409h-8q-38 0 -68 -12.5t-50.5 -34t-31.5 -50.5t-11 -62t10.5 -62t31 -50.5t50.5 -34t69 -12.5h8v318z" />
    <glyph glyph-name="uni0445" unicode="&#x445;" horiz-adv-x="547" 
d="M274 169l-135 -169h-134l199 249l-188 251h131l126 -168l126 168h132l-188 -251l199 -249h-133z" />
    <glyph glyph-name="uni0446" unicode="&#x446;" horiz-adv-x="633" 
d="M602 -125h-100v125h-428v500h110v-402h229v402h110v-402h79v-223z" />
    <glyph glyph-name="uni0447" unicode="&#x447;" horiz-adv-x="553" 
d="M369 0v218q-19 -26 -57.5 -42.5t-89.5 -16.5q-40 0 -73.5 12t-58 35.5t-38.5 59t-14 82.5v152h110v-140q0 -57 29 -80t74 -23q20 0 41 7t38 21.5t28 38t11 56.5v120h110v-500h-110z" />
    <glyph glyph-name="uni0448" unicode="&#x448;" horiz-adv-x="825" 
d="M74 500h110v-402h174v402h110v-402h173v402h110v-500h-677v500z" />
    <glyph glyph-name="uni0449" unicode="&#x449;" horiz-adv-x="863" 
d="M831 -125h-101v125h-656v500h110v-402h174v402h110v-402h173v402h110v-402h80v-223z" />
    <glyph glyph-name="uni044A" unicode="&#x44a;" horiz-adv-x="578" 
d="M151 403h-133v97h243v-165h105q49 0 84 -15.5t57.5 -39.5t32.5 -53.5t10 -57.5q0 -29 -10.5 -59t-32.5 -54.5t-57 -40t-84 -15.5h-215v403zM261 97h96q42 0 64.5 18.5t22.5 52.5q0 35 -22.5 52.5t-64.5 17.5h-96v-141z" />
    <glyph glyph-name="uni044B" unicode="&#x44b;" horiz-adv-x="730" 
d="M546 500h110v-500h-110v500zM74 500h110v-165h105q49 0 84 -15.5t57.5 -39.5t32.5 -53.5t10 -57.5q0 -29 -10.5 -59t-32.5 -54.5t-57 -40t-84 -15.5h-215v500zM184 97h96q42 0 64.5 18.5t22.5 52.5q0 35 -22.5 52.5t-64.5 17.5h-96v-141z" />
    <glyph glyph-name="uni044C" unicode="&#x44c;" horiz-adv-x="501" 
d="M74 500h110v-165h105q49 0 84 -15.5t57.5 -39.5t32.5 -53.5t10 -57.5q0 -29 -10.5 -59t-32.5 -54.5t-57 -40t-84 -15.5h-215v500zM184 97h96q42 0 64.5 18.5t22.5 52.5q0 35 -22.5 52.5t-64.5 17.5h-96v-141z" />
    <glyph glyph-name="uni044D" unicode="&#x44d;" horiz-adv-x="585" 
d="M284.982 -10q56.9971 0 104.994 20.5t82.9941 55.5q34.998 35 54.4971 82.5t19.499 101.5t-19.499 101.5t-54.4971 82.5q-34.9971 35 -82.9941 55.5t-104.994 20.5q-48.9971 0 -91.4941 -14.5t-74.9951 -40.5t-54.9971 -61t-32.498 -77h115.993q14.999 41 50.4971 67
q35.4971 26 87.4941 26q55.9971 0 94.4941 -31.5q38.498 -31.5 50.4971 -83.5h-198.987v-80h200.987q-9.99902 -57 -48.9971 -91t-97.9941 -34q-51.9971 0 -87.4941 26q-35.498 26 -50.4971 67h-115.993q9.99902 -42 32.498 -77t54.9971 -61t74.9951 -40.5t91.4941 -14.5z
" />
    <glyph glyph-name="uni044E" unicode="&#x44e;" horiz-adv-x="812" 
d="M521 -10q-49 0 -91 16.5t-75 45t-55 67.5t-29 85h-87v-204h-110v500h110v-199h88q8 45 30 83.5t54.5 66t74.5 43.5t90 16q55 0 101 -20t79.5 -55.5t52.5 -83t19 -101.5t-19 -101.5t-52.5 -83t-79.5 -55.5t-101 -20zM521 93q31 0 57 12t45 33t29 49.5t10 62.5t-10 62.5
t-29 49.5t-45 33t-57 12q-32 0 -57.5 -12t-44.5 -33t-29 -49.5t-10 -62.5q0 -33 10 -62t29 -50t44.5 -33t57.5 -12z" />
    <glyph glyph-name="uni044F" unicode="&#x44f;" horiz-adv-x="532" 
d="M180 192q-51 18 -79 56t-28 89q0 34 12 64t35 52t57 34.5t79 12.5h202v-500h-110v171h-56l-169 -171h-130zM348 263v144h-86q-41 0 -62 -19.5t-21 -54.5q0 -34 23 -52t60 -18h86z" />
    <glyph glyph-name="uni0455" unicode="&#x455;" horiz-adv-x="483" 
d="M250 -10q-44 0 -82 11t-66.5 32t-46 51t-19.5 68h114q7 -41 36.5 -57.5t66.5 -16.5q36 0 58.5 13.5t22.5 39.5t-17.5 41t-56.5 25l-82 22q-65 17 -96.5 56.5t-31.5 94.5q0 31 13.5 57t37.5 44.5t58.5 28.5t76.5 10q40 0 74 -11t59 -30.5t40 -47t18 -61.5h-110
q-8 32 -30.5 47t-51.5 15q-32 0 -52.5 -13.5t-20.5 -37.5t17.5 -38t49.5 -22l84 -22q68 -17 100.5 -55.5t32.5 -95.5q0 -36 -15 -64t-41 -46.5t-62 -28t-78 -9.5z" />
    <glyph glyph-name="uni0454" unicode="&#x454;" horiz-adv-x="585" 
d="M300 -10q-57 0 -105 20.5t-83 55.5t-54.5 82.5t-19.5 101.5t19.5 101.5t54.5 82.5t83 55.5t105 20.5q49 0 91.5 -14.5t75 -40.5t55 -61t32.5 -77h-116q-15 41 -50.5 67t-87.5 26q-56 0 -94.5 -31.5t-50.5 -83.5h199v-80h-201q10 -57 49 -91t98 -34q52 0 87.5 26t50.5 67
h116q-10 -42 -32.5 -77t-55 -61t-75 -40.5t-91.5 -14.5z" />
    <glyph glyph-name="uni0456" unicode="&#x456;" horiz-adv-x="258" 
d="M129 609q-30 0 -51.5 21.5t-21.5 52.5q0 30 21.5 51.5t51.5 21.5q31 0 52.5 -21.5t21.5 -51.5q0 -31 -21.5 -52.5t-52.5 -21.5zM74 500h110v-500h-110v500z" />
    <glyph glyph-name="uni0458" unicode="&#x458;" horiz-adv-x="266" 
d="M192 -53q0 -42 -13.5 -73t-36 -52t-53.5 -31t-65 -10q-28 0 -47 3v96q5 -1 12 -1.5t15 -0.5q37 0 57.5 19t20.5 66v537h110v-553zM137 609q-30 0 -51.5 21.5t-21.5 52.5q0 30 21.5 51.5t51.5 21.5q31 0 52.5 -21.5t21.5 -51.5q0 -31 -21.5 -52.5t-52.5 -21.5z" />
    <glyph glyph-name="uni045F" unicode="&#x45f;" horiz-adv-x="602" 
d="M352 0v-125h-101v125h-177v500h110v-401h234v401h110v-500h-176z" />
    <glyph glyph-name="uni0459" unicode="&#x459;" horiz-adv-x="822" 
d="M516 95h102q32 0 51 14.5t19 40.5q0 28 -19 42.5t-51 14.5h-102v-112zM516 500v-198h110q44 0 76 -13.5t52.5 -35t30 -48t9.5 -52.5t-9.5 -53.5t-30 -49.5t-52.5 -36t-76 -14h-220v402h-182v-237q0 -45 -12 -77.5t-32.5 -54t-48 -31.5t-57.5 -10q-35 0 -54 4v95
q8 -1 16.5 -1.5t16.5 -0.5q29 0 45 19t16 74v318h402z" />
    <glyph glyph-name="uni045A" unicode="&#x45a;" horiz-adv-x="831" 
d="M697 150q0 28 -18.5 42.5t-50.5 14.5h-103v-112h103q32 0 50.5 14.5t18.5 40.5zM804 153q0 -26 -10 -53.5t-30.5 -49.5t-52.5 -36t-76 -14h-220v204h-231v-204h-110v500h110v-198h231v198h110v-198h110q44 0 76 -13.5t52.5 -35t30.5 -48t10 -52.5z" />
    <glyph glyph-name="uni0452" unicode="&#x452;" horiz-adv-x="594" 
d="M359 -219q-29 0 -48 3v96q5 -1 12 -1.5t15 -0.5q38 0 58.5 19t20.5 66v320q0 60 -28 93.5t-76 33.5q-55 0 -92 -41.5t-37 -122.5v-246h-110v582h-82v79h82v89h110v-89h170v-79h-170v-150q23 38 63 58t89 20q43 0 78.5 -15t60.5 -42t38.5 -65.5t13.5 -86.5v-354
q0 -42 -13.5 -73t-36 -52t-53.5 -31t-65 -10z" />
    <glyph glyph-name="uni045B" unicode="&#x45b;" horiz-adv-x="594" 
d="M-8 577v79h82v84h110v-84h170v-79h-170v-145q23 38 63 58t89 20q43 0 78.5 -15t60.5 -42t38.5 -65.5t13.5 -86.5v-301h-110v283q0 60 -28 93.5t-76 33.5q-55 0 -92 -41.5t-37 -122.5v-246h-110v577h-82z" />
    <glyph glyph-name="uni0457" unicode="&#x457;" horiz-adv-x="258" 
d="M74 500h110v-500h-110v500zM33 587q-29 0 -48.5 20t-19.5 48t19.5 47.5t48.5 19.5q28 0 47.5 -19.5t19.5 -47.5t-19.5 -48t-47.5 -20zM225 587q-27 0 -47 20t-20 48t20 47.5t47 19.5q29 0 48.5 -19.5t19.5 -47.5t-19.5 -48t-48.5 -20z" />
    <glyph glyph-name="uni0475" unicode="&#x475;" horiz-adv-x="600" 
d="M126 500l152 -351l98 224q32 76 68 106.5t89 30.5q36 0 54 -6v-97q-20 3 -34.5 2t-26 -7t-20.5 -18t-18 -32l-161 -352h-97l-226 500h122z" />
    <glyph glyph-name="uni04AF" unicode="&#x4af;" horiz-adv-x="560" 
d="M225 -1l-221 501h123l152 -364l154 364h123l-221 -501v-208h-110v208z" />
    <glyph glyph-name="uni04BB" unicode="&#x4bb;" horiz-adv-x="594" 
d="M74 0v750h110v-318q23 38 63 58t89 20q43 0 78.5 -15t60.5 -42t38.5 -65.5t13.5 -86.5v-301h-110v283q0 60 -28 93.5t-76 33.5q-55 0 -92 -41.5t-37 -122.5v-246h-110z" />
    <glyph glyph-name="uni04CF" unicode="&#x4cf;" horiz-adv-x="258" 
d="M74 750h110v-750h-110v750z" />
    <glyph glyph-name="uni04D9" unicode="&#x4d9;" horiz-adv-x="585" 
d="M290 510q56 0 103.5 -19.5t81.5 -54t53 -82.5t19 -104t-18.5 -103.5t-52.5 -82t-81.5 -54.5t-105.5 -20q-57 0 -104.5 21t-81 59t-50.5 90.5t-14 116.5h398q-2 28 -13.5 53t-31 43.5t-46.5 29t-60 10.5q-42 0 -75.5 -17t-50.5 -53h-114q10 35 32 65.5t53 53t71 35.5
t88 13zM292 82q52 0 91 29.5t50 87.5h-275q6 -31 19 -53t31 -36.5t39.5 -21t44.5 -6.5z" />
    <glyph glyph-name="uni0463" unicode="&#x463;" horiz-adv-x="555" 
d="M18 500h106v250h110v-250h186v-79h-186v-86h105q49 0 84 -15.5t57.5 -39.5t32.5 -53.5t10 -57.5q0 -29 -10.5 -59t-32.5 -54.5t-57 -40t-84 -15.5h-215v421h-106v79zM234 238v-141h96q42 0 64.5 18.5t22.5 52.5q0 35 -22.5 52.5t-64.5 17.5h-96z" />
    <glyph glyph-name="uni0439" unicode="&#x439;" horiz-adv-x="611" 
d="M74 0v500h110v-333l255 333h98v-500h-110v333l-255 -333h-98zM313 569q-34 0 -64.5 11.5t-53 33t-35.5 52.5t-13 69v15h78v-15q0 -48 25.5 -73.5t62.5 -25.5t62.5 25.5t25.5 73.5v15h78v-15q0 -38 -13 -69t-35.5 -52.5t-53 -33t-64.5 -11.5z" />
    <glyph glyph-name="uni0451" unicode="&#x451;" horiz-adv-x="585" 
d="M295 -10q-56 0 -103 19.5t-81 54t-53 82.5t-19 104q0 55 18.5 103t52 82.5t81 54.5t105.5 20q57 0 105 -21t81.5 -59t50.5 -90.5t13 -116.5h-398q1 -29 12.5 -53.5t31 -43t47 -29t60.5 -10.5q42 0 75.5 17t50.5 53h115q-11 -35 -32.5 -65.5t-53 -53t-71.5 -35.5t-88 -13z
M293 418q-52 0 -91.5 -29.5t-50.5 -87.5h277q-13 61 -51 89t-84 28zM182 587q-28 0 -47.5 19.5t-19.5 46.5q0 28 19.5 47.5t47.5 19.5q27 0 46 -19.5t19 -47.5q0 -27 -19 -46.5t-46 -19.5zM411 587q-27 0 -46.5 19.5t-19.5 46.5q0 28 19.5 47.5t46.5 19.5q28 0 47 -19.5
t19 -47.5q0 -27 -19 -46.5t-47 -19.5z" />
    <glyph glyph-name="uni045C" unicode="&#x45c;" horiz-adv-x="537" 
d="M184 213v-213h-110v500h110v-214l197 214h134l-227 -246l263 -254h-145zM351 750h133l-148 -190h-85z" />
    <glyph glyph-name="uni0491" unicode="&#x491;" horiz-adv-x="419" 
d="M74 500h328v-98h-218v-402h-110v500zM301 500v125h101v-125h-101z" />
    <glyph glyph-name="uni0453" unicode="&#x453;" horiz-adv-x="419" 
d="M74 500h328v-98h-218v-402h-110v500zM299 750h133l-148 -190h-85z" />
    <glyph glyph-name="uni045E" unicode="&#x45e;" horiz-adv-x="558" 
d="M295 -77q-33 -74 -76 -108t-109 -34q-20 0 -34 1t-27 4v95q11 -1 22 -1.5t27 -0.5q26 0 48 15.5t42 57.5l33 73l-216 475h121l157 -347l150 347h122zM280 569q-34 0 -64.5 11.5t-53 33t-35.5 52.5t-13 69v15h78v-15q0 -48 25.5 -73.5t62.5 -25.5t62.5 25.5t25.5 73.5v15
h78v-15q0 -38 -13 -69t-35.5 -52.5t-53 -33t-64.5 -11.5z" />
    <glyph glyph-name="uni0473" unicode="&#x473;" horiz-adv-x="599" 
d="M300 -10q-56 0 -103.5 20t-83 55.5t-55.5 83t-20 101.5t20 101.5t55.5 83t83 55.5t103.5 20q55 0 103 -20t83.5 -55.5t55.5 -83t20 -101.5t-20 -101.5t-55.5 -83t-83.5 -55.5t-103 -20zM300 92q33 0 60.5 12t47.5 33.5t31 50.5t11 62t-11 62t-31 50.5t-47.5 33.5
t-60.5 12t-61 -12t-48 -33.5t-31 -50.5t-11 -62t11 -62t31 -50.5t48 -33.5t61 -12zM104 289h392v-77h-392v77z" />
    <glyph glyph-name="uni04E9" unicode="&#x4e9;" horiz-adv-x="599" 
d="M300 -10q-56 0 -103.5 20t-83 55.5t-55.5 83t-20 101.5t20 101.5t55.5 83t83 55.5t103.5 20q55 0 103 -20t83.5 -55.5t55.5 -83t20 -101.5t-20 -101.5t-55.5 -83t-83.5 -55.5t-103 -20zM300 92q33 0 60.5 12t47.5 33.5t31 50.5t11 62t-11 62t-31 50.5t-47.5 33.5
t-60.5 12t-61 -12t-48 -33.5t-31 -50.5t-11 -62t11 -62t31 -50.5t48 -33.5t61 -12zM104 289h392v-77h-392v77z" />
    <glyph glyph-name="uni0493" unicode="&#x493;" horiz-adv-x="444" 
d="M99 500h328v-98h-218v-402h-110v500zM19 212v80h308v-80h-308z" />
    <glyph glyph-name="uni04B1" unicode="&#x4b1;" horiz-adv-x="560" 
d="M225 -1l-221 501h123l152 -364l154 364h123l-221 -501v-208h-110v208zM93 0h375v-80h-375v80z" />
    <glyph glyph-name="uni04E3" unicode="&#x4e3;" horiz-adv-x="611" 
d="M74 0v500h110v-333l255 333h98v-500h-110v333l-255 -333h-98zM147 710h332v-82h-332v82z" />
    <glyph glyph-name="uni04EF" unicode="&#x4ef;" horiz-adv-x="558" 
d="M295 -77q-33 -74 -76 -108t-109 -34q-20 0 -34 1t-27 4v95q11 -1 22 -1.5t27 -0.5q26 0 48 15.5t42 57.5l33 73l-216 475h121l157 -347l150 347h122zM114 710h332v-82h-332v82z" />
    <glyph glyph-name="uni0497" unicode="&#x497;" horiz-adv-x="821" 
d="M455 213v-213h-110v214l-212 -214h-140l251 254l-217 246h131l187 -214v214h110v-213l186 213h131l-217 -246l252 -254h-140zM712 0h-26v98h126v-223h-100v125z" />
    <glyph glyph-name="uni049B" unicode="&#x49b;" horiz-adv-x="558" 
d="M184 213v-213h-110v500h110v-214l197 214h134l-227 -246l263 -254h-145zM455 0h-26v98h126v-223h-100v125z" />
    <glyph glyph-name="uni04A3" unicode="&#x4a3;" horiz-adv-x="647" 
d="M74 500h110v-198h241v198h110v-500h-110v204h-241v-204h-110v500zM515 0h-26v98h126v-223h-100v125z" />
    <glyph glyph-name="uni04B3" unicode="&#x4b3;" horiz-adv-x="571" 
d="M274 169l-135 -169h-134l199 249l-188 251h131l126 -168l126 168h132l-188 -251l199 -249h-133zM457 0h-26v98h126v-223h-100v125z" />
    <glyph glyph-name="uni04B7" unicode="&#x4b7;" horiz-adv-x="590" 
d="M369 0v218q-19 -26 -57.5 -42.5t-89.5 -16.5q-40 0 -73.5 12t-58 35.5t-38.5 59t-14 82.5v152h110v-140q0 -57 29 -80t74 -23q20 0 41 7t38 21.5t28 38t11 56.5v120h110v-500h-110zM458 0h-26v98h126v-223h-100v125z" />
    <glyph glyph-name="uniF6D4" unicode="&#xf6d4;" 
d="M0 569q-34 0 -64.5 11.5t-53 33t-35.5 52.5t-13 69v15h78v-15q0 -48 25.5 -73.5t62.5 -25.5t62.5 25.5t25.5 73.5v15h78v-15q0 -38 -13 -69t-35.5 -52.5t-53 -33t-64.5 -11.5z" />
    <glyph glyph-name="glyph470" 
d="M-49 500v125h101v-125h-101z" />
    <glyph glyph-name="glyph471" 
d="M-154 212v80h308v-80h-308z" />
    <glyph glyph-name="glyph472" 
d="M-196 290h392v-77h-392v77z" />
    <glyph glyph-name="glyph473" 
d="M-187 0h375v-80h-375v80z" />
    <glyph glyph-name="glyph474" 
d="M-25 0h-26v98h126v-223h-100v125z" />
    <glyph glyph-name="uniF6D1" unicode="&#xf6d1;" 
d="M0 755q-34 0 -64.5 11.5t-53 33t-35.5 52.5t-13 69h77q0 -45 24 -71t65 -26t65 26t24 71h77q0 -38 -13 -69t-35.5 -52.5t-53 -33t-64.5 -11.5z" />
    <glyph glyph-name="glyph476" 
d="M-51 710v148h108v-148h-108z" />
    <glyph glyph-name="glyph477" 
d="M113 385q38 0 75.5 11.5t66.5 31.5v-104q-29 -20 -67 -31.5t-75 -11.5q-31 0 -59.5 6.5t-56 15t-54.5 15t-55 6.5q-38 0 -76 -11.5t-67 -31.5v104q29 20 67 31.5t76 11.5q36 0 64.5 -6.5t54 -15t51 -15t55.5 -6.5z" />
    <glyph glyph-name="glyph478" 
d="M-189 410h379v-106h-379v106z" />
    <glyph glyph-name="glyph479" 
d="M-310 401h620v-106h-620v106z" />
    <glyph glyph-name="glyph480" 
d="M210 194h-420v106h420v-106z" />
    <glyph glyph-name="glyph481" 
d="M-28 0h-26v112h134v-260h-108v148z" />
    <glyph glyph-name="uni20B8" unicode="&#x20b8;" horiz-adv-x="595" 
d="M242 483h-209v108h529v-108h-210v-483h-110v483zM33 710h529v-56h-529v56z" />
    <glyph glyph-name="uni20BD" unicode="&#x20bd;" horiz-adv-x="617" 
d="M50 374h86v336h209q54 0 98.5 -16t76 -45t49 -69.5t17.5 -90.5t-17.5 -90.5t-49 -69.5t-76 -45t-98.5 -16h-99v-75h186v-56h-186v-137h-110v137h-86v56h86v75h-86v106zM343 374q61 0 94.5 30.5t33.5 84.5t-33.5 84t-94.5 30h-97v-229h97z" />
    <glyph glyph-name="uni20B4" unicode="&#x20b4;" horiz-adv-x="619" 
d="M44 328h525v-56h-349q-20 -14 -28.5 -34t-8.5 -43q0 -47 35.5 -75.5t92.5 -28.5t95.5 27.5t46.5 85.5h109q-4 -51 -24.5 -91.5t-53.5 -68t-77 -42t-95 -14.5q-52 0 -95.5 14t-75.5 39t-50 60t-18 77q0 60 28 94h-57v56zM44 447h348q36 27 36 77q0 44 -29 69.5t-78 25.5
q-46 0 -80 -24t-48 -76h-109q8 50 30 88t54 63.5t72 38.5t84 13q46 0 85.5 -13t68 -37.5t44.5 -58.5t16 -76q0 -55 -25 -90h56v-56h-525v56z" />
    <glyph glyph-name="ellipsis" unicode="&#x2026;" horiz-adv-x="758" 
d="M379 -8q-18 0 -33.5 7t-27 18.5t-18.5 27.5t-7 34t7 33.5t18.5 27.5t27 19t33.5 7t34 -7t27.5 -19t18.5 -27.5t7 -33.5q0 -36 -25.5 -61.5t-61.5 -25.5zM631 -8q-18 0 -33.5 7t-27 18.5t-18.5 27.5t-7 34t7 33.5t18.5 27.5t27 19t33.5 7t34 -7t27.5 -19t18.5 -27.5
t7 -33.5q0 -36 -25.5 -61.5t-61.5 -25.5zM127 -8q-18 0 -33.5 7t-27 18.5t-18.5 27.5t-7 34t7 33.5t18.5 27.5t27 19t33.5 7t34 -7t27.5 -19t18.5 -27.5t7 -33.5q0 -36 -25.5 -61.5t-61.5 -25.5z" />
    <glyph glyph-name="endash" unicode="&#x2013;" horiz-adv-x="575" 
d="M62 334h452v-108h-452v108z" />
    <glyph glyph-name="emdash" unicode="&#x2014;" horiz-adv-x="751" 
d="M62 334h628v-108h-628v108z" />
    <glyph glyph-name="guilsinglleft" unicode="&#x2039;" horiz-adv-x="312" 
d="M177 467h95l-116 -217l116 -217h-95l-141 217z" />
    <glyph glyph-name="guilsinglright" unicode="&#x203a;" horiz-adv-x="312" 
d="M276 250l-141 -217h-95l116 217l-116 217h95z" />
    <glyph glyph-name="quoteleft" unicode="&#x2018;" horiz-adv-x="262" 
d="M160 710h68l-70 -147q20 -10 35 -30.5t15 -48.5q0 -18 -6.5 -33.5t-18.5 -27t-27.5 -18.5t-33.5 -7t-33.5 7t-27.5 18.5t-18.5 27t-6.5 33.5q0 28 16 54z" />
    <glyph glyph-name="quoteright" unicode="&#x2019;" horiz-adv-x="266" 
d="M114 410h-68l70 146q-20 10 -35 31t-15 48q0 18 7 34t18.5 27.5t27 18.5t33.5 7q36 0 61.5 -25.5t25.5 -61.5q0 -14 -4.5 -27.5t-12.5 -26.5z" />
    <glyph glyph-name="uni02BB" unicode="&#x2bb;" horiz-adv-x="262" 
d="M160 710h68l-70 -147q20 -10 35 -30.5t15 -48.5q0 -18 -6.5 -33.5t-18.5 -27t-27.5 -18.5t-33.5 -7t-33.5 7t-27.5 18.5t-18.5 27t-6.5 33.5q0 28 16 54z" />
    <glyph glyph-name="uni02BC" unicode="&#x2bc;" horiz-adv-x="266" 
d="M114 410h-68l70 146q-20 10 -35 31t-15 48q0 18 7 34t18.5 27.5t27 18.5t33.5 7q36 0 61.5 -25.5t25.5 -61.5q0 -14 -4.5 -27.5t-12.5 -26.5z" />
    <glyph glyph-name="quotedblleft" unicode="&#x201c;" horiz-adv-x="469" 
d="M160 710h68l-70 -147q20 -10 35 -30.5t15 -48.5q0 -18 -6.5 -33.5t-18.5 -27t-27.5 -18.5t-33.5 -7t-33.5 7t-27.5 18.5t-18.5 27t-6.5 33.5q0 28 16 54zM367 710h68l-70 -147q20 -10 35 -30.5t15 -48.5q0 -18 -6.5 -33.5t-18.5 -27t-27.5 -18.5t-33.5 -7t-33.5 7
t-27.5 18.5t-18.5 27t-6.5 33.5q0 28 16 54z" />
    <glyph glyph-name="quotedblright" unicode="&#x201d;" horiz-adv-x="473" 
d="M114 410h-68l70 146q-20 10 -35 31t-15 48q0 18 7 34t18.5 27.5t27 18.5t33.5 7q36 0 61.5 -25.5t25.5 -61.5q0 -14 -4.5 -27.5t-12.5 -26.5zM321 410h-68l70 146q-20 10 -35 31t-15 48q0 18 7 34t18.5 27.5t27 18.5t33.5 7q36 0 61.5 -25.5t25.5 -61.5q0 -14 -4.5 -27.5
t-12.5 -26.5z" />
    <glyph glyph-name="quotesinglbase" unicode="&#x201a;" horiz-adv-x="268" 
d="M96 -147h-68l69 147q-20 9 -34.5 30t-14.5 49q0 18 6.5 33.5t18.5 27.5t27.5 19t33.5 7t33.5 -7t27.5 -19t18.5 -27.5t6.5 -33.5q0 -15 -4.5 -28.5t-12.5 -25.5z" />
    <glyph glyph-name="quotedblbase" unicode="&#x201e;" horiz-adv-x="475" 
d="M96 -147h-68l69 147q-20 9 -34.5 30t-14.5 49q0 18 6.5 33.5t18.5 27.5t27.5 19t33.5 7t33.5 -7t27.5 -19t18.5 -27.5t6.5 -33.5q0 -15 -4.5 -28.5t-12.5 -25.5zM303 -147h-68l69 147q-20 9 -34.5 30t-14.5 49q0 18 6.5 33.5t18.5 27.5t27.5 19t33.5 7t33.5 -7t27.5 -19
t18.5 -27.5t6.5 -33.5q0 -15 -4.5 -28.5t-12.5 -25.5z" />
    <glyph glyph-name="bullet" unicode="&#x2022;" horiz-adv-x="410" 
d="M205 166q-28 0 -52.5 10.5t-43 29t-29.5 43.5t-11 53t11 53t29.5 43.5t43 29t52.5 10.5t53 -10.5t43.5 -29t29.5 -43.5t11 -53t-11 -53t-29.5 -43.5t-43.5 -29t-53 -10.5z" />
    <glyph glyph-name="dagger" unicode="&#x2020;" horiz-adv-x="511" 
d="M208 409h-180v91h180v210h96v-210h179v-91h-179v-507h-96v507z" />
    <glyph glyph-name="daggerdbl" unicode="&#x2021;" horiz-adv-x="540" 
d="M318 112v-210h-96v210h-179v91h179v206h-179v91h179v210h96v-210h180v-91h-180v-206h180v-91h-180z" />
    <glyph glyph-name="perthousand" unicode="&#x2030;" horiz-adv-x="1407" 
d="M1180 -8q-41 0 -77 15.5t-62.5 42.5t-42 62.5t-15.5 76.5t15.5 77t42 62.5t62.5 42t77 15.5q40 0 76 -15.5t63 -42t42.5 -62.5t15.5 -77t-15.5 -76.5t-42.5 -62.5t-63 -42.5t-76 -15.5zM1180 88q21 0 39 8t31.5 22t21 32t7.5 39t-7.5 39t-21 32t-31.5 22t-39 8t-39.5 -8
t-32 -22t-21.5 -32t-8 -39t8 -39t21.5 -32t32 -22t39.5 -8zM210 0l450 710h116l-450 -710h-116zM759 -8q-41 0 -77 15.5t-62.5 42.5t-42 62.5t-15.5 76.5t15.5 77t42 62.5t62.5 42t77 15.5q40 0 76 -15.5t63 -42t42.5 -62.5t15.5 -77t-15.5 -76.5t-42.5 -62.5t-63 -42.5
t-76 -15.5zM759 88q21 0 39 8t31.5 22t21 32t7.5 39t-7.5 39t-21 32t-31.5 22t-39 8t-39.5 -8t-32 -22t-21.5 -32t-8 -39t8 -39t21.5 -32t32 -22t39.5 -8zM227 324q-41 0 -77 15.5t-62.5 42.5t-42 62.5t-15.5 76.5t15.5 77t42 62.5t62.5 42t77 15.5q40 0 76 -15.5t63 -42
t42.5 -62.5t15.5 -77t-15.5 -76.5t-42.5 -62.5t-63 -42.5t-76 -15.5zM227 420q21 0 39 8t31.5 22t21.5 32t8 39t-8 39t-21.5 32t-31.5 22t-39 8t-39.5 -8t-32 -22t-21 -32t-7.5 -39t7.5 -39t21 -32t32 -22t39.5 -8z" />
    <glyph glyph-name="uni2117" unicode="&#x2117;" horiz-adv-x="816" 
d="M408 -12q-75 0 -142 29t-117 79t-79 116.5t-29 142.5t29 142.5t79 116.5t117 79t142 29q76 0 142.5 -29t116.5 -79t79 -116.5t29 -142.5t-29 -142.5t-79 -116.5t-116.5 -79t-142.5 -29zM408 65q60 0 112.5 23t92 62t62.5 92t23 113t-23 113t-62.5 92t-92 62t-112.5 23
t-112.5 -23t-92 -62t-62.5 -92t-23 -113t23 -113t62.5 -92t92 -62t112.5 -23zM562 415q0 -26 -9.5 -49t-27 -40t-41.5 -26.5t-52 -9.5h-47v-121h-77v372h124q28 0 52 -9.5t41.5 -26.5t27 -40t9.5 -50zM488 415q0 23 -15.5 38.5t-41.5 15.5h-46v-107h46q26 0 41.5 15t15.5 38
z" />
    <glyph glyph-name="trademark" unicode="&#x2122;" horiz-adv-x="825" 
d="M392 710h83l96 -142l97 142h83v-374h-85v227l-94 -138l-95 139v-228h-85v374zM138 624h-105v86h298v-86h-105v-288h-88v288z" />
    <glyph glyph-name="uni2116" unicode="&#x2116;" horiz-adv-x="1107" 
d="M604 0l-400 511v-511h-117v710h102l399 -510v510h118v-710h-102zM913 405q-32 0 -60 12.5t-49 33.5t-33 49t-12 60t12 60t33 49t49 33.5t60 12.5t60 -12.5t49 -33.5t33.5 -49t12.5 -60t-12.5 -60t-33.5 -49t-49 -33.5t-60 -12.5zM764 359h299v-77h-299v77zM914 482
q16 0 30 6t24.5 16.5t16.5 25t6 30.5t-6 30.5t-16.5 25t-24.5 16.5t-30 6q-32 0 -54.5 -23t-22.5 -55t22.5 -55t54.5 -23z" />
    <glyph glyph-name="glyph505" horiz-adv-x="535" 
d="M363 723l-131 -252l233 10l-415 -492l242 402l-205 -12l147 296zM455 465q5 0 5 -5q0 4 4 5q-4 0 -4 5t5 5t5 -5t-4 -5q3 -1 4 -4q0 4 5 4t5 -5t-4 -5q4 -2 4 -5q0 -5 -4 -5q3 -1 4 -4q0 4 5 4t5 -5t-4 -5q4 -2 4 -5q0 -5 -5 -5t-5 4q-2 -4 -4 -4q4 -2 4 -5q0 -5 -5 -5
t-5 4q-2 -4 -4 -4q4 -2 4 -5q0 -5 -5 -5t-5 4q-2 -4 -4 -4q4 -2 4 -5q0 -5 -5 -5t-5 4q-2 -4 -4 -4q4 -2 4 -5q0 -5 -5 -5t-5 4q-2 -4 -4 -4q4 -2 4 -5q0 -5 -5 -5t-5 4q-2 -4 -4 -4q4 -2 4 -5q0 -5 -5 -5t-5 4q-2 -4 -4 -4q4 -2 4 -5q0 -5 -4 -5q4 -2 4 -5q0 -5 -5 -5t-5 4
q-2 -4 -4 -4q4 -2 4 -5q0 -5 -5 -5t-5 4q-2 -4 -4 -4q4 -2 4 -5q0 -5 -5 -5t-5 4q-2 -4 -4 -4q4 -2 4 -5q0 -5 -5 -5t-5 4q-2 -4 -4 -4q4 -2 4 -5q0 -5 -5 -5t-5 4q-2 -4 -4 -4q4 -2 4 -5q0 -5 -5 -5t-5 4q-2 -4 -4 -4q4 -2 4 -5q0 -5 -5 -5t-5 4q-2 -4 -4 -4q4 -2 4 -5
q0 -5 -5 -5t-5 4q-2 -4 -4 -4q4 -2 4 -5q0 -5 -5 -5t-5 4q-2 -4 -4 -4q4 -2 4 -5q0 -5 -5 -5t-5 4q-2 -4 -4 -4q4 -2 4 -5q0 -5 -5 -5t-5 4q-2 -4 -4 -4q4 -2 4 -5q0 -5 -5 -5t-5 4q-2 -4 -4 -4q4 -2 4 -5q0 -5 -5 -5t-5 4q-2 -4 -4 -4q4 -2 4 -5q0 -5 -4 -5q4 -2 4 -5
q0 -5 -5 -5t-5 4q-2 -4 -4 -4q4 -2 4 -5q0 -5 -5 -5t-5 4q-2 -4 -4 -4q4 -2 4 -5q0 -5 -5 -5t-5 4q-2 -4 -4 -4q4 -2 4 -5q0 -5 -5 -5t-5 4q-2 -4 -4 -4q4 -2 4 -5q0 -5 -5 -5t-5 4q-2 -4 -4 -4q4 -2 4 -5q0 -5 -5 -5t-5 4q-2 -4 -4 -4q4 -2 4 -5q0 -5 -5 -5t-5 4
q-2 -4 -4 -4q4 -2 4 -5q0 -5 -5 -5t-5 4q-2 -4 -4 -4q4 -2 4 -5q0 -5 -5 -5t-5 4q-2 -4 -4 -4q4 -2 4 -5q0 -5 -5 -5t-5 4q-2 -4 -4 -4q4 -2 4 -5q0 -5 -5 -5t-5 4q-2 -4 -4 -4q4 -2 4 -5q0 -5 -4 -5q4 -2 4 -5q0 -5 -5 -5t-5 4q-2 -4 -4 -4q4 -2 4 -5q0 -5 -5 -5t-5 4
q-2 -4 -4 -4q4 -2 4 -5q0 -5 -5 -5t-5 4q-2 -4 -4 -4q4 -2 4 -5q0 -5 -5 -5t-5 4q-2 -4 -4 -4q4 -2 4 -5q0 -5 -5 -5t-5 4q-2 -4 -4 -4q4 -2 4 -5q0 -5 -5 -5t-5 4q-2 -4 -4 -4q4 -2 4 -5q0 -5 -5 -5t-5 4q-2 -4 -4 -4q4 -2 4 -5q0 -5 -5 -5t-5 4q-2 -4 -4 -4q4 -2 4 -5
q0 -5 -5 -5t-5 4q-2 -4 -4 -4q4 -2 4 -5q0 -5 -5 -5t-5 4q-1 -3 -4 -4q4 0 4 -5t-5 -5t-5 4q-1 -3 -4 -4q4 0 4 -5t-5 -5t-5 5t4 5q-4 1 -4 5q0 5 5 5t5 -5q0 5 4 5q-4 1 -4 5t4 5q-4 0 -4 5t5 5t5 -5q0 4 4 5q-4 0 -4 5t5 5q3 0 5 -4q0 2 4 4q-4 0 -4 5t5 5q3 0 5 -4
q0 2 4 4q-4 0 -4 5t5 5q3 0 5 -4q0 2 4 4q-4 0 -4 5t5 5t5 -5q0 4 4 5q-4 0 -4 5t5 5t5 -5q0 4 4 5q-4 0 -4 5q0 4 4 5q-4 0 -4 5t5 5t5 -5q0 4 4 5q-4 0 -4 5t5 5q3 0 5 -4q0 2 4 4q-4 0 -4 5t5 5q3 0 5 -4q0 2 4 4q-4 0 -4 5t5 5t5 -5q0 4 4 5q-4 0 -4 5t5 5t5 -5q0 4 4 5
q-4 0 -4 5q0 4 4 5q-4 0 -4 5t5 5q3 0 5 -4q0 2 4 4q-4 0 -4 5t5 5t5 -5q0 4 4 5q-4 0 -4 5t5 5t5 -5q0 4 4 5q-4 0 -4 5t5 5t5 -5q0 4 4 5q-4 0 -4 5t5 5t5 -5q0 4 4 5q-4 0 -4 5q0 4 4 5q-4 0 -4 5t5 5t5 -5q0 4 4 5q-4 0 -4 5t5 5q3 0 5 -4q0 2 4 4q-4 0 -4 5t5 5t5 -5
q0 4 4 5q-4 0 -4 5t5 5t5 -5q0 4 4 5q-4 0 -4 5t5 5t5 -5q0 4 4 5q-4 0 -4 5t5 5t5 -5q0 4 4 5q-4 0 -4 5q0 4 4 5q-4 0 -4 5t5 5t5 -5q0 4 4 5q-4 0 -4 5t5 5q3 0 5 -4q0 2 4 4q-4 0 -4 5t5 5t5 -5q0 4 4 5q-4 0 -4 5t5 5q3 0 5 -4q0 2 4 4q-4 0 -4 5t5 5q3 0 5 -4q0 2 4 4
q-4 0 -4 5q0 4 4 5q-4 0 -4 5t5 5t5 -5q0 4 4 5q-4 0 -4 5t5 5t5 -5q0 4 4 5q-4 0 -4 5t5 5t5 -5q0 4 4 5q-4 0 -4 5t5 5t5 -5q0 4 4 5q-4 0 -4 5t5 5t5 -5q0 4 4 5q-4 0 -4 5q0 4 4 5q-4 0 -4 5t5 5t5 -5q0 4 4 5q-4 0 -4 5t5 5q3 0 5 -4q0 2 4 4q-4 0 -4 5t5 5q3 0 5 -4
q0 2 4 4q-4 0 -4 5t5 5q3 0 5 -4q0 2 4 4q-4 0 -4 5t5 5t5 -5q0 4 4 5q-4 0 -4 5t5 5q3 0 5 -4q0 2 4 4q-4 0 -4 5q0 4 4 5q-4 0 -4 5t5 5zM355 695q3 0 5 -4q0 2 4 4q-4 0 -4 5q0 4 4 5q-4 0 -4 5t5 5t5 -5t-4 -5q3 -1 4 -4q0 4 5 4t5 -5t-4 -5q3 -1 4 -4q0 4 5 4t5 -5
t-4 -5q4 -2 4 -5q0 -5 -5 -5t-5 4q-2 -4 -4 -4q4 -2 4 -5q0 -5 -4 -5q4 -2 4 -5q0 -5 -5 -5t-5 4q-2 -4 -4 -4q4 -2 4 -5q0 -5 -5 -5t-5 4q-2 -4 -4 -4q4 -2 4 -5q0 -5 -4 -5q4 -2 4 -5q0 -5 -5 -5t-5 4q-2 -4 -4 -4q4 -2 4 -5q0 -5 -4 -5q4 -2 4 -5q0 -5 -5 -5t-5 4
q-2 -4 -4 -4q4 -2 4 -5q0 -5 -4 -5q4 -2 4 -5q0 -5 -5 -5t-5 4q-2 -4 -4 -4q4 -2 4 -5q0 -5 -5 -5t-5 4q-2 -4 -4 -4q4 -2 4 -5q0 -5 -4 -5q4 -2 4 -5q0 -5 -5 -5t-5 4q-2 -4 -4 -4q4 -2 4 -5q0 -5 -4 -5q4 -2 4 -5q0 -5 -5 -5t-5 4q-2 -4 -4 -4q4 -2 4 -5q0 -5 -4 -5
q4 -2 4 -5q0 -5 -5 -5t-5 4q-2 -4 -4 -4q4 -2 4 -5q0 -5 -4 -5q4 -2 4 -5q0 -5 -5 -5t-5 4q-2 -4 -4 -4q4 -2 4 -5q0 -5 -4 -5q4 -2 4 -5q0 -5 -5 -5t-5 4q-1 -4 -5 -4q-5 0 -5 4q-1 -4 -5 -4q-5 0 -5 4q-1 -4 -5 -4q-5 0 -5 5t5 5q3 0 5 -4q0 2 4 4q-4 0 -4 5q0 4 4 5
q-4 0 -4 5t5 5q3 0 5 -4q0 2 4 4q-4 0 -4 5q0 4 4 5q-4 0 -4 5t5 5t5 -5q0 4 4 5q-4 0 -4 5q0 4 4 5q-4 0 -4 5t5 5q3 0 5 -4q0 2 4 4q-4 0 -4 5q0 4 4 5q-4 0 -4 5t5 5t5 -5q0 4 4 5q-4 0 -4 5q0 4 4 5q-4 0 -4 5t5 5q3 0 5 -4q0 2 4 4q-4 0 -4 5q0 4 4 5q-4 0 -4 5t5 5
t5 -5q0 4 4 5q-4 0 -4 5t5 5q3 0 5 -4q0 2 4 4q-4 0 -4 5q0 4 4 5q-4 0 -4 5t5 5q3 0 5 -4q0 2 4 4q-4 0 -4 5q0 4 4 5q-4 0 -4 5t5 5q3 0 5 -4q0 2 4 4q-4 0 -4 5q0 4 4 5q-4 0 -4 5t5 5t5 -5q0 4 4 5q-4 0 -4 5q0 4 4 5q-4 0 -4 5t5 5zM275 385q5 0 5 -5t-5 -5t-5 4
q-2 -4 -4 -4q4 -2 4 -5q0 -5 -4 -5q4 -2 4 -5q0 -5 -5 -5t-5 4q-1 -4 -5 -4q-5 0 -5 4q-1 -4 -5 -4q-5 0 -5 4q-1 -4 -5 -4q-5 0 -5 4q-1 -4 -5 -4q-5 0 -5 4q-1 -4 -5 -4q-5 0 -5 4q-1 -4 -5 -4q-5 0 -5 4q-1 -4 -5 -4q-5 0 -5 4q-2 -4 -4 -4q4 -2 4 -5q0 -5 -5 -5t-5 4
q-1 -4 -5 -4q-5 0 -5 4q-1 -4 -5 -4q-5 0 -5 4q-1 -4 -5 -4q-5 0 -5 4q-1 -4 -5 -4q-5 0 -5 4q-1 -4 -5 -4q-5 0 -5 4q-1 -4 -5 -4q-5 0 -5 4q-1 -4 -5 -4q-5 0 -5 4q-1 -4 -5 -4q-5 0 -5 5q0 4 4 5q-4 0 -4 4q-1 -4 -5 -4q-5 0 -5 5q0 4 4 5q-4 0 -4 5t5 5t5 -5q0 5 5 5
t5 -5q0 5 5 5q3 0 5 -4q0 4 5 4t5 -5q0 5 5 5q3 0 5 -4q0 4 5 4t5 -5q0 5 5 5t5 -5q0 5 5 5t5 -5q0 5 5 5t5 -5q0 5 5 5t5 -5q0 4 4 5q-4 0 -4 5t5 5q3 0 5 -4q0 4 5 4t5 -5q0 5 5 5q3 0 5 -4q0 4 5 4t5 -5q0 5 5 5t5 -5q0 5 5 5q3 0 5 -4q0 4 5 4q3 0 5 -4q0 4 5 4
q3 0 5 -4q0 4 5 4zM110 39q-2 -4 -4 -4q4 -2 4 -5q0 4 4 5q-4 0 -4 4zM120 49q-2 -4 -4 -4q4 -2 4 -5q0 4 4 5q-4 0 -4 4zM130 59q-2 -4 -4 -4q4 -2 4 -5q0 4 4 5q-4 0 -4 4zM140 69q-2 -4 -4 -4q3 -1 4 -4q0 2 4 4q-4 0 -4 4zM140 79q-2 -4 -4 -4q3 -1 4 -4q0 2 4 4
q-4 0 -4 4zM154 75q-4 0 -4 4q-2 -4 -4 -4q3 -1 4 -4q0 2 4 4zM160 89q-2 -4 -4 -4q3 -1 4 -4q0 2 4 4q-4 0 -4 4zM154 85q-4 0 -4 4q-2 -4 -4 -4q3 -1 4 -4q0 2 4 4zM170 99q-2 -4 -4 -4q4 -2 4 -5q0 4 4 5q-4 0 -4 4zM160 99q-2 -4 -4 -4q3 -1 4 -4q0 2 4 4q-4 0 -4 4z
M170 109q-2 -4 -4 -4q4 -2 4 -5q0 4 4 5q-4 0 -4 4zM180 119q-2 -4 -4 -4q4 -2 4 -5q0 4 4 5q-4 0 -4 4zM190 129q-2 -4 -4 -4q3 -1 4 -4q0 2 4 4q-4 0 -4 4zM260 369q-2 -4 -4 -4q3 -1 4 -4q0 2 4 4q-4 0 -4 4zM250 369q-2 -4 -4 -4q4 -2 4 -5q0 4 4 5q-4 0 -4 4zM240 369
q-2 -4 -4 -4q4 -2 4 -5q0 4 4 5q-4 0 -4 4zM230 369q-2 -4 -4 -4q4 -2 4 -5q0 4 4 5q-4 0 -4 4zM220 369q-2 -4 -4 -4q4 -2 4 -5q0 4 4 5q-4 0 -4 4zM260 379q-2 -4 -4 -4q3 -1 4 -4q0 2 4 4q-4 0 -4 4zM250 379q-2 -4 -4 -4q3 -1 4 -4q0 2 4 4q-4 0 -4 4zM240 379
q-2 -4 -4 -4q4 -2 4 -5q0 4 4 5q-4 0 -4 4zM230 379q-2 -4 -4 -4q3 -1 4 -4q0 2 4 4q-4 0 -4 4zM220 379q-2 -4 -4 -4q3 -1 4 -4q0 2 4 4q-4 0 -4 4zM180 359q-2 -4 -4 -4q3 -1 4 -4q0 2 4 4q-4 0 -4 4zM170 359q-2 -4 -4 -4q4 -2 4 -5q0 4 4 5q-4 0 -4 4zM160 359
q-2 -4 -4 -4q4 -2 4 -5q0 4 4 5q-4 0 -4 4zM210 369q-2 -4 -4 -4q4 -2 4 -5q0 4 4 5q-4 0 -4 4zM200 369q-2 -4 -4 -4q3 -1 4 -4q0 2 4 4q-4 0 -4 4zM190 369q-2 -4 -4 -4q4 -2 4 -5q0 4 4 5q-4 0 -4 4zM180 369q-2 -4 -4 -4q4 -2 4 -5q0 4 4 5q-4 0 -4 4zM170 369
q-2 -4 -4 -4q4 -2 4 -5q0 4 4 5q-4 0 -4 4zM160 369q-2 -4 -4 -4q4 -2 4 -5q0 4 4 5q-4 0 -4 4zM210 379q-2 -4 -4 -4q4 -2 4 -5q0 4 4 5q-4 0 -4 4zM200 379q-2 -4 -4 -4q3 -1 4 -4q0 2 4 4q-4 0 -4 4zM150 359q-2 -4 -4 -4q4 -2 4 -5q0 4 4 5q-4 0 -4 4zM140 359
q-2 -4 -4 -4q4 -2 4 -5q0 4 4 5q-4 0 -4 4zM130 359q-2 -4 -4 -4q4 -2 4 -5q0 4 4 5q-4 0 -4 4zM120 359q-2 -4 -4 -4q4 -2 4 -5q0 4 4 5q-4 0 -4 4zM110 359q-2 -4 -4 -4q4 -2 4 -5q0 4 4 5q-4 0 -4 4zM150 369q-2 -4 -4 -4q4 -2 4 -5q0 4 4 5q-4 0 -4 4zM140 369
q-2 -4 -4 -4q4 -2 4 -5q0 4 4 5q-4 0 -4 4zM130 369q-2 -4 -4 -4q4 -2 4 -5q0 4 4 5q-4 0 -4 4zM120 369q-2 -4 -4 -4q4 -2 4 -5q0 4 4 5q-4 0 -4 4zM110 369q-2 -4 -4 -4q4 -2 4 -5q0 4 4 5q-4 0 -4 4zM100 369q-2 -4 -4 -4q4 -2 4 -5q0 4 4 5q-4 0 -4 4zM410 369
q-2 -4 -4 -4q4 -2 4 -5q0 4 4 5q-4 0 -4 4zM200 139q-2 -4 -4 -4q4 -2 4 -5q0 4 4 5q-4 0 -4 4zM194 135q-4 0 -4 4q-2 -4 -4 -4q4 -2 4 -5q0 4 4 5zM210 149q-2 -4 -4 -4q4 -2 4 -5q0 4 4 5q-4 0 -4 4zM200 149q-2 -4 -4 -4q3 -1 4 -4q0 2 4 4q-4 0 -4 4zM220 159
q-2 -4 -4 -4q4 -2 4 -5q0 4 4 5q-4 0 -4 4zM210 159q-2 -4 -4 -4q4 -2 4 -5q0 4 4 5q-4 0 -4 4zM230 169q-2 -4 -4 -4q4 -2 4 -5q0 4 4 5q-4 0 -4 4zM220 169q-2 -4 -4 -4q4 -2 4 -5q0 4 4 5q-4 0 -4 4zM240 179q-2 -4 -4 -4q4 -2 4 -5q0 4 4 5q-4 0 -4 4zM230 179
q-2 -4 -4 -4q4 -2 4 -5q0 4 4 5q-4 0 -4 4zM240 189q-2 -4 -4 -4q4 -2 4 -5q0 4 4 5q-4 0 -4 4zM240 199q-2 -4 -4 -4q4 -2 4 -5q0 4 4 5q-4 0 -4 4zM254 185q-4 0 -4 4q-2 -4 -4 -4q3 -1 4 -4q0 2 4 4zM260 199q-2 -4 -4 -4q4 -2 4 -5q0 4 4 5q-4 0 -4 4zM254 195
q-4 0 -4 4q-2 -4 -4 -4q4 -2 4 -5q0 4 4 5zM270 209q-2 -4 -4 -4q4 -2 4 -5q0 4 4 5q-4 0 -4 4zM260 209q-2 -4 -4 -4q4 -2 4 -5q0 4 4 5q-4 0 -4 4zM254 205q-4 0 -4 4q-2 -4 -4 -4q4 -2 4 -5q0 4 4 5zM280 219q-2 -4 -4 -4q3 -1 4 -4q0 2 4 4q-4 0 -4 4zM270 219
q-2 -4 -4 -4q4 -2 4 -5q0 4 4 5q-4 0 -4 4zM260 219q-2 -4 -4 -4q3 -1 4 -4q0 2 4 4q-4 0 -4 4zM280 229q-2 -4 -4 -4q4 -2 4 -5q0 4 4 5q-4 0 -4 4zM270 229q-2 -4 -4 -4q3 -1 4 -4q0 2 4 4q-4 0 -4 4zM290 239q-2 -4 -4 -4q3 -1 4 -4q0 2 4 4q-4 0 -4 4zM280 239
q-2 -4 -4 -4q4 -2 4 -5q0 4 4 5q-4 0 -4 4zM300 249q-2 -4 -4 -4q4 -2 4 -5q0 4 4 5q-4 0 -4 4zM290 249q-2 -4 -4 -4q4 -2 4 -5q0 4 4 5q-4 0 -4 4zM300 259q-2 -4 -4 -4q4 -2 4 -5q0 4 4 5q-4 0 -4 4zM300 269q-2 -4 -4 -4q3 -1 4 -4q0 2 4 4q-4 0 -4 4zM314 255
q-4 0 -4 4q-2 -4 -4 -4q4 -2 4 -5q0 4 4 5zM320 269q-2 -4 -4 -4q4 -2 4 -5q0 4 4 5q-4 0 -4 4zM314 265q-4 0 -4 4q-2 -4 -4 -4q4 -2 4 -5q0 4 4 5zM330 279q-2 -4 -4 -4q3 -1 4 -4q0 2 4 4q-4 0 -4 4zM320 279q-2 -4 -4 -4q3 -1 4 -4q0 2 4 4q-4 0 -4 4zM314 275
q-4 0 -4 4q-2 -4 -4 -4q3 -1 4 -4q0 2 4 4zM340 289q-2 -4 -4 -4q4 -2 4 -5q0 4 4 5q-4 0 -4 4zM330 289q-2 -4 -4 -4q4 -2 4 -5q0 4 4 5q-4 0 -4 4zM320 289q-2 -4 -4 -4q4 -2 4 -5q0 4 4 5q-4 0 -4 4zM350 299q-2 -4 -4 -4q4 -2 4 -5q0 4 4 5q-4 0 -4 4zM340 299
q-2 -4 -4 -4q3 -1 4 -4q0 2 4 4q-4 0 -4 4zM330 299q-2 -4 -4 -4q4 -2 4 -5q0 4 4 5q-4 0 -4 4zM360 309q-2 -4 -4 -4q4 -2 4 -5q0 4 4 5q-4 0 -4 4zM350 309q-2 -4 -4 -4q3 -1 4 -4q0 2 4 4q-4 0 -4 4zM340 309q-2 -4 -4 -4q4 -2 4 -5q0 4 4 5q-4 0 -4 4zM270 489
q-2 -4 -4 -4q3 -1 4 -4q0 2 4 4q-4 0 -4 4zM260 489q-2 -4 -4 -4q3 -1 4 -4q0 2 4 4q-4 0 -4 4zM270 499q-2 -4 -4 -4q4 -2 4 -5q0 4 4 5q-4 0 -4 4zM260 499q-2 -4 -4 -4q3 -1 4 -4q0 2 4 4q-4 0 -4 4zM280 509q-2 -4 -4 -4q3 -1 4 -4q0 2 4 4q-4 0 -4 4zM270 509
q-2 -4 -4 -4q4 -2 4 -5q0 4 4 5q-4 0 -4 4zM280 519q-2 -4 -4 -4q4 -2 4 -5q0 4 4 5q-4 0 -4 4zM270 519q-2 -4 -4 -4q4 -2 4 -5q0 4 4 5q-4 0 -4 4zM280 529q-2 -4 -4 -4q4 -2 4 -5q0 4 4 5q-4 0 -4 4zM280 539q-2 -4 -4 -4q4 -2 4 -5q0 4 4 5q-4 0 -4 4zM360 319
q-2 -4 -4 -4q4 -2 4 -5q0 4 4 5q-4 0 -4 4zM350 319q-2 -4 -4 -4q3 -1 4 -4q0 2 4 4q-4 0 -4 4zM360 329q-2 -4 -4 -4q4 -2 4 -5q0 4 4 5q-4 0 -4 4zM350 329q-2 -4 -4 -4q4 -2 4 -5q0 4 4 5q-4 0 -4 4zM360 339q-2 -4 -4 -4q3 -1 4 -4q0 2 4 4q-4 0 -4 4zM374 315
q-4 0 -4 4q-2 -4 -4 -4q3 -1 4 -4q0 2 4 4zM380 329q-2 -4 -4 -4q3 -1 4 -4q0 2 4 4q-4 0 -4 4zM374 325q-4 0 -4 4q-2 -4 -4 -4q4 -2 4 -5q0 4 4 5zM390 339q-2 -4 -4 -4q4 -2 4 -5q0 4 4 5q-4 0 -4 4zM380 339q-2 -4 -4 -4q4 -2 4 -5q0 4 4 5q-4 0 -4 4zM374 335
q-4 0 -4 4q-2 -4 -4 -4q3 -1 4 -4q0 2 4 4zM400 349q-2 -4 -4 -4q4 -2 4 -5q0 4 4 5q-4 0 -4 4zM390 349q-2 -4 -4 -4q3 -1 4 -4q0 2 4 4q-4 0 -4 4zM380 349q-2 -4 -4 -4q4 -2 4 -5q0 4 4 5q-4 0 -4 4zM374 345q-4 0 -4 4q-2 -4 -4 -4q4 -2 4 -5q0 4 4 5zM410 359
q-2 -4 -4 -4q4 -2 4 -5q0 4 4 5q-4 0 -4 4zM400 359q-2 -4 -4 -4q3 -1 4 -4q0 2 4 4q-4 0 -4 4zM390 359q-2 -4 -4 -4q3 -1 4 -4q0 2 4 4q-4 0 -4 4zM380 359q-2 -4 -4 -4q3 -1 4 -4q0 2 4 4q-4 0 -4 4zM300 549q-2 -4 -4 -4q3 -1 4 -4q0 2 4 4q-4 0 -4 4zM400 369
q-2 -4 -4 -4q4 -2 4 -5q0 4 4 5q-4 0 -4 4zM390 369q-2 -4 -4 -4q3 -1 4 -4q0 2 4 4q-4 0 -4 4zM420 379q-2 -4 -4 -4q3 -1 4 -4q0 2 4 4q-4 0 -4 4zM410 379q-2 -4 -4 -4q3 -1 4 -4q0 2 4 4q-4 0 -4 4zM400 379q-2 -4 -4 -4q4 -2 4 -5q0 4 4 5q-4 0 -4 4zM420 389
q-2 -4 -4 -4q4 -2 4 -5q0 4 4 5q-4 0 -4 4zM410 389q-2 -4 -4 -4q4 -2 4 -5q0 4 4 5q-4 0 -4 4zM400 389q-2 -4 -4 -4q3 -1 4 -4q0 2 4 4q-4 0 -4 4zM420 399q-2 -4 -4 -4q4 -2 4 -5q0 4 4 5q-4 0 -4 4zM410 399q-2 -4 -4 -4q4 -2 4 -5q0 4 4 5q-4 0 -4 4zM420 409
q-2 -4 -4 -4q4 -2 4 -5q0 4 4 5q-4 0 -4 4zM434 385q-4 0 -4 4q-2 -4 -4 -4q4 -2 4 -5q0 4 4 5zM440 399q-2 -4 -4 -4q4 -2 4 -5q0 4 4 5q-4 0 -4 4zM434 395q-4 0 -4 4q-2 -4 -4 -4q3 -1 4 -4q0 2 4 4zM450 409q-2 -4 -4 -4q4 -2 4 -5q0 4 4 5q-4 0 -4 4zM440 409
q-2 -4 -4 -4q3 -1 4 -4q0 2 4 4q-4 0 -4 4zM434 405q-4 0 -4 4q-2 -4 -4 -4q4 -2 4 -5q0 4 4 5zM460 419q-2 -4 -4 -4q4 -2 4 -5q0 4 4 5q-4 0 -4 4zM450 419q-2 -4 -4 -4q3 -1 4 -4q0 2 4 4q-4 0 -4 4zM440 419q-2 -4 -4 -4q4 -2 4 -5q0 4 4 5q-4 0 -4 4zM434 415
q-4 0 -4 4q-2 -4 -4 -4q3 -1 4 -4q0 2 4 4zM470 429q-2 -4 -4 -4q3 -1 4 -4q0 2 4 4q-4 0 -4 4zM460 429q-2 -4 -4 -4q4 -2 4 -5q0 4 4 5q-4 0 -4 4zM450 429q-2 -4 -4 -4q3 -1 4 -4q0 2 4 4q-4 0 -4 4zM440 429q-2 -4 -4 -4q3 -1 4 -4q0 2 4 4q-4 0 -4 4zM480 439
q-2 -4 -4 -4q3 -1 4 -4q0 2 4 4q-4 0 -4 4zM470 439q-2 -4 -4 -4q3 -1 4 -4q0 2 4 4q-4 0 -4 4zM460 439q-2 -4 -4 -4q4 -2 4 -5q0 4 4 5q-4 0 -4 4zM450 439q-2 -4 -4 -4q3 -1 4 -4q0 2 4 4q-4 0 -4 4zM470 449q-2 -4 -4 -4q3 -1 4 -4q0 2 4 4q-4 0 -4 4zM460 449
q-2 -4 -4 -4q3 -1 4 -4q0 2 4 4q-4 0 -4 4zM470 459q-2 -4 -4 -4q4 -2 4 -5q0 4 4 5q-4 0 -4 4zM460 459q-2 -4 -4 -4q4 -2 4 -5q0 4 4 5q-4 0 -4 4zM340 629q-2 -4 -4 -4q3 -1 4 -4q0 2 4 4q-4 0 -4 4zM294 525q-4 0 -4 4q-2 -4 -4 -4q4 -2 4 -5q0 4 4 5zM294 535
q-4 0 -4 4q-2 -4 -4 -4q4 -2 4 -5q0 4 4 5zM330 629q-2 -4 -4 -4q3 -1 4 -4q0 2 4 4q-4 0 -4 4zM294 545q-4 0 -4 4q-2 -4 -4 -4q4 -2 4 -5q0 4 4 5zM300 559q-2 -4 -4 -4q3 -1 4 -4q0 2 4 4q-4 0 -4 4zM294 555q-4 0 -4 4q-2 -4 -4 -4q4 -2 4 -5q0 4 4 5zM310 569
q-2 -4 -4 -4q4 -2 4 -5q0 4 4 5q-4 0 -4 4zM300 569q-2 -4 -4 -4q4 -2 4 -5q0 4 4 5q-4 0 -4 4zM310 579q-2 -4 -4 -4q4 -2 4 -5q0 4 4 5q-4 0 -4 4zM300 579q-2 -4 -4 -4q3 -1 4 -4q0 2 4 4q-4 0 -4 4zM320 589q-2 -4 -4 -4q4 -2 4 -5q0 4 4 5q-4 0 -4 4zM310 589
q-2 -4 -4 -4q4 -2 4 -5q0 4 4 5q-4 0 -4 4zM330 599q-2 -4 -4 -4q3 -1 4 -4q0 2 4 4q-4 0 -4 4zM320 599q-2 -4 -4 -4q4 -2 4 -5q0 4 4 5q-4 0 -4 4zM310 599q-2 -4 -4 -4q4 -2 4 -5q0 4 4 5q-4 0 -4 4zM330 609q-2 -4 -4 -4q3 -1 4 -4q0 2 4 4q-4 0 -4 4zM320 609
q-2 -4 -4 -4q4 -2 4 -5q0 4 4 5q-4 0 -4 4zM340 619q-2 -4 -4 -4q4 -2 4 -5q0 4 4 5q-4 0 -4 4zM330 619q-2 -4 -4 -4q4 -2 4 -5q0 4 4 5q-4 0 -4 4zM354 665q-4 0 -4 4q-2 -4 -4 -4q4 -2 4 -5q0 4 4 5zM360 689q-2 -4 -4 -4q4 -2 4 -5q0 4 4 5q-4 0 -4 4zM340 639
q-2 -4 -4 -4q3 -1 4 -4q0 2 4 4q-4 0 -4 4zM340 649q-2 -4 -4 -4q4 -2 4 -5q0 4 4 5q-4 0 -4 4zM354 635q-4 0 -4 4q-2 -4 -4 -4q3 -1 4 -4q0 2 4 4zM354 645q-4 0 -4 4q-2 -4 -4 -4q4 -2 4 -5q0 4 4 5zM360 659q-2 -4 -4 -4q3 -1 4 -4q0 2 4 4q-4 0 -4 4zM354 655
q-4 0 -4 4q-2 -4 -4 -4q4 -2 4 -5q0 4 4 5zM370 669q-2 -4 -4 -4q3 -1 4 -4q0 2 4 4q-4 0 -4 4zM360 669q-2 -4 -4 -4q4 -2 4 -5q0 4 4 5q-4 0 -4 4zM80 9q-2 -4 -4 -4q4 -2 4 -5q0 4 4 5q-4 0 -4 4zM370 679q-2 -4 -4 -4q4 -2 4 -5q0 4 4 5q-4 0 -4 4zM360 679q-2 -4 -4 -4
q4 -2 4 -5q0 4 4 5q-4 0 -4 4zM380 689q-2 -4 -4 -4q4 -2 4 -5q0 4 4 5q-4 0 -4 4zM370 689q-2 -4 -4 -4q3 -1 4 -4q0 2 4 4q-4 0 -4 4zM94 15q-4 0 -4 4q-2 -4 -4 -4q4 -2 4 -5q0 4 4 5zM370 699q-2 -4 -4 -4q4 -2 4 -5q0 4 4 5q-4 0 -4 4zM100 29q-2 -4 -4 -4q4 -2 4 -5
q0 4 4 5q-4 0 -4 4z" />
    <glyph glyph-name="minus" unicode="&#x2212;" horiz-adv-x="550" 
d="M64 338h422v-97h-422v97z" />
    <glyph glyph-name="uni2007" unicode="&#x2007;" horiz-adv-x="590" 
 />
    <glyph glyph-name="uni2008" unicode="&#x2008;" horiz-adv-x="265" 
 />
    <glyph glyph-name="uni2009" unicode="&#x2009;" horiz-adv-x="125" 
 />
    <glyph glyph-name="uni200B" unicode="&#x200b;" 
 />
    <glyph glyph-name="uni2060" unicode="&#x2060;" horiz-adv-x="237" 
 />
    <glyph glyph-name="uniFEFF" unicode="&#xfeff;" 
 />
    <glyph glyph-name="Euro" unicode="&#x20ac;" horiz-adv-x="874" 
d="M31 399l23 55h87q16 59 49 108.5t79.5 85t104.5 55t123 19.5q57 0 108.5 -15.5t95 -44t77.5 -69.5t55 -93h-125q-34 56 -88 85t-123 29q-88 0 -151 -44t-90 -116h391l-23 -55h-382q-3 -21 -3 -44t3 -42h346l-22 -55h-310q26 -73 90 -117.5t151 -44.5q69 0 123 29t88 85
h125q-21 -52 -55 -93t-77.5 -69.5t-95 -44t-108.5 -15.5q-65 0 -123 19.5t-105 55.5t-80 85.5t-49 109.5h-109l23 55h76q-2 10 -2 20.5v21.5t0.5 22t1.5 22h-99z" />
    <glyph glyph-name="uniFB00" unicode="&#xfb00;" horiz-adv-x="750" 
d="M121 402h-104v98h104v90q0 42 13 73t36.5 52t54.5 31t67 10q26 0 46 -3.5t36 -8.5v-98q-8 5 -25.5 7.5t-33.5 2.5q-43 0 -63.5 -19t-20.5 -66v-71h117v-98h-117v-402h-110v402zM483 402h-83v98h83v90q0 42 13 73t36.5 52t54.5 31t67 10q26 0 45.5 -3.5t36.5 -8.5v-98
q-12 5 -27.5 7.5t-31.5 2.5q-43 0 -63.5 -19t-20.5 -66v-71h143v-98h-143v-402h-110v402z" />
    <glyph glyph-name="uniFB01" unicode="&#xfb01;" horiz-adv-x="646" 
d="M121 402h-104v98h104v84q0 42 13 74t36.5 54t54.5 33t67 11q26 0 46 -3.5t36 -8.5v-98q-12 5 -27.5 7.5t-31.5 2.5q-43 0 -63.5 -19t-20.5 -66v-71h143v-98h-143v-402h-110v402zM517 609q-30 0 -52 21.5t-22 52.5q0 30 22 51.5t52 21.5q31 0 52 -21.5t21 -51.5
q0 -31 -21 -52.5t-52 -21.5zM462 500h110v-500h-110v500z" />
    <glyph glyph-name="uniFB03" unicode="&#xfb03;" horiz-adv-x="1009" 
d="M879 609q-30 0 -52 21.5t-22 52.5q0 30 22 51.5t52 21.5q31 0 52 -21.5t21 -51.5q0 -31 -21 -52.5t-52 -21.5zM824 500h110v-500h-110v500zM121 402h-104v98h104v90q0 42 13 73t36.5 52t54.5 31t67 10q26 0 46 -3.5t36 -8.5v-98q-8 5 -25.5 7.5t-33.5 2.5
q-43 0 -63.5 -19t-20.5 -66v-71h117v-98h-117v-402h-110v402zM483 402h-83v98h83v90q0 42 13 73t36.5 52t54.5 31t67 10q26 0 45.5 -3.5t36.5 -8.5v-98q-12 5 -27.5 7.5t-31.5 2.5q-43 0 -63.5 -19t-20.5 -66v-71h143v-98h-143v-402h-110v402z" />
    <glyph glyph-name="uniFB02" unicode="&#xfb02;" horiz-adv-x="646" 
d="M121 402h-104v98h104v84q0 42 13 74t36.5 54t54.5 33t67 11q26 0 46 -3.5t36 -8.5v-98q-12 5 -27.5 7.5t-31.5 2.5q-43 0 -63.5 -19t-20.5 -66v-71h143v-98h-143v-402h-110v402zM462 750h110v-750h-110v750z" />
    <glyph glyph-name="uniFB04" unicode="&#xfb04;" horiz-adv-x="1009" 
d="M824 750h110v-750h-110v750zM121 402h-104v98h104v90q0 42 13 73t36.5 52t54.5 31t67 10q26 0 46 -3.5t36 -8.5v-98q-8 5 -25.5 7.5t-33.5 2.5q-43 0 -63.5 -19t-20.5 -66v-71h117v-98h-117v-402h-110v402zM483 402h-83v98h83v90q0 42 13 73t36.5 52t54.5 31t67 10
q26 0 45.5 -3.5t36.5 -8.5v-98q-12 5 -27.5 7.5t-31.5 2.5q-43 0 -63.5 -19t-20.5 -66v-71h143v-98h-143v-402h-110v402z" />
    <glyph glyph-name="glyph526" 
d="M0 609q-30 0 -52 21.5t-22 52.5q0 30 22 51.5t52 21.5q31 0 52 -21.5t21 -51.5q0 -31 -21 -52.5t-52 -21.5z" />
    <glyph glyph-name="breve" unicode="&#x2d8;" 
d="M0 569q-34 0 -64.5 11.5t-53 33t-35.5 52.5t-13 69v15h68v-15q0 -48 28.5 -73.5t69.5 -25.5t69.5 25.5t28.5 73.5v15h68v-15q0 -38 -13 -69t-35.5 -52.5t-53 -33t-64.5 -11.5z" />
    <glyph glyph-name="caron" unicode="&#x2c7;" 
d="M-166 662v94l166 -100l166 100v-94l-166 -99z" />
    <glyph glyph-name="circumflex" unicode="&#x2c6;" 
d="M166 656v-93l-166 99l-166 -99v93l166 100z" />
    <glyph glyph-name="dotaccent" unicode="&#x2d9;" 
d="M0 587q-28 0 -47.5 19.5t-19.5 46.5q0 28 19.5 47.5t47.5 19.5q27 0 46.5 -19.5t19.5 -47.5q0 -27 -19.5 -46.5t-46.5 -19.5z" />
    <glyph glyph-name="glyph531" 
d="M0 -66q-28 0 -47.5 19.5t-19.5 46.5q0 28 19.5 47.5t47.5 19.5q27 0 46.5 -19.5t19.5 -47.5q0 -27 -19.5 -46.5t-46.5 -19.5z" />
    <glyph glyph-name="glyph532" 
d="M0 -204q-28 0 -47.5 19.5t-19.5 47.5q0 27 19.5 46.5t47.5 19.5q27 0 46.5 -19.5t19.5 -46.5q0 -28 -19.5 -47.5t-46.5 -19.5z" />
    <glyph glyph-name="hungarumlaut" unicode="&#x2dd;" 
d="M61 750h120l-116 -190h-72zM-114 750h121l-116 -190h-72z" />
    <glyph glyph-name="glyph534" 
d="M-28 -197q-16 8 -27 24t-11 36q0 27 19 46.5t47 19.5q27 0 46.5 -19.5t19.5 -46.5q0 -22 -13 -41l-68 -109h-52z" />
    <glyph glyph-name="ogonek" unicode="&#x2db;" 
d="M6 -219q-45 0 -72.5 26t-27.5 67q0 21 7 39.5t18 34t24.5 28.5t27.5 24h110q-45 -25 -67.5 -51.5t-22.5 -52.5q0 -18 11.5 -26t25.5 -8q17 0 30.5 6t22.5 13v-73q-12 -10 -35 -18.5t-52 -8.5z" />
    <glyph glyph-name="ring" unicode="&#x2da;" 
d="M0 543q-25 0 -47 9.5t-38.5 26t-26 38t-9.5 46.5t9.5 46.5t26 38t38.5 26t47 9.5t47 -9.5t38.5 -26t26.5 -38t10 -46.5t-10 -46.5t-26.5 -38t-38.5 -26t-47 -9.5zM0 599q28 0 47 18.5t19 45.5q0 26 -19 45.5t-47 19.5q-26 0 -45 -19.5t-19 -45.5q0 -27 19 -45.5t45 -18.5
z" />
    <glyph glyph-name="tilde" unicode="&#x2dc;" 
d="M-177 605q8 48 39 75t72 27q21 0 39.5 -7t35 -15.5t30 -15.5t25.5 -7q18 0 28 11.5t16 34.5h72l-4 -22q-8 -48 -39 -75.5t-72 -27.5q-21 0 -39.5 7t-35 15.5t-30 15.5t-25.5 7q-18 0 -28 -11t-16 -34h-72z" />
    <glyph glyph-name="glyph538" 
d="M-44 710h110l-57 -163h-75z" />
    <glyph glyph-name="glyph539" 
d="M0 587q-27 0 -46.5 20t-19.5 47q0 20 13 40l68 109h52l-39 -90q16 -8 27 -23.5t11 -35.5q0 -27 -19 -47t-47 -20z" />
    <glyph glyph-name="glyph540" 
d="M-97 587q-28 0 -47.5 20t-19.5 48t19.5 47.5t47.5 19.5t48 -19.5t20 -47.5t-20 -48t-48 -20zM96 587q-28 0 -47.5 20t-19.5 48t19.5 47.5t47.5 19.5t48 -19.5t20 -47.5t-20 -48t-48 -20z" />
    <glyph glyph-name="glyph541" 
d="M-215 -10l-42 43l472 477l42 -42z" />
    <glyph glyph-name="glyph542" 
d="M-165 572v78h330v-78h-330z" />
    <glyph glyph-name="glyph543" 
d="M-165 572v78h330v-78h-330z" />
    <glyph glyph-name="glyph544" 
d="M-131 246v91l263 162v-92z" />
    <glyph glyph-name="glyph545" 
d="M-178 323h357v-79h-357v79z" />
    <glyph glyph-name="zero.zero" horiz-adv-x="626" 
d="M313 -10q-56 0 -103.5 20t-81.5 56.5t-53 86.5t-19 110v186q0 60 19 110t53 86.5t81.5 56.5t103.5 20q57 0 104 -20t81.5 -56.5t53.5 -86.5t19 -110v-186q0 -60 -19 -110t-53.5 -86.5t-81.5 -56.5t-104 -20zM313 98q66 0 107 43.5t41 121.5v134l-291 -179
q11 -58 49.5 -89t93.5 -31zM166 313l290 181q-11 57 -49.5 88.5t-93.5 31.5q-65 0 -106 -43.5t-41 -121.5v-136z" />
    <glyph glyph-name="one.oldstyle" horiz-adv-x="321" 
d="M133 462h-123l81 98h152v-560h-110v462z" />
    <glyph glyph-name="two.oldstyle" horiz-adv-x="495" 
d="M446 0h-399v35q0 46 17.5 81t45 62.5t61 50t66.5 44.5q41 27 67 55t26 70q0 30 -21 52t-59 22q-41 0 -66.5 -24t-25.5 -62h-110q0 41 15.5 75t43 58t65 37.5t81.5 13.5q37 0 71 -11t60 -32.5t41.5 -53.5t15.5 -74q0 -35 -8.5 -62.5t-25 -51t-39.5 -43.5t-52 -40
q-15 -11 -34 -22.5t-36 -24.5t-31 -27.5t-20 -29.5h251v-98z" />
    <glyph glyph-name="three.oldstyle" horiz-adv-x="523" 
d="M266 -77q-45 0 -85.5 14.5t-72 41t-50.5 65t-20 86.5h109q5 -51 37.5 -80t80.5 -29q42 0 71 24.5t30 69.5q0 49 -30.5 74t-78.5 25h-49v85h46q40 0 67 24.5t28 62.5q1 39 -25 62.5t-64 23.5q-42 0 -71 -27.5t-30 -77.5h-110q0 48 17.5 85.5t47.5 63.5t69 40t81 14
q44 0 80 -13.5t61.5 -37t39.5 -56t14 -71.5q0 -45 -21.5 -81t-50.5 -54q38 -17 63.5 -55.5t25.5 -92.5q0 -41 -15.5 -75.5t-43.5 -59t-66.5 -38t-84.5 -13.5z" />
    <glyph glyph-name="four.oldstyle" horiz-adv-x="548" 
d="M325 88h-308v81l319 391h99v-379h80v-93h-80v-156h-110v156zM325 181v218l-173 -218h173z" />
    <glyph glyph-name="five.oldstyle" horiz-adv-x="498" 
d="M248 -77q-45 0 -84 14.5t-68 39.5t-47 59t-19 73h114q8 -38 34.5 -63t69.5 -25q51 0 78 33t27 82q0 50 -28 82t-74 32q-32 0 -59 -16.5t-44 -48.5l-97 28l66 347h301v-97h-214l-29 -148q17 12 41.5 20t54.5 8q42 0 77.5 -15.5t61 -43.5t39.5 -65.5t14 -82.5
q0 -48 -15 -87.5t-42.5 -67t-67.5 -43t-90 -15.5z" />
    <glyph glyph-name="six.oldstyle" horiz-adv-x="517" 
d="M257 -10q-48 0 -88 16.5t-69 44t-45 65t-16 79.5q0 27 5 48.5t14.5 41.5t22.5 39.5t29 40.5l198 262h135l-167 -221h2q37 0 72.5 -15t63.5 -42t45 -64t17 -82t-16 -84t-45 -67.5t-69 -45t-89 -16.5zM151 201q0 -49 29 -81.5t77 -32.5q49 0 78.5 32.5t29.5 81.5t-29.5 82
t-78.5 33q-48 0 -77 -33t-29 -82z" />
    <glyph glyph-name="seven.oldstyle" horiz-adv-x="466" 
d="M38 -68l280 529h-291v99h421v-86l-286 -542h-124z" />
    <glyph glyph-name="eight.oldstyle" horiz-adv-x="532" 
d="M266 -10q-46 0 -86.5 15t-70.5 41.5t-47.5 63t-17.5 80.5q0 54 24 93t67 62q-29 23 -45.5 55t-16.5 71q0 36 14.5 66.5t40 52.5t61 34.5t77.5 12.5t77 -12.5t60.5 -34.5t40 -52.5t14.5 -66.5q0 -39 -16.5 -71t-45.5 -55q43 -23 67.5 -62t24.5 -93q0 -44 -17.5 -80.5
t-47.5 -63t-70.5 -41.5t-86.5 -15zM266 83q50 0 79.5 31.5t29.5 76.5q0 46 -29.5 77t-79.5 31t-80 -31t-30 -77q0 -45 30 -76.5t80 -31.5zM266 382q39 0 62 24.5t23 58.5t-23.5 58t-61.5 24q-39 0 -62.5 -24t-23.5 -58t23.5 -58.5t62.5 -24.5z" />
    <glyph glyph-name="nine.oldstyle" horiz-adv-x="515" 
d="M259 569q48 0 88.5 -16.5t69.5 -44t45 -65t16 -79.5q0 -27 -5 -48.5t-14.5 -41.5t-22.5 -39.5t-29 -40.5l-199 -262h-134l166 221h-2q-36 0 -71.5 15t-63.5 42t-45 64t-17 82t16 84t44.5 67.5t69 45t88.5 16.5zM366 358q0 49 -29.5 81.5t-77.5 32.5t-77.5 -32.5
t-29.5 -81.5t29.5 -82t77.5 -33t77.5 33t29.5 82z" />
    <glyph glyph-name="zero.oldstyle" horiz-adv-x="545" 
d="M272 -10q-48 0 -88 16.5t-69 45.5t-45 69.5t-16 88.5v141q0 48 16 88t45 69.5t69 45.5t88 16t88.5 -16t69.5 -45.5t45 -69.5t16 -88v-141q0 -48 -16 -88.5t-45 -69.5t-69.5 -45.5t-88.5 -16.5zM272 89q49 0 79 32t30 89v141q0 57 -30 88.5t-79 31.5q-48 0 -78 -31.5
t-30 -88.5v-141q0 -57 30 -89t78 -32z" />
    <glyph glyph-name="zero.oldstyle.zero" horiz-adv-x="545" 
d="M272 -10q-48 0 -88 16.5t-69 45.5t-45 69.5t-16 88.5v141q0 48 16 88t45 69.5t69 45.5t88 16t88.5 -16t69.5 -45.5t45 -69.5t16 -88v-141q0 -48 -16 -88.5t-45 -69.5t-69.5 -45.5t-88.5 -16.5zM272 89q49 0 79 32t30 89v87l-212 -129q10 -38 37.5 -58.5t65.5 -20.5z
M164 263l212 130q-11 38 -38.5 58t-65.5 20q-48 0 -78 -31.5t-30 -88.5v-88z" />
    <glyph glyph-name="one.tnum" horiz-adv-x="590" 
d="M72 104h176v497h-144l85 109h169v-606h175v-104h-461v104z" />
    <glyph glyph-name="two.tnum" horiz-adv-x="590" 
d="M528 0h-470v40q0 58 22 102t55.5 78.5t75 63t80.5 57.5q27 20 49 38t37.5 37.5t24 41t8.5 48.5q0 48 -30 78t-83 30q-54 0 -90.5 -32t-37.5 -89h-111q0 51 18.5 93.5t51 72.5t76 46.5t94.5 16.5q45 0 85 -13.5t71 -40t49 -66.5t18 -93q0 -42 -10 -76t-29.5 -63t-49 -55.5
t-68.5 -54.5q-24 -18 -49.5 -35t-48 -35t-39.5 -38t-24 -44h325v-108z" />
    <glyph glyph-name="three.tnum" horiz-adv-x="590" 
d="M301 -10q-52 0 -98.5 16.5t-81.5 46.5t-56 73t-22 97h110q2 -29 14.5 -52.5t32 -39.5t45.5 -24.5t56 -8.5q54 0 90 28.5t37 80.5q0 57 -37.5 85t-99.5 28h-56v94h56q53 0 84.5 28t32.5 73q0 22 -8.5 40.5t-23.5 31.5t-35.5 20t-43.5 7q-55 0 -92.5 -32t-37.5 -89h-111
q0 54 19.5 96.5t53 72t77 45t91.5 15.5q49 0 90.5 -15t70.5 -41.5t45 -63.5t16 -80q0 -52 -26 -92.5t-61 -61.5q47 -20 77 -63.5t30 -104.5q0 -47 -17.5 -85.5t-49 -66.5t-75 -43t-96.5 -15z" />
    <glyph glyph-name="four.tnum" horiz-adv-x="590" 
d="M375 178h-367v89l379 443h98v-430h95v-102h-95v-178h-110v178zM375 280v266l-229 -266h229z" />
    <glyph glyph-name="five.tnum" horiz-adv-x="590" 
d="M293 -10q-48 0 -92 16t-77.5 44t-54 66.5t-21.5 82.5h113q11 -44 47 -72.5t85 -28.5q30 0 54.5 10.5t42 28.5t27 42t9.5 51q0 28 -9.5 52t-27 42t-41.5 28t-52 10q-44 0 -75.5 -20t-48.5 -53l-99 31l76 390h338v-107h-252l-33 -170q20 14 48 22.5t63 8.5q51 0 92 -18.5
t70.5 -51t45.5 -77.5t16 -98q0 -50 -18 -92t-50.5 -72.5t-77 -47.5t-98.5 -17z" />
    <glyph glyph-name="six.tnum" horiz-adv-x="590" 
d="M292 -10q-54 0 -98.5 18.5t-77 50.5t-50 76t-17.5 94q0 27 6 50.5t16.5 45.5t25 43.5t32.5 44.5l237 297h138l-200 -252h11q42 0 82 -17t70.5 -47t49.5 -72t19 -92q0 -51 -17.5 -94.5t-50 -76t-77.5 -51t-99 -18.5zM292 96q28 0 52.5 10.5t42.5 28.5t28 42t10 52
q0 27 -10 51.5t-28 42.5t-42.5 28.5t-52.5 10.5q-29 0 -53 -10.5t-41.5 -28.5t-27.5 -42.5t-10 -51.5q0 -28 10 -52t27.5 -42t41.5 -28.5t53 -10.5z" />
    <glyph glyph-name="seven.tnum" horiz-adv-x="590" 
d="M83 0l326 603h-349v107h480v-94l-333 -616h-124z" />
    <glyph glyph-name="eight.tnum" horiz-adv-x="590" 
d="M295 -10q-53 0 -97.5 16.5t-77 46.5t-51 71.5t-18.5 90.5q0 62 26.5 107.5t74.5 71.5q-32 25 -49 61t-17 80q0 40 15.5 74.5t43 59.5t66 39t84.5 14q47 0 85.5 -14t66.5 -39t43 -59.5t15 -74.5q0 -44 -17 -80t-49 -61q48 -26 74.5 -71.5t26.5 -107.5q0 -49 -18 -90.5
t-50.5 -71.5t-77.5 -46.5t-99 -16.5zM295 93q31 0 56 10t42 27t26 39.5t9 47.5t-9 48t-26 39.5t-41.5 26.5t-55.5 10t-55.5 -10t-42 -26.5t-26.5 -39.5t-9 -48t9 -47.5t26.5 -39.5t42 -27t54.5 -10zM295 434q47 0 75 28t28 66q0 40 -27.5 67t-75.5 27q-45 0 -73.5 -27
t-28.5 -67q0 -19 7.5 -36t21 -30t32 -20.5t41.5 -7.5z" />
    <glyph glyph-name="nine.tnum" horiz-adv-x="590" 
d="M287 254h-11q-42 0 -82 17t-71 47t-50 72t-19 92t18 94t50 76.5t77 51t99 18.5t99 -18.5t77 -51t50 -76t18 -93.5q0 -28 -6 -51.5t-16.5 -45.5t-25.5 -43.5t-33 -44.5l-238 -298h-138zM298 349q28 0 52.5 10.5t42 28.5t27.5 42.5t10 52.5q0 27 -10 51.5t-27.5 42.5
t-42 28.5t-52.5 10.5q-29 0 -53 -10.5t-41.5 -28.5t-27.5 -42.5t-10 -51.5q0 -28 10 -52.5t27.5 -42.5t41.5 -28.5t53 -10.5z" />
    <glyph glyph-name="zero.tnum" horiz-adv-x="590" 
d="M296 -10q-56 0 -103.5 20t-81.5 56.5t-53 86.5t-19 110v186q0 60 19 110t53 86.5t81.5 56.5t103.5 20q57 0 104 -20t81.5 -56.5t53.5 -86.5t19 -110v-186q0 -60 -19 -110t-53.5 -86.5t-81.5 -56.5t-104 -20zM296 98q66 0 107 43.5t41 121.5v186q0 78 -41 121.5t-107 43.5
q-65 0 -106 -43.5t-41 -121.5v-186q0 -78 41 -121.5t106 -43.5z" />
    <glyph glyph-name="zero.tnum.zero" horiz-adv-x="590" 
d="M295 -10q-56 0 -103.5 20t-81.5 56.5t-53 86.5t-19 110v186q0 60 19 110t53 86.5t81.5 56.5t103.5 20q57 0 104 -20t81.5 -56.5t53.5 -86.5t19 -110v-186q0 -60 -19 -110t-53.5 -86.5t-81.5 -56.5t-104 -20zM295 98q66 0 107 43.5t41 121.5v134l-291 -179
q11 -58 49.5 -89t93.5 -31zM148 313l290 181q-11 57 -49.5 88.5t-93.5 31.5q-65 0 -106 -43.5t-41 -121.5v-136z" />
    <glyph glyph-name="uni21B2" unicode="&#x21b2;" horiz-adv-x="854" 
d="M43 248l306 306l61 -63l-198 -198h461v417h90v-506h-551l198 -198l-61 -64z" />
    <glyph glyph-name="uni21B3" unicode="&#x21b3;" horiz-adv-x="854" 
d="M506 -58l-62 64l198 198h-550v506h89v-417h461l-198 198l62 63l306 -306z" />
    <glyph glyph-name="uni21B0" unicode="&#x21b0;" horiz-adv-x="843" 
d="M672 -209v414h-461l198 -198l-61 -63l-306 306l306 306l61 -64l-198 -198h551v-503h-90z" />
    <glyph glyph-name="uni21B1" unicode="&#x21b1;" horiz-adv-x="843" 
d="M81 294h550l-197 198l61 64l306 -306l-306 -306l-61 63l197 198h-460v-414h-90v503z" />
    <glyph glyph-name="arrowleft" unicode="&#x2190;" horiz-adv-x="819" 
d="M42 250l306 306l61 -64l-198 -198h551v-89h-551l198 -198l-61 -63z" />
    <glyph glyph-name="arrowup" unicode="&#x2191;" horiz-adv-x="701" 
d="M305 552l-198 -198l-63 62l306 306l306 -306l-64 -62l-197 198v-552h-90v552z" />
    <glyph glyph-name="arrowright" unicode="&#x2192;" horiz-adv-x="819" 
d="M410 7l198 198h-550v89h550l-198 198l62 64l306 -306l-306 -306z" />
    <glyph glyph-name="arrowdown" unicode="&#x2193;" horiz-adv-x="697" 
d="M349 -12l-306 306l63 62l198 -198v552h89v-552l198 198l64 -62z" />
    <glyph glyph-name="uni2196" unicode="&#x2196;" horiz-adv-x="727" 
d="M620 -12l-434 433v-281h-88v432h433v-89h-282l434 -432z" />
    <glyph glyph-name="uni2197" unicode="&#x2197;" horiz-adv-x="727" 
d="M45 51l433 432h-282v89h433v-432h-88v281l-434 -433z" />
    <glyph glyph-name="uni2198" unicode="&#x2198;" horiz-adv-x="722" 
d="M198 89h282l-433 432l62 63l434 -433v281h88v-432h-433v89z" />
    <glyph glyph-name="uni2199" unicode="&#x2199;" horiz-adv-x="722" 
d="M612 584l63 -63l-433 -432h282v-89h-433v432h88v-281z" />
    <glyph glyph-name="onethird" unicode="&#x2153;" horiz-adv-x="806" 
d="M99 628h-91l60 82h114v-432h-83v350zM53 0l500 710h98l-500 -710h-98zM627 -5q-31 0 -59.5 9.5t-50.5 28t-36 45.5t-15 63h82q4 -32 25.5 -48.5t53.5 -16.5q29 0 47.5 14.5t18.5 40.5q0 28 -20 43t-52 15h-36v67h34q30 0 45.5 14.5t15.5 37.5q1 23 -15.5 36.5t-40.5 13.5
q-29 0 -48 -17t-19 -44h-82q0 34 12.5 60.5t33.5 45t48 28t56 9.5q33 0 59 -10t43.5 -27t27 -39.5t9.5 -48.5q-1 -32 -15.5 -56t-32.5 -37q24 -11 42 -36t18 -62q0 -29 -11 -52.5t-30.5 -40.5t-47 -26.5t-60.5 -9.5z" />
    <glyph glyph-name="uni2155" unicode="&#x2155;" horiz-adv-x="790" 
d="M99 628h-91l60 82h114v-432h-83v350zM53 0l500 710h98l-500 -710h-98zM619 -5q-31 0 -58.5 9.5t-49 27t-34.5 41.5t-14 53h85q5 -22 23.5 -36t46.5 -14q29 0 47.5 19t18.5 48t-19 48t-48 19q-24 0 -41 -12t-25 -32l-74 22l46 245h212v-81h-147l-16 -81q23 14 60 14
q31 0 55.5 -11t42 -30.5t27 -46t9.5 -57.5q0 -65 -40.5 -105t-106.5 -40z" />
    <glyph glyph-name="uni2159" unicode="&#x2159;" horiz-adv-x="744" 
d="M99 628h-91l60 82h114v-432h-83v350zM53 0l500 710h98l-500 -710h-98zM572 -5q-35 0 -62.5 11.5t-47.5 31t-30.5 46t-10.5 55.5q0 18 3.5 32.5t9.5 28t15.5 27.5t21.5 31l129 175h102l-112 -152q24 -1 47.5 -10.5t42.5 -27.5t30.5 -43.5t11.5 -56.5q0 -32 -10.5 -59
t-30 -46.5t-47.5 -31t-62 -11.5zM572 74q29 0 47.5 19.5t18.5 48.5t-18.5 48.5t-47.5 19.5q-30 0 -49 -19.5t-19 -48.5t19 -48.5t49 -19.5z" />
    <glyph glyph-name="uni2150" unicode="&#x2150;" horiz-adv-x="812" 
d="M99 628h-91l60 82h114v-432h-83v350zM53 0l500 710h98l-500 -710h-98zM507 1l195 351h-202v81h300v-72l-200 -360h-93z" />
    <glyph glyph-name="oneeighth" unicode="&#x215b;" horiz-adv-x="803" 
d="M99 628h-91l60 82h114v-432h-83v350zM53 0l500 710h98l-500 -710h-98zM622 -5q-33 0 -61 10t-48.5 28.5t-32 43.5t-11.5 55q0 35 15 61.5t42 43.5q-19 17 -28 39t-9 48q0 24 9.5 45t27 37t42 25t54.5 9t54.5 -9t42 -25t26.5 -37t9 -45q0 -53 -37 -87q27 -17 42.5 -43.5
t15.5 -61.5q0 -30 -11.5 -55t-32 -43.5t-48.5 -28.5t-61 -10zM622 71q32 0 50 19.5t18 44.5q0 26 -18 45.5t-50 19.5t-50 -19.5t-18 -45.5q0 -25 18 -44.5t50 -19.5zM622 266q24 0 39.5 14.5t15.5 35.5q0 22 -16 36.5t-39 14.5t-38.5 -14.5t-15.5 -36.5q0 -21 15.5 -35.5
t38.5 -14.5z" />
    <glyph glyph-name="uni2151" unicode="&#x2151;" horiz-adv-x="782" 
d="M99 628h-91l60 82h114v-432h-83v350zM53 0l500 710h98l-500 -710h-98zM594 153q-24 1 -47.5 10.5t-42 27.5t-30 43.5t-11.5 57.5q0 31 10.5 58t30.5 47t47.5 31.5t62.5 11.5q34 0 62 -11.5t47.5 -31t30 -46t10.5 -55.5q0 -36 -13 -61t-37 -59l-129 -175h-102zM614 224
q29 0 48 20t19 48q0 29 -19 48.5t-48 19.5t-48 -19.5t-19 -48.5q0 -28 19 -48t48 -20z" />
    <glyph glyph-name="uni2152" unicode="&#x2152;" horiz-adv-x="1066" 
d="M99 628h-91l60 82h114v-432h-83v350zM53 0l500 710h98l-500 -710h-98zM541 351h-91l60 82h114v-432h-83v350zM873 -5q-36 0 -66 12.5t-51 35t-33 53.5t-12 68v106q0 37 12 68.5t33 54t51 35t66 12.5q35 0 64.5 -12.5t50.5 -35t33 -54t12 -68.5v-106q0 -37 -12 -68
t-33 -53.5t-50.5 -35t-64.5 -12.5zM873 76q34 0 55.5 23t21.5 65v106q0 42 -21.5 65t-55.5 23q-35 0 -57 -23t-22 -65v-106q0 -42 22 -65t57 -23z" />
    <glyph glyph-name="twothirds" unicode="&#x2154;" horiz-adv-x="912" 
d="M322 278h-293v28q0 36 12.5 63t33 48.5t45 38.5t48.5 34q29 20 48.5 41.5t19.5 50.5q0 23 -15.5 38t-42.5 15q-29 0 -47 -17.5t-18 -43.5h-83q0 32 11.5 58.5t31.5 45t47.5 29t59.5 10.5q27 0 52.5 -8.5t44.5 -25t30.5 -41.5t11.5 -58q0 -28 -6.5 -49.5t-18.5 -39.5
t-28.5 -33t-37.5 -30q-11 -8 -23.5 -16t-25 -17t-22.5 -19t-14 -21h179v-81zM159 0l500 710h98l-500 -710h-98zM733 -5q-31 0 -59.5 9.5t-50.5 28t-36 45.5t-15 63h82q4 -32 25.5 -48.5t53.5 -16.5q29 0 47.5 14.5t18.5 40.5q0 28 -20 43t-52 15h-36v67h34q30 0 45.5 14.5
t15.5 37.5q1 23 -15.5 36.5t-40.5 13.5q-29 0 -48 -17t-19 -44h-82q0 34 12.5 60.5t33.5 45t48 28t56 9.5q33 0 59 -10t43.5 -27t27 -39.5t9.5 -48.5q-1 -32 -15.5 -56t-32.5 -37q24 -11 42 -36t18 -62q0 -29 -11 -52.5t-30.5 -40.5t-47 -26.5t-60.5 -9.5z" />
    <glyph glyph-name="uni2156" unicode="&#x2156;" horiz-adv-x="896" 
d="M322 278h-293v28q0 36 12.5 63t33 48.5t45 38.5t48.5 34q29 20 48.5 41.5t19.5 50.5q0 23 -15.5 38t-42.5 15q-29 0 -47 -17.5t-18 -43.5h-83q0 32 11.5 58.5t31.5 45t47.5 29t59.5 10.5q27 0 52.5 -8.5t44.5 -25t30.5 -41.5t11.5 -58q0 -28 -6.5 -49.5t-18.5 -39.5
t-28.5 -33t-37.5 -30q-11 -8 -23.5 -16t-25 -17t-22.5 -19t-14 -21h179v-81zM159 0l500 710h98l-500 -710h-98zM725 -5q-31 0 -58.5 9.5t-49 27t-34.5 41.5t-14 53h85q5 -22 23.5 -36t46.5 -14q29 0 47.5 19t18.5 48t-19 48t-48 19q-24 0 -41 -12t-25 -32l-74 22l46 245h212
v-81h-147l-16 -81q23 14 60 14q31 0 55.5 -11t42 -30.5t27 -46t9.5 -57.5q0 -65 -40.5 -105t-106.5 -40z" />
    <glyph glyph-name="uni2157" unicode="&#x2157;" horiz-adv-x="893" 
d="M186 272q-31 0 -59.5 9.5t-50.5 28t-36 45.5t-15 63h82q4 -32 25.5 -48.5t53.5 -16.5q29 0 47.5 14.5t18.5 40.5q0 28 -20 43t-52 15h-36v67h34q30 0 45.5 14.5t15.5 37.5q1 23 -15.5 36.5t-40.5 13.5q-29 0 -48 -17t-19 -44h-82q0 34 12.5 60.5t33.5 45t48 28t56 9.5
q33 0 59 -10t43.5 -27t27 -39.5t9.5 -48.5q-1 -32 -15.5 -56t-32.5 -37q24 -11 42 -36t18 -62q0 -29 -11 -52.5t-30.5 -40.5t-47 -26.5t-60.5 -9.5zM157 0l500 710h98l-500 -710h-98zM723 -5q-31 0 -58.5 9.5t-49 27t-34.5 41.5t-14 53h85q5 -22 23.5 -36t46.5 -14
q29 0 47.5 19t18.5 48t-19 48t-48 19q-24 0 -41 -12t-25 -32l-74 22l46 245h212v-81h-147l-16 -81q23 14 60 14q31 0 55.5 -11t42 -30.5t27 -46t9.5 -57.5q0 -65 -40.5 -105t-106.5 -40z" />
    <glyph glyph-name="threeeighths" unicode="&#x215c;" horiz-adv-x="906" 
d="M186 272q-31 0 -59.5 9.5t-50.5 28t-36 45.5t-15 63h82q4 -32 25.5 -48.5t53.5 -16.5q29 0 47.5 14.5t18.5 40.5q0 28 -20 43t-52 15h-36v67h34q30 0 45.5 14.5t15.5 37.5q1 23 -15.5 36.5t-40.5 13.5q-29 0 -48 -17t-19 -44h-82q0 34 12.5 60.5t33.5 45t48 28t56 9.5
q33 0 59 -10t43.5 -27t27 -39.5t9.5 -48.5q-1 -32 -15.5 -56t-32.5 -37q24 -11 42 -36t18 -62q0 -29 -11 -52.5t-30.5 -40.5t-47 -26.5t-60.5 -9.5zM157 0l500 710h98l-500 -710h-98zM726 -5q-33 0 -61 10t-48.5 28.5t-32 43.5t-11.5 55q0 35 15 61.5t42 43.5q-19 17 -28 39
t-9 48q0 24 9.5 45t27 37t42 25t54.5 9t54.5 -9t42 -25t26.5 -37t9 -45q0 -53 -37 -87q27 -17 42.5 -43.5t15.5 -61.5q0 -30 -11.5 -55t-32 -43.5t-48.5 -28.5t-61 -10zM726 71q32 0 50 19.5t18 44.5q0 26 -18 45.5t-50 19.5t-50 -19.5t-18 -45.5q0 -25 18 -44.5t50 -19.5z
M726 266q24 0 39.5 14.5t15.5 35.5q0 22 -16 36.5t-39 14.5t-38.5 -14.5t-15.5 -36.5q0 -21 15.5 -35.5t38.5 -14.5z" />
    <glyph glyph-name="uni2158" unicode="&#x2158;" horiz-adv-x="921" 
d="M232 377h-215v67l224 266h74v-257h56v-76h-56v-99h-83v99zM232 453v134l-113 -134h113zM184 0l500 710h98l-500 -710h-98zM750 -5q-31 0 -58.5 9.5t-49 27t-34.5 41.5t-14 53h85q5 -22 23.5 -36t46.5 -14q29 0 47.5 19t18.5 48t-19 48t-48 19q-24 0 -41 -12t-25 -32
l-74 22l46 245h212v-81h-147l-16 -81q23 14 60 14q31 0 55.5 -11t42 -30.5t27 -46t9.5 -57.5q0 -65 -40.5 -105t-106.5 -40z" />
    <glyph glyph-name="uni215A" unicode="&#x215a;" horiz-adv-x="832" 
d="M178 272q-31 0 -58.5 9.5t-49 27t-34.5 41.5t-14 53h85q5 -22 23.5 -36t46.5 -14q29 0 47.5 19t18.5 48t-19 48t-48 19q-24 0 -41 -12t-25 -32l-74 22l46 245h212v-81h-147l-16 -81q23 14 60 14q31 0 55.5 -11t42 -30.5t27 -46t9.5 -57.5q0 -65 -40.5 -105t-106.5 -40z
M141 0l500 710h98l-500 -710h-98zM660 -5q-35 0 -62.5 11.5t-47.5 31t-30.5 46t-10.5 55.5q0 18 3.5 32.5t9.5 28t15.5 27.5t21.5 31l129 175h102l-112 -152q24 -1 47.5 -10.5t42.5 -27.5t30.5 -43.5t11.5 -56.5q0 -32 -10.5 -59t-30 -46.5t-47.5 -31t-62 -11.5zM660 74
q29 0 47.5 19.5t18.5 48.5t-18.5 48.5t-47.5 19.5q-30 0 -49 -19.5t-19 -48.5t19 -48.5t49 -19.5z" />
    <glyph glyph-name="fiveeighths" unicode="&#x215d;" horiz-adv-x="891" 
d="M178 272q-31 0 -58.5 9.5t-49 27t-34.5 41.5t-14 53h85q5 -22 23.5 -36t46.5 -14q29 0 47.5 19t18.5 48t-19 48t-48 19q-24 0 -41 -12t-25 -32l-74 22l46 245h212v-81h-147l-16 -81q23 14 60 14q31 0 55.5 -11t42 -30.5t27 -46t9.5 -57.5q0 -65 -40.5 -105t-106.5 -40z
M141 0l500 710h98l-500 -710h-98zM710 -5q-33 0 -61 10t-48.5 28.5t-32 43.5t-11.5 55q0 35 15 61.5t42 43.5q-19 17 -28 39t-9 48q0 24 9.5 45t27 37t42 25t54.5 9t54.5 -9t42 -25t26.5 -37t9 -45q0 -53 -37 -87q27 -17 42.5 -43.5t15.5 -61.5q0 -30 -11.5 -55t-32 -43.5
t-48.5 -28.5t-61 -10zM710 71q32 0 50 19.5t18 44.5q0 26 -18 45.5t-50 19.5t-50 -19.5t-18 -45.5q0 -25 18 -44.5t50 -19.5zM710 266q24 0 39.5 14.5t15.5 35.5q0 22 -16 36.5t-39 14.5t-38.5 -14.5t-15.5 -36.5q0 -21 15.5 -35.5t38.5 -14.5z" />
    <glyph glyph-name="seveneighths" unicode="&#x215e;" horiz-adv-x="823" 
d="M34 278l195 351h-202v81h300v-72l-200 -360h-93zM73 0l500 710h98l-500 -710h-98zM642 -5q-33 0 -61 10t-48.5 28.5t-32 43.5t-11.5 55q0 35 15 61.5t42 43.5q-19 17 -28 39t-9 48q0 24 9.5 45t27 37t42 25t54.5 9t54.5 -9t42 -25t26.5 -37t9 -45q0 -53 -37 -87
q27 -17 42.5 -43.5t15.5 -61.5q0 -30 -11.5 -55t-32 -43.5t-48.5 -28.5t-61 -10zM642 71q32 0 50 19.5t18 44.5q0 26 -18 45.5t-50 19.5t-50 -19.5t-18 -45.5q0 -25 18 -44.5t50 -19.5zM642 266q24 0 39.5 14.5t15.5 35.5q0 22 -16 36.5t-39 14.5t-38.5 -14.5t-15.5 -36.5
q0 -21 15.5 -35.5t38.5 -14.5z" />
    <glyph glyph-name="uni215F" unicode="&#x215f;" horiz-adv-x="441" 
d="M99 628h-91l60 82h114v-432h-83v350zM53 0l500 710h98l-500 -710h-98z" />
    <glyph glyph-name="fraction" unicode="&#x2044;" horiz-adv-x="180" 
d="M-208 0l500 710h98l-500 -710h-98z" />
    <glyph glyph-name="uni2074" unicode="&#x2074;" horiz-adv-x="392" 
d="M232 509h-215v67l224 266h74v-257h56v-76h-56v-99h-83v99zM232 585v134l-113 -134h113z" />
    <glyph glyph-name="uni2075" unicode="&#x2075;" horiz-adv-x="349" 
d="M178 404q-31 0 -58.5 9.5t-49 27t-34.5 41.5t-14 53h85q5 -22 23.5 -36t46.5 -14q29 0 47.5 19t18.5 48t-19 48t-48 19q-24 0 -41 -12t-25 -32l-74 22l46 245h212v-81h-147l-16 -81q23 14 60 14q31 0 55.5 -11t42 -30.5t27 -46t9.5 -57.5q0 -65 -40.5 -105t-106.5 -40z
" />
    <glyph glyph-name="uni2076" unicode="&#x2076;" horiz-adv-x="341" 
d="M169 404q-35 0 -62.5 11.5t-47.5 31t-30.5 46t-10.5 55.5q0 18 3.5 32.5t9.5 28t15.5 27.5t21.5 31l129 175h102l-112 -152q24 -1 47.5 -10.5t42.5 -27.5t30.5 -43.5t11.5 -56.5q0 -32 -10.5 -59t-30 -46.5t-47.5 -31t-62 -11.5zM169 483q29 0 47.5 19.5t18.5 48.5
t-18.5 48.5t-47.5 19.5q-30 0 -49 -19.5t-19 -48.5t19 -48.5t49 -19.5z" />
    <glyph glyph-name="uni2077" unicode="&#x2077;" horiz-adv-x="339" 
d="M34 410l195 351h-202v81h300v-72l-200 -360h-93z" />
    <glyph glyph-name="uni2078" unicode="&#x2078;" horiz-adv-x="362" 
d="M181 404q-33 0 -61 10t-48.5 28.5t-32 43.5t-11.5 55q0 35 15 61.5t42 43.5q-19 17 -28 39t-9 48q0 24 9.5 45t27 37t42 25t54.5 9t54.5 -9t42 -25t26.5 -37t9 -45q0 -53 -37 -87q27 -17 42.5 -43.5t15.5 -61.5q0 -30 -11.5 -55t-32 -43.5t-48.5 -28.5t-61 -10zM181 480
q32 0 50 19.5t18 44.5q0 26 -18 45.5t-50 19.5t-50 -19.5t-18 -45.5q0 -25 18 -44.5t50 -19.5zM181 675q24 0 39.5 14.5t15.5 35.5q0 22 -16 36.5t-39 14.5t-38.5 -14.5t-15.5 -36.5q0 -21 15.5 -35.5t38.5 -14.5z" />
    <glyph glyph-name="uni2079" unicode="&#x2079;" horiz-adv-x="341" 
d="M153 562q-24 1 -47.5 10.5t-42 27.5t-30 43.5t-11.5 57.5q0 31 10.5 58t30.5 47t47.5 31.5t62.5 11.5q34 0 62 -11.5t47.5 -31t30 -46t10.5 -55.5q0 -36 -13 -61t-37 -59l-129 -175h-102zM173 633q29 0 48 20t19 48q0 29 -19 48.5t-48 19.5t-48 -19.5t-19 -48.5
q0 -28 19 -48t48 -20z" />
    <glyph glyph-name="uni2070" unicode="&#x2070;" horiz-adv-x="390" 
d="M196 404q-36 0 -66 12.5t-51 35t-33 53.5t-12 68v106q0 37 12 68.5t33 54t51 35t66 12.5q35 0 64.5 -12.5t50.5 -35t33 -54t12 -68.5v-106q0 -37 -12 -68t-33 -53.5t-50.5 -35t-64.5 -12.5zM196 485q34 0 55.5 23t21.5 65v106q0 42 -21.5 65t-55.5 23q-35 0 -57 -23
t-22 -65v-106q0 -42 22 -65t57 -23z" />
    <glyph glyph-name="uni2070.aalt" horiz-adv-x="390" 
d="M196 404q-36 0 -66 12.5t-51 35t-33 53.5t-12 68v106q0 37 12 68.5t33 54t51 35t66 12.5q35 0 64.5 -12.5t50.5 -35t33 -54t12 -68.5v-106q0 -37 -12 -68t-33 -53.5t-50.5 -35t-64.5 -12.5zM196 485q34 0 55.5 23t21.5 65v65l-154 -90q7 -30 27 -46.5t50 -16.5zM117 616
l153 90q-7 29 -26.5 45t-47.5 16q-35 0 -57 -23t-22 -65v-63z" />
    <glyph glyph-name="uni2081" unicode="&#x2081;" horiz-adv-x="235" 
d="M99 236h-91l60 82h114v-432h-83v350z" />
    <glyph glyph-name="uni2082" unicode="&#x2082;" horiz-adv-x="354" 
d="M322 -114h-293v28q0 36 12.5 63t33 48.5t45 38.5t48.5 34q29 20 48.5 41.5t19.5 50.5q0 23 -15.5 38t-42.5 15q-29 0 -47 -17.5t-18 -43.5h-83q0 32 11.5 58.5t31.5 45t47.5 29t59.5 10.5q27 0 52.5 -8.5t44.5 -25t30.5 -41.5t11.5 -58q0 -28 -6.5 -49.5t-18.5 -39.5
t-28.5 -33t-37.5 -30q-11 -8 -23.5 -16t-25 -17t-22.5 -19t-14 -21h179v-81z" />
    <glyph glyph-name="uni2083" unicode="&#x2083;" horiz-adv-x="365" 
d="M186 -120q-31 0 -59.5 9.5t-50.5 28t-36 45.5t-15 63h82q4 -32 25.5 -48.5t53.5 -16.5q29 0 47.5 14.5t18.5 40.5q0 28 -20 43t-52 15h-36v67h34q30 0 45.5 14.5t15.5 37.5q1 23 -15.5 36.5t-40.5 13.5q-29 0 -48 -17t-19 -44h-82q0 34 12.5 60.5t33.5 45t48 28t56 9.5
q33 0 59 -10t43.5 -27t27 -39.5t9.5 -48.5q-1 -32 -15.5 -56t-32.5 -37q24 -11 42 -36t18 -62q0 -29 -11 -52.5t-30.5 -40.5t-47 -26.5t-60.5 -9.5z" />
    <glyph glyph-name="uni2084" unicode="&#x2084;" horiz-adv-x="392" 
d="M232 -15h-215v67l224 266h74v-257h56v-76h-56v-99h-83v99zM232 61v134l-113 -134h113z" />
    <glyph glyph-name="uni2085" unicode="&#x2085;" horiz-adv-x="349" 
d="M178 -120q-31 0 -58.5 9.5t-49 27t-34.5 41.5t-14 53h85q5 -22 23.5 -36t46.5 -14q29 0 47.5 19t18.5 48t-19 48t-48 19q-24 0 -41 -12t-25 -32l-74 22l46 245h212v-81h-147l-16 -81q23 14 60 14q31 0 55.5 -11t42 -30.5t27 -46t9.5 -57.5q0 -65 -40.5 -105t-106.5 -40z
" />
    <glyph glyph-name="uni2086" unicode="&#x2086;" horiz-adv-x="341" 
d="M169 -120q-35 0 -62.5 11.5t-47.5 31t-30.5 46t-10.5 55.5q0 18 3.5 32.5t9.5 28t15.5 27.5t21.5 31l129 175h102l-112 -152q24 -1 47.5 -10.5t42.5 -27.5t30.5 -43.5t11.5 -56.5q0 -32 -10.5 -59t-30 -46.5t-47.5 -31t-62 -11.5zM169 -41q29 0 47.5 19.5t18.5 48.5
t-18.5 48.5t-47.5 19.5q-30 0 -49 -19.5t-19 -48.5t19 -48.5t49 -19.5z" />
    <glyph glyph-name="uni2087" unicode="&#x2087;" horiz-adv-x="339" 
d="M34 -114l195 351h-202v81h300v-72l-200 -360h-93z" />
    <glyph glyph-name="uni2088" unicode="&#x2088;" horiz-adv-x="362" 
d="M181 -120q-33 0 -61 10t-48.5 28.5t-32 43.5t-11.5 55q0 35 15 61.5t42 43.5q-19 17 -28 39t-9 48q0 24 9.5 45t27 37t42 25t54.5 9t54.5 -9t42 -25t26.5 -37t9 -45q0 -53 -37 -87q27 -17 42.5 -43.5t15.5 -61.5q0 -30 -11.5 -55t-32 -43.5t-48.5 -28.5t-61 -10zM181 -44
q32 0 50 19.5t18 44.5q0 26 -18 45.5t-50 19.5t-50 -19.5t-18 -45.5q0 -25 18 -44.5t50 -19.5zM181 151q24 0 39.5 14.5t15.5 35.5q0 22 -16 36.5t-39 14.5t-38.5 -14.5t-15.5 -36.5q0 -21 15.5 -35.5t38.5 -14.5z" />
    </font>
</defs>
</svg>
