<?xml version="1.0" standalone="no"?>
<!DOCTYPE svg PUBLIC "-//W3C//DTD SVG 1.1//EN" "http://www.w3.org/Graphics/SVG/1.1/DTD/svg11.dtd" >
<svg xmlns="http://www.w3.org/2000/svg" xmlns:xlink="http://www.w3.org/1999/xlink" version="1.1">
<metadata>
Created by Christoph Koeberlin (http://christoph.koe.berlin)
Copyright (c) 2018 Swiss Typefaces Sarl. All rights reserved.
</metadata>
<defs>
<font id="Font" horiz-adv-x="0" >
  <font-face 
    font-family="Font"
    font-weight="700"
    font-style="italic"
    font-stretch="normal"
    units-per-em="1000"
    panose-1="2 11 8 4 0 0 0 0 0 0"
    ascent="800"
    descent="-200"
    x-height="500"
    cap-height="710"
    bbox="-363 -335 1432 1000"
    underline-thickness="100"
    underline-position="-184"
    slope="-12"
    unicode-range="U+0020-FEFF"
  />
<missing-glyph horiz-adv-x="634" 
d="M218 710h500l-151 -710h-500zM231 682l-139 -654l289 327zM554 28l139 654l-291 -327zM247 691l147 -321l285 321h-432zM106 19h432l-147 320z" />
    <glyph glyph-name="f_f.liga" unicode="ff" horiz-adv-x="805" 
d="M143 369h-100l28 131h100l12 55q20 96 82.5 148.5t161.5 52.5q30 0 51 -3t36 -8l-28 -133q-11 4 -23.5 6.5t-28.5 2.5q-46 0 -70 -20t-34 -65l-8 -36h106l-28 -131h-106l-78 -369h-151zM526 369h-79l28 131h79l12 55q20 96 82.5 148.5t161.5 52.5q30 0 51 -3t36 -8
l-28 -133q-11 4 -23.5 6.5t-28.5 2.5q-46 0 -70 -20t-34 -65l-8 -36h140l-28 -131h-140l-78 -369h-151z" />
    <glyph glyph-name="f_i.liga" unicode="fi" horiz-adv-x="697" 
d="M537 500h151l-106 -500h-151zM647 568q-19 0 -36 7.5t-30 20t-20.5 29.5t-7.5 37q0 19 7.5 36.5t20.5 30t30 20t36 7.5q20 0 37.5 -7.5t30 -20t20 -30t7.5 -36.5q0 -20 -7.5 -37t-20 -29.5t-30 -20t-37.5 -7.5zM143 369h-100l28 131h100l12 55q20 96 82.5 148.5
t161.5 52.5q30 0 51 -3t36 -8l-28 -133q-11 4 -23.5 6.5t-28.5 2.5q-46 0 -70 -20t-34 -65l-8 -36h140l-28 -131h-140l-78 -369h-151z" />
    <glyph glyph-name="f_f_i.liga" unicode="ffi" horiz-adv-x="1080" 
d="M920 500h151l-106 -500h-151zM1030 568q-19 0 -36 7.5t-30 20t-20.5 29.5t-7.5 37q0 19 7.5 36.5t20.5 30t30 20t36 7.5q20 0 37.5 -7.5t30 -20t20 -30t7.5 -36.5q0 -20 -7.5 -37t-20 -29.5t-30 -20t-37.5 -7.5zM143 369h-100l28 131h100l12 55q20 96 82.5 148.5
t161.5 52.5q30 0 51 -3t36 -8l-28 -133q-11 4 -23.5 6.5t-28.5 2.5q-46 0 -70 -20t-34 -65l-8 -36h106l-28 -131h-106l-78 -369h-151zM526 369h-79l28 131h79l12 55q20 96 82.5 148.5t161.5 52.5q30 0 51 -3t36 -8l-28 -133q-11 4 -23.5 6.5t-28.5 2.5q-46 0 -70 -20
t-34 -65l-8 -36h140l-28 -131h-140l-78 -369h-151z" />
    <glyph glyph-name="f_l.liga" unicode="fl" horiz-adv-x="697" 
d="M143 369h-100l28 131h100l12 55q20 96 82.5 148.5t161.5 52.5q30 0 51 -3t36 -8l-28 -133q-11 4 -23.5 6.5t-28.5 2.5q-46 0 -70 -20t-34 -65l-8 -36h140l-28 -131h-140l-78 -369h-151zM590 750h151l-159 -750h-151z" />
    <glyph glyph-name="f_f_l.liga" unicode="ffl" horiz-adv-x="1080" 
d="M973 750h151l-159 -750h-151zM143 369h-100l28 131h100l12 55q20 96 82.5 148.5t161.5 52.5q30 0 51 -3t36 -8l-28 -133q-11 4 -23.5 6.5t-28.5 2.5q-46 0 -70 -20t-34 -65l-8 -36h106l-28 -131h-106l-78 -369h-151zM526 369h-79l28 131h79l12 55q20 96 82.5 148.5
t161.5 52.5q30 0 51 -3t36 -8l-28 -133q-11 4 -23.5 6.5t-28.5 2.5q-46 0 -70 -20t-34 -65l-8 -36h140l-28 -131h-140l-78 -369h-151z" />
    <glyph glyph-name="f_t.liga" unicode="ft" horiz-adv-x="832" 
d="M143 369h-100l28 131h100l12 55q20 96 82.5 148.5t161.5 52.5q30 0 51 -3t36 -8l-28 -133q-11 4 -23.5 6.5t-28.5 2.5q-46 0 -70 -20t-34 -65l-8 -36h118l-28 -131h-118l-78 -369h-151zM667 -5q-44 1 -79 17t-57.5 45.5t-29.5 71t4 94.5l31 146h-77l28 131h77l29 139h151
l-29 -139h140l-28 -131h-140l-33 -155q-10 -47 10 -65.5t57 -18.5q17 0 30 2t27 7l-29 -134q-16 -5 -36 -8t-46 -2z" />
    <glyph glyph-name="t_t.liga" unicode="tt" horiz-adv-x="817" 
d="M269 -5q-44 1 -79 17t-57.5 45.5t-29.5 71t4 94.5l31 146h-100l28 131h100l29 139h151l-29 -139h106l-28 -131h-106l-33 -155q-10 -47 10 -65.5t57 -18.5q17 0 30 2t27 7l-29 -134q-16 -5 -36 -8t-46 -2zM652 -5q-44 1 -79 17t-57.5 45.5t-29.5 71t4 94.5l31 146h-79
l28 131h79l29 139h151l-29 -139h140l-28 -131h-140l-33 -155q-10 -47 10 -65.5t57 -18.5q17 0 30 2t27 7l-29 -134q-16 -5 -36 -8t-46 -2z" />
    <glyph glyph-name="uni0407_uni0407.liga" unicode="&#x407;&#x407;" horiz-adv-x="619" 
d="M170 710h159l-151 -710h-159zM479 710h159l-151 -710h-159zM162 768q-17 0 -31.5 6.5t-25.5 17.5t-17.5 25.5t-6.5 30.5q0 34 23.5 57.5t57.5 23.5q33 0 56.5 -23.5t23.5 -57.5q0 -16 -6.5 -30.5t-17 -25.5t-25.5 -17.5t-31 -6.5zM434 768q-17 0 -31.5 6.5t-25.5 17.5
t-17.5 25.5t-6.5 30.5q0 34 23.5 57.5t57.5 23.5q33 0 56.5 -23.5t23.5 -57.5q0 -16 -6.5 -30.5t-17 -25.5t-25.5 -17.5t-31 -6.5zM708 768q-17 0 -31.5 6.5t-25.5 17.5t-17.5 25.5t-6.5 30.5q0 34 23.5 57.5t57.5 23.5q33 0 56.5 -23.5t23.5 -57.5q0 -16 -6.5 -30.5
t-17 -25.5t-25.5 -17.5t-31 -6.5z" />
    <glyph glyph-name="uni0457_uni0458.liga" unicode="&#x457;&#x458;" horiz-adv-x="550" 
d="M9 0l106 500h151l-106 -500h-151zM129 572q-33 0 -56.5 23.5t-23.5 55.5q0 33 23.5 56.5t56.5 23.5q32 0 55.5 -23.5t23.5 -56.5q0 -32 -23.5 -55.5t-55.5 -23.5zM359 572q-32 0 -55.5 23.5t-23.5 55.5q0 33 23.5 56.5t55.5 23.5q33 0 56.5 -23.5t23.5 -56.5
q0 -32 -23.5 -55.5t-56.5 -23.5zM592 572q-33 0 -56.5 23.5t-23.5 55.5q0 33 23.5 56.5t56.5 23.5q32 0 55.5 -23.5t23.5 -56.5q0 -32 -23.5 -55.5t-55.5 -23.5zM193 -219q-17 0 -33 1t-27 3l27 128q5 -1 12.5 -1.5t12.5 -0.5q40 0 64 19.5t33 64.5l108 505h151l-113 -530
q-22 -103 -80 -146t-155 -43z" />
    <glyph glyph-name="uni0457_uni0457.liga" unicode="&#x457;&#x457;" horiz-adv-x="550" 
d="M115 500h151l-106 -500h-151zM129 572q-33 0 -56.5 23.5t-23.5 55.5q0 33 23.5 56.5t56.5 23.5q32 0 55.5 -23.5t23.5 -56.5q0 -32 -23.5 -55.5t-55.5 -23.5zM359 572q-32 0 -55.5 23.5t-23.5 55.5q0 33 23.5 56.5t55.5 23.5q33 0 56.5 -23.5t23.5 -56.5
q0 -32 -23.5 -55.5t-56.5 -23.5zM390 500h151l-106 -500h-151zM592 572q-33 0 -56.5 23.5t-23.5 55.5q0 33 23.5 56.5t56.5 23.5q32 0 55.5 -23.5t23.5 -56.5q0 -32 -23.5 -55.5t-55.5 -23.5z" />
    <glyph glyph-name=".notdef" horiz-adv-x="634" 
d="M218 710h500l-151 -710h-500zM231 682l-139 -654l289 327zM554 28l139 654l-291 -327zM247 691l147 -321l285 321h-432zM106 19h432l-147 320z" />
    <glyph glyph-name="glyph1" 
 />
    <glyph glyph-name="glyph2" horiz-adv-x="225" 
 />
    <glyph glyph-name="space" unicode=" " horiz-adv-x="225" 
 />
    <glyph glyph-name="exclam" unicode="!" horiz-adv-x="292" 
d="M111 447l56 263h152l-56 -263l-69 -184h-93zM111 -8q-22 0 -41.5 8.5t-34 23t-23 34t-8.5 41.5t8.5 41.5t23 34t34 23t41.5 8.5t41.5 -8.5t34 -23t23 -34t8.5 -41.5t-8.5 -41.5t-23 -34t-34 -23t-41.5 -8.5z" />
    <glyph glyph-name="quotedbl" unicode="&#x22;" horiz-adv-x="437" 
d="M149 710h126l-63 -298h-126zM351 710h126l-63 -298h-126z" />
    <glyph glyph-name="numbersign" unicode="#" horiz-adv-x="698" 
d="M382 181h-132l-57 -181h-127l56 181h-83v114h120l36 120h-83v114h119l56 181h129l-57 -181h131l56 181h129l-57 -181h82v-114h-118l-37 -120h83v-114h-119l-57 -181h-127zM286 295h132l36 120h-131z" />
    <glyph glyph-name="dollar" unicode="$" horiz-adv-x="546" 
d="M191 -3q-40 9 -72 29t-53.5 48t-32 62.5t-7.5 73.5h151q0 -24 12 -42t32 -27l33 154l-17 9q-28 14 -53.5 32t-44.5 42t-30.5 55.5t-11.5 72.5q0 43 13 82t41.5 69t72.5 47.5t106 17.5q10 0 15 -1l16 77h54l-18 -85q38 -10 67 -30.5t48.5 -47t28.5 -57.5t6 -62h-152
q-1 17 -8 31t-21 22l-30 -142l39 -19q34 -17 57 -39.5t37.5 -48t20.5 -53.5t6 -56q0 -49 -16 -90t-46.5 -70t-75.5 -45.5t-102 -16.5h-13l-16 -77h-54zM345 199q0 40 -42 69l-29 -136q32 2 51.5 21t19.5 46zM248 517q0 -22 9 -35.5t31 -27.5l26 124q-28 -2 -47 -18.5
t-19 -42.5z" />
    <glyph glyph-name="percent" unicode="%" horiz-adv-x="1060" 
d="M165 0l600 710h170l-599 -710h-171zM817 -8q-41 0 -77 15.5t-62.5 42.5t-42 62.5t-15.5 76.5t15.5 77t42 62.5t62.5 42t77 15.5q40 0 76 -15.5t63 -42t42.5 -62.5t15.5 -77t-15.5 -76.5t-42.5 -62.5t-63 -42.5t-76 -15.5zM817 118q29 0 49 21t20 50t-20 50t-49 21
t-49.5 -21t-20.5 -50t20.5 -50t49.5 -21zM284 324q-41 0 -77 15.5t-62.5 42.5t-42 62.5t-15.5 76.5t15.5 77t42 62.5t62.5 42t77 15.5q40 0 76 -15.5t63 -42t42.5 -62.5t15.5 -77t-15.5 -76.5t-42.5 -62.5t-63 -42.5t-76 -15.5zM284 450q29 0 49 21t20 50t-20 50t-49 21
q-30 0 -50 -21t-20 -50t20 -50t50 -21z" />
    <glyph glyph-name="ampersand" unicode="&#x26;" horiz-adv-x="770" 
d="M269 -11q-45 0 -85 13t-69 38t-46 61t-17 82q0 40 11.5 70.5t32.5 55.5t50 45t63 40q-20 28 -36 61.5t-16 75.5q0 43 16.5 78t46.5 60t71 39t90 14q45 0 80.5 -14t59.5 -37t37 -54t13 -64q0 -32 -9 -57.5t-27.5 -48t-47.5 -43t-69 -42.5l82 -100l87 81h197l-199 -183
l132 -160h-180l-57 68q-28 -22 -53.5 -37t-50.5 -24.5t-51 -13.5t-56 -4zM278 121q29 0 56.5 11.5t61.5 37.5l-101 123q-47 -26 -71.5 -49t-24.5 -53q0 -32 23.5 -51t55.5 -19zM300 533q0 -23 10 -38.5t25 -33.5l13 7q41 22 58 37t17 38q0 21 -13.5 36.5t-40.5 15.5
q-29 0 -49 -17.5t-20 -44.5z" />
    <glyph glyph-name="quotesingle" unicode="'" horiz-adv-x="235" 
d="M149 710h126l-63 -298h-126z" />
    <glyph glyph-name="parenleft" unicode="(" horiz-adv-x="316" 
d="M129 -156q-15 39 -29 86t-25.5 100t-18 109.5t-6.5 113.5q0 76 14.5 151t43 146t70 136.5t97.5 122.5h137q-67 -72 -112.5 -141t-73 -136t-39.5 -132.5t-12 -129.5q0 -54 3 -103t10.5 -99t21 -104.5t34.5 -119.5h-115z" />
    <glyph glyph-name="parenright" unicode=")" horiz-adv-x="317" 
d="M216 810q15 -39 29 -86t25.5 -100t18 -109.5t6.5 -113.5q0 -76 -14.5 -151t-43 -146t-70 -136.5t-97.5 -122.5h-137q67 72 112.5 141t73 136t39.5 132.5t12 129.5q0 54 -3 103t-10.5 99t-21 104.5t-34.5 119.5h115z" />
    <glyph glyph-name="asterisk" unicode="*" horiz-adv-x="514" 
d="M136 344l88 119l-141 46l31 98l143 -45v148h102v-148l141 46l32 -98l-142 -47l89 -119l-83 -60l-87 118l-90 -118z" />
    <glyph glyph-name="plus" unicode="+" horiz-adv-x="505" 
d="M49 355h145v145h130v-145h145v-131h-145v-145h-130v145h-145v131z" />
    <glyph glyph-name="comma" unicode="," horiz-adv-x="287" 
d="M45 -155h-87l104 162q-28 18 -40 42.5t-12 49.5q0 22 8.5 41.5t23 34t34 23t41.5 8.5t41.5 -8.5t34 -23t23 -34t8.5 -41.5q0 -20 -8.5 -39.5t-22.5 -36.5z" />
    <glyph glyph-name="hyphen" unicode="-" horiz-adv-x="405" 
d="M75 352h294l-31 -144h-294z" />
    <glyph glyph-name="period" unicode="." horiz-adv-x="285" 
d="M116 -8q-22 0 -41.5 8.5t-34 23t-23 34t-8.5 41.5t8.5 41.5t23 34t34 23t41.5 8.5t41.5 -8.5t34 -23t23 -34t8.5 -41.5t-8.5 -41.5t-23 -34t-34 -23t-41.5 -8.5z" />
    <glyph glyph-name="slash" unicode="/" horiz-adv-x="404" 
d="M336 710h136l-386 -820h-136z" />
    <glyph glyph-name="zero" unicode="0" horiz-adv-x="631" 
d="M289 -11q-65 0 -114.5 23t-80.5 64t-41 97.5t4 124.5l33 162q25 120 98 191t195 71q65 0 114.5 -23t80 -64t41 -98t-3.5 -124l-33 -162q-12 -60 -36.5 -108.5t-61.5 -82.5t-85.5 -52.5t-109.5 -18.5zM298 138q110 0 136 125l37 175q7 32 2 57t-18.5 42.5t-34.5 26.5
t-46 9q-110 0 -136 -125l-37 -175q-7 -32 -2 -57t18.5 -42.5t34 -26.5t46.5 -9z" />
    <glyph glyph-name="one" unicode="1" horiz-adv-x="385" 
d="M223 561h-154l140 149h197l-151 -710h-151z" />
    <glyph glyph-name="two" unicode="2" horiz-adv-x="584" 
d="M7 80q13 60 42 103t68 75.5t84 57t90 47.5q28 15 53 29.5t44 31t30.5 35.5t11.5 44q0 32 -20.5 51t-58.5 19q-41 0 -70 -24.5t-34 -64.5h-151q6 57 29.5 101.5t59.5 75t82 46t99 15.5q42 0 81.5 -13.5t70 -40t48.5 -64.5t18 -86q0 -52 -13 -91.5t-38.5 -71t-63.5 -58
t-88 -52.5q-15 -8 -36 -18.5t-42 -23t-38.5 -26.5t-23.5 -28h269l-32 -149h-488z" />
    <glyph glyph-name="three" unicode="3" horiz-adv-x="592" 
d="M291 -11q-46 0 -92 14t-82.5 44t-58 76.5t-16.5 110.5h145q0 -25 9 -43t23.5 -30t34 -17.5t40.5 -5.5q47 0 75 25.5t28 62.5q0 32 -26 54t-68 22h-64l26 121h51q56 0 81.5 24t24.5 62q-1 30 -23.5 47t-55.5 17q-20 0 -39 -6.5t-34 -18t-25 -28t-13 -36.5h-151
q5 62 30.5 107t64 74t85 43t92.5 14q49 0 89.5 -15t69 -40.5t44.5 -61t16 -75.5q0 -65 -28.5 -111t-80.5 -71q34 -19 56 -55t22 -81q0 -43 -15.5 -83t-46.5 -71t-78 -50t-110 -19z" />
    <glyph glyph-name="four" unicode="4" horiz-adv-x="641" 
d="M342 154h-347l26 122l454 434h136l-89 -418h91l-29 -138h-91l-33 -154h-151zM371 292l38 181l-189 -181h151z" />
    <glyph glyph-name="five" unicode="5" horiz-adv-x="590" 
d="M280 -11q-46 0 -90.5 14t-81 41.5t-61.5 69t-31 96.5h156q15 -35 44.5 -53.5t68.5 -18.5q22 0 41.5 8t34.5 21.5t24 32.5t9 42q0 16 -5 32.5t-16 30t-29 21.5t-44 8q-33 0 -63.5 -16t-50.5 -58l-134 45l167 405h372l-31 -146h-245l-46 -109q20 8 41.5 11.5t42.5 3.5
q44 0 79.5 -17.5t60.5 -47t38.5 -69t13.5 -82.5q0 -55 -15.5 -103.5t-48 -84.5t-82.5 -56.5t-119 -20.5z" />
    <glyph glyph-name="six" unicode="6" horiz-adv-x="583" 
d="M279 -11q-60 0 -106 18.5t-78 48.5t-48.5 68.5t-16.5 77.5t6.5 71.5t22 63.5t40.5 63t61 71l225 239h198l-232 -248q39 -3 73.5 -20t61 -44.5t41.5 -65.5t15 -84q0 -55 -18.5 -102t-52.5 -82t-82.5 -55t-109.5 -20zM280 134q47 0 76.5 30t29.5 78q0 38 -26.5 65t-68.5 27
q-47 0 -76.5 -30t-29.5 -78q0 -38 26.5 -65t68.5 -27z" />
    <glyph glyph-name="seven" unicode="7" horiz-adv-x="554" 
d="M412 564h-312l31 146h503l-28 -132l-439 -578h-183z" />
    <glyph glyph-name="eight" unicode="8" horiz-adv-x="595" 
d="M545 232q0 -64 -22 -110t-59.5 -75.5t-86 -43.5t-100.5 -14q-60 0 -105.5 18t-76.5 47.5t-46.5 67t-15.5 76.5q0 28 6.5 57.5t21.5 56.5t39.5 50t60.5 40q-41 46 -41 113q0 46 17.5 84t49.5 65.5t77 42.5t101 15q48 0 87 -14.5t66.5 -39t43 -57t16.5 -68.5
q1 -51 -24 -94.5t-71 -75.5q32 -29 47 -65t15 -76zM188 214q0 -36 23.5 -61.5t71.5 -24.5q50 1 78 30.5t28 73.5q0 17 -6 33t-18 28t-29.5 18.5t-41.5 6.5q-50 -1 -78 -31.5t-28 -72.5zM266 503q0 -35 21 -51.5t56 -16.5q41 1 65.5 24.5t24.5 61.5q0 35 -21 51.5t-56 16.5
q-41 -1 -65.5 -24.5t-24.5 -61.5z" />
    <glyph glyph-name="nine" unicode="9" horiz-adv-x="584" 
d="M272 249q-39 3 -73 20t-60 44.5t-41 65.5t-15 84q0 55 18.5 102t52.5 82t82.5 55t109.5 20q60 0 106 -18.5t78 -48.5t48.5 -68.5t16.5 -77.5t-6.5 -71.5t-22 -63.5t-40.5 -63t-61 -71l-225 -240h-200zM334 377q47 0 76.5 30t29.5 78q0 38 -26.5 65t-68.5 27
q-47 0 -76.5 -30t-29.5 -78q0 -38 26.5 -65t68.5 -27z" />
    <glyph glyph-name="colon" unicode=":" horiz-adv-x="309" 
d="M120 -8q-22 0 -41.5 8.5t-34 23t-23 34t-8.5 41.5t8.5 41.5t23 34t34 23t41.5 8.5t41.5 -8.5t34 -23t23 -34t8.5 -41.5t-8.5 -41.5t-23 -34t-34 -23t-41.5 -8.5zM185 297q-22 0 -41.5 8.5t-34 23t-23 34t-8.5 41.5t8.5 41.5t23 34t34 23t41.5 8.5t41.5 -8.5t34 -23
t23 -34t8.5 -41.5t-8.5 -41.5t-23 -34t-34 -23t-41.5 -8.5z" />
    <glyph glyph-name="semicolon" unicode=";" horiz-adv-x="309" 
d="M185 297q-22 0 -41.5 8.5t-34 23t-23 34t-8.5 41.5t8.5 41.5t23 34t34 23t41.5 8.5t41.5 -8.5t34 -23t23 -34t8.5 -41.5t-8.5 -41.5t-23 -34t-34 -23t-41.5 -8.5zM48 -155h-87l104 162q-28 18 -40 42.5t-12 49.5q0 22 8.5 41.5t23 34t34 23t41.5 8.5t41.5 -8.5t34 -23
t23 -34t8.5 -41.5q0 -20 -8.5 -39.5t-22.5 -36.5z" />
    <glyph glyph-name="less" unicode="&#x3c;" horiz-adv-x="547" 
d="M226 290l253 -253h-188l-253 253l253 253h188z" />
    <glyph glyph-name="equal" unicode="=" horiz-adv-x="572" 
d="M79 250h420v-130h-420v130zM79 459h420v-131h-420v131z" />
    <glyph glyph-name="greater" unicode="&#x3e;" horiz-adv-x="551" 
d="M334 290l-253 253h188l253 -253l-253 -253h-188z" />
    <glyph glyph-name="question" unicode="?" horiz-adv-x="542" 
d="M176 263q7 31 21 55t32.5 43t39 33.5t39.5 25.5q48 27 73 49t25 52q0 24 -19.5 38t-51.5 14q-37 0 -65.5 -20t-38.5 -58h-151q7 62 33.5 105t63.5 70t81 39.5t87 12.5q46 0 85 -13.5t67.5 -38t44 -59.5t15.5 -77q0 -43 -15 -76t-37 -58t-47 -43t-46 -31
q-22 -14 -44.5 -28.5t-34.5 -34.5h-157zM218 -8q-22 0 -41.5 8.5t-34 23t-23 34t-8.5 41.5t8.5 41.5t23 34t34 23t41.5 8.5t41.5 -8.5t34 -23t23 -34t8.5 -41.5t-8.5 -41.5t-23 -34t-34 -23t-41.5 -8.5z" />
    <glyph glyph-name="at" unicode="@" horiz-adv-x="804" 
d="M411 -11q-81 0 -145.5 27t-110 74.5t-69.5 111t-24 135.5q0 85 31.5 156t84.5 122t123.5 79t147.5 28q73 0 136 -22t109.5 -63t72.5 -99.5t26 -131.5q0 -65 -14.5 -112t-39.5 -77.5t-59 -45t-72 -14.5q-35 0 -64 14t-43 34q-22 -22 -53 -34t-69 -12t-67 14t-49 37.5
t-30.5 54.5t-10.5 66q0 45 15 84.5t42 69.5t63.5 47.5t78.5 17.5q39 0 65.5 -17.5t37.5 -38.5l9 46h105l-46 -216q-7 -33 -0.5 -56t35.5 -23q38 0 60 37t22 126q0 58 -21.5 102t-57.5 73t-83 43.5t-99 14.5q-58 0 -112 -20t-95 -59t-66 -95.5t-25 -129.5q0 -60 18.5 -109
t52 -84t82 -54.5t108.5 -19.5q45 0 90 8t86 28v-89q-43 -15 -89 -21.5t-87 -6.5zM402 257q39 0 63.5 24.5t32.5 62.5q4 22 1.5 41.5t-11 34.5t-23 23.5t-33.5 8.5q-39 0 -63.5 -24.5t-32.5 -62.5q-5 -22 -2 -41.5t11.5 -34.5t23 -23.5t33.5 -8.5z" />
    <glyph glyph-name="A" unicode="A" horiz-adv-x="752" 
d="M398 710h144l153 -710h-154l-31 150h-292l-94 -150h-181zM305 288h176l-43 210z" />
    <glyph glyph-name="B" unicode="B" horiz-adv-x="633" 
d="M169 710h214q52 0 92 -15t68 -40.5t42.5 -58t14.5 -67.5q0 -46 -20.5 -89.5t-60.5 -73.5q32 -21 51 -54t19 -84q0 -47 -17.5 -88.5t-52.5 -72.5t-87.5 -49t-123.5 -18h-290zM323 147q53 0 80.5 23t27.5 56q0 25 -17.5 43.5t-49.5 18.5h-127l-30 -141h116zM342 423
q49 0 74 24t25 57q0 25 -17.5 42.5t-51.5 17.5h-76l-30 -141h76z" />
    <glyph glyph-name="C" unicode="C" horiz-adv-x="795" 
d="M400 -12q-81 0 -144.5 26t-108 71.5t-67.5 106.5t-23 131q0 81 27 153t78.5 127t126.5 87t170 32q69 0 126 -19t100 -53.5t71 -81.5t40 -102h-173q-21 48 -65 75t-111 27q-48 0 -90 -18t-73 -49t-48.5 -73t-17.5 -91q0 -43 12.5 -78.5t36.5 -61.5t60.5 -40.5t84.5 -14.5
q61 0 111 27.5t80 74.5h173q-20 -56 -53.5 -102.5t-81 -81t-108 -53.5t-133.5 -19z" />
    <glyph glyph-name="D" unicode="D" horiz-adv-x="725" 
d="M287 146q51 0 97.5 16.5t82 47.5t56 75.5t20.5 99.5q0 39 -13 71.5t-37 56.5t-58.5 37.5t-78.5 13.5h-58l-89 -418h78zM169 710h205q75 0 136 -25t104.5 -66.5t67.5 -96.5t24 -115q0 -104 -32.5 -180.5t-90.5 -127t-137 -75t-172 -24.5h-256z" />
    <glyph glyph-name="E" unicode="E" horiz-adv-x="571" 
d="M169 710h450l-32 -152h-291l-27 -127h231l-33 -152h-231l-27 -127h291l-32 -152h-450z" />
    <glyph glyph-name="F" unicode="F" horiz-adv-x="543" 
d="M169 710h437l-32 -152h-278l-28 -128h217l-32 -152h-217l-59 -278h-159z" />
    <glyph glyph-name="G" unicode="G" horiz-adv-x="818" 
d="M413 -12q-82 0 -147.5 26t-111.5 72t-71 107.5t-25 133.5q0 79 26 150.5t76.5 126t125 86.5t171.5 32q64 0 117 -16.5t94 -46t70.5 -70.5t46.5 -89h-182q-56 68 -154 68q-51 0 -93.5 -17.5t-72.5 -48t-47 -72t-17 -89.5q0 -44 13.5 -81t40 -63t64 -40.5t85.5 -14.5
q76 0 123.5 33.5t73.5 105.5h-221l32 149h361q1 -11 1.5 -21.5t0.5 -21.5q0 -85 -21.5 -158t-67 -126.5t-117.5 -84t-174 -30.5z" />
    <glyph glyph-name="H" unicode="H" horiz-adv-x="754" 
d="M169 710h159l-59 -278h286l59 278h159l-151 -710h-159l60 281h-286l-60 -281h-159z" />
    <glyph glyph-name="I" unicode="I" horiz-adv-x="309" 
d="M169 710h159l-151 -710h-159z" />
    <glyph glyph-name="J" unicode="J" horiz-adv-x="539" 
d="M403 710h159l-114 -536q-21 -98 -79 -142t-146 -44q-41 0 -83.5 12t-76.5 38.5t-54 68.5t-15 101h157q-1 -20 5 -33.5t16.5 -22t23.5 -12.5t25 -4q28 0 47.5 16.5t26.5 47.5z" />
    <glyph glyph-name="K" unicode="K" horiz-adv-x="696" 
d="M244 320l-68 -320h-158l151 710h158l-65 -303l303 303h198l-357 -357l263 -353h-186z" />
    <glyph glyph-name="L" unicode="L" horiz-adv-x="543" 
d="M169 710h159l-119 -558h294l-32 -152h-453z" />
    <glyph glyph-name="M" unicode="M" horiz-adv-x="883" 
d="M169 710h145l146 -305l297 305h145l-151 -710h-160l90 424l-265 -272l-144 299l-95 -451h-159z" />
    <glyph glyph-name="N" unicode="N" horiz-adv-x="792" 
d="M523 0l-249 457l-97 -457h-159l151 710h137l248 -456l97 456h160l-151 -710h-137z" />
    <glyph glyph-name="O" unicode="O" horiz-adv-x="822" 
d="M412 142q48 0 90 18t73 49t48.5 73t17.5 91q0 43 -12.5 78.5t-36.5 61.5t-60.5 40.5t-84.5 14.5t-90 -18t-73 -49t-48.5 -73t-17.5 -91q0 -43 12.5 -78.5t36.5 -61.5t60.5 -40.5t84.5 -14.5zM400 -12q-81 0 -144.5 26t-108 71.5t-67.5 106.5t-23 131q0 81 27 153
t78.5 127t126.5 87t170 32q81 0 144.5 -26t108 -71.5t67.5 -106.5t23 -131q0 -81 -27 -153t-78.5 -127t-126.5 -87t-170 -32z" />
    <glyph glyph-name="P" unicode="P" horiz-adv-x="600" 
d="M169 710h202q54 0 99 -17.5t77.5 -47t50.5 -69t18 -83.5q0 -53 -17 -101.5t-53 -85.5t-93.5 -59t-138.5 -22h-89l-48 -225h-159zM340 374q24 0 45.5 8t37.5 22t25 32.5t9 40.5q0 16 -5 31t-16 26.5t-28.5 18.5t-43.5 7h-68l-40 -186h84z" />
    <glyph glyph-name="Q" unicode="Q" horiz-adv-x="859" 
d="M400 -13q-81 0 -144.5 26t-108 71.5t-67.5 106.5t-23 131q0 81 27 153t78.5 127t126.5 87t170 32q81 0 144.5 -26t108 -71.5t67.5 -106.5t23 -131q0 -69 -19.5 -131t-56.5 -113l149 -142h-205l-48 45q-46 -28 -101 -43t-121 -15zM412 141q49 0 90 18l-92 88l98 102
l101 -97q15 26 23.5 56.5t8.5 63.5q0 43 -12.5 78.5t-36.5 61.5t-60.5 40.5t-84.5 14.5t-90 -18t-73 -49t-48.5 -73t-17.5 -91q0 -43 12.5 -78.5t36.5 -61.5t60.5 -40.5t84.5 -14.5z" />
    <glyph glyph-name="R" unicode="R" horiz-adv-x="658" 
d="M169 710h240q54 0 95.5 -15t69 -40t41.5 -58t14 -69q0 -38 -9.5 -74t-31.5 -66.5t-58 -53.5t-90 -34l190 -300h-176l-185 293h-30l-62 -293h-159zM375 428q42 0 67 21.5t25 53.5q0 25 -17 43t-55 18h-98l-29 -136h107z" />
    <glyph glyph-name="S" unicode="S" horiz-adv-x="591" 
d="M291 -12q-73 0 -125.5 22t-85.5 56.5t-48 77.5t-14 84h159q4 -42 37 -67.5t81 -25.5q38 0 60.5 19t22.5 45q0 31 -21 50t-69 38l-36 14q-32 12 -59.5 31t-48 44.5t-32.5 58t-12 71.5q0 45 18 84.5t51 69t78.5 46t100.5 16.5q60 0 106 -20t77 -51.5t47 -71.5t16 -79h-158
q-7 38 -35.5 56.5t-61.5 18.5q-32 0 -55 -15.5t-23 -43.5t20 -44.5t55 -30.5l51 -20q75 -29 114 -84.5t39 -131.5q0 -48 -17.5 -87.5t-49.5 -68.5t-78.5 -45t-103.5 -16z" />
    <glyph glyph-name="T" unicode="T" horiz-adv-x="559" 
d="M260 558h-181l32 152h524l-32 -152h-183l-119 -558h-160z" />
    <glyph glyph-name="U" unicode="U" horiz-adv-x="717" 
d="M653 288q-17 -78 -43.5 -135t-65.5 -93.5t-93.5 -54t-126.5 -17.5q-64 0 -116.5 23.5t-87.5 65.5t-48.5 100t1.5 127l86 406h160l-89 -417q-9 -40 -3.5 -68.5t21 -47t39.5 -27t53 -8.5q59 0 97.5 34t53.5 106l91 428h161z" />
    <glyph glyph-name="V" unicode="V" horiz-adv-x="727" 
d="M95 710h159l90 -481l293 481h183l-442 -710h-143z" />
    <glyph glyph-name="W" unicode="W" horiz-adv-x="969" 
d="M507 342l-231 -342h-151l-13 710h167l1 -441l300 453l97 -460l192 448h176l-316 -710h-151z" />
    <glyph glyph-name="X" unicode="X" horiz-adv-x="699" 
d="M-66 0l346 369l-181 341h171l120 -228l210 228h189l-329 -362l193 -348h-171l-128 240l-231 -240h-189z" />
    <glyph glyph-name="Y" unicode="Y" horiz-adv-x="695" 
d="M274 298l-171 412h165l103 -263l216 263h194l-347 -412l-63 -298h-160z" />
    <glyph glyph-name="Z" unicode="Z" horiz-adv-x="623" 
d="M4 109l407 449h-306l32 152h537l-23 -109l-408 -449h318l-32 -152h-548z" />
    <glyph glyph-name="bracketleft" unicode="[" horiz-adv-x="331" 
d="M187 800h230l-23 -108h-104l-158 -744h104l-23 -108h-230z" />
    <glyph glyph-name="backslash" unicode="\" horiz-adv-x="722" 
d="M244.985 710h-135.992l385.977 -820h135.992z" />
    <glyph glyph-name="bracketright" unicode="]" horiz-adv-x="331" 
d="M170 -160h-230l23 108h104l158 744h-104l23 108h230z" />
    <glyph glyph-name="asciicircum" unicode="^" horiz-adv-x="340" 
d="M98 500l102 210h52l101 -210h-82l-46 94l-45 -94h-82z" />
    <glyph glyph-name="underscore" unicode="_" horiz-adv-x="508" 
d="M-17 0h435l-24 -114h-435z" />
    <glyph glyph-name="grave" unicode="`" 
d="M124 560l-72 190h161l8 -190h-97z" />
    <glyph glyph-name="a" unicode="a" horiz-adv-x="617" 
d="M224 -8q-43 0 -78.5 17.5t-60.5 47.5t-38.5 70t-13.5 86q0 65 20 120t54.5 94.5t81.5 61.5t101 22q31 0 57 -8t45.5 -19t32.5 -24.5t19 -23.5l13 64h151l-106 -500h-151l8 39q-17 -15 -49 -31t-86 -16zM281 122q28 0 51.5 11.5t40.5 31t26.5 46t9.5 57.5q0 48 -24.5 77
t-72.5 29q-28 0 -51.5 -11.5t-40.5 -31t-26.5 -46t-9.5 -57.5q0 -48 24.5 -77t72.5 -29z" />
    <glyph glyph-name="b" unicode="b" horiz-adv-x="616" 
d="M327 -11q-32 0 -57.5 8t-45 19t-32.5 24t-19 24l-13 -64h-151l159 750h151l-61 -289q17 15 49 31t86 16q43 0 78.5 -17.5t60.5 -47.5t38.5 -70t13.5 -86q0 -65 -20 -120t-54.5 -94.5t-81.5 -61.5t-101 -22zM305 126q28 0 51.5 11.5t40.5 31t26.5 46t9.5 57.5
q0 48 -24.5 77t-72.5 29q-28 0 -51.5 -11.5t-40.5 -31t-26.5 -46t-9.5 -57.5q0 -48 24.5 -77t72.5 -29z" />
    <glyph glyph-name="c" unicode="c" horiz-adv-x="583" 
d="M273 -11q-59 0 -104 20t-75 53t-45.5 75.5t-15.5 88.5q0 60 20.5 112.5t58 90.5t90.5 60t117 22q54 0 96.5 -16.5t72 -45t47 -66t22.5 -78.5h-156q-10 30 -34 49.5t-60 19.5q-26 0 -48.5 -11t-39 -29.5t-25.5 -43t-9 -51.5q0 -50 26 -82.5t74 -32.5q35 0 63.5 20.5
t43.5 50.5h157q-11 -45 -34 -83t-57.5 -65.5t-80.5 -42.5t-104 -15z" />
    <glyph glyph-name="d" unicode="d" horiz-adv-x="617" 
d="M224 -11q-43 0 -78.5 17.5t-60.5 47.5t-38.5 70t-13.5 86q0 65 20 120t54.5 94.5t81.5 61.5t101 22q31 0 57 -8t45.5 -19t32.5 -24.5t19 -23.5l66 317h151l-158 -750h-152l8 36q-17 -15 -49 -31t-86 -16zM281 119q28 0 51.5 11.5t40.5 31t26.5 46t9.5 57.5q0 48 -24.5 77
t-72.5 29q-28 0 -51.5 -11.5t-40.5 -31t-26.5 -46t-9.5 -57.5q0 -48 24.5 -77t72.5 -29z" />
    <glyph glyph-name="e" unicode="e" horiz-adv-x="594" 
d="M276 -11q-58 0 -103 20t-76 53t-47.5 76t-16.5 89q0 61 19.5 113t56.5 90t90 59.5t120 21.5q56 0 104.5 -21t82 -59.5t48 -93.5t2.5 -122h-382q5 -44 37.5 -70t73.5 -26q34 0 60 12.5t40 34.5h160q-39 -95 -108.5 -136t-160.5 -41zM303 391q-37 0 -72.5 -20t-49.5 -60
h224q-3 22 -13.5 37t-24.5 24.5t-31 14t-33 4.5z" />
    <glyph glyph-name="f" unicode="f" horiz-adv-x="422" 
d="M143 369h-100l28 131h100l12 55q20 96 82.5 148.5t161.5 52.5q30 0 51 -3t36 -8l-28 -133q-11 4 -23.5 6.5t-28.5 2.5q-46 0 -70 -20t-34 -65l-8 -36h140l-28 -131h-140l-78 -369h-151z" />
    <glyph glyph-name="g" unicode="g" horiz-adv-x="618" 
d="M233 -219q-48 0 -90 14.5t-74 40t-51.5 60.5t-22.5 77h147q4 -18 14 -30.5t23 -21t28.5 -12t30.5 -3.5q42 0 75 29t41 81l6 38q-17 -15 -49 -31t-86 -16q-42 0 -77.5 16.5t-60.5 45.5t-39 68t-14 83q0 64 20 117.5t55 92t81.5 60t100.5 21.5q31 0 57 -8t45.5 -19
t32.5 -24.5t19 -23.5l13 64h151l-102 -483q-13 -62 -38 -107t-60 -73.5t-79.5 -42t-96.5 -13.5zM282 137q27 0 50 10.5t40.5 29t27.5 44t10 54.5q1 45 -24.5 72t-72.5 27q-27 0 -50.5 -11t-40.5 -29.5t-27 -44t-10 -54.5q0 -45 25.5 -71.5t71.5 -26.5z" />
    <glyph glyph-name="h" unicode="h" horiz-adv-x="600" 
d="M168 750h151l-63 -299q23 24 60 41.5t83 17.5q48 0 81 -20.5t52 -54t24 -75t-4 -83.5l-59 -277h-151l56 265q11 51 -6.5 80.5t-58.5 29.5q-45 0 -76 -31t-45 -99l-52 -245h-151z" />
    <glyph glyph-name="i" unicode="i" horiz-adv-x="275" 
d="M115 500h151l-106 -500h-151zM225 568q-19 0 -36 7.5t-30 20t-20.5 29.5t-7.5 37q0 19 7.5 36.5t20.5 30t30 20t36 7.5q20 0 37.5 -7.5t30 -20t20 -30t7.5 -36.5q0 -20 -7.5 -37t-20 -29.5t-30 -20t-37.5 -7.5z" />
    <glyph glyph-name="j" unicode="j" horiz-adv-x="282" 
d="M-75 -219q-17 0 -33 1t-27 3l27 128q5 -1 12.5 -1.5t12.5 -0.5q40 0 64 19.5t33 64.5l108 505h151l-113 -530q-22 -103 -80 -146t-155 -43zM231 568q-19 0 -36 7.5t-30 20t-20.5 29.5t-7.5 37q0 19 7.5 36.5t20.5 30t30 20t36 7.5q20 0 37.5 -7.5t30 -20t20 -30
t7.5 -36.5q0 -20 -7.5 -37t-20 -29.5t-30 -20t-37.5 -7.5z" />
    <glyph glyph-name="k" unicode="k" horiz-adv-x="558" 
d="M208 226l-48 -226h-151l159 750h151l-91 -427l174 177h189l-237 -241l175 -259h-169z" />
    <glyph glyph-name="l" unicode="l" horiz-adv-x="275" 
d="M168 750h151l-159 -750h-151z" />
    <glyph glyph-name="m" unicode="m" horiz-adv-x="893" 
d="M115 500h151l-10 -49q20 24 54 41.5t79 17.5t76 -20t49 -52q26 32 67.5 51.5t89.5 19.5q52 0 89 -21.5t58.5 -55t28 -75.5t-2.5 -84l-58 -273h-151l56 265q11 51 -3 80.5t-51 29.5q-40 0 -67.5 -27.5t-41.5 -90.5l-55 -257h-151l56 265q11 51 -3 80.5t-51 29.5
q-42 0 -70 -31t-42 -99l-52 -245h-151z" />
    <glyph glyph-name="n" unicode="n" horiz-adv-x="600" 
d="M115 500h151l-10 -49q23 24 60 41.5t83 17.5q48 0 81 -20.5t52 -54t24 -75t-4 -83.5l-59 -277h-151l56 265q11 51 -6.5 80.5t-58.5 29.5q-45 0 -76 -31t-45 -99l-52 -245h-151z" />
    <glyph glyph-name="o" unicode="o" horiz-adv-x="592" 
d="M286 129q26 0 48.5 10t38.5 28t25 42t9 51q0 50 -26.5 80t-74.5 30q-26 0 -48.5 -10t-38.5 -28t-25 -42t-9 -51q0 -50 26.5 -80t74.5 -30zM273 -12q-60 0 -105 20t-75 53t-45 76t-15 89q0 60 20.5 112.5t58 90.5t90.5 60t117 22q60 0 105 -20t75 -53t45 -76t15 -89
q0 -60 -20.5 -112.5t-58 -90.5t-90.5 -60t-117 -22z" />
    <glyph glyph-name="p" unicode="p" horiz-adv-x="616" 
d="M115 500h151l-8 -39q17 15 49 31t86 16q43 0 78.5 -17.5t60.5 -47.5t38.5 -70t13.5 -86q0 -65 -20 -120t-54.5 -94.5t-81.5 -61.5t-101 -22q-32 0 -57.5 8t-45 19t-32.5 24t-19 24l-57 -273h-151zM305 126q28 0 51.5 11.5t40.5 31t26.5 46t9.5 57.5q0 48 -24.5 77
t-72.5 29q-28 0 -51.5 -11.5t-40.5 -31t-26.5 -46t-9.5 -57.5q0 -48 24.5 -77t72.5 -29z" />
    <glyph glyph-name="q" unicode="q" horiz-adv-x="618" 
d="M359 36q-17 -15 -49 -31t-86 -16q-43 0 -78.5 17.5t-60.5 47.5t-38.5 70t-13.5 86q0 65 20 120t54.5 94.5t81.5 61.5t101 22q31 0 57 -8t45.5 -19t32.5 -24.5t19 -23.5l14 67h150l-148 -709h-152zM281 119q28 0 51.5 11.5t40.5 31t26.5 46t9.5 57.5q0 48 -24.5 77
t-72.5 29q-28 0 -51.5 -11.5t-40.5 -31t-26.5 -46t-9.5 -57.5q0 -48 24.5 -77t72.5 -29z" />
    <glyph glyph-name="r" unicode="r" horiz-adv-x="402" 
d="M115 500h151l-15 -69q17 34 54 54.5t82 20.5q11 0 22.5 -1t24.5 -5l-32 -153q-33 12 -62 12q-51 0 -84.5 -34t-45.5 -88l-50 -237h-151z" />
    <glyph glyph-name="s" unicode="s" horiz-adv-x="504" 
d="M240 -11q-51 0 -93.5 12.5t-73 35.5t-47.5 55t-17 71h157q0 -16 7 -27t18.5 -18.5t26 -11t28.5 -3.5q26 0 39.5 9.5t13.5 23.5t-11 25t-35 19l-78 26q-53 17 -83 54t-30 92q0 73 53.5 116t158.5 43q39 0 74.5 -11t63.5 -32t45 -51t19 -68h-151q0 15 -6.5 24t-15.5 14
t-19 6.5t-17 1.5q-23 0 -36.5 -9t-13.5 -25t13 -25.5t27 -14.5l63 -21q63 -21 98 -57.5t35 -93.5q0 -77 -57.5 -118.5t-155.5 -41.5z" />
    <glyph glyph-name="t" unicode="t" horiz-adv-x="434" 
d="M269 -5q-44 1 -79 17t-57.5 45.5t-29.5 71t4 94.5l31 146h-100l28 131h100l29 139h151l-29 -139h140l-28 -131h-140l-33 -155q-10 -47 10 -65.5t57 -18.5q17 0 30 2t27 7l-29 -134q-16 -5 -36 -8t-46 -2z" />
    <glyph glyph-name="u" unicode="u" horiz-adv-x="589" 
d="M203 -10q-45 0 -78.5 21t-53 54.5t-26 75t2.5 82.5l59 277h151l-58 -275q-10 -46 7.5 -72t55.5 -26q88 0 113 122l53 251h151l-106 -500h-151l10 49q-20 -25 -52 -42t-78 -17z" />
    <glyph glyph-name="v" unicode="v" horiz-adv-x="574" 
d="M51 500h149l62 -315l196 315h171l-325 -500h-140z" />
    <glyph glyph-name="w" unicode="w" horiz-adv-x="809" 
d="M55 500h153l22 -313l169 313h116l25 -304l151 304h168l-270 -500h-152l-25 263l-146 -263h-152z" />
    <glyph glyph-name="x" unicode="x" horiz-adv-x="567" 
d="M264 137l-136 -137h-181l245 244l-135 256h160l81 -157l147 157h180l-255 -268l134 -232h-162z" />
    <glyph glyph-name="y" unicode="y" horiz-adv-x="574" 
d="M159 31l-107 469h149l62 -315l196 315h171l-462 -709h-166z" />
    <glyph glyph-name="z" unicode="z" horiz-adv-x="502" 
d="M13 118l264 246h-209l29 136h412l-25 -119l-263 -245h219l-29 -136h-423z" />
    <glyph glyph-name="braceleft" unicode="{" horiz-adv-x="345" 
d="M175 -160q-36 0 -66 11.5t-49.5 33t-26.5 52.5t1 71l45 213q5 22 -3.5 38.5t-37.5 16.5h-8l23 108h8q29 0 44 15.5t20 37.5l47 221q7 36 19.5 62.5t33 44.5t49.5 26.5t70 8.5h89l-23 -108h-48q-31 0 -46 -12.5t-22 -44.5l-46 -217q-11 -50 -33 -70.5t-51 -27.5
q26 -7 38 -33.5t3 -70.5l-45 -211q-12 -57 44 -57h48l-23 -108h-54z" />
    <glyph glyph-name="bar" unicode="|" horiz-adv-x="334" 
d="M113 710h126v-820h-126v820z" />
    <glyph glyph-name="braceright" unicode="}" horiz-adv-x="345" 
d="M196 801q36 0 66 -11.5t49.5 -33t26.5 -52.5t-1 -71l-45 -213q-5 -22 3.5 -38.5t37.5 -16.5h8l-23 -108h-8q-29 0 -44 -15.5t-20 -37.5l-47 -221q-7 -36 -19.5 -62.5t-33 -44.5t-49.5 -26.5t-70 -8.5h-89l23 108h48q31 0 46 12.5t22 44.5l46 217q11 50 33 70.5t51 27.5
q-26 7 -38 33.5t-3 70.5l45 211q12 57 -44 57h-48l23 108h54z" />
    <glyph glyph-name="asciitilde" unicode="~" horiz-adv-x="310" 
d="M106 349h46l28 -40l18 40h73l-55 -119h-46l-29 40l-18 -40h-72z" />
    <glyph glyph-name="uni00A0" unicode="&#xa0;" horiz-adv-x="225" 
 />
    <glyph glyph-name="exclamdown" unicode="&#xa1;" horiz-adv-x="281" 
d="M174 54l-56 -263h-152l56 263l69 184h93zM171 297q-22 0 -41.5 8.5t-34 23t-23 34t-8.5 41.5t8.5 41.5t23 34t34 23t41.5 8.5t41.5 -8.5t34 -23t23 -34t8.5 -41.5t-8.5 -41.5t-23 -34t-34 -23t-41.5 -8.5z" />
    <glyph glyph-name="cent" unicode="&#xa2;" horiz-adv-x="598" 
d="M271 -11l-16 -77h-54l17 83q-45 9 -78.5 31.5t-56.5 53.5t-34.5 68.5t-11.5 77.5q0 60 20.5 112.5t58 90.5t90.5 60t117 22h5l17 77h54l-18 -83q81 -17 126.5 -73t53.5 -127h-156q-14 43 -53 61l-52 -242q32 4 57 23.5t39 47.5h157q-11 -45 -34 -83t-57.5 -65.5
t-80.5 -42.5t-104 -15h-6zM189 239q0 -38 15 -66.5t44 -40.5l51 241q-24 -2 -44 -13.5t-35 -29.5t-23 -41.5t-8 -49.5z" />
    <glyph glyph-name="sterling" unicode="&#xa3;" horiz-adv-x="589" 
d="M71 385h74q-2 18 -3.5 37t-1.5 39q0 60 17 108.5t49.5 82t79.5 52t107 18.5q52 0 92.5 -20.5t67 -53.5t39 -75.5t8.5 -85.5h-150q3 16 0 31.5t-11.5 27.5t-22.5 19.5t-33 7.5q-42 0 -67 -29t-25 -74q0 -23 2.5 -43.5t5.5 -41.5h167l-12 -57h-147q0 -8 0.5 -14.5
t0.5 -14.5q0 -32 -5 -69.5t-35 -80.5h263l-32 -149h-510l32 149h95q23 35 32 66t9 65q0 24 -3 48h-95z" />
    <glyph glyph-name="yen" unicode="&#xa5;" horiz-adv-x="740" 
d="M98 355h181l-156 355h174l104 -260l214 260h194l-306 -355h180l-12 -57h-217l-16 -76h217l-12 -57h-217l-35 -165h-151l35 165h-217l12 57h217l17 76h-218z" />
    <glyph glyph-name="brokenbar" unicode="&#xa6;" horiz-adv-x="334" 
d="M113 233h126v-343h-126v343zM113 710h126v-343h-126v343z" />
    <glyph glyph-name="section" unicode="&#xa7;" horiz-adv-x="454" 
d="M159 -219q-27 0 -58.5 10t-57.5 31t-42.5 54t-13.5 80h126q-1 -21 4 -34t12.5 -20.5t16.5 -10t17 -2.5q20 0 37 16.5t17 51.5q0 17 -11 38.5t-44 50.5l-47 41q-30 26 -50.5 61.5t-20.5 86.5q0 34 10.5 61.5t26 51t35 42t37.5 34.5q-21 29 -32 61.5t-11 61.5q0 36 13 68
t37 56t58 37.5t75 13.5q28 0 57 -8t53 -28t39.5 -54t16.5 -85h-126q1 22 -3.5 35.5t-11.5 20.5t-16 9t-16 2q-26 0 -38.5 -19t-12.5 -40t11 -40.5t45 -48.5l47 -40q32 -26 52 -61t20 -81q0 -33 -10 -62t-26 -53t-35.5 -43t-38.5 -33q26 -31 34.5 -65t8.5 -63
q0 -85 -48.5 -134.5t-135.5 -49.5zM235 346q-30 -22 -46.5 -46t-16.5 -53t12.5 -45t31.5 -33l4 -4q27 21 45 45t18 53q0 30 -12.5 47t-31.5 33z" />
    <glyph glyph-name="dieresis" unicode="&#xa8;" 
d="M20 572q-17 0 -31.5 6.5t-25.5 17t-17.5 25t-6.5 30.5q0 34 23.5 57.5t57.5 23.5q16 0 30.5 -6.5t25 -17.5t17 -25.5t6.5 -31.5q0 -32 -23.5 -55.5t-55.5 -23.5zM257 572q-33 0 -56.5 23.5t-23.5 55.5q0 34 23.5 57.5t56.5 23.5t56.5 -23.5t23.5 -57.5q0 -32 -23.5 -55.5
t-56.5 -23.5z" />
    <glyph glyph-name="copyright" unicode="&#xa9;" horiz-adv-x="817" 
d="M432 163q-43 0 -78.5 15t-61.5 40.5t-40.5 60.5t-14.5 76q0 40 14.5 75t40.5 61t61.5 41t78.5 15q30 0 59 -9.5t53.5 -26.5t42.5 -42.5t26 -56.5h-95q-12 25 -36 37.5t-50 12.5q-50 0 -78.5 -31t-28.5 -76t28.5 -76t78.5 -31q26 0 50 12t36 37h95q-8 -32 -26 -56.5
t-42.5 -42t-53.5 -26.5t-59 -9zM428 76q58 0 108.5 22t88.5 60t60 88.5t22 108.5t-22 108.5t-60 88.5t-88.5 60t-108.5 22q-57 0 -108 -22t-88.5 -60t-59.5 -88.5t-22 -108.5t22 -108.5t59.5 -88.5t88.5 -60t108 -22zM428 -12q-75 0 -142 29t-116.5 79t-78.5 116.5
t-29 142.5t29 142.5t78.5 116.5t116.5 79t142 29q76 0 142.5 -29t116.5 -79t79 -116.5t29 -142.5t-29 -142.5t-79 -116.5t-116.5 -79t-142.5 -29z" />
    <glyph glyph-name="ordfeminine" unicode="&#xaa;" horiz-adv-x="401" 
d="M203 406q-51 0 -80.5 38t-29.5 98q0 36 12.5 68t34 56t49.5 37.5t58 13.5q35 0 56 -15t26 -24l7 32h105l-64 -300h-105l5 24q-8 -8 -26 -18t-48 -10zM245 495q28 0 45 22t17 52q0 23 -11 38t-37 15q-28 0 -44.5 -22t-16.5 -52q0 -23 11 -38t36 -15z" />
    <glyph glyph-name="guillemotleft" unicode="&#xab;" horiz-adv-x="542" 
d="M423 467h135l-170 -236l73 -198h-123l-103 217zM212 467h135l-170 -236l73 -198h-123l-103 217z" />
    <glyph glyph-name="uni00AD" unicode="&#xad;" horiz-adv-x="405" 
d="M75 352h294l-31 -144h-294z" />
    <glyph glyph-name="registered" unicode="&#xae;" horiz-adv-x="817" 
d="M428 -12q-75 0 -142 29t-116.5 79t-78.5 116.5t-29 142.5t29 142.5t78.5 116.5t116.5 79t142 29q76 0 142.5 -29t116.5 -79t79 -116.5t29 -142.5t-29 -142.5t-79 -116.5t-116.5 -79t-142.5 -29zM428 76q58 0 108.5 22t88.5 60t60 88.5t22 108.5t-22 108.5t-60 88.5
t-88.5 60t-108.5 22q-57 0 -108 -22t-88.5 -60t-59.5 -88.5t-22 -108.5t22 -108.5t59.5 -88.5t88.5 -60t108 -22zM302 540h149q54 0 85 -33t31 -80q0 -36 -18 -58.5t-53 -36.5l130 -163h-104l-121 151h-11v-151h-88v371zM441 394q17 0 28 9.5t11 23.5q0 16 -11 24.5t-28 8.5
h-51v-66h51z" />
    <glyph glyph-name="macron" unicode="&#xaf;" 
d="M-23 710h348l-22 -104h-348z" />
    <glyph glyph-name="degree" unicode="&#xb0;" horiz-adv-x="383" 
d="M252 493q25 0 42.5 17.5t17.5 42.5t-17.5 43t-42.5 18q-27 0 -44.5 -18t-17.5 -43t17.5 -42.5t44.5 -17.5zM252 393q-33 0 -62.5 12.5t-51.5 34.5t-34.5 51t-12.5 62t12.5 62.5t34.5 51.5t51.5 34.5t62.5 12.5t62 -12.5t51 -34.5t34.5 -51.5t12.5 -62.5t-12.5 -62
t-34.5 -51t-51 -34.5t-62 -12.5z" />
    <glyph glyph-name="uni00B2" unicode="&#xb2;" horiz-adv-x="358" 
d="M70 466q7 36 24 61.5t40.5 45t50.5 34.5t54 29q13 7 27.5 14.5t25.5 16t18.5 19t7.5 24.5q0 16 -9.5 25.5t-29.5 9.5q-22 0 -36 -13t-16 -30h-105q8 71 55 109t113 38q26 0 50.5 -8.5t43 -25t30 -40.5t11.5 -54q0 -32 -8 -56.5t-23.5 -43.5t-38 -34.5t-50.5 -30.5
q-5 -3 -15.5 -8t-21.5 -11t-20.5 -12t-12.5 -11h147l-22 -104h-302z" />
    <glyph glyph-name="uni00B3" unicode="&#xb3;" horiz-adv-x="363" 
d="M245 403q-28 0 -56.5 8.5t-51 27t-36 47.5t-10.5 70h100q2 -27 19 -38t39 -11q24 0 37 12t13 30q0 15 -11.5 27t-34.5 12h-41l18 82h30q31 0 43 13t11 31q-2 31 -40 31q-21 0 -37.5 -12t-18.5 -31h-105q3 39 19 67t40 46t53 26t57 8q32 0 57.5 -9.5t43 -26t26.5 -38
t9 -45.5q0 -79 -64 -110q18 -11 31.5 -33t13.5 -49q0 -25 -9.5 -49.5t-28.5 -43.5t-48 -30.5t-68 -11.5z" />
    <glyph glyph-name="acute" unicode="&#xb4;" 
d="M122 750h179l-214 -190h-115z" />
    <glyph glyph-name="paragraph" unicode="&#xb6;" horiz-adv-x="685" 
d="M258 260q-35 4 -67.5 20.5t-58 44.5t-41 66.5t-15.5 86.5q0 40 17.5 81.5t52 75t86.5 54.5t122 21h339l-190 -894h-127l162 763h-85l-162 -763h-127z" />
    <glyph glyph-name="periodcentered" unicode="&#xb7;" horiz-adv-x="294" 
d="M151 175q-22 0 -41.5 8.5t-34 23t-23 34t-8.5 41.5t8.5 41.5t23 34t34 23t41.5 8.5t41.5 -8.5t34 -23t23 -34t8.5 -41.5t-8.5 -41.5t-23 -34t-34 -23t-41.5 -8.5z" />
    <glyph glyph-name="cedilla" unicode="&#xb8;" 
d="M-151 -141q18 -8 40.5 -11.5t36.5 -3.5q10 0 21 1.5t20.5 5.5t15.5 10.5t6 17.5q0 13 -10.5 18t-27.5 5q-8 0 -19.5 -2.5t-22.5 -7.5l-32 19l71 92h68l-38 -50q24 7 48 7q32 0 51.5 -17t19.5 -48q0 -24 -11 -45t-31.5 -36t-49 -24t-64.5 -9q-26 0 -54 3t-52 12z" />
    <glyph glyph-name="uni00B9" unicode="&#xb9;" horiz-adv-x="244" 
d="M198 738h-97l96 104h128l-92 -432h-105z" />
    <glyph glyph-name="ordmasculine" unicode="&#xba;" horiz-adv-x="377" 
d="M245 501q25 0 41.5 18.5t16.5 46.5q0 23 -12 38t-35 15q-26 0 -42.5 -19t-16.5 -47q0 -23 12 -37.5t36 -14.5zM235 402q-36 0 -62.5 12t-44.5 32t-27 45.5t-9 52.5q0 37 12.5 68.5t35.5 55t55 36.5t70 13q36 0 62.5 -12t44.5 -32t27 -45.5t9 -52.5q0 -37 -12.5 -68.5
t-35.5 -55t-54.5 -36.5t-70.5 -13z" />
    <glyph glyph-name="guillemotright" unicode="&#xbb;" horiz-adv-x="543" 
d="M328 35h-135l170 236l-73 198h123l103 -217zM117 35h-135l170 236l-73 198h123l103 -217z" />
    <glyph glyph-name="onequarter" unicode="&#xbc;" horiz-adv-x="840" 
d="M171 606h-97l96 104h128l-92 -432h-105zM32 0l651 710h136l-651 -710h-136zM626 87h-204l18 85l270 261h95l-54 -251h54l-20 -95h-54l-18 -86h-105zM646 182l18 86l-89 -86h71z" />
    <glyph glyph-name="onehalf" unicode="&#xbd;" horiz-adv-x="871" 
d="M171 606h-97l96 104h128l-92 -432h-105zM32 0l651 710h136l-651 -710h-136zM496 57q7 36 24 61.5t40.5 45t50.5 34.5t54 29q13 7 27.5 14.5t25.5 16t18.5 19t7.5 24.5q0 16 -9.5 25.5t-29.5 9.5q-22 0 -36 -13t-16 -30h-105q8 71 55 109t113 38q26 0 50.5 -8.5t43 -25
t30 -40.5t11.5 -54q0 -32 -8 -56.5t-23.5 -43.5t-38 -34.5t-50.5 -30.5q-5 -3 -15.5 -8t-21.5 -11t-20.5 -12t-12.5 -11h147l-22 -104h-302z" />
    <glyph glyph-name="threequarters" unicode="&#xbe;" horiz-adv-x="905" 
d="M217 271q-28 0 -56.5 8.5t-51 27t-36 47.5t-10.5 70h100q2 -27 19 -38t39 -11q24 0 37 12t13 30q0 15 -11.5 27t-34.5 12h-41l18 82h30q31 0 43 13t11 31q-2 31 -40 31q-21 0 -37.5 -12t-18.5 -31h-105q3 39 19 67t40 46t53 26t57 8q32 0 57.5 -9.5t43 -26t26.5 -38
t9 -45.5q0 -79 -64 -110q18 -11 31.5 -33t13.5 -49q0 -25 -9.5 -49.5t-28.5 -43.5t-48 -30.5t-68 -11.5zM97 0l651 710h136l-651 -710h-136zM691 87h-204l18 85l270 261h95l-54 -251h54l-20 -95h-54l-18 -86h-105zM711 182l18 86l-89 -86h71z" />
    <glyph glyph-name="questiondown" unicode="&#xbf;" horiz-adv-x="533" 
d="M189 -219q-47 0 -85.5 13.5t-67 38t-44 59.5t-15.5 77q0 43 15 76t37 58t47 43t46 31q22 14 44.5 28.5t34.5 34.5h157q-7 -31 -21 -55t-32.5 -43t-39 -33.5t-39.5 -25.5q-48 -27 -73 -49t-25 -52q0 -24 19.5 -38t51.5 -14q37 0 65.5 20t38.5 58h151q-8 -62 -34 -105
t-63 -70t-81 -39.5t-87 -12.5zM312 297q-22 0 -41.5 8.5t-34 23t-23 34t-8.5 41.5t8.5 41.5t23 34t34 23t41.5 8.5t41.5 -8.5t34 -23t23 -34t8.5 -41.5t-8.5 -41.5t-23 -34t-34 -23t-41.5 -8.5z" />
    <glyph glyph-name="Agrave" unicode="&#xc0;" horiz-adv-x="752" 
d="M398 710h144l153 -710h-154l-31 150h-292l-94 -150h-181zM305 288h176l-43 210zM425 770l-96 157h163l40 -157h-107z" />
    <glyph glyph-name="Aacute" unicode="&#xc1;" horiz-adv-x="752" 
d="M398 710h144l153 -710h-154l-31 150h-292l-94 -150h-181zM305 288h176l-43 210zM528 927h169l-155 -157h-114z" />
    <glyph glyph-name="Acircumflex" unicode="&#xc2;" horiz-adv-x="752" 
d="M398 710h144l153 -710h-154l-31 150h-292l-94 -150h-181zM305 288h176l-43 210zM329 878l191 70l161 -76l-33 -111l-146 69l-188 -69z" />
    <glyph glyph-name="Atilde" unicode="&#xc3;" horiz-adv-x="752" 
d="M398 710h144l153 -710h-154l-31 150h-292l-94 -150h-181zM305 288h176l-43 210zM297 804q6 30 21 52t34 36.5t39.5 21.5t38.5 7q24 0 43 -7.5t36 -16t31.5 -16t29.5 -7.5q20 0 33 12t21 36h83l-6 -28q-7 -30 -22 -52t-33.5 -36.5t-39 -21.5t-38.5 -7q-24 0 -43.5 7.5
t-36 16t-31.5 16t-29 7.5q-21 0 -34 -12t-21 -36h-82z" />
    <glyph glyph-name="Adieresis" unicode="&#xc4;" horiz-adv-x="752" 
d="M398 710h144l153 -710h-154l-31 150h-292l-94 -150h-181zM305 288h176l-43 210zM381 768q-17 0 -31.5 6.5t-25.5 17.5t-17.5 25.5t-6.5 30.5q0 34 23.5 57.5t57.5 23.5q16 0 30.5 -6.5t25 -17.5t17 -25.5t6.5 -31.5q0 -16 -6.5 -30.5t-17 -25.5t-25 -17.5t-30.5 -6.5z
M618 768q-17 0 -31.5 6.5t-25 17.5t-17 25.5t-6.5 30.5q0 34 23.5 57.5t56.5 23.5t56.5 -23.5t23.5 -57.5q0 -16 -6.5 -30.5t-17 -25.5t-25.5 -17.5t-31 -6.5z" />
    <glyph glyph-name="Aring" unicode="&#xc5;" horiz-adv-x="752" 
d="M398 710h144l153 -710h-154l-31 150h-292l-94 -150h-181zM305 288h176l-43 210zM504 753q-25 0 -47 9.5t-38.5 26t-26.5 38t-10 46.5t10 46.5t26.5 38t38.5 26t47 9.5t47 -9.5t38.5 -26t26.5 -38t10 -46.5t-10 -46.5t-26.5 -38t-38.5 -26t-47 -9.5zM504 818q23 0 39.5 16
t16.5 39t-16.5 39t-39.5 16t-39.5 -16t-16.5 -39t16.5 -39t39.5 -16z" />
    <glyph glyph-name="AE" unicode="&#xc6;" horiz-adv-x="999" 
d="M478 150h-255l-125 -150h-183l595 710h537l-32 -152h-291l-27 -127h231l-33 -152h-231l-27 -127h291l-32 -152h-450zM507 288l57 269l-225 -269h168z" />
    <glyph glyph-name="Ccedilla" unicode="&#xc7;" horiz-adv-x="795" 
d="M400 -12q-81 0 -144.5 26t-108 71.5t-67.5 106.5t-23 131q0 81 27 153t78.5 127t126.5 87t170 32q69 0 126 -19t100 -53.5t71 -81.5t40 -102h-173q-21 48 -65 75t-111 27q-48 0 -90 -18t-73 -49t-48.5 -73t-17.5 -91q0 -43 12.5 -78.5t36.5 -61.5t60.5 -40.5t84.5 -14.5
q61 0 111 27.5t80 74.5h173q-20 -56 -53.5 -102.5t-81 -81t-108 -53.5t-133.5 -19zM237 -141q15 -8 34.5 -11.5t37.5 -3.5q12 0 24 1.5t21.5 5.5t16 10.5t6.5 16.5q0 13 -10.5 18.5t-27.5 5.5q-8 0 -19.5 -2.5t-22.5 -7.5l-32 19l73 92h66l-38 -48q15 4 25.5 4.5t19.5 0.5
q36 0 55 -19t19 -48q0 -25 -14 -45.5t-36.5 -35.5t-51.5 -23t-59 -8q-22 0 -50 2.5t-51 12.5z" />
    <glyph glyph-name="Egrave" unicode="&#xc8;" horiz-adv-x="571" 
d="M169 710h450l-32 -152h-291l-27 -127h231l-33 -152h-231l-27 -127h291l-32 -152h-450zM345 770l-96 157h163l40 -157h-107z" />
    <glyph glyph-name="Eacute" unicode="&#xc9;" horiz-adv-x="571" 
d="M169 710h450l-32 -152h-291l-27 -127h231l-33 -152h-231l-27 -127h291l-32 -152h-450zM448 927h169l-155 -157h-114z" />
    <glyph glyph-name="Ecircumflex" unicode="&#xca;" horiz-adv-x="571" 
d="M169 710h450l-32 -152h-291l-27 -127h231l-33 -152h-231l-27 -127h291l-32 -152h-450zM249 878l191 70l161 -76l-33 -111l-146 69l-188 -69z" />
    <glyph glyph-name="Edieresis" unicode="&#xcb;" horiz-adv-x="571" 
d="M169 710h450l-32 -152h-291l-27 -127h231l-33 -152h-231l-27 -127h291l-32 -152h-450zM301 768q-17 0 -31.5 6.5t-25.5 17.5t-17.5 25.5t-6.5 30.5q0 34 23.5 57.5t57.5 23.5q16 0 30.5 -6.5t25 -17.5t17 -25.5t6.5 -31.5q0 -16 -6.5 -30.5t-17 -25.5t-25 -17.5
t-30.5 -6.5zM538 768q-17 0 -31.5 6.5t-25 17.5t-17 25.5t-6.5 30.5q0 34 23.5 57.5t56.5 23.5t56.5 -23.5t23.5 -57.5q0 -16 -6.5 -30.5t-17 -25.5t-25.5 -17.5t-31 -6.5z" />
    <glyph glyph-name="Igrave" unicode="&#xcc;" horiz-adv-x="309" 
d="M169 710h159l-151 -710h-159zM203 770l-96 157h163l40 -157h-107z" />
    <glyph glyph-name="Iacute" unicode="&#xcd;" horiz-adv-x="309" 
d="M169 710h159l-151 -710h-159zM306 927h169l-155 -157h-114z" />
    <glyph glyph-name="Icircumflex" unicode="&#xce;" horiz-adv-x="309" 
d="M169 710h159l-151 -710h-159zM107 878l191 70l161 -76l-33 -111l-146 69l-188 -69z" />
    <glyph glyph-name="Idieresis" unicode="&#xcf;" horiz-adv-x="309" 
d="M169 710h159l-151 -710h-159zM159 768q-17 0 -31.5 6.5t-25.5 17.5t-17.5 25.5t-6.5 30.5q0 34 23.5 57.5t57.5 23.5q16 0 30.5 -6.5t25 -17.5t17 -25.5t6.5 -31.5q0 -16 -6.5 -30.5t-17 -25.5t-25 -17.5t-30.5 -6.5zM396 768q-17 0 -31.5 6.5t-25 17.5t-17 25.5
t-6.5 30.5q0 34 23.5 57.5t56.5 23.5t56.5 -23.5t23.5 -57.5q0 -16 -6.5 -30.5t-17 -25.5t-25.5 -17.5t-31 -6.5z" />
    <glyph glyph-name="Eth" unicode="&#xd0;" horiz-adv-x="741" 
d="M303 146q51 0 97.5 16.5t82 47.5t56 75.5t20.5 99.5q0 39 -13 71.5t-37 56.5t-58.5 37.5t-78.5 13.5h-58l-89 -418h78zM185 710h205q75 0 136 -25t104.5 -66.5t67.5 -96.5t24 -115q0 -104 -32.5 -180.5t-90.5 -127t-137 -75t-172 -24.5h-256zM53 427h351l-29 -138h-351z
" />
    <glyph glyph-name="Ntilde" unicode="&#xd1;" horiz-adv-x="792" 
d="M523 0l-249 457l-97 -457h-159l151 710h137l248 -456l97 456h160l-151 -710h-137zM316 804q6 30 21 52t34 36.5t39.5 21.5t38.5 7q24 0 43 -7.5t36 -16t31.5 -16t29.5 -7.5q20 0 33 12t21 36h83l-6 -28q-7 -30 -22 -52t-33.5 -36.5t-39 -21.5t-38.5 -7q-24 0 -43.5 7.5
t-36 16t-31.5 16t-29 7.5q-21 0 -34 -12t-21 -36h-82z" />
    <glyph glyph-name="Ograve" unicode="&#xd2;" horiz-adv-x="822" 
d="M412 142q48 0 90 18t73 49t48.5 73t17.5 91q0 43 -12.5 78.5t-36.5 61.5t-60.5 40.5t-84.5 14.5t-90 -18t-73 -49t-48.5 -73t-17.5 -91q0 -43 12.5 -78.5t36.5 -61.5t60.5 -40.5t84.5 -14.5zM400 -12q-81 0 -144.5 26t-108 71.5t-67.5 106.5t-23 131q0 81 27 153
t78.5 127t126.5 87t170 32q81 0 144.5 -26t108 -71.5t67.5 -106.5t23 -131q0 -81 -27 -153t-78.5 -127t-126.5 -87t-170 -32zM449 770l-96 157h163l40 -157h-107z" />
    <glyph glyph-name="Oacute" unicode="&#xd3;" horiz-adv-x="822" 
d="M412 142q48 0 90 18t73 49t48.5 73t17.5 91q0 43 -12.5 78.5t-36.5 61.5t-60.5 40.5t-84.5 14.5t-90 -18t-73 -49t-48.5 -73t-17.5 -91q0 -43 12.5 -78.5t36.5 -61.5t60.5 -40.5t84.5 -14.5zM400 -12q-81 0 -144.5 26t-108 71.5t-67.5 106.5t-23 131q0 81 27 153
t78.5 127t126.5 87t170 32q81 0 144.5 -26t108 -71.5t67.5 -106.5t23 -131q0 -81 -27 -153t-78.5 -127t-126.5 -87t-170 -32zM552 927h169l-155 -157h-114z" />
    <glyph glyph-name="Ocircumflex" unicode="&#xd4;" horiz-adv-x="822" 
d="M412 142q48 0 90 18t73 49t48.5 73t17.5 91q0 43 -12.5 78.5t-36.5 61.5t-60.5 40.5t-84.5 14.5t-90 -18t-73 -49t-48.5 -73t-17.5 -91q0 -43 12.5 -78.5t36.5 -61.5t60.5 -40.5t84.5 -14.5zM400 -12q-81 0 -144.5 26t-108 71.5t-67.5 106.5t-23 131q0 81 27 153
t78.5 127t126.5 87t170 32q81 0 144.5 -26t108 -71.5t67.5 -106.5t23 -131q0 -81 -27 -153t-78.5 -127t-126.5 -87t-170 -32zM353 878l191 70l161 -76l-33 -111l-146 69l-188 -69z" />
    <glyph glyph-name="Otilde" unicode="&#xd5;" horiz-adv-x="822" 
d="M412 142q48 0 90 18t73 49t48.5 73t17.5 91q0 43 -12.5 78.5t-36.5 61.5t-60.5 40.5t-84.5 14.5t-90 -18t-73 -49t-48.5 -73t-17.5 -91q0 -43 12.5 -78.5t36.5 -61.5t60.5 -40.5t84.5 -14.5zM400 -12q-81 0 -144.5 26t-108 71.5t-67.5 106.5t-23 131q0 81 27 153
t78.5 127t126.5 87t170 32q81 0 144.5 -26t108 -71.5t67.5 -106.5t23 -131q0 -81 -27 -153t-78.5 -127t-126.5 -87t-170 -32zM321 804q6 30 21 52t34 36.5t39.5 21.5t38.5 7q24 0 43 -7.5t36 -16t31.5 -16t29.5 -7.5q20 0 33 12t21 36h83l-6 -28q-7 -30 -22 -52t-33.5 -36.5
t-39 -21.5t-38.5 -7q-24 0 -43.5 7.5t-36 16t-31.5 16t-29 7.5q-21 0 -34 -12t-21 -36h-82z" />
    <glyph glyph-name="Odieresis" unicode="&#xd6;" horiz-adv-x="822" 
d="M412 142q48 0 90 18t73 49t48.5 73t17.5 91q0 43 -12.5 78.5t-36.5 61.5t-60.5 40.5t-84.5 14.5t-90 -18t-73 -49t-48.5 -73t-17.5 -91q0 -43 12.5 -78.5t36.5 -61.5t60.5 -40.5t84.5 -14.5zM400 -12q-81 0 -144.5 26t-108 71.5t-67.5 106.5t-23 131q0 81 27 153
t78.5 127t126.5 87t170 32q81 0 144.5 -26t108 -71.5t67.5 -106.5t23 -131q0 -81 -27 -153t-78.5 -127t-126.5 -87t-170 -32zM405 768q-17 0 -31.5 6.5t-25.5 17.5t-17.5 25.5t-6.5 30.5q0 34 23.5 57.5t57.5 23.5q16 0 30.5 -6.5t25 -17.5t17 -25.5t6.5 -31.5
q0 -16 -6.5 -30.5t-17 -25.5t-25 -17.5t-30.5 -6.5zM642 768q-17 0 -31.5 6.5t-25 17.5t-17 25.5t-6.5 30.5q0 34 23.5 57.5t56.5 23.5t56.5 -23.5t23.5 -57.5q0 -16 -6.5 -30.5t-17 -25.5t-25.5 -17.5t-31 -6.5z" />
    <glyph glyph-name="multiply" unicode="&#xd7;" horiz-adv-x="538" 
d="M61 166l123 123l-123 123l92 92l123 -122l123 122l91 -92l-122 -123l122 -123l-91 -92l-123 122l-123 -122z" />
    <glyph glyph-name="Oslash" unicode="&#xd8;" horiz-adv-x="825" 
d="M413 142q48 0 90 18t73 49t48.5 73t17.5 91q0 43 -12.5 78.5t-36.5 61.5t-60.5 40.5t-84.5 14.5t-90 -18t-73 -49t-48.5 -73t-17.5 -91q0 -43 12.5 -78.5t36.5 -61.5t60.5 -40.5t84.5 -14.5zM401 -12q-81 0 -144.5 26t-108 71.5t-67.5 106.5t-23 131q0 81 27 153
t78.5 127t126.5 87t170 32q81 0 144.5 -26t108 -71.5t67.5 -106.5t23 -131q0 -81 -27 -153t-78.5 -127t-126.5 -87t-170 -32zM67 -18l-75 93l802 653l75 -93z" />
    <glyph glyph-name="Ugrave" unicode="&#xd9;" horiz-adv-x="717" 
d="M653 288q-17 -78 -43.5 -135t-65.5 -93.5t-93.5 -54t-126.5 -17.5q-64 0 -116.5 23.5t-87.5 65.5t-48.5 100t1.5 127l86 406h160l-89 -417q-9 -40 -3.5 -68.5t21 -47t39.5 -27t53 -8.5q59 0 97.5 34t53.5 106l91 428h161zM406 770l-96 157h163l40 -157h-107z" />
    <glyph glyph-name="Uacute" unicode="&#xda;" horiz-adv-x="717" 
d="M653 288q-17 -78 -43.5 -135t-65.5 -93.5t-93.5 -54t-126.5 -17.5q-64 0 -116.5 23.5t-87.5 65.5t-48.5 100t1.5 127l86 406h160l-89 -417q-9 -40 -3.5 -68.5t21 -47t39.5 -27t53 -8.5q59 0 97.5 34t53.5 106l91 428h161zM509 927h169l-155 -157h-114z" />
    <glyph glyph-name="Ucircumflex" unicode="&#xdb;" horiz-adv-x="717" 
d="M653 288q-17 -78 -43.5 -135t-65.5 -93.5t-93.5 -54t-126.5 -17.5q-64 0 -116.5 23.5t-87.5 65.5t-48.5 100t1.5 127l86 406h160l-89 -417q-9 -40 -3.5 -68.5t21 -47t39.5 -27t53 -8.5q59 0 97.5 34t53.5 106l91 428h161zM310 878l191 70l161 -76l-33 -111l-146 69
l-188 -69z" />
    <glyph glyph-name="Udieresis" unicode="&#xdc;" horiz-adv-x="717" 
d="M653 288q-17 -78 -43.5 -135t-65.5 -93.5t-93.5 -54t-126.5 -17.5q-64 0 -116.5 23.5t-87.5 65.5t-48.5 100t1.5 127l86 406h160l-89 -417q-9 -40 -3.5 -68.5t21 -47t39.5 -27t53 -8.5q59 0 97.5 34t53.5 106l91 428h161zM362 768q-17 0 -31.5 6.5t-25.5 17.5t-17.5 25.5
t-6.5 30.5q0 34 23.5 57.5t57.5 23.5q16 0 30.5 -6.5t25 -17.5t17 -25.5t6.5 -31.5q0 -16 -6.5 -30.5t-17 -25.5t-25 -17.5t-30.5 -6.5zM599 768q-17 0 -31.5 6.5t-25 17.5t-17 25.5t-6.5 30.5q0 34 23.5 57.5t56.5 23.5t56.5 -23.5t23.5 -57.5q0 -16 -6.5 -30.5t-17 -25.5
t-25.5 -17.5t-31 -6.5z" />
    <glyph glyph-name="Yacute" unicode="&#xdd;" horiz-adv-x="695" 
d="M274 298l-171 412h165l103 -263l216 263h194l-347 -412l-63 -298h-160zM485 927h169l-155 -157h-114z" />
    <glyph glyph-name="Thorn" unicode="&#xde;" horiz-adv-x="606" 
d="M169 710h159l-24 -112h43q54 0 99 -17.5t77.5 -47t50.5 -69t18 -83.5q0 -53 -17 -101.5t-53 -85.5t-93.5 -59t-138.5 -22h-89l-24 -113h-159zM316 262q24 0 45.5 8t37.5 22t25 32.5t9 40.5q0 16 -5 31t-16 26.5t-28.5 18.5t-43.5 7h-68l-40 -186h84z" />
    <glyph glyph-name="germandbls" unicode="&#xdf;" horiz-adv-x="595" 
d="M130 567q21 99 86.5 144t162.5 45q46 0 85.5 -14t69 -39.5t46 -62t16.5 -80.5q0 -57 -25 -107t-84 -81q38 -28 54.5 -65t16.5 -72q0 -52 -19 -95.5t-52.5 -74.5t-80.5 -48t-103 -17h-71l29 136h27q54 0 87 26t33 74q0 35 -23 59.5t-67 24.5h-15l28 135h13q45 0 72 25.5
t27 67.5q0 30 -20 51t-55 21q-40 0 -63 -23t-31 -61l-113 -536h-152z" />
    <glyph glyph-name="agrave" unicode="&#xe0;" horiz-adv-x="617" 
d="M224 -8q-43 0 -78.5 17.5t-60.5 47.5t-38.5 70t-13.5 86q0 65 20 120t54.5 94.5t81.5 61.5t101 22q31 0 57 -8t45.5 -19t32.5 -24.5t19 -23.5l13 64h151l-106 -500h-151l8 39q-17 -15 -49 -31t-86 -16zM281 122q28 0 51.5 11.5t40.5 31t26.5 46t9.5 57.5q0 48 -24.5 77
t-72.5 29q-28 0 -51.5 -11.5t-40.5 -31t-26.5 -46t-9.5 -57.5q0 -48 24.5 -77t72.5 -29zM326 560l-72 190h161l8 -190h-97z" />
    <glyph glyph-name="aacute" unicode="&#xe1;" horiz-adv-x="617" 
d="M224 -8q-43 0 -78.5 17.5t-60.5 47.5t-38.5 70t-13.5 86q0 65 20 120t54.5 94.5t81.5 61.5t101 22q31 0 57 -8t45.5 -19t32.5 -24.5t19 -23.5l13 64h151l-106 -500h-151l8 39q-17 -15 -49 -31t-86 -16zM281 122q28 0 51.5 11.5t40.5 31t26.5 46t9.5 57.5q0 48 -24.5 77
t-72.5 29q-28 0 -51.5 -11.5t-40.5 -31t-26.5 -46t-9.5 -57.5q0 -48 24.5 -77t72.5 -29zM475 750h179l-214 -190h-115z" />
    <glyph glyph-name="acircumflex" unicode="&#xe2;" horiz-adv-x="617" 
d="M224 -8q-43 0 -78.5 17.5t-60.5 47.5t-38.5 70t-13.5 86q0 65 20 120t54.5 94.5t81.5 61.5t101 22q31 0 57 -8t45.5 -19t32.5 -24.5t19 -23.5l13 64h151l-106 -500h-151l8 39q-17 -15 -49 -31t-86 -16zM281 122q28 0 51.5 11.5t40.5 31t26.5 46t9.5 57.5q0 48 -24.5 77
t-72.5 29q-28 0 -51.5 -11.5t-40.5 -31t-26.5 -46t-9.5 -57.5q0 -48 24.5 -77t72.5 -29zM579 649l-30 -108l-143 99l-217 -99l34 125l199 90z" />
    <glyph glyph-name="atilde" unicode="&#xe3;" horiz-adv-x="617" 
d="M224 -8q-43 0 -78.5 17.5t-60.5 47.5t-38.5 70t-13.5 86q0 65 20 120t54.5 94.5t81.5 61.5t101 22q31 0 57 -8t45.5 -19t32.5 -24.5t19 -23.5l13 64h151l-106 -500h-151l8 39q-17 -15 -49 -31t-86 -16zM281 122q28 0 51.5 11.5t40.5 31t26.5 46t9.5 57.5q0 48 -24.5 77
t-72.5 29q-28 0 -51.5 -11.5t-40.5 -31t-26.5 -46t-9.5 -57.5q0 -48 24.5 -77t72.5 -29zM603 711l-8 -28q-17 -59 -52.5 -88t-84.5 -29q-24 0 -42.5 7.5t-33.5 16t-28 16t-26 7.5q-20 0 -32 -12.5t-21 -35.5h-88l8 28q17 59 52.5 88t84.5 29q24 0 42.5 -7.5t33.5 -16t28 -16
t26 -7.5q20 0 32 12.5t21 35.5h88z" />
    <glyph glyph-name="adieresis" unicode="&#xe4;" horiz-adv-x="617" 
d="M224 -8q-43 0 -78.5 17.5t-60.5 47.5t-38.5 70t-13.5 86q0 65 20 120t54.5 94.5t81.5 61.5t101 22q31 0 57 -8t45.5 -19t32.5 -24.5t19 -23.5l13 64h151l-106 -500h-151l8 39q-17 -15 -49 -31t-86 -16zM281 122q28 0 51.5 11.5t40.5 31t26.5 46t9.5 57.5q0 48 -24.5 77
t-72.5 29q-28 0 -51.5 -11.5t-40.5 -31t-26.5 -46t-9.5 -57.5q0 -48 24.5 -77t72.5 -29zM279 572q-17 0 -31.5 6.5t-25.5 17t-17.5 25t-6.5 30.5q0 34 23.5 57.5t57.5 23.5q16 0 30.5 -6.5t25 -17.5t17 -25.5t6.5 -31.5q0 -32 -23.5 -55.5t-55.5 -23.5zM516 572
q-33 0 -56.5 23.5t-23.5 55.5q0 34 23.5 57.5t56.5 23.5t56.5 -23.5t23.5 -57.5q0 -32 -23.5 -55.5t-56.5 -23.5z" />
    <glyph glyph-name="aring" unicode="&#xe5;" horiz-adv-x="617" 
d="M224 -8q-43 0 -78.5 17.5t-60.5 47.5t-38.5 70t-13.5 86q0 65 20 120t54.5 94.5t81.5 61.5t101 22q31 0 57 -8t45.5 -19t32.5 -24.5t19 -23.5l13 64h151l-106 -500h-151l8 39q-17 -15 -49 -31t-86 -16zM281 122q28 0 51.5 11.5t40.5 31t26.5 46t9.5 57.5q0 48 -24.5 77
t-72.5 29q-28 0 -51.5 -11.5t-40.5 -31t-26.5 -46t-9.5 -57.5q0 -48 24.5 -77t72.5 -29zM401 543q-25 0 -47 9.5t-38.5 26t-26.5 38t-10 46.5t10 46.5t26.5 38t38.5 26t47 9.5t47 -9.5t38.5 -26t26.5 -38t10 -46.5t-10 -46.5t-26.5 -38t-38.5 -26t-47 -9.5zM401 608
q23 0 39.5 16t16.5 39t-16.5 39t-39.5 16t-39.5 -16t-16.5 -39t16.5 -39t39.5 -16z" />
    <glyph glyph-name="ae" unicode="&#xe6;" horiz-adv-x="914" 
d="M596 -11q-62 0 -109 22t-78 59q-33 -40 -85 -60.5t-109 -20.5q-48 0 -86 11.5t-64 32t-39.5 48.5t-13.5 60q1 74 66 112t200 52q54 6 73 12.5t19 27.5q0 22 -22 33t-49 11q-15 0 -30 -3t-27.5 -10t-21 -18.5t-9.5 -29.5h-150q5 42 26.5 75.5t54.5 57t73.5 36t84.5 12.5
q49 0 90 -14t67 -40q35 26 80.5 41t101.5 15t104.5 -21t82 -59.5t48 -93.5t2.5 -122h-382q5 -44 37.5 -70t73.5 -26q34 0 60 12.5t40 34.5h160q-39 -95 -108.5 -136t-160.5 -41zM350 226q-30 -8 -62.5 -15t-57.5 -13q-35 -8 -50.5 -20t-15.5 -32q0 -23 20 -33.5t50 -10.5
q15 0 32.5 4t32.5 13t26 22.5t15 33.5zM623 391q-37 0 -72.5 -20t-49.5 -60h224q-3 22 -13.5 37t-24.5 24.5t-31 14t-33 4.5z" />
    <glyph glyph-name="ccedilla" unicode="&#xe7;" horiz-adv-x="583" 
d="M273 -11q-59 0 -104 20t-75 53t-45.5 75.5t-15.5 88.5q0 60 20.5 112.5t58 90.5t90.5 60t117 22q54 0 96.5 -16.5t72 -45t47 -66t22.5 -78.5h-156q-10 30 -34 49.5t-60 19.5q-26 0 -48.5 -11t-39 -29.5t-25.5 -43t-9 -51.5q0 -50 26 -82.5t74 -32.5q35 0 63.5 20.5
t43.5 50.5h157q-11 -45 -34 -83t-57.5 -65.5t-80.5 -42.5t-104 -15zM132 -141q18 -8 40.5 -11.5t36.5 -3.5q10 0 21 1.5t20.5 5.5t15.5 10.5t6 17.5q0 13 -10.5 18t-27.5 5q-8 0 -19.5 -2.5t-22.5 -7.5l-32 19l71 92h68l-38 -50q24 7 48 7q32 0 51.5 -17t19.5 -48
q0 -24 -11 -45t-31.5 -36t-49 -24t-64.5 -9q-26 0 -54 3t-52 12z" />
    <glyph glyph-name="egrave" unicode="&#xe8;" horiz-adv-x="594" 
d="M276 -11q-58 0 -103 20t-76 53t-47.5 76t-16.5 89q0 61 19.5 113t56.5 90t90 59.5t120 21.5q56 0 104.5 -21t82 -59.5t48 -93.5t2.5 -122h-382q5 -44 37.5 -70t73.5 -26q34 0 60 12.5t40 34.5h160q-39 -95 -108.5 -136t-160.5 -41zM303 391q-37 0 -72.5 -20t-49.5 -60
h224q-3 22 -13.5 37t-24.5 24.5t-31 14t-33 4.5zM293 560l-72 190h161l8 -190h-97z" />
    <glyph glyph-name="eacute" unicode="&#xe9;" horiz-adv-x="594" 
d="M276 -11q-58 0 -103 20t-76 53t-47.5 76t-16.5 89q0 61 19.5 113t56.5 90t90 59.5t120 21.5q56 0 104.5 -21t82 -59.5t48 -93.5t2.5 -122h-382q5 -44 37.5 -70t73.5 -26q34 0 60 12.5t40 34.5h160q-39 -95 -108.5 -136t-160.5 -41zM303 391q-37 0 -72.5 -20t-49.5 -60
h224q-3 22 -13.5 37t-24.5 24.5t-31 14t-33 4.5zM442 750h179l-214 -190h-115z" />
    <glyph glyph-name="ecircumflex" unicode="&#xea;" horiz-adv-x="594" 
d="M276 -11q-58 0 -103 20t-76 53t-47.5 76t-16.5 89q0 61 19.5 113t56.5 90t90 59.5t120 21.5q56 0 104.5 -21t82 -59.5t48 -93.5t2.5 -122h-382q5 -44 37.5 -70t73.5 -26q34 0 60 12.5t40 34.5h160q-39 -95 -108.5 -136t-160.5 -41zM303 391q-37 0 -72.5 -20t-49.5 -60
h224q-3 22 -13.5 37t-24.5 24.5t-31 14t-33 4.5zM546 649l-30 -108l-143 99l-217 -99l34 125l199 90z" />
    <glyph glyph-name="edieresis" unicode="&#xeb;" horiz-adv-x="594" 
d="M276 -11q-58 0 -103 20t-76 53t-47.5 76t-16.5 89q0 61 19.5 113t56.5 90t90 59.5t120 21.5q56 0 104.5 -21t82 -59.5t48 -93.5t2.5 -122h-382q5 -44 37.5 -70t73.5 -26q34 0 60 12.5t40 34.5h160q-39 -95 -108.5 -136t-160.5 -41zM303 391q-37 0 -72.5 -20t-49.5 -60
h224q-3 22 -13.5 37t-24.5 24.5t-31 14t-33 4.5zM246 572q-17 0 -31.5 6.5t-25.5 17t-17.5 25t-6.5 30.5q0 34 23.5 57.5t57.5 23.5q16 0 30.5 -6.5t25 -17.5t17 -25.5t6.5 -31.5q0 -32 -23.5 -55.5t-55.5 -23.5zM483 572q-33 0 -56.5 23.5t-23.5 55.5q0 34 23.5 57.5
t56.5 23.5t56.5 -23.5t23.5 -57.5q0 -32 -23.5 -55.5t-56.5 -23.5z" />
    <glyph glyph-name="igrave" unicode="&#xec;" horiz-adv-x="275" 
d="M115 500h151l-106 -500h-151zM150 560l-72 190h161l8 -190h-97z" />
    <glyph glyph-name="iacute" unicode="&#xed;" horiz-adv-x="275" 
d="M115 500h151l-106 -500h-151zM299 750h179l-214 -190h-115z" />
    <glyph glyph-name="icircumflex" unicode="&#xee;" horiz-adv-x="275" 
d="M115 500h151l-106 -500h-151zM403 649l-30 -108l-143 99l-217 -99l34 125l199 90z" />
    <glyph glyph-name="idieresis" unicode="&#xef;" horiz-adv-x="275" 
d="M115 500h151l-106 -500h-151zM128 572q-33 0 -56.5 23.5t-23.5 55.5q0 33 23.5 56.5t56.5 23.5q32 0 55.5 -23.5t23.5 -56.5q0 -32 -23.5 -55.5t-55.5 -23.5zM315 572q-32 0 -55.5 23.5t-23.5 55.5q0 33 23.5 56.5t55.5 23.5q33 0 56.5 -23.5t23.5 -56.5
q0 -32 -23.5 -55.5t-56.5 -23.5z" />
    <glyph glyph-name="eth" unicode="&#xf0;" horiz-adv-x="594" 
d="M532 399q12 -28 20 -61t8 -65q0 -60 -20.5 -112.5t-58 -90.5t-90.5 -60t-117 -22q-60 0 -105 20t-75 53t-45 76t-15 89q0 60 20.5 112.5t58 90.5t90.5 60t117 22h4l-22 49h-146l21 96h83l-42 94h158l42 -94h111l-21 -96h-48zM287 129q26 0 48.5 10t38.5 28t25 42t9 51
q0 50 -26.5 80t-74.5 30q-26 0 -48.5 -10t-38.5 -28t-25 -42t-9 -51q0 -50 26.5 -80t74.5 -30z" />
    <glyph glyph-name="ntilde" unicode="&#xf1;" horiz-adv-x="600" 
d="M115 500h151l-10 -49q23 24 60 41.5t83 17.5q48 0 81 -20.5t52 -54t24 -75t-4 -83.5l-59 -277h-151l56 265q11 51 -6.5 80.5t-58.5 29.5q-45 0 -76 -31t-45 -99l-52 -245h-151zM593 711l-8 -28q-17 -59 -52.5 -88t-84.5 -29q-24 0 -42.5 7.5t-33.5 16t-28 16t-26 7.5
q-20 0 -32 -12.5t-21 -35.5h-88l8 28q17 59 52.5 88t84.5 29q24 0 42.5 -7.5t33.5 -16t28 -16t26 -7.5q20 0 32 12.5t21 35.5h88z" />
    <glyph glyph-name="ograve" unicode="&#xf2;" horiz-adv-x="592" 
d="M286 129q26 0 48.5 10t38.5 28t25 42t9 51q0 50 -26.5 80t-74.5 30q-26 0 -48.5 -10t-38.5 -28t-25 -42t-9 -51q0 -50 26.5 -80t74.5 -30zM273 -12q-60 0 -105 20t-75 53t-45 76t-15 89q0 60 20.5 112.5t58 90.5t90.5 60t117 22q60 0 105 -20t75 -53t45 -76t15 -89
q0 -60 -20.5 -112.5t-58 -90.5t-90.5 -60t-117 -22zM309 560l-72 190h161l8 -190h-97z" />
    <glyph glyph-name="oacute" unicode="&#xf3;" horiz-adv-x="592" 
d="M286 129q26 0 48.5 10t38.5 28t25 42t9 51q0 50 -26.5 80t-74.5 30q-26 0 -48.5 -10t-38.5 -28t-25 -42t-9 -51q0 -50 26.5 -80t74.5 -30zM273 -12q-60 0 -105 20t-75 53t-45 76t-15 89q0 60 20.5 112.5t58 90.5t90.5 60t117 22q60 0 105 -20t75 -53t45 -76t15 -89
q0 -60 -20.5 -112.5t-58 -90.5t-90.5 -60t-117 -22zM458 750h179l-214 -190h-115z" />
    <glyph glyph-name="ocircumflex" unicode="&#xf4;" horiz-adv-x="592" 
d="M286 129q26 0 48.5 10t38.5 28t25 42t9 51q0 50 -26.5 80t-74.5 30q-26 0 -48.5 -10t-38.5 -28t-25 -42t-9 -51q0 -50 26.5 -80t74.5 -30zM273 -12q-60 0 -105 20t-75 53t-45 76t-15 89q0 60 20.5 112.5t58 90.5t90.5 60t117 22q60 0 105 -20t75 -53t45 -76t15 -89
q0 -60 -20.5 -112.5t-58 -90.5t-90.5 -60t-117 -22zM562 649l-30 -108l-143 99l-217 -99l34 125l199 90z" />
    <glyph glyph-name="otilde" unicode="&#xf5;" horiz-adv-x="592" 
d="M286 129q26 0 48.5 10t38.5 28t25 42t9 51q0 50 -26.5 80t-74.5 30q-26 0 -48.5 -10t-38.5 -28t-25 -42t-9 -51q0 -50 26.5 -80t74.5 -30zM273 -12q-60 0 -105 20t-75 53t-45 76t-15 89q0 60 20.5 112.5t58 90.5t90.5 60t117 22q60 0 105 -20t75 -53t45 -76t15 -89
q0 -60 -20.5 -112.5t-58 -90.5t-90.5 -60t-117 -22zM586 711l-8 -28q-17 -59 -52.5 -88t-84.5 -29q-24 0 -42.5 7.5t-33.5 16t-28 16t-26 7.5q-20 0 -32 -12.5t-21 -35.5h-88l8 28q17 59 52.5 88t84.5 29q24 0 42.5 -7.5t33.5 -16t28 -16t26 -7.5q20 0 32 12.5t21 35.5h88z
" />
    <glyph glyph-name="odieresis" unicode="&#xf6;" horiz-adv-x="592" 
d="M286 129q26 0 48.5 10t38.5 28t25 42t9 51q0 50 -26.5 80t-74.5 30q-26 0 -48.5 -10t-38.5 -28t-25 -42t-9 -51q0 -50 26.5 -80t74.5 -30zM273 -12q-60 0 -105 20t-75 53t-45 76t-15 89q0 60 20.5 112.5t58 90.5t90.5 60t117 22q60 0 105 -20t75 -53t45 -76t15 -89
q0 -60 -20.5 -112.5t-58 -90.5t-90.5 -60t-117 -22zM262 572q-17 0 -31.5 6.5t-25.5 17t-17.5 25t-6.5 30.5q0 34 23.5 57.5t57.5 23.5q16 0 30.5 -6.5t25 -17.5t17 -25.5t6.5 -31.5q0 -32 -23.5 -55.5t-55.5 -23.5zM499 572q-33 0 -56.5 23.5t-23.5 55.5q0 34 23.5 57.5
t56.5 23.5t56.5 -23.5t23.5 -57.5q0 -32 -23.5 -55.5t-56.5 -23.5z" />
    <glyph glyph-name="oslash" unicode="&#xf8;" horiz-adv-x="594" 
d="M287 129q26 0 48.5 10t38.5 28t25 42t9 51q0 50 -26.5 80t-74.5 30q-26 0 -48.5 -10t-38.5 -28t-25 -42t-9 -51q0 -50 26.5 -80t74.5 -30zM274 -12q-60 0 -105 20t-75 53t-45 76t-15 89q0 60 20.5 112.5t58 90.5t90.5 60t117 22q60 0 105 -20t75 -53t45 -76t15 -89
q0 -60 -20.5 -112.5t-58 -90.5t-90.5 -60t-117 -22zM28 -11l-43 52l582 470l43 -52z" />
    <glyph glyph-name="ugrave" unicode="&#xf9;" horiz-adv-x="589" 
d="M203 -10q-45 0 -78.5 21t-53 54.5t-26 75t2.5 82.5l59 277h151l-58 -275q-10 -46 7.5 -72t55.5 -26q88 0 113 122l53 251h151l-106 -500h-151l10 49q-20 -25 -52 -42t-78 -17zM303 560l-72 190h161l8 -190h-97z" />
    <glyph glyph-name="uacute" unicode="&#xfa;" horiz-adv-x="589" 
d="M203 -10q-45 0 -78.5 21t-53 54.5t-26 75t2.5 82.5l59 277h151l-58 -275q-10 -46 7.5 -72t55.5 -26q88 0 113 122l53 251h151l-106 -500h-151l10 49q-20 -25 -52 -42t-78 -17zM452 750h179l-214 -190h-115z" />
    <glyph glyph-name="ucircumflex" unicode="&#xfb;" horiz-adv-x="589" 
d="M203 -10q-45 0 -78.5 21t-53 54.5t-26 75t2.5 82.5l59 277h151l-58 -275q-10 -46 7.5 -72t55.5 -26q88 0 113 122l53 251h151l-106 -500h-151l10 49q-20 -25 -52 -42t-78 -17zM556 649l-30 -108l-143 99l-217 -99l34 125l199 90z" />
    <glyph glyph-name="udieresis" unicode="&#xfc;" horiz-adv-x="589" 
d="M203 -10q-45 0 -78.5 21t-53 54.5t-26 75t2.5 82.5l59 277h151l-58 -275q-10 -46 7.5 -72t55.5 -26q88 0 113 122l53 251h151l-106 -500h-151l10 49q-20 -25 -52 -42t-78 -17zM256 572q-17 0 -31.5 6.5t-25.5 17t-17.5 25t-6.5 30.5q0 34 23.5 57.5t57.5 23.5
q16 0 30.5 -6.5t25 -17.5t17 -25.5t6.5 -31.5q0 -32 -23.5 -55.5t-55.5 -23.5zM493 572q-33 0 -56.5 23.5t-23.5 55.5q0 34 23.5 57.5t56.5 23.5t56.5 -23.5t23.5 -57.5q0 -32 -23.5 -55.5t-56.5 -23.5z" />
    <glyph glyph-name="yacute" unicode="&#xfd;" horiz-adv-x="574" 
d="M159 31l-107 469h149l62 -315l196 315h171l-462 -709h-166zM439 750h179l-214 -190h-115z" />
    <glyph glyph-name="thorn" unicode="&#xfe;" horiz-adv-x="616" 
d="M167 750h151l-60 -289q17 15 49 31t86 16q43 0 78.5 -17.5t60.5 -47.5t38.5 -70t13.5 -86q0 -65 -20 -120t-54.5 -94.5t-81.5 -61.5t-101 -22q-32 0 -57.5 8t-45 19t-32.5 24t-19 24l-57 -273h-151zM305 126q28 0 51.5 11.5t40.5 31t26.5 46t9.5 57.5q0 48 -24.5 77
t-72.5 29q-28 0 -51.5 -11.5t-40.5 -31t-26.5 -46t-9.5 -57.5q0 -48 24.5 -77t72.5 -29z" />
    <glyph glyph-name="ydieresis" unicode="&#xff;" horiz-adv-x="574" 
d="M159 31l-107 469h149l62 -315l196 315h171l-462 -709h-166zM243 572q-17 0 -31.5 6.5t-25.5 17t-17.5 25t-6.5 30.5q0 34 23.5 57.5t57.5 23.5q16 0 30.5 -6.5t25 -17.5t17 -25.5t6.5 -31.5q0 -32 -23.5 -55.5t-55.5 -23.5zM480 572q-33 0 -56.5 23.5t-23.5 55.5
q0 34 23.5 57.5t56.5 23.5t56.5 -23.5t23.5 -57.5q0 -32 -23.5 -55.5t-56.5 -23.5z" />
    <glyph glyph-name="Abreve" unicode="&#x102;" horiz-adv-x="752" 
d="M398 710h144l153 -710h-154l-31 150h-292l-94 -150h-181zM305 288h176l-43 210zM498 747q-37 0 -69.5 12.5t-55.5 36t-33.5 57t-1.5 74.5h83q-8 -50 15.5 -72.5t65.5 -22.5t69 24t37 71h86q-11 -85 -63.5 -132.5t-132.5 -47.5z" />
    <glyph glyph-name="Amacron" unicode="&#x100;" horiz-adv-x="752" 
d="M398 710h144l153 -710h-154l-31 150h-292l-94 -150h-181zM305 288h176l-43 210zM335 891h348l-22 -104h-348z" />
    <glyph glyph-name="Aogonek" unicode="&#x104;" horiz-adv-x="752" 
d="M398 710h144l153 -710q-49 -18 -76 -39.5t-27 -40.5q0 -14 9.5 -19.5t23.5 -5.5q13 0 27.5 3t22.5 8l-21 -97q-14 -9 -41 -18.5t-65 -9.5q-45 0 -74.5 23t-29.5 66q0 40 26.5 76.5t70.5 53.5l-31 150h-292l-94 -150h-181zM305 288h176l-43 210z" />
    <glyph glyph-name="Cacute" unicode="&#x106;" horiz-adv-x="795" 
d="M400 -12q-81 0 -144.5 26t-108 71.5t-67.5 106.5t-23 131q0 81 27 153t78.5 127t126.5 87t170 32q69 0 126 -19t100 -53.5t71 -81.5t40 -102h-173q-21 48 -65 75t-111 27q-48 0 -90 -18t-73 -49t-48.5 -73t-17.5 -91q0 -43 12.5 -78.5t36.5 -61.5t60.5 -40.5t84.5 -14.5
q61 0 111 27.5t80 74.5h173q-20 -56 -53.5 -102.5t-81 -81t-108 -53.5t-133.5 -19zM541 927h169l-155 -157h-114z" />
    <glyph glyph-name="Ccaron" unicode="&#x10c;" horiz-adv-x="795" 
d="M400 -12q-81 0 -144.5 26t-108 71.5t-67.5 106.5t-23 131q0 81 27 153t78.5 127t126.5 87t170 32q69 0 126 -19t100 -53.5t71 -81.5t40 -102h-173q-21 48 -65 75t-111 27q-48 0 -90 -18t-73 -49t-48.5 -73t-17.5 -91q0 -43 12.5 -78.5t36.5 -61.5t60.5 -40.5t84.5 -14.5
q61 0 111 27.5t80 74.5h173q-20 -56 -53.5 -102.5t-81 -81t-108 -53.5t-133.5 -19zM686 831l-191 -70l-161 76l33 111l146 -69l188 69z" />
    <glyph glyph-name="Ccircumflex" unicode="&#x108;" horiz-adv-x="795" 
d="M400 -12q-81 0 -144.5 26t-108 71.5t-67.5 106.5t-23 131q0 81 27 153t78.5 127t126.5 87t170 32q69 0 126 -19t100 -53.5t71 -81.5t40 -102h-173q-21 48 -65 75t-111 27q-48 0 -90 -18t-73 -49t-48.5 -73t-17.5 -91q0 -43 12.5 -78.5t36.5 -61.5t60.5 -40.5t84.5 -14.5
q61 0 111 27.5t80 74.5h173q-20 -56 -53.5 -102.5t-81 -81t-108 -53.5t-133.5 -19zM342 878l191 70l161 -76l-33 -111l-146 69l-188 -69z" />
    <glyph glyph-name="Cdotaccent" unicode="&#x10a;" horiz-adv-x="795" 
d="M400 -12q-81 0 -144.5 26t-108 71.5t-67.5 106.5t-23 131q0 81 27 153t78.5 127t126.5 87t170 32q69 0 126 -19t100 -53.5t71 -81.5t40 -102h-173q-21 48 -65 75t-111 27q-48 0 -90 -18t-73 -49t-48.5 -73t-17.5 -91q0 -43 12.5 -78.5t36.5 -61.5t60.5 -40.5t84.5 -14.5
q61 0 111 27.5t80 74.5h173q-20 -56 -53.5 -102.5t-81 -81t-108 -53.5t-133.5 -19zM513 768q-17 0 -31.5 6.5t-25.5 17.5t-17.5 25.5t-6.5 30.5q0 34 23.5 57.5t57.5 23.5q33 0 56.5 -23.5t23.5 -57.5q0 -16 -6.5 -30.5t-17 -25.5t-25.5 -17.5t-31 -6.5z" />
    <glyph glyph-name="Dcaron" unicode="&#x10e;" horiz-adv-x="725" 
d="M287 146q51 0 97.5 16.5t82 47.5t56 75.5t20.5 99.5q0 39 -13 71.5t-37 56.5t-58.5 37.5t-78.5 13.5h-58l-89 -418h78zM169 710h205q75 0 136 -25t104.5 -66.5t67.5 -96.5t24 -115q0 -104 -32.5 -180.5t-90.5 -127t-137 -75t-172 -24.5h-256zM599 831l-191 -70l-161 76
l33 111l146 -69l188 69z" />
    <glyph glyph-name="Dcroat" unicode="&#x110;" horiz-adv-x="741" 
d="M303 146q51 0 97.5 16.5t82 47.5t56 75.5t20.5 99.5q0 39 -13 71.5t-37 56.5t-58.5 37.5t-78.5 13.5h-58l-89 -418h78zM185 710h205q75 0 136 -25t104.5 -66.5t67.5 -96.5t24 -115q0 -104 -32.5 -180.5t-90.5 -127t-137 -75t-172 -24.5h-256zM53 427h351l-29 -138h-351z
" />
    <glyph glyph-name="Ebreve" unicode="&#x114;" horiz-adv-x="571" 
d="M169 710h450l-32 -152h-291l-27 -127h231l-33 -152h-231l-27 -127h291l-32 -152h-450zM418 747q-37 0 -69.5 12.5t-55.5 36t-33.5 57t-1.5 74.5h83q-8 -50 15.5 -72.5t65.5 -22.5t69 24t37 71h86q-11 -85 -63.5 -132.5t-132.5 -47.5z" />
    <glyph glyph-name="Ecaron" unicode="&#x11a;" horiz-adv-x="571" 
d="M169 710h450l-32 -152h-291l-27 -127h231l-33 -152h-231l-27 -127h291l-32 -152h-450zM593 831l-191 -70l-161 76l33 111l146 -69l188 69z" />
    <glyph glyph-name="Emacron" unicode="&#x112;" horiz-adv-x="571" 
d="M169 710h450l-32 -152h-291l-27 -127h231l-33 -152h-231l-27 -127h291l-32 -152h-450zM255 891h348l-22 -104h-348z" />
    <glyph glyph-name="Eogonek" unicode="&#x118;" horiz-adv-x="571" 
d="M169 710h450l-32 -152h-291l-27 -127h231l-33 -152h-231l-27 -127h291l-32 -152h-450zM321 -219q-45 0 -74.5 23t-29.5 66q0 40 25 74t67 56h159q-49 -18 -76 -39.5t-27 -40.5q0 -14 9.5 -19.5t23.5 -5.5q13 0 27.5 3t22.5 8l-21 -97q-14 -9 -41 -18.5t-65 -9.5z" />
    <glyph glyph-name="Edotaccent" unicode="&#x116;" horiz-adv-x="571" 
d="M169 710h450l-32 -152h-291l-27 -127h231l-33 -152h-231l-27 -127h291l-32 -152h-450zM420 768q-17 0 -31.5 6.5t-25.5 17.5t-17.5 25.5t-6.5 30.5q0 34 23.5 57.5t57.5 23.5q33 0 56.5 -23.5t23.5 -57.5q0 -16 -6.5 -30.5t-17 -25.5t-25.5 -17.5t-31 -6.5z" />
    <glyph glyph-name="Gbreve" unicode="&#x11e;" horiz-adv-x="818" 
d="M413 -12q-82 0 -147.5 26t-111.5 72t-71 107.5t-25 133.5q0 79 26 150.5t76.5 126t125 86.5t171.5 32q64 0 117 -16.5t94 -46t70.5 -70.5t46.5 -89h-182q-56 68 -154 68q-51 0 -93.5 -17.5t-72.5 -48t-47 -72t-17 -89.5q0 -44 13.5 -81t40 -63t64 -40.5t85.5 -14.5
q76 0 123.5 33.5t73.5 105.5h-221l32 149h361q1 -11 1.5 -21.5t0.5 -21.5q0 -85 -21.5 -158t-67 -126.5t-117.5 -84t-174 -30.5zM504 747q-37 0 -69.5 12.5t-55.5 36t-33.5 57t-1.5 74.5h83q-8 -50 15.5 -72.5t65.5 -22.5t69 24t37 71h86q-11 -85 -63.5 -132.5t-132.5 -47.5
z" />
    <glyph glyph-name="Gcircumflex" unicode="&#x11c;" horiz-adv-x="818" 
d="M413 -12q-82 0 -147.5 26t-111.5 72t-71 107.5t-25 133.5q0 79 26 150.5t76.5 126t125 86.5t171.5 32q64 0 117 -16.5t94 -46t70.5 -70.5t46.5 -89h-182q-56 68 -154 68q-51 0 -93.5 -17.5t-72.5 -48t-47 -72t-17 -89.5q0 -44 13.5 -81t40 -63t64 -40.5t85.5 -14.5
q76 0 123.5 33.5t73.5 105.5h-221l32 149h361q1 -11 1.5 -21.5t0.5 -21.5q0 -85 -21.5 -158t-67 -126.5t-117.5 -84t-174 -30.5zM335 878l191 70l161 -76l-33 -111l-146 69l-188 -69z" />
    <glyph glyph-name="uni0122" unicode="&#x122;" horiz-adv-x="818" 
d="M413 -12q-82 0 -147.5 26t-111.5 72t-71 107.5t-25 133.5q0 79 26 150.5t76.5 126t125 86.5t171.5 32q64 0 117 -16.5t94 -46t70.5 -70.5t46.5 -89h-182q-56 68 -154 68q-51 0 -93.5 -17.5t-72.5 -48t-47 -72t-17 -89.5q0 -44 13.5 -81t40 -63t64 -40.5t85.5 -14.5
q76 0 123.5 33.5t73.5 105.5h-221l32 149h361q1 -11 1.5 -21.5t0.5 -21.5q0 -85 -21.5 -158t-67 -126.5t-117.5 -84t-174 -30.5zM336 -316h-64l61 100q-18 11 -29 29t-11 40q0 33 23.5 56.5t57.5 23.5q33 0 56.5 -23.5t23.5 -56.5q0 -29 -19 -51z" />
    <glyph glyph-name="Gdotaccent" unicode="&#x120;" horiz-adv-x="818" 
d="M413 -12q-82 0 -147.5 26t-111.5 72t-71 107.5t-25 133.5q0 79 26 150.5t76.5 126t125 86.5t171.5 32q64 0 117 -16.5t94 -46t70.5 -70.5t46.5 -89h-182q-56 68 -154 68q-51 0 -93.5 -17.5t-72.5 -48t-47 -72t-17 -89.5q0 -44 13.5 -81t40 -63t64 -40.5t85.5 -14.5
q76 0 123.5 33.5t73.5 105.5h-221l32 149h361q1 -11 1.5 -21.5t0.5 -21.5q0 -85 -21.5 -158t-67 -126.5t-117.5 -84t-174 -30.5zM506 768q-17 0 -31.5 6.5t-25.5 17.5t-17.5 25.5t-6.5 30.5q0 34 23.5 57.5t57.5 23.5q33 0 56.5 -23.5t23.5 -57.5q0 -16 -6.5 -30.5
t-17 -25.5t-25.5 -17.5t-31 -6.5z" />
    <glyph glyph-name="Hbar" unicode="&#x126;" horiz-adv-x="787" 
d="M186 710h159l-59 -278h286l59 278h159l-151 -710h-159l60 281h-286l-60 -281h-159zM96 626h748l-23 -108h-748z" />
    <glyph glyph-name="Hcircumflex" unicode="&#x124;" horiz-adv-x="754" 
d="M169 710h159l-59 -278h286l59 278h159l-151 -710h-159l60 281h-286l-60 -281h-159zM329 878l191 70l161 -76l-33 -111l-146 69l-188 -69z" />
    <glyph glyph-name="Ibreve" unicode="&#x12c;" horiz-adv-x="309" 
d="M169 710h159l-151 -710h-159zM276 747q-37 0 -69.5 12.5t-55.5 36t-33.5 57t-1.5 74.5h83q-8 -50 15.5 -72.5t65.5 -22.5t69 24t37 71h86q-11 -85 -63.5 -132.5t-132.5 -47.5z" />
    <glyph glyph-name="Idotaccent" unicode="&#x130;" horiz-adv-x="309" 
d="M169 710h159l-151 -710h-159zM278 768q-17 0 -31.5 6.5t-25.5 17.5t-17.5 25.5t-6.5 30.5q0 34 23.5 57.5t57.5 23.5q33 0 56.5 -23.5t23.5 -57.5q0 -16 -6.5 -30.5t-17 -25.5t-25.5 -17.5t-31 -6.5z" />
    <glyph glyph-name="Imacron" unicode="&#x12a;" horiz-adv-x="309" 
d="M169 710h159l-151 -710h-159zM113 891h348l-22 -104h-348z" />
    <glyph glyph-name="Iogonek" unicode="&#x12e;" horiz-adv-x="309" 
d="M169 710h159l-151 -710h-159zM30 -219q-45 0 -74.5 23t-29.5 66q0 40 25 74t67 56h159q-49 -18 -76 -39.5t-27 -40.5q0 -14 9.5 -19.5t23.5 -5.5q13 0 27.5 3t22.5 8l-21 -97q-14 -9 -41 -18.5t-65 -9.5z" />
    <glyph glyph-name="Itilde" unicode="&#x128;" horiz-adv-x="309" 
d="M169 710h159l-151 -710h-159zM75 804q6 30 21 52t34 36.5t39.5 21.5t38.5 7q24 0 43 -7.5t36 -16t31.5 -16t29.5 -7.5q20 0 33 12t21 36h83l-6 -28q-7 -30 -22 -52t-33.5 -36.5t-39 -21.5t-38.5 -7q-24 0 -43.5 7.5t-36 16t-31.5 16t-29 7.5q-21 0 -34 -12t-21 -36h-82z
" />
    <glyph glyph-name="uni1ECA" unicode="&#x1eca;" horiz-adv-x="309" 
d="M169 710h159l-151 -710h-159zM68 -227q-34 0 -57.5 23.5t-23.5 56.5t23.5 56.5t57.5 23.5q33 0 56.5 -23.5t23.5 -56.5t-23.5 -56.5t-56.5 -23.5z" />
    <glyph glyph-name="Jcircumflex" unicode="&#x134;" horiz-adv-x="539" 
d="M403 710h159l-114 -536q-21 -98 -79 -142t-146 -44q-41 0 -83.5 12t-76.5 38.5t-54 68.5t-15 101h157q-1 -20 5 -33.5t16.5 -22t23.5 -12.5t25 -4q28 0 47.5 16.5t26.5 47.5zM341 878l191 70l161 -76l-33 -111l-146 69l-188 -69z" />
    <glyph glyph-name="uni0136" unicode="&#x136;" horiz-adv-x="696" 
d="M244 320l-68 -320h-158l151 710h158l-65 -303l303 303h198l-357 -357l263 -353h-186zM261 -316h-64l61 100q-18 11 -29 29t-11 40q0 33 23.5 56.5t57.5 23.5q33 0 56.5 -23.5t23.5 -56.5q0 -29 -19 -51z" />
    <glyph glyph-name="Lacute" unicode="&#x139;" horiz-adv-x="543" 
d="M169 710h159l-119 -558h294l-32 -152h-453zM309 927h169l-155 -157h-114z" />
    <glyph glyph-name="Lcaron" unicode="&#x13d;" horiz-adv-x="545" 
d="M169 710h159l-119 -558h294l-32 -152h-453zM419 750h151l-103 -160h-102z" />
    <glyph glyph-name="uni013B" unicode="&#x13b;" horiz-adv-x="543" 
d="M169 710h159l-119 -558h294l-32 -152h-453zM177 -316h-64l61 100q-18 11 -29 29t-11 40q0 33 23.5 56.5t57.5 23.5q33 0 56.5 -23.5t23.5 -56.5q0 -29 -19 -51z" />
    <glyph glyph-name="Ldot" unicode="&#x13f;" horiz-adv-x="550" 
d="M169 710h159l-119 -558h294l-32 -152h-453zM459 351q-34 0 -57.5 23.5t-23.5 56.5q0 34 23.5 57.5t57.5 23.5q33 0 56.5 -23.5t23.5 -57.5q0 -33 -23.5 -56.5t-56.5 -23.5z" />
    <glyph glyph-name="Lslash" unicode="&#x141;" horiz-adv-x="573" 
d="M199 710h159l-119 -558h294l-32 -152h-453zM22 213l27 129l403 201l-27 -129z" />
    <glyph glyph-name="Eng" unicode="&#x14a;" horiz-adv-x="792" 
d="M441 -219q-37 0 -67 7t-49 15l31 145q16 -7 33.5 -11t33.5 -4q34 0 51.5 18t26.5 59l5 23l-232 425l-97 -458h-159l151 710h137l248 -456l97 456h160l-162 -760q-9 -42 -29 -73.5t-47.5 -52.5t-61 -32t-70.5 -11z" />
    <glyph glyph-name="Nacute" unicode="&#x143;" horiz-adv-x="792" 
d="M523 0l-249 457l-97 -457h-159l151 710h137l248 -456l97 456h160l-151 -710h-137zM547 927h169l-155 -157h-114z" />
    <glyph glyph-name="Ncaron" unicode="&#x147;" horiz-adv-x="792" 
d="M523 0l-249 457l-97 -457h-159l151 710h137l248 -456l97 456h160l-151 -710h-137zM692 831l-191 -70l-161 76l33 111l146 -69l188 69z" />
    <glyph glyph-name="uni0145" unicode="&#x145;" horiz-adv-x="792" 
d="M523 0l-249 457l-97 -457h-159l151 710h137l248 -456l97 456h160l-151 -710h-137zM271 -316h-64l61 100q-18 11 -29 29t-11 40q0 33 23.5 56.5t57.5 23.5q33 0 56.5 -23.5t23.5 -56.5q0 -29 -19 -51z" />
    <glyph glyph-name="OE" unicode="&#x152;" horiz-adv-x="1104" 
d="M556 26q-36 -17 -78 -27.5t-91 -10.5q-75 0 -135.5 26t-104 71.5t-67 106.5t-23.5 131q0 81 27 153t78.5 127t126.5 87t170 32q75 0 132 -24t95 -63l16 75h450l-32 -152h-291l-27 -127h231l-33 -152h-231l-27 -127h291l-32 -152h-450zM412 142q48 0 90 18t73 49t48.5 73
t17.5 91q0 43 -12.5 78.5t-36.5 61.5t-60.5 40.5t-84.5 14.5t-90 -18t-73 -49t-48.5 -73t-17.5 -91q0 -43 12.5 -78.5t36.5 -61.5t60.5 -40.5t84.5 -14.5z" />
    <glyph glyph-name="Obreve" unicode="&#x14e;" horiz-adv-x="822" 
d="M412 142q48 0 90 18t73 49t48.5 73t17.5 91q0 43 -12.5 78.5t-36.5 61.5t-60.5 40.5t-84.5 14.5t-90 -18t-73 -49t-48.5 -73t-17.5 -91q0 -43 12.5 -78.5t36.5 -61.5t60.5 -40.5t84.5 -14.5zM400 -12q-81 0 -144.5 26t-108 71.5t-67.5 106.5t-23 131q0 81 27 153
t78.5 127t126.5 87t170 32q81 0 144.5 -26t108 -71.5t67.5 -106.5t23 -131q0 -81 -27 -153t-78.5 -127t-126.5 -87t-170 -32zM522 747q-37 0 -69.5 12.5t-55.5 36t-33.5 57t-1.5 74.5h83q-8 -50 15.5 -72.5t65.5 -22.5t69 24t37 71h86q-11 -85 -63.5 -132.5t-132.5 -47.5z
" />
    <glyph glyph-name="Ohungarumlaut" unicode="&#x150;" horiz-adv-x="822" 
d="M412 142q48 0 90 18t73 49t48.5 73t17.5 91q0 43 -12.5 78.5t-36.5 61.5t-60.5 40.5t-84.5 14.5t-90 -18t-73 -49t-48.5 -73t-17.5 -91q0 -43 12.5 -78.5t36.5 -61.5t60.5 -40.5t84.5 -14.5zM400 -12q-81 0 -144.5 26t-108 71.5t-67.5 106.5t-23 131q0 81 27 153
t78.5 127t126.5 87t170 32q81 0 144.5 -26t108 -71.5t67.5 -106.5t23 -131q0 -81 -27 -153t-78.5 -127t-126.5 -87t-170 -32zM634 927h159l-158 -157h-100zM447 927h160l-158 -157h-100z" />
    <glyph glyph-name="Omacron" unicode="&#x14c;" horiz-adv-x="822" 
d="M412 142q48 0 90 18t73 49t48.5 73t17.5 91q0 43 -12.5 78.5t-36.5 61.5t-60.5 40.5t-84.5 14.5t-90 -18t-73 -49t-48.5 -73t-17.5 -91q0 -43 12.5 -78.5t36.5 -61.5t60.5 -40.5t84.5 -14.5zM400 -12q-81 0 -144.5 26t-108 71.5t-67.5 106.5t-23 131q0 81 27 153
t78.5 127t126.5 87t170 32q81 0 144.5 -26t108 -71.5t67.5 -106.5t23 -131q0 -81 -27 -153t-78.5 -127t-126.5 -87t-170 -32zM359 891h348l-22 -104h-348z" />
    <glyph glyph-name="uni1ECC" unicode="&#x1ecc;" horiz-adv-x="822" 
d="M412 142q48 0 90 18t73 49t48.5 73t17.5 91q0 43 -12.5 78.5t-36.5 61.5t-60.5 40.5t-84.5 14.5t-90 -18t-73 -49t-48.5 -73t-17.5 -91q0 -43 12.5 -78.5t36.5 -61.5t60.5 -40.5t84.5 -14.5zM400 -12q-81 0 -144.5 26t-108 71.5t-67.5 106.5t-23 131q0 81 27 153
t78.5 127t126.5 87t170 32q81 0 144.5 -26t108 -71.5t67.5 -106.5t23 -131q0 -81 -27 -153t-78.5 -127t-126.5 -87t-170 -32zM332 -227q-34 0 -57.5 23.5t-23.5 56.5t23.5 56.5t57.5 23.5q33 0 56.5 -23.5t23.5 -56.5t-23.5 -56.5t-56.5 -23.5z" />
    <glyph glyph-name="Racute" unicode="&#x154;" horiz-adv-x="658" 
d="M169 710h240q54 0 95.5 -15t69 -40t41.5 -58t14 -69q0 -38 -9.5 -74t-31.5 -66.5t-58 -53.5t-90 -34l190 -300h-176l-185 293h-30l-62 -293h-159zM375 428q42 0 67 21.5t25 53.5q0 25 -17 43t-55 18h-98l-29 -136h107zM453 927h169l-155 -157h-114z" />
    <glyph glyph-name="Rcaron" unicode="&#x158;" horiz-adv-x="658" 
d="M169 710h240q54 0 95.5 -15t69 -40t41.5 -58t14 -69q0 -38 -9.5 -74t-31.5 -66.5t-58 -53.5t-90 -34l190 -300h-176l-185 293h-30l-62 -293h-159zM375 428q42 0 67 21.5t25 53.5q0 25 -17 43t-55 18h-98l-29 -136h107zM598 831l-191 -70l-161 76l33 111l146 -69l188 69z
" />
    <glyph glyph-name="uni0156" unicode="&#x156;" horiz-adv-x="658" 
d="M169 710h240q54 0 95.5 -15t69 -40t41.5 -58t14 -69q0 -38 -9.5 -74t-31.5 -66.5t-58 -53.5t-90 -34l190 -300h-176l-185 293h-30l-62 -293h-159zM375 428q42 0 67 21.5t25 53.5q0 25 -17 43t-55 18h-98l-29 -136h107zM239 -316h-64l61 100q-18 11 -29 29t-11 40
q0 33 23.5 56.5t57.5 23.5q33 0 56.5 -23.5t23.5 -56.5q0 -29 -19 -51z" />
    <glyph glyph-name="Sacute" unicode="&#x15a;" horiz-adv-x="591" 
d="M291 -12q-73 0 -125.5 22t-85.5 56.5t-48 77.5t-14 84h159q4 -42 37 -67.5t81 -25.5q38 0 60.5 19t22.5 45q0 31 -21 50t-69 38l-36 14q-32 12 -59.5 31t-48 44.5t-32.5 58t-12 71.5q0 45 18 84.5t51 69t78.5 46t100.5 16.5q60 0 106 -20t77 -51.5t47 -71.5t16 -79h-158
q-7 38 -35.5 56.5t-61.5 18.5q-32 0 -55 -15.5t-23 -43.5t20 -44.5t55 -30.5l51 -20q75 -29 114 -84.5t39 -131.5q0 -48 -17.5 -87.5t-49.5 -68.5t-78.5 -45t-103.5 -16zM442 927h169l-155 -157h-114z" />
    <glyph glyph-name="Scaron" unicode="&#x160;" horiz-adv-x="591" 
d="M291 -12q-73 0 -125.5 22t-85.5 56.5t-48 77.5t-14 84h159q4 -42 37 -67.5t81 -25.5q38 0 60.5 19t22.5 45q0 31 -21 50t-69 38l-36 14q-32 12 -59.5 31t-48 44.5t-32.5 58t-12 71.5q0 45 18 84.5t51 69t78.5 46t100.5 16.5q60 0 106 -20t77 -51.5t47 -71.5t16 -79h-158
q-7 38 -35.5 56.5t-61.5 18.5q-32 0 -55 -15.5t-23 -43.5t20 -44.5t55 -30.5l51 -20q75 -29 114 -84.5t39 -131.5q0 -48 -17.5 -87.5t-49.5 -68.5t-78.5 -45t-103.5 -16zM587 831l-191 -70l-161 76l33 111l146 -69l188 69z" />
    <glyph glyph-name="Scedilla" unicode="&#x15e;" horiz-adv-x="591" 
d="M291 -12q-73 0 -125.5 22t-85.5 56.5t-48 77.5t-14 84h159q4 -42 37 -67.5t81 -25.5q38 0 60.5 19t22.5 45q0 31 -21 50t-69 38l-36 14q-32 12 -59.5 31t-48 44.5t-32.5 58t-12 71.5q0 45 18 84.5t51 69t78.5 46t100.5 16.5q60 0 106 -20t77 -51.5t47 -71.5t16 -79h-158
q-7 38 -35.5 56.5t-61.5 18.5q-32 0 -55 -15.5t-23 -43.5t20 -44.5t55 -30.5l51 -20q75 -29 114 -84.5t39 -131.5q0 -48 -17.5 -87.5t-49.5 -68.5t-78.5 -45t-103.5 -16zM139 -141q15 -8 34.5 -11.5t37.5 -3.5q12 0 24 1.5t21.5 5.5t16 10.5t6.5 16.5q0 13 -10.5 18.5
t-27.5 5.5q-8 0 -19.5 -2.5t-22.5 -7.5l-32 19l73 92h66l-38 -48q15 4 25.5 4.5t19.5 0.5q36 0 55 -19t19 -48q0 -25 -14 -45.5t-36.5 -35.5t-51.5 -23t-59 -8q-22 0 -50 2.5t-51 12.5z" />
    <glyph glyph-name="Scircumflex" unicode="&#x15c;" horiz-adv-x="591" 
d="M291 -12q-73 0 -125.5 22t-85.5 56.5t-48 77.5t-14 84h159q4 -42 37 -67.5t81 -25.5q38 0 60.5 19t22.5 45q0 31 -21 50t-69 38l-36 14q-32 12 -59.5 31t-48 44.5t-32.5 58t-12 71.5q0 45 18 84.5t51 69t78.5 46t100.5 16.5q60 0 106 -20t77 -51.5t47 -71.5t16 -79h-158
q-7 38 -35.5 56.5t-61.5 18.5q-32 0 -55 -15.5t-23 -43.5t20 -44.5t55 -30.5l51 -20q75 -29 114 -84.5t39 -131.5q0 -48 -17.5 -87.5t-49.5 -68.5t-78.5 -45t-103.5 -16zM243 878l191 70l161 -76l-33 -111l-146 69l-188 -69z" />
    <glyph glyph-name="uni0218" unicode="&#x218;" horiz-adv-x="591" 
d="M291 -12q-73 0 -125.5 22t-85.5 56.5t-48 77.5t-14 84h159q4 -42 37 -67.5t81 -25.5q38 0 60.5 19t22.5 45q0 31 -21 50t-69 38l-36 14q-32 12 -59.5 31t-48 44.5t-32.5 58t-12 71.5q0 45 18 84.5t51 69t78.5 46t100.5 16.5q60 0 106 -20t77 -51.5t47 -71.5t16 -79h-158
q-7 38 -35.5 56.5t-61.5 18.5q-32 0 -55 -15.5t-23 -43.5t20 -44.5t55 -30.5l51 -20q75 -29 114 -84.5t39 -131.5q0 -48 -17.5 -87.5t-49.5 -68.5t-78.5 -45t-103.5 -16zM212 -316h-64l61 100q-18 11 -29 29t-11 40q0 33 23.5 56.5t57.5 23.5q33 0 56.5 -23.5t23.5 -56.5
q0 -29 -19 -51z" />
    <glyph glyph-name="Tbar" unicode="&#x166;" horiz-adv-x="582" 
d="M271 558h-181l32 152h524l-32 -152h-183l-119 -558h-160zM107 426h431l-29 -138h-431z" />
    <glyph glyph-name="Tcaron" unicode="&#x164;" horiz-adv-x="559" 
d="M260 558h-181l32 152h524l-32 -152h-183l-119 -558h-160zM575 831l-191 -70l-161 76l33 111l146 -69l188 69z" />
    <glyph glyph-name="uni0162" unicode="&#x162;" horiz-adv-x="559" 
d="M260 558h-181l32 152h524l-32 -152h-183l-119 -558h-160zM153 -316h-64l61 100q-18 11 -29 29t-11 40q0 33 23.5 56.5t57.5 23.5q33 0 56.5 -23.5t23.5 -56.5q0 -29 -19 -51z" />
    <glyph glyph-name="uni021A" unicode="&#x21a;" horiz-adv-x="559" 
d="M260 558h-181l32 152h524l-32 -152h-183l-119 -558h-160zM153 -316h-64l61 100q-18 11 -29 29t-11 40q0 33 23.5 56.5t57.5 23.5q33 0 56.5 -23.5t23.5 -56.5q0 -29 -19 -51z" />
    <glyph glyph-name="Ubreve" unicode="&#x16c;" horiz-adv-x="717" 
d="M653 288q-17 -78 -43.5 -135t-65.5 -93.5t-93.5 -54t-126.5 -17.5q-64 0 -116.5 23.5t-87.5 65.5t-48.5 100t1.5 127l86 406h160l-89 -417q-9 -40 -3.5 -68.5t21 -47t39.5 -27t53 -8.5q59 0 97.5 34t53.5 106l91 428h161zM479 747q-37 0 -69.5 12.5t-55.5 36t-33.5 57
t-1.5 74.5h83q-8 -50 15.5 -72.5t65.5 -22.5t69 24t37 71h86q-11 -85 -63.5 -132.5t-132.5 -47.5z" />
    <glyph glyph-name="Uhungarumlaut" unicode="&#x170;" horiz-adv-x="717" 
d="M653 288q-17 -78 -43.5 -135t-65.5 -93.5t-93.5 -54t-126.5 -17.5q-64 0 -116.5 23.5t-87.5 65.5t-48.5 100t1.5 127l86 406h160l-89 -417q-9 -40 -3.5 -68.5t21 -47t39.5 -27t53 -8.5q59 0 97.5 34t53.5 106l91 428h161zM591 927h159l-158 -157h-100zM404 927h160
l-158 -157h-100z" />
    <glyph glyph-name="Umacron" unicode="&#x16a;" horiz-adv-x="717" 
d="M653 288q-17 -78 -43.5 -135t-65.5 -93.5t-93.5 -54t-126.5 -17.5q-64 0 -116.5 23.5t-87.5 65.5t-48.5 100t1.5 127l86 406h160l-89 -417q-9 -40 -3.5 -68.5t21 -47t39.5 -27t53 -8.5q59 0 97.5 34t53.5 106l91 428h161zM316 891h348l-22 -104h-348z" />
    <glyph glyph-name="Uogonek" unicode="&#x172;" horiz-adv-x="717" 
d="M314 -219q-45 0 -74.5 23t-29.5 66q0 32 16.5 62t57.5 60q-63 8 -108.5 37t-72.5 71.5t-34.5 95t4.5 108.5l86 406h160l-89 -417q-9 -40 -3.5 -68.5t21 -47t39.5 -27t53 -8.5q59 0 97.5 34t53.5 106l91 428h161l-90 -422q-14 -65 -31.5 -109.5t-40 -75.5t-50.5 -52
t-63 -38q-17 -8 -36 -18t-35.5 -21.5t-27.5 -25t-11 -28.5q0 -14 9.5 -19.5t23.5 -5.5q13 0 27.5 3t22.5 8l-21 -97q-14 -9 -41 -18.5t-65 -9.5z" />
    <glyph glyph-name="Uring" unicode="&#x16e;" horiz-adv-x="717" 
d="M653 288q-17 -78 -43.5 -135t-65.5 -93.5t-93.5 -54t-126.5 -17.5q-64 0 -116.5 23.5t-87.5 65.5t-48.5 100t1.5 127l86 406h160l-89 -417q-9 -40 -3.5 -68.5t21 -47t39.5 -27t53 -8.5q59 0 97.5 34t53.5 106l91 428h161zM485 753q-25 0 -47 9.5t-38.5 26t-26.5 38
t-10 46.5t10 46.5t26.5 38t38.5 26t47 9.5t47 -9.5t38.5 -26t26.5 -38t10 -46.5t-10 -46.5t-26.5 -38t-38.5 -26t-47 -9.5zM485 818q23 0 39.5 16t16.5 39t-16.5 39t-39.5 16t-39.5 -16t-16.5 -39t16.5 -39t39.5 -16z" />
    <glyph glyph-name="Utilde" unicode="&#x168;" horiz-adv-x="717" 
d="M653 288q-17 -78 -43.5 -135t-65.5 -93.5t-93.5 -54t-126.5 -17.5q-64 0 -116.5 23.5t-87.5 65.5t-48.5 100t1.5 127l86 406h160l-89 -417q-9 -40 -3.5 -68.5t21 -47t39.5 -27t53 -8.5q59 0 97.5 34t53.5 106l91 428h161zM278 804q6 30 21 52t34 36.5t39.5 21.5t38.5 7
q24 0 43 -7.5t36 -16t31.5 -16t29.5 -7.5q20 0 33 12t21 36h83l-6 -28q-7 -30 -22 -52t-33.5 -36.5t-39 -21.5t-38.5 -7q-24 0 -43.5 7.5t-36 16t-31.5 16t-29 7.5q-21 0 -34 -12t-21 -36h-82z" />
    <glyph glyph-name="uni1EE4" unicode="&#x1ee4;" horiz-adv-x="717" 
d="M653 288q-17 -78 -43.5 -135t-65.5 -93.5t-93.5 -54t-126.5 -17.5q-64 0 -116.5 23.5t-87.5 65.5t-48.5 100t1.5 127l86 406h160l-89 -417q-9 -40 -3.5 -68.5t21 -47t39.5 -27t53 -8.5q59 0 97.5 34t53.5 106l91 428h161zM270 -227q-34 0 -57.5 23.5t-23.5 56.5
t23.5 56.5t57.5 23.5q33 0 56.5 -23.5t23.5 -56.5t-23.5 -56.5t-56.5 -23.5z" />
    <glyph glyph-name="Wacute" unicode="&#x1e82;" horiz-adv-x="969" 
d="M507 342l-231 -342h-151l-13 710h167l1 -441l300 453l97 -460l192 448h176l-316 -710h-151zM635 927h169l-155 -157h-114z" />
    <glyph glyph-name="Wcircumflex" unicode="&#x174;" horiz-adv-x="969" 
d="M507 342l-231 -342h-151l-13 710h167l1 -441l300 453l97 -460l192 448h176l-316 -710h-151zM436 878l191 70l161 -76l-33 -111l-146 69l-188 -69z" />
    <glyph glyph-name="Wdieresis" unicode="&#x1e84;" horiz-adv-x="969" 
d="M507 342l-231 -342h-151l-13 710h167l1 -441l300 453l97 -460l192 448h176l-316 -710h-151zM488 768q-17 0 -31.5 6.5t-25.5 17.5t-17.5 25.5t-6.5 30.5q0 34 23.5 57.5t57.5 23.5q16 0 30.5 -6.5t25 -17.5t17 -25.5t6.5 -31.5q0 -16 -6.5 -30.5t-17 -25.5t-25 -17.5
t-30.5 -6.5zM725 768q-17 0 -31.5 6.5t-25 17.5t-17 25.5t-6.5 30.5q0 34 23.5 57.5t56.5 23.5t56.5 -23.5t23.5 -57.5q0 -16 -6.5 -30.5t-17 -25.5t-25.5 -17.5t-31 -6.5z" />
    <glyph glyph-name="Wgrave" unicode="&#x1e80;" horiz-adv-x="969" 
d="M507 342l-231 -342h-151l-13 710h167l1 -441l300 453l97 -460l192 448h176l-316 -710h-151zM532 770l-96 157h163l40 -157h-107z" />
    <glyph glyph-name="Ycircumflex" unicode="&#x176;" horiz-adv-x="695" 
d="M274 298l-171 412h165l103 -263l216 263h194l-347 -412l-63 -298h-160zM286 878l191 70l161 -76l-33 -111l-146 69l-188 -69z" />
    <glyph glyph-name="Ydieresis" unicode="&#x178;" horiz-adv-x="695" 
d="M274 298l-171 412h165l103 -263l216 263h194l-347 -412l-63 -298h-160zM338 768q-17 0 -31.5 6.5t-25.5 17.5t-17.5 25.5t-6.5 30.5q0 34 23.5 57.5t57.5 23.5q16 0 30.5 -6.5t25 -17.5t17 -25.5t6.5 -31.5q0 -16 -6.5 -30.5t-17 -25.5t-25 -17.5t-30.5 -6.5zM575 768
q-17 0 -31.5 6.5t-25 17.5t-17 25.5t-6.5 30.5q0 34 23.5 57.5t56.5 23.5t56.5 -23.5t23.5 -57.5q0 -16 -6.5 -30.5t-17 -25.5t-25.5 -17.5t-31 -6.5z" />
    <glyph glyph-name="Ygrave" unicode="&#x1ef2;" horiz-adv-x="695" 
d="M274 298l-171 412h165l103 -263l216 263h194l-347 -412l-63 -298h-160zM382 770l-96 157h163l40 -157h-107z" />
    <glyph glyph-name="uni0232" unicode="&#x232;" horiz-adv-x="695" 
d="M274 298l-171 412h165l103 -263l216 263h194l-347 -412l-63 -298h-160zM292 891h348l-22 -104h-348z" />
    <glyph glyph-name="Zacute" unicode="&#x179;" horiz-adv-x="623" 
d="M4 109l407 449h-306l32 152h537l-23 -109l-408 -449h318l-32 -152h-548zM463 927h169l-155 -157h-114z" />
    <glyph glyph-name="Zcaron" unicode="&#x17d;" horiz-adv-x="623" 
d="M4 109l407 449h-306l32 152h537l-23 -109l-408 -449h318l-32 -152h-548zM608 831l-191 -70l-161 76l33 111l146 -69l188 69z" />
    <glyph glyph-name="Zdotaccent" unicode="&#x17b;" horiz-adv-x="623" 
d="M4 109l407 449h-306l32 152h537l-23 -109l-408 -449h318l-32 -152h-548zM435 768q-17 0 -31.5 6.5t-25.5 17.5t-17.5 25.5t-6.5 30.5q0 34 23.5 57.5t57.5 23.5q33 0 56.5 -23.5t23.5 -57.5q0 -16 -6.5 -30.5t-17 -25.5t-25.5 -17.5t-31 -6.5z" />
    <glyph glyph-name="uni1E9E" unicode="&#x1e9e;" horiz-adv-x="659" 
d="M169 710h496l-23 -108l-129 -161q52 -22 78 -67t26 -99q0 -63 -20.5 -114t-60.5 -86.5t-97.5 -55t-132.5 -19.5h-58l32 152h43q57 0 92.5 27t35.5 81q0 37 -25 60.5t-62 23.5h-43l23 108l90 113h-137l-120 -565h-159z" />
    <glyph glyph-name="uni018F" unicode="&#x18f;" horiz-adv-x="818" 
d="M396 -12q-81 0 -144.5 26t-108 71.5t-67.5 106.5t-23 131q0 26 1 43t6 41h575q-9 71 -57.5 116t-134.5 45q-49 0 -91 -18t-73 -50h-186q22 49 56 89.5t79.5 70t102 46t124.5 16.5q81 0 144.5 -26t108 -71.5t67.5 -106.5t23 -131q0 -81 -27 -153t-78.5 -127t-126.5 -87
t-170 -32zM408 142q68 0 122 34t82 91h-389q17 -60 66.5 -92.5t118.5 -32.5z" />
    <glyph glyph-name="abreve" unicode="&#x103;" horiz-adv-x="617" 
d="M224 -8q-43 0 -78.5 17.5t-60.5 47.5t-38.5 70t-13.5 86q0 65 20 120t54.5 94.5t81.5 61.5t101 22q31 0 57 -8t45.5 -19t32.5 -24.5t19 -23.5l13 64h151l-106 -500h-151l8 39q-17 -15 -49 -31t-86 -16zM281 122q28 0 51.5 11.5t40.5 31t26.5 46t9.5 57.5q0 48 -24.5 77
t-72.5 29q-28 0 -51.5 -11.5t-40.5 -31t-26.5 -46t-9.5 -57.5q0 -48 24.5 -77t72.5 -29zM395 546q-41 0 -74.5 15.5t-55.5 42.5t-30 63t2 77h86q-7 -29 -3 -50t15.5 -35t29 -20.5t36.5 -6.5t36.5 6t32 18.5t24 34t13.5 53.5h86q0 -41 -13.5 -77t-38.5 -63t-61.5 -42.5
t-84.5 -15.5z" />
    <glyph glyph-name="amacron" unicode="&#x101;" horiz-adv-x="617" 
d="M224 -8q-43 0 -78.5 17.5t-60.5 47.5t-38.5 70t-13.5 86q0 65 20 120t54.5 94.5t81.5 61.5t101 22q31 0 57 -8t45.5 -19t32.5 -24.5t19 -23.5l13 64h151l-106 -500h-151l8 39q-17 -15 -49 -31t-86 -16zM281 122q28 0 51.5 11.5t40.5 31t26.5 46t9.5 57.5q0 48 -24.5 77
t-72.5 29q-28 0 -51.5 -11.5t-40.5 -31t-26.5 -46t-9.5 -57.5q0 -48 24.5 -77t72.5 -29zM237 710h348l-22 -104h-348z" />
    <glyph glyph-name="aogonek" unicode="&#x105;" horiz-adv-x="617" 
d="M224 -8q-43 0 -78.5 17.5t-60.5 47.5t-38.5 70t-13.5 86q0 65 20 120t54.5 94.5t81.5 61.5t101 22q31 0 57 -8t45.5 -19t32.5 -24.5t19 -23.5l13 64h151l-106 -500h-151l8 39q-17 -15 -49 -31t-86 -16zM281 122q28 0 51.5 11.5t40.5 31t26.5 46t9.5 57.5q0 48 -24.5 77
t-72.5 29q-28 0 -51.5 -11.5t-40.5 -31t-26.5 -46t-9.5 -57.5q0 -48 24.5 -77t72.5 -29zM361 -219q-23 0 -41.5 7t-32 19t-21 28t-7.5 34q0 38 24.5 73t67.5 58h151q-49 -18 -77 -41t-28 -46q0 -14 8.5 -20.5t22.5 -6.5t29 4.5t23 9.5l-19 -90q-14 -9 -40 -19t-60 -10z" />
    <glyph glyph-name="cacute" unicode="&#x107;" horiz-adv-x="583" 
d="M273 -11q-59 0 -104 20t-75 53t-45.5 75.5t-15.5 88.5q0 60 20.5 112.5t58 90.5t90.5 60t117 22q54 0 96.5 -16.5t72 -45t47 -66t22.5 -78.5h-156q-10 30 -34 49.5t-60 19.5q-26 0 -48.5 -11t-39 -29.5t-25.5 -43t-9 -51.5q0 -50 26 -82.5t74 -32.5q35 0 63.5 20.5
t43.5 50.5h157q-11 -45 -34 -83t-57.5 -65.5t-80.5 -42.5t-104 -15zM455 750h179l-214 -190h-115z" />
    <glyph glyph-name="ccaron" unicode="&#x10d;" horiz-adv-x="583" 
d="M273 -11q-59 0 -104 20t-75 53t-45.5 75.5t-15.5 88.5q0 60 20.5 112.5t58 90.5t90.5 60t117 22q54 0 96.5 -16.5t72 -45t47 -66t22.5 -78.5h-156q-10 30 -34 49.5t-60 19.5q-26 0 -48.5 -11t-39 -29.5t-25.5 -43t-9 -51.5q0 -50 26 -82.5t74 -32.5q35 0 63.5 20.5
t43.5 50.5h157q-11 -45 -34 -83t-57.5 -65.5t-80.5 -42.5t-104 -15zM197 648l30 108l143 -99l217 99l-34 -125l-199 -90z" />
    <glyph glyph-name="ccircumflex" unicode="&#x109;" horiz-adv-x="583" 
d="M273 -11q-59 0 -104 20t-75 53t-45.5 75.5t-15.5 88.5q0 60 20.5 112.5t58 90.5t90.5 60t117 22q54 0 96.5 -16.5t72 -45t47 -66t22.5 -78.5h-156q-10 30 -34 49.5t-60 19.5q-26 0 -48.5 -11t-39 -29.5t-25.5 -43t-9 -51.5q0 -50 26 -82.5t74 -32.5q35 0 63.5 20.5
t43.5 50.5h157q-11 -45 -34 -83t-57.5 -65.5t-80.5 -42.5t-104 -15zM559 649l-30 -108l-143 99l-217 -99l34 125l199 90z" />
    <glyph glyph-name="cdotaccent" unicode="&#x10b;" horiz-adv-x="583" 
d="M273 -11q-59 0 -104 20t-75 53t-45.5 75.5t-15.5 88.5q0 60 20.5 112.5t58 90.5t90.5 60t117 22q54 0 96.5 -16.5t72 -45t47 -66t22.5 -78.5h-156q-10 30 -34 49.5t-60 19.5q-26 0 -48.5 -11t-39 -29.5t-25.5 -43t-9 -51.5q0 -50 26 -82.5t74 -32.5q35 0 63.5 20.5
t43.5 50.5h157q-11 -45 -34 -83t-57.5 -65.5t-80.5 -42.5t-104 -15zM379 572q-17 0 -31.5 6.5t-25.5 17t-17.5 25t-6.5 30.5q0 34 23.5 57.5t57.5 23.5q33 0 56.5 -23.5t23.5 -57.5q0 -32 -23.5 -55.5t-56.5 -23.5z" />
    <glyph glyph-name="dcaron" unicode="&#x10f;" horiz-adv-x="626" 
d="M224 -11q-43 0 -78.5 17.5t-60.5 47.5t-38.5 70t-13.5 86q0 65 20 120t54.5 94.5t81.5 61.5t101 22q31 0 57 -8t45.5 -19t32.5 -24.5t19 -23.5l66 317h151l-158 -750h-152l8 36q-17 -15 -49 -31t-86 -16zM281 119q28 0 51.5 11.5t40.5 31t26.5 46t9.5 57.5q0 48 -24.5 77
t-72.5 29q-28 0 -51.5 -11.5t-40.5 -31t-26.5 -46t-9.5 -57.5q0 -48 24.5 -77t72.5 -29zM697 750h151l-103 -160h-102z" />
    <glyph glyph-name="dcroat" unicode="&#x111;" horiz-adv-x="617" 
d="M224 -11q-43 0 -78.5 17.5t-60.5 47.5t-38.5 70t-13.5 86q0 65 20 120t54.5 94.5t81.5 61.5t101 22q31 0 57 -8t45.5 -19t32.5 -24.5t19 -23.5l66 317h151l-158 -750h-152l8 36q-17 -15 -49 -31t-86 -16zM281 119q28 0 51.5 11.5t40.5 31t26.5 46t9.5 57.5q0 48 -24.5 77
t-72.5 29q-28 0 -51.5 -11.5t-40.5 -31t-26.5 -46t-9.5 -57.5q0 -48 24.5 -77t72.5 -29zM358 660h343l-20 -96h-343z" />
    <glyph glyph-name="ebreve" unicode="&#x115;" horiz-adv-x="594" 
d="M276 -11q-58 0 -103 20t-76 53t-47.5 76t-16.5 89q0 61 19.5 113t56.5 90t90 59.5t120 21.5q56 0 104.5 -21t82 -59.5t48 -93.5t2.5 -122h-382q5 -44 37.5 -70t73.5 -26q34 0 60 12.5t40 34.5h160q-39 -95 -108.5 -136t-160.5 -41zM303 391q-37 0 -72.5 -20t-49.5 -60
h224q-3 22 -13.5 37t-24.5 24.5t-31 14t-33 4.5zM362 546q-41 0 -74.5 15.5t-55.5 42.5t-30 63t2 77h86q-7 -29 -3 -50t15.5 -35t29 -20.5t36.5 -6.5t36.5 6t32 18.5t24 34t13.5 53.5h86q0 -41 -13.5 -77t-38.5 -63t-61.5 -42.5t-84.5 -15.5z" />
    <glyph glyph-name="ecaron" unicode="&#x11b;" horiz-adv-x="594" 
d="M276 -11q-58 0 -103 20t-76 53t-47.5 76t-16.5 89q0 61 19.5 113t56.5 90t90 59.5t120 21.5q56 0 104.5 -21t82 -59.5t48 -93.5t2.5 -122h-382q5 -44 37.5 -70t73.5 -26q34 0 60 12.5t40 34.5h160q-39 -95 -108.5 -136t-160.5 -41zM303 391q-37 0 -72.5 -20t-49.5 -60
h224q-3 22 -13.5 37t-24.5 24.5t-31 14t-33 4.5zM184 648l30 108l143 -99l217 99l-34 -125l-199 -90z" />
    <glyph glyph-name="emacron" unicode="&#x113;" horiz-adv-x="594" 
d="M276 -11q-58 0 -103 20t-76 53t-47.5 76t-16.5 89q0 61 19.5 113t56.5 90t90 59.5t120 21.5q56 0 104.5 -21t82 -59.5t48 -93.5t2.5 -122h-382q5 -44 37.5 -70t73.5 -26q34 0 60 12.5t40 34.5h160q-39 -95 -108.5 -136t-160.5 -41zM303 391q-37 0 -72.5 -20t-49.5 -60
h224q-3 22 -13.5 37t-24.5 24.5t-31 14t-33 4.5zM204 710h348l-22 -104h-348z" />
    <glyph glyph-name="eogonek" unicode="&#x119;" horiz-adv-x="594" 
d="M367 -219q-44 0 -72 25.5t-28 62.5q0 30 17 60.5t49 63.5q-20 -3 -33 -3.5t-24 -0.5q-58 0 -103 20t-76 53t-47.5 76t-16.5 89q0 61 19.5 113t56.5 90t90 59.5t120 21.5q56 0 104.5 -21t82 -59.5t48 -93.5t2.5 -122h-382q5 -44 37.5 -70t73.5 -26q34 0 60 12.5t40 34.5
h160q-20 -49 -51 -86q-12 -14 -27 -35t-29 -43.5t-23.5 -45t-9.5 -39.5t8.5 -24t22.5 -7t29 4.5t23 9.5l-19 -90q-14 -9 -40.5 -19t-61.5 -10zM303 391q-37 0 -72.5 -20t-49.5 -60h224q-3 22 -13.5 37t-24.5 24.5t-31 14t-33 4.5z" />
    <glyph glyph-name="edotaccent" unicode="&#x117;" horiz-adv-x="594" 
d="M276 -11q-58 0 -103 20t-76 53t-47.5 76t-16.5 89q0 61 19.5 113t56.5 90t90 59.5t120 21.5q56 0 104.5 -21t82 -59.5t48 -93.5t2.5 -122h-382q5 -44 37.5 -70t73.5 -26q34 0 60 12.5t40 34.5h160q-39 -95 -108.5 -136t-160.5 -41zM303 391q-37 0 -72.5 -20t-49.5 -60
h224q-3 22 -13.5 37t-24.5 24.5t-31 14t-33 4.5zM366 572q-17 0 -31.5 6.5t-25.5 17t-17.5 25t-6.5 30.5q0 34 23.5 57.5t57.5 23.5q33 0 56.5 -23.5t23.5 -57.5q0 -32 -23.5 -55.5t-56.5 -23.5z" />
    <glyph glyph-name="gbreve" unicode="&#x11f;" horiz-adv-x="618" 
d="M233 -219q-48 0 -90 14.5t-74 40t-51.5 60.5t-22.5 77h147q4 -18 14 -30.5t23 -21t28.5 -12t30.5 -3.5q42 0 75 29t41 81l6 38q-17 -15 -49 -31t-86 -16q-42 0 -77.5 16.5t-60.5 45.5t-39 68t-14 83q0 64 20 117.5t55 92t81.5 60t100.5 21.5q31 0 57 -8t45.5 -19
t32.5 -24.5t19 -23.5l13 64h151l-102 -483q-13 -62 -38 -107t-60 -73.5t-79.5 -42t-96.5 -13.5zM282 137q27 0 50 10.5t40.5 29t27.5 44t10 54.5q1 45 -24.5 72t-72.5 27q-27 0 -50.5 -11t-40.5 -29.5t-27 -44t-10 -54.5q0 -45 25.5 -71.5t71.5 -26.5zM380 546
q-41 0 -74.5 15.5t-55.5 42.5t-30 63t2 77h86q-7 -29 -3 -50t15.5 -35t29 -20.5t36.5 -6.5t36.5 6t32 18.5t24 34t13.5 53.5h86q0 -41 -13.5 -77t-38.5 -63t-61.5 -42.5t-84.5 -15.5z" />
    <glyph glyph-name="gcircumflex" unicode="&#x11d;" horiz-adv-x="618" 
d="M233 -219q-48 0 -90 14.5t-74 40t-51.5 60.5t-22.5 77h147q4 -18 14 -30.5t23 -21t28.5 -12t30.5 -3.5q42 0 75 29t41 81l6 38q-17 -15 -49 -31t-86 -16q-42 0 -77.5 16.5t-60.5 45.5t-39 68t-14 83q0 64 20 117.5t55 92t81.5 60t100.5 21.5q31 0 57 -8t45.5 -19
t32.5 -24.5t19 -23.5l13 64h151l-102 -483q-13 -62 -38 -107t-60 -73.5t-79.5 -42t-96.5 -13.5zM282 137q27 0 50 10.5t40.5 29t27.5 44t10 54.5q1 45 -24.5 72t-72.5 27q-27 0 -50.5 -11t-40.5 -29.5t-27 -44t-10 -54.5q0 -45 25.5 -71.5t71.5 -26.5zM564 649l-30 -108
l-143 99l-217 -99l34 125l199 90z" />
    <glyph glyph-name="uni0123" unicode="&#x123;" horiz-adv-x="618" 
d="M233 -219q-48 0 -90 14.5t-74 40t-51.5 60.5t-22.5 77h147q4 -18 14 -30.5t23 -21t28.5 -12t30.5 -3.5q42 0 75 29t41 81l6 38q-17 -15 -49 -31t-86 -16q-42 0 -77.5 16.5t-60.5 45.5t-39 68t-14 83q0 64 20 117.5t55 92t81.5 60t100.5 21.5q31 0 57 -8t45.5 -19
t32.5 -24.5t19 -23.5l13 64h151l-102 -483q-13 -62 -38 -107t-60 -73.5t-79.5 -42t-96.5 -13.5zM282 137q27 0 50 10.5t40.5 29t27.5 44t10 54.5q1 45 -24.5 72t-72.5 27q-27 0 -50.5 -11t-40.5 -29.5t-27 -44t-10 -54.5q0 -45 25.5 -71.5t71.5 -26.5zM383 572
q-33 0 -56.5 23.5t-23.5 56.5q0 29 19 51l99 118h64l-61 -100q18 -11 29 -29t11 -40q0 -33 -23.5 -56.5t-57.5 -23.5z" />
    <glyph glyph-name="gdotaccent" unicode="&#x121;" horiz-adv-x="618" 
d="M233 -219q-48 0 -90 14.5t-74 40t-51.5 60.5t-22.5 77h147q4 -18 14 -30.5t23 -21t28.5 -12t30.5 -3.5q42 0 75 29t41 81l6 38q-17 -15 -49 -31t-86 -16q-42 0 -77.5 16.5t-60.5 45.5t-39 68t-14 83q0 64 20 117.5t55 92t81.5 60t100.5 21.5q31 0 57 -8t45.5 -19
t32.5 -24.5t19 -23.5l13 64h151l-102 -483q-13 -62 -38 -107t-60 -73.5t-79.5 -42t-96.5 -13.5zM282 137q27 0 50 10.5t40.5 29t27.5 44t10 54.5q1 45 -24.5 72t-72.5 27q-27 0 -50.5 -11t-40.5 -29.5t-27 -44t-10 -54.5q0 -45 25.5 -71.5t71.5 -26.5zM384 572
q-17 0 -31.5 6.5t-25.5 17t-17.5 25t-6.5 30.5q0 34 23.5 57.5t57.5 23.5q33 0 56.5 -23.5t23.5 -57.5q0 -32 -23.5 -55.5t-56.5 -23.5z" />
    <glyph glyph-name="hbar" unicode="&#x127;" horiz-adv-x="600" 
d="M168 750h151l-63 -299q23 24 60 41.5t83 17.5q48 0 81 -20.5t52 -54t24 -75t-4 -83.5l-59 -277h-151l56 265q11 51 -6.5 80.5t-58.5 29.5q-45 0 -76 -31t-45 -99l-52 -245h-151zM90 660h343l-20 -96h-343z" />
    <glyph glyph-name="hcircumflex" unicode="&#x125;" horiz-adv-x="600" 
d="M168 750h151l-63 -299q23 24 60 41.5t83 17.5q48 0 81 -20.5t52 -54t24 -75t-4 -83.5l-59 -277h-151l56 265q11 51 -6.5 80.5t-58.5 29.5q-45 0 -76 -31t-45 -99l-52 -245h-151zM260 878l191 70l161 -76l-33 -111l-146 69l-188 -69z" />
    <glyph glyph-name="dotlessi" unicode="&#x131;" horiz-adv-x="275" 
d="M115 500h151l-106 -500h-151z" />
    <glyph glyph-name="ibreve" unicode="&#x12d;" horiz-adv-x="275" 
d="M115 500h151l-106 -500h-151zM219 546q-41 0 -74.5 15.5t-55.5 42.5t-30 63t2 77h86q-7 -29 -3 -50t15.5 -35t29 -20.5t36.5 -6.5t36.5 6t32 18.5t24 34t13.5 53.5h86q0 -41 -13.5 -77t-38.5 -63t-61.5 -42.5t-84.5 -15.5z" />
    <glyph glyph-name="imacron" unicode="&#x12b;" horiz-adv-x="275" 
d="M115 500h151l-106 -500h-151zM61 710h348l-22 -104h-348z" />
    <glyph glyph-name="iogonek" unicode="&#x12f;" horiz-adv-x="275" 
d="M115 500h151l-106 -500h-151zM225 568q-19 0 -36 7.5t-30 20t-20.5 29.5t-7.5 37q0 19 7.5 36.5t20.5 30t30 20t36 7.5q20 0 37.5 -7.5t30 -20t20 -30t7.5 -36.5q0 -20 -7.5 -37t-20 -29.5t-30 -20t-37.5 -7.5zM19 -219q-23 0 -41.5 7t-32 19t-21 28t-7.5 34
q0 38 24.5 73t67.5 58h151q-49 -18 -77 -41t-28 -46q0 -14 8.5 -20.5t22.5 -6.5t29 4.5t23 9.5l-19 -90q-14 -9 -40 -19t-60 -10z" />
    <glyph glyph-name="itilde" unicode="&#x129;" horiz-adv-x="275" 
d="M115 500h151l-106 -500h-151zM427 711l-8 -28q-17 -59 -52.5 -88t-84.5 -29q-24 0 -42.5 7.5t-33.5 16t-28 16t-26 7.5q-20 0 -32 -12.5t-21 -35.5h-88l8 28q17 59 52.5 88t84.5 29q24 0 42.5 -7.5t33.5 -16t28 -16t26 -7.5q20 0 32 12.5t21 35.5h88z" />
    <glyph glyph-name="uni1ECB" unicode="&#x1ecb;" horiz-adv-x="275" 
d="M115 500h151l-106 -500h-151zM225 568q-19 0 -36 7.5t-30 20t-20.5 29.5t-7.5 37q0 19 7.5 36.5t20.5 30t30 20t36 7.5q20 0 37.5 -7.5t30 -20t20 -30t7.5 -36.5q0 -20 -7.5 -37t-20 -29.5t-30 -20t-37.5 -7.5zM54 -227q-34 0 -57.5 23.5t-23.5 56.5t23.5 56.5t57.5 23.5
q33 0 56.5 -23.5t23.5 -56.5t-23.5 -56.5t-56.5 -23.5z" />
    <glyph glyph-name="uni0237" unicode="&#x237;" horiz-adv-x="282" 
d="M-75 -219q-17 0 -33 1t-27 3l27 128q5 -1 12.5 -1.5t12.5 -0.5q40 0 64 19.5t33 64.5l108 505h151l-113 -530q-22 -103 -80 -146t-155 -43z" />
    <glyph glyph-name="jcircumflex" unicode="&#x135;" horiz-adv-x="282" 
d="M-75 -219q-17 0 -33 1t-27 3l27 128q5 -1 12.5 -1.5t12.5 -0.5q40 0 64 19.5t33 64.5l108 505h151l-113 -530q-22 -103 -80 -146t-155 -43zM411 649l-30 -108l-143 99l-217 -99l34 125l199 90z" />
    <glyph glyph-name="uni0137" unicode="&#x137;" horiz-adv-x="558" 
d="M208 226l-48 -226h-151l159 750h151l-91 -427l174 177h189l-237 -241l175 -259h-169zM192 -316h-64l61 100q-18 11 -29 29t-11 40q0 33 23.5 56.5t57.5 23.5q33 0 56.5 -23.5t23.5 -56.5q0 -29 -19 -51z" />
    <glyph glyph-name="lacute" unicode="&#x13a;" horiz-adv-x="275" 
d="M168 750h151l-159 -750h-151zM353 1000h179l-214 -190h-115z" />
    <glyph glyph-name="lcaron" unicode="&#x13e;" horiz-adv-x="283" 
d="M168 750h151l-159 -750h-151zM355 750h151l-103 -160h-102z" />
    <glyph glyph-name="uni013C" unicode="&#x13c;" horiz-adv-x="275" 
d="M168 750h151l-159 -750h-151zM17 -316h-64l61 100q-18 11 -29 29t-11 40q0 33 23.5 56.5t57.5 23.5q33 0 56.5 -23.5t23.5 -56.5q0 -29 -19 -51z" />
    <glyph glyph-name="ldot" unicode="&#x140;" horiz-adv-x="411" 
d="M168 750h151l-159 -750h-151zM367 283q-34 0 -57.5 23.5t-23.5 56.5q0 34 23.5 57.5t57.5 23.5q33 0 56.5 -23.5t23.5 -57.5q0 -33 -23.5 -56.5t-56.5 -23.5z" />
    <glyph glyph-name="glyph296" horiz-adv-x="411" 
d="M168 750h151l-159 -750h-151zM367 283q-34 0 -57.5 23.5t-23.5 56.5q0 34 23.5 57.5t57.5 23.5q33 0 56.5 -23.5t23.5 -57.5q0 -33 -23.5 -56.5t-56.5 -23.5z" />
    <glyph glyph-name="lslash" unicode="&#x142;" horiz-adv-x="361" 
d="M211 750h151l-159 -750h-151zM24 218l26 123l334 171l-27 -124z" />
    <glyph glyph-name="eng" unicode="&#x14b;" horiz-adv-x="599" 
d="M274 -215q-28 0 -52.5 4.5t-40.5 9.5l26 132q11 -2 23 -4t26 -2q36 0 57 20.5t32 70.5l53 249q4 22 3.5 41.5t-8 34.5t-23 24t-41.5 9q-24 0 -51 -11.5t-48 -34.5l-70 -328h-151l106 500h151l-7 -36q26 23 57.5 35t74.5 12q47 0 81.5 -20.5t55 -53.5t27 -75t-2.5 -85
l-70 -323q-8 -39 -28 -70.5t-48 -53t-62 -33.5t-70 -12z" />
    <glyph glyph-name="nacute" unicode="&#x144;" horiz-adv-x="600" 
d="M115 500h151l-10 -49q23 24 60 41.5t83 17.5q48 0 81 -20.5t52 -54t24 -75t-4 -83.5l-59 -277h-151l56 265q11 51 -6.5 80.5t-58.5 29.5q-45 0 -76 -31t-45 -99l-52 -245h-151zM465 750h179l-214 -190h-115z" />
    <glyph glyph-name="ncaron" unicode="&#x148;" horiz-adv-x="600" 
d="M115 500h151l-10 -49q23 24 60 41.5t83 17.5q48 0 81 -20.5t52 -54t24 -75t-4 -83.5l-59 -277h-151l56 265q11 51 -6.5 80.5t-58.5 29.5q-45 0 -76 -31t-45 -99l-52 -245h-151zM207 648l30 108l143 -99l217 99l-34 -125l-199 -90z" />
    <glyph glyph-name="uni0146" unicode="&#x146;" horiz-adv-x="600" 
d="M115 500h151l-10 -49q23 24 60 41.5t83 17.5q48 0 81 -20.5t52 -54t24 -75t-4 -83.5l-59 -277h-151l56 265q11 51 -6.5 80.5t-58.5 29.5q-45 0 -76 -31t-45 -99l-52 -245h-151zM183 -316h-64l61 100q-18 11 -29 29t-11 40q0 33 23.5 56.5t57.5 23.5q33 0 56.5 -23.5
t23.5 -56.5q0 -29 -19 -51z" />
    <glyph glyph-name="oe" unicode="&#x153;" horiz-adv-x="967" 
d="M649 -11q-57 0 -102 19.5t-77 51.5q-37 -34 -87 -53t-110 -19t-105 20t-75 53t-45 76t-15 89q0 60 20.5 112.5t58 90.5t90.5 60t117 22q58 0 101.5 -18.5t73.5 -50.5q37 33 86.5 51t111.5 18q56 0 104.5 -21t82 -59.5t48 -93.5t2.5 -122h-382q5 -44 37.5 -70t73.5 -26
q34 0 60 12.5t40 34.5h160q-39 -95 -108.5 -136t-160.5 -41zM286 129q26 0 48.5 10t38.5 28t25 42t9 51q0 50 -26.5 80t-74.5 30q-26 0 -48.5 -10t-38.5 -28t-25 -42t-9 -51q0 -50 26.5 -80t74.5 -30zM676 391q-37 0 -72.5 -20t-49.5 -60h224q-3 22 -13.5 37t-24.5 24.5
t-31 14t-33 4.5z" />
    <glyph glyph-name="obreve" unicode="&#x14f;" horiz-adv-x="592" 
d="M286 129q26 0 48.5 10t38.5 28t25 42t9 51q0 50 -26.5 80t-74.5 30q-26 0 -48.5 -10t-38.5 -28t-25 -42t-9 -51q0 -50 26.5 -80t74.5 -30zM273 -12q-60 0 -105 20t-75 53t-45 76t-15 89q0 60 20.5 112.5t58 90.5t90.5 60t117 22q60 0 105 -20t75 -53t45 -76t15 -89
q0 -60 -20.5 -112.5t-58 -90.5t-90.5 -60t-117 -22zM378 546q-41 0 -74.5 15.5t-55.5 42.5t-30 63t2 77h86q-7 -29 -3 -50t15.5 -35t29 -20.5t36.5 -6.5t36.5 6t32 18.5t24 34t13.5 53.5h86q0 -41 -13.5 -77t-38.5 -63t-61.5 -42.5t-84.5 -15.5z" />
    <glyph glyph-name="ohungarumlaut" unicode="&#x151;" horiz-adv-x="592" 
d="M286 129q26 0 48.5 10t38.5 28t25 42t9 51q0 50 -26.5 80t-74.5 30q-26 0 -48.5 -10t-38.5 -28t-25 -42t-9 -51q0 -50 26.5 -80t74.5 -30zM273 -12q-60 0 -105 20t-75 53t-45 76t-15 89q0 60 20.5 112.5t58 90.5t90.5 60t117 22q60 0 105 -20t75 -53t45 -76t15 -89
q0 -60 -20.5 -112.5t-58 -90.5t-90.5 -60t-117 -22zM499 750h158l-162 -190h-102zM307 750h159l-162 -190h-102z" />
    <glyph glyph-name="omacron" unicode="&#x14d;" horiz-adv-x="592" 
d="M286 129q26 0 48.5 10t38.5 28t25 42t9 51q0 50 -26.5 80t-74.5 30q-26 0 -48.5 -10t-38.5 -28t-25 -42t-9 -51q0 -50 26.5 -80t74.5 -30zM273 -12q-60 0 -105 20t-75 53t-45 76t-15 89q0 60 20.5 112.5t58 90.5t90.5 60t117 22q60 0 105 -20t75 -53t45 -76t15 -89
q0 -60 -20.5 -112.5t-58 -90.5t-90.5 -60t-117 -22zM220 710h348l-22 -104h-348z" />
    <glyph glyph-name="uni1ECD" unicode="&#x1ecd;" horiz-adv-x="592" 
d="M286 129q26 0 48.5 10t38.5 28t25 42t9 51q0 50 -26.5 80t-74.5 30q-26 0 -48.5 -10t-38.5 -28t-25 -42t-9 -51q0 -50 26.5 -80t74.5 -30zM273 -12q-60 0 -105 20t-75 53t-45 76t-15 89q0 60 20.5 112.5t58 90.5t90.5 60t117 22q60 0 105 -20t75 -53t45 -76t15 -89
q0 -60 -20.5 -112.5t-58 -90.5t-90.5 -60t-117 -22zM215 -227q-34 0 -57.5 23.5t-23.5 56.5t23.5 56.5t57.5 23.5q33 0 56.5 -23.5t23.5 -56.5t-23.5 -56.5t-56.5 -23.5z" />
    <glyph glyph-name="racute" unicode="&#x155;" horiz-adv-x="402" 
d="M115 500h151l-15 -69q17 34 54 54.5t82 20.5q11 0 22.5 -1t24.5 -5l-32 -153q-33 12 -62 12q-51 0 -84.5 -34t-45.5 -88l-50 -237h-151zM383 750h179l-214 -190h-115z" />
    <glyph glyph-name="rcaron" unicode="&#x159;" horiz-adv-x="402" 
d="M115 500h151l-15 -69q17 34 54 54.5t82 20.5q11 0 22.5 -1t24.5 -5l-32 -153q-33 12 -62 12q-51 0 -84.5 -34t-45.5 -88l-50 -237h-151zM125 648l30 108l143 -99l217 99l-34 -125l-199 -90z" />
    <glyph glyph-name="uni0157" unicode="&#x157;" horiz-adv-x="402" 
d="M115 500h151l-15 -69q17 34 54 54.5t82 20.5q11 0 22.5 -1t24.5 -5l-32 -153q-33 12 -62 12q-51 0 -84.5 -34t-45.5 -88l-50 -237h-151zM16 -316h-64l61 100q-18 11 -29 29t-11 40q0 33 23.5 56.5t57.5 23.5q33 0 56.5 -23.5t23.5 -56.5q0 -29 -19 -51z" />
    <glyph glyph-name="sacute" unicode="&#x15b;" horiz-adv-x="504" 
d="M240 -11q-51 0 -93.5 12.5t-73 35.5t-47.5 55t-17 71h157q0 -16 7 -27t18.5 -18.5t26 -11t28.5 -3.5q26 0 39.5 9.5t13.5 23.5t-11 25t-35 19l-78 26q-53 17 -83 54t-30 92q0 73 53.5 116t158.5 43q39 0 74.5 -11t63.5 -32t45 -51t19 -68h-151q0 15 -6.5 24t-15.5 14
t-19 6.5t-17 1.5q-23 0 -36.5 -9t-13.5 -25t13 -25.5t27 -14.5l63 -21q63 -21 98 -57.5t35 -93.5q0 -77 -57.5 -118.5t-155.5 -41.5zM408 750h179l-214 -190h-115z" />
    <glyph glyph-name="scaron" unicode="&#x161;" horiz-adv-x="504" 
d="M240 -11q-51 0 -93.5 12.5t-73 35.5t-47.5 55t-17 71h157q0 -16 7 -27t18.5 -18.5t26 -11t28.5 -3.5q26 0 39.5 9.5t13.5 23.5t-11 25t-35 19l-78 26q-53 17 -83 54t-30 92q0 73 53.5 116t158.5 43q39 0 74.5 -11t63.5 -32t45 -51t19 -68h-151q0 15 -6.5 24t-15.5 14
t-19 6.5t-17 1.5q-23 0 -36.5 -9t-13.5 -25t13 -25.5t27 -14.5l63 -21q63 -21 98 -57.5t35 -93.5q0 -77 -57.5 -118.5t-155.5 -41.5zM150 648l30 108l143 -99l217 99l-34 -125l-199 -90z" />
    <glyph glyph-name="scedilla" unicode="&#x15f;" horiz-adv-x="504" 
d="M240 -11q-51 0 -93.5 12.5t-73 35.5t-47.5 55t-17 71h157q0 -16 7 -27t18.5 -18.5t26 -11t28.5 -3.5q26 0 39.5 9.5t13.5 23.5t-11 25t-35 19l-78 26q-53 17 -83 54t-30 92q0 73 53.5 116t158.5 43q39 0 74.5 -11t63.5 -32t45 -51t19 -68h-151q0 15 -6.5 24t-15.5 14
t-19 6.5t-17 1.5q-23 0 -36.5 -9t-13.5 -25t13 -25.5t27 -14.5l63 -21q63 -21 98 -57.5t35 -93.5q0 -77 -57.5 -118.5t-155.5 -41.5zM82 -141q18 -8 40.5 -11.5t36.5 -3.5q10 0 21 1.5t20.5 5.5t15.5 10.5t6 17.5q0 13 -10.5 18t-27.5 5q-8 0 -19.5 -2.5t-22.5 -7.5l-32 19
l71 92h68l-38 -50q24 7 48 7q32 0 51.5 -17t19.5 -48q0 -24 -11 -45t-31.5 -36t-49 -24t-64.5 -9q-26 0 -54 3t-52 12z" />
    <glyph glyph-name="scircumflex" unicode="&#x15d;" horiz-adv-x="504" 
d="M240 -11q-51 0 -93.5 12.5t-73 35.5t-47.5 55t-17 71h157q0 -16 7 -27t18.5 -18.5t26 -11t28.5 -3.5q26 0 39.5 9.5t13.5 23.5t-11 25t-35 19l-78 26q-53 17 -83 54t-30 92q0 73 53.5 116t158.5 43q39 0 74.5 -11t63.5 -32t45 -51t19 -68h-151q0 15 -6.5 24t-15.5 14
t-19 6.5t-17 1.5q-23 0 -36.5 -9t-13.5 -25t13 -25.5t27 -14.5l63 -21q63 -21 98 -57.5t35 -93.5q0 -77 -57.5 -118.5t-155.5 -41.5zM512 649l-30 -108l-143 99l-217 -99l34 125l199 90z" />
    <glyph glyph-name="uni0219" unicode="&#x219;" horiz-adv-x="504" 
d="M240 -11q-51 0 -93.5 12.5t-73 35.5t-47.5 55t-17 71h157q0 -16 7 -27t18.5 -18.5t26 -11t28.5 -3.5q26 0 39.5 9.5t13.5 23.5t-11 25t-35 19l-78 26q-53 17 -83 54t-30 92q0 73 53.5 116t158.5 43q39 0 74.5 -11t63.5 -32t45 -51t19 -68h-151q0 15 -6.5 24t-15.5 14
t-19 6.5t-17 1.5q-23 0 -36.5 -9t-13.5 -25t13 -25.5t27 -14.5l63 -21q63 -21 98 -57.5t35 -93.5q0 -77 -57.5 -118.5t-155.5 -41.5zM163 -316h-64l61 100q-18 11 -29 29t-11 40q0 33 23.5 56.5t57.5 23.5q33 0 56.5 -23.5t23.5 -56.5q0 -29 -19 -51z" />
    <glyph glyph-name="tbar" unicode="&#x167;" horiz-adv-x="444" 
d="M273 -5q-44 1 -79 17t-57.5 45.5t-29.5 71t4 94.5l31 146h-100l28 131h100l29 139h151l-29 -139h140l-28 -131h-140l-33 -155q-10 -47 10 -65.5t57 -18.5q17 0 30 2t27 7l-29 -134q-16 -5 -36 -8t-46 -2zM41 303h391l-20 -96h-391z" />
    <glyph glyph-name="tcaron" unicode="&#x165;" horiz-adv-x="434" 
d="M269 -5q-44 1 -79 17t-57.5 45.5t-29.5 71t4 94.5l31 146h-100l28 131h100l29 139h151l-29 -139h140l-28 -131h-140l-33 -155q-10 -47 10 -65.5t57 -18.5q17 0 30 2t27 7l-29 -134q-16 -5 -36 -8t-46 -2zM398 710h151l-103 -160h-102z" />
    <glyph glyph-name="uni0163" unicode="&#x163;" horiz-adv-x="434" 
d="M269 -5q-44 1 -79 17t-57.5 45.5t-29.5 71t4 94.5l31 146h-100l28 131h100l29 139h151l-29 -139h140l-28 -131h-140l-33 -155q-10 -47 10 -65.5t57 -18.5q17 0 30 2t27 7l-29 -134q-16 -5 -36 -8t-46 -2zM165 -316h-64l61 100q-18 11 -29 29t-11 40q0 33 23.5 56.5
t57.5 23.5q33 0 56.5 -23.5t23.5 -56.5q0 -29 -19 -51z" />
    <glyph glyph-name="uni021B" unicode="&#x21b;" horiz-adv-x="434" 
d="M269 -5q-44 1 -79 17t-57.5 45.5t-29.5 71t4 94.5l31 146h-100l28 131h100l29 139h151l-29 -139h140l-28 -131h-140l-33 -155q-10 -47 10 -65.5t57 -18.5q17 0 30 2t27 7l-29 -134q-16 -5 -36 -8t-46 -2zM165 -316h-64l61 100q-18 11 -29 29t-11 40q0 33 23.5 56.5
t57.5 23.5q33 0 56.5 -23.5t23.5 -56.5q0 -29 -19 -51z" />
    <glyph glyph-name="ubreve" unicode="&#x16d;" horiz-adv-x="589" 
d="M203 -10q-45 0 -78.5 21t-53 54.5t-26 75t2.5 82.5l59 277h151l-58 -275q-10 -46 7.5 -72t55.5 -26q88 0 113 122l53 251h151l-106 -500h-151l10 49q-20 -25 -52 -42t-78 -17zM372 546q-41 0 -74.5 15.5t-55.5 42.5t-30 63t2 77h86q-7 -29 -3 -50t15.5 -35t29 -20.5
t36.5 -6.5t36.5 6t32 18.5t24 34t13.5 53.5h86q0 -41 -13.5 -77t-38.5 -63t-61.5 -42.5t-84.5 -15.5z" />
    <glyph glyph-name="uhungarumlaut" unicode="&#x171;" horiz-adv-x="589" 
d="M203 -10q-45 0 -78.5 21t-53 54.5t-26 75t2.5 82.5l59 277h151l-58 -275q-10 -46 7.5 -72t55.5 -26q88 0 113 122l53 251h151l-106 -500h-151l10 49q-20 -25 -52 -42t-78 -17zM493 750h158l-162 -190h-102zM301 750h159l-162 -190h-102z" />
    <glyph glyph-name="umacron" unicode="&#x16b;" horiz-adv-x="589" 
d="M203 -10q-45 0 -78.5 21t-53 54.5t-26 75t2.5 82.5l59 277h151l-58 -275q-10 -46 7.5 -72t55.5 -26q88 0 113 122l53 251h151l-106 -500h-151l10 49q-20 -25 -52 -42t-78 -17zM214 710h348l-22 -104h-348z" />
    <glyph glyph-name="uogonek" unicode="&#x173;" horiz-adv-x="589" 
d="M203 -10q-45 0 -78.5 21t-53 54.5t-26 75t2.5 82.5l59 277h151l-58 -275q-10 -46 7.5 -72t55.5 -26q88 0 113 122l53 251h151l-106 -500h-151l10 49q-20 -25 -52 -42t-78 -17zM333 -219q-23 0 -41.5 7t-32 19t-21 28t-7.5 34q0 38 24.5 73t67.5 58h151q-49 -18 -77 -41
t-28 -46q0 -14 8.5 -20.5t22.5 -6.5t29 4.5t23 9.5l-19 -90q-14 -9 -40 -19t-60 -10z" />
    <glyph glyph-name="uring" unicode="&#x16f;" horiz-adv-x="589" 
d="M203 -10q-45 0 -78.5 21t-53 54.5t-26 75t2.5 82.5l59 277h151l-58 -275q-10 -46 7.5 -72t55.5 -26q88 0 113 122l53 251h151l-106 -500h-151l10 49q-20 -25 -52 -42t-78 -17zM378 543q-25 0 -47 9.5t-38.5 26t-26.5 38t-10 46.5t10 46.5t26.5 38t38.5 26t47 9.5t47 -9.5
t38.5 -26t26.5 -38t10 -46.5t-10 -46.5t-26.5 -38t-38.5 -26t-47 -9.5zM378 608q23 0 39.5 16t16.5 39t-16.5 39t-39.5 16t-39.5 -16t-16.5 -39t16.5 -39t39.5 -16z" />
    <glyph glyph-name="utilde" unicode="&#x169;" horiz-adv-x="589" 
d="M203 -10q-45 0 -78.5 21t-53 54.5t-26 75t2.5 82.5l59 277h151l-58 -275q-10 -46 7.5 -72t55.5 -26q88 0 113 122l53 251h151l-106 -500h-151l10 49q-20 -25 -52 -42t-78 -17zM580 711l-8 -28q-17 -59 -52.5 -88t-84.5 -29q-24 0 -42.5 7.5t-33.5 16t-28 16t-26 7.5
q-20 0 -32 -12.5t-21 -35.5h-88l8 28q17 59 52.5 88t84.5 29q24 0 42.5 -7.5t33.5 -16t28 -16t26 -7.5q20 0 32 12.5t21 35.5h88z" />
    <glyph glyph-name="uni1EE5" unicode="&#x1ee5;" horiz-adv-x="589" 
d="M203 -10q-45 0 -78.5 21t-53 54.5t-26 75t2.5 82.5l59 277h151l-58 -275q-10 -46 7.5 -72t55.5 -26q88 0 113 122l53 251h151l-106 -500h-151l10 49q-20 -25 -52 -42t-78 -17zM233 -227q-34 0 -57.5 23.5t-23.5 56.5t23.5 56.5t57.5 23.5q33 0 56.5 -23.5t23.5 -56.5
t-23.5 -56.5t-56.5 -23.5z" />
    <glyph glyph-name="wacute" unicode="&#x1e83;" horiz-adv-x="809" 
d="M55 500h153l22 -313l169 313h116l25 -304l151 304h168l-270 -500h-152l-25 263l-146 -263h-152zM566 750h179l-214 -190h-115z" />
    <glyph glyph-name="wcircumflex" unicode="&#x175;" horiz-adv-x="809" 
d="M55 500h153l22 -313l169 313h116l25 -304l151 304h168l-270 -500h-152l-25 263l-146 -263h-152zM670 649l-30 -108l-143 99l-217 -99l34 125l199 90z" />
    <glyph glyph-name="wdieresis" unicode="&#x1e85;" horiz-adv-x="809" 
d="M55 500h153l22 -313l169 313h116l25 -304l151 304h168l-270 -500h-152l-25 263l-146 -263h-152zM370 572q-17 0 -31.5 6.5t-25.5 17t-17.5 25t-6.5 30.5q0 34 23.5 57.5t57.5 23.5q16 0 30.5 -6.5t25 -17.5t17 -25.5t6.5 -31.5q0 -32 -23.5 -55.5t-55.5 -23.5zM607 572
q-33 0 -56.5 23.5t-23.5 55.5q0 34 23.5 57.5t56.5 23.5t56.5 -23.5t23.5 -57.5q0 -32 -23.5 -55.5t-56.5 -23.5z" />
    <glyph glyph-name="wgrave" unicode="&#x1e81;" horiz-adv-x="809" 
d="M55 500h153l22 -313l169 313h116l25 -304l151 304h168l-270 -500h-152l-25 263l-146 -263h-152zM417 560l-72 190h161l8 -190h-97z" />
    <glyph glyph-name="ycircumflex" unicode="&#x177;" horiz-adv-x="574" 
d="M159 31l-107 469h149l62 -315l196 315h171l-462 -709h-166zM543 649l-30 -108l-143 99l-217 -99l34 125l199 90z" />
    <glyph glyph-name="ygrave" unicode="&#x1ef3;" horiz-adv-x="574" 
d="M159 31l-107 469h149l62 -315l196 315h171l-462 -709h-166zM290 560l-72 190h161l8 -190h-97z" />
    <glyph glyph-name="uni0233" unicode="&#x233;" horiz-adv-x="574" 
d="M159 31l-107 469h149l62 -315l196 315h171l-462 -709h-166zM201 710h348l-22 -104h-348z" />
    <glyph glyph-name="zacute" unicode="&#x17a;" horiz-adv-x="502" 
d="M13 118l264 246h-209l29 136h412l-25 -119l-263 -245h219l-29 -136h-423zM408 750h179l-214 -190h-115z" />
    <glyph glyph-name="zcaron" unicode="&#x17e;" horiz-adv-x="502" 
d="M13 118l264 246h-209l29 136h412l-25 -119l-263 -245h219l-29 -136h-423zM150 648l30 108l143 -99l217 99l-34 -125l-199 -90z" />
    <glyph glyph-name="zdotaccent" unicode="&#x17c;" horiz-adv-x="502" 
d="M13 118l264 246h-209l29 136h412l-25 -119l-263 -245h219l-29 -136h-423zM332 572q-17 0 -31.5 6.5t-25.5 17t-17.5 25t-6.5 30.5q0 34 23.5 57.5t57.5 23.5q33 0 56.5 -23.5t23.5 -57.5q0 -32 -23.5 -55.5t-56.5 -23.5z" />
    <glyph glyph-name="uni0259" unicode="&#x259;" horiz-adv-x="602" 
d="M292 -11q-48 0 -98.5 16.5t-89.5 52.5t-58.5 92t-5.5 135h384q-1 40 -29 68t-83 28q-29 0 -59.5 -11.5t-47.5 -35.5h-158q14 42 41 75t63 55.5t77.5 34.5t85.5 12q57 0 104 -17t80.5 -48t51.5 -75.5t18 -98.5q0 -58 -18.5 -109.5t-53.5 -90t-86.5 -61t-117.5 -22.5z
M290 109q43 0 72.5 22t43.5 58h-216q3 -24 14 -39.5t25.5 -24.5t30.5 -12.5t30 -3.5z" />
    <glyph glyph-name="ellipsis" unicode="&#x2026;" horiz-adv-x="826" 
d="M114 -8q-22 0 -41.5 8.5t-34 23t-23 34t-8.5 41.5t8.5 41.5t23 34t34 23t41.5 8.5t41.5 -8.5t34 -23t23 -34t8.5 -41.5t-8.5 -41.5t-23 -34t-34 -23t-41.5 -8.5zM387 -8q-22 0 -41.5 8.5t-34 23t-23 34t-8.5 41.5t8.5 41.5t23 34t34 23t41.5 8.5t41.5 -8.5t34 -23t23 -34
t8.5 -41.5t-8.5 -41.5t-23 -34t-34 -23t-41.5 -8.5zM661 -8q-22 0 -41.5 8.5t-34 23t-23 34t-8.5 41.5t8.5 41.5t23 34t34 23t41.5 8.5t41.5 -8.5t34 -23t23 -34t8.5 -41.5t-8.5 -41.5t-23 -34t-34 -23t-41.5 -8.5z" />
    <glyph glyph-name="endash" unicode="&#x2013;" horiz-adv-x="594" 
d="M75 352h483l-31 -144h-483z" />
    <glyph glyph-name="emdash" unicode="&#x2014;" horiz-adv-x="950" 
d="M75 352h839l-31 -144h-839z" />
    <glyph glyph-name="guilsinglleft" unicode="&#x2039;" horiz-adv-x="331" 
d="M212 467h135l-170 -236l73 -198h-123l-103 217z" />
    <glyph glyph-name="guilsinglright" unicode="&#x203a;" horiz-adv-x="332" 
d="M117 35h-135l170 236l-73 198h123l103 -217z" />
    <glyph glyph-name="quoteleft" unicode="&#x2018;" horiz-adv-x="282" 
d="M246.985 709.957h86.9941l-103.993 -161.99q27.998 -17.999 39.9971 -42.498q11.999 -24.498 11.999 -49.4961q0 -21.999 -8.49902 -41.498q-8.5 -19.499 -22.999 -33.998t-33.998 -22.998q-19.498 -8.5 -41.4971 -8.5t-41.4971 8.5q-19.499 8.49902 -33.998 22.998
t-22.999 33.998q-8.49902 19.499 -8.49902 41.498q0 19.998 8.49902 39.4971q8.5 19.499 22.499 36.498z" />
    <glyph glyph-name="quoteright" unicode="&#x2019;" horiz-adv-x="284" 
d="M156 361h-87l104 162q-28 18 -40 42.5t-12 49.5q0 22 8.5 41.5t23 34t34 23t41.5 8.5t41.5 -8.5t34 -23t23 -34t8.5 -41.5q0 -20 -8.5 -39.5t-22.5 -36.5z" />
    <glyph glyph-name="uni02BB" unicode="&#x2bb;" horiz-adv-x="282" 
d="M246.985 709.957h86.9941l-103.993 -161.99q27.998 -17.999 39.9971 -42.498q11.999 -24.498 11.999 -49.4961q0 -21.999 -8.49902 -41.498q-8.5 -19.499 -22.999 -33.998t-33.998 -22.998q-19.498 -8.5 -41.4971 -8.5t-41.4971 8.5q-19.499 8.49902 -33.998 22.998
t-22.999 33.998q-8.49902 19.499 -8.49902 41.498q0 19.998 8.49902 39.4971q8.5 19.499 22.499 36.498z" />
    <glyph glyph-name="uni02BC" unicode="&#x2bc;" horiz-adv-x="284" 
d="M156 361h-87l104 162q-28 18 -40 42.5t-12 49.5q0 22 8.5 41.5t23 34t34 23t41.5 8.5t41.5 -8.5t34 -23t23 -34t8.5 -41.5q0 -20 -8.5 -39.5t-22.5 -36.5z" />
    <glyph glyph-name="quotedblleft" unicode="&#x201c;" horiz-adv-x="524" 
d="M246.985 709.957h86.9941l-103.993 -161.99q27.998 -17.999 39.9971 -42.498q11.999 -24.498 11.999 -49.4961q0 -21.999 -8.49902 -41.498q-8.5 -19.499 -22.999 -33.998t-33.998 -22.998q-19.498 -8.5 -41.4971 -8.5t-41.4971 8.5q-19.499 8.49902 -33.998 22.998
t-22.999 33.998q-8.49902 19.499 -8.49902 41.498q0 19.998 8.49902 39.4971q8.5 19.499 22.499 36.498zM488.97 709.957h86.9951l-103.994 -161.99q27.999 -17.999 39.998 -42.498q11.999 -24.498 11.999 -49.4961q0 -21.999 -8.49902 -41.498
q-8.5 -19.499 -22.999 -33.998t-33.998 -22.998q-19.498 -8.5 -41.4971 -8.5t-41.4971 8.5q-19.499 8.49902 -33.998 22.998t-22.999 33.998q-8.49902 19.499 -8.49902 41.498q0 19.998 8.49902 39.4971q8.5 19.499 22.499 36.498z" />
    <glyph glyph-name="quotedblright" unicode="&#x201d;" horiz-adv-x="526" 
d="M156 361h-87l104 162q-28 18 -40 42.5t-12 49.5q0 22 8.5 41.5t23 34t34 23t41.5 8.5t41.5 -8.5t34 -23t23 -34t8.5 -41.5q0 -20 -8.5 -39.5t-22.5 -36.5zM398 361h-87l104 162q-28 18 -40 42.5t-12 49.5q0 22 8.5 41.5t23 34t34 23t41.5 8.5t41.5 -8.5t34 -23t23 -34
t8.5 -41.5q0 -20 -8.5 -39.5t-22.5 -36.5z" />
    <glyph glyph-name="quotesinglbase" unicode="&#x201a;" horiz-adv-x="287" 
d="M45 -155h-87l104 162q-28 18 -40 42.5t-12 49.5q0 22 8.5 41.5t23 34t34 23t41.5 8.5t41.5 -8.5t34 -23t23 -34t8.5 -41.5q0 -20 -8.5 -39.5t-22.5 -36.5z" />
    <glyph glyph-name="quotedblbase" unicode="&#x201e;" horiz-adv-x="529" 
d="M45 -155h-87l104 162q-28 18 -40 42.5t-12 49.5q0 22 8.5 41.5t23 34t34 23t41.5 8.5t41.5 -8.5t34 -23t23 -34t8.5 -41.5q0 -20 -8.5 -39.5t-22.5 -36.5zM287 -155h-87l104 162q-28 18 -40 42.5t-12 49.5q0 22 8.5 41.5t23 34t34 23t41.5 8.5t41.5 -8.5t34 -23t23 -34
t8.5 -41.5q0 -20 -8.5 -39.5t-22.5 -36.5z" />
    <glyph glyph-name="bullet" unicode="&#x2022;" horiz-adv-x="395" 
d="M205 166q-28 0 -52.5 10.5t-43 29t-29.5 43.5t-11 53t11 53t29.5 43.5t43 29t52.5 10.5t53 -10.5t43.5 -29t29.5 -43.5t11 -53t-11 -53t-29.5 -43.5t-43.5 -29t-53 -10.5z" />
    <glyph glyph-name="dagger" unicode="&#x2020;" horiz-adv-x="522" 
d="M224 382h-171l25 118h171l45 210h126l-45 -210h171l-25 -118h-171l-102 -480h-126z" />
    <glyph glyph-name="daggerdbl" unicode="&#x2021;" horiz-adv-x="542" 
d="M303 112l-45 -210h-126l45 210h-171l25 118h171l32 152h-171l25 118h171l45 210h126l-45 -210h171l-25 -118h-171l-32 -152h171l-25 -118h-171z" />
    <glyph glyph-name="perthousand" unicode="&#x2030;" horiz-adv-x="1478" 
d="M1235 -8q-41 0 -77 15.5t-62.5 42.5t-42 62.5t-15.5 76.5t15.5 77t42 62.5t62.5 42t77 15.5q40 0 76 -15.5t63 -42t42.5 -62.5t15.5 -77t-15.5 -76.5t-42.5 -62.5t-63 -42.5t-76 -15.5zM1235 118q29 0 49 21t20 50t-20 50t-49 21t-49.5 -21t-20.5 -50t20.5 -50t49.5 -21z
M165 0l600 710h170l-599 -710h-171zM817 -8q-41 0 -77 15.5t-62.5 42.5t-42 62.5t-15.5 76.5t15.5 77t42 62.5t62.5 42t77 15.5q40 0 76 -15.5t63 -42t42.5 -62.5t15.5 -77t-15.5 -76.5t-42.5 -62.5t-63 -42.5t-76 -15.5zM817 118q29 0 49 21t20 50t-20 50t-49 21t-49.5 -21
t-20.5 -50t20.5 -50t49.5 -21zM284 324q-41 0 -77 15.5t-62.5 42.5t-42 62.5t-15.5 76.5t15.5 77t42 62.5t62.5 42t77 15.5q40 0 76 -15.5t63 -42t42.5 -62.5t15.5 -77t-15.5 -76.5t-42.5 -62.5t-63 -42.5t-76 -15.5zM284 450q29 0 49 21t20 50t-20 50t-49 21q-30 0 -50 -21
t-20 -50t20 -50t50 -21z" />
    <glyph glyph-name="uni2117" unicode="&#x2117;" horiz-adv-x="817" 
d="M428 -12q-75 0 -142 29t-116.5 79t-78.5 116.5t-29 142.5t29 142.5t78.5 116.5t116.5 79t142 29q76 0 142.5 -29t116.5 -79t79 -116.5t29 -142.5t-29 -142.5t-79 -116.5t-116.5 -79t-142.5 -29zM428 76q58 0 108.5 22t88.5 60t60 88.5t22 108.5t-22 108.5t-60 88.5
t-88.5 60t-108.5 22q-57 0 -108 -22t-88.5 -60t-59.5 -88.5t-22 -108.5t22 -108.5t59.5 -88.5t88.5 -60t108 -22zM585 412q0 -27 -10 -50.5t-27.5 -40.5t-41.5 -27t-52 -10h-40v-115h-88v371h128q28 0 52 -10t41.5 -27t27.5 -40.5t10 -50.5zM501 412q0 20 -14 33t-34 13h-39
v-92h39q20 0 34 13.5t14 32.5z" />
    <glyph glyph-name="trademark" unicode="&#x2122;" horiz-adv-x="858" 
d="M477 710h107l69 -113l69 113h107v-356h-109v166l-67 -106l-67 106v-166h-109v356zM214 597h-93v113h301v-113h-93v-243h-115v243z" />
    <glyph glyph-name="uni2116" unicode="&#x2116;" horiz-adv-x="1105" 
d="M526 0l-249 457l-97 -457h-159l151 710h137l248 -456l97 456h160l-151 -710h-137zM976 405q-32 0 -60 12.5t-49 33.5t-33 49t-12 60t12 60t33 49t49 33.5t60 12.5t60 -12.5t49 -33.5t33.5 -49t12.5 -60t-12.5 -60t-33.5 -49t-49 -33.5t-60 -12.5zM781 359h305l-20 -96
h-305zM977 501q24 0 41 17.5t17 41.5t-17 41.5t-41 17.5t-41 -17.5t-17 -41.5t17 -41.5t41 -17.5z" />
    <glyph glyph-name="glyph357" horiz-adv-x="535" 
d="M437 723l-131 -252l233 10l-415 -492l242 402l-205 -12l147 296zM529 465q5 0 5 -5q0 4 4 5q-4 0 -4 5t5 5t5 -5t-4 -5q3 -1 4 -4q0 4 5 4t5 -5t-4 -5q4 -2 4 -5q0 -5 -4 -5q3 -1 4 -4q0 4 5 4t5 -5t-4 -5q4 -2 4 -5q0 -5 -5 -5t-5 4q-2 -4 -4 -4q4 -2 4 -5q0 -5 -5 -5
t-5 4q-2 -4 -4 -4q4 -2 4 -5q0 -5 -5 -5t-5 4q-2 -4 -4 -4q4 -2 4 -5q0 -5 -5 -5t-5 4q-2 -4 -4 -4q4 -2 4 -5q0 -5 -5 -5t-5 4q-2 -4 -4 -4q4 -2 4 -5q0 -5 -5 -5t-5 4q-2 -4 -4 -4q4 -2 4 -5q0 -5 -5 -5t-5 4q-2 -4 -4 -4q4 -2 4 -5q0 -5 -4 -5q4 -2 4 -5q0 -5 -5 -5t-5 4
q-2 -4 -4 -4q4 -2 4 -5q0 -5 -5 -5t-5 4q-2 -4 -4 -4q4 -2 4 -5q0 -5 -5 -5t-5 4q-2 -4 -4 -4q4 -2 4 -5q0 -5 -5 -5t-5 4q-2 -4 -4 -4q4 -2 4 -5q0 -5 -5 -5t-5 4q-2 -4 -4 -4q4 -2 4 -5q0 -5 -5 -5t-5 4q-2 -4 -4 -4q4 -2 4 -5q0 -5 -5 -5t-5 4q-2 -4 -4 -4q4 -2 4 -5
q0 -5 -5 -5t-5 4q-2 -4 -4 -4q4 -2 4 -5q0 -5 -5 -5t-5 4q-2 -4 -4 -4q4 -2 4 -5q0 -5 -5 -5t-5 4q-2 -4 -4 -4q4 -2 4 -5q0 -5 -5 -5t-5 4q-2 -4 -4 -4q4 -2 4 -5q0 -5 -5 -5t-5 4q-2 -4 -4 -4q4 -2 4 -5q0 -5 -5 -5t-5 4q-2 -4 -4 -4q4 -2 4 -5q0 -5 -4 -5q4 -2 4 -5
q0 -5 -5 -5t-5 4q-2 -4 -4 -4q4 -2 4 -5q0 -5 -5 -5t-5 4q-2 -4 -4 -4q4 -2 4 -5q0 -5 -5 -5t-5 4q-2 -4 -4 -4q4 -2 4 -5q0 -5 -5 -5t-5 4q-2 -4 -4 -4q4 -2 4 -5q0 -5 -5 -5t-5 4q-2 -4 -4 -4q4 -2 4 -5q0 -5 -5 -5t-5 4q-2 -4 -4 -4q4 -2 4 -5q0 -5 -5 -5t-5 4
q-2 -4 -4 -4q4 -2 4 -5q0 -5 -5 -5t-5 4q-2 -4 -4 -4q4 -2 4 -5q0 -5 -5 -5t-5 4q-2 -4 -4 -4q4 -2 4 -5q0 -5 -5 -5t-5 4q-2 -4 -4 -4q4 -2 4 -5q0 -5 -5 -5t-5 4q-2 -4 -4 -4q4 -2 4 -5q0 -5 -4 -5q4 -2 4 -5q0 -5 -5 -5t-5 4q-2 -4 -4 -4q4 -2 4 -5q0 -5 -5 -5t-5 4
q-2 -4 -4 -4q4 -2 4 -5q0 -5 -5 -5t-5 4q-2 -4 -4 -4q4 -2 4 -5q0 -5 -5 -5t-5 4q-2 -4 -4 -4q4 -2 4 -5q0 -5 -5 -5t-5 4q-2 -4 -4 -4q4 -2 4 -5q0 -5 -5 -5t-5 4q-2 -4 -4 -4q4 -2 4 -5q0 -5 -5 -5t-5 4q-2 -4 -4 -4q4 -2 4 -5q0 -5 -5 -5t-5 4q-2 -4 -4 -4q4 -2 4 -5
q0 -5 -5 -5t-5 4q-2 -4 -4 -4q4 -2 4 -5q0 -5 -5 -5t-5 4q-1 -3 -4 -4q4 0 4 -5t-5 -5t-5 4q-1 -3 -4 -4q4 0 4 -5t-5 -5t-5 5t4 5q-4 1 -4 5q0 5 5 5t5 -5q0 5 4 5q-4 1 -4 5t4 5q-4 0 -4 5t5 5t5 -5q0 4 4 5q-4 0 -4 5t5 5q3 0 5 -4q0 2 4 4q-4 0 -4 5t5 5q3 0 5 -4
q0 2 4 4q-4 0 -4 5t5 5q3 0 5 -4q0 2 4 4q-4 0 -4 5t5 5t5 -5q0 4 4 5q-4 0 -4 5t5 5t5 -5q0 4 4 5q-4 0 -4 5q0 4 4 5q-4 0 -4 5t5 5t5 -5q0 4 4 5q-4 0 -4 5t5 5q3 0 5 -4q0 2 4 4q-4 0 -4 5t5 5q3 0 5 -4q0 2 4 4q-4 0 -4 5t5 5t5 -5q0 4 4 5q-4 0 -4 5t5 5t5 -5q0 4 4 5
q-4 0 -4 5q0 4 4 5q-4 0 -4 5t5 5q3 0 5 -4q0 2 4 4q-4 0 -4 5t5 5t5 -5q0 4 4 5q-4 0 -4 5t5 5t5 -5q0 4 4 5q-4 0 -4 5t5 5t5 -5q0 4 4 5q-4 0 -4 5t5 5t5 -5q0 4 4 5q-4 0 -4 5q0 4 4 5q-4 0 -4 5t5 5t5 -5q0 4 4 5q-4 0 -4 5t5 5q3 0 5 -4q0 2 4 4q-4 0 -4 5t5 5t5 -5
q0 4 4 5q-4 0 -4 5t5 5t5 -5q0 4 4 5q-4 0 -4 5t5 5t5 -5q0 4 4 5q-4 0 -4 5t5 5t5 -5q0 4 4 5q-4 0 -4 5q0 4 4 5q-4 0 -4 5t5 5t5 -5q0 4 4 5q-4 0 -4 5t5 5q3 0 5 -4q0 2 4 4q-4 0 -4 5t5 5t5 -5q0 4 4 5q-4 0 -4 5t5 5q3 0 5 -4q0 2 4 4q-4 0 -4 5t5 5q3 0 5 -4q0 2 4 4
q-4 0 -4 5q0 4 4 5q-4 0 -4 5t5 5t5 -5q0 4 4 5q-4 0 -4 5t5 5t5 -5q0 4 4 5q-4 0 -4 5t5 5t5 -5q0 4 4 5q-4 0 -4 5t5 5t5 -5q0 4 4 5q-4 0 -4 5t5 5t5 -5q0 4 4 5q-4 0 -4 5q0 4 4 5q-4 0 -4 5t5 5t5 -5q0 4 4 5q-4 0 -4 5t5 5q3 0 5 -4q0 2 4 4q-4 0 -4 5t5 5q3 0 5 -4
q0 2 4 4q-4 0 -4 5t5 5q3 0 5 -4q0 2 4 4q-4 0 -4 5t5 5t5 -5q0 4 4 5q-4 0 -4 5t5 5q3 0 5 -4q0 2 4 4q-4 0 -4 5q0 4 4 5q-4 0 -4 5t5 5zM429 695q3 0 5 -4q0 2 4 4q-4 0 -4 5q0 4 4 5q-4 0 -4 5t5 5t5 -5t-4 -5q3 -1 4 -4q0 4 5 4t5 -5t-4 -5q3 -1 4 -4q0 4 5 4t5 -5
t-4 -5q4 -2 4 -5q0 -5 -5 -5t-5 4q-2 -4 -4 -4q4 -2 4 -5q0 -5 -4 -5q4 -2 4 -5q0 -5 -5 -5t-5 4q-2 -4 -4 -4q4 -2 4 -5q0 -5 -5 -5t-5 4q-2 -4 -4 -4q4 -2 4 -5q0 -5 -4 -5q4 -2 4 -5q0 -5 -5 -5t-5 4q-2 -4 -4 -4q4 -2 4 -5q0 -5 -4 -5q4 -2 4 -5q0 -5 -5 -5t-5 4
q-2 -4 -4 -4q4 -2 4 -5q0 -5 -4 -5q4 -2 4 -5q0 -5 -5 -5t-5 4q-2 -4 -4 -4q4 -2 4 -5q0 -5 -5 -5t-5 4q-2 -4 -4 -4q4 -2 4 -5q0 -5 -4 -5q4 -2 4 -5q0 -5 -5 -5t-5 4q-2 -4 -4 -4q4 -2 4 -5q0 -5 -4 -5q4 -2 4 -5q0 -5 -5 -5t-5 4q-2 -4 -4 -4q4 -2 4 -5q0 -5 -4 -5
q4 -2 4 -5q0 -5 -5 -5t-5 4q-2 -4 -4 -4q4 -2 4 -5q0 -5 -4 -5q4 -2 4 -5q0 -5 -5 -5t-5 4q-2 -4 -4 -4q4 -2 4 -5q0 -5 -4 -5q4 -2 4 -5q0 -5 -5 -5t-5 4q-1 -4 -5 -4q-5 0 -5 4q-1 -4 -5 -4q-5 0 -5 4q-1 -4 -5 -4q-5 0 -5 5t5 5q3 0 5 -4q0 2 4 4q-4 0 -4 5q0 4 4 5
q-4 0 -4 5t5 5q3 0 5 -4q0 2 4 4q-4 0 -4 5q0 4 4 5q-4 0 -4 5t5 5t5 -5q0 4 4 5q-4 0 -4 5q0 4 4 5q-4 0 -4 5t5 5q3 0 5 -4q0 2 4 4q-4 0 -4 5q0 4 4 5q-4 0 -4 5t5 5t5 -5q0 4 4 5q-4 0 -4 5q0 4 4 5q-4 0 -4 5t5 5q3 0 5 -4q0 2 4 4q-4 0 -4 5q0 4 4 5q-4 0 -4 5t5 5
t5 -5q0 4 4 5q-4 0 -4 5t5 5q3 0 5 -4q0 2 4 4q-4 0 -4 5q0 4 4 5q-4 0 -4 5t5 5q3 0 5 -4q0 2 4 4q-4 0 -4 5q0 4 4 5q-4 0 -4 5t5 5q3 0 5 -4q0 2 4 4q-4 0 -4 5q0 4 4 5q-4 0 -4 5t5 5t5 -5q0 4 4 5q-4 0 -4 5q0 4 4 5q-4 0 -4 5t5 5zM349 385q5 0 5 -5t-5 -5t-5 4
q-2 -4 -4 -4q4 -2 4 -5q0 -5 -4 -5q4 -2 4 -5q0 -5 -5 -5t-5 4q-1 -4 -5 -4q-5 0 -5 4q-1 -4 -5 -4q-5 0 -5 4q-1 -4 -5 -4q-5 0 -5 4q-1 -4 -5 -4q-5 0 -5 4q-1 -4 -5 -4q-5 0 -5 4q-1 -4 -5 -4q-5 0 -5 4q-1 -4 -5 -4q-5 0 -5 4q-2 -4 -4 -4q4 -2 4 -5q0 -5 -5 -5t-5 4
q-1 -4 -5 -4q-5 0 -5 4q-1 -4 -5 -4q-5 0 -5 4q-1 -4 -5 -4q-5 0 -5 4q-1 -4 -5 -4q-5 0 -5 4q-1 -4 -5 -4q-5 0 -5 4q-1 -4 -5 -4q-5 0 -5 4q-1 -4 -5 -4q-5 0 -5 4q-1 -4 -5 -4q-5 0 -5 5q0 4 4 5q-4 0 -4 4q-1 -4 -5 -4q-5 0 -5 5q0 4 4 5q-4 0 -4 5t5 5t5 -5q0 5 5 5
t5 -5q0 5 5 5q3 0 5 -4q0 4 5 4t5 -5q0 5 5 5q3 0 5 -4q0 4 5 4t5 -5q0 5 5 5t5 -5q0 5 5 5t5 -5q0 5 5 5t5 -5q0 5 5 5t5 -5q0 4 4 5q-4 0 -4 5t5 5q3 0 5 -4q0 4 5 4t5 -5q0 5 5 5q3 0 5 -4q0 4 5 4t5 -5q0 5 5 5t5 -5q0 5 5 5q3 0 5 -4q0 4 5 4q3 0 5 -4q0 4 5 4
q3 0 5 -4q0 4 5 4zM184 39q-2 -4 -4 -4q4 -2 4 -5q0 4 4 5q-4 0 -4 4zM194 49q-2 -4 -4 -4q4 -2 4 -5q0 4 4 5q-4 0 -4 4zM204 59q-2 -4 -4 -4q4 -2 4 -5q0 4 4 5q-4 0 -4 4zM214 69q-2 -4 -4 -4q3 -1 4 -4q0 2 4 4q-4 0 -4 4zM214 79q-2 -4 -4 -4q3 -1 4 -4q0 2 4 4
q-4 0 -4 4zM228 75q-4 0 -4 4q-2 -4 -4 -4q3 -1 4 -4q0 2 4 4zM234 89q-2 -4 -4 -4q3 -1 4 -4q0 2 4 4q-4 0 -4 4zM228 85q-4 0 -4 4q-2 -4 -4 -4q3 -1 4 -4q0 2 4 4zM244 99q-2 -4 -4 -4q4 -2 4 -5q0 4 4 5q-4 0 -4 4zM234 99q-2 -4 -4 -4q3 -1 4 -4q0 2 4 4q-4 0 -4 4z
M244 109q-2 -4 -4 -4q4 -2 4 -5q0 4 4 5q-4 0 -4 4zM254 119q-2 -4 -4 -4q4 -2 4 -5q0 4 4 5q-4 0 -4 4zM264 129q-2 -4 -4 -4q3 -1 4 -4q0 2 4 4q-4 0 -4 4zM334 369q-2 -4 -4 -4q3 -1 4 -4q0 2 4 4q-4 0 -4 4zM324 369q-2 -4 -4 -4q4 -2 4 -5q0 4 4 5q-4 0 -4 4zM314 369
q-2 -4 -4 -4q4 -2 4 -5q0 4 4 5q-4 0 -4 4zM304 369q-2 -4 -4 -4q4 -2 4 -5q0 4 4 5q-4 0 -4 4zM294 369q-2 -4 -4 -4q4 -2 4 -5q0 4 4 5q-4 0 -4 4zM334 379q-2 -4 -4 -4q3 -1 4 -4q0 2 4 4q-4 0 -4 4zM324 379q-2 -4 -4 -4q3 -1 4 -4q0 2 4 4q-4 0 -4 4zM314 379
q-2 -4 -4 -4q4 -2 4 -5q0 4 4 5q-4 0 -4 4zM304 379q-2 -4 -4 -4q3 -1 4 -4q0 2 4 4q-4 0 -4 4zM294 379q-2 -4 -4 -4q3 -1 4 -4q0 2 4 4q-4 0 -4 4zM254 359q-2 -4 -4 -4q3 -1 4 -4q0 2 4 4q-4 0 -4 4zM244 359q-2 -4 -4 -4q4 -2 4 -5q0 4 4 5q-4 0 -4 4zM234 359
q-2 -4 -4 -4q4 -2 4 -5q0 4 4 5q-4 0 -4 4zM284 369q-2 -4 -4 -4q4 -2 4 -5q0 4 4 5q-4 0 -4 4zM274 369q-2 -4 -4 -4q3 -1 4 -4q0 2 4 4q-4 0 -4 4zM264 369q-2 -4 -4 -4q4 -2 4 -5q0 4 4 5q-4 0 -4 4zM254 369q-2 -4 -4 -4q4 -2 4 -5q0 4 4 5q-4 0 -4 4zM244 369
q-2 -4 -4 -4q4 -2 4 -5q0 4 4 5q-4 0 -4 4zM234 369q-2 -4 -4 -4q4 -2 4 -5q0 4 4 5q-4 0 -4 4zM284 379q-2 -4 -4 -4q4 -2 4 -5q0 4 4 5q-4 0 -4 4zM274 379q-2 -4 -4 -4q3 -1 4 -4q0 2 4 4q-4 0 -4 4zM224 359q-2 -4 -4 -4q4 -2 4 -5q0 4 4 5q-4 0 -4 4zM214 359
q-2 -4 -4 -4q4 -2 4 -5q0 4 4 5q-4 0 -4 4zM204 359q-2 -4 -4 -4q4 -2 4 -5q0 4 4 5q-4 0 -4 4zM194 359q-2 -4 -4 -4q4 -2 4 -5q0 4 4 5q-4 0 -4 4zM184 359q-2 -4 -4 -4q4 -2 4 -5q0 4 4 5q-4 0 -4 4zM224 369q-2 -4 -4 -4q4 -2 4 -5q0 4 4 5q-4 0 -4 4zM214 369
q-2 -4 -4 -4q4 -2 4 -5q0 4 4 5q-4 0 -4 4zM204 369q-2 -4 -4 -4q4 -2 4 -5q0 4 4 5q-4 0 -4 4zM194 369q-2 -4 -4 -4q4 -2 4 -5q0 4 4 5q-4 0 -4 4zM184 369q-2 -4 -4 -4q4 -2 4 -5q0 4 4 5q-4 0 -4 4zM174 369q-2 -4 -4 -4q4 -2 4 -5q0 4 4 5q-4 0 -4 4zM484 369
q-2 -4 -4 -4q4 -2 4 -5q0 4 4 5q-4 0 -4 4zM274 139q-2 -4 -4 -4q4 -2 4 -5q0 4 4 5q-4 0 -4 4zM268 135q-4 0 -4 4q-2 -4 -4 -4q4 -2 4 -5q0 4 4 5zM284 149q-2 -4 -4 -4q4 -2 4 -5q0 4 4 5q-4 0 -4 4zM274 149q-2 -4 -4 -4q3 -1 4 -4q0 2 4 4q-4 0 -4 4zM294 159
q-2 -4 -4 -4q4 -2 4 -5q0 4 4 5q-4 0 -4 4zM284 159q-2 -4 -4 -4q4 -2 4 -5q0 4 4 5q-4 0 -4 4zM304 169q-2 -4 -4 -4q4 -2 4 -5q0 4 4 5q-4 0 -4 4zM294 169q-2 -4 -4 -4q4 -2 4 -5q0 4 4 5q-4 0 -4 4zM314 179q-2 -4 -4 -4q4 -2 4 -5q0 4 4 5q-4 0 -4 4zM304 179
q-2 -4 -4 -4q4 -2 4 -5q0 4 4 5q-4 0 -4 4zM314 189q-2 -4 -4 -4q4 -2 4 -5q0 4 4 5q-4 0 -4 4zM314 199q-2 -4 -4 -4q4 -2 4 -5q0 4 4 5q-4 0 -4 4zM328 185q-4 0 -4 4q-2 -4 -4 -4q3 -1 4 -4q0 2 4 4zM334 199q-2 -4 -4 -4q4 -2 4 -5q0 4 4 5q-4 0 -4 4zM328 195
q-4 0 -4 4q-2 -4 -4 -4q4 -2 4 -5q0 4 4 5zM344 209q-2 -4 -4 -4q4 -2 4 -5q0 4 4 5q-4 0 -4 4zM334 209q-2 -4 -4 -4q4 -2 4 -5q0 4 4 5q-4 0 -4 4zM328 205q-4 0 -4 4q-2 -4 -4 -4q4 -2 4 -5q0 4 4 5zM354 219q-2 -4 -4 -4q3 -1 4 -4q0 2 4 4q-4 0 -4 4zM344 219
q-2 -4 -4 -4q4 -2 4 -5q0 4 4 5q-4 0 -4 4zM334 219q-2 -4 -4 -4q3 -1 4 -4q0 2 4 4q-4 0 -4 4zM354 229q-2 -4 -4 -4q4 -2 4 -5q0 4 4 5q-4 0 -4 4zM344 229q-2 -4 -4 -4q3 -1 4 -4q0 2 4 4q-4 0 -4 4zM364 239q-2 -4 -4 -4q3 -1 4 -4q0 2 4 4q-4 0 -4 4zM354 239
q-2 -4 -4 -4q4 -2 4 -5q0 4 4 5q-4 0 -4 4zM374 249q-2 -4 -4 -4q4 -2 4 -5q0 4 4 5q-4 0 -4 4zM364 249q-2 -4 -4 -4q4 -2 4 -5q0 4 4 5q-4 0 -4 4zM374 259q-2 -4 -4 -4q4 -2 4 -5q0 4 4 5q-4 0 -4 4zM374 269q-2 -4 -4 -4q3 -1 4 -4q0 2 4 4q-4 0 -4 4zM388 255
q-4 0 -4 4q-2 -4 -4 -4q4 -2 4 -5q0 4 4 5zM394 269q-2 -4 -4 -4q4 -2 4 -5q0 4 4 5q-4 0 -4 4zM388 265q-4 0 -4 4q-2 -4 -4 -4q4 -2 4 -5q0 4 4 5zM404 279q-2 -4 -4 -4q3 -1 4 -4q0 2 4 4q-4 0 -4 4zM394 279q-2 -4 -4 -4q3 -1 4 -4q0 2 4 4q-4 0 -4 4zM388 275
q-4 0 -4 4q-2 -4 -4 -4q3 -1 4 -4q0 2 4 4zM414 289q-2 -4 -4 -4q4 -2 4 -5q0 4 4 5q-4 0 -4 4zM404 289q-2 -4 -4 -4q4 -2 4 -5q0 4 4 5q-4 0 -4 4zM394 289q-2 -4 -4 -4q4 -2 4 -5q0 4 4 5q-4 0 -4 4zM424 299q-2 -4 -4 -4q4 -2 4 -5q0 4 4 5q-4 0 -4 4zM414 299
q-2 -4 -4 -4q3 -1 4 -4q0 2 4 4q-4 0 -4 4zM404 299q-2 -4 -4 -4q4 -2 4 -5q0 4 4 5q-4 0 -4 4zM434 309q-2 -4 -4 -4q4 -2 4 -5q0 4 4 5q-4 0 -4 4zM424 309q-2 -4 -4 -4q3 -1 4 -4q0 2 4 4q-4 0 -4 4zM414 309q-2 -4 -4 -4q4 -2 4 -5q0 4 4 5q-4 0 -4 4zM344 489
q-2 -4 -4 -4q3 -1 4 -4q0 2 4 4q-4 0 -4 4zM334 489q-2 -4 -4 -4q3 -1 4 -4q0 2 4 4q-4 0 -4 4zM344 499q-2 -4 -4 -4q4 -2 4 -5q0 4 4 5q-4 0 -4 4zM334 499q-2 -4 -4 -4q3 -1 4 -4q0 2 4 4q-4 0 -4 4zM354 509q-2 -4 -4 -4q3 -1 4 -4q0 2 4 4q-4 0 -4 4zM344 509
q-2 -4 -4 -4q4 -2 4 -5q0 4 4 5q-4 0 -4 4zM354 519q-2 -4 -4 -4q4 -2 4 -5q0 4 4 5q-4 0 -4 4zM344 519q-2 -4 -4 -4q4 -2 4 -5q0 4 4 5q-4 0 -4 4zM354 529q-2 -4 -4 -4q4 -2 4 -5q0 4 4 5q-4 0 -4 4zM354 539q-2 -4 -4 -4q4 -2 4 -5q0 4 4 5q-4 0 -4 4zM434 319
q-2 -4 -4 -4q4 -2 4 -5q0 4 4 5q-4 0 -4 4zM424 319q-2 -4 -4 -4q3 -1 4 -4q0 2 4 4q-4 0 -4 4zM434 329q-2 -4 -4 -4q4 -2 4 -5q0 4 4 5q-4 0 -4 4zM424 329q-2 -4 -4 -4q4 -2 4 -5q0 4 4 5q-4 0 -4 4zM434 339q-2 -4 -4 -4q3 -1 4 -4q0 2 4 4q-4 0 -4 4zM448 315
q-4 0 -4 4q-2 -4 -4 -4q3 -1 4 -4q0 2 4 4zM454 329q-2 -4 -4 -4q3 -1 4 -4q0 2 4 4q-4 0 -4 4zM448 325q-4 0 -4 4q-2 -4 -4 -4q4 -2 4 -5q0 4 4 5zM464 339q-2 -4 -4 -4q4 -2 4 -5q0 4 4 5q-4 0 -4 4zM454 339q-2 -4 -4 -4q4 -2 4 -5q0 4 4 5q-4 0 -4 4zM448 335
q-4 0 -4 4q-2 -4 -4 -4q3 -1 4 -4q0 2 4 4zM474 349q-2 -4 -4 -4q4 -2 4 -5q0 4 4 5q-4 0 -4 4zM464 349q-2 -4 -4 -4q3 -1 4 -4q0 2 4 4q-4 0 -4 4zM454 349q-2 -4 -4 -4q4 -2 4 -5q0 4 4 5q-4 0 -4 4zM448 345q-4 0 -4 4q-2 -4 -4 -4q4 -2 4 -5q0 4 4 5zM484 359
q-2 -4 -4 -4q4 -2 4 -5q0 4 4 5q-4 0 -4 4zM474 359q-2 -4 -4 -4q3 -1 4 -4q0 2 4 4q-4 0 -4 4zM464 359q-2 -4 -4 -4q3 -1 4 -4q0 2 4 4q-4 0 -4 4zM454 359q-2 -4 -4 -4q3 -1 4 -4q0 2 4 4q-4 0 -4 4zM374 549q-2 -4 -4 -4q3 -1 4 -4q0 2 4 4q-4 0 -4 4zM474 369
q-2 -4 -4 -4q4 -2 4 -5q0 4 4 5q-4 0 -4 4zM464 369q-2 -4 -4 -4q3 -1 4 -4q0 2 4 4q-4 0 -4 4zM494 379q-2 -4 -4 -4q3 -1 4 -4q0 2 4 4q-4 0 -4 4zM484 379q-2 -4 -4 -4q3 -1 4 -4q0 2 4 4q-4 0 -4 4zM474 379q-2 -4 -4 -4q4 -2 4 -5q0 4 4 5q-4 0 -4 4zM494 389
q-2 -4 -4 -4q4 -2 4 -5q0 4 4 5q-4 0 -4 4zM484 389q-2 -4 -4 -4q4 -2 4 -5q0 4 4 5q-4 0 -4 4zM474 389q-2 -4 -4 -4q3 -1 4 -4q0 2 4 4q-4 0 -4 4zM494 399q-2 -4 -4 -4q4 -2 4 -5q0 4 4 5q-4 0 -4 4zM484 399q-2 -4 -4 -4q4 -2 4 -5q0 4 4 5q-4 0 -4 4zM494 409
q-2 -4 -4 -4q4 -2 4 -5q0 4 4 5q-4 0 -4 4zM508 385q-4 0 -4 4q-2 -4 -4 -4q4 -2 4 -5q0 4 4 5zM514 399q-2 -4 -4 -4q4 -2 4 -5q0 4 4 5q-4 0 -4 4zM508 395q-4 0 -4 4q-2 -4 -4 -4q3 -1 4 -4q0 2 4 4zM524 409q-2 -4 -4 -4q4 -2 4 -5q0 4 4 5q-4 0 -4 4zM514 409
q-2 -4 -4 -4q3 -1 4 -4q0 2 4 4q-4 0 -4 4zM508 405q-4 0 -4 4q-2 -4 -4 -4q4 -2 4 -5q0 4 4 5zM534 419q-2 -4 -4 -4q4 -2 4 -5q0 4 4 5q-4 0 -4 4zM524 419q-2 -4 -4 -4q3 -1 4 -4q0 2 4 4q-4 0 -4 4zM514 419q-2 -4 -4 -4q4 -2 4 -5q0 4 4 5q-4 0 -4 4zM508 415
q-4 0 -4 4q-2 -4 -4 -4q3 -1 4 -4q0 2 4 4zM544 429q-2 -4 -4 -4q3 -1 4 -4q0 2 4 4q-4 0 -4 4zM534 429q-2 -4 -4 -4q4 -2 4 -5q0 4 4 5q-4 0 -4 4zM524 429q-2 -4 -4 -4q3 -1 4 -4q0 2 4 4q-4 0 -4 4zM514 429q-2 -4 -4 -4q3 -1 4 -4q0 2 4 4q-4 0 -4 4zM554 439
q-2 -4 -4 -4q3 -1 4 -4q0 2 4 4q-4 0 -4 4zM544 439q-2 -4 -4 -4q3 -1 4 -4q0 2 4 4q-4 0 -4 4zM534 439q-2 -4 -4 -4q4 -2 4 -5q0 4 4 5q-4 0 -4 4zM524 439q-2 -4 -4 -4q3 -1 4 -4q0 2 4 4q-4 0 -4 4zM544 449q-2 -4 -4 -4q3 -1 4 -4q0 2 4 4q-4 0 -4 4zM534 449
q-2 -4 -4 -4q3 -1 4 -4q0 2 4 4q-4 0 -4 4zM544 459q-2 -4 -4 -4q4 -2 4 -5q0 4 4 5q-4 0 -4 4zM534 459q-2 -4 -4 -4q4 -2 4 -5q0 4 4 5q-4 0 -4 4zM414 629q-2 -4 -4 -4q3 -1 4 -4q0 2 4 4q-4 0 -4 4zM368 525q-4 0 -4 4q-2 -4 -4 -4q4 -2 4 -5q0 4 4 5zM368 535
q-4 0 -4 4q-2 -4 -4 -4q4 -2 4 -5q0 4 4 5zM404 629q-2 -4 -4 -4q3 -1 4 -4q0 2 4 4q-4 0 -4 4zM368 545q-4 0 -4 4q-2 -4 -4 -4q4 -2 4 -5q0 4 4 5zM374 559q-2 -4 -4 -4q3 -1 4 -4q0 2 4 4q-4 0 -4 4zM368 555q-4 0 -4 4q-2 -4 -4 -4q4 -2 4 -5q0 4 4 5zM384 569
q-2 -4 -4 -4q4 -2 4 -5q0 4 4 5q-4 0 -4 4zM374 569q-2 -4 -4 -4q4 -2 4 -5q0 4 4 5q-4 0 -4 4zM384 579q-2 -4 -4 -4q4 -2 4 -5q0 4 4 5q-4 0 -4 4zM374 579q-2 -4 -4 -4q3 -1 4 -4q0 2 4 4q-4 0 -4 4zM394 589q-2 -4 -4 -4q4 -2 4 -5q0 4 4 5q-4 0 -4 4zM384 589
q-2 -4 -4 -4q4 -2 4 -5q0 4 4 5q-4 0 -4 4zM404 599q-2 -4 -4 -4q3 -1 4 -4q0 2 4 4q-4 0 -4 4zM394 599q-2 -4 -4 -4q4 -2 4 -5q0 4 4 5q-4 0 -4 4zM384 599q-2 -4 -4 -4q4 -2 4 -5q0 4 4 5q-4 0 -4 4zM404 609q-2 -4 -4 -4q3 -1 4 -4q0 2 4 4q-4 0 -4 4zM394 609
q-2 -4 -4 -4q4 -2 4 -5q0 4 4 5q-4 0 -4 4zM414 619q-2 -4 -4 -4q4 -2 4 -5q0 4 4 5q-4 0 -4 4zM404 619q-2 -4 -4 -4q4 -2 4 -5q0 4 4 5q-4 0 -4 4zM428 665q-4 0 -4 4q-2 -4 -4 -4q4 -2 4 -5q0 4 4 5zM434 689q-2 -4 -4 -4q4 -2 4 -5q0 4 4 5q-4 0 -4 4zM414 639
q-2 -4 -4 -4q3 -1 4 -4q0 2 4 4q-4 0 -4 4zM414 649q-2 -4 -4 -4q4 -2 4 -5q0 4 4 5q-4 0 -4 4zM428 635q-4 0 -4 4q-2 -4 -4 -4q3 -1 4 -4q0 2 4 4zM428 645q-4 0 -4 4q-2 -4 -4 -4q4 -2 4 -5q0 4 4 5zM434 659q-2 -4 -4 -4q3 -1 4 -4q0 2 4 4q-4 0 -4 4zM428 655
q-4 0 -4 4q-2 -4 -4 -4q4 -2 4 -5q0 4 4 5zM444 669q-2 -4 -4 -4q3 -1 4 -4q0 2 4 4q-4 0 -4 4zM434 669q-2 -4 -4 -4q4 -2 4 -5q0 4 4 5q-4 0 -4 4zM154 9q-2 -4 -4 -4q4 -2 4 -5q0 4 4 5q-4 0 -4 4zM444 679q-2 -4 -4 -4q4 -2 4 -5q0 4 4 5q-4 0 -4 4zM434 679
q-2 -4 -4 -4q4 -2 4 -5q0 4 4 5q-4 0 -4 4zM454 689q-2 -4 -4 -4q4 -2 4 -5q0 4 4 5q-4 0 -4 4zM444 689q-2 -4 -4 -4q3 -1 4 -4q0 2 4 4q-4 0 -4 4zM168 15q-4 0 -4 4q-2 -4 -4 -4q4 -2 4 -5q0 4 4 5zM444 699q-2 -4 -4 -4q4 -2 4 -5q0 4 4 5q-4 0 -4 4zM174 29
q-2 -4 -4 -4q4 -2 4 -5q0 4 4 5q-4 0 -4 4z" />
    <glyph glyph-name="minus" unicode="&#x2212;" horiz-adv-x="563" 
d="M77 355h420v-131h-420v131z" />
    <glyph glyph-name="uni2007" unicode="&#x2007;" horiz-adv-x="590" 
 />
    <glyph glyph-name="uni2008" unicode="&#x2008;" horiz-adv-x="285" 
 />
    <glyph glyph-name="uni2009" unicode="&#x2009;" horiz-adv-x="125" 
 />
    <glyph glyph-name="uni200B" unicode="&#x200b;" 
 />
    <glyph glyph-name="uni2060" unicode="&#x2060;" horiz-adv-x="220" 
 />
    <glyph glyph-name="uniFEFF" unicode="&#xfeff;" 
 />
    <glyph glyph-name="Euro" unicode="&#x20ac;" horiz-adv-x="848" 
d="M55 389l32 57h46q17 59 50.5 109.5t82.5 87.5t112 58t140 21q64 0 117.5 -16.5t95.5 -46t71.5 -70t44.5 -89.5h-174q-25 33 -69 53t-98 20q-72 0 -126.5 -34.5t-83.5 -92.5h349l-30 -57h-338q-3 -13 -4 -25.5t-1 -26.5v-15h308l-30 -57h-269q17 -60 64.5 -94t125.5 -34
q49 0 89.5 20t71.5 53h174q-21 -50 -53 -90.5t-74.5 -70t-97.5 -45.5t-122 -16q-72 0 -131 21t-102 58t-70 87.5t-36 110.5h-91l32 57h55v1q0 17 1.5 33t3.5 33h-66z" />
    <glyph glyph-name="uniFB00" unicode="&#xfb00;" horiz-adv-x="805" 
d="M143 369h-100l28 131h100l12 55q20 96 82.5 148.5t161.5 52.5q30 0 51 -3t36 -8l-28 -133q-11 4 -23.5 6.5t-28.5 2.5q-46 0 -70 -20t-34 -65l-8 -36h106l-28 -131h-106l-78 -369h-151zM526 369h-79l28 131h79l12 55q20 96 82.5 148.5t161.5 52.5q30 0 51 -3t36 -8
l-28 -133q-11 4 -23.5 6.5t-28.5 2.5q-46 0 -70 -20t-34 -65l-8 -36h140l-28 -131h-140l-78 -369h-151z" />
    <glyph glyph-name="uniFB01" unicode="&#xfb01;" horiz-adv-x="697" 
d="M537 500h151l-106 -500h-151zM647 568q-19 0 -36 7.5t-30 20t-20.5 29.5t-7.5 37q0 19 7.5 36.5t20.5 30t30 20t36 7.5q20 0 37.5 -7.5t30 -20t20 -30t7.5 -36.5q0 -20 -7.5 -37t-20 -29.5t-30 -20t-37.5 -7.5zM143 369h-100l28 131h100l12 55q20 96 82.5 148.5
t161.5 52.5q30 0 51 -3t36 -8l-28 -133q-11 4 -23.5 6.5t-28.5 2.5q-46 0 -70 -20t-34 -65l-8 -36h140l-28 -131h-140l-78 -369h-151z" />
    <glyph glyph-name="uniFB03" unicode="&#xfb03;" horiz-adv-x="1080" 
d="M920 500h151l-106 -500h-151zM1030 568q-19 0 -36 7.5t-30 20t-20.5 29.5t-7.5 37q0 19 7.5 36.5t20.5 30t30 20t36 7.5q20 0 37.5 -7.5t30 -20t20 -30t7.5 -36.5q0 -20 -7.5 -37t-20 -29.5t-30 -20t-37.5 -7.5zM143 369h-100l28 131h100l12 55q20 96 82.5 148.5
t161.5 52.5q30 0 51 -3t36 -8l-28 -133q-11 4 -23.5 6.5t-28.5 2.5q-46 0 -70 -20t-34 -65l-8 -36h106l-28 -131h-106l-78 -369h-151zM526 369h-79l28 131h79l12 55q20 96 82.5 148.5t161.5 52.5q30 0 51 -3t36 -8l-28 -133q-11 4 -23.5 6.5t-28.5 2.5q-46 0 -70 -20
t-34 -65l-8 -36h140l-28 -131h-140l-78 -369h-151z" />
    <glyph glyph-name="uniFB02" unicode="&#xfb02;" horiz-adv-x="697" 
d="M143 369h-100l28 131h100l12 55q20 96 82.5 148.5t161.5 52.5q30 0 51 -3t36 -8l-28 -133q-11 4 -23.5 6.5t-28.5 2.5q-46 0 -70 -20t-34 -65l-8 -36h140l-28 -131h-140l-78 -369h-151zM590 750h151l-159 -750h-151z" />
    <glyph glyph-name="uniFB04" unicode="&#xfb04;" horiz-adv-x="1080" 
d="M973 750h151l-159 -750h-151zM143 369h-100l28 131h100l12 55q20 96 82.5 148.5t161.5 52.5q30 0 51 -3t36 -8l-28 -133q-11 4 -23.5 6.5t-28.5 2.5q-46 0 -70 -20t-34 -65l-8 -36h106l-28 -131h-106l-78 -369h-151zM526 369h-79l28 131h79l12 55q20 96 82.5 148.5
t161.5 52.5q30 0 51 -3t36 -8l-28 -133q-11 4 -23.5 6.5t-28.5 2.5q-46 0 -70 -20t-34 -65l-8 -36h140l-28 -131h-140l-78 -369h-151z" />
    <glyph glyph-name="glyph378" 
d="M141 568q-19 0 -36 7.5t-30 20t-20.5 29.5t-7.5 37q0 19 7.5 36.5t20.5 30t30 20t36 7.5q20 0 37.5 -7.5t30 -20t20 -30t7.5 -36.5q0 -20 -7.5 -37t-20 -29.5t-30 -20t-37.5 -7.5z" />
    <glyph glyph-name="breve" unicode="&#x2d8;" 
d="M137 552q-41 0 -74.5 15.5t-55.5 42.5t-30 63t2 77h86q-7 -29 -3 -50t15.5 -35t29 -20.5t36.5 -6.5t36.5 6t32 18.5t24 34t13.5 53.5h86q0 -41 -13.5 -77t-38.5 -63t-61.5 -42.5t-84.5 -15.5z" />
    <glyph glyph-name="caron" unicode="&#x2c7;" 
d="M-43 648l30 108l143 -99l217 99l-34 -125l-199 -90z" />
    <glyph glyph-name="circumflex" unicode="&#x2c6;" 
d="M319 649l-30 -108l-143 99l-217 -99l34 125l199 90z" />
    <glyph glyph-name="dotaccent" unicode="&#x2d9;" 
d="M139 572q-17 0 -31.5 6.5t-25.5 17t-17.5 25t-6.5 30.5q0 34 23.5 57.5t57.5 23.5q33 0 56.5 -23.5t23.5 -57.5q0 -32 -23.5 -55.5t-56.5 -23.5z" />
    <glyph glyph-name="glyph383" 
d="M0 -80q-34 0 -57.5 23.5t-23.5 56.5q0 34 23.5 57.5t57.5 23.5q33 0 56.5 -23.5t23.5 -57.5q0 -33 -23.5 -56.5t-56.5 -23.5z" />
    <glyph glyph-name="glyph384" 
d="M-31 -227q-34 0 -57.5 23.5t-23.5 56.5t23.5 56.5t57.5 23.5q33 0 56.5 -23.5t23.5 -56.5t-23.5 -56.5t-56.5 -23.5z" />
    <glyph glyph-name="hungarumlaut" unicode="&#x2dd;" 
d="M208 750h158l-162 -190h-102zM16 750h159l-162 -190h-102z" />
    <glyph glyph-name="glyph386" 
d="M-69 -316h-64l61 100q-18 11 -29 29t-11 40q0 33 23.5 56.5t57.5 23.5q33 0 56.5 -23.5t23.5 -56.5q0 -29 -19 -51z" />
    <glyph glyph-name="ogonek" unicode="&#x2db;" 
d="M-32 -219q-23 0 -41.5 7t-32 19t-21 28t-7.5 34q0 38 24.5 73t67.5 58h151q-49 -18 -77 -41t-28 -46q0 -14 8.5 -20.5t22.5 -6.5t29 4.5t23 9.5l-19 -90q-14 -9 -40 -19t-60 -10z" />
    <glyph glyph-name="ring" unicode="&#x2da;" 
d="M141 543q-25 0 -47 9.5t-38.5 26t-26.5 38t-10 46.5t10 46.5t26.5 38t38.5 26t47 9.5t47 -9.5t38.5 -26t26.5 -38t10 -46.5t-10 -46.5t-26.5 -38t-38.5 -26t-47 -9.5zM141 608q23 0 39.5 16t16.5 39t-16.5 39t-39.5 16t-39.5 -16t-16.5 -39t16.5 -39t39.5 -16z" />
    <glyph glyph-name="tilde" unicode="&#x2dc;" 
d="M343 711l-8 -28q-17 -59 -52.5 -88t-84.5 -29q-24 0 -42.5 7.5t-33.5 16t-28 16t-26 7.5q-20 0 -32 -12.5t-21 -35.5h-88l8 28q17 59 52.5 88t84.5 29q24 0 42.5 -7.5t33.5 -16t28 -16t26 -7.5q20 0 32 12.5t21 35.5h88z" />
    <glyph glyph-name="glyph390" 
d="M86 710h151l-103 -160h-102z" />
    <glyph glyph-name="glyph391" 
d="M138 572q-33 0 -56.5 23.5t-23.5 56.5q0 29 19 51l99 118h64l-61 -100q18 -11 29 -29t11 -40q0 -33 -23.5 -56.5t-57.5 -23.5z" />
    <glyph glyph-name="glyph392" 
d="M45 572q-33 0 -56.5 23.5t-23.5 55.5q0 33 23.5 56.5t56.5 23.5q32 0 55.5 -23.5t23.5 -56.5q0 -32 -23.5 -55.5t-55.5 -23.5zM232 572q-32 0 -55.5 23.5t-23.5 55.5q0 33 23.5 56.5t55.5 23.5q33 0 56.5 -23.5t23.5 -56.5q0 -32 -23.5 -55.5t-56.5 -23.5z" />
    <glyph glyph-name="glyph393" 
d="M-216 -11l-43 52l582 470l43 -52z" />
    <glyph glyph-name="glyph394" 
d="M-31 660h343l-20 -96h-343z" />
    <glyph glyph-name="glyph395" 
d="M-31 660h343l-20 -96h-343z" />
    <glyph glyph-name="glyph396" 
d="M-100 227l26 123l334 171l-27 -124z" />
    <glyph glyph-name="glyph397" 
d="M-131 303h391l-20 -96h-391z" />
    <glyph glyph-name="zero.zero" horiz-adv-x="631" 
d="M289 -11q-65 0 -114.5 23t-80.5 64t-41 97.5t4 124.5l33 162q25 120 98 191t195 71q65 0 114.5 -23t80 -64t41 -98t-3.5 -124l-33 -162q-12 -60 -36.5 -108.5t-61.5 -82.5t-85.5 -52.5t-109.5 -18.5zM298 138q110 0 136 125l20 96l-255 -144q7 -37 34 -57t65 -20z
M217 351l255 145q-7 37 -33.5 57t-64.5 20q-110 0 -136 -125z" />
    <glyph glyph-name="one.oldstyle" horiz-adv-x="359" 
d="M177 428h-134l137 132h180l-124 -560h-151z" />
    <glyph glyph-name="two.oldstyle" horiz-adv-x="509" 
d="M5 72q10 46 33 79.5t54.5 58t68 44t72.5 39.5q16 9 34.5 18.5t33.5 21t25 26t10 32.5q0 21 -10.5 33.5t-36.5 12.5q-28 0 -44.5 -17t-19.5 -41h-150q6 46 25.5 81.5t50 60t70 37t84.5 12.5q36 0 69 -11t59 -32.5t41.5 -52t15.5 -69.5q0 -42 -12 -73.5t-33 -56.5
t-51 -45.5t-66 -39.5q-5 -3 -19.5 -9.5t-30.5 -15t-30 -17.5t-17 -16h201l-32 -132h-412z" />
    <glyph glyph-name="three.oldstyle" horiz-adv-x="529" 
d="M238 -78q-39 0 -79.5 12.5t-73 39t-52 67.5t-15.5 98h144q1 -45 25.5 -65t57.5 -20t52.5 20t19.5 53q0 30 -20.5 51t-51.5 21h-50l25 107h42q38 0 57 22t19 51q0 28 -15 43.5t-43 15.5q-31 0 -52 -21.5t-23 -56.5h-151q4 55 27 95t57 65.5t75 37.5t80 12q46 0 82 -13
t61 -36t38 -54t13 -67q0 -57 -22.5 -98t-66.5 -63q25 -17 43 -48.5t18 -71.5q0 -38 -13.5 -73t-41 -63t-69 -44.5t-97.5 -16.5z" />
    <glyph glyph-name="four.oldstyle" horiz-adv-x="562" 
d="M262 68h-288l26 108l380 384h137l-75 -370h76l-29 -122h-76l-26 -136h-151zM291 190l26 138l-126 -138h100z" />
    <glyph glyph-name="five.oldstyle" horiz-adv-x="522" 
d="M231 -78q-41 0 -80.5 12.5t-71.5 37t-54 61t-28 85.5h156q26 -64 82 -64q33 0 56 23.5t23 64.5q0 16 -4 31.5t-12.5 27.5t-22 19t-33.5 7q-25 0 -48 -14.5t-37 -50.5l-135 40l139 358h341l-31 -130h-212l-39 -99q18 8 40.5 12.5t42.5 4.5q39 0 69 -15.5t50.5 -42t31 -61
t10.5 -72.5q0 -49 -13.5 -91.5t-41.5 -74.5t-72.5 -50.5t-105.5 -18.5z" />
    <glyph glyph-name="six.oldstyle" horiz-adv-x="528" 
d="M244 -11q-54 0 -95 16.5t-69 43t-42.5 60.5t-14.5 69q0 34 5.5 61.5t19 53.5t35.5 55t55 68l179 211h189l-186 -219q33 -4 62.5 -19.5t52 -40t35.5 -58t13 -72.5q0 -48 -17 -90t-48 -73t-75.5 -48.5t-98.5 -17.5zM244 118q38 0 62.5 26.5t24.5 68.5q0 34 -18 57.5
t-53 23.5q-38 0 -62.5 -26.5t-24.5 -68.5q0 -34 18 -57.5t53 -23.5z" />
    <glyph glyph-name="seven.oldstyle" horiz-adv-x="492" 
d="M327 430h-263l31 130h444l-28 -117l-369 -511h-183z" />
    <glyph glyph-name="eight.oldstyle" horiz-adv-x="550" 
d="M496 204q0 -57 -21.5 -97.5t-57 -66.5t-80 -38.5t-89.5 -12.5q-52 0 -93 16t-70 42t-44.5 59t-15.5 68q0 25 6 51t19.5 50t36 44.5t54.5 34.5q-17 20 -27 45.5t-10 54.5q0 41 15.5 74.5t44.5 57.5t71 37.5t96 13.5q40 0 75.5 -12.5t61.5 -34t41.5 -50.5t16.5 -61
q1 -45 -21.5 -84t-64.5 -67q24 -26 40 -57.5t16 -66.5zM180 188q0 -35 20 -55.5t52 -20.5q39 0 63 27t24 65q0 35 -20 55.5t-52 20.5q-39 0 -63 -27t-24 -65zM250 444q0 -32 17.5 -46t40.5 -14q30 0 51.5 20.5t21.5 54.5q0 32 -17.5 46t-40.5 14q-30 0 -51.5 -20.5
t-21.5 -54.5z" />
    <glyph glyph-name="nine.oldstyle" horiz-adv-x="528" 
d="M216 150q-32 4 -61.5 19.5t-52 40.5t-35.5 58t-13 73q0 48 17 90t48 73t75.5 48.5t98.5 17.5t95 -16.5t69 -43t42.5 -60.5t14.5 -69t-5.5 -62t-19 -53t-35.5 -55t-55 -68l-179 -211h-189zM277 265q38 0 62.5 26.5t24.5 68.5q0 34 -18 57.5t-53 23.5q-38 0 -62.5 -26.5
t-24.5 -68.5q0 -34 18 -57.5t53 -23.5z" />
    <glyph glyph-name="zero.oldstyle" horiz-adv-x="547" 
d="M242 -9q-56 0 -98.5 18.5t-69 52t-35 79.5t3.5 101l24 121q20 95 83.5 151t163.5 56q57 0 99.5 -18.5t68.5 -52t34.5 -80t-3.5 -101.5l-24 -120q-20 -95 -83.5 -151t-163.5 -56zM253 123q38 0 59.5 21t29.5 65l28 133q9 46 -11.5 70.5t-54.5 24.5q-39 0 -60 -20.5
t-29 -65.5l-28 -132q-10 -46 11 -71t55 -25z" />
    <glyph glyph-name="zero.oldstyle.zero" horiz-adv-x="547" 
d="M242 -9q-56 0 -98.5 18.5t-69 52t-35 79.5t3.5 101l24 121q20 95 83.5 151t163.5 56q57 0 99.5 -18.5t68.5 -52t34.5 -80t-3.5 -101.5l-24 -120q-20 -95 -83.5 -151t-163.5 -56zM253 123q38 0 59.5 21t29.5 65l10 51l-164 -93q7 -22 24.5 -33t40.5 -11zM204 302l164 93
q-8 20 -25 31t-39 11q-39 0 -60 -20.5t-29 -65.5z" />
    <glyph glyph-name="one.tnum" horiz-adv-x="590" 
d="M529 141l-30 -141h-497l30 141h173l89 420h-154l140 149h197l-121 -569h173z" />
    <glyph glyph-name="two.tnum" horiz-adv-x="590" 
d="M10 80q13 60 42 103t68 75.5t84 57t90 47.5q28 15 53 29.5t44 31t30.5 35.5t11.5 44q0 32 -20.5 51t-58.5 19q-41 0 -70 -24.5t-34 -64.5h-151q6 57 29.5 101.5t59.5 75t82 46t99 15.5q42 0 81.5 -13.5t70 -40t48.5 -64.5t18 -86q0 -52 -13 -91.5t-38.5 -71t-63.5 -58
t-88 -52.5q-15 -8 -36 -18.5t-42 -23t-38.5 -26.5t-23.5 -28h269l-32 -149h-488z" />
    <glyph glyph-name="three.tnum" horiz-adv-x="590" 
d="M291 -11q-46 0 -92 14t-82.5 44t-58 76.5t-16.5 110.5h145q0 -25 9 -43t23.5 -30t34 -17.5t40.5 -5.5q47 0 75 25.5t28 62.5q0 32 -26 54t-68 22h-64l26 121h51q56 0 81.5 24t24.5 62q-1 30 -23.5 47t-55.5 17q-20 0 -39 -6.5t-34 -18t-25 -28t-13 -36.5h-151
q5 62 30.5 107t64 74t85 43t92.5 14q49 0 89.5 -15t69 -40.5t44.5 -61t16 -75.5q0 -65 -28.5 -111t-80.5 -71q34 -19 56 -55t22 -81q0 -43 -15.5 -83t-46.5 -71t-78 -50t-110 -19z" />
    <glyph glyph-name="four.tnum" horiz-adv-x="590" 
d="M326 154h-347l26 122l454 434h136l-89 -418h91l-29 -138h-91l-33 -154h-151zM355 292l38 181l-189 -181h151z" />
    <glyph glyph-name="five.tnum" horiz-adv-x="590" 
d="M280 -11q-46 0 -90.5 14t-81 41.5t-61.5 69t-31 96.5h156q15 -35 44.5 -53.5t68.5 -18.5q22 0 41.5 8t34.5 21.5t24 32.5t9 42q0 16 -5 32.5t-16 30t-29 21.5t-44 8q-33 0 -63.5 -16t-50.5 -58l-134 45l167 405h372l-31 -146h-245l-46 -109q20 8 41.5 11.5t42.5 3.5
q44 0 79.5 -17.5t60.5 -47t38.5 -69t13.5 -82.5q0 -55 -15.5 -103.5t-48 -84.5t-82.5 -56.5t-119 -20.5z" />
    <glyph glyph-name="six.tnum" horiz-adv-x="590" 
d="M282 -11q-60 0 -106 18.5t-78 48.5t-48.5 68.5t-16.5 77.5t6.5 71.5t22 63.5t40.5 63t61 71l225 239h198l-232 -248q39 -3 73.5 -20t61 -44.5t41.5 -65.5t15 -84q0 -55 -18.5 -102t-52.5 -82t-82.5 -55t-109.5 -20zM283 134q47 0 76.5 30t29.5 78q0 38 -26.5 65t-68.5 27
q-47 0 -76.5 -30t-29.5 -78q0 -38 26.5 -65t68.5 -27z" />
    <glyph glyph-name="seven.tnum" horiz-adv-x="590" 
d="M426 564h-312l31 146h503l-28 -132l-439 -578h-183z" />
    <glyph glyph-name="eight.tnum" horiz-adv-x="590" 
d="M543 232q0 -64 -22 -110t-59.5 -75.5t-86 -43.5t-100.5 -14q-60 0 -105.5 18t-76.5 47.5t-46.5 67t-15.5 76.5q0 28 6.5 57.5t21.5 56.5t39.5 50t60.5 40q-41 46 -41 113q0 46 17.5 84t49.5 65.5t77 42.5t101 15q48 0 87 -14.5t66.5 -39t43 -57t16.5 -68.5
q1 -51 -24 -94.5t-71 -75.5q32 -29 47 -65t15 -76zM186 214q0 -36 23.5 -61.5t71.5 -24.5q50 1 78 30.5t28 73.5q0 17 -6 33t-18 28t-29.5 18.5t-41.5 6.5q-50 -1 -78 -31.5t-28 -72.5zM264 503q0 -35 21 -51.5t56 -16.5q41 1 65.5 24.5t24.5 61.5q0 35 -21 51.5t-56 16.5
q-41 -1 -65.5 -24.5t-24.5 -61.5z" />
    <glyph glyph-name="nine.tnum" horiz-adv-x="590" 
d="M275 249q-39 3 -73 20t-60 44.5t-41 65.5t-15 84q0 55 18.5 102t52.5 82t82.5 55t109.5 20q60 0 106 -18.5t78 -48.5t48.5 -68.5t16.5 -77.5t-6.5 -71.5t-22 -63.5t-40.5 -63t-61 -71l-225 -240h-200zM337 377q47 0 76.5 30t29.5 78q0 38 -26.5 65t-68.5 27
q-47 0 -76.5 -30t-29.5 -78q0 -38 26.5 -65t68.5 -27z" />
    <glyph glyph-name="zero.tnum" horiz-adv-x="590" 
d="M269 -11q-65 0 -114.5 23t-80.5 64t-41 97.5t4 124.5l33 162q25 120 98 191t195 71q65 0 114.5 -23t80 -64t41 -98t-3.5 -124l-33 -162q-12 -60 -36.5 -108.5t-61.5 -82.5t-85.5 -52.5t-109.5 -18.5zM278 138q110 0 136 125l37 175q7 32 2 57t-18.5 42.5t-34.5 26.5
t-46 9q-110 0 -136 -125l-37 -175q-7 -32 -2 -57t18.5 -42.5t34 -26.5t46.5 -9z" />
    <glyph glyph-name="zero.tnum.zero" horiz-adv-x="590" 
d="M268 -11q-65 0 -114.5 23t-80.5 64t-41 97.5t4 124.5l33 162q25 120 98 191t195 71q65 0 114.5 -23t80 -64t41 -98t-3.5 -124l-33 -162q-12 -60 -36.5 -108.5t-61.5 -82.5t-85.5 -52.5t-109.5 -18.5zM277 138q110 0 136 125l20 96l-255 -144q7 -37 34 -57t65 -20z
M196 351l255 145q-7 37 -33.5 57t-64.5 20q-110 0 -136 -125z" />
    <glyph glyph-name="uni21B2" unicode="&#x21b2;" horiz-adv-x="832" 
d="M38 249l306 306l83 -85l-160 -161h370v401h121v-521h-491l160 -160l-83 -86z" />
    <glyph glyph-name="uni21B3" unicode="&#x21b3;" horiz-adv-x="908" 
d="M560 -57l-83 86l160 160h-491v521h121v-401h370l-160 161l83 85l306 -306z" />
    <glyph glyph-name="uni21B0" unicode="&#x21b0;" horiz-adv-x="902" 
d="M644 -194v383h-370l160 -161l-83 -85l-306 306l306 306l83 -86l-160 -160h491v-503h-121z" />
    <glyph glyph-name="uni21B1" unicode="&#x21b1;" horiz-adv-x="822" 
d="M56 309h491l-160 160l83 86l306 -306l-306 -306l-83 85l160 161h-370v-383h-121v503z" />
    <glyph glyph-name="arrowleft" unicode="&#x2190;" horiz-adv-x="819" 
d="M41 249l306 306l83 -86l-160 -160h491v-120h-491l160 -160l-83 -86z" />
    <glyph glyph-name="arrowup" unicode="&#x2191;" horiz-adv-x="697" 
d="M321 493l-160 -161l-86 84l306 306l306 -306l-86 -84l-160 161v-493h-120v493z" />
    <glyph glyph-name="arrowright" unicode="&#x2192;" horiz-adv-x="821" 
d="M386 28l160 161h-491v120h491l-160 160l83 86l306 -306l-306 -306z" />
    <glyph glyph-name="arrowdown" unicode="&#x2193;" horiz-adv-x="693" 
d="M355 -12l-306 306l86 84l160 -161v493h120v-493l160 161l86 -84z" />
    <glyph glyph-name="uni2196" unicode="&#x2196;" horiz-adv-x="796" 
d="M631 -12l-381 380v-229h-120v433h433v-121h-228l380 -379z" />
    <glyph glyph-name="uni2197" unicode="&#x2197;" horiz-adv-x="670" 
d="M9 72l380 379h-228v121h433v-433h-120v229l-381 -380z" />
    <glyph glyph-name="uni2198" unicode="&#x2198;" horiz-adv-x="786" 
d="M246 121h228l-380 379l84 84l381 -380v229h120v-433h-433v121z" />
    <glyph glyph-name="uni2199" unicode="&#x2199;" horiz-adv-x="672" 
d="M591 584l84 -84l-380 -379h228v-121h-433v433h120v-229z" />
    <glyph glyph-name="onethird" unicode="&#x2153;" horiz-adv-x="888" 
d="M171 606h-97l96 104h128l-92 -432h-105zM32 0l651 710h136l-651 -710h-136zM683 -6q-28 0 -56.5 8.5t-51 27t-36 47.5t-10.5 70h100q2 -27 19 -38t39 -11q24 0 37 12t13 30q0 15 -11.5 27t-34.5 12h-41l18 82h30q31 0 43 13t11 31q-2 31 -40 31q-21 0 -37.5 -12
t-18.5 -31h-105q3 39 19 67t40 46t53 26t57 8q32 0 57.5 -9.5t43 -26t26.5 -38t9 -45.5q0 -79 -64 -110q18 -11 31.5 -33t13.5 -49q0 -25 -9.5 -49.5t-28.5 -43.5t-48 -30.5t-68 -11.5z" />
    <glyph glyph-name="uni2155" unicode="&#x2155;" horiz-adv-x="876" 
d="M171 606h-97l96 104h128l-92 -432h-105zM32 0l651 710h136l-651 -710h-136zM670 -6q-30 0 -58 8.5t-51 26t-38.5 43t-19.5 60.5h109q19 -34 59 -34q21 0 39 14.5t18 37.5q0 14 -9.5 29.5t-36.5 15.5q-45 0 -67 -46l-93 32l104 252h233l-21 -102h-145l-23 -51
q11 4 23.5 5.5t24.5 1.5q27 0 48.5 -10.5t36.5 -28t22.5 -41t7.5 -49.5q0 -34 -9.5 -64t-29.5 -52t-51 -35t-73 -13z" />
    <glyph glyph-name="uni2159" unicode="&#x2159;" horiz-adv-x="829" 
d="M171 606h-97l96 104h128l-92 -432h-105zM32 0l651 710h136l-651 -710h-136zM624 -6q-38 0 -66 11.5t-47.5 30t-29 41t-9.5 44.5q0 25 3.5 45t13 40t25.5 41.5t41 48.5l122 137h137l-134 -150q22 -3 42 -13t35 -26.5t23.5 -38.5t8.5 -49q0 -35 -11.5 -64.5t-33 -51.5
t-52 -34t-68.5 -12zM626 95q23 0 38.5 15t15.5 41q0 17 -13 30.5t-33 13.5q-24 0 -39.5 -15t-15.5 -41q0 -17 13 -30.5t34 -13.5z" />
    <glyph glyph-name="uni2150" unicode="&#x2150;" horiz-adv-x="915" 
d="M171 606h-97l96 104h128l-92 -432h-105zM32 0l651 710h136l-651 -710h-136zM787 331h-180l21 102h314l-20 -93l-262 -339h-127z" />
    <glyph glyph-name="oneeighth" unicode="&#x215b;" horiz-adv-x="879" 
d="M171 606h-97l96 104h128l-92 -432h-105zM32 0l651 710h136l-651 -710h-136zM661 -6q-37 0 -65 10.5t-47 28t-29 40.5t-10 47q0 16 3.5 33t11.5 33.5t22.5 31t37.5 25.5q-23 28 -23 67q0 56 41 93t116 37q57 0 94.5 -31t39.5 -79q1 -30 -14 -57.5t-44 -48.5q33 -35 33 -81
q0 -41 -14 -69t-37.5 -46t-53.5 -26t-62 -8zM665 91q28 0 41 15t13 38q0 20 -13.5 30.5t-33.5 10.5q-28 0 -41 -15t-13 -38q0 -20 13.5 -30.5t33.5 -10.5zM703 266q21 0 35 13.5t14 33.5q0 17 -11.5 26t-28.5 9q-21 0 -35 -13.5t-14 -33.5q0 -17 11.5 -26t28.5 -9z" />
    <glyph glyph-name="uni2151" unicode="&#x2151;" horiz-adv-x="881" 
d="M171 606h-97l96 104h128l-92 -432h-105zM32 0l651 710h136l-651 -710h-136zM658 151q-45 6 -76.5 39.5t-31.5 87.5q0 35 11.5 64.5t33 51.5t52 34t68.5 12q37 0 66 -11.5t48 -29.5t29 -41t10 -45q0 -25 -4 -45t-13.5 -40t-25.5 -41.5t-41 -48.5l-122 -137h-138zM705 239
q24 0 39.5 15t15.5 41q0 17 -12.5 30.5t-33.5 13.5q-24 0 -39.5 -15t-15.5 -41q0 -17 13 -30.5t33 -13.5z" />
    <glyph glyph-name="uni2152" unicode="&#x2152;" horiz-adv-x="1156" 
d="M171 606h-97l96 104h128l-92 -432h-105zM32 0l651 710h136l-651 -710h-136zM637 329h-97l96 104h128l-92 -432h-105zM926 -6q-41 0 -72 14.5t-50 40.5t-25.5 62t2.5 78l18 92q15 73 61 116t120 43q41 0 72 -14.5t50.5 -40.5t25.5 -61.5t-3 -78.5l-18 -92
q-15 -73 -61 -116t-120 -43zM932 98q32 0 48.5 16t23.5 49l22 101q7 35 -9.5 53.5t-42.5 18.5q-59 0 -72 -64l-21 -102q-8 -35 8.5 -53.5t42.5 -18.5z" />
    <glyph glyph-name="twothirds" unicode="&#x2154;" horiz-adv-x="982" 
d="M42 334q7 36 24 61.5t40.5 45t50.5 34.5t54 29q13 7 27.5 14.5t25.5 16t18.5 19t7.5 24.5q0 16 -9.5 25.5t-29.5 9.5q-22 0 -36 -13t-16 -30h-105q8 71 55 109t113 38q26 0 50.5 -8.5t43 -25t30 -40.5t11.5 -54q0 -32 -8 -56.5t-23.5 -43.5t-38 -34.5t-50.5 -30.5
q-5 -3 -15.5 -8t-21.5 -11t-20.5 -12t-12.5 -11h147l-22 -104h-302zM126 0l651 710h136l-651 -710h-136zM777 -6q-28 0 -56.5 8.5t-51 27t-36 47.5t-10.5 70h100q2 -27 19 -38t39 -11q24 0 37 12t13 30q0 15 -11.5 27t-34.5 12h-41l18 82h30q31 0 43 13t11 31q-2 31 -40 31
q-21 0 -37.5 -12t-18.5 -31h-105q3 39 19 67t40 46t53 26t57 8q32 0 57.5 -9.5t43 -26t26.5 -38t9 -45.5q0 -79 -64 -110q18 -11 31.5 -33t13.5 -49q0 -25 -9.5 -49.5t-28.5 -43.5t-48 -30.5t-68 -11.5z" />
    <glyph glyph-name="uni2156" unicode="&#x2156;" horiz-adv-x="970" 
d="M42 334q7 36 24 61.5t40.5 45t50.5 34.5t54 29q13 7 27.5 14.5t25.5 16t18.5 19t7.5 24.5q0 16 -9.5 25.5t-29.5 9.5q-22 0 -36 -13t-16 -30h-105q8 71 55 109t113 38q26 0 50.5 -8.5t43 -25t30 -40.5t11.5 -54q0 -32 -8 -56.5t-23.5 -43.5t-38 -34.5t-50.5 -30.5
q-5 -3 -15.5 -8t-21.5 -11t-20.5 -12t-12.5 -11h147l-22 -104h-302zM126 0l651 710h136l-651 -710h-136zM764 -6q-30 0 -58 8.5t-51 26t-38.5 43t-19.5 60.5h109q19 -34 59 -34q21 0 39 14.5t18 37.5q0 14 -9.5 29.5t-36.5 15.5q-45 0 -67 -46l-93 32l104 252h233l-21 -102
h-145l-23 -51q11 4 23.5 5.5t24.5 1.5q27 0 48.5 -10.5t36.5 -28t22.5 -41t7.5 -49.5q0 -34 -9.5 -64t-29.5 -52t-51 -35t-73 -13z" />
    <glyph glyph-name="uni2157" unicode="&#x2157;" horiz-adv-x="941" 
d="M217 271q-28 0 -56.5 8.5t-51 27t-36 47.5t-10.5 70h100q2 -27 19 -38t39 -11q24 0 37 12t13 30q0 15 -11.5 27t-34.5 12h-41l18 82h30q31 0 43 13t11 31q-2 31 -40 31q-21 0 -37.5 -12t-18.5 -31h-105q3 39 19 67t40 46t53 26t57 8q32 0 57.5 -9.5t43 -26t26.5 -38
t9 -45.5q0 -79 -64 -110q18 -11 31.5 -33t13.5 -49q0 -25 -9.5 -49.5t-28.5 -43.5t-48 -30.5t-68 -11.5zM97 0l651 710h136l-651 -710h-136zM735 -6q-30 0 -58 8.5t-51 26t-38.5 43t-19.5 60.5h109q19 -34 59 -34q21 0 39 14.5t18 37.5q0 14 -9.5 29.5t-36.5 15.5
q-45 0 -67 -46l-93 32l104 252h233l-21 -102h-145l-23 -51q11 4 23.5 5.5t24.5 1.5q27 0 48.5 -10.5t36.5 -28t22.5 -41t7.5 -49.5q0 -34 -9.5 -64t-29.5 -52t-51 -35t-73 -13z" />
    <glyph glyph-name="threeeighths" unicode="&#x215c;" horiz-adv-x="944" 
d="M217 271q-28 0 -56.5 8.5t-51 27t-36 47.5t-10.5 70h100q2 -27 19 -38t39 -11q24 0 37 12t13 30q0 15 -11.5 27t-34.5 12h-41l18 82h30q31 0 43 13t11 31q-2 31 -40 31q-21 0 -37.5 -12t-18.5 -31h-105q3 39 19 67t40 46t53 26t57 8q32 0 57.5 -9.5t43 -26t26.5 -38
t9 -45.5q0 -79 -64 -110q18 -11 31.5 -33t13.5 -49q0 -25 -9.5 -49.5t-28.5 -43.5t-48 -30.5t-68 -11.5zM97 0l651 710h136l-651 -710h-136zM726 -6q-37 0 -65 10.5t-47 28t-29 40.5t-10 47q0 16 3.5 33t11.5 33.5t22.5 31t37.5 25.5q-23 28 -23 67q0 56 41 93t116 37
q57 0 94.5 -31t39.5 -79q1 -30 -14 -57.5t-44 -48.5q33 -35 33 -81q0 -41 -14 -69t-37.5 -46t-53.5 -26t-62 -8zM730 91q28 0 41 15t13 38q0 20 -13.5 30.5t-33.5 10.5q-28 0 -41 -15t-13 -38q0 -20 13.5 -30.5t33.5 -10.5zM768 266q21 0 35 13.5t14 33.5q0 17 -11.5 26
t-28.5 9q-21 0 -35 -13.5t-14 -33.5q0 -17 11.5 -26t28.5 -9z" />
    <glyph glyph-name="uni2158" unicode="&#x2158;" horiz-adv-x="964" 
d="M239 364h-204l18 85l270 261h95l-54 -251h54l-20 -95h-54l-18 -86h-105zM259 459l18 86l-89 -86h71zM120 0l651 710h136l-651 -710h-136zM758 -6q-30 0 -58 8.5t-51 26t-38.5 43t-19.5 60.5h109q19 -34 59 -34q21 0 39 14.5t18 37.5q0 14 -9.5 29.5t-36.5 15.5
q-45 0 -67 -46l-93 32l104 252h233l-21 -102h-145l-23 -51q11 4 23.5 5.5t24.5 1.5q27 0 48.5 -10.5t36.5 -28t22.5 -41t7.5 -49.5q0 -34 -9.5 -64t-29.5 -52t-51 -35t-73 -13z" />
    <glyph glyph-name="uni215A" unicode="&#x215a;" horiz-adv-x="895" 
d="M214 271q-30 0 -58 8.5t-51 26t-38.5 43t-19.5 60.5h109q19 -34 59 -34q21 0 39 14.5t18 37.5q0 14 -9.5 29.5t-36.5 15.5q-45 0 -67 -46l-93 32l104 252h233l-21 -102h-145l-23 -51q11 4 23.5 5.5t24.5 1.5q27 0 48.5 -10.5t36.5 -28t22.5 -41t7.5 -49.5q0 -34 -9.5 -64
t-29.5 -52t-51 -35t-73 -13zM98 0l651 710h136l-651 -710h-136zM690 -6q-38 0 -66 11.5t-47.5 30t-29 41t-9.5 44.5q0 25 3.5 45t13 40t25.5 41.5t41 48.5l122 137h137l-134 -150q22 -3 42 -13t35 -26.5t23.5 -38.5t8.5 -49q0 -35 -11.5 -64.5t-33 -51.5t-52 -34t-68.5 -12z
M692 95q23 0 38.5 15t15.5 41q0 17 -13 30.5t-33 13.5q-24 0 -39.5 -15t-15.5 -41q0 -17 13 -30.5t34 -13.5z" />
    <glyph glyph-name="fiveeighths" unicode="&#x215d;" horiz-adv-x="945" 
d="M214 271q-30 0 -58 8.5t-51 26t-38.5 43t-19.5 60.5h109q19 -34 59 -34q21 0 39 14.5t18 37.5q0 14 -9.5 29.5t-36.5 15.5q-45 0 -67 -46l-93 32l104 252h233l-21 -102h-145l-23 -51q11 4 23.5 5.5t24.5 1.5q27 0 48.5 -10.5t36.5 -28t22.5 -41t7.5 -49.5q0 -34 -9.5 -64
t-29.5 -52t-51 -35t-73 -13zM98 0l651 710h136l-651 -710h-136zM727 -6q-37 0 -65 10.5t-47 28t-29 40.5t-10 47q0 16 3.5 33t11.5 33.5t22.5 31t37.5 25.5q-23 28 -23 67q0 56 41 93t116 37q57 0 94.5 -31t39.5 -79q1 -30 -14 -57.5t-44 -48.5q33 -35 33 -81q0 -41 -14 -69
t-37.5 -46t-53.5 -26t-62 -8zM731 91q28 0 41 15t13 38q0 20 -13.5 30.5t-33.5 10.5q-28 0 -41 -15t-13 -38q0 -20 13.5 -30.5t33.5 -10.5zM769 266q21 0 35 13.5t14 33.5q0 17 -11.5 26t-28.5 9q-21 0 -35 -13.5t-14 -33.5q0 -17 11.5 -26t28.5 -9z" />
    <glyph glyph-name="seveneighths" unicode="&#x215e;" horiz-adv-x="865" 
d="M280 608h-180l21 102h314l-20 -93l-262 -339h-127zM18 0l651 710h136l-651 -710h-136zM647 -6q-37 0 -65 10.5t-47 28t-29 40.5t-10 47q0 16 3.5 33t11.5 33.5t22.5 31t37.5 25.5q-23 28 -23 67q0 56 41 93t116 37q57 0 94.5 -31t39.5 -79q1 -30 -14 -57.5t-44 -48.5
q33 -35 33 -81q0 -41 -14 -69t-37.5 -46t-53.5 -26t-62 -8zM651 91q28 0 41 15t13 38q0 20 -13.5 30.5t-33.5 10.5q-28 0 -41 -15t-13 -38q0 -20 13.5 -30.5t33.5 -10.5zM689 266q21 0 35 13.5t14 33.5q0 17 -11.5 26t-28.5 9q-21 0 -35 -13.5t-14 -33.5q0 -17 11.5 -26
t28.5 -9z" />
    <glyph glyph-name="uni215F" unicode="&#x215f;" horiz-adv-x="493" 
d="M171 606h-97l96 104h128l-92 -432h-105zM32 0l651 710h136l-651 -710h-136z" />
    <glyph glyph-name="fraction" unicode="&#x2044;" horiz-adv-x="180" 
d="M-281 0l651 710h136l-651 -710h-136z" />
    <glyph glyph-name="uni2074" unicode="&#x2074;" horiz-adv-x="394" 
d="M267 496h-204l18 85l270 261h95l-54 -251h54l-20 -95h-54l-18 -86h-105zM287 591l18 86l-89 -86h71z" />
    <glyph glyph-name="uni2075" unicode="&#x2075;" horiz-adv-x="361" 
d="M242 403q-30 0 -58 8.5t-51 26t-38.5 43t-19.5 60.5h109q19 -34 59 -34q21 0 39 14.5t18 37.5q0 14 -9.5 29.5t-36.5 15.5q-45 0 -67 -46l-93 32l104 252h233l-21 -102h-145l-23 -51q11 4 23.5 5.5t24.5 1.5q27 0 48.5 -10.5t36.5 -28t22.5 -41t7.5 -49.5q0 -34 -9.5 -64
t-29.5 -52t-51 -35t-73 -13z" />
    <glyph glyph-name="uni2076" unicode="&#x2076;" horiz-adv-x="353" 
d="M235 403q-38 0 -66 11.5t-47.5 30t-29 41t-9.5 44.5q0 25 3.5 45t13 40t25.5 41.5t41 48.5l122 137h137l-134 -150q22 -3 42 -13t35 -26.5t23.5 -38.5t8.5 -49q0 -35 -11.5 -64.5t-33 -51.5t-52 -34t-68.5 -12zM237 504q23 0 38.5 15t15.5 41q0 17 -13 30.5t-33 13.5
q-24 0 -39.5 -15t-15.5 -41q0 -17 13 -30.5t34 -13.5z" />
    <glyph glyph-name="uni2077" unicode="&#x2077;" horiz-adv-x="349" 
d="M308 740h-180l21 102h314l-20 -93l-262 -339h-127z" />
    <glyph glyph-name="uni2078" unicode="&#x2078;" horiz-adv-x="366" 
d="M235 403q-37 0 -65 10.5t-47 28t-29 40.5t-10 47q0 16 3.5 33t11.5 33.5t22.5 31t37.5 25.5q-23 28 -23 67q0 56 41 93t116 37q57 0 94.5 -31t39.5 -79q1 -30 -14 -57.5t-44 -48.5q33 -35 33 -81q0 -41 -14 -69t-37.5 -46t-53.5 -26t-62 -8zM239 500q28 0 41 15t13 38
q0 20 -13.5 30.5t-33.5 10.5q-28 0 -41 -15t-13 -38q0 -20 13.5 -30.5t33.5 -10.5zM277 675q21 0 35 13.5t14 33.5q0 17 -11.5 26t-28.5 9q-21 0 -35 -13.5t-14 -33.5q0 -17 11.5 -26t28.5 -9z" />
    <glyph glyph-name="uni2079" unicode="&#x2079;" horiz-adv-x="353" 
d="M217 560q-45 6 -76.5 39.5t-31.5 87.5q0 35 11.5 64.5t33 51.5t52 34t68.5 12q37 0 66 -11.5t48 -29.5t29 -41t10 -45q0 -25 -4 -45t-13.5 -40t-25.5 -41.5t-41 -48.5l-122 -137h-138zM264 648q24 0 39.5 15t15.5 41q0 17 -12.5 30.5t-33.5 13.5q-24 0 -39.5 -15
t-15.5 -41q0 -17 13 -30.5t33 -13.5z" />
    <glyph glyph-name="uni2070" unicode="&#x2070;" horiz-adv-x="388" 
d="M245 403q-41 0 -72 14.5t-50 40.5t-25.5 62t2.5 78l18 92q15 73 61 116t120 43q41 0 72 -14.5t50.5 -40.5t25.5 -61.5t-3 -78.5l-18 -92q-15 -73 -61 -116t-120 -43zM251 507q32 0 48.5 16t23.5 49l22 101q7 35 -9.5 53.5t-42.5 18.5q-59 0 -72 -64l-21 -102
q-8 -35 8.5 -53.5t42.5 -18.5z" />
    <glyph glyph-name="uni2070.aalt" horiz-adv-x="388" 
d="M245 403q-41 0 -72 14.5t-50 40.5t-25.5 62t2.5 78l18 92q15 73 61 116t120 43q41 0 72 -14.5t50.5 -40.5t25.5 -61.5t-3 -78.5l-18 -92q-15 -73 -61 -116t-120 -43zM251 507q32 0 48.5 16t23.5 49l9 42l-134 -64q3 -21 18 -32t35 -11zM212 638l133 64q-4 21 -18 32
t-34 11q-59 0 -72 -64z" />
    <glyph glyph-name="uni2081" unicode="&#x2081;" horiz-adv-x="244" 
d="M88 214h-97l96 104h128l-92 -432h-105z" />
    <glyph glyph-name="uni2082" unicode="&#x2082;" horiz-adv-x="358" 
d="M-41 -58q7 36 24 61.5t40.5 45t50.5 34.5t54 29q13 7 27.5 14.5t25.5 16t18.5 19t7.5 24.5q0 16 -9.5 25.5t-29.5 9.5q-22 0 -36 -13t-16 -30h-105q8 71 55 109t113 38q26 0 50.5 -8.5t43 -25t30 -40.5t11.5 -54q0 -32 -8 -56.5t-23.5 -43.5t-38 -34.5t-50.5 -30.5
q-5 -3 -15.5 -8t-21.5 -11t-20.5 -12t-12.5 -11h147l-22 -104h-302z" />
    <glyph glyph-name="uni2083" unicode="&#x2083;" horiz-adv-x="363" 
d="M134 -121q-28 0 -56.5 8.5t-51 27t-36 47.5t-10.5 70h100q2 -27 19 -38t39 -11q24 0 37 12t13 30q0 15 -11.5 27t-34.5 12h-41l18 82h30q31 0 43 13t11 31q-2 31 -40 31q-21 0 -37.5 -12t-18.5 -31h-105q3 39 19 67t40 46t53 26t57 8q32 0 57.5 -9.5t43 -26t26.5 -38
t9 -45.5q0 -79 -64 -110q18 -11 31.5 -33t13.5 -49q0 -25 -9.5 -49.5t-28.5 -43.5t-48 -30.5t-68 -11.5z" />
    <glyph glyph-name="uni2084" unicode="&#x2084;" horiz-adv-x="394" 
d="M157 -28h-204l18 85l270 261h95l-54 -251h54l-20 -95h-54l-18 -86h-105zM177 67l18 86l-89 -86h71z" />
    <glyph glyph-name="uni2085" unicode="&#x2085;" horiz-adv-x="361" 
d="M132 -121q-30 0 -58 8.5t-51 26t-38.5 43t-19.5 60.5h109q19 -34 59 -34q21 0 39 14.5t18 37.5q0 14 -9.5 29.5t-36.5 15.5q-45 0 -67 -46l-93 32l104 252h233l-21 -102h-145l-23 -51q11 4 23.5 5.5t24.5 1.5q27 0 48.5 -10.5t36.5 -28t22.5 -41t7.5 -49.5
q0 -34 -9.5 -64t-29.5 -52t-51 -35t-73 -13z" />
    <glyph glyph-name="uni2086" unicode="&#x2086;" horiz-adv-x="353" 
d="M124 -121q-38 0 -66 11.5t-47.5 30t-29 41t-9.5 44.5q0 25 3.5 45t13 40t25.5 41.5t41 48.5l122 137h137l-134 -150q22 -3 42 -13t35 -26.5t23.5 -38.5t8.5 -49q0 -35 -11.5 -64.5t-33 -51.5t-52 -34t-68.5 -12zM126 -20q23 0 38.5 15t15.5 41q0 17 -13 30.5t-33 13.5
q-24 0 -39.5 -15t-15.5 -41q0 -17 13 -30.5t34 -13.5z" />
    <glyph glyph-name="uni2087" unicode="&#x2087;" horiz-adv-x="349" 
d="M197 216h-180l21 102h314l-20 -93l-262 -339h-127z" />
    <glyph glyph-name="uni2088" unicode="&#x2088;" horiz-adv-x="366" 
d="M124 -121q-37 0 -65 10.5t-47 28t-29 40.5t-10 47q0 16 3.5 33t11.5 33.5t22.5 31t37.5 25.5q-23 28 -23 67q0 56 41 93t116 37q57 0 94.5 -31t39.5 -79q1 -30 -14 -57.5t-44 -48.5q33 -35 33 -81q0 -41 -14 -69t-37.5 -46t-53.5 -26t-62 -8zM128 -24q28 0 41 15t13 38
q0 20 -13.5 30.5t-33.5 10.5q-28 0 -41 -15t-13 -38q0 -20 13.5 -30.5t33.5 -10.5zM166 151q21 0 35 13.5t14 33.5q0 17 -11.5 26t-28.5 9q-21 0 -35 -13.5t-14 -33.5q0 -17 11.5 -26t28.5 -9z" />
    <glyph glyph-name="uni2089" unicode="&#x2089;" horiz-adv-x="353" 
d="M107 36q-45 6 -76.5 39.5t-31.5 87.5q0 35 11.5 64.5t33 51.5t52 34t68.5 12q37 0 66 -11.5t48 -29.5t29 -41t10 -45q0 -25 -4 -45t-13.5 -40t-25.5 -41.5t-41 -48.5l-122 -137h-138zM154 124q24 0 39.5 15t15.5 41q0 17 -12.5 30.5t-33.5 13.5q-24 0 -39.5 -15
t-15.5 -41q0 -17 13 -30.5t33 -13.5z" />
    <glyph glyph-name="uni2080" unicode="&#x2080;" horiz-adv-x="388" 
d="M134 -121q-41 0 -72 14.5t-50 40.5t-25.5 62t2.5 78l18 92q15 73 61 116t120 43q41 0 72 -14.5t50.5 -40.5t25.5 -61.5t-3 -78.5l-18 -92q-15 -73 -61 -116t-120 -43zM140 -17q32 0 48.5 16t23.5 49l22 101q7 35 -9.5 53.5t-42.5 18.5q-59 0 -72 -64l-21 -102
q-8 -35 8.5 -53.5t42.5 -18.5z" />
    <glyph glyph-name="uni2080.aalt" horiz-adv-x="387" 
d="M133 -122q-41 0 -72 14.5t-50 40.5t-25.5 62t2.5 78l18 92q15 73 61 116t120 43q41 0 72 -14.5t50.5 -40.5t25.5 -61.5t-3 -78.5l-18 -92q-15 -73 -61 -116t-120 -43zM139 -18q32 0 48.5 16t23.5 49l9 42l-134 -64q3 -20 18 -31.5t35 -11.5zM100 113l133 64q-4 21 -18 32
t-34 11q-59 0 -72 -64z" />
    <glyph glyph-name="one.numr" horiz-adv-x="244" 
d="M171 606h-97l96 104h128l-92 -432h-105z" />
    <glyph glyph-name="two.numr" horiz-adv-x="358" 
d="M42 334q7 36 24 61.5t40.5 45t50.5 34.5t54 29q13 7 27.5 14.5t25.5 16t18.5 19t7.5 24.5q0 16 -9.5 25.5t-29.5 9.5q-22 0 -36 -13t-16 -30h-105q8 71 55 109t113 38q26 0 50.5 -8.5t43 -25t30 -40.5t11.5 -54q0 -32 -8 -56.5t-23.5 -43.5t-38 -34.5t-50.5 -30.5
q-5 -3 -15.5 -8t-21.5 -11t-20.5 -12t-12.5 -11h147l-22 -104h-302z" />
    <glyph glyph-name="three.numr" horiz-adv-x="363" 
d="M217 271q-28 0 -56.5 8.5t-51 27t-36 47.5t-10.5 70h100q2 -27 19 -38t39 -11q24 0 37 12t13 30q0 15 -11.5 27t-34.5 12h-41l18 82h30q31 0 43 13t11 31q-2 31 -40 31q-21 0 -37.5 -12t-18.5 -31h-105q3 39 19 67t40 46t53 26t57 8q32 0 57.5 -9.5t43 -26t26.5 -38
t9 -45.5q0 -79 -64 -110q18 -11 31.5 -33t13.5 -49q0 -25 -9.5 -49.5t-28.5 -43.5t-48 -30.5t-68 -11.5z" />
    <glyph glyph-name="four.numr" horiz-adv-x="394" 
d="M239 364h-204l18 85l270 261h95l-54 -251h54l-20 -95h-54l-18 -86h-105zM259 459l18 86l-89 -86h71z" />
    <glyph glyph-name="five.numr" horiz-adv-x="361" 
d="M214 271q-30 0 -58 8.5t-51 26t-38.5 43t-19.5 60.5h109q19 -34 59 -34q21 0 39 14.5t18 37.5q0 14 -9.5 29.5t-36.5 15.5q-45 0 -67 -46l-93 32l104 252h233l-21 -102h-145l-23 -51q11 4 23.5 5.5t24.5 1.5q27 0 48.5 -10.5t36.5 -28t22.5 -41t7.5 -49.5q0 -34 -9.5 -64
t-29.5 -52t-51 -35t-73 -13z" />
    <glyph glyph-name="six.numr" horiz-adv-x="353" 
d="M207 271q-38 0 -66 11.5t-47.5 30t-29 41t-9.5 44.5q0 25 3.5 45t13 40t25.5 41.5t41 48.5l122 137h137l-134 -150q22 -3 42 -13t35 -26.5t23.5 -38.5t8.5 -49q0 -35 -11.5 -64.5t-33 -51.5t-52 -34t-68.5 -12zM209 372q23 0 38.5 15t15.5 41q0 17 -13 30.5t-33 13.5
q-24 0 -39.5 -15t-15.5 -41q0 -17 13 -30.5t34 -13.5z" />
    <glyph glyph-name="seven.numr" horiz-adv-x="349" 
d="M280 608h-180l21 102h314l-20 -93l-262 -339h-127z" />
    <glyph glyph-name="eight.numr" horiz-adv-x="366" 
d="M207 271q-37 0 -65 10.5t-47 28t-29 40.5t-10 47q0 16 3.5 33t11.5 33.5t22.5 31t37.5 25.5q-23 28 -23 67q0 56 41 93t116 37q57 0 94.5 -31t39.5 -79q1 -30 -14 -57.5t-44 -48.5q33 -35 33 -81q0 -41 -14 -69t-37.5 -46t-53.5 -26t-62 -8zM211 368q28 0 41 15t13 38
q0 20 -13.5 30.5t-33.5 10.5q-28 0 -41 -15t-13 -38q0 -20 13.5 -30.5t33.5 -10.5zM249 543q21 0 35 13.5t14 33.5q0 17 -11.5 26t-28.5 9q-21 0 -35 -13.5t-14 -33.5q0 -17 11.5 -26t28.5 -9z" />
    <glyph glyph-name="nine.numr" horiz-adv-x="353" 
d="M189 428q-45 6 -76.5 39.5t-31.5 87.5q0 35 11.5 64.5t33 51.5t52 34t68.5 12q37 0 66 -11.5t48 -29.5t29 -41t10 -45q0 -25 -4 -45t-13.5 -40t-25.5 -41.5t-41 -48.5l-122 -137h-138zM236 516q24 0 39.5 15t15.5 41q0 17 -12.5 30.5t-33.5 13.5q-24 0 -39.5 -15
t-15.5 -41q0 -17 13 -30.5t33 -13.5z" />
    <glyph glyph-name="zero.numr" horiz-adv-x="388" 
d="M217 271q-41 0 -72 14.5t-50 40.5t-25.5 62t2.5 78l18 92q15 73 61 116t120 43q41 0 72 -14.5t50.5 -40.5t25.5 -61.5t-3 -78.5l-18 -92q-15 -73 -61 -116t-120 -43zM223 375q32 0 48.5 16t23.5 49l22 101q7 35 -9.5 53.5t-42.5 18.5q-59 0 -72 -64l-21 -102
q-8 -35 8.5 -53.5t42.5 -18.5z" />
    <glyph glyph-name="zero.numr.zero" horiz-adv-x="388" 
d="M217 271q-41 0 -72 14.5t-50 40.5t-25.5 62t2.5 78l18 92q15 73 61 116t120 43q41 0 72 -14.5t50.5 -40.5t25.5 -61.5t-3 -78.5l-18 -92q-15 -73 -61 -116t-120 -43zM223 375q32 0 48.5 16t23.5 49l9 42l-134 -64q3 -21 18 -32t35 -11zM184 506l133 64q-4 21 -18 32
t-34 11q-59 0 -72 -64z" />
    <glyph glyph-name="one.dnom" horiz-adv-x="244" 
d="M114 329h-97l96 104h128l-92 -432h-105z" />
    <glyph glyph-name="two.dnom" horiz-adv-x="358" 
d="M-16 57q7 36 24 61.5t40.5 45t50.5 34.5t54 29q13 7 27.5 14.5t25.5 16t18.5 19t7.5 24.5q0 16 -9.5 25.5t-29.5 9.5q-22 0 -36 -13t-16 -30h-105q8 71 55 109t113 38q26 0 50.5 -8.5t43 -25t30 -40.5t11.5 -54q0 -32 -8 -56.5t-23.5 -43.5t-38 -34.5t-50.5 -30.5
q-5 -3 -15.5 -8t-21.5 -11t-20.5 -12t-12.5 -11h147l-22 -104h-302z" />
    <glyph glyph-name="three.dnom" horiz-adv-x="363" 
d="M159 -6q-28 0 -56.5 8.5t-51 27t-36 47.5t-10.5 70h100q2 -27 19 -38t39 -11q24 0 37 12t13 30q0 15 -11.5 27t-34.5 12h-41l18 82h30q31 0 43 13t11 31q-2 31 -40 31q-21 0 -37.5 -12t-18.5 -31h-105q3 39 19 67t40 46t53 26t57 8q32 0 57.5 -9.5t43 -26t26.5 -38
t9 -45.5q0 -79 -64 -110q18 -11 31.5 -33t13.5 -49q0 -25 -9.5 -49.5t-28.5 -43.5t-48 -30.5t-68 -11.5z" />
    <glyph glyph-name="four.dnom" horiz-adv-x="394" 
d="M181 87h-204l18 85l270 261h95l-54 -251h54l-20 -95h-54l-18 -86h-105zM201 182l18 86l-89 -86h71z" />
    <glyph glyph-name="five.dnom" horiz-adv-x="361" 
d="M156 -6q-30 0 -58 8.5t-51 26t-38.5 43t-19.5 60.5h109q19 -34 59 -34q21 0 39 14.5t18 37.5q0 14 -9.5 29.5t-36.5 15.5q-45 0 -67 -46l-93 32l104 252h233l-21 -102h-145l-23 -51q11 4 23.5 5.5t24.5 1.5q27 0 48.5 -10.5t36.5 -28t22.5 -41t7.5 -49.5q0 -34 -9.5 -64
t-29.5 -52t-51 -35t-73 -13z" />
    <glyph glyph-name="six.dnom" horiz-adv-x="353" 
d="M149 -6q-38 0 -66 11.5t-47.5 30t-29 41t-9.5 44.5q0 25 3.5 45t13 40t25.5 41.5t41 48.5l122 137h137l-134 -150q22 -3 42 -13t35 -26.5t23.5 -38.5t8.5 -49q0 -35 -11.5 -64.5t-33 -51.5t-52 -34t-68.5 -12zM151 95q23 0 38.5 15t15.5 41q0 17 -13 30.5t-33 13.5
q-24 0 -39.5 -15t-15.5 -41q0 -17 13 -30.5t34 -13.5z" />
    <glyph glyph-name="seven.dnom" horiz-adv-x="349" 
d="M222 331h-180l21 102h314l-20 -93l-262 -339h-127z" />
    <glyph glyph-name="eight.dnom" horiz-adv-x="366" 
d="M149 -6q-37 0 -65 10.5t-47 28t-29 40.5t-10 47q0 16 3.5 33t11.5 33.5t22.5 31t37.5 25.5q-23 28 -23 67q0 56 41 93t116 37q57 0 94.5 -31t39.5 -79q1 -30 -14 -57.5t-44 -48.5q33 -35 33 -81q0 -41 -14 -69t-37.5 -46t-53.5 -26t-62 -8zM153 91q28 0 41 15t13 38
q0 20 -13.5 30.5t-33.5 10.5q-28 0 -41 -15t-13 -38q0 -20 13.5 -30.5t33.5 -10.5zM191 266q21 0 35 13.5t14 33.5q0 17 -11.5 26t-28.5 9q-21 0 -35 -13.5t-14 -33.5q0 -17 11.5 -26t28.5 -9z" />
    <glyph glyph-name="nine.dnom" horiz-adv-x="353" 
d="M131 151q-45 6 -76.5 39.5t-31.5 87.5q0 35 11.5 64.5t33 51.5t52 34t68.5 12q37 0 66 -11.5t48 -29.5t29 -41t10 -45q0 -25 -4 -45t-13.5 -40t-25.5 -41.5t-41 -48.5l-122 -137h-138zM178 239q24 0 39.5 15t15.5 41q0 17 -12.5 30.5t-33.5 13.5q-24 0 -39.5 -15
t-15.5 -41q0 -17 13 -30.5t33 -13.5z" />
    <glyph glyph-name="zero.dnom" horiz-adv-x="388" 
d="M159 -6q-41 0 -72 14.5t-50 40.5t-25.5 62t2.5 78l18 92q15 73 61 116t120 43q41 0 72 -14.5t50.5 -40.5t25.5 -61.5t-3 -78.5l-18 -92q-15 -73 -61 -116t-120 -43zM165 98q32 0 48.5 16t23.5 49l22 101q7 35 -9.5 53.5t-42.5 18.5q-59 0 -72 -64l-21 -102
q-8 -35 8.5 -53.5t42.5 -18.5z" />
    <glyph glyph-name="zero.dnom.zero" horiz-adv-x="388" 
d="M158 -7q-41 0 -72 14.5t-50 40.5t-25.5 62t2.5 78l18 92q15 73 61 116t120 43q41 0 72 -14.5t50.5 -40.5t25.5 -61.5t-3 -78.5l-18 -92q-15 -73 -61 -116t-120 -43zM164 97q32 0 48.5 16t23.5 49l9 42l-134 -64q3 -21 18 -32t35 -11zM125 228l133 64q-4 21 -18 32t-34 11
q-59 0 -72 -64z" />
    <glyph glyph-name="hyphen.aalt" horiz-adv-x="412" 
d="M94 427h294l-31 -144h-294z" />
    <glyph glyph-name="uni00AD.aalt" horiz-adv-x="412" 
d="M94 427h294l-31 -144h-294z" />
    <glyph glyph-name="endash.aalt" horiz-adv-x="601" 
d="M94 427h483l-31 -144h-483z" />
    <glyph glyph-name="emdash.aalt" horiz-adv-x="957" 
d="M94 427h839l-31 -144h-839z" />
    <glyph glyph-name="questiondown.aalt" horiz-adv-x="542" 
d="M239 -11q-47 0 -85.5 13.5t-67 38t-44 59.5t-15.5 77q0 43 15 76t37 58t47 43t46 31q22 14 44.5 28.5t34.5 34.5h157q-7 -31 -21 -55t-32.5 -43t-39 -33.5t-39.5 -25.5q-48 -27 -73 -49t-25 -52q0 -24 19.5 -38t51.5 -14q37 0 65.5 20t38.5 58h151q-8 -62 -34 -105
t-63 -70t-81 -39.5t-87 -12.5zM362 508q-22 0 -41.5 8.5t-34 23t-23 34t-8.5 41.5t8.5 41.5t23 34t34 23t41.5 8.5t41.5 -8.5t34 -23t23 -34t8.5 -41.5t-8.5 -41.5t-23 -34t-34 -23t-41.5 -8.5z" />
    <glyph glyph-name="exclamdown.aalt" horiz-adv-x="301" 
d="M229 263l-56 -263h-152l56 263l69 184h93zM226 508q-22 0 -41.5 8.5t-34 23t-23 34t-8.5 41.5t8.5 41.5t23 34t34 23t41.5 8.5t41.5 -8.5t34 -23t23 -34t8.5 -41.5t-8.5 -41.5t-23 -34t-34 -23t-41.5 -8.5z" />
    <glyph glyph-name="guilsinglleft.aalt" horiz-adv-x="357" 
d="M241 572h135l-170 -236l73 -198h-123l-103 217z" />
    <glyph glyph-name="guilsinglright.aalt" horiz-adv-x="356" 
d="M155.99 140.991h-134.991l169.989 235.985l-72.9951 197.988h122.992l102.993 -216.986z" />
    <glyph glyph-name="guillemotleft.aalt" horiz-adv-x="568" 
d="M452 572h135l-170 -236l73 -198h-123l-103 217zM241 572h135l-170 -236l73 -198h-123l-103 217z" />
    <glyph glyph-name="guillemotright.aalt" horiz-adv-x="567" 
d="M-54.9971 140.991h-134.991l169.989 235.985l-72.9951 197.988h122.992l102.994 -216.986zM155.99 140.991h-134.991l169.989 235.985l-72.9951 197.988h122.992l102.993 -216.986z" />
    <glyph glyph-name="parenleft.aalt" horiz-adv-x="338" 
d="M139 -121q-15 39 -29 86t-25.5 100t-18 109.5t-6.5 113.5q0 76 14.5 151t43 146t70 136.5t97.5 122.5h137q-67 -72 -112.5 -141t-73 -136t-39.5 -132.5t-12 -129.5q0 -54 3 -103t10.5 -99t21 -104.5t34.5 -119.5h-115z" />
    <glyph glyph-name="parenright.aalt" horiz-adv-x="338" 
d="M242.985 844.948q14.999 -38.9971 28.998 -85.9941t25.498 -99.9941q11.5 -52.9971 17.999 -109.493q6.5 -56.4971 6.5 -113.493q0 -75.9951 -14.499 -150.991q-14.499 -74.9951 -42.998 -145.991q-28.498 -70.9951 -69.9951 -136.491
q-41.498 -65.4961 -97.4941 -122.492h-136.992q66.9961 71.9951 112.493 140.991q45.498 68.9951 72.9961 135.991t39.4971 132.492q12 65.4961 12 129.492q0 53.9961 -3 102.993t-10.499 98.9941q-7.5 49.9971 -20.999 104.494q-13.499 54.4961 -34.498 119.492h114.993z
" />
    <glyph glyph-name="bracketleft.aalt" horiz-adv-x="340" 
d="M197 835h230l-23 -108h-104l-158 -744h104l-23 -108h-230z" />
    <glyph glyph-name="bracketright.aalt" horiz-adv-x="340" 
d="M183.988 -124.992h-229.985l22.998 107.993h103.994l157.99 743.955h-103.993l22.998 107.993h229.986z" />
    <glyph glyph-name="braceleft.aalt" horiz-adv-x="354" 
d="M184 -125q-36 0 -66 11.5t-49.5 33t-26.5 52.5t1 71l45 213q5 22 -3.5 38.5t-37.5 16.5h-8l23 108h8q29 0 44 15.5t20 37.5l47 221q7 36 19.5 62.5t33 44.5t49.5 26.5t70 8.5h89l-23 -108h-48q-31 0 -46 -12.5t-22 -44.5l-46 -217q-11 -50 -33 -70.5t-51 -27.5
q26 -7 38 -33.5t3 -70.5l-45 -211q-12 -57 44 -57h48l-23 -108h-54z" />
    <glyph glyph-name="braceright.aalt" horiz-adv-x="355" 
d="M211.987 835.949q35.9971 0 65.9961 -11.5q29.998 -11.499 49.4971 -32.9971q19.498 -21.499 26.498 -52.4971q6.99902 -30.998 -1 -70.9961l-44.9971 -212.986q-5 -21.999 3.5 -38.498q8.49902 -16.499 37.4971 -16.499h8l-22.999 -107.993h-7.99902
q-28.999 0 -43.998 -15.499t-19.998 -37.498l-46.9971 -220.986q-7 -35.998 -19.499 -62.4961q-12.499 -26.499 -32.998 -44.4971q-20.499 -17.999 -49.4971 -26.499q-28.998 -8.49902 -69.9961 -8.49902h-88.9941l22.998 107.993h47.9971q30.998 0 45.998 12.499
q14.999 12.499 21.998 44.4971l45.9971 216.987q11 49.9971 32.998 70.4951q21.999 20.499 50.9971 27.499q-25.998 6.99902 -37.998 33.498q-11.999 26.498 -2.99902 70.4951l44.9971 210.987q11.999 56.9961 -43.9971 56.9961h-47.9971l22.998 107.994h53.9971z" />
    <glyph glyph-name="bar.aalt" horiz-adv-x="339" 
d="M127 765h126v-820h-126v820z" />
    <glyph glyph-name="brokenbar.aalt" horiz-adv-x="339" 
d="M127 288h126v-343h-126v343zM127 765h126v-343h-126v343z" />
    <glyph glyph-name="periodcentered.aalt" horiz-adv-x="299" 
d="M167 248q-22 0 -41.5 8.5t-34 23t-23 34t-8.5 41.5t8.5 41.5t23 34t34 23t41.5 8.5t41.5 -8.5t34 -23t23 -34t8.5 -41.5t-8.5 -41.5t-23 -34t-34 -23t-41.5 -8.5z" />
    <glyph glyph-name="plus.aalt" horiz-adv-x="511" 
d="M66 420h145v145h130v-145h145v-131h-145v-145h-130v145h-145v131z" />
    <glyph glyph-name="minus.aalt" horiz-adv-x="555" 
d="M84 420h420v-131h-420v131z" />
    <glyph glyph-name="multiply.aalt" horiz-adv-x="545" 
d="M78 232l123 123l-123 123l92 92l123 -122l123 122l91 -92l-122 -123l122 -123l-91 -92l-123 122l-123 -122z" />
    <glyph glyph-name="equal.aalt" horiz-adv-x="570" 
d="M89 315h420v-130h-420v130zM89 524h420v-131h-420v131z" />
    <glyph glyph-name="less.aalt" horiz-adv-x="555" 
d="M243 355l253 -253h-188l-253 253l253 253h188z" />
    <glyph glyph-name="greater.aalt" horiz-adv-x="557" 
d="M354.979 354.979l-252.984 252.984h187.988l252.984 -252.984l-252.984 -252.984h-187.988z" />
    <glyph glyph-name="acute.aalt" 
d="M146 927h169l-155 -157h-114z" />
    <glyph glyph-name="breve.aalt" 
d="M179 747q-37 0 -69.5 12.5t-55.5 36t-33.5 57t-1.5 74.5h83q-8 -50 15.5 -72.5t65.5 -22.5t69 24t37 71h86q-11 -85 -63.5 -132.5t-132.5 -47.5z" />
    <glyph glyph-name="caron.aalt" 
d="M354 831l-191 -70l-161 76l33 111l146 -69l188 69z" />
    <glyph glyph-name="cedilla.aalt" 
d="M-151 -141q15 -8 34.5 -11.5t37.5 -3.5q12 0 24 1.5t21.5 5.5t16 10.5t6.5 16.5q0 13 -10.5 18.5t-27.5 5.5q-8 0 -19.5 -2.5t-22.5 -7.5l-32 19l73 92h66l-38 -48q15 4 25.5 4.5t19.5 0.5q36 0 55 -19t19 -48q0 -25 -14 -45.5t-36.5 -35.5t-51.5 -23t-59 -8
q-22 0 -50 2.5t-51 12.5z" />
    <glyph glyph-name="circumflex.aalt" 
d="M10 878l191 70l161 -76l-33 -111l-146 69l-188 -69z" />
    <glyph glyph-name="dieresis.aalt" 
d="M62 768q-17 0 -31.5 6.5t-25.5 17.5t-17.5 25.5t-6.5 30.5q0 34 23.5 57.5t57.5 23.5q16 0 30.5 -6.5t25 -17.5t17 -25.5t6.5 -31.5q0 -16 -6.5 -30.5t-17 -25.5t-25 -17.5t-30.5 -6.5zM299 768q-17 0 -31.5 6.5t-25 17.5t-17 25.5t-6.5 30.5q0 34 23.5 57.5t56.5 23.5
t56.5 -23.5t23.5 -57.5q0 -16 -6.5 -30.5t-17 -25.5t-25.5 -17.5t-31 -6.5z" />
    <glyph glyph-name="dotaccent.aalt" 
d="M181 768q-17 0 -31.5 6.5t-25.5 17.5t-17.5 25.5t-6.5 30.5q0 34 23.5 57.5t57.5 23.5q33 0 56.5 -23.5t23.5 -57.5q0 -16 -6.5 -30.5t-17 -25.5t-25.5 -17.5t-31 -6.5z" />
    <glyph glyph-name="glyph523" 
d="M0 -80q-34 0 -57.5 23.5t-23.5 56.5q0 34 23.5 57.5t57.5 23.5q33 0 56.5 -23.5t23.5 -57.5q0 -33 -23.5 -56.5t-56.5 -23.5z" />
    <glyph glyph-name="glyph524" 
d="M-30 -227q-34 0 -57.5 23.5t-23.5 56.5t23.5 56.5t57.5 23.5q33 0 56.5 -23.5t23.5 -56.5t-23.5 -56.5t-56.5 -23.5z" />
    <glyph glyph-name="glyph525" 
d="M-118 -335l58 117h-56l29 139h141l-29 -139l-75 -117h-68z" />
    <glyph glyph-name="grave.aalt" 
d="M175 770l-96 157h163l40 -157h-107z" />
    <glyph glyph-name="hungarumlaut.aalt" 
d="M243 927h159l-158 -157h-100zM56 927h160l-158 -157h-100z" />
    <glyph glyph-name="macron.aalt" 
d="M15 891h348l-22 -104h-348z" />
    <glyph glyph-name="ogonek.aalt" 
d="M-34 -219q-45 0 -74.5 23t-29.5 66q0 40 25 74t67 56h159q-49 -18 -76 -39.5t-27 -40.5q0 -14 9.5 -19.5t23.5 -5.5q13 0 27.5 3t22.5 8l-21 -97q-14 -9 -41 -18.5t-65 -9.5z" />
    <glyph glyph-name="ring.aalt" 
d="M185 753q-25 0 -47 9.5t-38.5 26t-26.5 38t-10 46.5t10 46.5t26.5 38t38.5 26t47 9.5t47 -9.5t38.5 -26t26.5 -38t10 -46.5t-10 -46.5t-26.5 -38t-38.5 -26t-47 -9.5zM185 818q23 0 39.5 16t16.5 39t-16.5 39t-39.5 16t-39.5 -16t-16.5 -39t16.5 -39t39.5 -16z" />
    <glyph glyph-name="tilde.aalt" 
d="M-22 804q6 30 21 52t34 36.5t39.5 21.5t38.5 7q24 0 43 -7.5t36 -16t31.5 -16t29.5 -7.5q20 0 33 12t21 36h83l-6 -28q-7 -30 -22 -52t-33.5 -36.5t-39 -21.5t-38.5 -7q-24 0 -43.5 7.5t-36 16t-31.5 16t-29 7.5q-21 0 -34 -12t-21 -36h-82z" />
    <glyph glyph-name="glyph532" 
d="M-85 427h351l-29 -138h-351z" />
    <glyph glyph-name="glyph533" 
d="M-288 -18l-75 93l802 653l75 -93z" />
    <glyph glyph-name="glyph534" 
d="M-135 213l27 129l403 201l-27 -129z" />
    <glyph glyph-name="glyph535" 
d="M-126 421h431l-29 -138h-431z" />
    <glyph glyph-name="glyph536" 
d="M-242 623h748l-23 -108h-748z" />
    <glyph glyph-name="glyph537" horiz-adv-x="550" 
d="M169 710h159l-119 -558h294l-32 -152h-453zM459 351q-34 0 -57.5 23.5t-23.5 56.5q0 34 23.5 57.5t57.5 23.5q33 0 56.5 -23.5t23.5 -57.5q0 -33 -23.5 -56.5t-56.5 -23.5z" />
    <glyph glyph-name="uni0437.aalt" horiz-adv-x="544" 
d="M110 -17q9 -30 37.5 -50t65.5 -20q45 0 72 27.5t27 76.5q0 38 -21 59.5t-69 21.5h-61l27 122h58q45 0 76 22t31 65q0 35 -20.5 53.5t-54.5 18.5q-27 0 -50 -12t-37 -38h-152q12 50 38 84.5t59.5 56.5t72 31.5t77.5 9.5q50 0 89 -15t66 -40.5t41 -60t14 -74.5
q0 -50 -23.5 -96.5t-71.5 -72.5q62 -45 62 -137q0 -54 -18.5 -97.5t-51.5 -73.5t-79 -46.5t-102 -16.5q-46 0 -90.5 14.5t-80.5 40.5t-59.5 63.5t-27.5 83.5h156z" />
    <glyph glyph-name="uni0449" unicode="&#x449;" horiz-adv-x="885" 
d="M780 -122h-134l26 122h-663l106 500h151l-78 -369h130l78 369h151l-78 -369h130l78 369h151l-78 -369h84z" />
    <glyph glyph-name="uni0449.aalt" horiz-adv-x="941" 
d="M569 125q42 0 70 31t42 99l52 245h151l-70 -330q-5 -21 3 -30t28 -9h45l-54 -253h-134l26 122h-6q-16 0 -30.5 5t-24.5 14t-13.5 22t1.5 30l1 3q-28 -40 -64.5 -62t-87.5 -22q-45 0 -76 20t-49 52q-26 -32 -67.5 -51.5t-89.5 -19.5q-52 0 -89 21.5t-58.5 55t-28 75.5
t2.5 84l58 273h151l-56 -265q-11 -51 3 -80.5t51 -29.5q40 0 67.5 27.5t41.5 90.5l55 257h151l-56 -265q-11 -51 3 -80.5t51 -29.5z" />
    <glyph glyph-name="uniF6D1" unicode="&#xf6d1;" 
d="M179 747q-37 0 -69.5 12.5t-55.5 36t-33.5 57t-1.5 74.5h93q-8 -50 14.5 -72.5t56.5 -22.5q17 0 33.5 6t30 18t22.5 30t10 41h96q-11 -85 -63.5 -132.5t-132.5 -47.5z" />
    <glyph glyph-name="uni049A" unicode="&#x49a;" horiz-adv-x="734" 
d="M245 320l-68 -320h-158l151 710h158l-65 -303l303 303h198l-357 -357l263 -353h-186zM533 0h-23l32 152h166l-63 -300h-143z" />
    <glyph glyph-name="uni044A.aalt" horiz-adv-x="585" 
d="M309 360h68q39 0 70 -14t52.5 -37.5t33 -55t11.5 -65.5q0 -41 -13.5 -77.5t-40 -63.5t-66.5 -42.5t-93 -15.5h-31q-42 0 -78.5 15t-61.5 42t-36 63.5t-2 80.5l38 179h-121l28 131h272zM329 117q35 0 54.5 16t19.5 47q0 52 -54 52h-67l-12 -58q-6 -28 11.5 -42.5
t47.5 -14.5z" />
    <glyph glyph-name="uni04C0" unicode="&#x4c0;" horiz-adv-x="310" 
d="M170 710h159l-151 -710h-159z" />
    <glyph glyph-name="uni040E" unicode="&#x40e;" horiz-adv-x="745" 
d="M393 344l259 366h192l-377 -529q-36 -51 -69 -87.5t-67.5 -60t-74 -34.5t-88.5 -11q-38 0 -61 3.5t-43 8.5l31 146q15 -3 32.5 -5t34.5 -2q29 0 58.5 8t49.5 32l-162 531h174zM494 747q-37 0 -69.5 12.5t-55.5 36t-33.5 57t-1.5 74.5h93q-8 -50 14.5 -72.5t56.5 -22.5
q17 0 33.5 6t30 18t22.5 30t10 41h96q-11 -85 -63.5 -132.5t-132.5 -47.5z" />
    <glyph glyph-name="uni041E" unicode="&#x41e;" horiz-adv-x="823" 
d="M412 142q48 0 90 18t73 49t48.5 73t17.5 91q0 43 -12.5 78.5t-36.5 61.5t-60.5 40.5t-84.5 14.5t-90 -18t-73 -49t-48.5 -73t-17.5 -91q0 -43 12.5 -78.5t36.5 -61.5t60.5 -40.5t84.5 -14.5zM400 -12q-81 0 -144.5 26t-108 71.5t-67.5 106.5t-23 131q0 81 27 153
t78.5 127t126.5 87t170 32q81 0 144.5 -26t108 -71.5t67.5 -106.5t23 -131q0 -81 -27 -153t-78.5 -127t-126.5 -87t-170 -32z" />
    <glyph glyph-name="uni041C" unicode="&#x41c;" horiz-adv-x="884" 
d="M170 710h145l146 -305l297 305h145l-151 -710h-160l90 424l-265 -272l-144 299l-95 -451h-159z" />
    <glyph glyph-name="uni041A" unicode="&#x41a;" horiz-adv-x="697" 
d="M245 320l-68 -320h-158l151 710h158l-65 -303l303 303h198l-357 -357l263 -353h-186z" />
    <glyph glyph-name="glyph549" 
d="M-125 189l21 96h330l-21 -96h-330z" />
    <glyph glyph-name="uni0416" unicode="&#x416;" horiz-adv-x="1034" 
d="M606 308l-65 -308h-160l64 303l-314 -303h-207l388 377l-199 333h170l182 -310l66 310h160l-65 -306l294 306h197l-349 -360l230 -350h-186z" />
    <glyph glyph-name="uni0417" unicode="&#x417;" horiz-adv-x="604" 
d="M95 509q12 54 37 94t59.5 66.5t77 39.5t90.5 13t89.5 -13.5t73 -39t49.5 -61.5t18 -81q0 -60 -24.5 -103.5t-71.5 -70.5q26 -24 40.5 -57t14.5 -76q0 -55 -19 -98t-53 -72.5t-81 -45t-102 -15.5q-61 0 -111.5 17.5t-87 49t-58.5 74.5t-26 93h159q9 -42 42.5 -63.5
t81.5 -21.5q25 0 44 8t31.5 20.5t18.5 27.5t6 30q0 32 -22.5 53t-64.5 21h-72l28 134h75q46 0 72 19t26 57q0 32 -23.5 49.5t-56.5 17.5q-37 0 -63 -17.5t-38 -48.5h-159z" />
    <glyph glyph-name="uni0414" unicode="&#x414;" horiz-adv-x="780" 
d="M549 0h-435l-31 -148h-143l63 300h12q21 0 40 9t35 30t30 56.5t25 88.5l79 374h527l-119 -558h92l-63 -300h-143zM303 329q-7 -32 -13.5 -57.5t-14 -47t-17.5 -39t-24 -33.5h238l87 406h-207z" />
    <glyph glyph-name="uni0415" unicode="&#x415;" horiz-adv-x="572" 
d="M170 710h450l-32 -152h-291l-27 -127h231l-33 -152h-231l-27 -127h291l-32 -152h-450z" />
    <glyph glyph-name="uni0412" unicode="&#x412;" horiz-adv-x="635" 
d="M170 710h214q52 0 92 -15t68 -40.5t42.5 -58t14.5 -67.5q0 -46 -20.5 -89.5t-60.5 -73.5q32 -21 51 -54t19 -84q0 -47 -17.5 -88.5t-52.5 -72.5t-87.5 -49t-123.5 -18h-290zM324 147q53 0 80.5 23t27.5 56q0 25 -17.5 43.5t-49.5 18.5h-127l-30 -141h116zM343 423
q49 0 74 24t25 57q0 25 -17.5 42.5t-51.5 17.5h-76l-30 -141h76z" />
    <glyph glyph-name="uni0419" unicode="&#x419;" horiz-adv-x="793" 
d="M19 0l150 710h160l-90 -423l435 423h137l-150 -710h-159l90 425l-436 -425h-137zM528 747q-37 0 -69.5 12.5t-55.5 36t-33.5 57t-1.5 74.5h93q-8 -50 14.5 -72.5t56.5 -22.5q17 0 33.5 6t30 18t22.5 30t10 41h96q-11 -85 -63.5 -132.5t-132.5 -47.5z" />
    <glyph glyph-name="uni04CF" unicode="&#x4cf;" horiz-adv-x="275" 
d="M168 750h151l-159 -750h-151z" />
    <glyph glyph-name="uni0431.aalt" horiz-adv-x="599" 
d="M128 557q0 95 64.5 144t181.5 49h203l-28 -132h-181q-42 0 -67.5 -17.5t-25.5 -54.5q0 -26 17.5 -44t48.5 -18h8q43 0 81.5 -17t68 -46.5t47 -69t17.5 -85.5q0 -65 -22.5 -116.5t-62 -87.5t-92 -55t-112.5 -19q-50 0 -94.5 14.5t-77.5 43.5t-52.5 72t-19.5 99
q0 39 10.5 74.5t29 65.5t44 54t54.5 41q-17 21 -28.5 50.5t-11.5 54.5zM182 232q0 -46 26.5 -74t76.5 -28q26 0 48.5 9.5t39 26t26 38.5t9.5 48q0 46 -27.5 74t-75.5 28q-27 0 -49.5 -9.5t-39 -26t-25.5 -39t-9 -47.5z" />
    <glyph glyph-name="glyph558" 
d="M85 710l31 148h143l-31 -148h-143z" />
    <glyph glyph-name="uni043E" unicode="&#x43e;" horiz-adv-x="592" 
d="M286 129q26 0 48.5 10t38.5 28t25 42t9 51q0 50 -26.5 80t-74.5 30q-26 0 -48.5 -10t-38.5 -28t-25 -42t-9 -51q0 -50 26.5 -80t74.5 -30zM273 -12q-60 0 -105 20t-75 53t-45 76t-15 89q0 60 20.5 112.5t58 90.5t90.5 60t117 22q60 0 105 -20t75 -53t45 -76t15 -89
q0 -60 -20.5 -112.5t-58 -90.5t-90.5 -60t-117 -22z" />
    <glyph glyph-name="uni0405" unicode="&#x405;" horiz-adv-x="592" 
d="M291 -12q-73 0 -125.5 22t-85.5 56.5t-48 77.5t-14 84h159q4 -42 37 -67.5t81 -25.5q38 0 60.5 19t22.5 45q0 31 -21 50t-69 38l-36 14q-32 12 -59.5 31t-48 44.5t-32.5 58t-12 71.5q0 45 18 84.5t51 69t78.5 46t100.5 16.5q60 0 106 -20t77 -51.5t47 -71.5t16 -79h-158
q-7 38 -35.5 56.5t-61.5 18.5q-32 0 -55 -15.5t-23 -43.5t20 -44.5t55 -30.5l51 -20q75 -29 114 -84.5t39 -131.5q0 -48 -17.5 -87.5t-49.5 -68.5t-78.5 -45t-103.5 -16z" />
    <glyph glyph-name="uni043A" unicode="&#x43a;" horiz-adv-x="558" 
d="M204 209l-44 -209h-151l106 500h151l-41 -194l192 194h183l-250 -250l175 -250h-174z" />
    <glyph glyph-name="uni0442.aalt" horiz-adv-x="893" 
d="M115 500h151l-10 -49q20 24 54 41.5t79 17.5t76 -20t49 -52q26 32 67.5 51.5t89.5 19.5q52 0 89 -21.5t58.5 -55t28 -75.5t-2.5 -84l-58 -273h-151l56 265q11 51 -3 80.5t-51 29.5q-40 0 -67.5 -27.5t-41.5 -90.5l-55 -257h-151l56 265q11 51 -3 80.5t-51 29.5
q-42 0 -70 -31t-42 -99l-52 -245h-151z" />
    <glyph glyph-name="uni043F" unicode="&#x43f;" horiz-adv-x="604" 
d="M115 500h480l-106 -500h-151l78 369h-178l-78 -369h-151z" />
    <glyph glyph-name="uni0496" unicode="&#x496;" horiz-adv-x="1066" 
d="M606 308l-65 -308h-160l64 303l-314 -303h-207l388 377l-199 333h170l182 -310l66 310h160l-65 -306l294 306h197l-349 -360l230 -350h-186zM860 0h-23l32 152h166l-63 -300h-143z" />
    <glyph glyph-name="uni040C" unicode="&#x40c;" horiz-adv-x="697" 
d="M245 320l-68 -320h-158l151 710h158l-65 -303l303 303h198l-357 -357l263 -353h-186zM504 927h169l-155 -157h-114z" />
    <glyph glyph-name="uni0491" unicode="&#x491;" horiz-adv-x="432" 
d="M115 500h353l-28 -131h-202l-78 -369h-151zM333 500l26 122h134l-26 -122h-134z" />
    <glyph glyph-name="uni041B.aalt" horiz-adv-x="752" 
d="M398 710h144l153 -710h-154l-104 489l-313 -489h-181z" />
    <glyph glyph-name="uni045B" unicode="&#x45b;" horiz-adv-x="600" 
d="M9 0l122 575h-91l20 96h91l17 79h151l-17 -79h164l-20 -96h-164l-26 -124q23 24 60 41.5t83 17.5q48 0 81 -20.5t52 -54t24 -75t-4 -83.5l-59 -277h-151l56 265q11 51 -6.5 80.5t-58.5 29.5q-45 0 -76 -31t-45 -99l-52 -245h-151z" />
    <glyph glyph-name="uni045C" unicode="&#x45c;" horiz-adv-x="558" 
d="M204 209l-44 -209h-151l106 500h151l-41 -194l192 194h183l-250 -250l175 -250h-174zM450 750h179l-214 -190h-115z" />
    <glyph glyph-name="uni045A" unicode="&#x45a;" horiz-adv-x="826" 
d="M227 316h178l39 184h151l-39 -184h75q34 0 62 -11t48.5 -31t32 -47t11.5 -58q0 -35 -12.5 -66t-36.5 -54t-60 -36t-84 -13h-254l39 185h-178l-39 -185h-151l106 500h151zM594 125q23 0 36 9t13 28q0 16 -10.5 22.5t-27.5 6.5h-75l-14 -66h78z" />
    <glyph glyph-name="uni045F" unicode="&#x45f;" horiz-adv-x="604" 
d="M316 0l-26 -122h-134l26 122h-173l106 500h151l-78 -368h178l78 368h151l-106 -500h-173z" />
    <glyph glyph-name="uni045E" unicode="&#x45e;" horiz-adv-x="576" 
d="M273 -56q-30 -47 -56.5 -78.5t-53.5 -50t-58 -26t-71 -7.5q-26 0 -47 3t-36 7l27 125q12 -2 24 -3.5t27 -1.5q28 0 50 15t47 53l33 51l-107 469h149l67 -297l191 297h171zM359 552q-41 0 -74.5 15.5t-55.5 42.5t-30 63t2 77h96q-7 -29 -4.5 -50t12 -35t25.5 -20.5
t35 -6.5q38 1 63 24.5t33 87.5h96q0 -41 -13.5 -77t-38.5 -63t-61.5 -42.5t-84.5 -15.5z" />
    <glyph glyph-name="uni0458" unicode="&#x458;" horiz-adv-x="282" 
d="M-75 -219q-17 0 -33 1t-27 3l27 128q5 -1 12.5 -1.5t12.5 -0.5q40 0 64 19.5t33 64.5l108 505h151l-113 -530q-22 -103 -80 -146t-155 -43zM232 568q-19 0 -36 7.5t-30 20t-20.5 29.5t-7.5 37q0 19 7.5 36.5t20.5 30t30 20t36 7.5q20 0 37.5 -7.5t30 -20t20 -30
t7.5 -36.5q0 -20 -7.5 -37t-20 -29.5t-30 -20t-37.5 -7.5z" />
    <glyph glyph-name="uni0459" unicode="&#x459;" horiz-adv-x="838" 
d="M255 188q-12 -56 -29.5 -94t-43 -61t-59 -33.5t-75.5 -10.5q-27 0 -47 2.5t-35 5.5l28 128q18 -5 41 -5q26 0 43 15t26 59l66 306h437l-39 -184h75q34 0 62 -11t48.5 -31t32 -47t11.5 -58q0 -35 -12.5 -66t-36.5 -54t-60 -36t-84 -13h-254l78 369h-135zM606 125
q23 0 36 9t13 28q0 16 -10.5 22.5t-27.5 6.5h-75l-14 -66h78z" />
    <glyph glyph-name="uni0452" unicode="&#x452;" horiz-adv-x="600" 
d="M398 265q11 51 -6.5 80.5t-58.5 29.5q-45 0 -76 -31t-45 -99l-52 -245h-151l122 575h-91l20 96h91l17 79h151l-17 -79h164l-20 -96h-164l-26 -124q23 24 60 41.5t83 17.5q48 0 81 -20.5t52 -54t24 -75t-4 -83.5l-65 -307q-22 -103 -80 -146t-155 -43q-17 0 -33 1t-27 3
l27 128q5 -1 12.5 -1.5t12.5 -0.5q40 0 64 19.5t33 64.5z" />
    <glyph glyph-name="uni0453" unicode="&#x453;" horiz-adv-x="432" 
d="M115 500h353l-28 -131h-202l-78 -369h-151zM400 750h179l-214 -190h-115z" />
    <glyph glyph-name="uni0456" unicode="&#x456;" horiz-adv-x="275" 
d="M225 568q-19 0 -36 7.5t-30 20t-20.5 29.5t-7.5 37q0 19 7.5 36.5t20.5 30t30 20t36 7.5q20 0 37.5 -7.5t30 -20t20 -30t7.5 -36.5q0 -20 -7.5 -37t-20 -29.5t-30 -20t-37.5 -7.5zM115 500h151l-106 -500h-151z" />
    <glyph glyph-name="uni0457" unicode="&#x457;" horiz-adv-x="275" 
d="M115 500h151l-106 -500h-151zM128 572q-33 0 -56.5 23.5t-23.5 55.5q0 33 23.5 56.5t56.5 23.5q32 0 55.5 -23.5t23.5 -56.5q0 -32 -23.5 -55.5t-55.5 -23.5zM315 572q-32 0 -55.5 23.5t-23.5 55.5q0 33 23.5 56.5t55.5 23.5q33 0 56.5 -23.5t23.5 -56.5
q0 -32 -23.5 -55.5t-56.5 -23.5z" />
    <glyph glyph-name="uni0454" unicode="&#x454;" horiz-adv-x="585" 
d="M273 -11q-59 0 -104 20t-75 53t-45.5 75.5t-15.5 88.5q0 60 20.5 112.5t58 90.5t90.5 60t117 22q54 0 96.5 -16.5t72 -45t47 -66t22.5 -78.5h-156q-10 30 -34 49.5t-60 19.5t-64.5 -19.5t-43.5 -50.5h152l-21 -96h-142q7 -38 31.5 -61t65.5 -23q35 0 63.5 20.5t43.5 50.5
h157q-11 -45 -34 -83t-57.5 -65.5t-80.5 -42.5t-104 -15z" />
    <glyph glyph-name="uni0455" unicode="&#x455;" horiz-adv-x="504" 
d="M240 -11q-51 0 -93.5 12.5t-73 35.5t-47.5 55t-17 71h157q0 -16 7 -27t18.5 -18.5t26 -11t28.5 -3.5q26 0 39.5 9.5t13.5 23.5t-11 25t-35 19l-78 26q-53 17 -83 54t-30 92q0 73 53.5 116t158.5 43q39 0 74.5 -11t63.5 -32t45 -51t19 -68h-151q0 15 -6.5 24t-15.5 14
t-19 6.5t-17 1.5q-23 0 -36.5 -9t-13.5 -25t13 -25.5t27 -14.5l63 -21q63 -21 98 -57.5t35 -93.5q0 -77 -57.5 -118.5t-155.5 -41.5z" />
    <glyph glyph-name="uni0429" unicode="&#x429;" horiz-adv-x="1025" 
d="M795 0h-776l150 710h160l-118 -558h173l118 558h160l-118 -558h173l118 558h160l-118 -558h93l-64 -300h-143z" />
    <glyph glyph-name="uni0428" unicode="&#x428;" horiz-adv-x="977" 
d="M169 710h160l-118 -558h173l118 558h160l-118 -558h173l118 558h160l-150 -710h-826z" />
    <glyph glyph-name="uni0427" unicode="&#x427;" horiz-adv-x="678" 
d="M386 0l65 304q-26 -27 -68 -46.5t-97 -19.5q-54 0 -96 22t-68.5 60t-36 89t2.5 109l40 192h160l-40 -192q-12 -56 10 -91t84 -35q61 0 102 38.5t57 111.5l36 168h160l-151 -710h-160z" />
    <glyph glyph-name="uni0426" unicode="&#x426;" horiz-adv-x="773" 
d="M718 152l-64 -300h-143l32 148h-524l150 710h160l-118 -558h254l118 558h160l-118 -558h93z" />
    <glyph glyph-name="uni0425" unicode="&#x425;" horiz-adv-x="699" 
d="M-66 0l346 369l-181 341h171l120 -228l210 228h189l-329 -362l193 -348h-171l-128 240l-231 -240h-189z" />
    <glyph glyph-name="uni0424" unicode="&#x424;" horiz-adv-x="917" 
d="M492 57l-19 -87h-157l18 87q-66 3 -117 27t-86.5 63t-54 89.5t-18.5 106.5q0 60 20 117t62.5 101.5t108 71.5t155.5 27h59l17 80h160l-18 -81q65 -4 116 -28t86.5 -62.5t54 -89t18.5 -105.5q0 -60 -20 -117t-62.5 -101.5t-108 -71.5t-155.5 -27h-59zM219 349
q0 -29 8.5 -55.5t26.5 -46t45.5 -31.5t65.5 -13l67 312h-49q-36 0 -66 -12.5t-51.5 -34.5t-34 -52.5t-12.5 -66.5zM572 203q36 0 66 12.5t51.5 34.5t34 52.5t12.5 66.5q0 29 -8.5 55t-26.5 46t-45.5 32t-64.5 13l-68 -312h49z" />
    <glyph glyph-name="uni0423" unicode="&#x423;" horiz-adv-x="745" 
d="M393 344l259 366h192l-377 -529q-36 -51 -69 -87.5t-67.5 -60t-74 -34.5t-88.5 -11q-38 0 -61 3.5t-43 8.5l31 146q15 -3 32.5 -5t34.5 -2q29 0 58.5 8t49.5 32l-162 531h174z" />
    <glyph glyph-name="uni0422" unicode="&#x422;" horiz-adv-x="559" 
d="M260 558h-181l32 152h524l-32 -152h-183l-119 -558h-160z" />
    <glyph glyph-name="uni0421" unicode="&#x421;" horiz-adv-x="795" 
d="M400 -12q-81 0 -144.5 26t-108 71.5t-67.5 106.5t-23 131q0 81 27 153t78.5 127t126.5 87t170 32q69 0 126 -19t100 -53.5t71 -81.5t40 -102h-173q-21 48 -65 75t-111 27q-48 0 -90 -18t-73 -49t-48.5 -73t-17.5 -91q0 -43 12.5 -78.5t36.5 -61.5t60.5 -40.5t84.5 -14.5
q61 0 111 27.5t80 74.5h173q-20 -56 -53.5 -102.5t-81 -81t-108 -53.5t-133.5 -19z" />
    <glyph glyph-name="uni0420" unicode="&#x420;" horiz-adv-x="601" 
d="M170 710h202q54 0 99 -17.5t77.5 -47t50.5 -69t18 -83.5q0 -53 -17 -101.5t-53 -85.5t-93.5 -59t-138.5 -22h-89l-48 -225h-159zM341 374q24 0 45.5 8t37.5 22t25 32.5t9 40.5q0 16 -5 31t-16 26.5t-28.5 18.5t-43.5 7h-68l-40 -186h84z" />
    <glyph glyph-name="uni0430" unicode="&#x430;" horiz-adv-x="617" 
d="M224 -8q-43 0 -78.5 17.5t-60.5 47.5t-38.5 70t-13.5 86q0 65 20 120t54.5 94.5t81.5 61.5t101 22q31 0 57 -8t45.5 -19t32.5 -24.5t19 -23.5l13 64h151l-106 -500h-151l8 39q-17 -15 -49 -31t-86 -16zM281 122q28 0 51.5 11.5t40.5 31t26.5 46t9.5 57.5q0 48 -24.5 77
t-72.5 29q-28 0 -51.5 -11.5t-40.5 -31t-26.5 -46t-9.5 -57.5q0 -48 24.5 -77t72.5 -29z" />
    <glyph glyph-name="uni0431" unicode="&#x431;" horiz-adv-x="600" 
d="M280 -10q-58 0 -107 23t-81 65.5t-43.5 103t5.5 135.5l7 32q21 98 52 163.5t76 107t106.5 65t144.5 37.5l186 32l-30 -147l-146 -25q-82 -14 -133.5 -42t-73.5 -90q26 19 56 26.5t59 7.5q45 0 83 -16t65.5 -44.5t43 -68.5t15.5 -88q0 -56 -19 -106t-55 -88t-89 -60.5
t-122 -22.5zM312 354q-27 0 -49.5 -9.5t-38 -26.5t-24 -39.5t-8.5 -47.5q0 -45 26.5 -73t75.5 -28q27 0 49 9.5t37.5 26.5t24 39t8.5 48q0 45 -26 73t-75 28z" />
    <glyph glyph-name="uni042F" unicode="&#x42f;" horiz-adv-x="656" 
d="M364 0l50 234h-42l-246 -234h-204l294 277q-40 29 -64.5 73.5t-24.5 100.5q0 63 22 111.5t61 81t93.5 49.5t120.5 17h251l-151 -710h-160zM403 565q-54 0 -87 -28.5t-33 -76.5q0 -35 23 -58t68 -23h71l39 186h-81z" />
    <glyph glyph-name="uni042E" unicode="&#x42e;" horiz-adv-x="1097" 
d="M686 -12q-70 0 -128 22.5t-101 61.5t-69.5 92.5t-33.5 116.5h-115l-60 -281h-160l150 710h160l-60 -281h95q15 63 48.5 116.5t82 93t111 61.5t137.5 22t137 -26t105.5 -71.5t67.5 -106.5t24 -131q0 -83 -27.5 -155.5t-78.5 -126.5t-123 -85.5t-162 -31.5zM731 568
q-45 0 -85 -16.5t-69.5 -47t-46.5 -73t-17 -94.5q0 -44 12 -79.5t35.5 -61.5t58 -40t79.5 -14t85 16.5t69.5 47t46.5 73t17 94.5q0 43 -12 79t-35.5 62t-58 40t-79.5 14z" />
    </font>
</defs>
</svg>
