<?xml version="1.0" standalone="no"?>
<!DOCTYPE svg PUBLIC "-//W3C//DTD SVG 1.1//EN" "http://www.w3.org/Graphics/SVG/1.1/DTD/svg11.dtd" >
<svg xmlns="http://www.w3.org/2000/svg" xmlns:xlink="http://www.w3.org/1999/xlink" version="1.1">
<metadata>
Created by Christoph Koeberlin (http://christoph.koe.berlin)
Copyright (c) 2018 Swiss Typefaces Sarl. All rights reserved.
</metadata>
<defs>
<font id="Font" horiz-adv-x="0" >
  <font-face 
    font-family="Font"
    font-weight="700"
    font-stretch="normal"
    units-per-em="1000"
    panose-1="2 11 8 4 0 0 0 0 0 0"
    ascent="800"
    descent="-200"
    x-height="500"
    cap-height="710"
    bbox="-374 -316 1368 1000"
    underline-thickness="100"
    underline-position="-184"
    unicode-range="U+0020-FEFF"
  />
<missing-glyph horiz-adv-x="634" 
d="M67 710h500v-710h-500v710zM86 682v-654l220 327zM548 28v654l-221 -327zM101 691l216 -321l216 321h-432zM101 19h432l-216 320z" />
    <glyph glyph-name="f_f.liga" unicode="ff" horiz-adv-x="807" 
d="M118 369h-100v131h100v67q0 48 16 83.5t43 59t63.5 35t78.5 11.5q30 0 51.5 -3t38.5 -8v-133q-5 5 -21 6.5t-33 1.5q-46 0 -66 -19.5t-20 -64.5v-36h106v-131h-106v-369h-151v369zM501 369h-79v131h79v67q0 48 16 83.5t43 59t63.5 35t78.5 11.5q30 0 51.5 -3t38.5 -8
v-133q-12 5 -25 6.5t-30 1.5q-45 0 -65 -19.5t-20 -64.5v-36h140v-131h-140v-369h-151v369z" />
    <glyph glyph-name="f_i.liga" unicode="fi" horiz-adv-x="699" 
d="M118 369h-100v131h100v55q0 48 16 85t43 63t63.5 39.5t78.5 13.5q30 0 51.5 -3t38.5 -8v-133q-12 5 -24.5 7t-29.5 2q-46 0 -66 -20t-20 -65v-36h140v-131h-140v-369h-151v369zM561 568q-19 0 -36 7.5t-30 20t-20.5 29.5t-7.5 37q0 19 7.5 36.5t20.5 30t30 20t36 7.5
q20 0 37.5 -7.5t30 -20t20 -30t7.5 -36.5q0 -20 -7.5 -37t-20 -29.5t-30 -20t-37.5 -7.5zM486 500h151v-500h-151v500z" />
    <glyph glyph-name="f_f_i.liga" unicode="ffi" horiz-adv-x="1082" 
d="M944 568q-19 0 -36 7.5t-30 20t-20.5 29.5t-7.5 37q0 19 7.5 36.5t20.5 30t30 20t36 7.5q20 0 37.5 -7.5t30 -20t20 -30t7.5 -36.5q0 -20 -7.5 -37t-20 -29.5t-30 -20t-37.5 -7.5zM869 500h151v-500h-151v500zM118 369h-100v131h100v67q0 48 16 83.5t43 59t63.5 35
t78.5 11.5q30 0 51.5 -3t38.5 -8v-133q-5 5 -21 6.5t-33 1.5q-46 0 -66 -19.5t-20 -64.5v-36h106v-131h-106v-369h-151v369zM501 369h-79v131h79v67q0 48 16 83.5t43 59t63.5 35t78.5 11.5q30 0 51.5 -3t38.5 -8v-133q-12 5 -25 6.5t-30 1.5q-45 0 -65 -19.5t-20 -64.5v-36
h140v-131h-140v-369h-151v369z" />
    <glyph glyph-name="f_l.liga" unicode="fl" horiz-adv-x="699" 
d="M118 369h-100v131h100v55q0 48 16 85t43 63t63.5 39.5t78.5 13.5q30 0 51.5 -3t38.5 -8v-133q-12 5 -24.5 7t-29.5 2q-46 0 -66 -20t-20 -65v-36h140v-131h-140v-369h-151v369zM486 750h151v-750h-151v750z" />
    <glyph glyph-name="f_f_l.liga" unicode="ffl" horiz-adv-x="1081" 
d="M869 750h151v-750h-151v750zM118 369h-100v131h100v67q0 48 16 83.5t43 59t63.5 35t78.5 11.5q30 0 51.5 -3t38.5 -8v-133q-5 5 -21 6.5t-33 1.5q-46 0 -66 -19.5t-20 -64.5v-36h106v-131h-106v-369h-151v369zM501 369h-79v131h79v67q0 48 16 83.5t43 59t63.5 35
t78.5 11.5q30 0 51.5 -3t38.5 -8v-133q-12 5 -25 6.5t-30 1.5q-45 0 -65 -19.5t-20 -64.5v-36h140v-131h-140v-369h-151v369z" />
    <glyph glyph-name="f_t.liga" unicode="ft" horiz-adv-x="835" 
d="M118 369h-100v131h100v67q0 48 16 83.5t43 59t63.5 35t78.5 11.5q30 0 51.5 -3t38.5 -8v-133q-12 5 -24.5 6.5t-29.5 1.5q-46 0 -66 -19.5t-20 -64.5v-36h118v-131h-118v-369h-151v369zM712 -6q-42 0 -78.5 11.5t-63.5 35t-43 59t-16 83.5v186h-77v131h77v139h151v-139
h140v-131h-140v-155q0 -45 20 -64.5t65 -19.5q17 0 30 1.5t25 6.5v-134q-17 -5 -38.5 -7.5t-51.5 -2.5z" />
    <glyph glyph-name="t_t.liga" unicode="tt" horiz-adv-x="823" 
d="M700 -6q-42 0 -78.5 11.5t-63.5 35t-43 59t-16 83.5v186h-79v131h79v139h151v-139h140v-131h-140v-155q0 -45 20 -64.5t65 -19.5q17 0 30 1.5t25 6.5v-134q-17 -5 -38.5 -7.5t-51.5 -2.5zM317 -6q-42 0 -78.5 11.5t-63.5 35t-43 59t-16 83.5v186h-100v131h100v139h151
v-139h106v-131h-106v-155q0 -45 20 -64.5t66 -19.5q17 0 29.5 1.5t24.5 6.5v-134q-17 -5 -38 -7.5t-52 -2.5z" />
    <glyph glyph-name="uni0407_uni0407.liga" unicode="&#x407;&#x407;" horiz-adv-x="618" 
d="M75 710h159v-710h-159v710zM384 710h159v-710h-159v710zM28 768q-17 0 -31.5 6.5t-25.5 17.5t-17.5 25.5t-6.5 30.5q0 34 23.5 57.5t57.5 23.5q33 0 56.5 -23.5t23.5 -57.5q0 -16 -6.5 -30.5t-17 -25.5t-25.5 -17.5t-31 -6.5zM301 768q-17 0 -31.5 6.5t-25.5 17.5
t-17.5 25.5t-6.5 30.5q0 34 23.5 57.5t57.5 23.5q33 0 56.5 -23.5t23.5 -57.5q0 -16 -6.5 -30.5t-17 -25.5t-25.5 -17.5t-31 -6.5zM575 768q-17 0 -31.5 6.5t-25.5 17.5t-17.5 25.5t-6.5 30.5q0 34 23.5 57.5t57.5 23.5q33 0 56.5 -23.5t23.5 -57.5q0 -16 -6.5 -30.5
t-17 -25.5t-25.5 -17.5t-31 -6.5z" />
    <glyph glyph-name="uni0457_uni0457.liga" unicode="&#x457;&#x457;" horiz-adv-x="550" 
d="M62 0v500h151v-500h-151zM337 0v500h151v-500h-151zM44 572q-33 0 -56.5 23.5t-23.5 55.5q0 33 23.5 56.5t56.5 23.5q32 0 55.5 -23.5t23.5 -56.5q0 -32 -23.5 -55.5t-55.5 -23.5zM274 572q-32 0 -55.5 23.5t-23.5 55.5q0 33 23.5 56.5t55.5 23.5q33 0 56.5 -23.5
t23.5 -56.5q0 -32 -23.5 -55.5t-56.5 -23.5zM507 572q-33 0 -56.5 23.5t-23.5 55.5q0 33 23.5 56.5t56.5 23.5q32 0 55.5 -23.5t23.5 -56.5q0 -32 -23.5 -55.5t-55.5 -23.5z" />
    <glyph glyph-name="uni0457_uni0458.liga" unicode="&#x457;&#x458;" horiz-adv-x="550" 
d="M62 0v500h151v-500h-151zM44 572q-33 0 -56.5 23.5t-23.5 55.5q0 33 23.5 56.5t56.5 23.5q32 0 55.5 -23.5t23.5 -56.5q0 -32 -23.5 -55.5t-55.5 -23.5zM274 572q-32 0 -55.5 23.5t-23.5 55.5q0 33 23.5 56.5t55.5 23.5q33 0 56.5 -23.5t23.5 -56.5q0 -32 -23.5 -55.5
t-56.5 -23.5zM507 572q-33 0 -56.5 23.5t-23.5 55.5q0 33 23.5 56.5t56.5 23.5q32 0 55.5 -23.5t23.5 -56.5q0 -32 -23.5 -55.5t-55.5 -23.5zM488 -30q0 -48 -16 -83.5t-43 -59t-62 -35t-74 -11.5q-17 0 -33 1t-28 3v128q5 -1 12.5 -1.5t12.5 -0.5q40 0 60 19.5t20 64.5v505
h151v-530z" />
    <glyph glyph-name=".notdef" horiz-adv-x="634" 
d="M67 710h500v-710h-500v710zM86 682v-654l220 327zM548 28v654l-221 -327zM101 691l216 -321l216 321h-432zM101 19h432l-216 320z" />
    <glyph glyph-name="glyph1" 
 />
    <glyph glyph-name="glyph2" horiz-adv-x="225" 
 />
    <glyph glyph-name="space" unicode=" " horiz-adv-x="225" 
 />
    <glyph glyph-name="exclam" unicode="!" horiz-adv-x="292" 
d="M70 449v261h152v-261l-30 -184h-93zM146 -8q-22 0 -41.5 8.5t-34 23t-23 34t-8.5 41.5t8.5 41.5t23 34t34 23t41.5 8.5t41.5 -8.5t34 -23t23 -34t8.5 -41.5t-8.5 -41.5t-23 -34t-34 -23t-41.5 -8.5z" />
    <glyph glyph-name="quotedbl" unicode="&#x22;" horiz-adv-x="440" 
d="M56 710h126v-298h-126v298zM258 710h126v-298h-126v298z" />
    <glyph glyph-name="numbersign" unicode="#" horiz-adv-x="723" 
d="M374 181h-132l-57 -181h-127l56 181h-83v114h120l36 120h-83v114h119l56 181h129l-57 -181h131l56 181h129l-57 -181h82v-114h-118l-37 -120h83v-114h-119l-57 -181h-127zM278 295h132l36 120h-131z" />
    <glyph glyph-name="dollar" unicode="$" horiz-adv-x="540" 
d="M244 -9q-45 4 -83 21.5t-65 45.5t-42 66.5t-15 85.5h151q1 -29 16 -46.5t38 -24.5v150l-36 13q-35 13 -66 32t-54 45t-36.5 59t-13.5 75q0 90 54 146.5t152 61.5v77h54v-79q43 -6 78 -24.5t60 -46t38.5 -61.5t13.5 -71h-151q-9 39 -39 54v-138l37 -13q40 -15 71.5 -35
t54 -47t34.5 -62t12 -80q0 -91 -54.5 -145.5t-154.5 -59.5v-78h-54v79zM356 195q0 23 -14.5 40.5t-43.5 31.5v-132q24 5 41 19.5t17 40.5zM189 516q0 -23 14.5 -37.5t40.5 -25.5v122q-25 -5 -40 -20.5t-15 -38.5z" />
    <glyph glyph-name="percent" unicode="%" horiz-adv-x="977" 
d="M186 0l450 710h155l-450 -710h-155zM753 -8q-41 0 -77 15.5t-62.5 42.5t-42 62.5t-15.5 76.5t15.5 77t42 62.5t62.5 42t77 15.5q40 0 76 -15.5t63 -42t42.5 -62.5t15.5 -77t-15.5 -76.5t-42.5 -62.5t-63 -42.5t-76 -15.5zM753 118q29 0 49 21t20 50t-20 50t-49 21
t-49.5 -21t-20.5 -50t20.5 -50t49.5 -21zM224 324q-41 0 -77 15.5t-62.5 42.5t-42 62.5t-15.5 76.5t15.5 77t42 62.5t62.5 42t77 15.5q40 0 76 -15.5t63 -42t42.5 -62.5t15.5 -77t-15.5 -76.5t-42.5 -62.5t-63 -42.5t-76 -15.5zM224 450q29 0 49 21t20 50t-20 50t-49 21
q-30 0 -50 -21t-20 -50t20 -50t50 -21z" />
    <glyph glyph-name="ampersand" unicode="&#x26;" horiz-adv-x="777" 
d="M303 -11q-61 0 -106.5 17t-75.5 46.5t-44.5 68.5t-14.5 83q0 34 9 61.5t24.5 50.5t37 41.5t46.5 35.5q-29 29 -51 64.5t-22 81.5q0 36 15 69t42.5 58.5t65.5 40.5t83 15q46 0 84 -15.5t64.5 -41t41 -57.5t14.5 -66q0 -32 -8.5 -57t-24 -45.5t-37 -36.5t-47.5 -31
l107 -103l63 74h181l-145 -169l181 -174h-198l-78 74q-51 -45 -99 -65t-108 -20zM301 121q26 0 54 10.5t58 36.5l-135 130q-41 -28 -55 -54t-14 -45q0 -21 8.5 -36t22 -24.5t30 -13.5t31.5 -4zM250 539q0 -24 16.5 -41.5t41.5 -39.5l1 1q32 17 45.5 32.5t13.5 44.5
q0 28 -17.5 43.5t-40.5 15.5q-24 0 -42 -15t-18 -41z" />
    <glyph glyph-name="quotesingle" unicode="'" horiz-adv-x="238" 
d="M56 710h126v-298h-126v298z" />
    <glyph glyph-name="parenleft" unicode="(" horiz-adv-x="305" 
d="M165 -160q-128 232 -128 480t128 480h119q-64 -124 -92.5 -240.5t-28.5 -239.5t28.5 -239.5t92.5 -240.5h-119z" />
    <glyph glyph-name="parenright" unicode=")" horiz-adv-x="305" 
d="M21 -160q64 124 92.5 240.5t28.5 239.5t-28.5 239.5t-92.5 240.5h119q128 -232 128 -480t-128 -480h-119z" />
    <glyph glyph-name="asterisk" unicode="*" horiz-adv-x="506" 
d="M82 344l88 119l-141 46l31 98l143 -45v148h102v-148l141 46l32 -98l-142 -47l89 -119l-83 -60l-87 118l-90 -118z" />
    <glyph glyph-name="plus" unicode="+" horiz-adv-x="490" 
d="M35 355h145v145h130v-145h145v-131h-145v-145h-130v145h-145v131z" />
    <glyph glyph-name="comma" unicode="," horiz-adv-x="289" 
d="M114 -155h-87l75 155q-25 10 -45 36.5t-20 62.5q0 22 8.5 41.5t23 34t34 23t41.5 8.5t41.5 -8.5t34 -23t23 -34t8.5 -41.5q0 -18 -6 -35t-16 -34z" />
    <glyph glyph-name="hyphen" unicode="-" horiz-adv-x="404" 
d="M55 352h294v-144h-294v144z" />
    <glyph glyph-name="period" unicode="." horiz-adv-x="286" 
d="M143 -8q-22 0 -41.5 8.5t-34 23t-23 34t-8.5 41.5t8.5 41.5t23 34t34 23t41.5 8.5t41.5 -8.5t34 -23t23 -34t8.5 -41.5t-8.5 -41.5t-23 -34t-34 -23t-41.5 -8.5z" />
    <glyph glyph-name="slash" unicode="/" horiz-adv-x="556" 
d="M403 710h136l-386 -820h-136z" />
    <glyph glyph-name="zero" unicode="0" horiz-adv-x="633" 
d="M317 -11q-60 0 -109.5 21.5t-85 59t-55 89.5t-19.5 114v165q0 61 19.5 113.5t55 90t85 59t109.5 21.5q59 0 108.5 -21.5t85 -59t55 -90t19.5 -113.5v-165q0 -62 -19.5 -114t-55 -89.5t-85 -59t-108.5 -21.5zM317 138q52 0 84.5 35.5t32.5 99.5v165q0 64 -32.5 99.5
t-84.5 35.5q-53 0 -85.5 -35.5t-32.5 -99.5v-165q0 -64 32.5 -99.5t85.5 -35.5z" />
    <glyph glyph-name="one" unicode="1" horiz-adv-x="380" 
d="M154 561h-154l108 149h197v-710h-151v561z" />
    <glyph glyph-name="two" unicode="2" horiz-adv-x="577" 
d="M529 0h-490v51q0 60 21 104.5t53.5 79t73 62.5t79.5 56q21 15 40.5 31t34 33t23.5 35t9 37q0 35 -20.5 59.5t-63.5 24.5q-22 0 -40 -7.5t-30.5 -19.5t-19 -28t-6.5 -34h-151q0 52 19 96t53 75.5t80 49t100 17.5q45 0 86.5 -14t73.5 -42t51 -69.5t19 -96.5
q0 -48 -11 -84.5t-30.5 -66t-46.5 -53.5t-58 -47q-13 -9 -31.5 -21t-37 -25t-34.5 -27t-23 -27h277v-149z" />
    <glyph glyph-name="three" unicode="3" horiz-adv-x="590" 
d="M299 -11q-50 0 -97 15.5t-84 46t-60.5 76.5t-25.5 107h150q5 -49 36.5 -72.5t80.5 -23.5q44 0 70.5 21.5t27.5 56.5q1 38 -28 62t-77 24h-62v121h54q48 0 70 21.5t23 55.5q1 32 -22.5 52.5t-58.5 20.5q-45 0 -72.5 -26.5t-26.5 -62.5h-151q0 57 21.5 101t57 74.5t80 46.5
t91.5 16q57 0 100.5 -17t73 -46t44.5 -66.5t15 -79.5q0 -52 -23 -91.5t-51 -61.5q18 -9 35 -23t30 -34t21 -45t8 -55q0 -47 -18 -86t-51 -67.5t-79 -44.5t-102 -16z" />
    <glyph glyph-name="four" unicode="4" horiz-adv-x="643" 
d="M365 154h-347v122l362 434h136v-418h91v-138h-91v-154h-151v154zM365 292v195l-163 -195h163z" />
    <glyph glyph-name="five" unicode="5" horiz-adv-x="576" 
d="M287 -11q-49 0 -94.5 16t-81 45t-57.5 69.5t-24 90.5h156q8 -32 36 -52t65 -20q49 0 74 28t25 70t-28 70t-70 28q-40 0 -67 -21t-38 -53l-131 41l82 409h349v-146h-233l-24 -113q36 19 91 19q51 0 91.5 -18t69 -50.5t44 -77.5t15.5 -99q0 -55 -17.5 -99t-50.5 -74.5
t-79 -46.5t-103 -16z" />
    <glyph glyph-name="six" unicode="6" horiz-adv-x="572" 
d="M284 -11q-58 0 -104.5 19t-78.5 52t-49.5 78.5t-17.5 98.5q0 27 5 48.5t15.5 43.5t26.5 45.5t37 53.5l198 282h186l-174 -248q37 -3 73.5 -19t66 -44.5t48 -69.5t18.5 -93q0 -53 -17.5 -98t-49.5 -78t-78.5 -52t-104.5 -19zM284 134q43 0 70.5 29t27.5 71t-27.5 71
t-70.5 29q-44 0 -71 -29t-27 -71t27 -71t71 -29z" />
    <glyph glyph-name="seven" unicode="7" horiz-adv-x="552" 
d="M41 0l318 564h-324v146h503v-131l-326 -579h-171z" />
    <glyph glyph-name="eight" unicode="8" horiz-adv-x="592" 
d="M296 -11q-54 0 -101 17t-81.5 47.5t-54 72.5t-19.5 93q0 58 22 99.5t63 67.5q-57 54 -57 141q0 42 16 77.5t46 62t72 41t94 14.5t94 -14.5t72 -41t46 -62t16 -77.5q0 -43 -15 -79t-43 -62q41 -26 63.5 -67.5t22.5 -99.5q0 -51 -20 -93t-54.5 -72.5t-81 -47.5t-100.5 -17z
M296 128q24 0 42.5 8t31 21.5t19.5 30.5t7 35t-7 35t-19.5 30.5t-31 21.5t-42.5 8t-42.5 -8t-31.5 -21.5t-19.5 -30.5t-6.5 -35t6.5 -35t19.5 -30.5t31.5 -21.5t42.5 -8zM296 437q35 0 58.5 21.5t23.5 54.5t-23.5 54.5t-58.5 21.5t-58.5 -21.5t-23.5 -54.5t23.5 -54.5
t58.5 -21.5z" />
    <glyph glyph-name="nine" unicode="9" horiz-adv-x="572" 
d="M243 248q-37 3 -73.5 19t-66 44.5t-47.5 69.5t-18 94q0 52 17.5 97.5t49.5 78.5t78.5 52t104.5 19t104.5 -19t78.5 -52t49.5 -78.5t17.5 -98.5q0 -27 -5.5 -48.5t-16 -43.5t-26 -45.5t-36.5 -53.5l-199 -283h-186zM288 377q44 0 71 29t27 71t-27 71t-71 29
q-43 0 -70.5 -29t-27.5 -71t27.5 -71t70.5 -29z" />
    <glyph glyph-name="colon" unicode=":" horiz-adv-x="306" 
d="M153 298q-22 0 -41.5 8.5t-34 23t-23 34t-8.5 41.5t8.5 41.5t23 34t34 23t41.5 8.5t41.5 -8.5t34 -23t23 -34t8.5 -41.5t-8.5 -41.5t-23 -34t-34 -23t-41.5 -8.5zM153 -8q-22 0 -41.5 8.5t-34 23t-23 34t-8.5 41.5t8.5 41.5t23 34t34 23t41.5 8.5t41.5 -8.5t34 -23
t23 -34t8.5 -41.5t-8.5 -41.5t-23 -34t-34 -23t-41.5 -8.5z" />
    <glyph glyph-name="semicolon" unicode=";" horiz-adv-x="306" 
d="M153 298q-22 0 -41.5 8.5t-34 23t-23 34t-8.5 41.5t8.5 41.5t23 34t34 23t41.5 8.5t41.5 -8.5t34 -23t23 -34t8.5 -41.5t-8.5 -41.5t-23 -34t-34 -23t-41.5 -8.5zM123 -155h-87l75 155q-25 10 -45 36.5t-20 62.5q0 22 8.5 41.5t23 34t34 23t41.5 8.5t41.5 -8.5t34 -23
t23 -34t8.5 -41.5q0 -18 -6 -35t-16 -34z" />
    <glyph glyph-name="less" unicode="&#x3c;" horiz-adv-x="490" 
d="M212 290l253 -253h-188l-253 253l253 253h188z" />
    <glyph glyph-name="equal" unicode="=" horiz-adv-x="536" 
d="M58 250h420v-130h-420v130zM58 459h420v-131h-420v131z" />
    <glyph glyph-name="greater" unicode="&#x3e;" horiz-adv-x="490" 
d="M25 543h188l253 -253l-253 -253h-188l253 253z" />
    <glyph glyph-name="question" unicode="?" horiz-adv-x="523" 
d="M160 282q0 45 21.5 75.5t63.5 59.5q16 11 32 20t28.5 19.5t20 23t7.5 30.5q0 31 -21.5 47t-51.5 16q-31 0 -56.5 -19.5t-25.5 -58.5h-151q0 47 18 88.5t49.5 72t74 48.5t91.5 18t90.5 -17t71 -45t46 -64.5t16.5 -76.5q0 -26 -3.5 -49t-13 -44t-26.5 -41t-43 -39
q-40 -30 -63.5 -47t-23.5 -35v-1h-151v19zM235 -8q-22 0 -41.5 8.5t-34 23t-23 34t-8.5 41.5t8.5 41.5t23 34t34 23t41.5 8.5t41.5 -8.5t34 -23t23 -34t8.5 -41.5t-8.5 -41.5t-23 -34t-34 -23t-41.5 -8.5z" />
    <glyph glyph-name="at" unicode="@" horiz-adv-x="800" 
d="M387 -11q-81 0 -145.5 27t-110 74.5t-69.5 111t-24 135.5q0 85 31.5 156t84.5 122t123.5 79t147.5 28q73 0 136 -22t109.5 -63t72.5 -99.5t26 -131.5q0 -65 -14.5 -112t-39.5 -77.5t-59 -45t-72 -14.5q-35 0 -64 14t-43 34q-22 -22 -53 -34t-69 -12t-67 14t-49 37.5
t-30.5 54.5t-10.5 66q0 45 15 84.5t42 69.5t63.5 47.5t78.5 17.5q39 0 65.5 -17.5t37.5 -38.5l9 46h105l-46 -216q-7 -33 -0.5 -56t35.5 -23q38 0 60 37t22 126q0 58 -21.5 102t-57.5 73t-83 43.5t-99 14.5q-58 0 -112 -20t-95 -59t-66 -95.5t-25 -129.5q0 -60 18.5 -109
t52 -84t82 -54.5t108.5 -19.5q45 0 90 8t86 28v-89q-43 -15 -89 -21.5t-87 -6.5zM378 257q39 0 63.5 24.5t32.5 62.5q4 22 1.5 41.5t-11 34.5t-23 23.5t-33.5 8.5q-39 0 -63.5 -24.5t-32.5 -62.5q-5 -22 -2 -41.5t11.5 -34.5t23 -23.5t33.5 -8.5z" />
    <glyph glyph-name="A" unicode="A" horiz-adv-x="750" 
d="M303 710h144l304 -710h-166l-63 150h-294l-63 -150h-166zM285 288h179l-89 213z" />
    <glyph glyph-name="B" unicode="B" horiz-adv-x="635" 
d="M75 710h267q43 0 81.5 -16.5t67.5 -45t45.5 -67t16.5 -82.5q0 -38 -14 -68.5t-37 -53.5q45 -23 73 -67t28 -101q0 -44 -16.5 -82t-45.5 -66.5t-68.5 -44.5t-85.5 -16h-312v710zM374 146q32 0 53 20.5t21 50.5q0 29 -21.5 50t-53.5 21h-139v-142h140zM324 423
q32 0 53 20.5t21 49.5t-21 50.5t-53 21.5h-90v-142h90z" />
    <glyph glyph-name="C" unicode="C" horiz-adv-x="778" 
d="M409 -12q-81 0 -149.5 28.5t-118 78t-77.5 116.5t-28 144t28 144t77.5 116.5t118 78t149.5 28.5q58 0 113.5 -18t102 -51t80.5 -80.5t49 -106.5h-173q-23 50 -71 76t-101 26q-49 0 -88.5 -16.5t-67 -45.5t-42.5 -67.5t-15 -83.5t15 -83.5t42.5 -67.5t67 -45.5t88.5 -16.5
q53 0 101 26t71 76h173q-15 -59 -49 -106.5t-80.5 -80.5t-102 -51t-113.5 -18z" />
    <glyph glyph-name="D" unicode="D" horiz-adv-x="715" 
d="M75 710h242q75 0 141 -28t115 -76t77.5 -112.5t28.5 -138.5t-28.5 -138.5t-77.5 -112.5t-115 -76t-141 -28h-242v710zM317 146q45 0 82 16.5t63.5 45t41 66.5t14.5 81t-14.5 81t-41 66.5t-63.5 45t-82 16.5h-83v-418h83z" />
    <glyph glyph-name="E" unicode="E" horiz-adv-x="571" 
d="M75 710h450v-152h-291v-127h231v-152h-231v-127h291v-152h-450v710z" />
    <glyph glyph-name="F" unicode="F" horiz-adv-x="545" 
d="M75 710h437v-152h-278v-128h217v-152h-217v-278h-159v710z" />
    <glyph glyph-name="G" unicode="G" horiz-adv-x="802" 
d="M411 -12q-82 0 -151 28.5t-118.5 78t-77.5 116.5t-28 144t28 144t77.5 116.5t118 78t149.5 28.5q54 0 106 -15.5t96.5 -44t78.5 -69.5t53 -93h-183q-26 34 -67 51t-84 17q-49 0 -88.5 -16.5t-67 -45.5t-42.5 -67.5t-15 -83.5t15 -83.5t43 -67.5t67.5 -45.5t89.5 -16.5
q80 0 125.5 37t58.5 102h-204v149h369q13 -113 -10 -196t-71.5 -138t-118 -81.5t-149.5 -26.5z" />
    <glyph glyph-name="H" unicode="H" horiz-adv-x="754" 
d="M75 710h159v-278h286v278h159v-710h-159v281h-286v-281h-159v710z" />
    <glyph glyph-name="I" unicode="I" horiz-adv-x="309" 
d="M75 710h159v-710h-159v710z" />
    <glyph glyph-name="J" unicode="J" horiz-adv-x="552" 
d="M250 -12q-45 0 -86.5 12.5t-73.5 39.5t-51 68.5t-19 99.5h157q0 -36 21 -54t52 -18q29 0 51 17t22 51v506h159v-516q0 -54 -19 -93t-51 -64t-74 -37t-88 -12z" />
    <glyph glyph-name="K" unicode="K" horiz-adv-x="700" 
d="M233 318v-318h-158v710h158v-297l241 297h195l-280 -341l337 -369h-204z" />
    <glyph glyph-name="L" unicode="L" horiz-adv-x="552" 
d="M75 710h159v-558h294v-152h-453v710z" />
    <glyph glyph-name="M" unicode="M" horiz-adv-x="884" 
d="M220 710l221 -306l223 306h145v-710h-160v437l-207 -286l-208 287v-438h-159v710h145z" />
    <glyph glyph-name="N" unicode="N" horiz-adv-x="792" 
d="M580 0l-346 439v-439h-159v710h137l345 -439v439h160v-710h-137z" />
    <glyph glyph-name="O" unicode="O" horiz-adv-x="804" 
d="M402 142q43 0 80.5 17t65.5 46.5t44 68t16 81.5t-16 81.5t-44 68t-65.5 46.5t-80.5 17q-44 0 -81.5 -17t-65.5 -46.5t-44 -68t-16 -81.5t16 -81.5t44 -68t65.5 -46.5t81.5 -17zM402 -12q-76 0 -143 29t-116.5 79t-78.5 116.5t-29 142.5t29 142.5t78.5 116.5t116.5 79
t143 29t142.5 -29t116.5 -79t79 -116.5t29 -142.5t-29 -142.5t-79 -116.5t-116.5 -79t-142.5 -29z" />
    <glyph glyph-name="P" unicode="P" horiz-adv-x="593" 
d="M566 467q0 -51 -19 -95.5t-52.5 -77t-79 -51t-99.5 -18.5h-82v-225h-159v710h241q54 0 99.5 -18.5t79 -51.5t52.5 -77.5t19 -95.5zM412 467q0 40 -27.5 66.5t-70.5 26.5h-80v-186h80q43 0 70.5 27t27.5 66z" />
    <glyph glyph-name="Q" unicode="Q" horiz-adv-x="840" 
d="M402 -12q-76 0 -143 29t-116.5 79t-78.5 116.5t-29 142.5t29 142.5t78.5 116.5t116.5 79t143 29t142.5 -29t116.5 -79t79 -116.5t29 -142.5q0 -52 -13.5 -99t-38.5 -89l205 -167h-225l-76 61q-46 -35 -101.5 -54t-117.5 -19zM402 142q49 0 92 23l-101 82l90 110l107 -88
q8 20 13 41.5t5 44.5q0 43 -16 81.5t-44 68t-65.5 46.5t-80.5 17q-44 0 -81.5 -17t-65.5 -46.5t-44 -68t-16 -81.5t16 -81.5t44 -68t65.5 -46.5t81.5 -17z" />
    <glyph glyph-name="R" unicode="R" horiz-adv-x="662" 
d="M75 710h280q50 0 91 -17t69.5 -46t44 -68t15.5 -83q0 -69 -35.5 -114t-103.5 -69l251 -313h-191l-237 293h-25v-293h-159v710zM336 428q35 0 58 18.5t23 49.5q0 32 -23 50t-58 18h-102v-136h102z" />
    <glyph glyph-name="S" unicode="S" horiz-adv-x="602" 
d="M312 -12q-66 0 -117 21t-86.5 54.5t-55 76.5t-21.5 88h159q8 -45 41 -69t80 -24q40 0 66 16.5t26 46.5q0 25 -21 44t-72 33l-69 18q-85 23 -138 76t-54 137q0 50 17 90t49.5 68t77.5 43t100 15q58 0 105 -19.5t80 -51t51 -71t20 -80.5h-158q-12 42 -40.5 58.5t-57.5 16.5
q-35 0 -59 -14.5t-25 -43.5t21.5 -47t64.5 -29l81 -21q88 -23 138 -78t50 -139q0 -45 -18 -84.5t-51 -68.5t-80 -45.5t-104 -16.5z" />
    <glyph glyph-name="T" unicode="T" horiz-adv-x="568" 
d="M203 558h-181v152h524v-152h-183v-558h-160v558z" />
    <glyph glyph-name="U" unicode="U" horiz-adv-x="718" 
d="M359 -12q-64 0 -117.5 21t-92.5 59t-60.5 92.5t-21.5 120.5v429h159v-431q0 -64 36.5 -100.5t96.5 -36.5t96.5 36.5t36.5 100.5v431h159v-429q0 -66 -21.5 -120.5t-60.5 -92.5t-92.5 -59t-117.5 -21z" />
    <glyph glyph-name="V" unicode="V" horiz-adv-x="727" 
d="M1 710h173l189 -473l188 473h175l-291 -710h-143z" />
    <glyph glyph-name="W" unicode="W" horiz-adv-x="965" 
d="M483 347l-151 -347h-151l-164 710h170l97 -450l199 462l200 -462l97 450h170l-165 -710h-151z" />
    <glyph glyph-name="X" unicode="X" horiz-adv-x="704" 
d="M-9 0l266 359l-250 351h184l161 -228l161 228h184l-249 -351l265 -359h-185l-176 235l-175 -235h-186z" />
    <glyph glyph-name="Y" unicode="Y" horiz-adv-x="694" 
d="M267 299l-259 411h185l153 -256l155 256h185l-259 -412v-298h-160v299z" />
    <glyph glyph-name="Z" unicode="Z" horiz-adv-x="626" 
d="M39 109l326 449h-321v152h537v-109l-327 -449h333v-152h-548v109z" />
    <glyph glyph-name="bracketleft" unicode="[" horiz-adv-x="331" 
d="M72 800h230v-108h-104v-744h104v-108h-230v960z" />
    <glyph glyph-name="backslash" unicode="\" horiz-adv-x="556" 
d="M152.99 710h-135.991l385.977 -820h135.991z" />
    <glyph glyph-name="bracketright" unicode="]" horiz-adv-x="331" 
d="M259 -160h-230v108h104v744h-104v108h230v-960z" />
    <glyph glyph-name="asciicircum" unicode="^" horiz-adv-x="331" 
d="M38 500l102 210h52l101 -210h-82l-46 94l-45 -94h-82z" />
    <glyph glyph-name="underscore" unicode="_" horiz-adv-x="511" 
d="M38 0h435v-114h-435v114z" />
    <glyph glyph-name="grave" unicode="`" 
d="M-140 750h172l110 -190h-111z" />
    <glyph glyph-name="a" unicode="a" horiz-adv-x="613" 
d="M264 -11q-49 0 -91.5 21t-73.5 56.5t-49 83t-18 100.5t18 100.5t49 83t73.5 56.5t91.5 21q25 0 46.5 -5.5t39 -14.5t30 -20t20.5 -21v50h151v-500h-151v50q-8 -10 -20.5 -21t-30 -20t-39 -14.5t-46.5 -5.5zM298 126q51 0 82.5 35t31.5 89t-31.5 89t-82.5 35t-82.5 -35
t-31.5 -89t31.5 -89t82.5 -35z" />
    <glyph glyph-name="b" unicode="b" horiz-adv-x="613" 
d="M349 -11q-25 0 -46.5 5.5t-39 14.5t-30.5 20t-20 21v-50h-151v750h151v-300q7 10 20 21t30.5 20t39 14.5t46.5 5.5q49 0 91.5 -21t73.5 -56.5t49 -83t18 -100.5t-18 -100.5t-49 -83t-73.5 -56.5t-91.5 -21zM315 126q51 0 82.5 35t31.5 89t-31.5 89t-82.5 35t-82.5 -35
t-31.5 -89t31.5 -89t82.5 -35z" />
    <glyph glyph-name="c" unicode="c" horiz-adv-x="578" 
d="M295 -11q-57 0 -105 20.5t-83.5 55.5t-55 83t-19.5 102t19.5 102t55 83t83.5 55.5t105 20.5q53 0 96.5 -15.5t76 -43.5t54 -65.5t31.5 -81.5h-156q-14 30 -38 50t-64 20q-48 0 -79.5 -33t-31.5 -92t31.5 -92t79.5 -33q40 0 64 20t38 50h156q-10 -44 -31.5 -81.5
t-54 -65.5t-76 -43.5t-96.5 -15.5z" />
    <glyph glyph-name="d" unicode="d" horiz-adv-x="613" 
d="M264 -11q-49 0 -91.5 21t-73.5 56.5t-49 83t-18 100.5t18 100.5t49 83t73.5 56.5t91.5 21q25 0 46.5 -5.5t39 -14.5t30 -20t20.5 -21v300h151v-750h-151v50q-8 -10 -20.5 -21t-30 -20t-39 -14.5t-46.5 -5.5zM298 126q51 0 82.5 35t31.5 89t-31.5 89t-82.5 35t-82.5 -35
t-31.5 -89t31.5 -89t82.5 -35z" />
    <glyph glyph-name="e" unicode="e" horiz-adv-x="596" 
d="M297 -11q-58 0 -106.5 19.5t-84 54.5t-55 83t-19.5 105q0 56 20 104t55.5 82.5t84 54t105.5 19.5q54 0 103.5 -18.5t86.5 -55.5t58 -92.5t19 -129.5h-385q2 -19 10.5 -36.5t24 -30.5t38 -21t53.5 -8q33 0 60 13.5t36 33.5h158q-12 -39 -36.5 -71.5t-59 -56t-77 -36.5
t-89.5 -13zM293 391q-45 0 -72.5 -23t-37.5 -57h214q-6 22 -17.5 37.5t-26 25t-30 13.5t-30.5 4z" />
    <glyph glyph-name="f" unicode="f" horiz-adv-x="424" 
d="M118 369h-100v131h100v55q0 48 16 85t43 63t63.5 39.5t78.5 13.5q30 0 51.5 -3t38.5 -8v-133q-12 5 -24.5 7t-29.5 2q-46 0 -66 -20t-20 -65v-36h140v-131h-140v-369h-151v369z" />
    <glyph glyph-name="g" unicode="g" horiz-adv-x="615" 
d="M298 -219q-54 0 -97.5 15t-75 40.5t-50 60.5t-21.5 76h147q12 -35 37.5 -51t63.5 -16q39 0 69.5 25t30.5 78v59q-17 -26 -53.5 -43.5t-82.5 -17.5q-48 0 -90.5 19.5t-74.5 54t-50.5 80t-18.5 98.5q0 52 18.5 98t50.5 80.5t74.5 54t90.5 19.5q46 0 82.5 -17.5t53.5 -43.5
v50h151v-469q0 -69 -21.5 -117t-57.5 -77.5t-82 -42.5t-94 -13zM299 144q23 0 44 8t36.5 23t25 36.5t9.5 47.5t-9.5 47.5t-25 36.5t-36.5 23t-44 8t-44 -8t-36.5 -23t-25 -36.5t-9.5 -47.5t9.5 -47.5t25 -36.5t36.5 -23t44 -8z" />
    <glyph glyph-name="h" unicode="h" horiz-adv-x="602" 
d="M62 0v750h151v-301q18 26 54 44t85 18q46 0 82 -16.5t61 -45.5t38 -70t13 -90v-289h-151v263q0 52 -20 81.5t-61 29.5q-43 0 -72 -31.5t-29 -99.5v-243h-151z" />
    <glyph glyph-name="i" unicode="i" horiz-adv-x="275" 
d="M137 568q-19 0 -36 7.5t-30 20t-20.5 29.5t-7.5 37q0 19 7.5 36.5t20.5 30t30 20t36 7.5q20 0 37.5 -7.5t30 -20t20 -30t7.5 -36.5q0 -20 -7.5 -37t-20 -29.5t-30 -20t-37.5 -7.5zM62 500h151v-500h-151v500z" />
    <glyph glyph-name="j" unicode="j" horiz-adv-x="283" 
d="M221 -30q0 -48 -16 -83.5t-43 -59t-62 -35t-74 -11.5q-17 0 -33 1t-28 3v128q5 -1 12.5 -1.5t12.5 -0.5q40 0 60 19.5t20 64.5v505h151v-530zM145 568q-19 0 -36 7.5t-30 20t-20.5 29.5t-7.5 37q0 19 7.5 36.5t20.5 30t30 20t36 7.5q20 0 37.5 -7.5t30 -20t20 -30
t7.5 -36.5q0 -20 -7.5 -37t-20 -29.5t-30 -20t-37.5 -7.5z" />
    <glyph glyph-name="k" unicode="k" horiz-adv-x="560" 
d="M213 223v-223h-151v750h151v-429l146 179h179l-184 -226l228 -274h-183z" />
    <glyph glyph-name="l" unicode="l" horiz-adv-x="275" 
d="M62 750h151v-750h-151v750z" />
    <glyph glyph-name="m" unicode="m" horiz-adv-x="895" 
d="M688 259q0 55 -17 85t-55 30q-39 0 -63.5 -30t-26.5 -95v-249h-151v259q0 55 -17 85t-55 30q-40 0 -65 -31t-25 -100v-243h-151v500h151v-51q20 26 51.5 44t76.5 18q54 0 92.5 -23t61.5 -65q12 23 30 39.5t39 27.5t43 16t42 5q92 0 141 -60.5t49 -165.5v-285h-151v259z
" />
    <glyph glyph-name="n" unicode="n" horiz-adv-x="602" 
d="M62 500h151v-51q18 26 54 44t85 18q46 0 82 -16.5t61 -45.5t38 -70t13 -90v-289h-151v263q0 52 -20 81.5t-61 29.5q-43 0 -72 -31.5t-29 -99.5v-243h-151v500z" />
    <glyph glyph-name="o" unicode="o" horiz-adv-x="588" 
d="M294 -11q-54 0 -102 20t-83.5 55.5t-56.5 83t-21 102.5t21 102.5t56.5 83t83.5 55.5t102 20t102 -20t83.5 -55.5t56.5 -83t21 -102.5t-21 -102.5t-56.5 -83t-83.5 -55.5t-102 -20zM294 130q48 0 79.5 33t31.5 87t-31.5 87t-79.5 33t-79.5 -33t-31.5 -87t31.5 -87
t79.5 -33z" />
    <glyph glyph-name="p" unicode="p" horiz-adv-x="613" 
d="M62 -209v709h151v-50q7 10 20 21t30.5 20t39 14.5t46.5 5.5q49 0 91.5 -21t73.5 -56.5t49 -83t18 -100.5t-18 -100.5t-49 -83t-73.5 -56.5t-91.5 -21q-25 0 -46.5 5.5t-39 14.5t-30.5 20t-20 21v-259h-151zM315 126q51 0 82.5 35t31.5 89t-31.5 89t-82.5 35t-82.5 -35
t-31.5 -89t31.5 -89t82.5 -35z" />
    <glyph glyph-name="q" unicode="q" horiz-adv-x="613" 
d="M400 -209v259q-8 -10 -20.5 -21t-30 -20t-39 -14.5t-46.5 -5.5q-49 0 -91.5 21t-73.5 56.5t-49 83t-18 100.5t18 100.5t49 83t73.5 56.5t91.5 21q25 0 46.5 -5.5t39 -14.5t30 -20t20.5 -21v50h151v-709h-151zM298 126q51 0 82.5 35t31.5 89t-31.5 89t-82.5 35t-82.5 -35
t-31.5 -89t31.5 -89t82.5 -35z" />
    <glyph glyph-name="r" unicode="r" horiz-adv-x="403" 
d="M62 500h151v-75q12 33 44.5 57t74.5 24q11 0 23 -1t26 -5v-153q-17 6 -33 9t-34 3q-49 0 -75 -34t-26 -88v-237h-151v500z" />
    <glyph glyph-name="s" unicode="s" horiz-adv-x="510" 
d="M264 -11q-51 0 -93 13.5t-72.5 37t-48 55t-19.5 68.5h159q2 -30 24.5 -45t54.5 -15q29 0 42.5 9t13.5 23q0 17 -14 25.5t-43 16.5l-101 26q-66 17 -96 59t-30 98q0 33 14 60.5t41 47.5t65.5 31.5t88.5 11.5q41 0 77.5 -10.5t64.5 -31t45 -50.5t20 -70h-152
q-5 28 -21.5 37t-36.5 9q-23 0 -37 -8.5t-14 -23.5q0 -10 4.5 -16.5t12 -10.5t16.5 -7t18 -5l91 -24q76 -20 108.5 -58.5t32.5 -98.5q0 -35 -16 -63.5t-44.5 -48.5t-68 -31t-86.5 -11z" />
    <glyph glyph-name="t" unicode="t" horiz-adv-x="440" 
d="M317 -6q-42 0 -78.5 11.5t-63.5 35t-43 59t-16 83.5v186h-100v131h100v139h151v-139h140v-131h-140v-155q0 -45 20 -65t65 -20q17 0 30 2t25 7v-134q-17 -5 -38.5 -7.5t-51.5 -2.5z" />
    <glyph glyph-name="u" unicode="u" horiz-adv-x="591" 
d="M245 -11q-93 0 -141 62t-48 164v285h151v-259q0 -55 17.5 -85t59.5 -30q43 0 68.5 31t25.5 100v243h151v-500h-151v51q-18 -26 -51 -44t-82 -18z" />
    <glyph glyph-name="v" unicode="v" horiz-adv-x="576" 
d="M-1 500h167l121 -304l122 304h168l-219 -500h-140z" />
    <glyph glyph-name="w" unicode="w" horiz-adv-x="810" 
d="M405 264l-85 -264h-152l-165 500h162l87 -307l95 307h116l95 -307l87 307h162l-164 -500h-152z" />
    <glyph glyph-name="x" unicode="x" horiz-adv-x="577" 
d="M289 136l-106 -136h-181l192 242l-190 258h178l106 -146l106 146h180l-190 -258l191 -242h-180z" />
    <glyph glyph-name="y" unicode="y" horiz-adv-x="576" 
d="M104 -209l104 238l-208 471h165l124 -309l123 309h166l-311 -709h-163z" />
    <glyph glyph-name="z" unicode="z" horiz-adv-x="502" 
d="M41 118l219 246h-216v136h412v-119l-219 -245h227v-136h-423v118z" />
    <glyph glyph-name="braceleft" unicode="{" horiz-adv-x="347" 
d="M231 -160q-66 0 -104.5 38.5t-38.5 103.5v229q0 22 -12 38.5t-41 16.5h-8v108h8q29 0 41 15.5t12 37.5v231q0 65 38.5 103.5t104.5 38.5h88v-108h-48q-31 0 -43.5 -12.5t-12.5 -44.5v-217q0 -44 -18 -67.5t-45 -30.5q27 -7 45 -32t18 -69v-214q0 -32 12.5 -44.5
t43.5 -12.5h48v-108h-88z" />
    <glyph glyph-name="bar" unicode="|" horiz-adv-x="268" 
d="M71 710h126v-820h-126v820z" />
    <glyph glyph-name="braceright" unicode="}" horiz-adv-x="347" 
d="M28 -160v108h48q31 0 43.5 12.5t12.5 44.5v214q0 44 18 69t45 32q-27 7 -45 30.5t-18 67.5v217q0 32 -12.5 44.5t-43.5 12.5h-48v108h88q66 0 104.5 -38.5t38.5 -103.5v-231q0 -22 12 -37.5t41 -15.5h8v-108h-8q-29 0 -41 -16.5t-12 -38.5v-229q0 -65 -38.5 -103.5
t-104.5 -38.5h-88z" />
    <glyph glyph-name="asciitilde" unicode="~" horiz-adv-x="328" 
d="M111 349h46l28 -40l18 40h73l-55 -119h-46l-29 40l-18 -40h-72z" />
    <glyph glyph-name="uni00A0" unicode="&#xa0;" horiz-adv-x="225" 
 />
    <glyph glyph-name="exclamdown" unicode="&#xa1;" horiz-adv-x="282" 
d="M217 54v-263h-152v263l29 184h93zM141 297q-22 0 -41.5 8.5t-34 23t-23 34t-8.5 41.5t8.5 41.5t23 34t34 23t41.5 8.5t41.5 -8.5t34 -23t23 -34t8.5 -41.5t-8.5 -41.5t-23 -34t-34 -23t-41.5 -8.5z" />
    <glyph glyph-name="cent" unicode="&#xa2;" horiz-adv-x="588" 
d="M273 -9q-52 4 -95 26t-74.5 56.5t-49 80t-17.5 96.5t17.5 96t49 79.5t74.5 56.5t95 27v79h54v-78q47 -4 85.5 -21.5t68 -44.5t49 -62.5t28.5 -76.5h-156q-11 24 -29 42t-46 25v-244q28 6 46 24t29 43h156q-19 -83 -77.5 -140t-153.5 -65v-78h-54v79zM189 250
q0 -51 23.5 -82.5t60.5 -39.5v244q-37 -9 -60.5 -40.5t-23.5 -81.5z" />
    <glyph glyph-name="sterling" unicode="&#xa3;" horiz-adv-x="595" 
d="M44 385h74q-11 29 -18 59.5t-7 62.5q0 37 16.5 75.5t46.5 69.5t72 50.5t93 19.5q50 0 92 -19.5t73 -52t48.5 -75t19.5 -88.5h-151q0 18 -6 33.5t-17 27t-26 18.5t-33 7q-32 0 -54.5 -21t-22.5 -58q0 -27 9 -53.5t20 -55.5h166v-57h-146q6 -21 10 -43.5t4 -47.5
q0 -19 -5 -41t-18 -47h270v-149h-510v149h95q19 42 19 84q0 23 -5.5 47t-13.5 48h-95v57z" />
    <glyph glyph-name="yen" unicode="&#xa5;" horiz-adv-x="735" 
d="M75 355h180l-231 355h184l159 -260l159 260h184l-230 -355h180v-57h-217v-76h217v-57h-217v-165h-151v165h-217v57h217v76h-217v57z" />
    <glyph glyph-name="brokenbar" unicode="&#xa6;" horiz-adv-x="268" 
d="M71 233h126v-343h-126v343zM71 710h126v-343h-126v343z" />
    <glyph glyph-name="section" unicode="&#xa7;" horiz-adv-x="453" 
d="M235 -219q-33 0 -65 9.5t-58 30t-43 54t-20 81.5h126q3 -20 9 -33t14 -20.5t17.5 -10.5t19.5 -3q15 0 30.5 11.5t15.5 37.5q0 11 -1.5 22.5t-9 24t-22.5 27t-42 30.5l-55 35q-43 28 -73 68t-30 96q0 30 6.5 54.5t17 44.5t23.5 36t25 31q-23 19 -37 40t-22 42t-11 39.5
t-3 33.5q0 38 13 67.5t35.5 50t53 31.5t65.5 11q33 0 64 -9.5t56.5 -30t42.5 -54t20 -81.5h-126q-5 41 -20.5 54t-32.5 13q-18 0 -31.5 -11t-13.5 -40q0 -11 1.5 -21t9 -20.5t22 -23.5t40.5 -29l55 -35q44 -28 74.5 -68t30.5 -96q0 -31 -7 -55.5t-17.5 -44.5t-23.5 -36
t-25 -31q22 -20 36.5 -42.5t23 -44.5t11.5 -42t3 -35q0 -37 -14 -66.5t-37 -49.5t-54.5 -31t-66.5 -11zM173 259q0 -36 16.5 -54.5t43.5 -35.5l5 -3q19 19 31 41t12 45q0 18 -4.5 31t-13 23.5t-19.5 19t-24 16.5l-5 2q-20 -19 -31 -40.5t-11 -44.5z" />
    <glyph glyph-name="dieresis" unicode="&#xa8;" 
d="M-118 572q-17 0 -31.5 6.5t-25.5 17t-17.5 25t-6.5 30.5q0 34 23.5 57.5t57.5 23.5q16 0 30.5 -6.5t25 -17.5t17 -25.5t6.5 -31.5q0 -32 -23.5 -55.5t-55.5 -23.5zM119 572q-33 0 -56.5 23.5t-23.5 55.5q0 34 23.5 57.5t56.5 23.5t56.5 -23.5t23.5 -57.5
q0 -32 -23.5 -55.5t-56.5 -23.5z" />
    <glyph glyph-name="copyright" unicode="&#xa9;" horiz-adv-x="803" 
d="M405 163q-43 0 -78.5 15t-61.5 40.5t-40.5 60.5t-14.5 76q0 40 14.5 75t40.5 61t61.5 41t78.5 15q30 0 59 -9.5t53.5 -26.5t42.5 -42.5t26 -56.5h-95q-12 25 -36 37.5t-50 12.5q-50 0 -78.5 -31t-28.5 -76t28.5 -76t78.5 -31q26 0 50 12t36 37h95q-8 -32 -26 -56.5
t-42.5 -42t-53.5 -26.5t-59 -9zM401 76q58 0 108.5 22t88.5 60t60 88.5t22 108.5t-22 108.5t-60 88.5t-88.5 60t-108.5 22q-57 0 -108 -22t-88.5 -60t-59.5 -88.5t-22 -108.5t22 -108.5t59.5 -88.5t88.5 -60t108 -22zM401 -12q-75 0 -142 29t-116.5 79t-78.5 116.5
t-29 142.5t29 142.5t78.5 116.5t116.5 79t142 29q76 0 142.5 -29t116.5 -79t79 -116.5t29 -142.5t-29 -142.5t-79 -116.5t-116.5 -79t-142.5 -29z" />
    <glyph glyph-name="ordfeminine" unicode="&#xaa;" horiz-adv-x="401" 
d="M168 403q-29 0 -54 12.5t-43.5 34t-29 50t-10.5 60.5t10.5 60.5t29 50t43.5 34t54 12.5t47 -11.5t25 -19.5v24h105v-300h-105v24q-7 -8 -25 -19.5t-47 -11.5zM193 498q25 0 40.5 17t15.5 45t-15.5 45t-40.5 17q-26 0 -41 -17t-15 -45t15 -45t41 -17z" />
    <glyph glyph-name="guillemotleft" unicode="&#xab;" horiz-adv-x="538" 
d="M377 467h131l-116 -217l116 -217h-131l-141 217zM166 467h131l-116 -217l116 -217h-131l-141 217z" />
    <glyph glyph-name="uni00AD" unicode="&#xad;" horiz-adv-x="404" 
d="M55 352h294v-144h-294v144z" />
    <glyph glyph-name="registered" unicode="&#xae;" horiz-adv-x="803" 
d="M401 -12q-75 0 -142 29t-116.5 79t-78.5 116.5t-29 142.5t29 142.5t78.5 116.5t116.5 79t142 29q76 0 142.5 -29t116.5 -79t79 -116.5t29 -142.5t-29 -142.5t-79 -116.5t-116.5 -79t-142.5 -29zM401 76q58 0 108.5 22t88.5 60t60 88.5t22 108.5t-22 108.5t-60 88.5
t-88.5 60t-108.5 22q-57 0 -108 -22t-88.5 -60t-59.5 -88.5t-22 -108.5t22 -108.5t59.5 -88.5t88.5 -60t108 -22zM275 540h149q54 0 85 -33t31 -80q0 -36 -18 -58.5t-53 -36.5l130 -163h-104l-121 151h-11v-151h-88v371zM414 394q17 0 28 9.5t11 23.5q0 16 -11 24.5t-28 8.5
h-51v-66h51z" />
    <glyph glyph-name="macron" unicode="&#xaf;" 
d="M-174 710h348v-104h-348v104z" />
    <glyph glyph-name="degree" unicode="&#xb0;" horiz-adv-x="382" 
d="M192 493q25 0 42.5 17.5t17.5 42.5t-17.5 43t-42.5 18q-27 0 -44.5 -18t-17.5 -43t17.5 -42.5t44.5 -17.5zM192 393q-33 0 -62.5 12.5t-51.5 34.5t-34.5 51t-12.5 62t12.5 62.5t34.5 51.5t51.5 34.5t62.5 12.5t62 -12.5t51 -34.5t34.5 -51.5t12.5 -62.5t-12.5 -62
t-34.5 -51t-51 -34.5t-62 -12.5z" />
    <glyph glyph-name="uni00B2" unicode="&#xb2;" horiz-adv-x="356" 
d="M327 410h-304v34q0 37 12 65t31.5 49t44 38t48.5 33q22 14 41.5 35.5t19.5 42.5q0 15 -10.5 26.5t-30.5 11.5q-24 0 -36.5 -14.5t-11.5 -29.5h-105q0 32 12 59.5t33 47t49.5 30.5t62.5 11q27 0 53 -9t45.5 -26t31.5 -43t12 -60q0 -31 -7 -54.5t-19 -42t-27.5 -32
t-31.5 -24.5q-4 -3 -13 -8t-19 -11.5t-19.5 -13t-13.5 -11.5h152v-104z" />
    <glyph glyph-name="uni00B3" unicode="&#xb3;" horiz-adv-x="364" 
d="M184 403q-29 0 -58 9t-52 27.5t-38 47.5t-17 69h104q4 -26 20 -37.5t42 -11.5q23 0 36.5 11t13.5 28q0 18 -14.5 30t-39.5 12h-40v82h33q27 0 37.5 11t10.5 28q0 16 -11 26t-29 10q-23 0 -36.5 -14t-12.5 -30h-105q0 36 13.5 63.5t35.5 46t50 28.5t56 10q37 0 64.5 -11
t45.5 -29t26.5 -41.5t8.5 -48.5q0 -32 -13.5 -55.5t-27.5 -37.5q19 -9 36 -32t17 -60q0 -29 -11 -53t-31.5 -41t-49.5 -27t-64 -10z" />
    <glyph glyph-name="acute" unicode="&#xb4;" 
d="M-32 750h172l-171 -190h-110z" />
    <glyph glyph-name="paragraph" unicode="&#xb6;" horiz-adv-x="675" 
d="M250 260q-47 0 -87.5 17.5t-71.5 48.5t-48.5 71.5t-17.5 87.5q0 46 17.5 87t48.5 72t71.5 48.5t87.5 17.5h339v-894h-127v763h-85v-763h-127v444z" />
    <glyph glyph-name="periodcentered" unicode="&#xb7;" horiz-adv-x="294" 
d="M147 175q-22 0 -41.5 8.5t-34 23t-23 34t-8.5 41.5t8.5 41.5t23 34t34 23t41.5 8.5t41.5 -8.5t34 -23t23 -34t8.5 -41.5t-8.5 -41.5t-23 -34t-34 -23t-41.5 -8.5z" />
    <glyph glyph-name="cedilla" unicode="&#xb8;" 
d="M-121 -139q16 -9 37 -13t39 -4q10 0 20.5 1t19.5 4.5t14.5 9.5t5.5 16q0 14 -12 20.5t-31 6.5q-8 0 -19 -2.5t-21 -7.5l-36 19l56 92h64l-30 -50q13 3 23.5 5t25.5 2q36 0 61 -20.5t25 -58.5q0 -23 -12 -41.5t-31.5 -31.5t-44 -20t-50.5 -7q-22 0 -50 2.5t-54 12.5v65z
" />
    <glyph glyph-name="uni00B9" unicode="&#xb9;" horiz-adv-x="247" 
d="M99 738h-97l73 104h129v-432h-105v328z" />
    <glyph glyph-name="ordmasculine" unicode="&#xba;" horiz-adv-x="376" 
d="M188 403q-32 0 -60.5 12t-50.5 33t-34.5 50t-12.5 62t12.5 62t34.5 50t50.5 33t60.5 12t60.5 -12t50.5 -33t34.5 -50t12.5 -62t-12.5 -62t-34.5 -50t-50.5 -33t-60.5 -12zM188 501q22 0 37.5 16t15.5 43t-15.5 43t-37.5 16t-37.5 -16t-15.5 -43t15.5 -43t37.5 -16z" />
    <glyph glyph-name="guillemotright" unicode="&#xbb;" horiz-adv-x="538" 
d="M513 250l-141 -217h-131l116 217l-116 217h131zM302 250l-141 -217h-131l116 217l-116 217h131z" />
    <glyph glyph-name="onequarter" unicode="&#xbc;" horiz-adv-x="836" 
d="M100 606h-97l73 104h129v-432h-105v328zM68 0l500 710h128l-500 -710h-128zM659 87h-205v85l215 261h95v-251h54v-95h-54v-86h-105v86zM659 182v96l-79 -96h79z" />
    <glyph glyph-name="onehalf" unicode="&#xbd;" horiz-adv-x="826" 
d="M100 606h-97l73 104h129v-432h-105v328zM68 0l500 710h128l-500 -710h-128zM797 1h-304v34q0 37 12 65t31.5 49t44 38t48.5 33q22 14 41.5 35.5t19.5 42.5q0 15 -10.5 26.5t-30.5 11.5q-24 0 -36.5 -14.5t-11.5 -29.5h-105q0 32 12 59.5t33 47t49.5 30.5t62.5 11
q27 0 53 -9t45.5 -26t31.5 -43t12 -60q0 -31 -7 -54.5t-19 -42t-27.5 -32t-31.5 -24.5q-4 -3 -13 -8t-19 -11.5t-19.5 -13t-13.5 -11.5h152v-104z" />
    <glyph glyph-name="threequarters" unicode="&#xbe;" horiz-adv-x="910" 
d="M184 271q-29 0 -58 9t-52 27.5t-38 47.5t-17 69h104q4 -26 20 -37.5t42 -11.5q23 0 36.5 11t13.5 28q0 18 -14.5 30t-39.5 12h-40v82h33q27 0 37.5 11t10.5 28q0 16 -11 26t-29 10q-23 0 -36.5 -14t-12.5 -30h-105q0 36 13.5 63.5t35.5 46t50 28.5t56 10q37 0 64.5 -11
t45.5 -29t26.5 -41.5t8.5 -48.5q0 -32 -13.5 -55.5t-27.5 -37.5q19 -9 36 -32t17 -60q0 -29 -11 -53t-31.5 -41t-49.5 -27t-64 -10zM142 0l500 710h128l-500 -710h-128zM733 87h-205v85l215 261h95v-251h54v-95h-54v-86h-105v86zM733 182v96l-79 -96h79z" />
    <glyph glyph-name="questiondown" unicode="&#xbf;" horiz-adv-x="515" 
d="M358 221q0 -45 -21.5 -75.5t-63.5 -59.5q-17 -11 -32.5 -20t-28 -19.5t-20 -23t-7.5 -30.5q0 -31 21.5 -47t51.5 -16q31 0 56.5 19.5t25.5 58.5h151q0 -47 -18 -88.5t-49.5 -72t-74 -48.5t-91.5 -18q-50 0 -91 17t-70.5 45t-46 64.5t-16.5 76.5q0 26 3.5 49t13 44
t26.5 40.5t43 39.5q40 30 63.5 47t23.5 35v1h151v-19zM283 511q22 0 41.5 -8.5t34 -23t23 -34t8.5 -41.5t-8.5 -41.5t-23 -34t-34 -23t-41.5 -8.5t-41.5 8.5t-34 23t-23 34t-8.5 41.5t8.5 41.5t23 34t34 23t41.5 8.5z" />
    <glyph glyph-name="Agrave" unicode="&#xc0;" horiz-adv-x="750" 
d="M303 710h144l304 -710h-166l-63 150h-294l-63 -150h-166zM285 288h179l-89 213zM313 770l-125 157h166l70 -157h-111z" />
    <glyph glyph-name="Aacute" unicode="&#xc1;" horiz-adv-x="750" 
d="M303 710h144l304 -710h-166l-63 150h-294l-63 -150h-166zM285 288h179l-89 213zM398 927h166l-125 -157h-111z" />
    <glyph glyph-name="Acircumflex" unicode="&#xc2;" horiz-adv-x="750" 
d="M303 710h144l304 -710h-166l-63 150h-294l-63 -150h-166zM285 288h179l-89 213zM200 880l176 68l176 -68v-118l-176 68l-176 -68v118z" />
    <glyph glyph-name="Atilde" unicode="&#xc3;" horiz-adv-x="750" 
d="M303 710h144l304 -710h-166l-63 150h-294l-63 -150h-166zM285 288h179l-89 213zM187 804q4 28 15.5 50t28 37t36.5 22.5t41 7.5q23 0 42.5 -7.5t35.5 -16t29.5 -16t25.5 -7.5q20 0 29 12.5t15 35.5h83l-4 -28q-4 -29 -16 -50.5t-28.5 -36.5t-36.5 -22.5t-41 -7.5
q-23 0 -42.5 7.5t-35.5 16t-29.5 16t-24.5 7.5q-20 0 -29 -12.5t-16 -35.5h-82z" />
    <glyph glyph-name="Adieresis" unicode="&#xc4;" horiz-adv-x="750" 
d="M303 710h144l304 -710h-166l-63 150h-294l-63 -150h-166zM285 288h179l-89 213zM258 768q-17 0 -31.5 6.5t-25.5 17.5t-17.5 25.5t-6.5 30.5q0 34 23.5 57.5t57.5 23.5q16 0 30.5 -6.5t25 -17.5t17 -25.5t6.5 -31.5q0 -16 -6.5 -30.5t-17 -25.5t-25 -17.5t-30.5 -6.5z
M495 768q-17 0 -31.5 6.5t-25 17.5t-17 25.5t-6.5 30.5q0 34 23.5 57.5t56.5 23.5t56.5 -23.5t23.5 -57.5q0 -16 -6.5 -30.5t-17 -25.5t-25.5 -17.5t-31 -6.5z" />
    <glyph glyph-name="Aring" unicode="&#xc5;" horiz-adv-x="750" 
d="M303 710h144l304 -710h-166l-63 150h-294l-63 -150h-166zM285 288h179l-89 213zM377 753q-25 0 -47 9.5t-38.5 26t-26.5 38t-10 46.5t10 46.5t26.5 38t38.5 26t47 9.5t47 -9.5t38.5 -26t26.5 -38t10 -46.5t-10 -46.5t-26.5 -38t-38.5 -26t-47 -9.5zM377 818q23 0 39.5 16
t16.5 39t-16.5 39t-39.5 16t-39.5 -16t-16.5 -39t16.5 -39t39.5 -16z" />
    <glyph glyph-name="AE" unicode="&#xc6;" horiz-adv-x="948" 
d="M452 150h-225l-82 -150h-173l394 710h536v-152h-291v-127h231v-152h-231v-127h291v-152h-450v150zM302 288h150v270h-2z" />
    <glyph glyph-name="Ccedilla" unicode="&#xc7;" horiz-adv-x="778" 
d="M409 -12q-81 0 -149.5 28.5t-118 78t-77.5 116.5t-28 144t28 144t77.5 116.5t118 78t149.5 28.5q58 0 113.5 -18t102 -51t80.5 -80.5t49 -106.5h-173q-23 50 -71 76t-101 26q-49 0 -88.5 -16.5t-67 -45.5t-42.5 -67.5t-15 -83.5t15 -83.5t42.5 -67.5t67 -45.5t88.5 -16.5
q53 0 101 26t71 76h173q-15 -59 -49 -106.5t-80.5 -80.5t-102 -51t-113.5 -18zM282 -139q16 -9 37 -13t39 -4q10 0 20.5 1t19.5 4.5t14.5 9.5t5.5 16q0 14 -12 20.5t-31 6.5q-8 0 -19 -2.5t-21 -7.5l-36 19l56 92h64l-30 -50q13 3 23.5 5t25.5 2q36 0 61 -20.5t25 -58.5
q0 -23 -12 -41.5t-31.5 -31.5t-44 -20t-50.5 -7q-22 0 -50 2.5t-54 12.5v65z" />
    <glyph glyph-name="Egrave" unicode="&#xc8;" horiz-adv-x="571" 
d="M75 710h450v-152h-291v-127h231v-152h-231v-127h291v-152h-450v710zM236 770l-125 157h166l70 -157h-111z" />
    <glyph glyph-name="Eacute" unicode="&#xc9;" horiz-adv-x="571" 
d="M75 710h450v-152h-291v-127h231v-152h-231v-127h291v-152h-450v710zM321 927h166l-125 -157h-111z" />
    <glyph glyph-name="Ecircumflex" unicode="&#xca;" horiz-adv-x="571" 
d="M75 710h450v-152h-291v-127h231v-152h-231v-127h291v-152h-450v710zM123 880l176 68l176 -68v-118l-176 68l-176 -68v118z" />
    <glyph glyph-name="Edieresis" unicode="&#xcb;" horiz-adv-x="571" 
d="M75 710h450v-152h-291v-127h231v-152h-231v-127h291v-152h-450v710zM181 768q-17 0 -31.5 6.5t-25.5 17.5t-17.5 25.5t-6.5 30.5q0 34 23.5 57.5t57.5 23.5q16 0 30.5 -6.5t25 -17.5t17 -25.5t6.5 -31.5q0 -16 -6.5 -30.5t-17 -25.5t-25 -17.5t-30.5 -6.5zM418 768
q-17 0 -31.5 6.5t-25 17.5t-17 25.5t-6.5 30.5q0 34 23.5 57.5t56.5 23.5t56.5 -23.5t23.5 -57.5q0 -16 -6.5 -30.5t-17 -25.5t-25.5 -17.5t-31 -6.5z" />
    <glyph glyph-name="Igrave" unicode="&#xcc;" horiz-adv-x="309" 
d="M75 710h159v-710h-159v710zM92 770l-125 157h166l70 -157h-111z" />
    <glyph glyph-name="Iacute" unicode="&#xcd;" horiz-adv-x="309" 
d="M75 710h159v-710h-159v710zM177 927h166l-125 -157h-111z" />
    <glyph glyph-name="Icircumflex" unicode="&#xce;" horiz-adv-x="309" 
d="M75 710h159v-710h-159v710zM-21 880l176 68l176 -68v-118l-176 68l-176 -68v118z" />
    <glyph glyph-name="Idieresis" unicode="&#xcf;" horiz-adv-x="309" 
d="M75 710h159v-710h-159v710zM37 768q-17 0 -31.5 6.5t-25.5 17.5t-17.5 25.5t-6.5 30.5q0 34 23.5 57.5t57.5 23.5q16 0 30.5 -6.5t25 -17.5t17 -25.5t6.5 -31.5q0 -16 -6.5 -30.5t-17 -25.5t-25 -17.5t-30.5 -6.5zM274 768q-17 0 -31.5 6.5t-25 17.5t-17 25.5t-6.5 30.5
q0 34 23.5 57.5t56.5 23.5t56.5 -23.5t23.5 -57.5q0 -16 -6.5 -30.5t-17 -25.5t-25.5 -17.5t-31 -6.5z" />
    <glyph glyph-name="Eth" unicode="&#xd0;" horiz-adv-x="732" 
d="M92 710h242q75 0 141 -28t115 -76t77.5 -112.5t28.5 -138.5t-28.5 -138.5t-77.5 -112.5t-115 -76t-141 -28h-242v710zM334 146q45 0 82 16.5t63.5 45t41 66.5t14.5 81t-14.5 81t-41 66.5t-63.5 45t-82 16.5h-83v-418h83zM20 427h351v-138h-351v138z" />
    <glyph glyph-name="Ntilde" unicode="&#xd1;" horiz-adv-x="792" 
d="M580 0l-346 439v-439h-159v710h137l345 -439v439h160v-710h-137zM207 804q4 28 15.5 50t28 37t36.5 22.5t41 7.5q23 0 42.5 -7.5t35.5 -16t29.5 -16t25.5 -7.5q20 0 29 12.5t15 35.5h83l-4 -28q-4 -29 -16 -50.5t-28.5 -36.5t-36.5 -22.5t-41 -7.5q-23 0 -42.5 7.5
t-35.5 16t-29.5 16t-24.5 7.5q-20 0 -29 -12.5t-16 -35.5h-82z" />
    <glyph glyph-name="Ograve" unicode="&#xd2;" horiz-adv-x="804" 
d="M402 142q43 0 80.5 17t65.5 46.5t44 68t16 81.5t-16 81.5t-44 68t-65.5 46.5t-80.5 17q-44 0 -81.5 -17t-65.5 -46.5t-44 -68t-16 -81.5t16 -81.5t44 -68t65.5 -46.5t81.5 -17zM402 -12q-76 0 -143 29t-116.5 79t-78.5 116.5t-29 142.5t29 142.5t78.5 116.5t116.5 79
t143 29t142.5 -29t116.5 -79t79 -116.5t29 -142.5t-29 -142.5t-79 -116.5t-116.5 -79t-142.5 -29zM339 770l-125 157h166l70 -157h-111z" />
    <glyph glyph-name="Oacute" unicode="&#xd3;" horiz-adv-x="804" 
d="M402 142q43 0 80.5 17t65.5 46.5t44 68t16 81.5t-16 81.5t-44 68t-65.5 46.5t-80.5 17q-44 0 -81.5 -17t-65.5 -46.5t-44 -68t-16 -81.5t16 -81.5t44 -68t65.5 -46.5t81.5 -17zM402 -12q-76 0 -143 29t-116.5 79t-78.5 116.5t-29 142.5t29 142.5t78.5 116.5t116.5 79
t143 29t142.5 -29t116.5 -79t79 -116.5t29 -142.5t-29 -142.5t-79 -116.5t-116.5 -79t-142.5 -29zM424 927h166l-125 -157h-111z" />
    <glyph glyph-name="Ocircumflex" unicode="&#xd4;" horiz-adv-x="804" 
d="M402 142q43 0 80.5 17t65.5 46.5t44 68t16 81.5t-16 81.5t-44 68t-65.5 46.5t-80.5 17q-44 0 -81.5 -17t-65.5 -46.5t-44 -68t-16 -81.5t16 -81.5t44 -68t65.5 -46.5t81.5 -17zM402 -12q-76 0 -143 29t-116.5 79t-78.5 116.5t-29 142.5t29 142.5t78.5 116.5t116.5 79
t143 29t142.5 -29t116.5 -79t79 -116.5t29 -142.5t-29 -142.5t-79 -116.5t-116.5 -79t-142.5 -29zM226 880l176 68l176 -68v-118l-176 68l-176 -68v118z" />
    <glyph glyph-name="Otilde" unicode="&#xd5;" horiz-adv-x="804" 
d="M402 142q43 0 80.5 17t65.5 46.5t44 68t16 81.5t-16 81.5t-44 68t-65.5 46.5t-80.5 17q-44 0 -81.5 -17t-65.5 -46.5t-44 -68t-16 -81.5t16 -81.5t44 -68t65.5 -46.5t81.5 -17zM402 -12q-76 0 -143 29t-116.5 79t-78.5 116.5t-29 142.5t29 142.5t78.5 116.5t116.5 79
t143 29t142.5 -29t116.5 -79t79 -116.5t29 -142.5t-29 -142.5t-79 -116.5t-116.5 -79t-142.5 -29zM213 804q4 28 15.5 50t28 37t36.5 22.5t41 7.5q23 0 42.5 -7.5t35.5 -16t29.5 -16t25.5 -7.5q20 0 29 12.5t15 35.5h83l-4 -28q-4 -29 -16 -50.5t-28.5 -36.5t-36.5 -22.5
t-41 -7.5q-23 0 -42.5 7.5t-35.5 16t-29.5 16t-24.5 7.5q-20 0 -29 -12.5t-16 -35.5h-82z" />
    <glyph glyph-name="Odieresis" unicode="&#xd6;" horiz-adv-x="804" 
d="M402 142q43 0 80.5 17t65.5 46.5t44 68t16 81.5t-16 81.5t-44 68t-65.5 46.5t-80.5 17q-44 0 -81.5 -17t-65.5 -46.5t-44 -68t-16 -81.5t16 -81.5t44 -68t65.5 -46.5t81.5 -17zM402 -12q-76 0 -143 29t-116.5 79t-78.5 116.5t-29 142.5t29 142.5t78.5 116.5t116.5 79
t143 29t142.5 -29t116.5 -79t79 -116.5t29 -142.5t-29 -142.5t-79 -116.5t-116.5 -79t-142.5 -29zM284 768q-17 0 -31.5 6.5t-25.5 17.5t-17.5 25.5t-6.5 30.5q0 34 23.5 57.5t57.5 23.5q16 0 30.5 -6.5t25 -17.5t17 -25.5t6.5 -31.5q0 -16 -6.5 -30.5t-17 -25.5t-25 -17.5
t-30.5 -6.5zM521 768q-17 0 -31.5 6.5t-25 17.5t-17 25.5t-6.5 30.5q0 34 23.5 57.5t56.5 23.5t56.5 -23.5t23.5 -57.5q0 -16 -6.5 -30.5t-17 -25.5t-25.5 -17.5t-31 -6.5z" />
    <glyph glyph-name="multiply" unicode="&#xd7;" horiz-adv-x="507" 
d="M39 166l123 123l-123 123l92 92l123 -122l123 122l91 -92l-122 -123l122 -123l-91 -92l-123 122l-123 -122z" />
    <glyph glyph-name="Oslash" unicode="&#xd8;" horiz-adv-x="811" 
d="M406 142q43 0 80.5 17t65.5 46.5t44 68t16 81.5t-16 81.5t-44 68t-65.5 46.5t-80.5 17q-44 0 -81.5 -17t-65.5 -46.5t-44 -68t-16 -81.5t16 -81.5t44 -68t65.5 -46.5t81.5 -17zM406 -12q-76 0 -143 29t-116.5 79t-78.5 116.5t-29 142.5t29 142.5t78.5 116.5t116.5 79
t143 29t142.5 -29t116.5 -79t79 -116.5t29 -142.5t-29 -142.5t-79 -116.5t-116.5 -79t-142.5 -29zM121 -18l-89 90l657 656l89 -90z" />
    <glyph glyph-name="Ugrave" unicode="&#xd9;" horiz-adv-x="718" 
d="M359 -12q-64 0 -117.5 21t-92.5 59t-60.5 92.5t-21.5 120.5v429h159v-431q0 -64 36.5 -100.5t96.5 -36.5t96.5 36.5t36.5 100.5v431h159v-429q0 -66 -21.5 -120.5t-60.5 -92.5t-92.5 -59t-117.5 -21zM296 770l-125 157h166l70 -157h-111z" />
    <glyph glyph-name="Uacute" unicode="&#xda;" horiz-adv-x="718" 
d="M359 -12q-64 0 -117.5 21t-92.5 59t-60.5 92.5t-21.5 120.5v429h159v-431q0 -64 36.5 -100.5t96.5 -36.5t96.5 36.5t36.5 100.5v431h159v-429q0 -66 -21.5 -120.5t-60.5 -92.5t-92.5 -59t-117.5 -21zM381 927h166l-125 -157h-111z" />
    <glyph glyph-name="Ucircumflex" unicode="&#xdb;" horiz-adv-x="718" 
d="M359 -12q-64 0 -117.5 21t-92.5 59t-60.5 92.5t-21.5 120.5v429h159v-431q0 -64 36.5 -100.5t96.5 -36.5t96.5 36.5t36.5 100.5v431h159v-429q0 -66 -21.5 -120.5t-60.5 -92.5t-92.5 -59t-117.5 -21zM183 880l176 68l176 -68v-118l-176 68l-176 -68v118z" />
    <glyph glyph-name="Udieresis" unicode="&#xdc;" horiz-adv-x="718" 
d="M359 -12q-64 0 -117.5 21t-92.5 59t-60.5 92.5t-21.5 120.5v429h159v-431q0 -64 36.5 -100.5t96.5 -36.5t96.5 36.5t36.5 100.5v431h159v-429q0 -66 -21.5 -120.5t-60.5 -92.5t-92.5 -59t-117.5 -21zM241 768q-17 0 -31.5 6.5t-25.5 17.5t-17.5 25.5t-6.5 30.5
q0 34 23.5 57.5t57.5 23.5q16 0 30.5 -6.5t25 -17.5t17 -25.5t6.5 -31.5q0 -16 -6.5 -30.5t-17 -25.5t-25 -17.5t-30.5 -6.5zM478 768q-17 0 -31.5 6.5t-25 17.5t-17 25.5t-6.5 30.5q0 34 23.5 57.5t56.5 23.5t56.5 -23.5t23.5 -57.5q0 -16 -6.5 -30.5t-17 -25.5
t-25.5 -17.5t-31 -6.5z" />
    <glyph glyph-name="Yacute" unicode="&#xdd;" horiz-adv-x="694" 
d="M267 299l-259 411h185l153 -256l155 256h185l-259 -412v-298h-160v299zM369 927h166l-125 -157h-111z" />
    <glyph glyph-name="Thorn" unicode="&#xde;" horiz-adv-x="598" 
d="M566 355q0 -51 -19 -95.5t-52.5 -77.5t-79 -51.5t-99.5 -18.5h-82v-112h-159v710h159v-112h82q54 0 99.5 -18.5t79 -51.5t52.5 -77.5t19 -95.5zM412 355q0 39 -27.5 66t-70.5 27h-80v-186h80q43 0 70.5 27t27.5 66z" />
    <glyph glyph-name="germandbls" unicode="&#xdf;" horiz-adv-x="590" 
d="M62 525q0 54 19.5 97t52 72.5t75.5 45.5t91 16q47 0 89 -16t73.5 -44t49.5 -66.5t18 -84.5q0 -42 -18 -82t-53 -72q49 -29 74 -75t25 -90q0 -52 -19.5 -93.5t-52.5 -71t-76.5 -45.5t-92.5 -16h-34v136h27q42 0 69.5 26t27.5 65t-27.5 64.5t-69.5 25.5h-27v136h14
q38 0 60 24.5t22 59.5q0 34 -22 58.5t-58 24.5q-37 0 -62 -25.5t-25 -67.5v-527h-150v525z" />
    <glyph glyph-name="agrave" unicode="&#xe0;" horiz-adv-x="613" 
d="M264 -11q-49 0 -91.5 21t-73.5 56.5t-49 83t-18 100.5t18 100.5t49 83t73.5 56.5t91.5 21q25 0 46.5 -5.5t39 -14.5t30 -20t20.5 -21v50h151v-500h-151v50q-8 -10 -20.5 -21t-30 -20t-39 -14.5t-46.5 -5.5zM298 126q51 0 82.5 35t31.5 89t-31.5 89t-82.5 35t-82.5 -35
t-31.5 -89t31.5 -89t82.5 -35zM94 750h172l110 -190h-111z" />
    <glyph glyph-name="aacute" unicode="&#xe1;" horiz-adv-x="613" 
d="M264 -11q-49 0 -91.5 21t-73.5 56.5t-49 83t-18 100.5t18 100.5t49 83t73.5 56.5t91.5 21q25 0 46.5 -5.5t39 -14.5t30 -20t20.5 -21v50h151v-500h-151v50q-8 -10 -20.5 -21t-30 -20t-39 -14.5t-46.5 -5.5zM298 126q51 0 82.5 35t31.5 89t-31.5 89t-82.5 35t-82.5 -35
t-31.5 -89t31.5 -89t82.5 -35zM379 750h172l-171 -190h-110z" />
    <glyph glyph-name="acircumflex" unicode="&#xe2;" horiz-adv-x="613" 
d="M264 -11q-49 0 -91.5 21t-73.5 56.5t-49 83t-18 100.5t18 100.5t49 83t73.5 56.5t91.5 21q25 0 46.5 -5.5t39 -14.5t30 -20t20.5 -21v50h151v-500h-151v50q-8 -10 -20.5 -21t-30 -20t-39 -14.5t-46.5 -5.5zM298 126q51 0 82.5 35t31.5 89t-31.5 89t-82.5 35t-82.5 -35
t-31.5 -89t31.5 -89t82.5 -35zM498 659v-118l-178 97l-178 -97v118l178 97z" />
    <glyph glyph-name="atilde" unicode="&#xe3;" horiz-adv-x="613" 
d="M264 -11q-49 0 -91.5 21t-73.5 56.5t-49 83t-18 100.5t18 100.5t49 83t73.5 56.5t91.5 21q25 0 46.5 -5.5t39 -14.5t30 -20t20.5 -21v50h151v-500h-151v50q-8 -10 -20.5 -21t-30 -20t-39 -14.5t-46.5 -5.5zM298 126q51 0 82.5 35t31.5 89t-31.5 89t-82.5 35t-82.5 -35
t-31.5 -89t31.5 -89t82.5 -35zM131 593q4 28 15.5 50t28 37t36.5 22.5t41 7.5q23 0 42.5 -7.5t35.5 -16t29.5 -16t25.5 -7.5q20 0 29 12.5t15 35.5h83l-4 -28q-4 -29 -16 -50.5t-28.5 -36.5t-36 -22.5t-40.5 -7.5q-23 0 -42.5 7.5t-35.5 16t-29.5 16t-25.5 7.5
q-20 0 -29 -12.5t-15 -35.5h-83z" />
    <glyph glyph-name="adieresis" unicode="&#xe4;" horiz-adv-x="613" 
d="M264 -11q-49 0 -91.5 21t-73.5 56.5t-49 83t-18 100.5t18 100.5t49 83t73.5 56.5t91.5 21q25 0 46.5 -5.5t39 -14.5t30 -20t20.5 -21v50h151v-500h-151v50q-8 -10 -20.5 -21t-30 -20t-39 -14.5t-46.5 -5.5zM298 126q51 0 82.5 35t31.5 89t-31.5 89t-82.5 35t-82.5 -35
t-31.5 -89t31.5 -89t82.5 -35zM202 572q-17 0 -31.5 6.5t-25.5 17t-17.5 25t-6.5 30.5q0 34 23.5 57.5t57.5 23.5q16 0 30.5 -6.5t25 -17.5t17 -25.5t6.5 -31.5q0 -32 -23.5 -55.5t-55.5 -23.5zM439 572q-33 0 -56.5 23.5t-23.5 55.5q0 34 23.5 57.5t56.5 23.5t56.5 -23.5
t23.5 -57.5q0 -32 -23.5 -55.5t-56.5 -23.5z" />
    <glyph glyph-name="aring" unicode="&#xe5;" horiz-adv-x="613" 
d="M264 -11q-49 0 -91.5 21t-73.5 56.5t-49 83t-18 100.5t18 100.5t49 83t73.5 56.5t91.5 21q25 0 46.5 -5.5t39 -14.5t30 -20t20.5 -21v50h151v-500h-151v50q-8 -10 -20.5 -21t-30 -20t-39 -14.5t-46.5 -5.5zM298 126q51 0 82.5 35t31.5 89t-31.5 89t-82.5 35t-82.5 -35
t-31.5 -89t31.5 -89t82.5 -35zM321 543q-25 0 -47 9.5t-38.5 26t-26.5 38t-10 46.5t10 46.5t26.5 38t38.5 26t47 9.5t47 -9.5t38.5 -26t26.5 -38t10 -46.5t-10 -46.5t-26.5 -38t-38.5 -26t-47 -9.5zM321 608q23 0 39.5 16t16.5 39t-16.5 39t-39.5 16t-39.5 -16t-16.5 -39
t16.5 -39t39.5 -16z" />
    <glyph glyph-name="ae" unicode="&#xe6;" horiz-adv-x="910" 
d="M622 -11q-57 0 -111.5 18.5t-94.5 57.5q-59 -76 -184 -76q-47 0 -83.5 12t-62.5 32.5t-39.5 48t-13.5 59.5q0 37 15.5 64t45 46t73 32t99.5 23q22 4 38 6.5t26 6.5t14.5 10.5t4.5 17.5q0 23 -20.5 33.5t-48.5 10.5q-16 0 -31.5 -3.5t-27.5 -11t-19.5 -19.5t-7.5 -29h-150
q1 38 19 71.5t49.5 58t74 39t92.5 14.5q52 0 96.5 -15.5t70.5 -48.5q38 35 84.5 49.5t88.5 14.5q49 0 96.5 -18.5t84.5 -55.5t58.5 -92.5t19.5 -129.5h-385q2 -19 10.5 -36.5t24 -30.5t38 -21t53.5 -8q33 0 60 13.5t36 33.5h158q-11 -40 -36 -72.5t-59 -56t-74 -36
t-82 -12.5zM354 185v50q-29 -11 -60 -20t-54 -17q-29 -9 -42 -20.5t-13 -31.5q0 -19 17.5 -31.5t52.5 -12.5q16 0 33.5 5t32 15t24 25.5t9.5 37.5zM607 391q-45 0 -72.5 -23t-37.5 -57h214q-6 22 -17.5 37.5t-26 25t-30 13.5t-30.5 4z" />
    <glyph glyph-name="ccedilla" unicode="&#xe7;" horiz-adv-x="578" 
d="M295 -11q-57 0 -105 20.5t-83.5 55.5t-55 83t-19.5 102t19.5 102t55 83t83.5 55.5t105 20.5q53 0 96.5 -15.5t76 -43.5t54 -65.5t31.5 -81.5h-156q-14 30 -38 50t-64 20q-48 0 -79.5 -33t-31.5 -92t31.5 -92t79.5 -33q40 0 64 20t38 50h156q-10 -44 -31.5 -81.5
t-54 -65.5t-76 -43.5t-96.5 -15.5zM178 -139q16 -9 37 -13t39 -4q10 0 20.5 1t19.5 4.5t14.5 9.5t5.5 16q0 14 -12 20.5t-31 6.5q-8 0 -19 -2.5t-21 -7.5l-36 19l56 92h64l-30 -50q13 3 23.5 5t25.5 2q36 0 61 -20.5t25 -58.5q0 -23 -12 -41.5t-31.5 -31.5t-44 -20t-50.5 -7
q-22 0 -50 2.5t-54 12.5v65z" />
    <glyph glyph-name="egrave" unicode="&#xe8;" horiz-adv-x="596" 
d="M297 -11q-58 0 -106.5 19.5t-84 54.5t-55 83t-19.5 105q0 56 20 104t55.5 82.5t84 54t105.5 19.5q54 0 103.5 -18.5t86.5 -55.5t58 -92.5t19 -129.5h-385q2 -19 10.5 -36.5t24 -30.5t38 -21t53.5 -8q33 0 60 13.5t36 33.5h158q-12 -39 -36.5 -71.5t-59 -56t-77 -36.5
t-89.5 -13zM293 391q-45 0 -72.5 -23t-37.5 -57h214q-6 22 -17.5 37.5t-26 25t-30 13.5t-30.5 4zM76 750h172l110 -190h-111z" />
    <glyph glyph-name="eacute" unicode="&#xe9;" horiz-adv-x="596" 
d="M297 -11q-58 0 -106.5 19.5t-84 54.5t-55 83t-19.5 105q0 56 20 104t55.5 82.5t84 54t105.5 19.5q54 0 103.5 -18.5t86.5 -55.5t58 -92.5t19 -129.5h-385q2 -19 10.5 -36.5t24 -30.5t38 -21t53.5 -8q33 0 60 13.5t36 33.5h158q-12 -39 -36.5 -71.5t-59 -56t-77 -36.5
t-89.5 -13zM293 391q-45 0 -72.5 -23t-37.5 -57h214q-6 22 -17.5 37.5t-26 25t-30 13.5t-30.5 4zM361 750h172l-171 -190h-110z" />
    <glyph glyph-name="ecircumflex" unicode="&#xea;" horiz-adv-x="596" 
d="M297 -11q-58 0 -106.5 19.5t-84 54.5t-55 83t-19.5 105q0 56 20 104t55.5 82.5t84 54t105.5 19.5q54 0 103.5 -18.5t86.5 -55.5t58 -92.5t19 -129.5h-385q2 -19 10.5 -36.5t24 -30.5t38 -21t53.5 -8q33 0 60 13.5t36 33.5h158q-12 -39 -36.5 -71.5t-59 -56t-77 -36.5
t-89.5 -13zM293 391q-45 0 -72.5 -23t-37.5 -57h214q-6 22 -17.5 37.5t-26 25t-30 13.5t-30.5 4zM480 659v-118l-178 97l-178 -97v118l178 97z" />
    <glyph glyph-name="edieresis" unicode="&#xeb;" horiz-adv-x="596" 
d="M297 -11q-58 0 -106.5 19.5t-84 54.5t-55 83t-19.5 105q0 56 20 104t55.5 82.5t84 54t105.5 19.5q54 0 103.5 -18.5t86.5 -55.5t58 -92.5t19 -129.5h-385q2 -19 10.5 -36.5t24 -30.5t38 -21t53.5 -8q33 0 60 13.5t36 33.5h158q-12 -39 -36.5 -71.5t-59 -56t-77 -36.5
t-89.5 -13zM293 391q-45 0 -72.5 -23t-37.5 -57h214q-6 22 -17.5 37.5t-26 25t-30 13.5t-30.5 4zM184 572q-17 0 -31.5 6.5t-25.5 17t-17.5 25t-6.5 30.5q0 34 23.5 57.5t57.5 23.5q16 0 30.5 -6.5t25 -17.5t17 -25.5t6.5 -31.5q0 -32 -23.5 -55.5t-55.5 -23.5zM421 572
q-33 0 -56.5 23.5t-23.5 55.5q0 34 23.5 57.5t56.5 23.5t56.5 -23.5t23.5 -57.5q0 -32 -23.5 -55.5t-56.5 -23.5z" />
    <glyph glyph-name="igrave" unicode="&#xec;" horiz-adv-x="275" 
d="M62 500h151v-500h-151v500zM-88 750h172l110 -190h-111z" />
    <glyph glyph-name="iacute" unicode="&#xed;" horiz-adv-x="275" 
d="M62 500h151v-500h-151v500zM197 750h172l-171 -190h-110z" />
    <glyph glyph-name="icircumflex" unicode="&#xee;" horiz-adv-x="275" 
d="M62 500h151v-500h-151v500zM316 659v-118l-178 97l-178 -97v118l178 97z" />
    <glyph glyph-name="idieresis" unicode="&#xef;" horiz-adv-x="275" 
d="M62 500h151v-500h-151v500zM44 572q-33 0 -56.5 23.5t-23.5 55.5q0 33 23.5 56.5t56.5 23.5q32 0 55.5 -23.5t23.5 -56.5q0 -32 -23.5 -55.5t-55.5 -23.5zM231 572q-32 0 -55.5 23.5t-23.5 55.5q0 33 23.5 56.5t55.5 23.5q33 0 56.5 -23.5t23.5 -56.5q0 -32 -23.5 -55.5
t-56.5 -23.5z" />
    <glyph glyph-name="eth" unicode="&#xf0;" horiz-adv-x="591" 
d="M406 560l105 -160q21 -33 34.5 -70.5t13.5 -79.5q0 -54 -21 -101.5t-57 -83t-84 -56t-102 -20.5t-102 20.5t-83.5 56t-56.5 83t-21 101.5q0 61 23.5 108t59.5 79.5t78.5 49t80.5 18.5l-36 55h-134v96h72l-60 94h167l61 -94h112v-96h-50zM295 130q48 0 80 33t32 87t-32 87
t-80 33t-79.5 -33t-31.5 -87t31.5 -87t79.5 -33z" />
    <glyph glyph-name="ntilde" unicode="&#xf1;" horiz-adv-x="602" 
d="M62 500h151v-51q18 26 54 44t85 18q46 0 82 -16.5t61 -45.5t38 -70t13 -90v-289h-151v263q0 52 -20 81.5t-61 29.5q-43 0 -72 -31.5t-29 -99.5v-243h-151v500zM114 593q4 28 15.5 50t28 37t36.5 22.5t41 7.5q23 0 42.5 -7.5t35.5 -16t29.5 -16t25.5 -7.5q20 0 29 12.5
t15 35.5h83l-4 -28q-4 -29 -16 -50.5t-28.5 -36.5t-36 -22.5t-40.5 -7.5q-23 0 -42.5 7.5t-35.5 16t-29.5 16t-25.5 7.5q-20 0 -29 -12.5t-15 -35.5h-83z" />
    <glyph glyph-name="ograve" unicode="&#xf2;" horiz-adv-x="588" 
d="M294 -11q-54 0 -102 20t-83.5 55.5t-56.5 83t-21 102.5t21 102.5t56.5 83t83.5 55.5t102 20t102 -20t83.5 -55.5t56.5 -83t21 -102.5t-21 -102.5t-56.5 -83t-83.5 -55.5t-102 -20zM294 130q48 0 79.5 33t31.5 87t-31.5 87t-79.5 33t-79.5 -33t-31.5 -87t31.5 -87
t79.5 -33zM68 750h172l110 -190h-111z" />
    <glyph glyph-name="oacute" unicode="&#xf3;" horiz-adv-x="588" 
d="M294 -11q-54 0 -102 20t-83.5 55.5t-56.5 83t-21 102.5t21 102.5t56.5 83t83.5 55.5t102 20t102 -20t83.5 -55.5t56.5 -83t21 -102.5t-21 -102.5t-56.5 -83t-83.5 -55.5t-102 -20zM294 130q48 0 79.5 33t31.5 87t-31.5 87t-79.5 33t-79.5 -33t-31.5 -87t31.5 -87
t79.5 -33zM353 750h172l-171 -190h-110z" />
    <glyph glyph-name="ocircumflex" unicode="&#xf4;" horiz-adv-x="588" 
d="M294 -11q-54 0 -102 20t-83.5 55.5t-56.5 83t-21 102.5t21 102.5t56.5 83t83.5 55.5t102 20t102 -20t83.5 -55.5t56.5 -83t21 -102.5t-21 -102.5t-56.5 -83t-83.5 -55.5t-102 -20zM294 130q48 0 79.5 33t31.5 87t-31.5 87t-79.5 33t-79.5 -33t-31.5 -87t31.5 -87
t79.5 -33zM472 659v-118l-178 97l-178 -97v118l178 97z" />
    <glyph glyph-name="otilde" unicode="&#xf5;" horiz-adv-x="588" 
d="M294 -11q-54 0 -102 20t-83.5 55.5t-56.5 83t-21 102.5t21 102.5t56.5 83t83.5 55.5t102 20t102 -20t83.5 -55.5t56.5 -83t21 -102.5t-21 -102.5t-56.5 -83t-83.5 -55.5t-102 -20zM294 130q48 0 79.5 33t31.5 87t-31.5 87t-79.5 33t-79.5 -33t-31.5 -87t31.5 -87
t79.5 -33zM105 593q4 28 15.5 50t28 37t36.5 22.5t41 7.5q23 0 42.5 -7.5t35.5 -16t29.5 -16t25.5 -7.5q20 0 29 12.5t15 35.5h83l-4 -28q-4 -29 -16 -50.5t-28.5 -36.5t-36 -22.5t-40.5 -7.5q-23 0 -42.5 7.5t-35.5 16t-29.5 16t-25.5 7.5q-20 0 -29 -12.5t-15 -35.5h-83z
" />
    <glyph glyph-name="odieresis" unicode="&#xf6;" horiz-adv-x="588" 
d="M294 -11q-54 0 -102 20t-83.5 55.5t-56.5 83t-21 102.5t21 102.5t56.5 83t83.5 55.5t102 20t102 -20t83.5 -55.5t56.5 -83t21 -102.5t-21 -102.5t-56.5 -83t-83.5 -55.5t-102 -20zM294 130q48 0 79.5 33t31.5 87t-31.5 87t-79.5 33t-79.5 -33t-31.5 -87t31.5 -87
t79.5 -33zM176 572q-17 0 -31.5 6.5t-25.5 17t-17.5 25t-6.5 30.5q0 34 23.5 57.5t57.5 23.5q16 0 30.5 -6.5t25 -17.5t17 -25.5t6.5 -31.5q0 -32 -23.5 -55.5t-55.5 -23.5zM413 572q-33 0 -56.5 23.5t-23.5 55.5q0 34 23.5 57.5t56.5 23.5t56.5 -23.5t23.5 -57.5
q0 -32 -23.5 -55.5t-56.5 -23.5z" />
    <glyph glyph-name="oslash" unicode="&#xf8;" horiz-adv-x="593" 
d="M297 -11q-54 0 -102 20t-83.5 55.5t-56.5 83t-21 102.5t21 102.5t56.5 83t83.5 55.5t102 20t102 -20t83.5 -55.5t56.5 -83t21 -102.5t-21 -102.5t-56.5 -83t-83.5 -55.5t-102 -20zM297 130q48 0 79.5 33t31.5 87t-31.5 87t-79.5 33t-79.5 -33t-31.5 -87t31.5 -87
t79.5 -33zM83 -11l-47 49l475 473l47 -49z" />
    <glyph glyph-name="ugrave" unicode="&#xf9;" horiz-adv-x="591" 
d="M245 -11q-93 0 -141 62t-48 164v285h151v-259q0 -55 17.5 -85t59.5 -30q43 0 68.5 31t25.5 100v243h151v-500h-151v51q-18 -26 -51 -44t-82 -18zM67 750h172l110 -190h-111z" />
    <glyph glyph-name="uacute" unicode="&#xfa;" horiz-adv-x="591" 
d="M245 -11q-93 0 -141 62t-48 164v285h151v-259q0 -55 17.5 -85t59.5 -30q43 0 68.5 31t25.5 100v243h151v-500h-151v51q-18 -26 -51 -44t-82 -18zM352 750h172l-171 -190h-110z" />
    <glyph glyph-name="ucircumflex" unicode="&#xfb;" horiz-adv-x="591" 
d="M245 -11q-93 0 -141 62t-48 164v285h151v-259q0 -55 17.5 -85t59.5 -30q43 0 68.5 31t25.5 100v243h151v-500h-151v51q-18 -26 -51 -44t-82 -18zM471 659v-118l-178 97l-178 -97v118l178 97z" />
    <glyph glyph-name="udieresis" unicode="&#xfc;" horiz-adv-x="591" 
d="M245 -11q-93 0 -141 62t-48 164v285h151v-259q0 -55 17.5 -85t59.5 -30q43 0 68.5 31t25.5 100v243h151v-500h-151v51q-18 -26 -51 -44t-82 -18zM175 572q-17 0 -31.5 6.5t-25.5 17t-17.5 25t-6.5 30.5q0 34 23.5 57.5t57.5 23.5q16 0 30.5 -6.5t25 -17.5t17 -25.5
t6.5 -31.5q0 -32 -23.5 -55.5t-55.5 -23.5zM412 572q-33 0 -56.5 23.5t-23.5 55.5q0 34 23.5 57.5t56.5 23.5t56.5 -23.5t23.5 -57.5q0 -32 -23.5 -55.5t-56.5 -23.5z" />
    <glyph glyph-name="yacute" unicode="&#xfd;" horiz-adv-x="576" 
d="M104 -209l104 238l-208 471h165l124 -309l123 309h166l-311 -709h-163zM350 750h172l-171 -190h-110z" />
    <glyph glyph-name="thorn" unicode="&#xfe;" horiz-adv-x="613" 
d="M62 -209v959h151v-300q7 10 20 21t30.5 20t39 14.5t46.5 5.5q49 0 91.5 -21t73.5 -56.5t49 -83t18 -100.5t-18 -100.5t-49 -83t-73.5 -56.5t-91.5 -21q-25 0 -46.5 5.5t-39 14.5t-30.5 20t-20 21v-259h-151zM315 126q51 0 82.5 35t31.5 89t-31.5 89t-82.5 35t-82.5 -35
t-31.5 -89t31.5 -89t82.5 -35z" />
    <glyph glyph-name="ydieresis" unicode="&#xff;" horiz-adv-x="576" 
d="M104 -209l104 238l-208 471h165l124 -309l123 309h166l-311 -709h-163zM173 572q-17 0 -31.5 6.5t-25.5 17t-17.5 25t-6.5 30.5q0 34 23.5 57.5t57.5 23.5q16 0 30.5 -6.5t25 -17.5t17 -25.5t6.5 -31.5q0 -32 -23.5 -55.5t-55.5 -23.5zM410 572q-33 0 -56.5 23.5
t-23.5 55.5q0 34 23.5 57.5t56.5 23.5t56.5 -23.5t23.5 -57.5q0 -32 -23.5 -55.5t-56.5 -23.5z" />
    <glyph glyph-name="Abreve" unicode="&#x102;" horiz-adv-x="750" 
d="M303 710h144l304 -710h-166l-63 150h-294l-63 -150h-166zM285 288h179l-89 213zM376 747q-37 0 -69.5 12.5t-56.5 36t-38 57t-14 74.5h86q0 -47 27 -70t65 -23t65 23t27 70h86q0 -41 -14 -74.5t-38 -57t-56.5 -36t-69.5 -12.5z" />
    <glyph glyph-name="Amacron" unicode="&#x100;" horiz-adv-x="750" 
d="M303 710h144l304 -710h-166l-63 150h-294l-63 -150h-166zM285 288h179l-89 213zM202 891h348v-104h-348v104z" />
    <glyph glyph-name="Aogonek" unicode="&#x104;" horiz-adv-x="750" 
d="M303 710h144l304 -710q-38 -15 -61.5 -36.5t-23.5 -45.5q0 -13 11 -18t25 -5t28 4.5t21 9.5v-99q-12 -9 -41.5 -19t-66.5 -10q-54 0 -84.5 29t-30.5 74q0 34 14 64t43 52l-63 150h-294l-63 -150h-166zM285 288h179l-89 213z" />
    <glyph glyph-name="Cacute" unicode="&#x106;" horiz-adv-x="778" 
d="M409 -12q-81 0 -149.5 28.5t-118 78t-77.5 116.5t-28 144t28 144t77.5 116.5t118 78t149.5 28.5q58 0 113.5 -18t102 -51t80.5 -80.5t49 -106.5h-173q-23 50 -71 76t-101 26q-49 0 -88.5 -16.5t-67 -45.5t-42.5 -67.5t-15 -83.5t15 -83.5t42.5 -67.5t67 -45.5t88.5 -16.5
q53 0 101 26t71 76h173q-15 -59 -49 -106.5t-80.5 -80.5t-102 -51t-113.5 -18zM425 927h166l-125 -157h-111z" />
    <glyph glyph-name="Ccaron" unicode="&#x10c;" horiz-adv-x="778" 
d="M409 -12q-81 0 -149.5 28.5t-118 78t-77.5 116.5t-28 144t28 144t77.5 116.5t118 78t149.5 28.5q58 0 113.5 -18t102 -51t80.5 -80.5t49 -106.5h-173q-23 50 -71 76t-101 26q-49 0 -88.5 -16.5t-67 -45.5t-42.5 -67.5t-15 -83.5t15 -83.5t42.5 -67.5t67 -45.5t88.5 -16.5
q53 0 101 26t71 76h173q-15 -59 -49 -106.5t-80.5 -80.5t-102 -51t-113.5 -18zM227 830v118l176 -68l176 68v-118l-176 -68z" />
    <glyph glyph-name="Ccircumflex" unicode="&#x108;" horiz-adv-x="778" 
d="M409 -12q-81 0 -149.5 28.5t-118 78t-77.5 116.5t-28 144t28 144t77.5 116.5t118 78t149.5 28.5q58 0 113.5 -18t102 -51t80.5 -80.5t49 -106.5h-173q-23 50 -71 76t-101 26q-49 0 -88.5 -16.5t-67 -45.5t-42.5 -67.5t-15 -83.5t15 -83.5t42.5 -67.5t67 -45.5t88.5 -16.5
q53 0 101 26t71 76h173q-15 -59 -49 -106.5t-80.5 -80.5t-102 -51t-113.5 -18zM227 880l176 68l176 -68v-118l-176 68l-176 -68v118z" />
    <glyph glyph-name="Cdotaccent" unicode="&#x10a;" horiz-adv-x="778" 
d="M409 -12q-81 0 -149.5 28.5t-118 78t-77.5 116.5t-28 144t28 144t77.5 116.5t118 78t149.5 28.5q58 0 113.5 -18t102 -51t80.5 -80.5t49 -106.5h-173q-23 50 -71 76t-101 26q-49 0 -88.5 -16.5t-67 -45.5t-42.5 -67.5t-15 -83.5t15 -83.5t42.5 -67.5t67 -45.5t88.5 -16.5
q53 0 101 26t71 76h173q-15 -59 -49 -106.5t-80.5 -80.5t-102 -51t-113.5 -18zM403 768q-17 0 -31.5 6.5t-25.5 17.5t-17.5 25.5t-6.5 30.5q0 34 23.5 57.5t57.5 23.5q33 0 56.5 -23.5t23.5 -57.5q0 -16 -6.5 -30.5t-17 -25.5t-25.5 -17.5t-31 -6.5z" />
    <glyph glyph-name="Dcaron" unicode="&#x10e;" horiz-adv-x="715" 
d="M75 710h242q75 0 141 -28t115 -76t77.5 -112.5t28.5 -138.5t-28.5 -138.5t-77.5 -112.5t-115 -76t-141 -28h-242v710zM317 146q45 0 82 16.5t63.5 45t41 66.5t14.5 81t-14.5 81t-41 66.5t-63.5 45t-82 16.5h-83v-418h83zM161 830v118l176 -68l176 68v-118l-176 -68z" />
    <glyph glyph-name="Dcroat" unicode="&#x110;" horiz-adv-x="732" 
d="M92 710h242q75 0 141 -28t115 -76t77.5 -112.5t28.5 -138.5t-28.5 -138.5t-77.5 -112.5t-115 -76t-141 -28h-242v710zM334 146q45 0 82 16.5t63.5 45t41 66.5t14.5 81t-14.5 81t-41 66.5t-63.5 45t-82 16.5h-83v-418h83zM20 427h351v-138h-351v138z" />
    <glyph glyph-name="Ebreve" unicode="&#x114;" horiz-adv-x="571" 
d="M75 710h450v-152h-291v-127h231v-152h-231v-127h291v-152h-450v710zM299 747q-37 0 -69.5 12.5t-56.5 36t-38 57t-14 74.5h86q0 -47 27 -70t65 -23t65 23t27 70h86q0 -41 -14 -74.5t-38 -57t-56.5 -36t-69.5 -12.5z" />
    <glyph glyph-name="Ecaron" unicode="&#x11a;" horiz-adv-x="571" 
d="M75 710h450v-152h-291v-127h231v-152h-231v-127h291v-152h-450v710zM123 830v118l176 -68l176 68v-118l-176 -68z" />
    <glyph glyph-name="Emacron" unicode="&#x112;" horiz-adv-x="571" 
d="M75 710h450v-152h-291v-127h231v-152h-231v-127h291v-152h-450v710zM125 891h348v-104h-348v104z" />
    <glyph glyph-name="Eogonek" unicode="&#x118;" horiz-adv-x="571" 
d="M75 710h450v-152h-291v-127h231v-152h-231v-127h291v-152h-450v710zM417 -219q-54 0 -84.5 29t-30.5 74q0 34 17.5 64t46.5 52h159q-38 -15 -61.5 -36.5t-23.5 -45.5q0 -13 11 -18t25 -5t28 4.5t21 9.5v-99q-12 -9 -41 -19t-67 -10z" />
    <glyph glyph-name="Edotaccent" unicode="&#x116;" horiz-adv-x="571" 
d="M75 710h450v-152h-291v-127h231v-152h-231v-127h291v-152h-450v710zM299 768q-17 0 -31.5 6.5t-25.5 17.5t-17.5 25.5t-6.5 30.5q0 34 23.5 57.5t57.5 23.5q33 0 56.5 -23.5t23.5 -57.5q0 -16 -6.5 -30.5t-17 -25.5t-25.5 -17.5t-31 -6.5z" />
    <glyph glyph-name="Gbreve" unicode="&#x11e;" horiz-adv-x="802" 
d="M411 -12q-82 0 -151 28.5t-118.5 78t-77.5 116.5t-28 144t28 144t77.5 116.5t118 78t149.5 28.5q54 0 106 -15.5t96.5 -44t78.5 -69.5t53 -93h-183q-26 34 -67 51t-84 17q-49 0 -88.5 -16.5t-67 -45.5t-42.5 -67.5t-15 -83.5t15 -83.5t43 -67.5t67.5 -45.5t89.5 -16.5
q80 0 125.5 37t58.5 102h-204v149h369q13 -113 -10 -196t-71.5 -138t-118 -81.5t-149.5 -26.5zM409 747q-37 0 -69.5 12.5t-56.5 36t-38 57t-14 74.5h86q0 -47 27 -70t65 -23t65 23t27 70h86q0 -41 -14 -74.5t-38 -57t-56.5 -36t-69.5 -12.5z" />
    <glyph glyph-name="Gcircumflex" unicode="&#x11c;" horiz-adv-x="802" 
d="M411 -12q-82 0 -151 28.5t-118.5 78t-77.5 116.5t-28 144t28 144t77.5 116.5t118 78t149.5 28.5q54 0 106 -15.5t96.5 -44t78.5 -69.5t53 -93h-183q-26 34 -67 51t-84 17q-49 0 -88.5 -16.5t-67 -45.5t-42.5 -67.5t-15 -83.5t15 -83.5t43 -67.5t67.5 -45.5t89.5 -16.5
q80 0 125.5 37t58.5 102h-204v149h369q13 -113 -10 -196t-71.5 -138t-118 -81.5t-149.5 -26.5zM233 880l176 68l176 -68v-118l-176 68l-176 -68v118z" />
    <glyph glyph-name="uni0122" unicode="&#x122;" horiz-adv-x="802" 
d="M411 -12q-82 0 -151 28.5t-118.5 78t-77.5 116.5t-28 144t28 144t77.5 116.5t118 78t149.5 28.5q54 0 106 -15.5t96.5 -44t78.5 -69.5t53 -93h-183q-26 34 -67 51t-84 17q-49 0 -88.5 -16.5t-67 -45.5t-42.5 -67.5t-15 -83.5t15 -83.5t43 -67.5t67.5 -45.5t89.5 -16.5
q80 0 125.5 37t58.5 102h-204v149h369q13 -113 -10 -196t-71.5 -138t-118 -81.5t-149.5 -26.5zM378 -220q-20 8 -34.5 27.5t-14.5 46.5q0 33 23 56t57 23q33 0 56.5 -23t23.5 -56q0 -26 -16 -52l-75 -118h-64z" />
    <glyph glyph-name="Gdotaccent" unicode="&#x120;" horiz-adv-x="802" 
d="M411 -12q-82 0 -151 28.5t-118.5 78t-77.5 116.5t-28 144t28 144t77.5 116.5t118 78t149.5 28.5q54 0 106 -15.5t96.5 -44t78.5 -69.5t53 -93h-183q-26 34 -67 51t-84 17q-49 0 -88.5 -16.5t-67 -45.5t-42.5 -67.5t-15 -83.5t15 -83.5t43 -67.5t67.5 -45.5t89.5 -16.5
q80 0 125.5 37t58.5 102h-204v149h369q13 -113 -10 -196t-71.5 -138t-118 -81.5t-149.5 -26.5zM409 768q-17 0 -31.5 6.5t-25.5 17.5t-17.5 25.5t-6.5 30.5q0 34 23.5 57.5t57.5 23.5q33 0 56.5 -23.5t23.5 -57.5q0 -16 -6.5 -30.5t-17 -25.5t-25.5 -17.5t-31 -6.5z" />
    <glyph glyph-name="Hbar" unicode="&#x126;" horiz-adv-x="790" 
d="M93 710h159v-278h286v278h159v-710h-159v281h-286v-281h-159v710zM21 626h748v-108h-748v108z" />
    <glyph glyph-name="Hcircumflex" unicode="&#x124;" horiz-adv-x="754" 
d="M75 710h159v-278h286v278h159v-710h-159v281h-286v-281h-159v710zM201 880l176 68l176 -68v-118l-176 68l-176 -68v118z" />
    <glyph glyph-name="Ibreve" unicode="&#x12c;" horiz-adv-x="309" 
d="M75 710h159v-710h-159v710zM155 747q-37 0 -69.5 12.5t-56.5 36t-38 57t-14 74.5h86q0 -47 27 -70t65 -23t65 23t27 70h86q0 -41 -14 -74.5t-38 -57t-56.5 -36t-69.5 -12.5z" />
    <glyph glyph-name="Idotaccent" unicode="&#x130;" horiz-adv-x="309" 
d="M75 710h159v-710h-159v710zM155 768q-17 0 -31.5 6.5t-25.5 17.5t-17.5 25.5t-6.5 30.5q0 34 23.5 57.5t57.5 23.5q33 0 56.5 -23.5t23.5 -57.5q0 -16 -6.5 -30.5t-17 -25.5t-25.5 -17.5t-31 -6.5z" />
    <glyph glyph-name="Imacron" unicode="&#x12a;" horiz-adv-x="309" 
d="M75 710h159v-710h-159v710zM-19 891h348v-104h-348v104z" />
    <glyph glyph-name="Iogonek" unicode="&#x12e;" horiz-adv-x="309" 
d="M75 710h159v-710h-159v710zM126 -219q-54 0 -84.5 29t-30.5 74q0 34 17.5 64t46.5 52h159q-38 -15 -61.5 -36.5t-23.5 -45.5q0 -13 11 -18t25 -5t28 4.5t21 9.5v-99q-12 -9 -41 -19t-67 -10z" />
    <glyph glyph-name="Itilde" unicode="&#x128;" horiz-adv-x="309" 
d="M75 710h159v-710h-159v710zM-34 804q4 28 15.5 50t28 37t36.5 22.5t41 7.5q23 0 42.5 -7.5t35.5 -16t29.5 -16t25.5 -7.5q20 0 29 12.5t15 35.5h83l-4 -28q-4 -29 -16 -50.5t-28.5 -36.5t-36.5 -22.5t-41 -7.5q-23 0 -42.5 7.5t-35.5 16t-29.5 16t-24.5 7.5
q-20 0 -29 -12.5t-16 -35.5h-82z" />
    <glyph glyph-name="uni1ECA" unicode="&#x1eca;" horiz-adv-x="309" 
d="M75 710h159v-710h-159v710zM155 -227q-34 0 -57.5 23.5t-23.5 56.5t23.5 56.5t57.5 23.5q33 0 56.5 -23.5t23.5 -56.5t-23.5 -56.5t-56.5 -23.5z" />
    <glyph glyph-name="Jcircumflex" unicode="&#x134;" horiz-adv-x="552" 
d="M250 -12q-45 0 -86.5 12.5t-73.5 39.5t-51 68.5t-19 99.5h157q0 -36 21 -54t52 -18q29 0 51 17t22 51v506h159v-516q0 -54 -19 -93t-51 -64t-74 -37t-88 -12zM226 880l176 68l176 -68v-118l-176 68l-176 -68v118z" />
    <glyph glyph-name="uni0136" unicode="&#x136;" horiz-adv-x="700" 
d="M233 318v-318h-158v710h158v-297l241 297h195l-280 -341l337 -369h-204zM345 -220q-20 8 -34.5 27.5t-14.5 46.5q0 33 23 56t57 23q33 0 56.5 -23t23.5 -56q0 -26 -16 -52l-75 -118h-64z" />
    <glyph glyph-name="Lacute" unicode="&#x139;" horiz-adv-x="552" 
d="M75 710h159v-558h294v-152h-453v710zM180 927h166l-125 -157h-111z" />
    <glyph glyph-name="Lcaron" unicode="&#x13d;" horiz-adv-x="554" 
d="M75 710h159v-558h294v-152h-453v710zM316 750h151l-69 -160h-102z" />
    <glyph glyph-name="uni013B" unicode="&#x13b;" horiz-adv-x="552" 
d="M75 710h159v-558h294v-152h-453v710zM271 -220q-20 8 -34.5 27.5t-14.5 46.5q0 33 23 56t57 23q33 0 56.5 -23t23.5 -56q0 -26 -16 -52l-75 -118h-64z" />
    <glyph glyph-name="Ldot" unicode="&#x13f;" horiz-adv-x="560" 
d="M75 710h159v-558h294v-152h-453v710zM425 351q-34 0 -57.5 23.5t-23.5 56.5q0 34 23.5 57.5t57.5 23.5q33 0 56.5 -23.5t23.5 -57.5q0 -33 -23.5 -56.5t-56.5 -23.5z" />
    <glyph glyph-name="glyph221" horiz-adv-x="560" 
d="M75 710h159v-558h294v-152h-453v710zM425 351q-34 0 -57.5 23.5t-23.5 56.5q0 34 23.5 57.5t57.5 23.5q33 0 56.5 -23.5t23.5 -57.5q0 -33 -23.5 -56.5t-56.5 -23.5z" />
    <glyph glyph-name="Lslash" unicode="&#x141;" horiz-adv-x="583" 
d="M106 710h159v-558h294v-152h-453v710zM34 213v124l360 206v-125z" />
    <glyph glyph-name="Eng" unicode="&#x14a;" horiz-adv-x="792" 
d="M717 -30q0 -48 -16 -83.5t-43 -59t-64 -35t-79 -11.5q-30 0 -51 3t-38 8v146q13 -4 28 -6t27 -2q42 0 59 19.5t17 64.5v15l-323 410v-439h-159v710h137l345 -439v439h160v-740z" />
    <glyph glyph-name="Nacute" unicode="&#x143;" horiz-adv-x="792" 
d="M580 0l-346 439v-439h-159v710h137l345 -439v439h160v-710h-137zM418 927h166l-125 -157h-111z" />
    <glyph glyph-name="Ncaron" unicode="&#x147;" horiz-adv-x="792" 
d="M580 0l-346 439v-439h-159v710h137l345 -439v439h160v-710h-137zM220 830v118l176 -68l176 68v-118l-176 -68z" />
    <glyph glyph-name="uni0145" unicode="&#x145;" horiz-adv-x="792" 
d="M580 0l-346 439v-439h-159v710h137l345 -439v439h160v-710h-137zM363 -220q-20 8 -34.5 27.5t-14.5 46.5q0 33 23 56t57 23q33 0 56.5 -23t23.5 -56q0 -26 -16 -52l-75 -118h-64z" />
    <glyph glyph-name="OE" unicode="&#x152;" horiz-adv-x="1104" 
d="M402 142q43 0 80.5 17t65.5 46.5t44 68t16 81.5t-16 81.5t-44 68t-65.5 46.5t-80.5 17q-44 0 -81.5 -17t-65.5 -46.5t-44 -68t-16 -81.5t16 -81.5t44 -68t65.5 -46.5t81.5 -17zM608 56q-38 -36 -94 -52t-112 -16q-76 0 -143 29t-116.5 79t-78.5 116.5t-29 142.5t29 142.5
t78.5 116.5t116.5 79t143 29q56 0 112 -16t94 -52v56h450v-152h-290v-127h230v-152h-230v-127h290v-152h-450v56z" />
    <glyph glyph-name="Obreve" unicode="&#x14e;" horiz-adv-x="804" 
d="M402 142q43 0 80.5 17t65.5 46.5t44 68t16 81.5t-16 81.5t-44 68t-65.5 46.5t-80.5 17q-44 0 -81.5 -17t-65.5 -46.5t-44 -68t-16 -81.5t16 -81.5t44 -68t65.5 -46.5t81.5 -17zM402 -12q-76 0 -143 29t-116.5 79t-78.5 116.5t-29 142.5t29 142.5t78.5 116.5t116.5 79
t143 29t142.5 -29t116.5 -79t79 -116.5t29 -142.5t-29 -142.5t-79 -116.5t-116.5 -79t-142.5 -29zM402 747q-37 0 -69.5 12.5t-56.5 36t-38 57t-14 74.5h86q0 -47 27 -70t65 -23t65 23t27 70h86q0 -41 -14 -74.5t-38 -57t-56.5 -36t-69.5 -12.5z" />
    <glyph glyph-name="Ohungarumlaut" unicode="&#x150;" horiz-adv-x="804" 
d="M402 142q43 0 80.5 17t65.5 46.5t44 68t16 81.5t-16 81.5t-44 68t-65.5 46.5t-80.5 17q-44 0 -81.5 -17t-65.5 -46.5t-44 -68t-16 -81.5t16 -81.5t44 -68t65.5 -46.5t81.5 -17zM402 -12q-76 0 -143 29t-116.5 79t-78.5 116.5t-29 142.5t29 142.5t78.5 116.5t116.5 79
t143 29t142.5 -29t116.5 -79t79 -116.5t29 -142.5t-29 -142.5t-79 -116.5t-116.5 -79t-142.5 -29zM518 927h156l-127 -157h-95zM331 927h157l-127 -157h-95z" />
    <glyph glyph-name="Omacron" unicode="&#x14c;" horiz-adv-x="804" 
d="M402 142q43 0 80.5 17t65.5 46.5t44 68t16 81.5t-16 81.5t-44 68t-65.5 46.5t-80.5 17q-44 0 -81.5 -17t-65.5 -46.5t-44 -68t-16 -81.5t16 -81.5t44 -68t65.5 -46.5t81.5 -17zM402 -12q-76 0 -143 29t-116.5 79t-78.5 116.5t-29 142.5t29 142.5t78.5 116.5t116.5 79
t143 29t142.5 -29t116.5 -79t79 -116.5t29 -142.5t-29 -142.5t-79 -116.5t-116.5 -79t-142.5 -29zM228 891h348v-104h-348v104z" />
    <glyph glyph-name="uni1ECC" unicode="&#x1ecc;" horiz-adv-x="804" 
d="M402 142q43 0 80.5 17t65.5 46.5t44 68t16 81.5t-16 81.5t-44 68t-65.5 46.5t-80.5 17q-44 0 -81.5 -17t-65.5 -46.5t-44 -68t-16 -81.5t16 -81.5t44 -68t65.5 -46.5t81.5 -17zM402 -12q-76 0 -143 29t-116.5 79t-78.5 116.5t-29 142.5t29 142.5t78.5 116.5t116.5 79
t143 29t142.5 -29t116.5 -79t79 -116.5t29 -142.5t-29 -142.5t-79 -116.5t-116.5 -79t-142.5 -29zM402 -227q-34 0 -57.5 23.5t-23.5 56.5t23.5 56.5t57.5 23.5q33 0 56.5 -23.5t23.5 -56.5t-23.5 -56.5t-56.5 -23.5z" />
    <glyph glyph-name="Racute" unicode="&#x154;" horiz-adv-x="662" 
d="M75 710h280q50 0 91 -17t69.5 -46t44 -68t15.5 -83q0 -69 -35.5 -114t-103.5 -69l251 -313h-191l-237 293h-25v-293h-159v710zM336 428q35 0 58 18.5t23 49.5q0 32 -23 50t-58 18h-102v-136h102zM323 927h166l-125 -157h-111z" />
    <glyph glyph-name="Rcaron" unicode="&#x158;" horiz-adv-x="662" 
d="M75 710h280q50 0 91 -17t69.5 -46t44 -68t15.5 -83q0 -69 -35.5 -114t-103.5 -69l251 -313h-191l-237 293h-25v-293h-159v710zM336 428q35 0 58 18.5t23 49.5q0 32 -23 50t-58 18h-102v-136h102zM125 830v118l176 -68l176 68v-118l-176 -68z" />
    <glyph glyph-name="uni0156" unicode="&#x156;" horiz-adv-x="662" 
d="M75 710h280q50 0 91 -17t69.5 -46t44 -68t15.5 -83q0 -69 -35.5 -114t-103.5 -69l251 -313h-191l-237 293h-25v-293h-159v710zM336 428q35 0 58 18.5t23 49.5q0 32 -23 50t-58 18h-102v-136h102zM333 -220q-20 8 -34.5 27.5t-14.5 46.5q0 33 23 56t57 23q33 0 56.5 -23
t23.5 -56q0 -26 -16 -52l-75 -118h-64z" />
    <glyph glyph-name="Sacute" unicode="&#x15a;" horiz-adv-x="602" 
d="M312 -12q-66 0 -117 21t-86.5 54.5t-55 76.5t-21.5 88h159q8 -45 41 -69t80 -24q40 0 66 16.5t26 46.5q0 25 -21 44t-72 33l-69 18q-85 23 -138 76t-54 137q0 50 17 90t49.5 68t77.5 43t100 15q58 0 105 -19.5t80 -51t51 -71t20 -80.5h-158q-12 42 -40.5 58.5t-57.5 16.5
q-35 0 -59 -14.5t-25 -43.5t21.5 -47t64.5 -29l81 -21q88 -23 138 -78t50 -139q0 -45 -18 -84.5t-51 -68.5t-80 -45.5t-104 -16.5zM319 927h166l-125 -157h-111z" />
    <glyph glyph-name="Scaron" unicode="&#x160;" horiz-adv-x="602" 
d="M312 -12q-66 0 -117 21t-86.5 54.5t-55 76.5t-21.5 88h159q8 -45 41 -69t80 -24q40 0 66 16.5t26 46.5q0 25 -21 44t-72 33l-69 18q-85 23 -138 76t-54 137q0 50 17 90t49.5 68t77.5 43t100 15q58 0 105 -19.5t80 -51t51 -71t20 -80.5h-158q-12 42 -40.5 58.5t-57.5 16.5
q-35 0 -59 -14.5t-25 -43.5t21.5 -47t64.5 -29l81 -21q88 -23 138 -78t50 -139q0 -45 -18 -84.5t-51 -68.5t-80 -45.5t-104 -16.5zM121 830v118l176 -68l176 68v-118l-176 -68z" />
    <glyph glyph-name="Scedilla" unicode="&#x15e;" horiz-adv-x="602" 
d="M312 -12q-66 0 -117 21t-86.5 54.5t-55 76.5t-21.5 88h159q8 -45 41 -69t80 -24q40 0 66 16.5t26 46.5q0 25 -21 44t-72 33l-69 18q-85 23 -138 76t-54 137q0 50 17 90t49.5 68t77.5 43t100 15q58 0 105 -19.5t80 -51t51 -71t20 -80.5h-158q-12 42 -40.5 58.5t-57.5 16.5
q-35 0 -59 -14.5t-25 -43.5t21.5 -47t64.5 -29l81 -21q88 -23 138 -78t50 -139q0 -45 -18 -84.5t-51 -68.5t-80 -45.5t-104 -16.5zM188 -139q16 -9 37 -13t39 -4q10 0 20.5 1t19.5 4.5t14.5 9.5t5.5 16q0 14 -12 20.5t-31 6.5q-8 0 -19 -2.5t-21 -7.5l-36 19l56 92h64
l-30 -50q13 3 23.5 5t25.5 2q36 0 61 -20.5t25 -58.5q0 -23 -12 -41.5t-31.5 -31.5t-44 -20t-50.5 -7q-22 0 -50 2.5t-54 12.5v65z" />
    <glyph glyph-name="Scircumflex" unicode="&#x15c;" horiz-adv-x="602" 
d="M312 -12q-66 0 -117 21t-86.5 54.5t-55 76.5t-21.5 88h159q8 -45 41 -69t80 -24q40 0 66 16.5t26 46.5q0 25 -21 44t-72 33l-69 18q-85 23 -138 76t-54 137q0 50 17 90t49.5 68t77.5 43t100 15q58 0 105 -19.5t80 -51t51 -71t20 -80.5h-158q-12 42 -40.5 58.5t-57.5 16.5
q-35 0 -59 -14.5t-25 -43.5t21.5 -47t64.5 -29l81 -21q88 -23 138 -78t50 -139q0 -45 -18 -84.5t-51 -68.5t-80 -45.5t-104 -16.5zM121 880l176 68l176 -68v-118l-176 68l-176 -68v118z" />
    <glyph glyph-name="uni0218" unicode="&#x218;" horiz-adv-x="602" 
d="M312 -12q-66 0 -117 21t-86.5 54.5t-55 76.5t-21.5 88h159q8 -45 41 -69t80 -24q40 0 66 16.5t26 46.5q0 25 -21 44t-72 33l-69 18q-85 23 -138 76t-54 137q0 50 17 90t49.5 68t77.5 43t100 15q58 0 105 -19.5t80 -51t51 -71t20 -80.5h-158q-12 42 -40.5 58.5t-57.5 16.5
q-35 0 -59 -14.5t-25 -43.5t21.5 -47t64.5 -29l81 -21q88 -23 138 -78t50 -139q0 -45 -18 -84.5t-51 -68.5t-80 -45.5t-104 -16.5zM278 -220q-20 8 -34.5 27.5t-14.5 46.5q0 33 23 56t57 23q33 0 56.5 -23t23.5 -56q0 -26 -16 -52l-75 -118h-64z" />
    <glyph glyph-name="Tbar" unicode="&#x166;" horiz-adv-x="592" 
d="M215 558h-181v152h524v-152h-183v-558h-160v558zM80 425h431v-138h-431v138z" />
    <glyph glyph-name="Tcaron" unicode="&#x164;" horiz-adv-x="568" 
d="M203 558h-181v152h524v-152h-183v-558h-160v558zM108 830v118l176 -68l176 68v-118l-176 -68z" />
    <glyph glyph-name="uni0162" unicode="&#x162;" horiz-adv-x="568" 
d="M203 558h-181v152h524v-152h-183v-558h-160v558zM253 -220q-20 8 -34.5 27.5t-14.5 46.5q0 33 23 56t57 23q33 0 56.5 -23t23.5 -56q0 -26 -16 -52l-75 -118h-64z" />
    <glyph glyph-name="uni021A" unicode="&#x21a;" horiz-adv-x="568" 
d="M203 558h-181v152h524v-152h-183v-558h-160v558zM253 -220q-20 8 -34.5 27.5t-14.5 46.5q0 33 23 56t57 23q33 0 56.5 -23t23.5 -56q0 -26 -16 -52l-75 -118h-64z" />
    <glyph glyph-name="Ubreve" unicode="&#x16c;" horiz-adv-x="718" 
d="M359 -12q-64 0 -117.5 21t-92.5 59t-60.5 92.5t-21.5 120.5v429h159v-431q0 -64 36.5 -100.5t96.5 -36.5t96.5 36.5t36.5 100.5v431h159v-429q0 -66 -21.5 -120.5t-60.5 -92.5t-92.5 -59t-117.5 -21zM359 747q-37 0 -69.5 12.5t-56.5 36t-38 57t-14 74.5h86q0 -47 27 -70
t65 -23t65 23t27 70h86q0 -41 -14 -74.5t-38 -57t-56.5 -36t-69.5 -12.5z" />
    <glyph glyph-name="Uhungarumlaut" unicode="&#x170;" horiz-adv-x="718" 
d="M359 -12q-64 0 -117.5 21t-92.5 59t-60.5 92.5t-21.5 120.5v429h159v-431q0 -64 36.5 -100.5t96.5 -36.5t96.5 36.5t36.5 100.5v431h159v-429q0 -66 -21.5 -120.5t-60.5 -92.5t-92.5 -59t-117.5 -21zM475 927h156l-127 -157h-95zM288 927h157l-127 -157h-95z" />
    <glyph glyph-name="Umacron" unicode="&#x16a;" horiz-adv-x="718" 
d="M359 -12q-64 0 -117.5 21t-92.5 59t-60.5 92.5t-21.5 120.5v429h159v-431q0 -64 36.5 -100.5t96.5 -36.5t96.5 36.5t36.5 100.5v431h159v-429q0 -66 -21.5 -120.5t-60.5 -92.5t-92.5 -59t-117.5 -21zM185 891h348v-104h-348v104z" />
    <glyph glyph-name="Uogonek" unicode="&#x172;" horiz-adv-x="718" 
d="M412 -219q-54 0 -84.5 29t-30.5 74q0 23 8 49t37 56q-63 3 -113.5 25.5t-86.5 60.5t-55.5 90.5t-19.5 115.5v429h159v-431q0 -64 36.5 -100.5t96.5 -36.5t96.5 36.5t36.5 100.5v431h159v-429q0 -78 -27.5 -134.5t-75.5 -98.5q-32 -28 -54 -46t-35 -31.5t-18.5 -24.5
t-5.5 -23q0 -14 11 -21t25 -7t28 4.5t21 9.5v-99q-12 -9 -41 -19t-67 -10z" />
    <glyph glyph-name="Uring" unicode="&#x16e;" horiz-adv-x="718" 
d="M359 -12q-64 0 -117.5 21t-92.5 59t-60.5 92.5t-21.5 120.5v429h159v-431q0 -64 36.5 -100.5t96.5 -36.5t96.5 36.5t36.5 100.5v431h159v-429q0 -66 -21.5 -120.5t-60.5 -92.5t-92.5 -59t-117.5 -21zM360 753q-25 0 -47 9.5t-38.5 26t-26.5 38t-10 46.5t10 46.5t26.5 38
t38.5 26t47 9.5t47 -9.5t38.5 -26t26.5 -38t10 -46.5t-10 -46.5t-26.5 -38t-38.5 -26t-47 -9.5zM360 818q23 0 39.5 16t16.5 39t-16.5 39t-39.5 16t-39.5 -16t-16.5 -39t16.5 -39t39.5 -16z" />
    <glyph glyph-name="Utilde" unicode="&#x168;" horiz-adv-x="718" 
d="M359 -12q-64 0 -117.5 21t-92.5 59t-60.5 92.5t-21.5 120.5v429h159v-431q0 -64 36.5 -100.5t96.5 -36.5t96.5 36.5t36.5 100.5v431h159v-429q0 -66 -21.5 -120.5t-60.5 -92.5t-92.5 -59t-117.5 -21zM170 804q4 28 15.5 50t28 37t36.5 22.5t41 7.5q23 0 42.5 -7.5
t35.5 -16t29.5 -16t25.5 -7.5q20 0 29 12.5t15 35.5h83l-4 -28q-4 -29 -16 -50.5t-28.5 -36.5t-36.5 -22.5t-41 -7.5q-23 0 -42.5 7.5t-35.5 16t-29.5 16t-24.5 7.5q-20 0 -29 -12.5t-16 -35.5h-82z" />
    <glyph glyph-name="uni1EE4" unicode="&#x1ee4;" horiz-adv-x="718" 
d="M359 -12q-64 0 -117.5 21t-92.5 59t-60.5 92.5t-21.5 120.5v429h159v-431q0 -64 36.5 -100.5t96.5 -36.5t96.5 36.5t36.5 100.5v431h159v-429q0 -66 -21.5 -120.5t-60.5 -92.5t-92.5 -59t-117.5 -21zM359 -227q-34 0 -57.5 23.5t-23.5 56.5t23.5 56.5t57.5 23.5
q33 0 56.5 -23.5t23.5 -56.5t-23.5 -56.5t-56.5 -23.5z" />
    <glyph glyph-name="Wacute" unicode="&#x1e82;" horiz-adv-x="965" 
d="M483 347l-151 -347h-151l-164 710h170l97 -450l199 462l200 -462l97 450h170l-165 -710h-151zM505 927h166l-125 -157h-111z" />
    <glyph glyph-name="Wcircumflex" unicode="&#x174;" horiz-adv-x="965" 
d="M483 347l-151 -347h-151l-164 710h170l97 -450l199 462l200 -462l97 450h170l-165 -710h-151zM307 880l176 68l176 -68v-118l-176 68l-176 -68v118z" />
    <glyph glyph-name="Wdieresis" unicode="&#x1e84;" horiz-adv-x="965" 
d="M483 347l-151 -347h-151l-164 710h170l97 -450l199 462l200 -462l97 450h170l-165 -710h-151zM365 768q-17 0 -31.5 6.5t-25.5 17.5t-17.5 25.5t-6.5 30.5q0 34 23.5 57.5t57.5 23.5q16 0 30.5 -6.5t25 -17.5t17 -25.5t6.5 -31.5q0 -16 -6.5 -30.5t-17 -25.5t-25 -17.5
t-30.5 -6.5zM602 768q-17 0 -31.5 6.5t-25 17.5t-17 25.5t-6.5 30.5q0 34 23.5 57.5t56.5 23.5t56.5 -23.5t23.5 -57.5q0 -16 -6.5 -30.5t-17 -25.5t-25.5 -17.5t-31 -6.5z" />
    <glyph glyph-name="Wgrave" unicode="&#x1e80;" horiz-adv-x="965" 
d="M483 347l-151 -347h-151l-164 710h170l97 -450l199 462l200 -462l97 450h170l-165 -710h-151zM420 770l-125 157h166l70 -157h-111z" />
    <glyph glyph-name="Ycircumflex" unicode="&#x176;" horiz-adv-x="694" 
d="M267 299l-259 411h185l153 -256l155 256h185l-259 -412v-298h-160v299zM171 880l176 68l176 -68v-118l-176 68l-176 -68v118z" />
    <glyph glyph-name="Ydieresis" unicode="&#x178;" horiz-adv-x="694" 
d="M267 299l-259 411h185l153 -256l155 256h185l-259 -412v-298h-160v299zM229 768q-17 0 -31.5 6.5t-25.5 17.5t-17.5 25.5t-6.5 30.5q0 34 23.5 57.5t57.5 23.5q16 0 30.5 -6.5t25 -17.5t17 -25.5t6.5 -31.5q0 -16 -6.5 -30.5t-17 -25.5t-25 -17.5t-30.5 -6.5zM466 768
q-17 0 -31.5 6.5t-25 17.5t-17 25.5t-6.5 30.5q0 34 23.5 57.5t56.5 23.5t56.5 -23.5t23.5 -57.5q0 -16 -6.5 -30.5t-17 -25.5t-25.5 -17.5t-31 -6.5z" />
    <glyph glyph-name="Ygrave" unicode="&#x1ef2;" horiz-adv-x="694" 
d="M267 299l-259 411h185l153 -256l155 256h185l-259 -412v-298h-160v299zM284 770l-125 157h166l70 -157h-111z" />
    <glyph glyph-name="uni0232" unicode="&#x232;" horiz-adv-x="694" 
d="M267 299l-259 411h185l153 -256l155 256h185l-259 -412v-298h-160v299zM173 891h348v-104h-348v104z" />
    <glyph glyph-name="Zacute" unicode="&#x179;" horiz-adv-x="626" 
d="M39 109l326 449h-321v152h537v-109l-327 -449h333v-152h-548v109zM335 927h166l-125 -157h-111z" />
    <glyph glyph-name="Zcaron" unicode="&#x17d;" horiz-adv-x="626" 
d="M39 109l326 449h-321v152h537v-109l-327 -449h333v-152h-548v109zM137 830v118l176 -68l176 68v-118l-176 -68z" />
    <glyph glyph-name="Zdotaccent" unicode="&#x17b;" horiz-adv-x="626" 
d="M39 109l326 449h-321v152h537v-109l-327 -449h333v-152h-548v109zM313 768q-17 0 -31.5 6.5t-25.5 17.5t-17.5 25.5t-6.5 30.5q0 34 23.5 57.5t57.5 23.5q33 0 56.5 -23.5t23.5 -57.5q0 -16 -6.5 -30.5t-17 -25.5t-25.5 -17.5t-31 -6.5z" />
    <glyph glyph-name="uni1E9E" unicode="&#x1e9e;" horiz-adv-x="652" 
d="M75 710h496v-108l-91 -143q64 -26 99 -79t35 -132q0 -59 -19.5 -105t-54 -77.5t-82.5 -48.5t-105 -17h-48v152h43q42 0 73.5 24t31.5 72t-31.5 72t-73.5 24h-43v108l72 113h-143v-565h-159v710z" />
    <glyph glyph-name="uni018F" unicode="&#x18f;" horiz-adv-x="806" 
d="M403 -12q-80 0 -147.5 29t-116 79t-76 116.5t-27.5 142.5v52h569q-23 80 -77.5 120.5t-125.5 40.5q-48 0 -90 -16.5t-68 -51.5h-184q18 52 54 93t82.5 69.5t100 44t106.5 15.5q75 0 142 -28t117 -77.5t79 -116.5t29 -145q0 -76 -27.5 -142.5t-76 -116.5t-116 -79
t-147.5 -29zM405 142q64 0 115.5 31.5t74.5 93.5h-382q27 -62 76.5 -93.5t115.5 -31.5z" />
    <glyph glyph-name="abreve" unicode="&#x103;" horiz-adv-x="613" 
d="M264 -11q-49 0 -91.5 21t-73.5 56.5t-49 83t-18 100.5t18 100.5t49 83t73.5 56.5t91.5 21q25 0 46.5 -5.5t39 -14.5t30 -20t20.5 -21v50h151v-500h-151v50q-8 -10 -20.5 -21t-30 -20t-39 -14.5t-46.5 -5.5zM298 126q51 0 82.5 35t31.5 89t-31.5 89t-82.5 35t-82.5 -35
t-31.5 -89t31.5 -89t82.5 -35zM320 552q-37 0 -69.5 12.5t-56.5 36t-38 56t-14 73.5v20h86v-20q0 -46 27 -69t65 -23t65 23t27 69v20h86v-20q0 -41 -14 -73.5t-38 -56t-56.5 -36t-69.5 -12.5z" />
    <glyph glyph-name="amacron" unicode="&#x101;" horiz-adv-x="613" 
d="M264 -11q-49 0 -91.5 21t-73.5 56.5t-49 83t-18 100.5t18 100.5t49 83t73.5 56.5t91.5 21q25 0 46.5 -5.5t39 -14.5t30 -20t20.5 -21v50h151v-500h-151v50q-8 -10 -20.5 -21t-30 -20t-39 -14.5t-46.5 -5.5zM298 126q51 0 82.5 35t31.5 89t-31.5 89t-82.5 35t-82.5 -35
t-31.5 -89t31.5 -89t82.5 -35zM146 710h348v-104h-348v104z" />
    <glyph glyph-name="aogonek" unicode="&#x105;" horiz-adv-x="613" 
d="M264 -11q-49 0 -91.5 21t-73.5 56.5t-49 83t-18 100.5t18 100.5t49 83t73.5 56.5t91.5 21q25 0 46.5 -5.5t39 -14.5t30 -20t20.5 -21v50h151v-500h-151v50q-8 -10 -20.5 -21t-30 -20t-39 -14.5t-46.5 -5.5zM298 126q51 0 82.5 35t31.5 89t-31.5 89t-82.5 35t-82.5 -35
t-31.5 -89t31.5 -89t82.5 -35zM447 -219q-54 0 -82.5 29t-28.5 75q0 32 17.5 62.5t46.5 52.5h151q-38 -15 -61.5 -37t-23.5 -49q0 -16 11 -22t25 -6t28 4.5t21 9.5v-90q-12 -9 -41 -19t-63 -10z" />
    <glyph glyph-name="cacute" unicode="&#x107;" horiz-adv-x="578" 
d="M295 -11q-57 0 -105 20.5t-83.5 55.5t-55 83t-19.5 102t19.5 102t55 83t83.5 55.5t105 20.5q53 0 96.5 -15.5t76 -43.5t54 -65.5t31.5 -81.5h-156q-14 30 -38 50t-64 20q-48 0 -79.5 -33t-31.5 -92t31.5 -92t79.5 -33q40 0 64 20t38 50h156q-10 -44 -31.5 -81.5
t-54 -65.5t-76 -43.5t-96.5 -15.5zM357 750h172l-171 -190h-110z" />
    <glyph glyph-name="ccaron" unicode="&#x10d;" horiz-adv-x="578" 
d="M295 -11q-57 0 -105 20.5t-83.5 55.5t-55 83t-19.5 102t19.5 102t55 83t83.5 55.5t105 20.5q53 0 96.5 -15.5t76 -43.5t54 -65.5t31.5 -81.5h-156q-14 30 -38 50t-64 20q-48 0 -79.5 -33t-31.5 -92t31.5 -92t79.5 -33q40 0 64 20t38 50h156q-10 -44 -31.5 -81.5
t-54 -65.5t-76 -43.5t-96.5 -15.5zM120 638v118l178 -97l178 97v-118l-178 -97z" />
    <glyph glyph-name="ccircumflex" unicode="&#x109;" horiz-adv-x="578" 
d="M295 -11q-57 0 -105 20.5t-83.5 55.5t-55 83t-19.5 102t19.5 102t55 83t83.5 55.5t105 20.5q53 0 96.5 -15.5t76 -43.5t54 -65.5t31.5 -81.5h-156q-14 30 -38 50t-64 20q-48 0 -79.5 -33t-31.5 -92t31.5 -92t79.5 -33q40 0 64 20t38 50h156q-10 -44 -31.5 -81.5
t-54 -65.5t-76 -43.5t-96.5 -15.5zM476 659v-118l-178 97l-178 -97v118l178 97z" />
    <glyph glyph-name="cdotaccent" unicode="&#x10b;" horiz-adv-x="578" 
d="M295 -11q-57 0 -105 20.5t-83.5 55.5t-55 83t-19.5 102t19.5 102t55 83t83.5 55.5t105 20.5q53 0 96.5 -15.5t76 -43.5t54 -65.5t31.5 -81.5h-156q-14 30 -38 50t-64 20q-48 0 -79.5 -33t-31.5 -92t31.5 -92t79.5 -33q40 0 64 20t38 50h156q-10 -44 -31.5 -81.5
t-54 -65.5t-76 -43.5t-96.5 -15.5zM298 572q-17 0 -31.5 6.5t-25.5 17t-17.5 25t-6.5 30.5q0 34 23.5 57.5t57.5 23.5q33 0 56.5 -23.5t23.5 -57.5q0 -32 -23.5 -55.5t-56.5 -23.5z" />
    <glyph glyph-name="dcaron" unicode="&#x10f;" horiz-adv-x="613" 
d="M264 -11q-49 0 -91.5 21t-73.5 56.5t-49 83t-18 100.5t18 100.5t49 83t73.5 56.5t91.5 21q25 0 46.5 -5.5t39 -14.5t30 -20t20.5 -21v300h151v-750h-151v50q-8 -10 -20.5 -21t-30 -20t-39 -14.5t-46.5 -5.5zM298 126q51 0 82.5 35t31.5 89t-31.5 89t-82.5 35t-82.5 -35
t-31.5 -89t31.5 -89t82.5 -35zM587 750h151l-69 -160h-102z" />
    <glyph glyph-name="dcroat" unicode="&#x111;" horiz-adv-x="613" 
d="M264 -11q-49 0 -91.5 21t-73.5 56.5t-49 83t-18 100.5t18 100.5t49 83t73.5 56.5t91.5 21q25 0 46.5 -5.5t39 -14.5t30 -20t20.5 -21v300h151v-750h-151v50q-8 -10 -20.5 -21t-30 -20t-39 -14.5t-46.5 -5.5zM298 126q51 0 82.5 35t31.5 89t-31.5 89t-82.5 35t-82.5 -35
t-31.5 -89t31.5 -89t82.5 -35zM267 564v96h343v-96h-343z" />
    <glyph glyph-name="ebreve" unicode="&#x115;" horiz-adv-x="596" 
d="M297 -11q-58 0 -106.5 19.5t-84 54.5t-55 83t-19.5 105q0 56 20 104t55.5 82.5t84 54t105.5 19.5q54 0 103.5 -18.5t86.5 -55.5t58 -92.5t19 -129.5h-385q2 -19 10.5 -36.5t24 -30.5t38 -21t53.5 -8q33 0 60 13.5t36 33.5h158q-12 -39 -36.5 -71.5t-59 -56t-77 -36.5
t-89.5 -13zM293 391q-45 0 -72.5 -23t-37.5 -57h214q-6 22 -17.5 37.5t-26 25t-30 13.5t-30.5 4zM302 552q-37 0 -69.5 12.5t-56.5 36t-38 56t-14 73.5v20h86v-20q0 -46 27 -69t65 -23t65 23t27 69v20h86v-20q0 -41 -14 -73.5t-38 -56t-56.5 -36t-69.5 -12.5z" />
    <glyph glyph-name="ecaron" unicode="&#x11b;" horiz-adv-x="596" 
d="M297 -11q-58 0 -106.5 19.5t-84 54.5t-55 83t-19.5 105q0 56 20 104t55.5 82.5t84 54t105.5 19.5q54 0 103.5 -18.5t86.5 -55.5t58 -92.5t19 -129.5h-385q2 -19 10.5 -36.5t24 -30.5t38 -21t53.5 -8q33 0 60 13.5t36 33.5h158q-12 -39 -36.5 -71.5t-59 -56t-77 -36.5
t-89.5 -13zM293 391q-45 0 -72.5 -23t-37.5 -57h214q-6 22 -17.5 37.5t-26 25t-30 13.5t-30.5 4zM124 638v118l178 -97l178 97v-118l-178 -97z" />
    <glyph glyph-name="emacron" unicode="&#x113;" horiz-adv-x="596" 
d="M297 -11q-58 0 -106.5 19.5t-84 54.5t-55 83t-19.5 105q0 56 20 104t55.5 82.5t84 54t105.5 19.5q54 0 103.5 -18.5t86.5 -55.5t58 -92.5t19 -129.5h-385q2 -19 10.5 -36.5t24 -30.5t38 -21t53.5 -8q33 0 60 13.5t36 33.5h158q-12 -39 -36.5 -71.5t-59 -56t-77 -36.5
t-89.5 -13zM293 391q-45 0 -72.5 -23t-37.5 -57h214q-6 22 -17.5 37.5t-26 25t-30 13.5t-30.5 4zM128 710h348v-104h-348v104z" />
    <glyph glyph-name="eogonek" unicode="&#x119;" horiz-adv-x="596" 
d="M559 166q-6 -19 -15 -35t-19 -33q-39 -69 -52 -109t-13 -60q0 -18 12 -30.5t33 -12.5q13 0 24.5 4.5t19.5 9.5v-90q-12 -9 -41 -19t-63 -10q-54 0 -84.5 29t-30.5 75q0 29 11.5 55.5t35.5 58.5q-26 -7 -44.5 -8.5t-35.5 -1.5q-58 0 -106.5 19.5t-84 54.5t-55 83
t-19.5 105q0 56 20 104t55.5 82.5t84 54t105.5 19.5q54 0 103.5 -18.5t86.5 -55.5t58 -92.5t19 -129.5h-385q2 -19 10.5 -36.5t24 -30.5t38 -21t53.5 -8q33 0 60 13.5t36 33.5h158zM293 391q-45 0 -72.5 -23t-37.5 -57h214q-6 22 -17.5 37.5t-26 25t-30 13.5t-30.5 4z" />
    <glyph glyph-name="edotaccent" unicode="&#x117;" horiz-adv-x="596" 
d="M297 -11q-58 0 -106.5 19.5t-84 54.5t-55 83t-19.5 105q0 56 20 104t55.5 82.5t84 54t105.5 19.5q54 0 103.5 -18.5t86.5 -55.5t58 -92.5t19 -129.5h-385q2 -19 10.5 -36.5t24 -30.5t38 -21t53.5 -8q33 0 60 13.5t36 33.5h158q-12 -39 -36.5 -71.5t-59 -56t-77 -36.5
t-89.5 -13zM293 391q-45 0 -72.5 -23t-37.5 -57h214q-6 22 -17.5 37.5t-26 25t-30 13.5t-30.5 4zM302 572q-17 0 -31.5 6.5t-25.5 17t-17.5 25t-6.5 30.5q0 34 23.5 57.5t57.5 23.5q33 0 56.5 -23.5t23.5 -57.5q0 -32 -23.5 -55.5t-56.5 -23.5z" />
    <glyph glyph-name="gbreve" unicode="&#x11f;" horiz-adv-x="615" 
d="M298 -219q-54 0 -97.5 15t-75 40.5t-50 60.5t-21.5 76h147q12 -35 37.5 -51t63.5 -16q39 0 69.5 25t30.5 78v59q-17 -26 -53.5 -43.5t-82.5 -17.5q-48 0 -90.5 19.5t-74.5 54t-50.5 80t-18.5 98.5q0 52 18.5 98t50.5 80.5t74.5 54t90.5 19.5q46 0 82.5 -17.5t53.5 -43.5
v50h151v-469q0 -69 -21.5 -117t-57.5 -77.5t-82 -42.5t-94 -13zM299 144q23 0 44 8t36.5 23t25 36.5t9.5 47.5t-9.5 47.5t-25 36.5t-36.5 23t-44 8t-44 -8t-36.5 -23t-25 -36.5t-9.5 -47.5t9.5 -47.5t25 -36.5t36.5 -23t44 -8zM311 552q-37 0 -69.5 12.5t-56.5 36t-38 56
t-14 73.5v20h86v-20q0 -46 27 -69t65 -23t65 23t27 69v20h86v-20q0 -41 -14 -73.5t-38 -56t-56.5 -36t-69.5 -12.5z" />
    <glyph glyph-name="gcircumflex" unicode="&#x11d;" horiz-adv-x="615" 
d="M298 -219q-54 0 -97.5 15t-75 40.5t-50 60.5t-21.5 76h147q12 -35 37.5 -51t63.5 -16q39 0 69.5 25t30.5 78v59q-17 -26 -53.5 -43.5t-82.5 -17.5q-48 0 -90.5 19.5t-74.5 54t-50.5 80t-18.5 98.5q0 52 18.5 98t50.5 80.5t74.5 54t90.5 19.5q46 0 82.5 -17.5t53.5 -43.5
v50h151v-469q0 -69 -21.5 -117t-57.5 -77.5t-82 -42.5t-94 -13zM299 144q23 0 44 8t36.5 23t25 36.5t9.5 47.5t-9.5 47.5t-25 36.5t-36.5 23t-44 8t-44 -8t-36.5 -23t-25 -36.5t-9.5 -47.5t9.5 -47.5t25 -36.5t36.5 -23t44 -8zM489 659v-118l-178 97l-178 -97v118l178 97z
" />
    <glyph glyph-name="uni0123" unicode="&#x123;" horiz-adv-x="615" 
d="M298 -219q-54 0 -97.5 15t-75 40.5t-50 60.5t-21.5 76h147q12 -35 37.5 -51t63.5 -16q39 0 69.5 25t30.5 78v59q-17 -26 -53.5 -43.5t-82.5 -17.5q-48 0 -90.5 19.5t-74.5 54t-50.5 80t-18.5 98.5q0 52 18.5 98t50.5 80.5t74.5 54t90.5 19.5q46 0 82.5 -17.5t53.5 -43.5
v50h151v-469q0 -69 -21.5 -117t-57.5 -77.5t-82 -42.5t-94 -13zM299 144q23 0 44 8t36.5 23t25 36.5t9.5 47.5t-9.5 47.5t-25 36.5t-36.5 23t-44 8t-44 -8t-36.5 -23t-25 -36.5t-9.5 -47.5t9.5 -47.5t25 -36.5t36.5 -23t44 -8zM311 572q-33 0 -56.5 23.5t-23.5 55.5
q0 26 16 52l75 118h64l-44 -96q20 -8 34.5 -27.5t14.5 -46.5q0 -32 -23 -55.5t-57 -23.5z" />
    <glyph glyph-name="gdotaccent" unicode="&#x121;" horiz-adv-x="615" 
d="M298 -219q-54 0 -97.5 15t-75 40.5t-50 60.5t-21.5 76h147q12 -35 37.5 -51t63.5 -16q39 0 69.5 25t30.5 78v59q-17 -26 -53.5 -43.5t-82.5 -17.5q-48 0 -90.5 19.5t-74.5 54t-50.5 80t-18.5 98.5q0 52 18.5 98t50.5 80.5t74.5 54t90.5 19.5q46 0 82.5 -17.5t53.5 -43.5
v50h151v-469q0 -69 -21.5 -117t-57.5 -77.5t-82 -42.5t-94 -13zM299 144q23 0 44 8t36.5 23t25 36.5t9.5 47.5t-9.5 47.5t-25 36.5t-36.5 23t-44 8t-44 -8t-36.5 -23t-25 -36.5t-9.5 -47.5t9.5 -47.5t25 -36.5t36.5 -23t44 -8zM311 572q-17 0 -31.5 6.5t-25.5 17t-17.5 25
t-6.5 30.5q0 34 23.5 57.5t57.5 23.5q33 0 56.5 -23.5t23.5 -57.5q0 -32 -23.5 -55.5t-56.5 -23.5z" />
    <glyph glyph-name="hbar" unicode="&#x127;" horiz-adv-x="602" 
d="M62 0v750h151v-301q18 26 54 44t85 18q46 0 82 -16.5t61 -45.5t38 -70t13 -90v-289h-151v263q0 52 -20 81.5t-61 29.5q-43 0 -72 -31.5t-29 -99.5v-243h-151zM3 564v96h343v-96h-343z" />
    <glyph glyph-name="hcircumflex" unicode="&#x125;" horiz-adv-x="602" 
d="M62 0v750h151v-301q18 26 54 44t85 18q46 0 82 -16.5t61 -45.5t38 -70t13 -90v-289h-151v263q0 52 -20 81.5t-61 29.5q-43 0 -72 -31.5t-29 -99.5v-243h-151zM157 880l176 68l176 -68v-118l-176 68l-176 -68v118z" />
    <glyph glyph-name="dotlessi" unicode="&#x131;" horiz-adv-x="275" 
d="M62 500h151v-500h-151v500z" />
    <glyph glyph-name="ibreve" unicode="&#x12d;" horiz-adv-x="275" 
d="M62 500h151v-500h-151v500zM138 552q-37 0 -69.5 12.5t-56.5 36t-38 56t-14 73.5v20h86v-20q0 -46 27 -69t65 -23t65 23t27 69v20h86v-20q0 -41 -14 -73.5t-38 -56t-56.5 -36t-69.5 -12.5z" />
    <glyph glyph-name="imacron" unicode="&#x12b;" horiz-adv-x="275" 
d="M62 500h151v-500h-151v500zM-36 710h348v-104h-348v104z" />
    <glyph glyph-name="iogonek" unicode="&#x12f;" horiz-adv-x="275" 
d="M137 568q-19 0 -36 7.5t-30 20t-20.5 29.5t-7.5 37q0 19 7.5 36.5t20.5 30t30 20t36 7.5q20 0 37.5 -7.5t30 -20t20 -30t7.5 -36.5q0 -20 -7.5 -37t-20 -29.5t-30 -20t-37.5 -7.5zM62 500h151v-500h-151v500zM109 -219q-54 0 -82.5 29t-28.5 75q0 32 17.5 62.5t46.5 52.5
h151q-38 -15 -61.5 -37t-23.5 -49q0 -16 11 -22t25 -6t28 4.5t21 9.5v-90q-12 -9 -41 -19t-63 -10z" />
    <glyph glyph-name="itilde" unicode="&#x129;" horiz-adv-x="275" 
d="M62 500h151v-500h-151v500zM-51 593q4 28 15.5 50t28 37t36.5 22.5t41 7.5q23 0 42.5 -7.5t35.5 -16t29.5 -16t25.5 -7.5q20 0 29 12.5t15 35.5h83l-4 -28q-4 -29 -16 -50.5t-28.5 -36.5t-36 -22.5t-40.5 -7.5q-23 0 -42.5 7.5t-35.5 16t-29.5 16t-25.5 7.5
q-20 0 -29 -12.5t-15 -35.5h-83z" />
    <glyph glyph-name="uni1ECB" unicode="&#x1ecb;" horiz-adv-x="275" 
d="M137 568q-19 0 -36 7.5t-30 20t-20.5 29.5t-7.5 37q0 19 7.5 36.5t20.5 30t30 20t36 7.5q20 0 37.5 -7.5t30 -20t20 -30t7.5 -36.5q0 -20 -7.5 -37t-20 -29.5t-30 -20t-37.5 -7.5zM62 500h151v-500h-151v500zM138 -227q-34 0 -57.5 23.5t-23.5 56.5t23.5 56.5t57.5 23.5
q33 0 56.5 -23.5t23.5 -56.5t-23.5 -56.5t-56.5 -23.5z" />
    <glyph glyph-name="uni0237" unicode="&#x237;" horiz-adv-x="283" 
d="M221 -30q0 -48 -16 -83.5t-43 -59t-62 -35t-74 -11.5q-17 0 -33 1t-28 3v128q5 -1 12.5 -1.5t12.5 -0.5q40 0 60 19.5t20 64.5v505h151v-530z" />
    <glyph glyph-name="jcircumflex" unicode="&#x135;" horiz-adv-x="283" 
d="M221 -30q0 -48 -16 -83.5t-43 -59t-62 -35t-74 -11.5q-17 0 -33 1t-28 3v128q5 -1 12.5 -1.5t12.5 -0.5q40 0 60 19.5t20 64.5v505h151v-530zM325 659v-118l-178 97l-178 -97v118l178 97z" />
    <glyph glyph-name="uni0137" unicode="&#x137;" horiz-adv-x="560" 
d="M213 223v-223h-151v750h151v-429l146 179h179l-184 -226l228 -274h-183zM275 -220q-20 8 -34.5 27.5t-14.5 46.5q0 33 23 56t57 23q33 0 56.5 -23t23.5 -56q0 -26 -16 -52l-75 -118h-64z" />
    <glyph glyph-name="lacute" unicode="&#x13a;" horiz-adv-x="275" 
d="M62 750h151v-750h-151v750zM197 1000h172l-171 -190h-110z" />
    <glyph glyph-name="lcaron" unicode="&#x13e;" horiz-adv-x="275" 
d="M62 750h151v-750h-151v750zM249 750h151l-69 -160h-102z" />
    <glyph glyph-name="uni013C" unicode="&#x13c;" horiz-adv-x="275" 
d="M62 750h151v-750h-151v750zM107 -220q-20 8 -34.5 27.5t-14.5 46.5q0 33 23 56t57 23q33 0 56.5 -23t23.5 -56q0 -26 -16 -52l-75 -118h-64z" />
    <glyph glyph-name="ldot" unicode="&#x140;" horiz-adv-x="410" 
d="M62 750h151v-750h-151v750zM343 293q-34 0 -57.5 23.5t-23.5 56.5q0 34 23.5 57.5t57.5 23.5q33 0 56.5 -23.5t23.5 -57.5q0 -33 -23.5 -56.5t-56.5 -23.5z" />
    <glyph glyph-name="glyph297" horiz-adv-x="410" 
d="M62 750h151v-750h-151v750zM343 293q-34 0 -57.5 23.5t-23.5 56.5q0 34 23.5 57.5t57.5 23.5q33 0 56.5 -23.5t23.5 -57.5q0 -33 -23.5 -56.5t-56.5 -23.5z" />
    <glyph glyph-name="lslash" unicode="&#x142;" horiz-adv-x="358" 
d="M104 750h151v-750h-151v750zM31 231v115l297 171v-116z" />
    <glyph glyph-name="eng" unicode="&#x14b;" horiz-adv-x="602" 
d="M62 500h151v-51q18 26 54 44t85 18q46 0 82 -16.5t61 -45.5t38 -70t13 -90v-315q0 -48 -16 -83.5t-43 -59t-63.5 -35t-78.5 -11.5q-21 0 -37.5 1.5t-29.5 3.5v133q7 -1 14.5 -1.5t16.5 -0.5q46 0 66 19.5t20 64.5v258q0 52 -20 81.5t-61 29.5q-43 0 -72 -31.5t-29 -99.5
v-243h-151v500z" />
    <glyph glyph-name="nacute" unicode="&#x144;" horiz-adv-x="602" 
d="M62 500h151v-51q18 26 54 44t85 18q46 0 82 -16.5t61 -45.5t38 -70t13 -90v-289h-151v263q0 52 -20 81.5t-61 29.5q-43 0 -72 -31.5t-29 -99.5v-243h-151v500zM362 750h172l-171 -190h-110z" />
    <glyph glyph-name="ncaron" unicode="&#x148;" horiz-adv-x="602" 
d="M62 500h151v-51q18 26 54 44t85 18q46 0 82 -16.5t61 -45.5t38 -70t13 -90v-289h-151v263q0 52 -20 81.5t-61 29.5q-43 0 -72 -31.5t-29 -99.5v-243h-151v500zM125 638v118l178 -97l178 97v-118l-178 -97z" />
    <glyph glyph-name="uni0146" unicode="&#x146;" horiz-adv-x="602" 
d="M62 500h151v-51q18 26 54 44t85 18q46 0 82 -16.5t61 -45.5t38 -70t13 -90v-289h-151v263q0 52 -20 81.5t-61 29.5q-43 0 -72 -31.5t-29 -99.5v-243h-151v500zM272 -220q-20 8 -34.5 27.5t-14.5 46.5q0 33 23 56t57 23q33 0 56.5 -23t23.5 -56q0 -26 -16 -52l-75 -118
h-64z" />
    <glyph glyph-name="oe" unicode="&#x153;" horiz-adv-x="969" 
d="M294 -11q-54 0 -102 20t-83.5 55.5t-56.5 83t-21 102.5t21 102.5t56.5 83t83.5 55.5t102 20t101.5 -20.5t83.5 -55.5q36 35 85 55.5t106 20.5q54 0 103.5 -18.5t86.5 -55.5t58 -92.5t19 -129.5h-385q2 -19 10.5 -36.5t24 -30.5t38 -21t53.5 -8q33 0 60 13.5t36 33.5h158
q-12 -39 -36.5 -71.5t-59 -56t-77 -36.5t-89.5 -13q-59 0 -108 19.5t-84 54.5q-36 -35 -83 -54.5t-101 -19.5zM294 130q48 0 79.5 33t31.5 87t-31.5 87t-79.5 33t-79.5 -33t-31.5 -87t31.5 -87t79.5 -33zM666 391q-45 0 -72.5 -23t-37.5 -57h214q-6 22 -17.5 37.5t-26 25
t-30 13.5t-30.5 4z" />
    <glyph glyph-name="obreve" unicode="&#x14f;" horiz-adv-x="588" 
d="M294 -11q-54 0 -102 20t-83.5 55.5t-56.5 83t-21 102.5t21 102.5t56.5 83t83.5 55.5t102 20t102 -20t83.5 -55.5t56.5 -83t21 -102.5t-21 -102.5t-56.5 -83t-83.5 -55.5t-102 -20zM294 130q48 0 79.5 33t31.5 87t-31.5 87t-79.5 33t-79.5 -33t-31.5 -87t31.5 -87
t79.5 -33zM294 552q-37 0 -69.5 12.5t-56.5 36t-38 56t-14 73.5v20h86v-20q0 -46 27 -69t65 -23t65 23t27 69v20h86v-20q0 -41 -14 -73.5t-38 -56t-56.5 -36t-69.5 -12.5z" />
    <glyph glyph-name="ohungarumlaut" unicode="&#x151;" horiz-adv-x="588" 
d="M294 -11q-54 0 -102 20t-83.5 55.5t-56.5 83t-21 102.5t21 102.5t56.5 83t83.5 55.5t102 20t102 -20t83.5 -55.5t56.5 -83t21 -102.5t-21 -102.5t-56.5 -83t-83.5 -55.5t-102 -20zM294 130q48 0 79.5 33t31.5 87t-31.5 87t-79.5 33t-79.5 -33t-31.5 -87t31.5 -87
t79.5 -33zM395 750h156l-127 -190h-95zM208 750h157l-127 -190h-95z" />
    <glyph glyph-name="omacron" unicode="&#x14d;" horiz-adv-x="588" 
d="M294 -11q-54 0 -102 20t-83.5 55.5t-56.5 83t-21 102.5t21 102.5t56.5 83t83.5 55.5t102 20t102 -20t83.5 -55.5t56.5 -83t21 -102.5t-21 -102.5t-56.5 -83t-83.5 -55.5t-102 -20zM294 130q48 0 79.5 33t31.5 87t-31.5 87t-79.5 33t-79.5 -33t-31.5 -87t31.5 -87
t79.5 -33zM120 710h348v-104h-348v104z" />
    <glyph glyph-name="uni1ECD" unicode="&#x1ecd;" horiz-adv-x="588" 
d="M294 -11q-54 0 -102 20t-83.5 55.5t-56.5 83t-21 102.5t21 102.5t56.5 83t83.5 55.5t102 20t102 -20t83.5 -55.5t56.5 -83t21 -102.5t-21 -102.5t-56.5 -83t-83.5 -55.5t-102 -20zM294 130q48 0 79.5 33t31.5 87t-31.5 87t-79.5 33t-79.5 -33t-31.5 -87t31.5 -87
t79.5 -33zM294 -227q-34 0 -57.5 23.5t-23.5 56.5t23.5 56.5t57.5 23.5q33 0 56.5 -23.5t23.5 -56.5t-23.5 -56.5t-56.5 -23.5z" />
    <glyph glyph-name="racute" unicode="&#x155;" horiz-adv-x="403" 
d="M62 500h151v-75q12 33 44.5 57t74.5 24q11 0 23 -1t26 -5v-153q-17 6 -33 9t-34 3q-49 0 -75 -34t-26 -88v-237h-151v500zM280 750h172l-171 -190h-110z" />
    <glyph glyph-name="rcaron" unicode="&#x159;" horiz-adv-x="403" 
d="M62 500h151v-75q12 33 44.5 57t74.5 24q11 0 23 -1t26 -5v-153q-17 6 -33 9t-34 3q-49 0 -75 -34t-26 -88v-237h-151v500zM43 638v118l178 -97l178 97v-118l-178 -97z" />
    <glyph glyph-name="uni0157" unicode="&#x157;" horiz-adv-x="403" 
d="M62 500h151v-75q12 33 44.5 57t74.5 24q11 0 23 -1t26 -5v-153q-17 6 -33 9t-34 3q-49 0 -75 -34t-26 -88v-237h-151v500zM106 -220q-20 8 -34.5 27.5t-14.5 46.5q0 33 23 56t57 23q33 0 56.5 -23t23.5 -56q0 -26 -16 -52l-75 -118h-64z" />
    <glyph glyph-name="sacute" unicode="&#x15b;" horiz-adv-x="510" 
d="M264 -11q-51 0 -93 13.5t-72.5 37t-48 55t-19.5 68.5h159q2 -30 24.5 -45t54.5 -15q29 0 42.5 9t13.5 23q0 17 -14 25.5t-43 16.5l-101 26q-66 17 -96 59t-30 98q0 33 14 60.5t41 47.5t65.5 31.5t88.5 11.5q41 0 77.5 -10.5t64.5 -31t45 -50.5t20 -70h-152
q-5 28 -21.5 37t-36.5 9q-23 0 -37 -8.5t-14 -23.5q0 -10 4.5 -16.5t12 -10.5t16.5 -7t18 -5l91 -24q76 -20 108.5 -58.5t32.5 -98.5q0 -35 -16 -63.5t-44.5 -48.5t-68 -31t-86.5 -11zM314 750h172l-171 -190h-110z" />
    <glyph glyph-name="scaron" unicode="&#x161;" horiz-adv-x="510" 
d="M264 -11q-51 0 -93 13.5t-72.5 37t-48 55t-19.5 68.5h159q2 -30 24.5 -45t54.5 -15q29 0 42.5 9t13.5 23q0 17 -14 25.5t-43 16.5l-101 26q-66 17 -96 59t-30 98q0 33 14 60.5t41 47.5t65.5 31.5t88.5 11.5q41 0 77.5 -10.5t64.5 -31t45 -50.5t20 -70h-152
q-5 28 -21.5 37t-36.5 9q-23 0 -37 -8.5t-14 -23.5q0 -10 4.5 -16.5t12 -10.5t16.5 -7t18 -5l91 -24q76 -20 108.5 -58.5t32.5 -98.5q0 -35 -16 -63.5t-44.5 -48.5t-68 -31t-86.5 -11zM77 638v118l178 -97l178 97v-118l-178 -97z" />
    <glyph glyph-name="scedilla" unicode="&#x15f;" horiz-adv-x="510" 
d="M264 -11q-51 0 -93 13.5t-72.5 37t-48 55t-19.5 68.5h159q2 -30 24.5 -45t54.5 -15q29 0 42.5 9t13.5 23q0 17 -14 25.5t-43 16.5l-101 26q-66 17 -96 59t-30 98q0 33 14 60.5t41 47.5t65.5 31.5t88.5 11.5q41 0 77.5 -10.5t64.5 -31t45 -50.5t20 -70h-152
q-5 28 -21.5 37t-36.5 9q-23 0 -37 -8.5t-14 -23.5q0 -10 4.5 -16.5t12 -10.5t16.5 -7t18 -5l91 -24q76 -20 108.5 -58.5t32.5 -98.5q0 -35 -16 -63.5t-44.5 -48.5t-68 -31t-86.5 -11zM129 -139q16 -9 37 -13t39 -4q10 0 20.5 1t19.5 4.5t14.5 9.5t5.5 16q0 14 -12 20.5
t-31 6.5q-8 0 -19 -2.5t-21 -7.5l-36 19l56 92h64l-30 -50q13 3 23.5 5t25.5 2q36 0 61 -20.5t25 -58.5q0 -23 -12 -41.5t-31.5 -31.5t-44 -20t-50.5 -7q-22 0 -50 2.5t-54 12.5v65z" />
    <glyph glyph-name="scircumflex" unicode="&#x15d;" horiz-adv-x="510" 
d="M264 -11q-51 0 -93 13.5t-72.5 37t-48 55t-19.5 68.5h159q2 -30 24.5 -45t54.5 -15q29 0 42.5 9t13.5 23q0 17 -14 25.5t-43 16.5l-101 26q-66 17 -96 59t-30 98q0 33 14 60.5t41 47.5t65.5 31.5t88.5 11.5q41 0 77.5 -10.5t64.5 -31t45 -50.5t20 -70h-152
q-5 28 -21.5 37t-36.5 9q-23 0 -37 -8.5t-14 -23.5q0 -10 4.5 -16.5t12 -10.5t16.5 -7t18 -5l91 -24q76 -20 108.5 -58.5t32.5 -98.5q0 -35 -16 -63.5t-44.5 -48.5t-68 -31t-86.5 -11zM433 659v-118l-178 97l-178 -97v118l178 97z" />
    <glyph glyph-name="uni0219" unicode="&#x219;" horiz-adv-x="510" 
d="M264 -11q-51 0 -93 13.5t-72.5 37t-48 55t-19.5 68.5h159q2 -30 24.5 -45t54.5 -15q29 0 42.5 9t13.5 23q0 17 -14 25.5t-43 16.5l-101 26q-66 17 -96 59t-30 98q0 33 14 60.5t41 47.5t65.5 31.5t88.5 11.5q41 0 77.5 -10.5t64.5 -31t45 -50.5t20 -70h-152
q-5 28 -21.5 37t-36.5 9q-23 0 -37 -8.5t-14 -23.5q0 -10 4.5 -16.5t12 -10.5t16.5 -7t18 -5l91 -24q76 -20 108.5 -58.5t32.5 -98.5q0 -35 -16 -63.5t-44.5 -48.5t-68 -31t-86.5 -11zM214 -220q-20 8 -34.5 27.5t-14.5 46.5q0 33 23 56t57 23q33 0 56.5 -23t23.5 -56
q0 -26 -16 -52l-75 -118h-64z" />
    <glyph glyph-name="tbar" unicode="&#x167;" horiz-adv-x="450" 
d="M324 -6q-42 0 -78.5 11.5t-63.5 35t-43 59t-16 83.5v186h-100v131h100v139h151v-139h140v-131h-140v-155q0 -45 20 -65t65 -20q17 0 30 2t25 7v-134q-17 -5 -38.5 -7.5t-51.5 -2.5zM23 303h391v-96h-391v96z" />
    <glyph glyph-name="tcaron" unicode="&#x165;" horiz-adv-x="440" 
d="M317 -6q-42 0 -78.5 11.5t-63.5 35t-43 59t-16 83.5v186h-100v131h100v139h151v-139h140v-131h-140v-155q0 -45 20 -65t65 -20q17 0 30 2t25 7v-134q-17 -5 -38.5 -7.5t-51.5 -2.5zM303 710h151l-69 -160h-102z" />
    <glyph glyph-name="uni0163" unicode="&#x163;" horiz-adv-x="440" 
d="M317 -6q-42 0 -78.5 11.5t-63.5 35t-43 59t-16 83.5v186h-100v131h100v139h151v-139h140v-131h-140v-155q0 -45 20 -65t65 -20q17 0 30 2t25 7v-134q-17 -5 -38.5 -7.5t-51.5 -2.5zM244 -220q-20 8 -34.5 27.5t-14.5 46.5q0 33 23 56t57 23q33 0 56.5 -23t23.5 -56
q0 -26 -16 -52l-75 -118h-64z" />
    <glyph glyph-name="uni021B" unicode="&#x21b;" horiz-adv-x="440" 
d="M317 -6q-42 0 -78.5 11.5t-63.5 35t-43 59t-16 83.5v186h-100v131h100v139h151v-139h140v-131h-140v-155q0 -45 20 -65t65 -20q17 0 30 2t25 7v-134q-17 -5 -38.5 -7.5t-51.5 -2.5zM244 -220q-20 8 -34.5 27.5t-14.5 46.5q0 33 23 56t57 23q33 0 56.5 -23t23.5 -56
q0 -26 -16 -52l-75 -118h-64z" />
    <glyph glyph-name="ubreve" unicode="&#x16d;" horiz-adv-x="591" 
d="M245 -11q-93 0 -141 62t-48 164v285h151v-259q0 -55 17.5 -85t59.5 -30q43 0 68.5 31t25.5 100v243h151v-500h-151v51q-18 -26 -51 -44t-82 -18zM293 552q-37 0 -69.5 12.5t-56.5 36t-38 56t-14 73.5v20h86v-20q0 -46 27 -69t65 -23t65 23t27 69v20h86v-20
q0 -41 -14 -73.5t-38 -56t-56.5 -36t-69.5 -12.5z" />
    <glyph glyph-name="uhungarumlaut" unicode="&#x171;" horiz-adv-x="591" 
d="M245 -11q-93 0 -141 62t-48 164v285h151v-259q0 -55 17.5 -85t59.5 -30q43 0 68.5 31t25.5 100v243h151v-500h-151v51q-18 -26 -51 -44t-82 -18zM394 750h156l-127 -190h-95zM207 750h157l-127 -190h-95z" />
    <glyph glyph-name="umacron" unicode="&#x16b;" horiz-adv-x="591" 
d="M245 -11q-93 0 -141 62t-48 164v285h151v-259q0 -55 17.5 -85t59.5 -30q43 0 68.5 31t25.5 100v243h151v-500h-151v51q-18 -26 -51 -44t-82 -18zM119 710h348v-104h-348v104z" />
    <glyph glyph-name="uogonek" unicode="&#x173;" horiz-adv-x="591" 
d="M245 -11q-93 0 -141 62t-48 164v285h151v-259q0 -55 17.5 -85t59.5 -30q43 0 68.5 31t25.5 100v243h151v-500h-151v51q-18 -26 -51 -44t-82 -18zM425 -219q-54 0 -82.5 29t-28.5 75q0 32 17.5 62.5t46.5 52.5h151q-38 -15 -61.5 -37t-23.5 -49q0 -16 11 -22t25 -6t28 4.5
t21 9.5v-90q-12 -9 -41 -19t-63 -10z" />
    <glyph glyph-name="uring" unicode="&#x16f;" horiz-adv-x="591" 
d="M245 -11q-93 0 -141 62t-48 164v285h151v-259q0 -55 17.5 -85t59.5 -30q43 0 68.5 31t25.5 100v243h151v-500h-151v51q-18 -26 -51 -44t-82 -18zM294 543q-25 0 -47 9.5t-38.5 26t-26.5 38t-10 46.5t10 46.5t26.5 38t38.5 26t47 9.5t47 -9.5t38.5 -26t26.5 -38t10 -46.5
t-10 -46.5t-26.5 -38t-38.5 -26t-47 -9.5zM294 608q23 0 39.5 16t16.5 39t-16.5 39t-39.5 16t-39.5 -16t-16.5 -39t16.5 -39t39.5 -16z" />
    <glyph glyph-name="utilde" unicode="&#x169;" horiz-adv-x="591" 
d="M245 -11q-93 0 -141 62t-48 164v285h151v-259q0 -55 17.5 -85t59.5 -30q43 0 68.5 31t25.5 100v243h151v-500h-151v51q-18 -26 -51 -44t-82 -18zM104 593q4 28 15.5 50t28 37t36.5 22.5t41 7.5q23 0 42.5 -7.5t35.5 -16t29.5 -16t25.5 -7.5q20 0 29 12.5t15 35.5h83
l-4 -28q-4 -29 -16 -50.5t-28.5 -36.5t-36 -22.5t-40.5 -7.5q-23 0 -42.5 7.5t-35.5 16t-29.5 16t-25.5 7.5q-20 0 -29 -12.5t-15 -35.5h-83z" />
    <glyph glyph-name="uni1EE5" unicode="&#x1ee5;" horiz-adv-x="591" 
d="M245 -11q-93 0 -141 62t-48 164v285h151v-259q0 -55 17.5 -85t59.5 -30q43 0 68.5 31t25.5 100v243h151v-500h-151v51q-18 -26 -51 -44t-82 -18zM300 -227q-34 0 -57.5 23.5t-23.5 56.5t23.5 56.5t57.5 23.5q33 0 56.5 -23.5t23.5 -56.5t-23.5 -56.5t-56.5 -23.5z" />
    <glyph glyph-name="wacute" unicode="&#x1e83;" horiz-adv-x="810" 
d="M405 264l-85 -264h-152l-165 500h162l87 -307l95 307h116l95 -307l87 307h162l-164 -500h-152zM466 750h172l-171 -190h-110z" />
    <glyph glyph-name="wcircumflex" unicode="&#x175;" horiz-adv-x="810" 
d="M405 264l-85 -264h-152l-165 500h162l87 -307l95 307h116l95 -307l87 307h162l-164 -500h-152zM585 659v-118l-178 97l-178 -97v118l178 97z" />
    <glyph glyph-name="wdieresis" unicode="&#x1e85;" horiz-adv-x="810" 
d="M405 264l-85 -264h-152l-165 500h162l87 -307l95 307h116l95 -307l87 307h162l-164 -500h-152zM289 572q-17 0 -31.5 6.5t-25.5 17t-17.5 25t-6.5 30.5q0 34 23.5 57.5t57.5 23.5q16 0 30.5 -6.5t25 -17.5t17 -25.5t6.5 -31.5q0 -32 -23.5 -55.5t-55.5 -23.5zM526 572
q-33 0 -56.5 23.5t-23.5 55.5q0 34 23.5 57.5t56.5 23.5t56.5 -23.5t23.5 -57.5q0 -32 -23.5 -55.5t-56.5 -23.5z" />
    <glyph glyph-name="wgrave" unicode="&#x1e81;" horiz-adv-x="810" 
d="M405 264l-85 -264h-152l-165 500h162l87 -307l95 307h116l95 -307l87 307h162l-164 -500h-152zM181 750h172l110 -190h-111z" />
    <glyph glyph-name="ycircumflex" unicode="&#x177;" horiz-adv-x="576" 
d="M104 -209l104 238l-208 471h165l124 -309l123 309h166l-311 -709h-163zM469 659v-118l-178 97l-178 -97v118l178 97z" />
    <glyph glyph-name="ygrave" unicode="&#x1ef3;" horiz-adv-x="576" 
d="M104 -209l104 238l-208 471h165l124 -309l123 309h166l-311 -709h-163zM65 750h172l110 -190h-111z" />
    <glyph glyph-name="uni0233" unicode="&#x233;" horiz-adv-x="576" 
d="M104 -209l104 238l-208 471h165l124 -309l123 309h166l-311 -709h-163zM117 710h348v-104h-348v104z" />
    <glyph glyph-name="zacute" unicode="&#x17a;" horiz-adv-x="502" 
d="M41 118l219 246h-216v136h412v-119l-219 -245h227v-136h-423v118zM309 750h172l-171 -190h-110z" />
    <glyph glyph-name="zcaron" unicode="&#x17e;" horiz-adv-x="502" 
d="M41 118l219 246h-216v136h412v-119l-219 -245h227v-136h-423v118zM72 638v118l178 -97l178 97v-118l-178 -97z" />
    <glyph glyph-name="zdotaccent" unicode="&#x17c;" horiz-adv-x="502" 
d="M41 118l219 246h-216v136h412v-119l-219 -245h227v-136h-423v118zM250 572q-17 0 -31.5 6.5t-25.5 17t-17.5 25t-6.5 30.5q0 34 23.5 57.5t57.5 23.5q33 0 56.5 -23.5t23.5 -57.5q0 -32 -23.5 -55.5t-56.5 -23.5z" />
    <glyph glyph-name="uni0259" unicode="&#x259;" horiz-adv-x="597" 
d="M303 511q57 0 104.5 -19.5t82.5 -54.5t54.5 -83t19.5 -105q0 -58 -19 -106t-53.5 -82t-83.5 -53t-109 -19q-54 0 -103.5 18.5t-86.5 55.5t-58 92.5t-19 129.5h385q-2 19 -10.5 36.5t-22.5 30.5t-35 21t-48 8q-41 0 -67.5 -15t-38.5 -32h-158q12 39 37 71.5t59.5 56
t77.5 36.5t92 13zM303 109q45 0 72.5 22.5t36.5 57.5h-214q6 -23 18 -38t26 -24.5t30 -13.5t31 -4z" />
    <glyph glyph-name="ellipsis" unicode="&#x2026;" horiz-adv-x="822" 
d="M411 -8q-22 0 -41.5 8.5t-34 23t-23 34t-8.5 41.5t8.5 41.5t23 34t34 23t41.5 8.5t41.5 -8.5t34 -23t23 -34t8.5 -41.5t-8.5 -41.5t-23 -34t-34 -23t-41.5 -8.5zM685 -8q-22 0 -41.5 8.5t-34 23t-23 34t-8.5 41.5t8.5 41.5t23 34t34 23t41.5 8.5t41.5 -8.5t34 -23t23 -34
t8.5 -41.5t-8.5 -41.5t-23 -34t-34 -23t-41.5 -8.5zM138 -8q-22 0 -41.5 8.5t-34 23t-23 34t-8.5 41.5t8.5 41.5t23 34t34 23t41.5 8.5t41.5 -8.5t34 -23t23 -34t8.5 -41.5t-8.5 -41.5t-23 -34t-34 -23t-41.5 -8.5z" />
    <glyph glyph-name="endash" unicode="&#x2013;" horiz-adv-x="593" 
d="M55 352h483v-144h-483v144z" />
    <glyph glyph-name="emdash" unicode="&#x2014;" horiz-adv-x="949" 
d="M55 352h839v-144h-839v144z" />
    <glyph glyph-name="guilsinglleft" unicode="&#x2039;" horiz-adv-x="327" 
d="M166 467h131l-116 -217l116 -217h-131l-141 217z" />
    <glyph glyph-name="guilsinglright" unicode="&#x203a;" horiz-adv-x="327" 
d="M302 250l-141 -217h-131l116 217l-116 217h131z" />
    <glyph glyph-name="quoteleft" unicode="&#x2018;" horiz-adv-x="282" 
d="M164 710h86l-74 -155q25 -10 45 -36t20 -62q0 -22 -8.5 -41.5t-23 -34t-34 -23t-41.5 -8.5t-41.5 8.5t-34 23t-23 34t-8.5 41.5q0 36 21 69z" />
    <glyph glyph-name="quoteright" unicode="&#x2019;" horiz-adv-x="287" 
d="M129 362h-87l75 154q-25 10 -45 36.5t-20 62.5q0 22 8.5 41.5t23 34t34 23t41.5 8.5t41.5 -8.5t34 -23t23 -34t8.5 -41.5q0 -34 -22 -69z" />
    <glyph glyph-name="uni02BB" unicode="&#x2bb;" horiz-adv-x="282" 
d="M164 710h86l-74 -155q25 -10 45 -36t20 -62q0 -22 -8.5 -41.5t-23 -34t-34 -23t-41.5 -8.5t-41.5 8.5t-34 23t-23 34t-8.5 41.5q0 36 21 69z" />
    <glyph glyph-name="uni02BC" unicode="&#x2bc;" horiz-adv-x="287" 
d="M129 362h-87l75 154q-25 10 -45 36.5t-20 62.5q0 22 8.5 41.5t23 34t34 23t41.5 8.5t41.5 -8.5t34 -23t23 -34t8.5 -41.5q0 -34 -22 -69z" />
    <glyph glyph-name="quotedblleft" unicode="&#x201c;" horiz-adv-x="524" 
d="M164 710h86l-74 -155q25 -10 45 -36t20 -62q0 -22 -8.5 -41.5t-23 -34t-34 -23t-41.5 -8.5t-41.5 8.5t-34 23t-23 34t-8.5 41.5q0 36 21 69zM406 710h86l-74 -155q25 -10 45 -36t20 -62q0 -22 -8.5 -41.5t-23 -34t-34 -23t-41.5 -8.5t-41.5 8.5t-34 23t-23 34t-8.5 41.5
q0 36 21 69z" />
    <glyph glyph-name="quotedblright" unicode="&#x201d;" horiz-adv-x="529" 
d="M129 362h-87l75 154q-25 10 -45 36.5t-20 62.5q0 22 8.5 41.5t23 34t34 23t41.5 8.5t41.5 -8.5t34 -23t23 -34t8.5 -41.5q0 -34 -22 -69zM371 362h-87l75 154q-25 10 -45 36.5t-20 62.5q0 22 8.5 41.5t23 34t34 23t41.5 8.5t41.5 -8.5t34 -23t23 -34t8.5 -41.5
q0 -34 -22 -69z" />
    <glyph glyph-name="quotesinglbase" unicode="&#x201a;" horiz-adv-x="289" 
d="M114 -155h-87l75 155q-25 10 -45 36.5t-20 62.5q0 22 8.5 41.5t23 34t34 23t41.5 8.5t41.5 -8.5t34 -23t23 -34t8.5 -41.5q0 -18 -6 -35t-16 -34z" />
    <glyph glyph-name="quotedblbase" unicode="&#x201e;" horiz-adv-x="531" 
d="M114 -155h-87l75 155q-25 10 -45 36.5t-20 62.5q0 22 8.5 41.5t23 34t34 23t41.5 8.5t41.5 -8.5t34 -23t23 -34t8.5 -41.5q0 -18 -6 -35t-16 -34zM356 -155h-87l75 155q-25 10 -45 36.5t-20 62.5q0 22 8.5 41.5t23 34t34 23t41.5 8.5t41.5 -8.5t34 -23t23 -34t8.5 -41.5
q0 -18 -6 -35t-16 -34z" />
    <glyph glyph-name="bullet" unicode="&#x2022;" horiz-adv-x="395" 
d="M197 166q-28 0 -52.5 10.5t-43 29t-29.5 43.5t-11 53t11 53t29.5 43.5t43 29t52.5 10.5t53 -10.5t43.5 -29t29.5 -43.5t11 -53t-11 -53t-29.5 -43.5t-43.5 -29t-53 -10.5z" />
    <glyph glyph-name="dagger" unicode="&#x2020;" horiz-adv-x="520" 
d="M197 382h-171v118h171v210h126v-210h171v-118h-171v-480h-126v480z" />
    <glyph glyph-name="daggerdbl" unicode="&#x2021;" horiz-adv-x="544" 
d="M335 112v-210h-126v210h-171v118h171v152h-171v118h171v210h126v-210h171v-118h-171v-152h171v-118h-171z" />
    <glyph glyph-name="perthousand" unicode="&#x2030;" horiz-adv-x="1395" 
d="M1171 -8q-41 0 -77 15.5t-62.5 42.5t-42 62.5t-15.5 76.5t15.5 77t42 62.5t62.5 42t77 15.5q40 0 76 -15.5t63 -42t42.5 -62.5t15.5 -77t-15.5 -76.5t-42.5 -62.5t-63 -42.5t-76 -15.5zM1171 118q29 0 49 21t20 50t-20 50t-49 21t-49.5 -21t-20.5 -50t20.5 -50t49.5 -21z
M186 0l450 710h155l-450 -710h-155zM753 -8q-41 0 -77 15.5t-62.5 42.5t-42 62.5t-15.5 76.5t15.5 77t42 62.5t62.5 42t77 15.5q40 0 76 -15.5t63 -42t42.5 -62.5t15.5 -77t-15.5 -76.5t-42.5 -62.5t-63 -42.5t-76 -15.5zM753 118q29 0 49 21t20 50t-20 50t-49 21t-49.5 -21
t-20.5 -50t20.5 -50t49.5 -21zM224 324q-41 0 -77 15.5t-62.5 42.5t-42 62.5t-15.5 76.5t15.5 77t42 62.5t62.5 42t77 15.5q40 0 76 -15.5t63 -42t42.5 -62.5t15.5 -77t-15.5 -76.5t-42.5 -62.5t-63 -42.5t-76 -15.5zM224 450q29 0 49 21t20 50t-20 50t-49 21q-30 0 -50 -21
t-20 -50t20 -50t50 -21z" />
    <glyph glyph-name="uni2117" unicode="&#x2117;" horiz-adv-x="803" 
d="M401 -12q-75 0 -142 29t-116.5 79t-78.5 116.5t-29 142.5t29 142.5t78.5 116.5t116.5 79t142 29q76 0 142.5 -29t116.5 -79t79 -116.5t29 -142.5t-29 -142.5t-79 -116.5t-116.5 -79t-142.5 -29zM401 76q58 0 108.5 22t88.5 60t60 88.5t22 108.5t-22 108.5t-60 88.5
t-88.5 60t-108.5 22q-57 0 -108 -22t-88.5 -60t-59.5 -88.5t-22 -108.5t22 -108.5t59.5 -88.5t88.5 -60t108 -22zM558 412q0 -27 -10 -50.5t-27.5 -40.5t-41.5 -27t-52 -10h-40v-115h-88v371h128q28 0 52 -10t41.5 -27t27.5 -40.5t10 -50.5zM474 412q0 20 -14 33t-34 13h-39
v-92h39q20 0 34 13.5t14 32.5z" />
    <glyph glyph-name="trademark" unicode="&#x2122;" horiz-adv-x="804" 
d="M387 710h107l69 -113l69 113h107v-356h-109v166l-67 -106l-67 106v-166h-109v356zM124 597h-93v113h301v-113h-93v-243h-115v243z" />
    <glyph glyph-name="uni2116" unicode="&#x2116;" horiz-adv-x="1098" 
d="M580 0l-346 439v-439h-159v710h137l345 -439v439h160v-710h-137zM908 405q-32 0 -60 12.5t-49 33.5t-33 49t-12 60t12 60t33 49t49 33.5t60 12.5t60 -12.5t49 -33.5t33.5 -49t12.5 -60t-12.5 -60t-33.5 -49t-49 -33.5t-60 -12.5zM759 359h299v-96h-299v96zM909 501
q24 0 41 17.5t17 41.5t-17 41.5t-41 17.5t-41 -17.5t-17 -41.5t17 -41.5t41 -17.5z" />
    <glyph glyph-name="glyph358" horiz-adv-x="535" 
d="M363 723l-131 -252l233 10l-415 -492l242 402l-205 -12l147 296zM455 465q5 0 5 -5q0 4 4 5q-4 0 -4 5t5 5t5 -5t-4 -5q3 -1 4 -4q0 4 5 4t5 -5t-4 -5q4 -2 4 -5q0 -5 -4 -5q3 -1 4 -4q0 4 5 4t5 -5t-4 -5q4 -2 4 -5q0 -5 -5 -5t-5 4q-2 -4 -4 -4q4 -2 4 -5q0 -5 -5 -5
t-5 4q-2 -4 -4 -4q4 -2 4 -5q0 -5 -5 -5t-5 4q-2 -4 -4 -4q4 -2 4 -5q0 -5 -5 -5t-5 4q-2 -4 -4 -4q4 -2 4 -5q0 -5 -5 -5t-5 4q-2 -4 -4 -4q4 -2 4 -5q0 -5 -5 -5t-5 4q-2 -4 -4 -4q4 -2 4 -5q0 -5 -5 -5t-5 4q-2 -4 -4 -4q4 -2 4 -5q0 -5 -4 -5q4 -2 4 -5q0 -5 -5 -5t-5 4
q-2 -4 -4 -4q4 -2 4 -5q0 -5 -5 -5t-5 4q-2 -4 -4 -4q4 -2 4 -5q0 -5 -5 -5t-5 4q-2 -4 -4 -4q4 -2 4 -5q0 -5 -5 -5t-5 4q-2 -4 -4 -4q4 -2 4 -5q0 -5 -5 -5t-5 4q-2 -4 -4 -4q4 -2 4 -5q0 -5 -5 -5t-5 4q-2 -4 -4 -4q4 -2 4 -5q0 -5 -5 -5t-5 4q-2 -4 -4 -4q4 -2 4 -5
q0 -5 -5 -5t-5 4q-2 -4 -4 -4q4 -2 4 -5q0 -5 -5 -5t-5 4q-2 -4 -4 -4q4 -2 4 -5q0 -5 -5 -5t-5 4q-2 -4 -4 -4q4 -2 4 -5q0 -5 -5 -5t-5 4q-2 -4 -4 -4q4 -2 4 -5q0 -5 -5 -5t-5 4q-2 -4 -4 -4q4 -2 4 -5q0 -5 -5 -5t-5 4q-2 -4 -4 -4q4 -2 4 -5q0 -5 -4 -5q4 -2 4 -5
q0 -5 -5 -5t-5 4q-2 -4 -4 -4q4 -2 4 -5q0 -5 -5 -5t-5 4q-2 -4 -4 -4q4 -2 4 -5q0 -5 -5 -5t-5 4q-2 -4 -4 -4q4 -2 4 -5q0 -5 -5 -5t-5 4q-2 -4 -4 -4q4 -2 4 -5q0 -5 -5 -5t-5 4q-2 -4 -4 -4q4 -2 4 -5q0 -5 -5 -5t-5 4q-2 -4 -4 -4q4 -2 4 -5q0 -5 -5 -5t-5 4
q-2 -4 -4 -4q4 -2 4 -5q0 -5 -5 -5t-5 4q-2 -4 -4 -4q4 -2 4 -5q0 -5 -5 -5t-5 4q-2 -4 -4 -4q4 -2 4 -5q0 -5 -5 -5t-5 4q-2 -4 -4 -4q4 -2 4 -5q0 -5 -5 -5t-5 4q-2 -4 -4 -4q4 -2 4 -5q0 -5 -4 -5q4 -2 4 -5q0 -5 -5 -5t-5 4q-2 -4 -4 -4q4 -2 4 -5q0 -5 -5 -5t-5 4
q-2 -4 -4 -4q4 -2 4 -5q0 -5 -5 -5t-5 4q-2 -4 -4 -4q4 -2 4 -5q0 -5 -5 -5t-5 4q-2 -4 -4 -4q4 -2 4 -5q0 -5 -5 -5t-5 4q-2 -4 -4 -4q4 -2 4 -5q0 -5 -5 -5t-5 4q-2 -4 -4 -4q4 -2 4 -5q0 -5 -5 -5t-5 4q-2 -4 -4 -4q4 -2 4 -5q0 -5 -5 -5t-5 4q-2 -4 -4 -4q4 -2 4 -5
q0 -5 -5 -5t-5 4q-2 -4 -4 -4q4 -2 4 -5q0 -5 -5 -5t-5 4q-1 -3 -4 -4q4 0 4 -5t-5 -5t-5 4q-1 -3 -4 -4q4 0 4 -5t-5 -5t-5 5t4 5q-4 1 -4 5q0 5 5 5t5 -5q0 5 4 5q-4 1 -4 5t4 5q-4 0 -4 5t5 5t5 -5q0 4 4 5q-4 0 -4 5t5 5q3 0 5 -4q0 2 4 4q-4 0 -4 5t5 5q3 0 5 -4
q0 2 4 4q-4 0 -4 5t5 5q3 0 5 -4q0 2 4 4q-4 0 -4 5t5 5t5 -5q0 4 4 5q-4 0 -4 5t5 5t5 -5q0 4 4 5q-4 0 -4 5q0 4 4 5q-4 0 -4 5t5 5t5 -5q0 4 4 5q-4 0 -4 5t5 5q3 0 5 -4q0 2 4 4q-4 0 -4 5t5 5q3 0 5 -4q0 2 4 4q-4 0 -4 5t5 5t5 -5q0 4 4 5q-4 0 -4 5t5 5t5 -5q0 4 4 5
q-4 0 -4 5q0 4 4 5q-4 0 -4 5t5 5q3 0 5 -4q0 2 4 4q-4 0 -4 5t5 5t5 -5q0 4 4 5q-4 0 -4 5t5 5t5 -5q0 4 4 5q-4 0 -4 5t5 5t5 -5q0 4 4 5q-4 0 -4 5t5 5t5 -5q0 4 4 5q-4 0 -4 5q0 4 4 5q-4 0 -4 5t5 5t5 -5q0 4 4 5q-4 0 -4 5t5 5q3 0 5 -4q0 2 4 4q-4 0 -4 5t5 5t5 -5
q0 4 4 5q-4 0 -4 5t5 5t5 -5q0 4 4 5q-4 0 -4 5t5 5t5 -5q0 4 4 5q-4 0 -4 5t5 5t5 -5q0 4 4 5q-4 0 -4 5q0 4 4 5q-4 0 -4 5t5 5t5 -5q0 4 4 5q-4 0 -4 5t5 5q3 0 5 -4q0 2 4 4q-4 0 -4 5t5 5t5 -5q0 4 4 5q-4 0 -4 5t5 5q3 0 5 -4q0 2 4 4q-4 0 -4 5t5 5q3 0 5 -4q0 2 4 4
q-4 0 -4 5q0 4 4 5q-4 0 -4 5t5 5t5 -5q0 4 4 5q-4 0 -4 5t5 5t5 -5q0 4 4 5q-4 0 -4 5t5 5t5 -5q0 4 4 5q-4 0 -4 5t5 5t5 -5q0 4 4 5q-4 0 -4 5t5 5t5 -5q0 4 4 5q-4 0 -4 5q0 4 4 5q-4 0 -4 5t5 5t5 -5q0 4 4 5q-4 0 -4 5t5 5q3 0 5 -4q0 2 4 4q-4 0 -4 5t5 5q3 0 5 -4
q0 2 4 4q-4 0 -4 5t5 5q3 0 5 -4q0 2 4 4q-4 0 -4 5t5 5t5 -5q0 4 4 5q-4 0 -4 5t5 5q3 0 5 -4q0 2 4 4q-4 0 -4 5q0 4 4 5q-4 0 -4 5t5 5zM355 695q3 0 5 -4q0 2 4 4q-4 0 -4 5q0 4 4 5q-4 0 -4 5t5 5t5 -5t-4 -5q3 -1 4 -4q0 4 5 4t5 -5t-4 -5q3 -1 4 -4q0 4 5 4t5 -5
t-4 -5q4 -2 4 -5q0 -5 -5 -5t-5 4q-2 -4 -4 -4q4 -2 4 -5q0 -5 -4 -5q4 -2 4 -5q0 -5 -5 -5t-5 4q-2 -4 -4 -4q4 -2 4 -5q0 -5 -5 -5t-5 4q-2 -4 -4 -4q4 -2 4 -5q0 -5 -4 -5q4 -2 4 -5q0 -5 -5 -5t-5 4q-2 -4 -4 -4q4 -2 4 -5q0 -5 -4 -5q4 -2 4 -5q0 -5 -5 -5t-5 4
q-2 -4 -4 -4q4 -2 4 -5q0 -5 -4 -5q4 -2 4 -5q0 -5 -5 -5t-5 4q-2 -4 -4 -4q4 -2 4 -5q0 -5 -5 -5t-5 4q-2 -4 -4 -4q4 -2 4 -5q0 -5 -4 -5q4 -2 4 -5q0 -5 -5 -5t-5 4q-2 -4 -4 -4q4 -2 4 -5q0 -5 -4 -5q4 -2 4 -5q0 -5 -5 -5t-5 4q-2 -4 -4 -4q4 -2 4 -5q0 -5 -4 -5
q4 -2 4 -5q0 -5 -5 -5t-5 4q-2 -4 -4 -4q4 -2 4 -5q0 -5 -4 -5q4 -2 4 -5q0 -5 -5 -5t-5 4q-2 -4 -4 -4q4 -2 4 -5q0 -5 -4 -5q4 -2 4 -5q0 -5 -5 -5t-5 4q-1 -4 -5 -4q-5 0 -5 4q-1 -4 -5 -4q-5 0 -5 4q-1 -4 -5 -4q-5 0 -5 5t5 5q3 0 5 -4q0 2 4 4q-4 0 -4 5q0 4 4 5
q-4 0 -4 5t5 5q3 0 5 -4q0 2 4 4q-4 0 -4 5q0 4 4 5q-4 0 -4 5t5 5t5 -5q0 4 4 5q-4 0 -4 5q0 4 4 5q-4 0 -4 5t5 5q3 0 5 -4q0 2 4 4q-4 0 -4 5q0 4 4 5q-4 0 -4 5t5 5t5 -5q0 4 4 5q-4 0 -4 5q0 4 4 5q-4 0 -4 5t5 5q3 0 5 -4q0 2 4 4q-4 0 -4 5q0 4 4 5q-4 0 -4 5t5 5
t5 -5q0 4 4 5q-4 0 -4 5t5 5q3 0 5 -4q0 2 4 4q-4 0 -4 5q0 4 4 5q-4 0 -4 5t5 5q3 0 5 -4q0 2 4 4q-4 0 -4 5q0 4 4 5q-4 0 -4 5t5 5q3 0 5 -4q0 2 4 4q-4 0 -4 5q0 4 4 5q-4 0 -4 5t5 5t5 -5q0 4 4 5q-4 0 -4 5q0 4 4 5q-4 0 -4 5t5 5zM275 385q5 0 5 -5t-5 -5t-5 4
q-2 -4 -4 -4q4 -2 4 -5q0 -5 -4 -5q4 -2 4 -5q0 -5 -5 -5t-5 4q-1 -4 -5 -4q-5 0 -5 4q-1 -4 -5 -4q-5 0 -5 4q-1 -4 -5 -4q-5 0 -5 4q-1 -4 -5 -4q-5 0 -5 4q-1 -4 -5 -4q-5 0 -5 4q-1 -4 -5 -4q-5 0 -5 4q-1 -4 -5 -4q-5 0 -5 4q-2 -4 -4 -4q4 -2 4 -5q0 -5 -5 -5t-5 4
q-1 -4 -5 -4q-5 0 -5 4q-1 -4 -5 -4q-5 0 -5 4q-1 -4 -5 -4q-5 0 -5 4q-1 -4 -5 -4q-5 0 -5 4q-1 -4 -5 -4q-5 0 -5 4q-1 -4 -5 -4q-5 0 -5 4q-1 -4 -5 -4q-5 0 -5 4q-1 -4 -5 -4q-5 0 -5 5q0 4 4 5q-4 0 -4 4q-1 -4 -5 -4q-5 0 -5 5q0 4 4 5q-4 0 -4 5t5 5t5 -5q0 5 5 5
t5 -5q0 5 5 5q3 0 5 -4q0 4 5 4t5 -5q0 5 5 5q3 0 5 -4q0 4 5 4t5 -5q0 5 5 5t5 -5q0 5 5 5t5 -5q0 5 5 5t5 -5q0 5 5 5t5 -5q0 4 4 5q-4 0 -4 5t5 5q3 0 5 -4q0 4 5 4t5 -5q0 5 5 5q3 0 5 -4q0 4 5 4t5 -5q0 5 5 5t5 -5q0 5 5 5q3 0 5 -4q0 4 5 4q3 0 5 -4q0 4 5 4
q3 0 5 -4q0 4 5 4zM110 39q-2 -4 -4 -4q4 -2 4 -5q0 4 4 5q-4 0 -4 4zM120 49q-2 -4 -4 -4q4 -2 4 -5q0 4 4 5q-4 0 -4 4zM130 59q-2 -4 -4 -4q4 -2 4 -5q0 4 4 5q-4 0 -4 4zM140 69q-2 -4 -4 -4q3 -1 4 -4q0 2 4 4q-4 0 -4 4zM140 79q-2 -4 -4 -4q3 -1 4 -4q0 2 4 4
q-4 0 -4 4zM154 75q-4 0 -4 4q-2 -4 -4 -4q3 -1 4 -4q0 2 4 4zM160 89q-2 -4 -4 -4q3 -1 4 -4q0 2 4 4q-4 0 -4 4zM154 85q-4 0 -4 4q-2 -4 -4 -4q3 -1 4 -4q0 2 4 4zM170 99q-2 -4 -4 -4q4 -2 4 -5q0 4 4 5q-4 0 -4 4zM160 99q-2 -4 -4 -4q3 -1 4 -4q0 2 4 4q-4 0 -4 4z
M170 109q-2 -4 -4 -4q4 -2 4 -5q0 4 4 5q-4 0 -4 4zM180 119q-2 -4 -4 -4q4 -2 4 -5q0 4 4 5q-4 0 -4 4zM190 129q-2 -4 -4 -4q3 -1 4 -4q0 2 4 4q-4 0 -4 4zM260 369q-2 -4 -4 -4q3 -1 4 -4q0 2 4 4q-4 0 -4 4zM250 369q-2 -4 -4 -4q4 -2 4 -5q0 4 4 5q-4 0 -4 4zM240 369
q-2 -4 -4 -4q4 -2 4 -5q0 4 4 5q-4 0 -4 4zM230 369q-2 -4 -4 -4q4 -2 4 -5q0 4 4 5q-4 0 -4 4zM220 369q-2 -4 -4 -4q4 -2 4 -5q0 4 4 5q-4 0 -4 4zM260 379q-2 -4 -4 -4q3 -1 4 -4q0 2 4 4q-4 0 -4 4zM250 379q-2 -4 -4 -4q3 -1 4 -4q0 2 4 4q-4 0 -4 4zM240 379
q-2 -4 -4 -4q4 -2 4 -5q0 4 4 5q-4 0 -4 4zM230 379q-2 -4 -4 -4q3 -1 4 -4q0 2 4 4q-4 0 -4 4zM220 379q-2 -4 -4 -4q3 -1 4 -4q0 2 4 4q-4 0 -4 4zM180 359q-2 -4 -4 -4q3 -1 4 -4q0 2 4 4q-4 0 -4 4zM170 359q-2 -4 -4 -4q4 -2 4 -5q0 4 4 5q-4 0 -4 4zM160 359
q-2 -4 -4 -4q4 -2 4 -5q0 4 4 5q-4 0 -4 4zM210 369q-2 -4 -4 -4q4 -2 4 -5q0 4 4 5q-4 0 -4 4zM200 369q-2 -4 -4 -4q3 -1 4 -4q0 2 4 4q-4 0 -4 4zM190 369q-2 -4 -4 -4q4 -2 4 -5q0 4 4 5q-4 0 -4 4zM180 369q-2 -4 -4 -4q4 -2 4 -5q0 4 4 5q-4 0 -4 4zM170 369
q-2 -4 -4 -4q4 -2 4 -5q0 4 4 5q-4 0 -4 4zM160 369q-2 -4 -4 -4q4 -2 4 -5q0 4 4 5q-4 0 -4 4zM210 379q-2 -4 -4 -4q4 -2 4 -5q0 4 4 5q-4 0 -4 4zM200 379q-2 -4 -4 -4q3 -1 4 -4q0 2 4 4q-4 0 -4 4zM150 359q-2 -4 -4 -4q4 -2 4 -5q0 4 4 5q-4 0 -4 4zM140 359
q-2 -4 -4 -4q4 -2 4 -5q0 4 4 5q-4 0 -4 4zM130 359q-2 -4 -4 -4q4 -2 4 -5q0 4 4 5q-4 0 -4 4zM120 359q-2 -4 -4 -4q4 -2 4 -5q0 4 4 5q-4 0 -4 4zM110 359q-2 -4 -4 -4q4 -2 4 -5q0 4 4 5q-4 0 -4 4zM150 369q-2 -4 -4 -4q4 -2 4 -5q0 4 4 5q-4 0 -4 4zM140 369
q-2 -4 -4 -4q4 -2 4 -5q0 4 4 5q-4 0 -4 4zM130 369q-2 -4 -4 -4q4 -2 4 -5q0 4 4 5q-4 0 -4 4zM120 369q-2 -4 -4 -4q4 -2 4 -5q0 4 4 5q-4 0 -4 4zM110 369q-2 -4 -4 -4q4 -2 4 -5q0 4 4 5q-4 0 -4 4zM100 369q-2 -4 -4 -4q4 -2 4 -5q0 4 4 5q-4 0 -4 4zM410 369
q-2 -4 -4 -4q4 -2 4 -5q0 4 4 5q-4 0 -4 4zM200 139q-2 -4 -4 -4q4 -2 4 -5q0 4 4 5q-4 0 -4 4zM194 135q-4 0 -4 4q-2 -4 -4 -4q4 -2 4 -5q0 4 4 5zM210 149q-2 -4 -4 -4q4 -2 4 -5q0 4 4 5q-4 0 -4 4zM200 149q-2 -4 -4 -4q3 -1 4 -4q0 2 4 4q-4 0 -4 4zM220 159
q-2 -4 -4 -4q4 -2 4 -5q0 4 4 5q-4 0 -4 4zM210 159q-2 -4 -4 -4q4 -2 4 -5q0 4 4 5q-4 0 -4 4zM230 169q-2 -4 -4 -4q4 -2 4 -5q0 4 4 5q-4 0 -4 4zM220 169q-2 -4 -4 -4q4 -2 4 -5q0 4 4 5q-4 0 -4 4zM240 179q-2 -4 -4 -4q4 -2 4 -5q0 4 4 5q-4 0 -4 4zM230 179
q-2 -4 -4 -4q4 -2 4 -5q0 4 4 5q-4 0 -4 4zM240 189q-2 -4 -4 -4q4 -2 4 -5q0 4 4 5q-4 0 -4 4zM240 199q-2 -4 -4 -4q4 -2 4 -5q0 4 4 5q-4 0 -4 4zM254 185q-4 0 -4 4q-2 -4 -4 -4q3 -1 4 -4q0 2 4 4zM260 199q-2 -4 -4 -4q4 -2 4 -5q0 4 4 5q-4 0 -4 4zM254 195
q-4 0 -4 4q-2 -4 -4 -4q4 -2 4 -5q0 4 4 5zM270 209q-2 -4 -4 -4q4 -2 4 -5q0 4 4 5q-4 0 -4 4zM260 209q-2 -4 -4 -4q4 -2 4 -5q0 4 4 5q-4 0 -4 4zM254 205q-4 0 -4 4q-2 -4 -4 -4q4 -2 4 -5q0 4 4 5zM280 219q-2 -4 -4 -4q3 -1 4 -4q0 2 4 4q-4 0 -4 4zM270 219
q-2 -4 -4 -4q4 -2 4 -5q0 4 4 5q-4 0 -4 4zM260 219q-2 -4 -4 -4q3 -1 4 -4q0 2 4 4q-4 0 -4 4zM280 229q-2 -4 -4 -4q4 -2 4 -5q0 4 4 5q-4 0 -4 4zM270 229q-2 -4 -4 -4q3 -1 4 -4q0 2 4 4q-4 0 -4 4zM290 239q-2 -4 -4 -4q3 -1 4 -4q0 2 4 4q-4 0 -4 4zM280 239
q-2 -4 -4 -4q4 -2 4 -5q0 4 4 5q-4 0 -4 4zM300 249q-2 -4 -4 -4q4 -2 4 -5q0 4 4 5q-4 0 -4 4zM290 249q-2 -4 -4 -4q4 -2 4 -5q0 4 4 5q-4 0 -4 4zM300 259q-2 -4 -4 -4q4 -2 4 -5q0 4 4 5q-4 0 -4 4zM300 269q-2 -4 -4 -4q3 -1 4 -4q0 2 4 4q-4 0 -4 4zM314 255
q-4 0 -4 4q-2 -4 -4 -4q4 -2 4 -5q0 4 4 5zM320 269q-2 -4 -4 -4q4 -2 4 -5q0 4 4 5q-4 0 -4 4zM314 265q-4 0 -4 4q-2 -4 -4 -4q4 -2 4 -5q0 4 4 5zM330 279q-2 -4 -4 -4q3 -1 4 -4q0 2 4 4q-4 0 -4 4zM320 279q-2 -4 -4 -4q3 -1 4 -4q0 2 4 4q-4 0 -4 4zM314 275
q-4 0 -4 4q-2 -4 -4 -4q3 -1 4 -4q0 2 4 4zM340 289q-2 -4 -4 -4q4 -2 4 -5q0 4 4 5q-4 0 -4 4zM330 289q-2 -4 -4 -4q4 -2 4 -5q0 4 4 5q-4 0 -4 4zM320 289q-2 -4 -4 -4q4 -2 4 -5q0 4 4 5q-4 0 -4 4zM350 299q-2 -4 -4 -4q4 -2 4 -5q0 4 4 5q-4 0 -4 4zM340 299
q-2 -4 -4 -4q3 -1 4 -4q0 2 4 4q-4 0 -4 4zM330 299q-2 -4 -4 -4q4 -2 4 -5q0 4 4 5q-4 0 -4 4zM360 309q-2 -4 -4 -4q4 -2 4 -5q0 4 4 5q-4 0 -4 4zM350 309q-2 -4 -4 -4q3 -1 4 -4q0 2 4 4q-4 0 -4 4zM340 309q-2 -4 -4 -4q4 -2 4 -5q0 4 4 5q-4 0 -4 4zM270 489
q-2 -4 -4 -4q3 -1 4 -4q0 2 4 4q-4 0 -4 4zM260 489q-2 -4 -4 -4q3 -1 4 -4q0 2 4 4q-4 0 -4 4zM270 499q-2 -4 -4 -4q4 -2 4 -5q0 4 4 5q-4 0 -4 4zM260 499q-2 -4 -4 -4q3 -1 4 -4q0 2 4 4q-4 0 -4 4zM280 509q-2 -4 -4 -4q3 -1 4 -4q0 2 4 4q-4 0 -4 4zM270 509
q-2 -4 -4 -4q4 -2 4 -5q0 4 4 5q-4 0 -4 4zM280 519q-2 -4 -4 -4q4 -2 4 -5q0 4 4 5q-4 0 -4 4zM270 519q-2 -4 -4 -4q4 -2 4 -5q0 4 4 5q-4 0 -4 4zM280 529q-2 -4 -4 -4q4 -2 4 -5q0 4 4 5q-4 0 -4 4zM280 539q-2 -4 -4 -4q4 -2 4 -5q0 4 4 5q-4 0 -4 4zM360 319
q-2 -4 -4 -4q4 -2 4 -5q0 4 4 5q-4 0 -4 4zM350 319q-2 -4 -4 -4q3 -1 4 -4q0 2 4 4q-4 0 -4 4zM360 329q-2 -4 -4 -4q4 -2 4 -5q0 4 4 5q-4 0 -4 4zM350 329q-2 -4 -4 -4q4 -2 4 -5q0 4 4 5q-4 0 -4 4zM360 339q-2 -4 -4 -4q3 -1 4 -4q0 2 4 4q-4 0 -4 4zM374 315
q-4 0 -4 4q-2 -4 -4 -4q3 -1 4 -4q0 2 4 4zM380 329q-2 -4 -4 -4q3 -1 4 -4q0 2 4 4q-4 0 -4 4zM374 325q-4 0 -4 4q-2 -4 -4 -4q4 -2 4 -5q0 4 4 5zM390 339q-2 -4 -4 -4q4 -2 4 -5q0 4 4 5q-4 0 -4 4zM380 339q-2 -4 -4 -4q4 -2 4 -5q0 4 4 5q-4 0 -4 4zM374 335
q-4 0 -4 4q-2 -4 -4 -4q3 -1 4 -4q0 2 4 4zM400 349q-2 -4 -4 -4q4 -2 4 -5q0 4 4 5q-4 0 -4 4zM390 349q-2 -4 -4 -4q3 -1 4 -4q0 2 4 4q-4 0 -4 4zM380 349q-2 -4 -4 -4q4 -2 4 -5q0 4 4 5q-4 0 -4 4zM374 345q-4 0 -4 4q-2 -4 -4 -4q4 -2 4 -5q0 4 4 5zM410 359
q-2 -4 -4 -4q4 -2 4 -5q0 4 4 5q-4 0 -4 4zM400 359q-2 -4 -4 -4q3 -1 4 -4q0 2 4 4q-4 0 -4 4zM390 359q-2 -4 -4 -4q3 -1 4 -4q0 2 4 4q-4 0 -4 4zM380 359q-2 -4 -4 -4q3 -1 4 -4q0 2 4 4q-4 0 -4 4zM300 549q-2 -4 -4 -4q3 -1 4 -4q0 2 4 4q-4 0 -4 4zM400 369
q-2 -4 -4 -4q4 -2 4 -5q0 4 4 5q-4 0 -4 4zM390 369q-2 -4 -4 -4q3 -1 4 -4q0 2 4 4q-4 0 -4 4zM420 379q-2 -4 -4 -4q3 -1 4 -4q0 2 4 4q-4 0 -4 4zM410 379q-2 -4 -4 -4q3 -1 4 -4q0 2 4 4q-4 0 -4 4zM400 379q-2 -4 -4 -4q4 -2 4 -5q0 4 4 5q-4 0 -4 4zM420 389
q-2 -4 -4 -4q4 -2 4 -5q0 4 4 5q-4 0 -4 4zM410 389q-2 -4 -4 -4q4 -2 4 -5q0 4 4 5q-4 0 -4 4zM400 389q-2 -4 -4 -4q3 -1 4 -4q0 2 4 4q-4 0 -4 4zM420 399q-2 -4 -4 -4q4 -2 4 -5q0 4 4 5q-4 0 -4 4zM410 399q-2 -4 -4 -4q4 -2 4 -5q0 4 4 5q-4 0 -4 4zM420 409
q-2 -4 -4 -4q4 -2 4 -5q0 4 4 5q-4 0 -4 4zM434 385q-4 0 -4 4q-2 -4 -4 -4q4 -2 4 -5q0 4 4 5zM440 399q-2 -4 -4 -4q4 -2 4 -5q0 4 4 5q-4 0 -4 4zM434 395q-4 0 -4 4q-2 -4 -4 -4q3 -1 4 -4q0 2 4 4zM450 409q-2 -4 -4 -4q4 -2 4 -5q0 4 4 5q-4 0 -4 4zM440 409
q-2 -4 -4 -4q3 -1 4 -4q0 2 4 4q-4 0 -4 4zM434 405q-4 0 -4 4q-2 -4 -4 -4q4 -2 4 -5q0 4 4 5zM460 419q-2 -4 -4 -4q4 -2 4 -5q0 4 4 5q-4 0 -4 4zM450 419q-2 -4 -4 -4q3 -1 4 -4q0 2 4 4q-4 0 -4 4zM440 419q-2 -4 -4 -4q4 -2 4 -5q0 4 4 5q-4 0 -4 4zM434 415
q-4 0 -4 4q-2 -4 -4 -4q3 -1 4 -4q0 2 4 4zM470 429q-2 -4 -4 -4q3 -1 4 -4q0 2 4 4q-4 0 -4 4zM460 429q-2 -4 -4 -4q4 -2 4 -5q0 4 4 5q-4 0 -4 4zM450 429q-2 -4 -4 -4q3 -1 4 -4q0 2 4 4q-4 0 -4 4zM440 429q-2 -4 -4 -4q3 -1 4 -4q0 2 4 4q-4 0 -4 4zM480 439
q-2 -4 -4 -4q3 -1 4 -4q0 2 4 4q-4 0 -4 4zM470 439q-2 -4 -4 -4q3 -1 4 -4q0 2 4 4q-4 0 -4 4zM460 439q-2 -4 -4 -4q4 -2 4 -5q0 4 4 5q-4 0 -4 4zM450 439q-2 -4 -4 -4q3 -1 4 -4q0 2 4 4q-4 0 -4 4zM470 449q-2 -4 -4 -4q3 -1 4 -4q0 2 4 4q-4 0 -4 4zM460 449
q-2 -4 -4 -4q3 -1 4 -4q0 2 4 4q-4 0 -4 4zM470 459q-2 -4 -4 -4q4 -2 4 -5q0 4 4 5q-4 0 -4 4zM460 459q-2 -4 -4 -4q4 -2 4 -5q0 4 4 5q-4 0 -4 4zM340 629q-2 -4 -4 -4q3 -1 4 -4q0 2 4 4q-4 0 -4 4zM294 525q-4 0 -4 4q-2 -4 -4 -4q4 -2 4 -5q0 4 4 5zM294 535
q-4 0 -4 4q-2 -4 -4 -4q4 -2 4 -5q0 4 4 5zM330 629q-2 -4 -4 -4q3 -1 4 -4q0 2 4 4q-4 0 -4 4zM294 545q-4 0 -4 4q-2 -4 -4 -4q4 -2 4 -5q0 4 4 5zM300 559q-2 -4 -4 -4q3 -1 4 -4q0 2 4 4q-4 0 -4 4zM294 555q-4 0 -4 4q-2 -4 -4 -4q4 -2 4 -5q0 4 4 5zM310 569
q-2 -4 -4 -4q4 -2 4 -5q0 4 4 5q-4 0 -4 4zM300 569q-2 -4 -4 -4q4 -2 4 -5q0 4 4 5q-4 0 -4 4zM310 579q-2 -4 -4 -4q4 -2 4 -5q0 4 4 5q-4 0 -4 4zM300 579q-2 -4 -4 -4q3 -1 4 -4q0 2 4 4q-4 0 -4 4zM320 589q-2 -4 -4 -4q4 -2 4 -5q0 4 4 5q-4 0 -4 4zM310 589
q-2 -4 -4 -4q4 -2 4 -5q0 4 4 5q-4 0 -4 4zM330 599q-2 -4 -4 -4q3 -1 4 -4q0 2 4 4q-4 0 -4 4zM320 599q-2 -4 -4 -4q4 -2 4 -5q0 4 4 5q-4 0 -4 4zM310 599q-2 -4 -4 -4q4 -2 4 -5q0 4 4 5q-4 0 -4 4zM330 609q-2 -4 -4 -4q3 -1 4 -4q0 2 4 4q-4 0 -4 4zM320 609
q-2 -4 -4 -4q4 -2 4 -5q0 4 4 5q-4 0 -4 4zM340 619q-2 -4 -4 -4q4 -2 4 -5q0 4 4 5q-4 0 -4 4zM330 619q-2 -4 -4 -4q4 -2 4 -5q0 4 4 5q-4 0 -4 4zM354 665q-4 0 -4 4q-2 -4 -4 -4q4 -2 4 -5q0 4 4 5zM360 689q-2 -4 -4 -4q4 -2 4 -5q0 4 4 5q-4 0 -4 4zM340 639
q-2 -4 -4 -4q3 -1 4 -4q0 2 4 4q-4 0 -4 4zM340 649q-2 -4 -4 -4q4 -2 4 -5q0 4 4 5q-4 0 -4 4zM354 635q-4 0 -4 4q-2 -4 -4 -4q3 -1 4 -4q0 2 4 4zM354 645q-4 0 -4 4q-2 -4 -4 -4q4 -2 4 -5q0 4 4 5zM360 659q-2 -4 -4 -4q3 -1 4 -4q0 2 4 4q-4 0 -4 4zM354 655
q-4 0 -4 4q-2 -4 -4 -4q4 -2 4 -5q0 4 4 5zM370 669q-2 -4 -4 -4q3 -1 4 -4q0 2 4 4q-4 0 -4 4zM360 669q-2 -4 -4 -4q4 -2 4 -5q0 4 4 5q-4 0 -4 4zM80 9q-2 -4 -4 -4q4 -2 4 -5q0 4 4 5q-4 0 -4 4zM370 679q-2 -4 -4 -4q4 -2 4 -5q0 4 4 5q-4 0 -4 4zM360 679q-2 -4 -4 -4
q4 -2 4 -5q0 4 4 5q-4 0 -4 4zM380 689q-2 -4 -4 -4q4 -2 4 -5q0 4 4 5q-4 0 -4 4zM370 689q-2 -4 -4 -4q3 -1 4 -4q0 2 4 4q-4 0 -4 4zM94 15q-4 0 -4 4q-2 -4 -4 -4q4 -2 4 -5q0 4 4 5zM370 699q-2 -4 -4 -4q4 -2 4 -5q0 4 4 5q-4 0 -4 4zM100 29q-2 -4 -4 -4q4 -2 4 -5
q0 4 4 5q-4 0 -4 4z" />
    <glyph glyph-name="minus" unicode="&#x2212;" horiz-adv-x="536" 
d="M58 355h420v-131h-420v131z" />
    <glyph glyph-name="uni2007" unicode="&#x2007;" horiz-adv-x="590" 
 />
    <glyph glyph-name="uni2008" unicode="&#x2008;" horiz-adv-x="286" 
 />
    <glyph glyph-name="uni2009" unicode="&#x2009;" horiz-adv-x="125" 
 />
    <glyph glyph-name="uni200B" unicode="&#x200b;" 
 />
    <glyph glyph-name="uni2060" unicode="&#x2060;" horiz-adv-x="216" 
 />
    <glyph glyph-name="uniFEFF" unicode="&#xfeff;" 
 />
    <glyph glyph-name="Euro" unicode="&#x20ac;" horiz-adv-x="840" 
d="M26 389l20 57h64q15 61 48 111.5t80.5 87t106.5 57t125 20.5q57 0 108 -14.5t94 -43t76.5 -69.5t54.5 -95h-174q-32 41 -70.5 57t-87.5 16q-73 0 -125 -35t-76 -92h339l-18 -57h-337q-1 -8 -1.5 -17t-0.5 -17v-17t2 -16h316l-18 -57h-283q24 -58 76 -93t126 -35
q49 0 87.5 16t70.5 57h174q-21 -54 -54.5 -95t-76.5 -69.5t-94 -43t-108 -14.5q-66 0 -125.5 20t-106.5 57t-80 87.5t-48 112.5h-84l20 57h55q-1 8 -1 16.5v16.5v17t1 17h-75z" />
    <glyph glyph-name="uniFB00" unicode="&#xfb00;" horiz-adv-x="807" 
d="M118 369h-100v131h100v67q0 48 16 83.5t43 59t63.5 35t78.5 11.5q30 0 51.5 -3t38.5 -8v-133q-5 5 -21 6.5t-33 1.5q-46 0 -66 -19.5t-20 -64.5v-36h106v-131h-106v-369h-151v369zM501 369h-79v131h79v67q0 48 16 83.5t43 59t63.5 35t78.5 11.5q30 0 51.5 -3t38.5 -8
v-133q-12 5 -25 6.5t-30 1.5q-45 0 -65 -19.5t-20 -64.5v-36h140v-131h-140v-369h-151v369z" />
    <glyph glyph-name="uniFB01" unicode="&#xfb01;" horiz-adv-x="699" 
d="M118 369h-100v131h100v55q0 48 16 85t43 63t63.5 39.5t78.5 13.5q30 0 51.5 -3t38.5 -8v-133q-12 5 -24.5 7t-29.5 2q-46 0 -66 -20t-20 -65v-36h140v-131h-140v-369h-151v369zM561 568q-19 0 -36 7.5t-30 20t-20.5 29.5t-7.5 37q0 19 7.5 36.5t20.5 30t30 20t36 7.5
q20 0 37.5 -7.5t30 -20t20 -30t7.5 -36.5q0 -20 -7.5 -37t-20 -29.5t-30 -20t-37.5 -7.5zM486 500h151v-500h-151v500z" />
    <glyph glyph-name="uniFB03" unicode="&#xfb03;" horiz-adv-x="1082" 
d="M944 568q-19 0 -36 7.5t-30 20t-20.5 29.5t-7.5 37q0 19 7.5 36.5t20.5 30t30 20t36 7.5q20 0 37.5 -7.5t30 -20t20 -30t7.5 -36.5q0 -20 -7.5 -37t-20 -29.5t-30 -20t-37.5 -7.5zM869 500h151v-500h-151v500zM118 369h-100v131h100v67q0 48 16 83.5t43 59t63.5 35
t78.5 11.5q30 0 51.5 -3t38.5 -8v-133q-5 5 -21 6.5t-33 1.5q-46 0 -66 -19.5t-20 -64.5v-36h106v-131h-106v-369h-151v369zM501 369h-79v131h79v67q0 48 16 83.5t43 59t63.5 35t78.5 11.5q30 0 51.5 -3t38.5 -8v-133q-12 5 -25 6.5t-30 1.5q-45 0 -65 -19.5t-20 -64.5v-36
h140v-131h-140v-369h-151v369z" />
    <glyph glyph-name="uniFB02" unicode="&#xfb02;" horiz-adv-x="699" 
d="M118 369h-100v131h100v55q0 48 16 85t43 63t63.5 39.5t78.5 13.5q30 0 51.5 -3t38.5 -8v-133q-12 5 -24.5 7t-29.5 2q-46 0 -66 -20t-20 -65v-36h140v-131h-140v-369h-151v369zM486 750h151v-750h-151v750z" />
    <glyph glyph-name="uniFB04" unicode="&#xfb04;" horiz-adv-x="1082" 
d="M869 750h151v-750h-151v750zM118 369h-100v131h100v67q0 48 16 83.5t43 59t63.5 35t78.5 11.5q30 0 51.5 -3t38.5 -8v-133q-5 5 -21 6.5t-33 1.5q-46 0 -66 -19.5t-20 -64.5v-36h106v-131h-106v-369h-151v369zM501 369h-79v131h79v67q0 48 16 83.5t43 59t63.5 35
t78.5 11.5q30 0 51.5 -3t38.5 -8v-133q-12 5 -25 6.5t-30 1.5q-45 0 -65 -19.5t-20 -64.5v-36h140v-131h-140v-369h-151v369z" />
    <glyph glyph-name="glyph379" 
d="M0 568q-19 0 -36 7.5t-30 20t-20.5 29.5t-7.5 37q0 19 7.5 36.5t20.5 30t30 20t36 7.5q20 0 37.5 -7.5t30 -20t20 -30t7.5 -36.5q0 -20 -7.5 -37t-20 -29.5t-30 -20t-37.5 -7.5z" />
    <glyph glyph-name="breve" unicode="&#x2d8;" 
d="M0 552q-37 0 -69.5 12.5t-56.5 36t-38 56t-14 73.5v20h86v-20q0 -46 27 -69t65 -23t65 23t27 69v20h86v-20q0 -41 -14 -73.5t-38 -56t-56.5 -36t-69.5 -12.5z" />
    <glyph glyph-name="caron" unicode="&#x2c7;" 
d="M-178 638v118l178 -97l178 97v-118l-178 -97z" />
    <glyph glyph-name="circumflex" unicode="&#x2c6;" 
d="M178 659v-118l-178 97l-178 -97v118l178 97z" />
    <glyph glyph-name="dotaccent" unicode="&#x2d9;" 
d="M0 572q-17 0 -31.5 6.5t-25.5 17t-17.5 25t-6.5 30.5q0 34 23.5 57.5t57.5 23.5q33 0 56.5 -23.5t23.5 -57.5q0 -32 -23.5 -55.5t-56.5 -23.5z" />
    <glyph glyph-name="glyph384" 
d="M0 -80q-34 0 -57.5 23.5t-23.5 56.5q0 34 23.5 57.5t57.5 23.5q33 0 56.5 -23.5t23.5 -57.5q0 -33 -23.5 -56.5t-56.5 -23.5z" />
    <glyph glyph-name="glyph385" 
d="M0 -227q-34 0 -57.5 23.5t-23.5 56.5t23.5 56.5t57.5 23.5q33 0 56.5 -23.5t23.5 -56.5t-23.5 -56.5t-56.5 -23.5z" />
    <glyph glyph-name="hungarumlaut" unicode="&#x2dd;" 
d="M48 750h156l-127 -190h-95zM-139 750h157l-127 -190h-95z" />
    <glyph glyph-name="glyph387" 
d="M-31 -220q-20 8 -34.5 27.5t-14.5 46.5q0 33 23 56t57 23q33 0 56.5 -23t23.5 -56q0 -26 -16 -52l-75 -118h-64z" />
    <glyph glyph-name="ogonek" unicode="&#x2db;" 
d="M3 -219q-54 0 -82.5 29t-28.5 75q0 32 17.5 62.5t46.5 52.5h151q-38 -15 -61.5 -37t-23.5 -49q0 -16 11 -22t25 -6t28 4.5t21 9.5v-90q-12 -9 -41 -19t-63 -10z" />
    <glyph glyph-name="ring" unicode="&#x2da;" 
d="M1 543q-25 0 -47 9.5t-38.5 26t-26.5 38t-10 46.5t10 46.5t26.5 38t38.5 26t47 9.5t47 -9.5t38.5 -26t26.5 -38t10 -46.5t-10 -46.5t-26.5 -38t-38.5 -26t-47 -9.5zM1 608q23 0 39.5 16t16.5 39t-16.5 39t-39.5 16t-39.5 -16t-16.5 -39t16.5 -39t39.5 -16z" />
    <glyph glyph-name="tilde" unicode="&#x2dc;" 
d="M-189 593q4 28 15.5 50t28 37t36.5 22.5t41 7.5q23 0 42.5 -7.5t35.5 -16t29.5 -16t25.5 -7.5q20 0 29 12.5t15 35.5h83l-4 -28q-4 -29 -16 -50.5t-28.5 -36.5t-36 -22.5t-40.5 -7.5q-23 0 -42.5 7.5t-35.5 16t-29.5 16t-25.5 7.5q-20 0 -29 -12.5t-15 -35.5h-83z" />
    <glyph glyph-name="glyph391" 
d="M-65 710h151l-69 -160h-102z" />
    <glyph glyph-name="glyph392" 
d="M0 572q-33 0 -56.5 23.5t-23.5 55.5q0 26 16 52l75 118h64l-44 -96q20 -8 34.5 -27.5t14.5 -46.5q0 -32 -23 -55.5t-57 -23.5z" />
    <glyph glyph-name="glyph393" 
d="M-94 572q-33 0 -56.5 23.5t-23.5 55.5q0 33 23.5 56.5t56.5 23.5q32 0 55.5 -23.5t23.5 -56.5q0 -32 -23.5 -55.5t-55.5 -23.5zM93 572q-32 0 -55.5 23.5t-23.5 55.5q0 33 23.5 56.5t55.5 23.5q33 0 56.5 -23.5t23.5 -56.5q0 -32 -23.5 -55.5t-56.5 -23.5z" />
    <glyph glyph-name="glyph394" 
d="M-214 -11l-47 49l475 473l47 -49z" />
    <glyph glyph-name="glyph395" 
d="M-171 564v96h343v-96h-343z" />
    <glyph glyph-name="glyph396" 
d="M-171 564v96h343v-96h-343z" />
    <glyph glyph-name="glyph397" 
d="M-148 231v115l297 171v-116z" />
    <glyph glyph-name="glyph398" 
d="M-195 303h391v-96h-391v96z" />
    <glyph glyph-name="zero.zero" horiz-adv-x="633" 
d="M317 -11q-60 0 -109.5 21.5t-85 59t-55 89.5t-19.5 114v165q0 61 19.5 113.5t55 90t85 59t109.5 21.5q59 0 108.5 -21.5t85 -59t55 -90t19.5 -113.5v-165q0 -62 -19.5 -114t-55 -89.5t-85 -59t-108.5 -21.5zM317 138q52 0 84.5 35.5t32.5 99.5v87l-231 -130
q11 -45 41 -68.5t73 -23.5zM199 351l230 130q-11 44 -40.5 68t-71.5 24q-53 0 -85.5 -35.5t-32.5 -99.5v-87z" />
    <glyph glyph-name="one.oldstyle" horiz-adv-x="354" 
d="M138 428h-134l105 132h180v-560h-151v428z" />
    <glyph glyph-name="two.oldstyle" horiz-adv-x="504" 
d="M456 0h-416v44q0 48 16.5 83.5t43 62.5t58.5 49l64 44q14 10 28 21.5t25.5 24.5t19 27.5t7.5 30.5q0 17 -12 34t-38 17q-31 0 -45.5 -19.5t-12.5 -39.5h-150q0 42 16 77t45 60.5t68 39.5t86 14q37 0 72 -11.5t62 -34t43.5 -56t16.5 -77.5q0 -39 -10 -69.5t-25.5 -53.5
t-36 -41.5t-41.5 -33.5q-4 -3 -15 -10.5t-23.5 -16.5t-24.5 -18t-18 -16h197v-132z" />
    <glyph glyph-name="three.oldstyle" horiz-adv-x="533" 
d="M271 -78q-43 0 -85.5 13.5t-76 41t-55.5 68t-24 94.5h149q5 -43 28.5 -64t60.5 -21q32 0 52 19.5t21 49.5q1 34 -21 55t-57 21h-56v107h45q31 0 51 18.5t21 47.5q1 30 -16.5 48t-44.5 18q-32 0 -51 -23t-19 -55h-151q0 50 19.5 89t52 66t73.5 41t84 14q49 0 87.5 -15
t64.5 -40.5t39.5 -59t13.5 -70.5q0 -46 -20 -81t-41 -54q13 -7 27 -19.5t25.5 -30.5t18.5 -40t7 -49q0 -41 -16.5 -76t-46.5 -60t-70.5 -39t-88.5 -14z" />
    <glyph glyph-name="four.oldstyle" horiz-adv-x="564" 
d="M305 68h-289v108l303 384h137v-370h76v-122h-76v-136h-151v136zM305 190v152l-110 -152h110z" />
    <glyph glyph-name="five.oldstyle" horiz-adv-x="516" 
d="M261 -78q-45 0 -86 14t-73.5 40t-52.5 62t-22 80h157q5 -28 26.5 -46t50.5 -18q35 0 53 24t18 63q0 41 -20 63.5t-52 22.5q-23 0 -47.5 -15t-38.5 -50l-129 36l73 362h316v-130h-201l-21 -102q15 9 35.5 14.5t46.5 5.5q40 0 74.5 -15t60 -42t40 -65t14.5 -85
q0 -104 -58.5 -161.5t-163.5 -57.5z" />
    <glyph glyph-name="six.oldstyle" horiz-adv-x="532" 
d="M265 -11q-52 0 -94.5 16.5t-73 44.5t-47 65.5t-16.5 78.5q0 29 4.5 51t14 42.5t23.5 41.5l32 48l170 250h181l-146 -215q33 -4 65.5 -19.5t58.5 -41.5t42.5 -62t16.5 -81q0 -47 -16.5 -87t-47 -69t-73 -46t-94.5 -17zM186 206q0 -39 21.5 -63.5t57.5 -24.5t57.5 24.5
t21.5 63.5t-21.5 63.5t-57.5 24.5t-57.5 -24.5t-21.5 -63.5z" />
    <glyph glyph-name="seven.oldstyle" horiz-adv-x="493" 
d="M23 -68l274 498h-265v130h444v-116l-282 -512h-171z" />
    <glyph glyph-name="eight.oldstyle" horiz-adv-x="558" 
d="M279 -11q-47 0 -90.5 15t-77 42t-53.5 64.5t-20 82.5q0 51 22 87t60 59q-57 48 -57 126q0 37 16 68.5t44.5 54.5t68 36t87.5 13q47 0 86.5 -13t68 -36t44.5 -54.5t16 -68.5q0 -38 -15 -70.5t-43 -55.5q38 -23 61 -59t23 -87q0 -45 -20 -82.5t-54 -64.5t-77.5 -42
t-89.5 -15zM279 112q37 0 60.5 24.5t23.5 59.5t-23.5 59.5t-60.5 24.5q-38 0 -61.5 -24.5t-23.5 -59.5t23.5 -59.5t61.5 -24.5zM279 385q30 0 49.5 19t19.5 48t-19.5 48t-49.5 19q-32 0 -51 -19t-19 -48t19 -48t51 -19z" />
    <glyph glyph-name="nine.oldstyle" horiz-adv-x="532" 
d="M267 570q52 0 94.5 -16.5t73 -44.5t47 -65.5t16.5 -78.5q0 -29 -4.5 -51t-14 -42.5t-23.5 -41.5l-32 -48l-170 -250h-181l146 215q-33 4 -65.5 19t-58.5 41t-42.5 62.5t-16.5 81.5q0 46 16.5 86.5t47 69.5t73 46t94.5 17zM346 353q0 39 -21.5 63.5t-57.5 24.5
t-57.5 -24.5t-21.5 -63.5t21.5 -63.5t57.5 -24.5t57.5 24.5t21.5 63.5z" />
    <glyph glyph-name="zero.oldstyle" horiz-adv-x="548" 
d="M274 -9q-51 0 -93 17t-72 47.5t-46.5 72.5t-16.5 91v123q0 49 16.5 91t46.5 72.5t72 47.5t93 17t93 -17t72 -47.5t46.5 -72.5t16.5 -91v-123q0 -49 -16.5 -91t-46.5 -72.5t-72 -47.5t-93 -17zM274 123q35 0 56 25.5t21 70.5v123q0 45 -21 70t-56 25t-56 -25t-21 -70v-123
q0 -45 21 -70.5t56 -25.5z" />
    <glyph glyph-name="zero.oldstyle.zero" horiz-adv-x="548" 
d="M274 -9q-51 0 -93 17t-72 47.5t-46.5 72.5t-16.5 91v123q0 49 16.5 91t46.5 72.5t72 47.5t93 17t93 -17t72 -47.5t46.5 -72.5t16.5 -91v-123q0 -49 -16.5 -91t-46.5 -72.5t-72 -47.5t-93 -17zM274 123q35 0 56 25.5t21 70.5v43l-149 -84q17 -55 72 -55zM197 299l148 84
q-8 26 -26.5 40t-44.5 14q-35 0 -56 -25t-21 -70v-43z" />
    <glyph glyph-name="one.tnum" horiz-adv-x="590" 
d="M54 141h173v420h-149l108 149h192v-569h173v-141h-497v141z" />
    <glyph glyph-name="two.tnum" horiz-adv-x="590" 
d="M535 0h-490v51q0 60 21 104.5t53.5 79t73 62.5t79.5 56q21 15 40.5 31t34 33t23.5 35t9 37q0 35 -20.5 59.5t-63.5 24.5q-22 0 -40 -7.5t-30.5 -19.5t-19 -28t-6.5 -34h-151q0 52 19 96t53 75.5t80 49t100 17.5q45 0 86.5 -14t73.5 -42t51 -69.5t19 -96.5
q0 -48 -11 -84.5t-30.5 -66t-46.5 -53.5t-58 -47q-13 -9 -31.5 -21t-37 -25t-34.5 -27t-23 -27h277v-149z" />
    <glyph glyph-name="three.tnum" horiz-adv-x="590" 
d="M299 -11q-50 0 -97 15.5t-84 46t-60.5 76.5t-25.5 107h150q5 -49 36.5 -72.5t80.5 -23.5q44 0 70.5 21.5t27.5 56.5q1 38 -28 62t-77 24h-62v121h54q48 0 70 21.5t23 55.5q1 32 -22.5 52.5t-58.5 20.5q-45 0 -72.5 -26.5t-26.5 -62.5h-151q0 57 21.5 101t57 74.5t80 46.5
t91.5 16q57 0 100.5 -17t73 -46t44.5 -66.5t15 -79.5q0 -52 -23 -91.5t-51 -61.5q18 -9 35 -23t30 -34t21 -45t8 -55q0 -47 -18 -86t-51 -67.5t-79 -44.5t-102 -16z" />
    <glyph glyph-name="four.tnum" horiz-adv-x="590" 
d="M348 154h-347v122l362 434h136v-418h91v-138h-91v-154h-151v154zM348 292v195l-163 -195h163z" />
    <glyph glyph-name="five.tnum" horiz-adv-x="590" 
d="M294 -11q-49 0 -94.5 16t-81 45t-57.5 69.5t-24 90.5h156q8 -32 36 -52t65 -20q49 0 74 28t25 70t-28 70t-70 28q-40 0 -67 -21t-38 -53l-131 41l82 409h349v-146h-233l-24 -113q36 19 91 19q51 0 91.5 -18t69 -50.5t44 -77.5t15.5 -99q0 -55 -17.5 -99t-50.5 -74.5
t-79 -46.5t-103 -16z" />
    <glyph glyph-name="six.tnum" horiz-adv-x="590" 
d="M293 -11q-58 0 -104.5 19t-78.5 52t-49.5 78.5t-17.5 98.5q0 27 5 48.5t15.5 43.5t26.5 45.5t37 53.5l198 282h186l-174 -248q37 -3 73.5 -19t66 -44.5t48 -69.5t18.5 -93q0 -53 -17.5 -98t-49.5 -78t-78.5 -52t-104.5 -19zM293 134q43 0 70.5 29t27.5 71t-27.5 71
t-70.5 29q-44 0 -71 -29t-27 -71t27 -71t71 -29z" />
    <glyph glyph-name="seven.tnum" horiz-adv-x="590" 
d="M56 0l318 564h-324v146h503v-131l-326 -579h-171z" />
    <glyph glyph-name="eight.tnum" horiz-adv-x="590" 
d="M296 -11q-54 0 -101 17t-81.5 47.5t-54 72.5t-19.5 93q0 58 22 99.5t63 67.5q-57 54 -57 141q0 42 16 77.5t46 62t72 41t94 14.5t94 -14.5t72 -41t46 -62t16 -77.5q0 -43 -15 -79t-43 -62q41 -26 63.5 -67.5t22.5 -99.5q0 -51 -20 -93t-54.5 -72.5t-81 -47.5t-100.5 -17z
M296 128q24 0 42.5 8t31 21.5t19.5 30.5t7 35t-7 35t-19.5 30.5t-31 21.5t-42.5 8t-42.5 -8t-31.5 -21.5t-19.5 -30.5t-6.5 -35t6.5 -35t19.5 -30.5t31.5 -21.5t42.5 -8zM296 437q35 0 58.5 21.5t23.5 54.5t-23.5 54.5t-58.5 21.5t-58.5 -21.5t-23.5 -54.5t23.5 -54.5
t58.5 -21.5z" />
    <glyph glyph-name="nine.tnum" horiz-adv-x="590" 
d="M252 248q-37 3 -73.5 19t-66 44.5t-47.5 69.5t-18 94q0 52 17.5 97.5t49.5 78.5t78.5 52t104.5 19t104.5 -19t78.5 -52t49.5 -78.5t17.5 -98.5q0 -27 -5.5 -48.5t-16 -43.5t-26 -45.5t-36.5 -53.5l-199 -283h-186zM297 377q44 0 71 29t27 71t-27 71t-71 29
q-43 0 -70.5 -29t-27.5 -71t27.5 -71t70.5 -29z" />
    <glyph glyph-name="zero.tnum" horiz-adv-x="590" 
d="M296 -11q-60 0 -109.5 21.5t-85 59t-55 89.5t-19.5 114v165q0 61 19.5 113.5t55 90t85 59t109.5 21.5q59 0 108.5 -21.5t85 -59t55 -90t19.5 -113.5v-165q0 -62 -19.5 -114t-55 -89.5t-85 -59t-108.5 -21.5zM296 138q52 0 84.5 35.5t32.5 99.5v165q0 64 -32.5 99.5
t-84.5 35.5q-53 0 -85.5 -35.5t-32.5 -99.5v-165q0 -64 32.5 -99.5t85.5 -35.5z" />
    <glyph glyph-name="zero.tnum.zero" horiz-adv-x="590" 
d="M295 -11q-60 0 -109.5 21.5t-85 59t-55 89.5t-19.5 114v165q0 61 19.5 113.5t55 90t85 59t109.5 21.5q59 0 108.5 -21.5t85 -59t55 -90t19.5 -113.5v-165q0 -62 -19.5 -114t-55 -89.5t-85 -59t-108.5 -21.5zM295 138q52 0 84.5 35.5t32.5 99.5v87l-231 -130
q11 -45 41 -68.5t73 -23.5zM177 351l230 130q-11 44 -40.5 68t-71.5 24q-53 0 -85.5 -35.5t-32.5 -99.5v-87z" />
    <glyph glyph-name="uni21B2" unicode="&#x21b2;" horiz-adv-x="847" 
d="M39 249l306 306l83 -85l-160 -161h370v401h121v-521h-491l160 -160l-83 -86z" />
    <glyph glyph-name="uni21B3" unicode="&#x21b3;" horiz-adv-x="847" 
d="M502 -57l-83 86l160 160h-491v521h121v-401h370l-160 161l83 85l306 -306z" />
    <glyph glyph-name="uni21B0" unicode="&#x21b0;" horiz-adv-x="837" 
d="M638 -209v398h-370l160 -161l-83 -85l-306 306l306 306l83 -86l-160 -160h491v-518h-121z" />
    <glyph glyph-name="uni21B1" unicode="&#x21b1;" horiz-adv-x="837" 
d="M78 309h491l-160 160l83 86l306 -306l-306 -306l-83 85l160 161h-370v-398h-121v518z" />
    <glyph glyph-name="arrowleft" unicode="&#x2190;" horiz-adv-x="816" 
d="M39 249l306 306l83 -86l-160 -160h491v-120h-491l160 -160l-83 -86z" />
    <glyph glyph-name="arrowup" unicode="&#x2191;" horiz-adv-x="694" 
d="M287 493l-160 -161l-86 84l306 306l306 -306l-86 -84l-160 161v-493h-120v493z" />
    <glyph glyph-name="arrowright" unicode="&#x2192;" horiz-adv-x="816" 
d="M388 28l160 161h-491v120h491l-160 160l83 86l306 -306l-306 -306z" />
    <glyph glyph-name="arrowdown" unicode="&#x2193;" horiz-adv-x="690" 
d="M345 -12l-306 306l86 84l160 -161v493h120v-493l160 161l86 -84z" />
    <glyph glyph-name="uni2196" unicode="&#x2196;" horiz-adv-x="719" 
d="M592 -12l-381 380v-229h-120v433h433v-121h-228l380 -379z" />
    <glyph glyph-name="uni2197" unicode="&#x2197;" horiz-adv-x="719" 
d="M43 72l380 379h-228v121h433v-433h-120v229l-381 -380z" />
    <glyph glyph-name="uni2198" unicode="&#x2198;" horiz-adv-x="714" 
d="M196 121h228l-380 379l84 84l381 -380v229h120v-433h-433v121z" />
    <glyph glyph-name="uni2199" unicode="&#x2199;" horiz-adv-x="714" 
d="M586 584l84 -84l-380 -379h228v-121h-433v433h120v-229z" />
    <glyph glyph-name="onethird" unicode="&#x2153;" horiz-adv-x="834" 
d="M100 606h-97l73 104h129v-432h-105v328zM68 0l500 710h128l-500 -710h-128zM654 -6q-29 0 -58 9t-52 27.5t-38 47.5t-17 69h104q4 -26 20 -37.5t42 -11.5q23 0 36.5 11t13.5 28q0 18 -14.5 30t-39.5 12h-40v82h33q27 0 37.5 11t10.5 28q0 16 -11 26t-29 10
q-23 0 -36.5 -14t-12.5 -30h-105q0 36 13.5 63.5t35.5 46t50 28.5t56 10q37 0 64.5 -11t45.5 -29t26.5 -41.5t8.5 -48.5q0 -32 -13.5 -55.5t-27.5 -37.5q19 -9 36 -32t17 -60q0 -29 -11 -53t-31.5 -41t-49.5 -27t-64 -10z" />
    <glyph glyph-name="uni2155" unicode="&#x2155;" horiz-adv-x="820" 
d="M100 606h-97l73 104h129v-432h-105v328zM68 0l500 710h128l-500 -710h-128zM652 -6q-32 0 -61.5 9.5t-52 27.5t-36.5 43.5t-15 57.5h108q5 -15 18.5 -24.5t33.5 -9.5q21 0 34.5 13.5t13.5 35.5q0 20 -14 34t-34 14q-22 0 -36 -12.5t-19 -32.5l-93 28l48 255h219v-102
h-138l-10 -51q21 9 49 9q63 0 98 -41.5t35 -107.5q0 -32 -10.5 -58.5t-30 -46t-47 -30.5t-60.5 -11z" />
    <glyph glyph-name="uni2159" unicode="&#x2159;" horiz-adv-x="779" 
d="M100 606h-97l73 104h129v-432h-105v328zM68 0l500 710h128l-500 -710h-128zM608 -6q-37 0 -65.5 12t-48 32t-30 46t-10.5 54q0 19 3 34t9.5 29t16 29t23.5 36l108 167h128l-97 -150q21 -3 41.5 -12.5t37.5 -26.5t27.5 -41.5t10.5 -56.5t-10.5 -60t-30 -48.5t-48.5 -32
t-65 -11.5zM608 95q21 0 34.5 14.5t13.5 35.5q0 20 -13.5 35t-34.5 15q-23 0 -36 -15t-13 -35q0 -21 13 -35.5t36 -14.5z" />
    <glyph glyph-name="uni2150" unicode="&#x2150;" horiz-adv-x="866" 
d="M100 606h-97l73 104h129v-432h-105v328zM68 0l500 710h128l-500 -710h-128zM541 1l190 330h-188v102h313v-92l-195 -340h-120z" />
    <glyph glyph-name="oneeighth" unicode="&#x215b;" horiz-adv-x="834" 
d="M100 606h-97l73 104h129v-432h-105v328zM68 0l500 710h128l-500 -710h-128zM652 -6q-33 0 -62 10.5t-50.5 29t-34 44t-12.5 55.5q0 63 51 99q-17 18 -25 41t-8 48q0 23 9.5 44.5t27.5 38t44.5 26.5t59.5 10t59 -10t44 -26.5t27.5 -38t9.5 -44.5q0 -24 -8 -47.5t-25 -41.5
q25 -17 38.5 -42t13.5 -57q0 -30 -12.5 -55.5t-34 -44t-50.5 -29t-62 -10.5zM652 90q24 0 37 16t13 33t-13 32.5t-37 15.5q-25 0 -38 -15.5t-13 -32.5t13 -33t38 -16zM652 268q17 0 30 11t13 29t-13 29.5t-30 11.5q-18 0 -30.5 -11.5t-12.5 -29.5t13 -29t30 -11z" />
    <glyph glyph-name="uni2151" unicode="&#x2151;" horiz-adv-x="808" 
d="M100 606h-97l73 104h129v-432h-105v328zM68 0l500 710h128l-500 -710h-128zM604 151q-21 3 -41.5 12.5t-37.5 26.5t-27.5 41.5t-10.5 56.5t10.5 60t30 48.5t48.5 32t65 11.5q37 0 65.5 -12t48 -32t30 -46t10.5 -54q0 -20 -3 -34.5t-9.5 -28.5t-16.5 -29t-23 -36
l-108 -167h-128zM641 239q23 0 36 15t13 35q0 21 -13 35.5t-36 14.5q-21 0 -34.5 -14.5t-13.5 -35.5q0 -20 13.5 -35t34.5 -15z" />
    <glyph glyph-name="uni2152" unicode="&#x2152;" horiz-adv-x="1106" 
d="M100 606h-97l73 104h129v-432h-105v328zM68 0l500 710h128l-500 -710h-128zM570 329h-97l73 104h129v-432h-105v328zM912 -6q-38 0 -68.5 13.5t-52.5 37t-34 55.5t-12 70v94q0 38 12 70t34 55.5t52.5 37t68.5 13.5q37 0 67.5 -13.5t52.5 -37t34 -55.5t12 -70v-94
q0 -38 -12 -70t-34 -55.5t-52.5 -37t-67.5 -13.5zM912 98q27 0 44 19t17 53v94q0 35 -17 53.5t-44 18.5q-28 0 -45 -18.5t-17 -53.5v-94q0 -34 17 -53t45 -19z" />
    <glyph glyph-name="twothirds" unicode="&#x2154;" horiz-adv-x="927" 
d="M327 278h-304v34q0 37 12 65t31.5 49t44 38t48.5 33q22 14 41.5 35.5t19.5 42.5q0 15 -10.5 26.5t-30.5 11.5q-24 0 -36.5 -14.5t-11.5 -29.5h-105q0 32 12 59.5t33 47t49.5 30.5t62.5 11q27 0 53 -9t45.5 -26t31.5 -43t12 -60q0 -31 -7 -54.5t-19 -42t-27.5 -32
t-31.5 -24.5q-4 -3 -13 -8t-19 -11.5t-19.5 -13t-13.5 -11.5h152v-104zM161 0l500 710h128l-500 -710h-128zM747 -6q-29 0 -58 9t-52 27.5t-38 47.5t-17 69h104q4 -26 20 -37.5t42 -11.5q23 0 36.5 11t13.5 28q0 18 -14.5 30t-39.5 12h-40v82h33q27 0 37.5 11t10.5 28
q0 16 -11 26t-29 10q-23 0 -36.5 -14t-12.5 -30h-105q0 36 13.5 63.5t35.5 46t50 28.5t56 10q37 0 64.5 -11t45.5 -29t26.5 -41.5t8.5 -48.5q0 -32 -13.5 -55.5t-27.5 -37.5q19 -9 36 -32t17 -60q0 -29 -11 -53t-31.5 -41t-49.5 -27t-64 -10z" />
    <glyph glyph-name="uni2156" unicode="&#x2156;" horiz-adv-x="913" 
d="M327 278h-304v34q0 37 12 65t31.5 49t44 38t48.5 33q22 14 41.5 35.5t19.5 42.5q0 15 -10.5 26.5t-30.5 11.5q-24 0 -36.5 -14.5t-11.5 -29.5h-105q0 32 12 59.5t33 47t49.5 30.5t62.5 11q27 0 53 -9t45.5 -26t31.5 -43t12 -60q0 -31 -7 -54.5t-19 -42t-27.5 -32
t-31.5 -24.5q-4 -3 -13 -8t-19 -11.5t-19.5 -13t-13.5 -11.5h152v-104zM161 0l500 710h128l-500 -710h-128zM745 -6q-32 0 -61.5 9.5t-52 27.5t-36.5 43.5t-15 57.5h108q5 -15 18.5 -24.5t33.5 -9.5q21 0 34.5 13.5t13.5 35.5q0 20 -14 34t-34 14q-22 0 -36 -12.5t-19 -32.5
l-93 28l48 255h219v-102h-138l-10 -51q21 9 49 9q63 0 98 -41.5t35 -107.5q0 -32 -10.5 -58.5t-30 -46t-47 -30.5t-60.5 -11z" />
    <glyph glyph-name="uni2157" unicode="&#x2157;" horiz-adv-x="894" 
d="M184 271q-29 0 -58 9t-52 27.5t-38 47.5t-17 69h104q4 -26 20 -37.5t42 -11.5q23 0 36.5 11t13.5 28q0 18 -14.5 30t-39.5 12h-40v82h33q27 0 37.5 11t10.5 28q0 16 -11 26t-29 10q-23 0 -36.5 -14t-12.5 -30h-105q0 36 13.5 63.5t35.5 46t50 28.5t56 10q37 0 64.5 -11
t45.5 -29t26.5 -41.5t8.5 -48.5q0 -32 -13.5 -55.5t-27.5 -37.5q19 -9 36 -32t17 -60q0 -29 -11 -53t-31.5 -41t-49.5 -27t-64 -10zM142 0l500 710h128l-500 -710h-128zM726 -6q-32 0 -61.5 9.5t-52 27.5t-36.5 43.5t-15 57.5h108q5 -15 18.5 -24.5t33.5 -9.5
q21 0 34.5 13.5t13.5 35.5q0 20 -14 34t-34 14q-22 0 -36 -12.5t-19 -32.5l-93 28l48 255h219v-102h-138l-10 -51q21 9 49 9q63 0 98 -41.5t35 -107.5q0 -32 -10.5 -58.5t-30 -46t-47 -30.5t-60.5 -11z" />
    <glyph glyph-name="threeeighths" unicode="&#x215c;" horiz-adv-x="908" 
d="M184 271q-29 0 -58 9t-52 27.5t-38 47.5t-17 69h104q4 -26 20 -37.5t42 -11.5q23 0 36.5 11t13.5 28q0 18 -14.5 30t-39.5 12h-40v82h33q27 0 37.5 11t10.5 28q0 16 -11 26t-29 10q-23 0 -36.5 -14t-12.5 -30h-105q0 36 13.5 63.5t35.5 46t50 28.5t56 10q37 0 64.5 -11
t45.5 -29t26.5 -41.5t8.5 -48.5q0 -32 -13.5 -55.5t-27.5 -37.5q19 -9 36 -32t17 -60q0 -29 -11 -53t-31.5 -41t-49.5 -27t-64 -10zM142 0l500 710h128l-500 -710h-128zM726 -6q-33 0 -62 10.5t-50.5 29t-34 44t-12.5 55.5q0 63 51 99q-17 18 -25 41t-8 48q0 23 9.5 44.5
t27.5 38t44.5 26.5t59.5 10t59 -10t44 -26.5t27.5 -38t9.5 -44.5q0 -24 -8 -47.5t-25 -41.5q25 -17 38.5 -42t13.5 -57q0 -30 -12.5 -55.5t-34 -44t-50.5 -29t-62 -10.5zM726 90q24 0 37 16t13 33t-13 32.5t-37 15.5q-25 0 -38 -15.5t-13 -32.5t13 -33t38 -16zM726 268
q17 0 30 11t13 29t-13 29.5t-30 11.5q-18 0 -30.5 -11.5t-12.5 -29.5t13 -29t30 -11z" />
    <glyph glyph-name="uni2158" unicode="&#x2158;" horiz-adv-x="926" 
d="M219 364h-205v85l215 261h95v-251h54v-95h-54v-86h-105v86zM219 459v96l-79 -96h79zM174 0l500 710h128l-500 -710h-128zM758 -6q-32 0 -61.5 9.5t-52 27.5t-36.5 43.5t-15 57.5h108q5 -15 18.5 -24.5t33.5 -9.5q21 0 34.5 13.5t13.5 35.5q0 20 -14 34t-34 14
q-22 0 -36 -12.5t-19 -32.5l-93 28l48 255h219v-102h-138l-10 -51q21 9 49 9q63 0 98 -41.5t35 -107.5q0 -32 -10.5 -58.5t-30 -46t-47 -30.5t-60.5 -11z" />
    <glyph glyph-name="uni215A" unicode="&#x215a;" horiz-adv-x="839" 
d="M183 271q-32 0 -61.5 9.5t-52 27.5t-36.5 43.5t-15 57.5h108q5 -15 18.5 -24.5t33.5 -9.5q21 0 34.5 13.5t13.5 35.5q0 20 -14 34t-34 14q-22 0 -36 -12.5t-19 -32.5l-93 28l48 255h219v-102h-138l-10 -51q21 9 49 9q63 0 98 -41.5t35 -107.5q0 -32 -10.5 -58.5t-30 -46
t-47 -30.5t-60.5 -11zM128 0l500 710h128l-500 -710h-128zM668 -6q-37 0 -65.5 12t-48 32t-30 46t-10.5 54q0 19 3 34t9.5 29t16 29t23.5 36l108 167h128l-97 -150q21 -3 41.5 -12.5t37.5 -26.5t27.5 -41.5t10.5 -56.5t-10.5 -60t-30 -48.5t-48.5 -32t-65 -11.5zM668 95
q21 0 34.5 14.5t13.5 35.5q0 20 -13.5 35t-34.5 15q-23 0 -36 -15t-13 -35q0 -21 13 -35.5t36 -14.5z" />
    <glyph glyph-name="fiveeighths" unicode="&#x215d;" horiz-adv-x="894" 
d="M183 271q-32 0 -61.5 9.5t-52 27.5t-36.5 43.5t-15 57.5h108q5 -15 18.5 -24.5t33.5 -9.5q21 0 34.5 13.5t13.5 35.5q0 20 -14 34t-34 14q-22 0 -36 -12.5t-19 -32.5l-93 28l48 255h219v-102h-138l-10 -51q21 9 49 9q63 0 98 -41.5t35 -107.5q0 -32 -10.5 -58.5t-30 -46
t-47 -30.5t-60.5 -11zM128 0l500 710h128l-500 -710h-128zM712 -6q-33 0 -62 10.5t-50.5 29t-34 44t-12.5 55.5q0 63 51 99q-17 18 -25 41t-8 48q0 23 9.5 44.5t27.5 38t44.5 26.5t59.5 10t59 -10t44 -26.5t27.5 -38t9.5 -44.5q0 -24 -8 -47.5t-25 -41.5q25 -17 38.5 -42
t13.5 -57q0 -30 -12.5 -55.5t-34 -44t-50.5 -29t-62 -10.5zM712 90q24 0 37 16t13 33t-13 32.5t-37 15.5q-25 0 -38 -15.5t-13 -32.5t13 -33t38 -16zM712 268q17 0 30 11t13 29t-13 29.5t-30 11.5q-18 0 -30.5 -11.5t-12.5 -29.5t13 -29t30 -11z" />
    <glyph glyph-name="seveneighths" unicode="&#x215e;" horiz-adv-x="833" 
d="M24 278l190 330h-188v102h313v-92l-195 -340h-120zM67 0l500 710h128l-500 -710h-128zM651 -6q-33 0 -62 10.5t-50.5 29t-34 44t-12.5 55.5q0 63 51 99q-17 18 -25 41t-8 48q0 23 9.5 44.5t27.5 38t44.5 26.5t59.5 10t59 -10t44 -26.5t27.5 -38t9.5 -44.5q0 -24 -8 -47.5
t-25 -41.5q25 -17 38.5 -42t13.5 -57q0 -30 -12.5 -55.5t-34 -44t-50.5 -29t-62 -10.5zM651 90q24 0 37 16t13 33t-13 32.5t-37 15.5q-25 0 -38 -15.5t-13 -32.5t13 -33t38 -16zM651 268q17 0 30 11t13 29t-13 29.5t-30 11.5q-18 0 -30.5 -11.5t-12.5 -29.5t13 -29t30 -11z
" />
    <glyph glyph-name="uni215F" unicode="&#x215f;" horiz-adv-x="470" 
d="M100 606h-97l73 104h129v-432h-105v328zM68 0l500 710h128l-500 -710h-128z" />
    <glyph glyph-name="fraction" unicode="&#x2044;" horiz-adv-x="180" 
d="M-222 0l500 710h128l-500 -710h-128z" />
    <glyph glyph-name="uni2074" unicode="&#x2074;" horiz-adv-x="396" 
d="M219 496h-205v85l215 261h95v-251h54v-95h-54v-86h-105v86zM219 591v96l-79 -96h79z" />
    <glyph glyph-name="uni2075" unicode="&#x2075;" horiz-adv-x="350" 
d="M183 403q-32 0 -61.5 9.5t-52 27.5t-36.5 43.5t-15 57.5h108q5 -15 18.5 -24.5t33.5 -9.5q21 0 34.5 13.5t13.5 35.5q0 20 -14 34t-34 14q-22 0 -36 -12.5t-19 -32.5l-93 28l48 255h219v-102h-138l-10 -51q21 9 49 9q63 0 98 -41.5t35 -107.5q0 -32 -10.5 -58.5t-30 -46
t-47 -30.5t-60.5 -11z" />
    <glyph glyph-name="uni2076" unicode="&#x2076;" horiz-adv-x="338" 
d="M167 403q-37 0 -65.5 12t-48 32t-30 46t-10.5 54q0 19 3 34t9.5 29t16 29t23.5 36l108 167h128l-97 -150q21 -3 41.5 -12.5t37.5 -26.5t27.5 -41.5t10.5 -56.5t-10.5 -60t-30 -48.5t-48.5 -32t-65 -11.5zM167 504q21 0 34.5 14.5t13.5 35.5q0 20 -13.5 35t-34.5 15
q-23 0 -36 -15t-13 -35q0 -21 13 -35.5t36 -14.5z" />
    <glyph glyph-name="uni2077" unicode="&#x2077;" horiz-adv-x="349" 
d="M24 410l190 330h-188v102h313v-92l-195 -340h-120z" />
    <glyph glyph-name="uni2078" unicode="&#x2078;" horiz-adv-x="364" 
d="M182 403q-33 0 -62 10.5t-50.5 29t-34 44t-12.5 55.5q0 63 51 99q-17 18 -25 41t-8 48q0 23 9.5 44.5t27.5 38t44.5 26.5t59.5 10t59 -10t44 -26.5t27.5 -38t9.5 -44.5q0 -24 -8 -47.5t-25 -41.5q25 -17 38.5 -42t13.5 -57q0 -30 -12.5 -55.5t-34 -44t-50.5 -29
t-62 -10.5zM182 499q24 0 37 16t13 33t-13 32.5t-37 15.5q-25 0 -38 -15.5t-13 -32.5t13 -33t38 -16zM182 677q17 0 30 11t13 29t-13 29.5t-30 11.5q-18 0 -30.5 -11.5t-12.5 -29.5t13 -29t30 -11z" />
    <glyph glyph-name="uni2079" unicode="&#x2079;" horiz-adv-x="338" 
d="M134 560q-21 3 -41.5 12.5t-37.5 26.5t-27.5 41.5t-10.5 56.5t10.5 60t30 48.5t48.5 32t65 11.5q37 0 65.5 -12t48 -32t30 -46t10.5 -54q0 -20 -3 -34.5t-9.5 -28.5t-16.5 -29t-23 -36l-108 -167h-128zM171 648q23 0 36 15t13 35q0 21 -13 35.5t-36 14.5
q-21 0 -34.5 -14.5t-13.5 -35.5q0 -20 13.5 -35t34.5 -15z" />
    <glyph glyph-name="uni2070" unicode="&#x2070;" horiz-adv-x="389" 
d="M195 403q-38 0 -68.5 13.5t-52.5 37t-34 55.5t-12 70v94q0 38 12 70t34 55.5t52.5 37t68.5 13.5q37 0 67.5 -13.5t52.5 -37t34 -55.5t12 -70v-94q0 -38 -12 -70t-34 -55.5t-52.5 -37t-67.5 -13.5zM195 507q27 0 44 19t17 53v94q0 35 -17 53.5t-44 18.5q-28 0 -45 -18.5
t-17 -53.5v-94q0 -34 17 -53t45 -19z" />
    <glyph glyph-name="uni2070.aalt" horiz-adv-x="389" 
d="M195 403q-38 0 -68.5 13.5t-52.5 37t-34 55.5t-12 70v94q0 38 12 70t34 55.5t52.5 37t68.5 13.5q37 0 67.5 -13.5t52.5 -37t34 -55.5t12 -70v-94q0 -38 -12 -70t-34 -55.5t-52.5 -37t-67.5 -13.5zM195 507q27 0 44 19t17 53v39l-120 -64q5 -23 20.5 -35t38.5 -12z
M133 636l119 64q-6 22 -21 33.5t-36 11.5q-28 0 -45 -18.5t-17 -53.5v-37z" />
    <glyph glyph-name="uni2081" unicode="&#x2081;" horiz-adv-x="247" 
d="M100 214h-97l73 104h129v-432h-105v328z" />
    <glyph glyph-name="uni2082" unicode="&#x2082;" horiz-adv-x="356" 
d="M327 -114h-304v34q0 37 12 65t31.5 49t44 38t48.5 33q22 14 41.5 35.5t19.5 42.5q0 15 -10.5 26.5t-30.5 11.5q-24 0 -36.5 -14.5t-11.5 -29.5h-105q0 32 12 59.5t33 47t49.5 30.5t62.5 11q27 0 53 -9t45.5 -26t31.5 -43t12 -60q0 -31 -7 -54.5t-19 -42t-27.5 -32
t-31.5 -24.5q-4 -3 -13 -8t-19 -11.5t-19.5 -13t-13.5 -11.5h152v-104z" />
    <glyph glyph-name="uni2083" unicode="&#x2083;" horiz-adv-x="364" 
d="M184 -121q-29 0 -58 9t-52 27.5t-38 47.5t-17 69h104q4 -26 20 -37.5t42 -11.5q23 0 36.5 11t13.5 28q0 18 -14.5 30t-39.5 12h-40v82h33q27 0 37.5 11t10.5 28q0 16 -11 26t-29 10q-23 0 -36.5 -14t-12.5 -30h-105q0 36 13.5 63.5t35.5 46t50 28.5t56 10q37 0 64.5 -11
t45.5 -29t26.5 -41.5t8.5 -48.5q0 -32 -13.5 -55.5t-27.5 -37.5q19 -9 36 -32t17 -60q0 -29 -11 -53t-31.5 -41t-49.5 -27t-64 -10z" />
    <glyph glyph-name="uni2084" unicode="&#x2084;" horiz-adv-x="396" 
d="M219 -28h-205v85l215 261h95v-251h54v-95h-54v-86h-105v86zM219 67v96l-79 -96h79z" />
    <glyph glyph-name="uni2085" unicode="&#x2085;" horiz-adv-x="350" 
d="M183 -121q-32 0 -61.5 9.5t-52 27.5t-36.5 43.5t-15 57.5h108q5 -15 18.5 -24.5t33.5 -9.5q21 0 34.5 13.5t13.5 35.5q0 20 -14 34t-34 14q-22 0 -36 -12.5t-19 -32.5l-93 28l48 255h219v-102h-138l-10 -51q21 9 49 9q63 0 98 -41.5t35 -107.5q0 -32 -10.5 -58.5t-30 -46
t-47 -30.5t-60.5 -11z" />
    <glyph glyph-name="uni2086" unicode="&#x2086;" horiz-adv-x="338" 
d="M167 -121q-37 0 -65.5 12t-48 32t-30 46t-10.5 54q0 19 3 34t9.5 29t16 29t23.5 36l108 167h128l-97 -150q21 -3 41.5 -12.5t37.5 -26.5t27.5 -41.5t10.5 -56.5t-10.5 -60t-30 -48.5t-48.5 -32t-65 -11.5zM167 -20q21 0 34.5 14.5t13.5 35.5q0 20 -13.5 35t-34.5 15
q-23 0 -36 -15t-13 -35q0 -21 13 -35.5t36 -14.5z" />
    <glyph glyph-name="uni2087" unicode="&#x2087;" horiz-adv-x="349" 
d="M24 -114l190 330h-188v102h313v-92l-195 -340h-120z" />
    <glyph glyph-name="uni2088" unicode="&#x2088;" horiz-adv-x="364" 
d="M182 -121q-33 0 -62 10.5t-50.5 29t-34 44t-12.5 55.5q0 63 51 99q-17 18 -25 41t-8 48q0 23 9.5 44.5t27.5 38t44.5 26.5t59.5 10t59 -10t44 -26.5t27.5 -38t9.5 -44.5q0 -24 -8 -47.5t-25 -41.5q25 -17 38.5 -42t13.5 -57q0 -30 -12.5 -55.5t-34 -44t-50.5 -29
t-62 -10.5zM182 -25q24 0 37 16t13 33t-13 32.5t-37 15.5q-25 0 -38 -15.5t-13 -32.5t13 -33t38 -16zM182 153q17 0 30 11t13 29t-13 29.5t-30 11.5q-18 0 -30.5 -11.5t-12.5 -29.5t13 -29t30 -11z" />
    <glyph glyph-name="uni2089" unicode="&#x2089;" horiz-adv-x="338" 
d="M134 36q-21 3 -41.5 12.5t-37.5 26.5t-27.5 41.5t-10.5 56.5t10.5 60t30 48.5t48.5 32t65 11.5q37 0 65.5 -12t48 -32t30 -46t10.5 -54q0 -20 -3 -34.5t-9.5 -28.5t-16.5 -29t-23 -36l-108 -167h-128zM171 124q23 0 36 15t13 35q0 21 -13 35.5t-36 14.5
q-21 0 -34.5 -14.5t-13.5 -35.5q0 -20 13.5 -35t34.5 -15z" />
    <glyph glyph-name="uni2080" unicode="&#x2080;" horiz-adv-x="389" 
d="M195 -121q-38 0 -68.5 13.5t-52.5 37t-34 55.5t-12 70v94q0 38 12 70t34 55.5t52.5 37t68.5 13.5q37 0 67.5 -13.5t52.5 -37t34 -55.5t12 -70v-94q0 -38 -12 -70t-34 -55.5t-52.5 -37t-67.5 -13.5zM195 -17q27 0 44 19t17 53v94q0 35 -17 53.5t-44 18.5q-28 0 -45 -18.5
t-17 -53.5v-94q0 -34 17 -53t45 -19z" />
    <glyph glyph-name="uni2080.aalt" horiz-adv-x="389" 
d="M195 -122q-38 0 -68.5 13.5t-52.5 37t-34 55.5t-12 70v94q0 38 12 70t34 55.5t52.5 37t68.5 13.5q37 0 67.5 -13.5t52.5 -37t34 -55.5t12 -70v-94q0 -38 -12 -70t-34 -55.5t-52.5 -37t-67.5 -13.5zM195 -18q27 0 44 19t17 53v39l-120 -64q5 -23 20.5 -35t38.5 -12z
M133 111l119 64q-6 22 -21 33.5t-36 11.5q-28 0 -45 -18.5t-17 -53.5v-37z" />
    <glyph glyph-name="one.numr" horiz-adv-x="247" 
d="M100 606h-97l73 104h129v-432h-105v328z" />
    <glyph glyph-name="two.numr" horiz-adv-x="356" 
d="M327 278h-304v34q0 37 12 65t31.5 49t44 38t48.5 33q22 14 41.5 35.5t19.5 42.5q0 15 -10.5 26.5t-30.5 11.5q-24 0 -36.5 -14.5t-11.5 -29.5h-105q0 32 12 59.5t33 47t49.5 30.5t62.5 11q27 0 53 -9t45.5 -26t31.5 -43t12 -60q0 -31 -7 -54.5t-19 -42t-27.5 -32
t-31.5 -24.5q-4 -3 -13 -8t-19 -11.5t-19.5 -13t-13.5 -11.5h152v-104z" />
    <glyph glyph-name="three.numr" horiz-adv-x="364" 
d="M184 271q-29 0 -58 9t-52 27.5t-38 47.5t-17 69h104q4 -26 20 -37.5t42 -11.5q23 0 36.5 11t13.5 28q0 18 -14.5 30t-39.5 12h-40v82h33q27 0 37.5 11t10.5 28q0 16 -11 26t-29 10q-23 0 -36.5 -14t-12.5 -30h-105q0 36 13.5 63.5t35.5 46t50 28.5t56 10q37 0 64.5 -11
t45.5 -29t26.5 -41.5t8.5 -48.5q0 -32 -13.5 -55.5t-27.5 -37.5q19 -9 36 -32t17 -60q0 -29 -11 -53t-31.5 -41t-49.5 -27t-64 -10z" />
    <glyph glyph-name="four.numr" horiz-adv-x="396" 
d="M219 364h-205v85l215 261h95v-251h54v-95h-54v-86h-105v86zM219 459v96l-79 -96h79z" />
    <glyph glyph-name="five.numr" horiz-adv-x="350" 
d="M183 271q-32 0 -61.5 9.5t-52 27.5t-36.5 43.5t-15 57.5h108q5 -15 18.5 -24.5t33.5 -9.5q21 0 34.5 13.5t13.5 35.5q0 20 -14 34t-34 14q-22 0 -36 -12.5t-19 -32.5l-93 28l48 255h219v-102h-138l-10 -51q21 9 49 9q63 0 98 -41.5t35 -107.5q0 -32 -10.5 -58.5t-30 -46
t-47 -30.5t-60.5 -11z" />
    <glyph glyph-name="six.numr" horiz-adv-x="338" 
d="M167 271q-37 0 -65.5 12t-48 32t-30 46t-10.5 54q0 19 3 34t9.5 29t16 29t23.5 36l108 167h128l-97 -150q21 -3 41.5 -12.5t37.5 -26.5t27.5 -41.5t10.5 -56.5t-10.5 -60t-30 -48.5t-48.5 -32t-65 -11.5zM167 372q21 0 34.5 14.5t13.5 35.5q0 20 -13.5 35t-34.5 15
q-23 0 -36 -15t-13 -35q0 -21 13 -35.5t36 -14.5z" />
    <glyph glyph-name="seven.numr" horiz-adv-x="349" 
d="M24 278l190 330h-188v102h313v-92l-195 -340h-120z" />
    <glyph glyph-name="eight.numr" horiz-adv-x="364" 
d="M182 271q-33 0 -62 10.5t-50.5 29t-34 44t-12.5 55.5q0 63 51 99q-17 18 -25 41t-8 48q0 23 9.5 44.5t27.5 38t44.5 26.5t59.5 10t59 -10t44 -26.5t27.5 -38t9.5 -44.5q0 -24 -8 -47.5t-25 -41.5q25 -17 38.5 -42t13.5 -57q0 -30 -12.5 -55.5t-34 -44t-50.5 -29
t-62 -10.5zM182 367q24 0 37 16t13 33t-13 32.5t-37 15.5q-25 0 -38 -15.5t-13 -32.5t13 -33t38 -16zM182 545q17 0 30 11t13 29t-13 29.5t-30 11.5q-18 0 -30.5 -11.5t-12.5 -29.5t13 -29t30 -11z" />
    <glyph glyph-name="nine.numr" horiz-adv-x="338" 
d="M134 428q-21 3 -41.5 12.5t-37.5 26.5t-27.5 41.5t-10.5 56.5t10.5 60t30 48.5t48.5 32t65 11.5q37 0 65.5 -12t48 -32t30 -46t10.5 -54q0 -20 -3 -34.5t-9.5 -28.5t-16.5 -29t-23 -36l-108 -167h-128zM171 516q23 0 36 15t13 35q0 21 -13 35.5t-36 14.5
q-21 0 -34.5 -14.5t-13.5 -35.5q0 -20 13.5 -35t34.5 -15z" />
    <glyph glyph-name="zero.numr" horiz-adv-x="389" 
d="M195 271q-38 0 -68.5 13.5t-52.5 37t-34 55.5t-12 70v94q0 38 12 70t34 55.5t52.5 37t68.5 13.5q37 0 67.5 -13.5t52.5 -37t34 -55.5t12 -70v-94q0 -38 -12 -70t-34 -55.5t-52.5 -37t-67.5 -13.5zM195 375q27 0 44 19t17 53v94q0 35 -17 53.5t-44 18.5q-28 0 -45 -18.5
t-17 -53.5v-94q0 -34 17 -53t45 -19z" />
    <glyph glyph-name="zero.numr.zero" horiz-adv-x="389" 
d="M195 271q-38 0 -68.5 13.5t-52.5 37t-34 55.5t-12 70v94q0 38 12 70t34 55.5t52.5 37t68.5 13.5q37 0 67.5 -13.5t52.5 -37t34 -55.5t12 -70v-94q0 -38 -12 -70t-34 -55.5t-52.5 -37t-67.5 -13.5zM195 375q27 0 44 19t17 53v39l-120 -64q5 -23 20.5 -35t38.5 -12z
M133 504l119 64q-6 22 -21 33.5t-36 11.5q-28 0 -45 -18.5t-17 -53.5v-37z" />
    <glyph glyph-name="one.dnom" horiz-adv-x="247" 
d="M100 329h-97l73 104h129v-432h-105v328z" />
    <glyph glyph-name="two.dnom" horiz-adv-x="356" 
d="M327 1h-304v34q0 37 12 65t31.5 49t44 38t48.5 33q22 14 41.5 35.5t19.5 42.5q0 15 -10.5 26.5t-30.5 11.5q-24 0 -36.5 -14.5t-11.5 -29.5h-105q0 32 12 59.5t33 47t49.5 30.5t62.5 11q27 0 53 -9t45.5 -26t31.5 -43t12 -60q0 -31 -7 -54.5t-19 -42t-27.5 -32
t-31.5 -24.5q-4 -3 -13 -8t-19 -11.5t-19.5 -13t-13.5 -11.5h152v-104z" />
    <glyph glyph-name="three.dnom" horiz-adv-x="364" 
d="M184 -6q-29 0 -58 9t-52 27.5t-38 47.5t-17 69h104q4 -26 20 -37.5t42 -11.5q23 0 36.5 11t13.5 28q0 18 -14.5 30t-39.5 12h-40v82h33q27 0 37.5 11t10.5 28q0 16 -11 26t-29 10q-23 0 -36.5 -14t-12.5 -30h-105q0 36 13.5 63.5t35.5 46t50 28.5t56 10q37 0 64.5 -11
t45.5 -29t26.5 -41.5t8.5 -48.5q0 -32 -13.5 -55.5t-27.5 -37.5q19 -9 36 -32t17 -60q0 -29 -11 -53t-31.5 -41t-49.5 -27t-64 -10z" />
    <glyph glyph-name="four.dnom" horiz-adv-x="396" 
d="M219 87h-205v85l215 261h95v-251h54v-95h-54v-86h-105v86zM219 182v96l-79 -96h79z" />
    <glyph glyph-name="five.dnom" horiz-adv-x="350" 
d="M183 -6q-32 0 -61.5 9.5t-52 27.5t-36.5 43.5t-15 57.5h108q5 -15 18.5 -24.5t33.5 -9.5q21 0 34.5 13.5t13.5 35.5q0 20 -14 34t-34 14q-22 0 -36 -12.5t-19 -32.5l-93 28l48 255h219v-102h-138l-10 -51q21 9 49 9q63 0 98 -41.5t35 -107.5q0 -32 -10.5 -58.5t-30 -46
t-47 -30.5t-60.5 -11z" />
    <glyph glyph-name="six.dnom" horiz-adv-x="338" 
d="M167 -6q-37 0 -65.5 12t-48 32t-30 46t-10.5 54q0 19 3 34t9.5 29t16 29t23.5 36l108 167h128l-97 -150q21 -3 41.5 -12.5t37.5 -26.5t27.5 -41.5t10.5 -56.5t-10.5 -60t-30 -48.5t-48.5 -32t-65 -11.5zM167 95q21 0 34.5 14.5t13.5 35.5q0 20 -13.5 35t-34.5 15
q-23 0 -36 -15t-13 -35q0 -21 13 -35.5t36 -14.5z" />
    <glyph glyph-name="seven.dnom" horiz-adv-x="349" 
d="M24 1l190 330h-188v102h313v-92l-195 -340h-120z" />
    <glyph glyph-name="eight.dnom" horiz-adv-x="364" 
d="M182 -6q-33 0 -62 10.5t-50.5 29t-34 44t-12.5 55.5q0 63 51 99q-17 18 -25 41t-8 48q0 23 9.5 44.5t27.5 38t44.5 26.5t59.5 10t59 -10t44 -26.5t27.5 -38t9.5 -44.5q0 -24 -8 -47.5t-25 -41.5q25 -17 38.5 -42t13.5 -57q0 -30 -12.5 -55.5t-34 -44t-50.5 -29t-62 -10.5
zM182 90q24 0 37 16t13 33t-13 32.5t-37 15.5q-25 0 -38 -15.5t-13 -32.5t13 -33t38 -16zM182 268q17 0 30 11t13 29t-13 29.5t-30 11.5q-18 0 -30.5 -11.5t-12.5 -29.5t13 -29t30 -11z" />
    <glyph glyph-name="nine.dnom" horiz-adv-x="338" 
d="M134 151q-21 3 -41.5 12.5t-37.5 26.5t-27.5 41.5t-10.5 56.5t10.5 60t30 48.5t48.5 32t65 11.5q37 0 65.5 -12t48 -32t30 -46t10.5 -54q0 -20 -3 -34.5t-9.5 -28.5t-16.5 -29t-23 -36l-108 -167h-128zM171 239q23 0 36 15t13 35q0 21 -13 35.5t-36 14.5
q-21 0 -34.5 -14.5t-13.5 -35.5q0 -20 13.5 -35t34.5 -15z" />
    <glyph glyph-name="zero.dnom" horiz-adv-x="389" 
d="M195 -6q-38 0 -68.5 13.5t-52.5 37t-34 55.5t-12 70v94q0 38 12 70t34 55.5t52.5 37t68.5 13.5q37 0 67.5 -13.5t52.5 -37t34 -55.5t12 -70v-94q0 -38 -12 -70t-34 -55.5t-52.5 -37t-67.5 -13.5zM195 98q27 0 44 19t17 53v94q0 35 -17 53.5t-44 18.5q-28 0 -45 -18.5
t-17 -53.5v-94q0 -34 17 -53t45 -19z" />
    <glyph glyph-name="zero.dnom.zero" horiz-adv-x="389" 
d="M195 -7q-38 0 -68.5 13.5t-52.5 37t-34 55.5t-12 70v94q0 38 12 70t34 55.5t52.5 37t68.5 13.5q37 0 67.5 -13.5t52.5 -37t34 -55.5t12 -70v-94q0 -38 -12 -70t-34 -55.5t-52.5 -37t-67.5 -13.5zM195 97q27 0 44 19t17 53v39l-120 -64q5 -23 20.5 -35t38.5 -12zM133 226
l119 64q-6 22 -21 33.5t-36 11.5q-28 0 -45 -18.5t-17 -53.5v-37z" />
    <glyph glyph-name="hyphen.aalt" horiz-adv-x="410" 
d="M58 427h294v-144h-294v144z" />
    <glyph glyph-name="uni00AD.aalt" horiz-adv-x="410" 
d="M58 427h294v-144h-294v144z" />
    <glyph glyph-name="endash.aalt" horiz-adv-x="599" 
d="M58 427h483v-144h-483v144z" />
    <glyph glyph-name="emdash.aalt" horiz-adv-x="955" 
d="M58 427h839v-144h-839v144z" />
    <glyph glyph-name="questiondown.aalt" horiz-adv-x="523" 
d="M363 428q0 -45 -21.5 -75.5t-63.5 -59.5q-17 -11 -32.5 -20t-28 -19.5t-20 -23t-7.5 -30.5q0 -31 21.5 -47t51.5 -16q31 0 56.5 19.5t25.5 58.5h151q0 -47 -18 -88.5t-49.5 -72t-74 -48.5t-91.5 -18q-50 0 -91 17t-70.5 45t-46 64.5t-16.5 76.5q0 26 3.5 49t13 44
t26.5 40.5t43 39.5q40 30 63.5 47t23.5 35v1h151v-19zM289 508q-22 0 -41.5 8.5t-34 23t-23 34t-8.5 41.5t8.5 41.5t23 34t34 23t41.5 8.5t41.5 -8.5t34 -23t23 -34t8.5 -41.5t-8.5 -41.5t-23 -34t-34 -23t-41.5 -8.5z" />
    <glyph glyph-name="exclamdown.aalt" horiz-adv-x="302" 
d="M227 263v-263h-152v263l29 184h93zM151 508q-22 0 -41.5 8.5t-34 23t-23 34t-8.5 41.5t8.5 41.5t23 34t34 23t41.5 8.5t41.5 -8.5t34 -23t23 -34t8.5 -41.5t-8.5 -41.5t-23 -34t-34 -23t-41.5 -8.5z" />
    <glyph glyph-name="guilsinglleft.aalt" horiz-adv-x="352" 
d="M172 572h131l-116 -217l116 -217h-131l-141 217z" />
    <glyph glyph-name="guilsinglright.aalt" horiz-adv-x="352" 
d="M179.989 572h-130.992l115.993 -217l-115.993 -217h130.992l140.991 217z" />
    <glyph glyph-name="guillemotleft.aalt" horiz-adv-x="563" 
d="M383 572h131l-116 -217l116 -217h-131l-141 217zM172 572h131l-116 -217l116 -217h-131l-141 217z" />
    <glyph glyph-name="guillemotright.aalt" horiz-adv-x="563" 
d="M-30.998 572h-130.992l115.993 -217l-115.993 -217h130.992l140.991 217zM179.989 572h-130.992l115.993 -217l-115.993 -217h130.992l140.991 217z" />
    <glyph glyph-name="parenleft.aalt" horiz-adv-x="308" 
d="M168 -125q-128 232 -128 480t128 480h119q-64 -124 -92.5 -240.5t-28.5 -239.5t28.5 -239.5t92.5 -240.5h-119z" />
    <glyph glyph-name="parenright.aalt" horiz-adv-x="308" 
d="M139.991 -125q127.992 232 127.992 480t-127.992 480h-118.992q63.9961 -124 92.4941 -240.5t28.498 -239.5t-28.498 -239.5t-92.4941 -240.5h118.992z" />
    <glyph glyph-name="bracketleft.aalt" horiz-adv-x="340" 
d="M75 835h230v-108h-104v-744h104v-108h-230v960z" />
    <glyph glyph-name="bracketright.aalt" horiz-adv-x="340" 
d="M264.983 835h-229.985v-108h103.993v-744h-103.993v-108h229.985v960z" />
    <glyph glyph-name="braceleft.aalt" horiz-adv-x="355" 
d="M233 -125q-66 0 -104.5 38.5t-38.5 103.5v229q0 22 -12 38.5t-41 16.5h-8v108h8q29 0 41 15.5t12 37.5v231q0 65 38.5 103.5t104.5 38.5h88v-108h-48q-31 0 -43.5 -12.5t-12.5 -44.5v-217q0 -44 -18 -67.5t-45 -30.5q27 -7 45 -32t18 -69v-214q0 -32 12.5 -44.5
t43.5 -12.5h48v-108h-88z" />
    <glyph glyph-name="braceright.aalt" horiz-adv-x="355" 
d="M121.992 -125q65.9961 0 104.494 38.5q38.4971 38.5 38.4971 103.5v229q0 22 12 38.5q11.999 16.5 40.9971 16.5h8v108h-8q-28.998 0 -40.9971 15.5q-12 15.5 -12 37.5v231q0 65 -38.4971 103.5q-38.498 38.5 -104.494 38.5h-87.9941v-108h47.9971
q30.998 0 43.4971 -12.5t12.499 -44.5v-217q0 -44 17.999 -67.5t44.9971 -30.5q-26.998 -7 -44.9971 -32t-17.999 -69v-214q0 -32 -12.499 -44.5t-43.4971 -12.5h-47.9971v-108h87.9941z" />
    <glyph glyph-name="bar.aalt" horiz-adv-x="276" 
d="M75 765h126v-820h-126v820z" />
    <glyph glyph-name="brokenbar.aalt" horiz-adv-x="276" 
d="M75 288h126v-343h-126v343zM75 765h126v-343h-126v343z" />
    <glyph glyph-name="periodcentered.aalt" horiz-adv-x="300" 
d="M150 248q-22 0 -41.5 8.5t-34 23t-23 34t-8.5 41.5t8.5 41.5t23 34t34 23t41.5 8.5t41.5 -8.5t34 -23t23 -34t8.5 -41.5t-8.5 -41.5t-23 -34t-34 -23t-41.5 -8.5z" />
    <glyph glyph-name="plus.aalt" horiz-adv-x="498" 
d="M39 420h145v145h130v-145h145v-131h-145v-145h-130v145h-145v131z" />
    <glyph glyph-name="minus.aalt" horiz-adv-x="538" 
d="M59 420h420v-131h-420v131z" />
    <glyph glyph-name="multiply.aalt" horiz-adv-x="521" 
d="M46 232l123 123l-123 123l92 92l123 -122l123 122l91 -92l-122 -123l122 -123l-91 -92l-123 122l-123 -122z" />
    <glyph glyph-name="equal.aalt" horiz-adv-x="536" 
d="M58 315h420v-130h-420v130zM58 524h420v-131h-420v131z" />
    <glyph glyph-name="less.aalt" horiz-adv-x="509" 
d="M219 355l253 -253h-188l-253 253l253 253h188z" />
    <glyph glyph-name="greater.aalt" horiz-adv-x="509" 
d="M289.982 355l-252.984 -253h187.988l252.984 253l-252.984 253h-187.988z" />
    <glyph glyph-name="acute.aalt" 
d="M-48 927h166l-125 -157h-111z" />
    <glyph glyph-name="breve.aalt" 
d="M0 747q-37 0 -69.5 12.5t-56.5 36t-38 57t-14 74.5h86q0 -47 27 -70t65 -23t65 23t27 70h86q0 -41 -14 -74.5t-38 -57t-56.5 -36t-69.5 -12.5z" />
    <glyph glyph-name="caron.aalt" 
d="M-176 830v118l176 -68l176 68v-118l-176 -68z" />
    <glyph glyph-name="cedilla.aalt" 
d="M-121 -139q16 -9 37 -13t39 -4q10 0 20.5 1t19.5 4.5t14.5 9.5t5.5 16q0 14 -12 20.5t-31 6.5q-8 0 -19 -2.5t-21 -7.5l-36 19l56 92h64l-30 -50q13 3 23.5 5t25.5 2q36 0 61 -20.5t25 -58.5q0 -23 -12 -41.5t-31.5 -31.5t-44 -20t-50.5 -7q-22 0 -50 2.5t-54 12.5v65z
" />
    <glyph glyph-name="circumflex.aalt" 
d="M-176 880l176 68l176 -68v-118l-176 68l-176 -68v118z" />
    <glyph glyph-name="dieresis.aalt" 
d="M-118 768q-17 0 -31.5 6.5t-25.5 17.5t-17.5 25.5t-6.5 30.5q0 34 23.5 57.5t57.5 23.5q16 0 30.5 -6.5t25 -17.5t17 -25.5t6.5 -31.5q0 -16 -6.5 -30.5t-17 -25.5t-25 -17.5t-30.5 -6.5zM119 768q-17 0 -31.5 6.5t-25 17.5t-17 25.5t-6.5 30.5q0 34 23.5 57.5t56.5 23.5
t56.5 -23.5t23.5 -57.5q0 -16 -6.5 -30.5t-17 -25.5t-25.5 -17.5t-31 -6.5z" />
    <glyph glyph-name="dotaccent.aalt" 
d="M0 768q-17 0 -31.5 6.5t-25.5 17.5t-17.5 25.5t-6.5 30.5q0 34 23.5 57.5t57.5 23.5q33 0 56.5 -23.5t23.5 -57.5q0 -16 -6.5 -30.5t-17 -25.5t-25.5 -17.5t-31 -6.5z" />
    <glyph glyph-name="glyph524" 
d="M0 -80q-34 0 -57.5 23.5t-23.5 56.5q0 34 23.5 57.5t57.5 23.5q33 0 56.5 -23.5t23.5 -57.5q0 -33 -23.5 -56.5t-56.5 -23.5z" />
    <glyph glyph-name="glyph525" 
d="M0 -227q-34 0 -57.5 23.5t-23.5 56.5t23.5 56.5t57.5 23.5q33 0 56.5 -23.5t23.5 -56.5t-23.5 -56.5t-56.5 -23.5z" />
    <glyph glyph-name="glyph526" 
d="M-31 -220q-20 8 -34.5 27.5t-14.5 46.5q0 33 23 56t57 23q33 0 56.5 -23t23.5 -56q0 -26 -16 -52l-75 -118h-64z" />
    <glyph glyph-name="grave.aalt" 
d="M7 770l-125 157h166l70 -157h-111z" />
    <glyph glyph-name="hungarumlaut.aalt" 
d="M48 927h156l-127 -157h-95zM-139 927h157l-127 -157h-95z" />
    <glyph glyph-name="macron.aalt" 
d="M-174 891h348v-104h-348v104z" />
    <glyph glyph-name="ogonek.aalt" 
d="M3 -219q-54 0 -84.5 29t-30.5 74q0 34 17.5 64t46.5 52h159q-38 -15 -61.5 -36.5t-23.5 -45.5q0 -13 11 -18t25 -5t28 4.5t21 9.5v-99q-12 -9 -41 -19t-67 -10z" />
    <glyph glyph-name="ring.aalt" 
d="M1 753q-25 0 -47 9.5t-38.5 26t-26.5 38t-10 46.5t10 46.5t26.5 38t38.5 26t47 9.5t47 -9.5t38.5 -26t26.5 -38t10 -46.5t-10 -46.5t-26.5 -38t-38.5 -26t-47 -9.5zM1 818q23 0 39.5 16t16.5 39t-16.5 39t-39.5 16t-39.5 -16t-16.5 -39t16.5 -39t39.5 -16z" />
    <glyph glyph-name="tilde.aalt" 
d="M-189 804q4 28 15.5 50t28 37t36.5 22.5t41 7.5q23 0 42.5 -7.5t35.5 -16t29.5 -16t25.5 -7.5q20 0 29 12.5t15 35.5h83l-4 -28q-4 -29 -16 -50.5t-28.5 -36.5t-36.5 -22.5t-41 -7.5q-23 0 -42.5 7.5t-35.5 16t-29.5 16t-24.5 7.5q-20 0 -29 -12.5t-16 -35.5h-82z" />
    <glyph glyph-name="glyph533" 
d="M-175 427h351v-138h-351v138z" />
    <glyph glyph-name="glyph534" 
d="M-285 -18l-89 90l657 656l89 -90z" />
    <glyph glyph-name="glyph535" 
d="M-180 213v124l360 206v-125z" />
    <glyph glyph-name="glyph536" 
d="M-215 421h431v-138h-431v138z" />
    <glyph glyph-name="glyph537" 
d="M-374 623h748v-108h-748v108z" />
    <glyph glyph-name="uni0437.aalt" horiz-adv-x="542" 
d="M164 -17q8 -30 35.5 -50t68.5 -20q45 0 68.5 25t23.5 67t-25 67.5t-82 25.5h-58v122h58q41 0 63.5 22t22.5 60q0 34 -21 55.5t-58 21.5q-32 0 -53.5 -13.5t-32.5 -36.5h-152q10 48 34.5 82.5t58 56.5t74 32.5t83.5 10.5q51 0 90 -16t65.5 -43t40.5 -61.5t14 -70.5
q0 -97 -69 -149q48 -25 73.5 -71t25.5 -106q0 -50 -17 -89.5t-48.5 -67t-76.5 -42t-100 -14.5q-50 0 -94 12.5t-78.5 38t-58 63t-31.5 88.5h156z" />
    <glyph glyph-name="uni0449" unicode="&#x449;" horiz-adv-x="886" 
d="M859 -122h-134v122h-663v500h151v-369h130v369h151v-369h130v369h151v-369h84v-253z" />
    <glyph glyph-name="uni0449.aalt" horiz-adv-x="944" 
d="M682 500h151v-330q0 -21 8.5 -30t30.5 -9h45v-253h-134v122h-6q-32 0 -56.5 16.5t-26.5 49.5q-21 -31 -54 -54t-86 -23q-54 0 -93 23t-62 65q-12 -23 -30 -40t-39 -27.5t-43 -15.5t-41 -5q-92 0 -141 60.5t-49 165.5v285h151v-259q0 -55 17 -85t55 -30t63 29.5t27 94.5
v250h151v-259q0 -55 17 -85t55 -30q40 0 65 31t25 100v243z" />
    <glyph glyph-name="uniF6D1" unicode="&#xf6d1;" 
d="M0 747q-37 0 -69.5 12.5t-56.5 36t-38 57t-14 74.5h96q0 -42 22 -67.5t60 -25.5t60 25.5t22 67.5h96q0 -41 -14 -74.5t-38 -57t-56.5 -36t-69.5 -12.5z" />
    <glyph glyph-name="uni049A" unicode="&#x49a;" horiz-adv-x="730" 
d="M233 318v-318h-158v710h158v-297l241 297h195l-280 -341l337 -369h-204zM584 0h-23v152h166v-300h-143v148z" />
    <glyph glyph-name="uni044A.aalt" horiz-adv-x="586" 
d="M329 -11q-50 0 -86 17t-59 44t-34 60t-11 64v195h-121v131h272v-140h82q50 0 86 -17.5t59 -44.5t34 -60t11 -64t-11 -64t-34 -60t-59 -44t-86 -17h-43zM421 174q0 29 -18.5 43.5t-47.5 14.5h-65v-58q0 -29 18 -43t47 -14t47.5 14t18.5 43z" />
    <glyph glyph-name="uni04C0" unicode="&#x4c0;" horiz-adv-x="309" 
d="M75 710h159v-710h-159v710z" />
    <glyph glyph-name="uni040E" unicode="&#x40e;" horiz-adv-x="731" 
d="M131 143q14 -2 31.5 -3t34.5 -1q27 0 50.5 6.5t43.5 32.5l-275 532h182l184 -356l175 356h182l-264 -529q-26 -51 -53 -87.5t-57.5 -60t-66 -34.5t-78.5 -11q-32 0 -49.5 1.5t-39.5 5.5v148zM379 747q-37 0 -69.5 12.5t-56.5 36t-38 57t-14 74.5h96q0 -42 22 -67.5
t60 -25.5t60 25.5t22 67.5h96q0 -41 -14 -74.5t-38 -57t-56.5 -36t-69.5 -12.5z" />
    <glyph glyph-name="uni041E" unicode="&#x41e;" horiz-adv-x="804" 
d="M402 142q43 0 80.5 17t65.5 46.5t44 68t16 81.5t-16 81.5t-44 68t-65.5 46.5t-80.5 17q-44 0 -81.5 -17t-65.5 -46.5t-44 -68t-16 -81.5t16 -81.5t44 -68t65.5 -46.5t81.5 -17zM402 -12q-76 0 -143 29t-116.5 79t-78.5 116.5t-29 142.5t29 142.5t78.5 116.5t116.5 79
t143 29t142.5 -29t116.5 -79t79 -116.5t29 -142.5t-29 -142.5t-79 -116.5t-116.5 -79t-142.5 -29z" />
    <glyph glyph-name="uni041C" unicode="&#x41c;" horiz-adv-x="884" 
d="M220 710l221 -306l223 306h145v-710h-160v437l-207 -286l-208 287v-438h-159v710h145z" />
    <glyph glyph-name="uni041A" unicode="&#x41a;" horiz-adv-x="700" 
d="M233 318v-318h-158v710h158v-297l241 297h195l-280 -341l337 -369h-204z" />
    <glyph glyph-name="glyph549" 
d="M-165 189v96h330v-96h-330z" />
    <glyph glyph-name="uni0416" unicode="&#x416;" horiz-adv-x="1035" 
d="M597 307v-307h-160v306l-260 -306h-196l304 361l-273 349h187l238 -307v307h160v-308l239 308h187l-274 -349l305 -361h-196z" />
    <glyph glyph-name="uni0417" unicode="&#x417;" horiz-adv-x="592" 
d="M48 509q11 58 36.5 99t60 66t75.5 36.5t82 11.5q50 0 92 -13.5t72.5 -38t47.5 -59t17 -77.5q0 -38 -13 -78t-54 -75q46 -29 68.5 -73.5t22.5 -96.5q0 -53 -20 -94t-54.5 -70t-80.5 -44t-97 -15t-99 15t-86.5 44.5t-64 73.5t-31.5 102h159q12 -42 43.5 -63.5t76.5 -21.5
q51 0 75 24t24 61q0 34 -23 54.5t-63 20.5h-85v134h75q35 0 54 20t19 52q0 31 -20 51.5t-58 20.5q-37 0 -60 -19.5t-33 -47.5h-158z" />
    <glyph glyph-name="uni0414" unicode="&#x414;" horiz-adv-x="779" 
d="M606 0h-435v-148h-143v300h12q18 0 34 9t28.5 31t20 58.5t7.5 91.5v368h527v-558h92v-300h-143v148zM290 329q0 -60 -8.5 -101t-27.5 -76h243v406h-207v-229z" />
    <glyph glyph-name="uni0415" unicode="&#x415;" horiz-adv-x="571" 
d="M75 710h450v-152h-291v-127h231v-152h-231v-127h291v-152h-450v710z" />
    <glyph glyph-name="uni0412" unicode="&#x412;" horiz-adv-x="635" 
d="M75 710h267q43 0 81.5 -16.5t67.5 -45t45.5 -67t16.5 -82.5q0 -38 -14 -68.5t-37 -53.5q45 -23 73 -67t28 -101q0 -44 -16.5 -82t-45.5 -66.5t-68.5 -44.5t-85.5 -16h-312v710zM374 146q32 0 53 20.5t21 50.5q0 29 -21.5 50t-53.5 21h-139v-142h140zM324 423
q32 0 53 20.5t21 49.5t-21 50.5t-53 21.5h-90v-142h90z" />
    <glyph glyph-name="uni0419" unicode="&#x419;" horiz-adv-x="792" 
d="M75 0v710h160v-439l345 439h137v-710h-159v439l-346 -439h-137zM406 747q-37 0 -69.5 12.5t-56.5 36t-38 57t-14 74.5h96q0 -42 22 -67.5t60 -25.5t60 25.5t22 67.5h96q0 -41 -14 -74.5t-38 -57t-56.5 -36t-69.5 -12.5z" />
    <glyph glyph-name="uni04CF" unicode="&#x4cf;" horiz-adv-x="275" 
d="M62 750h151v-750h-151v750z" />
    <glyph glyph-name="uni0431.aalt" horiz-adv-x="589" 
d="M67 569q0 84 58.5 132.5t176.5 48.5h177v-132h-182q-36 0 -59.5 -16.5t-23.5 -49.5t23.5 -50t59.5 -17h17q49 0 93 -18.5t77.5 -50.5t53 -74.5t19.5 -91.5q0 -55 -20 -102.5t-55 -83t-83 -55.5t-104 -20t-104 20t-83 55.5t-55 83t-20 102.5q0 53 20 102.5t67 87.5
q-30 30 -41.5 63.5t-11.5 65.5zM294 130q47 0 79 29t32 87q0 21 -8.5 40.5t-23.5 34.5t-36 24t-46 9q-28 0 -48.5 -9t-33.5 -24t-19 -34.5t-6 -40.5q0 -57 31 -86.5t79 -29.5z" />
    <glyph glyph-name="glyph558" 
d="M-66 710v148h143v-148h-143z" />
    <glyph glyph-name="uni043E" unicode="&#x43e;" horiz-adv-x="588" 
d="M294 -11q-54 0 -102 20t-83.5 55.5t-56.5 83t-21 102.5t21 102.5t56.5 83t83.5 55.5t102 20t102 -20t83.5 -55.5t56.5 -83t21 -102.5t-21 -102.5t-56.5 -83t-83.5 -55.5t-102 -20zM294 130q48 0 79.5 33t31.5 87t-31.5 87t-79.5 33t-79.5 -33t-31.5 -87t31.5 -87
t79.5 -33z" />
    <glyph glyph-name="uni0405" unicode="&#x405;" horiz-adv-x="602" 
d="M312 -12q-66 0 -117 21t-86.5 54.5t-55 76.5t-21.5 88h159q8 -45 41 -69t80 -24q40 0 66 16.5t26 46.5q0 25 -21 44t-72 33l-69 18q-85 23 -138 76t-54 137q0 50 17 90t49.5 68t77.5 43t100 15q58 0 105 -19.5t80 -51t51 -71t20 -80.5h-158q-12 42 -40.5 58.5t-57.5 16.5
q-35 0 -59 -14.5t-25 -43.5t21.5 -47t64.5 -29l81 -21q88 -23 138 -78t50 -139q0 -45 -18 -84.5t-51 -68.5t-80 -45.5t-104 -16.5z" />
    <glyph glyph-name="uni043A" unicode="&#x43a;" horiz-adv-x="559" 
d="M213 194v-194h-151v500h151v-197l155 197h177l-198 -247l231 -253h-191z" />
    <glyph glyph-name="uni0442.aalt" horiz-adv-x="895" 
d="M688 259q0 55 -17 85t-55 30q-39 0 -63.5 -30t-26.5 -95v-249h-151v259q0 55 -17 85t-55 30q-40 0 -65 -31t-25 -100v-243h-151v500h151v-51q20 26 51.5 44t76.5 18q54 0 92.5 -23t61.5 -65q12 23 30 39.5t39 27.5t43 16t42 5q92 0 141 -60.5t49 -165.5v-285h-151v259z
" />
    <glyph glyph-name="uni043F" unicode="&#x43f;" horiz-adv-x="604" 
d="M62 500h480v-500h-151v369h-178v-369h-151v500z" />
    <glyph glyph-name="uni0496" unicode="&#x496;" horiz-adv-x="1063" 
d="M597 307v-307h-160v306l-260 -306h-196l304 361l-273 349h187l238 -307v307h160v-308l239 308h187l-274 -349l305 -361h-196zM913 0h-23v152h166v-300h-143v148z" />
    <glyph glyph-name="uni040C" unicode="&#x40c;" horiz-adv-x="700" 
d="M233 318v-318h-158v710h158v-297l241 297h195l-280 -341l337 -369h-204zM374 927h166l-125 -157h-111z" />
    <glyph glyph-name="uni0491" unicode="&#x491;" horiz-adv-x="433" 
d="M62 500h353v-131h-202v-369h-151v500zM281 500v122h134v-122h-134z" />
    <glyph glyph-name="uni041B.aalt" horiz-adv-x="750" 
d="M303 710h144l304 -710h-166l-210 491l-210 -491h-166z" />
    <glyph glyph-name="uni045B" unicode="&#x45b;" horiz-adv-x="602" 
d="M-29 575v96h91v79h151v-79h164v-96h-164v-126q18 26 54 44t85 18q46 0 82 -16.5t61 -45.5t38 -70t13 -90v-289h-151v263q0 52 -20 81.5t-61 29.5q-43 0 -72 -31.5t-29 -99.5v-243h-151v575h-91z" />
    <glyph glyph-name="uni045C" unicode="&#x45c;" horiz-adv-x="559" 
d="M213 194v-194h-151v500h151v-197l155 197h177l-198 -247l231 -253h-191zM360 750h172l-171 -190h-110z" />
    <glyph glyph-name="uni045A" unicode="&#x45a;" horiz-adv-x="827" 
d="M662 157q0 17 -11 25.5t-27 8.5h-82v-66h82q16 0 27 7.5t11 24.5zM803 162q0 -25 -8.5 -53.5t-28 -52.5t-50.5 -40t-76 -16h-249v185h-178v-185h-151v500h151v-184h178v184h151v-184h98q45 0 76 -14.5t50.5 -37t28 -50t8.5 -52.5z" />
    <glyph glyph-name="uni045F" unicode="&#x45f;" horiz-adv-x="604" 
d="M369 0v-122h-134v122h-173v500h151v-368h178v368h151v-500h-173z" />
    <glyph glyph-name="uni045E" unicode="&#x45e;" horiz-adv-x="576" 
d="M334 -56q-36 -83 -86 -122.5t-128 -39.5q-22 0 -38.5 1t-30.5 3v128q11 -1 21.5 -1.5t27.5 -0.5q26 0 47.5 15t38.5 53l22 49l-208 471h165l129 -295l118 295h166zM289 552q-37 0 -69.5 12.5t-56.5 36t-38 56t-14 73.5v20h96v-20q0 -46 24 -69t58 -23t58 23t24 69v20h96
v-20q0 -41 -14 -73.5t-38 -56t-56.5 -36t-69.5 -12.5z" />
    <glyph glyph-name="uni0458" unicode="&#x458;" horiz-adv-x="283" 
d="M221 -30q0 -48 -16 -83.5t-43 -59t-62 -35t-74 -11.5q-17 0 -33 1t-28 3v128q5 -1 12.5 -1.5t12.5 -0.5q40 0 60 19.5t20 64.5v505h151v-530zM145 568q-19 0 -36 7.5t-30 20t-20.5 29.5t-7.5 37q0 19 7.5 36.5t20.5 30t30 20t36 7.5q20 0 37.5 -7.5t30 -20t20 -30
t7.5 -36.5q0 -20 -7.5 -37t-20 -29.5t-30 -20t-37.5 -7.5z" />
    <glyph glyph-name="uni0459" unicode="&#x459;" horiz-adv-x="838" 
d="M553 125h82q16 0 27 7.5t11 24.5t-11 25.5t-27 8.5h-82v-66zM553 500v-184h98q45 0 76 -14.5t50.5 -37t28 -50t8.5 -52.5t-8.5 -53.5t-28 -52.5t-50.5 -40t-76 -16h-249v369h-135v-181q0 -53 -15.5 -91t-40.5 -62t-57 -35t-65 -11q-23 0 -39.5 1t-30.5 4v128
q8 -1 17.5 -1.5t17.5 -0.5q29 0 45.5 16.5t16.5 67.5v296h437z" />
    <glyph glyph-name="uni0452" unicode="&#x452;" horiz-adv-x="602" 
d="M351 -219q-17 0 -33 1t-28 3v128q5 -1 12.5 -1.5t12.5 -0.5q40 0 60 19.5t20 64.5v268q0 52 -20 81.5t-61 29.5q-43 0 -72 -31.5t-29 -99.5v-243h-151v575h-91v96h91v79h151v-79h164v-96h-164v-126q18 26 54 44t85 18q46 0 82 -16.5t61 -45.5t38 -70t13 -90v-319
q0 -48 -16 -83.5t-43 -59t-62 -35t-74 -11.5z" />
    <glyph glyph-name="uni0453" unicode="&#x453;" horiz-adv-x="433" 
d="M62 500h353v-131h-202v-369h-151v500zM297 750h172l-171 -190h-110z" />
    <glyph glyph-name="uni0456" unicode="&#x456;" horiz-adv-x="275" 
d="M137 568q-19 0 -36 7.5t-30 20t-20.5 29.5t-7.5 37q0 19 7.5 36.5t20.5 30t30 20t36 7.5q20 0 37.5 -7.5t30 -20t20 -30t7.5 -36.5q0 -20 -7.5 -37t-20 -29.5t-30 -20t-37.5 -7.5zM62 500h151v-500h-151v500z" />
    <glyph glyph-name="uni0457" unicode="&#x457;" horiz-adv-x="275" 
d="M62 500h151v-500h-151v500zM44 572q-33 0 -56.5 23.5t-23.5 55.5q0 33 23.5 56.5t56.5 23.5q32 0 55.5 -23.5t23.5 -56.5q0 -32 -23.5 -55.5t-55.5 -23.5zM231 572q-32 0 -55.5 23.5t-23.5 55.5q0 33 23.5 56.5t55.5 23.5q33 0 56.5 -23.5t23.5 -56.5q0 -32 -23.5 -55.5
t-56.5 -23.5z" />
    <glyph glyph-name="uni0454" unicode="&#x454;" horiz-adv-x="579" 
d="M295 -11q-57 0 -105 20.5t-83.5 55.5t-55 83t-19.5 102t19.5 102t55 83t83.5 55.5t105 20.5q53 0 96.5 -15.5t76 -43.5t54 -65.5t31.5 -81.5h-156q-14 30 -38 50t-64 20q-35 0 -62 -18.5t-40 -52.5h146v-96h-150q11 -40 39.5 -61.5t66.5 -21.5q40 0 64 20t38 50h156
q-10 -44 -31.5 -81.5t-54 -65.5t-76 -43.5t-96.5 -15.5z" />
    <glyph glyph-name="uni0455" unicode="&#x455;" horiz-adv-x="510" 
d="M264 -11q-51 0 -93 13.5t-72.5 37t-48 55t-19.5 68.5h159q2 -30 24.5 -45t54.5 -15q29 0 42.5 9t13.5 23q0 17 -14 25.5t-43 16.5l-101 26q-66 17 -96 59t-30 98q0 33 14 60.5t41 47.5t65.5 31.5t88.5 11.5q41 0 77.5 -10.5t64.5 -31t45 -50.5t20 -70h-152
q-5 28 -21.5 37t-36.5 9q-23 0 -37 -8.5t-14 -23.5q0 -10 4.5 -16.5t12 -10.5t16.5 -7t18 -5l91 -24q76 -20 108.5 -58.5t32.5 -98.5q0 -35 -16 -63.5t-44.5 -48.5t-68 -31t-86.5 -11z" />
    <glyph glyph-name="uni0429" unicode="&#x429;" horiz-adv-x="1024" 
d="M851 0h-776v710h160v-558h173v558h160v-558h173v558h160v-558h93v-300h-143v148z" />
    <glyph glyph-name="uni0428" unicode="&#x428;" horiz-adv-x="976" 
d="M75 710h160v-558h173v558h160v-558h173v558h160v-710h-826v710z" />
    <glyph glyph-name="uni0427" unicode="&#x427;" horiz-adv-x="687" 
d="M452 0v304q-32 -35 -72.5 -50.5t-94.5 -15.5q-51 0 -95 17t-76.5 48t-51.5 74t-19 95v238h160v-195q0 -66 31.5 -94.5t83.5 -28.5q57 0 95.5 35.5t38.5 114.5v168h160v-710h-160z" />
    <glyph glyph-name="uni0426" unicode="&#x426;" horiz-adv-x="772" 
d="M742 152v-300h-143v148h-524v710h160v-558h254v558h160v-558h93z" />
    <glyph glyph-name="uni0425" unicode="&#x425;" horiz-adv-x="704" 
d="M-9 0l266 359l-250 351h184l161 -228l161 228h184l-249 -351l265 -359h-185l-176 235l-175 -235h-186z" />
    <glyph glyph-name="uni0424" unicode="&#x424;" horiz-adv-x="906" 
d="M373 -30v87q-77 0 -139.5 19.5t-107 57.5t-68.5 94.5t-24 130.5q0 73 24 129t68.5 94t107 58t139.5 20v80h160v-80q77 0 139.5 -20t107 -58t68.5 -94t24 -129q0 -74 -24 -130.5t-68.5 -94.5t-107 -57.5t-139.5 -19.5v-87h-160zM533 201q49 0 83 12t55 33.5t30.5 50.5
t9.5 63t-9.5 63t-30.5 50t-55 32.5t-83 11.5v-316zM373 517q-49 0 -83 -11.5t-55 -32.5t-30.5 -50t-9.5 -63t9.5 -63t30.5 -50.5t55 -33.5t83 -12v316z" />
    <glyph glyph-name="uni0423" unicode="&#x423;" horiz-adv-x="731" 
d="M131 143q14 -2 31.5 -3t34.5 -1q27 0 50.5 6.5t43.5 32.5l-275 532h182l184 -356l175 356h182l-264 -529q-26 -51 -53 -87.5t-57.5 -60t-66 -34.5t-78.5 -11q-32 0 -49.5 1.5t-39.5 5.5v148z" />
    <glyph glyph-name="uni0422" unicode="&#x422;" horiz-adv-x="568" 
d="M203 558h-181v152h524v-152h-183v-558h-160v558z" />
    <glyph glyph-name="uni0421" unicode="&#x421;" horiz-adv-x="778" 
d="M409 -12q-81 0 -149.5 28.5t-118 78t-77.5 116.5t-28 144t28 144t77.5 116.5t118 78t149.5 28.5q58 0 113.5 -18t102 -51t80.5 -80.5t49 -106.5h-173q-23 50 -71 76t-101 26q-49 0 -88.5 -16.5t-67 -45.5t-42.5 -67.5t-15 -83.5t15 -83.5t42.5 -67.5t67 -45.5t88.5 -16.5
q53 0 101 26t71 76h173q-15 -59 -49 -106.5t-80.5 -80.5t-102 -51t-113.5 -18z" />
    <glyph glyph-name="uni0420" unicode="&#x420;" horiz-adv-x="593" 
d="M566 467q0 -51 -19 -95.5t-52.5 -77t-79 -51t-99.5 -18.5h-82v-225h-159v710h241q54 0 99.5 -18.5t79 -51.5t52.5 -77.5t19 -95.5zM412 467q0 40 -27.5 66.5t-70.5 26.5h-80v-186h80q43 0 70.5 27t27.5 66z" />
    <glyph glyph-name="uni0430" unicode="&#x430;" horiz-adv-x="613" 
d="M264 -11q-49 0 -91.5 21t-73.5 56.5t-49 83t-18 100.5t18 100.5t49 83t73.5 56.5t91.5 21q25 0 46.5 -5.5t39 -14.5t30 -20t20.5 -21v50h151v-500h-151v50q-8 -10 -20.5 -21t-30 -20t-39 -14.5t-46.5 -5.5zM298 126q51 0 82.5 35t31.5 89t-31.5 89t-82.5 35t-82.5 -35
t-31.5 -89t31.5 -89t82.5 -35z" />
    <glyph glyph-name="uni0431" unicode="&#x431;" horiz-adv-x="601" 
d="M306 -11q-65 0 -114 21.5t-81.5 62t-49 98.5t-16.5 131v23q0 100 21 170t61 116.5t97 72.5t128 39l172 31v-143l-139 -25q-77 -14 -125.5 -47t-57.5 -100q29 25 63 35.5t70 10.5q55 0 98.5 -18.5t73.5 -50.5t45.5 -74.5t15.5 -91.5q0 -55 -20.5 -102.5t-56 -83t-83 -55.5
t-102.5 -20zM305 130q47 0 79 29t32 87q0 21 -8 40.5t-22.5 34.5t-35 24t-45.5 9t-45.5 -9t-34.5 -24t-22 -34.5t-8 -40.5q0 -58 31.5 -87t78.5 -29z" />
    <glyph glyph-name="uni042F" unicode="&#x42f;" horiz-adv-x="653" 
d="M418 234h-41l-210 -234h-191l236 268q-57 29 -92.5 81.5t-35.5 122.5q0 51 17 95t48.5 75.5t76.5 49.5t101 18h251v-710h-160v234zM238 472q0 -42 25.5 -67.5t64.5 -25.5h90v186h-90q-39 0 -64.5 -25.5t-25.5 -67.5z" />
    <glyph glyph-name="uni042E" unicode="&#x42e;" horiz-adv-x="1080" 
d="M75 710h160v-281h102q12 64 43 118t76.5 93t104.5 60.5t126 21.5q76 0 141 -27.5t113 -76.5t75 -116.5t27 -146.5t-27 -146.5t-75 -116.5t-113 -76.5t-141 -27.5q-67 0 -126 21.5t-104.5 60t-76.5 92.5t-43 119h-102v-281h-160v710zM882 355q0 47 -14.5 86t-40 67.5
t-61.5 44t-79 15.5t-79 -15.5t-61.5 -44t-40 -67.5t-14.5 -86t14.5 -86t40 -67.5t61.5 -44t79 -15.5t79 15.5t61.5 44t40 67.5t14.5 86z" />
    <glyph glyph-name="uni042D" unicode="&#x42d;" horiz-adv-x="777" 
d="M367.978 -12q80.9951 0 149.491 28.5q68.4951 28.5 117.992 78t77.4951 116.5q27.999 67 27.999 144t-27.999 144q-27.998 67 -77.4951 116.5t-117.992 78q-68.4961 28.5 -149.491 28.5q-57.9961 0 -113.493 -18q-55.4961 -18 -101.994 -51q-46.4971 -33 -80.4941 -80.5
q-33.998 -47.5 -48.9971 -106.5h172.989q22.998 50 70.9951 76t100.994 26q77.9951 0 130.992 -40.5t71.9951 -103.5h-285.982v-140h285.982q-19.998 -63 -72.4951 -102.5t-130.492 -39.5q-52.9971 0 -100.994 26t-70.9951 76h-172.989q14.999 -59 48.9971 -106.5
q33.9971 -47.5 80.4941 -80.5q46.498 -33 101.994 -51q55.4971 -18 113.493 -18z" />
    <glyph glyph-name="uni042C" unicode="&#x42c;" horiz-adv-x="621" 
d="M349 462q52 0 96.5 -17t77 -48t51 -73t18.5 -93q0 -50 -18.5 -92.5t-51 -73t-77 -48t-96.5 -17.5h-274v710h160v-248h114zM347 147q39 0 64.5 20.5t25.5 63.5q0 42 -25.5 63t-64.5 21h-112v-168h112z" />
    <glyph glyph-name="uni042A" unicode="&#x42a;" horiz-adv-x="740" 
d="M468 462q52 0 96.5 -17t77 -48t51 -73t18.5 -93q0 -50 -18.5 -92.5t-51 -73t-77 -48t-96.5 -17.5h-274v558h-172v152h332v-248h114zM466 147q39 0 64.5 20.5t25.5 63.5q0 42 -25.5 63t-64.5 21h-112v-168h112z" />
    <glyph glyph-name="uni0432.aalt" horiz-adv-x="566" 
d="M278 -11q-54 0 -95.5 17.5t-70 48t-43 73.5t-14.5 94v300q0 54 13.5 97.5t41.5 74.5t69.5 48t98.5 17q51 0 91 -15.5t67.5 -43t42 -66.5t14.5 -85q0 -45 -15.5 -87.5t-44.5 -65.5q48 -23 74 -70.5t26 -107.5q0 -52 -16.5 -94.5t-48 -72.5t-76 -46t-99.5 -16h-15zM297 121
q45 0 65 30.5t20 76.5q0 50 -21 77t-65 27h-90v-107q0 -54 22.5 -79t63.5 -25h5zM206 454h71q36 0 54.5 22.5t18.5 63.5t-18.5 64t-53.5 23t-53.5 -23t-18.5 -64v-86z" />
    <glyph glyph-name="glyph599" 
d="M91 410q38 0 68.5 10.5t52.5 25.5v-138q-22 -15 -52.5 -25.5t-68.5 -10.5q-25 0 -48 5.5t-45.5 12.5t-44.5 12.5t-44 5.5q-38 0 -68.5 -10.5t-52.5 -25.5v138q22 15 52.5 25.5t68.5 10.5q31 0 54.5 -5.5t44 -12.5t40.5 -12.5t43 -5.5z" />
    <glyph glyph-name="uni04D9" unicode="&#x4d9;" horiz-adv-x="596" 
d="M299 511q58 0 106.5 -19.5t84 -54.5t55 -83t19.5 -105q0 -56 -20 -104t-55.5 -82.5t-84 -54t-105.5 -19.5q-54 0 -103.5 18.5t-86.5 55.5t-58 92.5t-19 129.5h385q-5 38 -35 67t-91 29q-33 0 -60 -13.5t-36 -33.5h-158q12 39 36.5 71.5t59 56t77 36.5t89.5 13zM303 109
q45 0 72.5 22.5t36.5 57.5h-214q6 -23 18 -38t26 -24.5t30 -13.5t31 -4z" />
    <glyph glyph-name="uni0451" unicode="&#x451;" horiz-adv-x="596" 
d="M297 -11q-58 0 -106.5 19.5t-84 54.5t-55 83t-19.5 105q0 56 20 104t55.5 82.5t84 54t105.5 19.5q54 0 103.5 -18.5t86.5 -55.5t58 -92.5t19 -129.5h-385q2 -19 10.5 -36.5t24 -30.5t38 -21t53.5 -8q33 0 60 13.5t36 33.5h158q-12 -39 -36.5 -71.5t-59 -56t-77 -36.5
t-89.5 -13zM293 391q-45 0 -72.5 -23t-37.5 -57h214q-6 22 -17.5 37.5t-26 25t-30 13.5t-30.5 4zM179 572q-17 0 -31.5 6.5t-25.5 17t-17.5 25t-6.5 30.5q0 34 23.5 57.5t57.5 23.5q16 0 30.5 -6.5t25 -17.5t17 -25.5t6.5 -31.5q0 -32 -23.5 -55.5t-55.5 -23.5zM416 572
q-33 0 -56.5 23.5t-23.5 55.5q0 34 23.5 57.5t56.5 23.5t56.5 -23.5t23.5 -57.5q0 -32 -23.5 -55.5t-56.5 -23.5z" />
    <glyph glyph-name="uni0463" unicode="&#x463;" horiz-adv-x="565" 
d="M16 500h95v250h151v-250h161v-96h-161v-44h88q51 0 86 -17.5t56.5 -44t31.5 -58t10 -58.5t-10 -59t-31.5 -59.5t-56.5 -45.5t-86 -18h-239v404h-95v96zM262 232v-104h69q29 0 45.5 13.5t16.5 39.5t-16.5 38.5t-45.5 12.5h-69z" />
    <glyph glyph-name="uni0462" unicode="&#x462;" horiz-adv-x="762" 
d="M483 442q52 0 96.5 -16.5t77 -45.5t51 -69.5t18.5 -89.5q0 -48 -18.5 -88.5t-51 -70t-77 -46t-96.5 -16.5h-274v511h-180v140h180v59h160v-59h216v-140h-216v-69h114zM481 147q39 0 64.5 18t25.5 56t-25.5 56t-64.5 18h-112v-148h112z" />
    <glyph glyph-name="uniF6D4" unicode="&#xf6d4;" 
d="M0 552q-37 0 -69.5 12.5t-56.5 36t-38 56t-14 73.5v20h96v-20q0 -46 24 -69t58 -23t58 23t24 69v20h96v-20q0 -41 -14 -73.5t-38 -56t-56.5 -36t-69.5 -12.5z" />
    <glyph glyph-name="uni043F.aalt" horiz-adv-x="602" 
d="M62 500h151v-51q18 26 54 44t85 18q46 0 82 -16.5t61 -45.5t38 -70t13 -90v-289h-151v263q0 52 -20 81.5t-61 29.5q-43 0 -72 -31.5t-29 -99.5v-243h-151v500z" />
    <glyph glyph-name="uni0433.aalt" horiz-adv-x="510" 
d="M246 -11q-47 0 -86.5 11t-68 31t-44.5 48.5t-16 63.5q0 60 32.5 98.5t108.5 58.5l91 24q9 2 18 5t16.5 7t12 10.5t4.5 16.5q0 15 -14 23.5t-37 8.5q-20 0 -36.5 -9t-21.5 -37h-152q3 40 20 70t45 50.5t64.5 31t77.5 10.5q49 0 88 -11.5t66 -31.5t41 -47.5t14 -60.5
q0 -56 -30 -98t-96 -59l-101 -26q-29 -8 -43 -16.5t-14 -25.5q0 -14 13.5 -23t42.5 -9q32 0 54.5 15t24.5 45h159q-2 -37 -19.5 -68.5t-48 -55t-72.5 -37t-93 -13.5z" />
    <glyph glyph-name="glyph608" 
d="M224 158h-448v140h448v-140z" />
    <glyph glyph-name="uni0448.aalt" horiz-adv-x="895" 
d="M207 241q0 -55 17 -85t55 -30q40 0 65 31t25 100v243h151v-259q0 -55 17 -85t55 -30q40 0 65 31t25 100v243h151v-500h-151v51q-20 -26 -51.5 -44t-76.5 -18q-54 0 -93 23t-62 65q-12 -23 -30 -40t-39 -27.5t-43 -15.5t-41 -5q-92 0 -141 60.5t-49 165.5v285h151v-259z
" />
    <glyph glyph-name="uni04D8" unicode="&#x4d8;" horiz-adv-x="805" 
d="M402 -12q-80 0 -147.5 29t-116 79t-76 116.5t-27.5 142.5v52h569q-23 80 -77.5 120.5t-125.5 40.5q-48 0 -90 -16.5t-68 -51.5h-184q18 52 54 93t82.5 69.5t100 44t106.5 15.5q75 0 142 -28t117 -77.5t79 -116.5t29 -145q0 -76 -27.5 -142.5t-76 -116.5t-116 -79
t-147.5 -29zM404 142q64 0 115.5 31.5t74.5 93.5h-382q27 -62 76.5 -93.5t115.5 -31.5z" />
    <glyph glyph-name="uni0413" unicode="&#x413;" horiz-adv-x="523" 
d="M500 558h-265v-558h-160v710h425v-152z" />
    <glyph glyph-name="uni041F" unicode="&#x41f;" horiz-adv-x="749" 
d="M514 558h-279v-558h-160v710h599v-710h-160v558z" />
    <glyph glyph-name="uni043D" unicode="&#x43d;" horiz-adv-x="614" 
d="M62 500h151v-184h188v184h151v-500h-151v185h-188v-185h-151v500z" />
    <glyph glyph-name="uni043B" unicode="&#x43b;" horiz-adv-x="617" 
d="M89 -11q-23 0 -39.5 1t-30.5 4v128q8 -1 17.5 -1.5t17.5 -0.5q29 0 45.5 16.5t16.5 67.5v296h439v-500h-151v369h-137v-181q0 -53 -15.5 -91t-40.5 -62t-57 -35t-65 -11z" />
    <glyph glyph-name="uni043C" unicode="&#x43c;" horiz-adv-x="694" 
d="M188 500l159 -197l159 197h126v-500h-151v269l-134 -165l-134 165v-269h-151v500h126z" />
    <glyph glyph-name="uni0438" unicode="&#x438;" horiz-adv-x="618" 
d="M62 0v500h151v-276l208 276h135v-500h-150v275l-209 -275h-135z" />
    <glyph glyph-name="uni0439" unicode="&#x439;" horiz-adv-x="618" 
d="M62 0v500h151v-276l208 276h135v-500h-150v275l-209 -275h-135zM318 552q-37 0 -69.5 12.5t-56.5 36t-38 56t-14 73.5v20h96v-20q0 -46 24 -69t58 -23t58 23t24 69v20h96v-20q0 -41 -14 -73.5t-38 -56t-56.5 -36t-69.5 -12.5z" />
    <glyph glyph-name="uni0434" unicode="&#x434;" horiz-adv-x="660" 
d="M41 131q32 0 51 27t19 93v249h439v-369h82v-253h-134v122h-336v-122h-134v253h13zM262 245q0 -44 -6 -69t-17 -45h160v238h-137v-124z" />
    <glyph glyph-name="uni0436" unicode="&#x436;" horiz-adv-x="836" 
d="M494 194v-194h-151v195l-171 -195h-185l224 254l-191 246h173l150 -197v197h151v-196l149 196h173l-191 -246l224 -254h-185z" />
    </font>
</defs>
</svg>
