<svg width="390" height="32" viewBox="0 0 390 32" fill="none" xmlns="http://www.w3.org/2000/svg">
<path d="M44.0091 26.2926V6.48836H51.1471C52.2001 6.48836 53.1822 6.5896 54.0935 6.7921C55.0249 6.9946 55.8349 7.33884 56.5234 7.82484C57.2119 8.29058 57.7587 8.91832 58.1637 9.70806C58.5686 10.4978 58.7711 11.4799 58.7711 12.6544C58.7711 14.1124 58.4471 15.3172 57.7992 16.269C57.1714 17.2005 56.3209 17.8991 55.2477 18.3648L59.7431 26.2926H54.7313L50.9345 19.1546H48.4742V26.2926H44.0091ZM48.4742 15.6007H50.7826C51.9571 15.6007 52.8481 15.3577 53.4556 14.8717C54.0833 14.3655 54.3972 13.6264 54.3972 12.6544C54.3972 11.6824 54.0833 11.004 53.4556 10.6193C52.8481 10.2346 51.9571 10.0422 50.7826 10.0422H48.4742V15.6007Z" fill="#1854FF"/>
<path d="M68.7193 26.6571C67.6461 26.6571 66.6437 26.485 65.7122 26.1407C64.7807 25.7762 63.9707 25.2598 63.2822 24.5916C62.5938 23.9031 62.0571 23.0729 61.6724 22.1009C61.2876 21.1289 61.0953 20.0152 61.0953 18.7597C61.0953 17.5447 61.2978 16.4512 61.7028 15.4792C62.1078 14.487 62.6343 13.6568 63.2822 12.9885C63.9505 12.3 64.7098 11.7735 65.5603 11.409C66.4108 11.0445 67.2917 10.8623 68.2029 10.8623C69.2762 10.8623 70.2076 11.0445 70.9974 11.409C71.8074 11.7735 72.4756 12.2798 73.0021 12.9278C73.5488 13.5758 73.9538 14.3452 74.2171 15.2362C74.4803 16.107 74.612 17.0587 74.612 18.0914C74.612 18.4964 74.5917 18.8812 74.5512 19.2457C74.5107 19.6102 74.4702 19.8835 74.4297 20.0658H65.4085C65.611 21.1593 66.0565 21.9693 66.7449 22.4958C67.4537 23.002 68.3143 23.2551 69.3268 23.2551C70.4 23.2551 71.4834 22.921 72.5769 22.2528L74.0652 24.9561C73.2957 25.4826 72.4351 25.8977 71.4834 26.2015C70.5519 26.5052 69.6305 26.6571 68.7193 26.6571ZM65.3781 17.1195H70.8151C70.8151 16.269 70.6228 15.5805 70.238 15.054C69.8533 14.5275 69.2053 14.2642 68.294 14.2642C67.5853 14.2642 66.9576 14.4971 66.4108 14.9629C65.8843 15.4286 65.5401 16.1475 65.3781 17.1195Z" fill="#1854FF"/>
<path d="M81.7979 26.6571C81.0284 26.6571 80.3804 26.5356 79.8539 26.2926C79.3275 26.0496 78.9022 25.7155 78.5782 25.2902C78.2745 24.8447 78.0517 24.3182 77.91 23.7107C77.7682 23.083 77.6973 22.3844 77.6973 21.6149V5H82.1624V21.7971C82.1624 22.2629 82.2434 22.5869 82.4054 22.7691C82.5877 22.9514 82.7699 23.0425 82.9522 23.0425C83.0534 23.0425 83.1344 23.0425 83.1951 23.0425C83.2761 23.0425 83.3774 23.0223 83.4989 22.9818L84.0456 26.2926C83.8026 26.3938 83.4888 26.4748 83.104 26.5356C82.7395 26.6166 82.3042 26.6571 81.7979 26.6571Z" fill="#1854FF"/>
<path d="M93.1317 26.6571C92.0584 26.6571 91.0561 26.485 90.1246 26.1407C89.1931 25.7762 88.3831 25.2598 87.6946 24.5916C87.0061 23.9031 86.4695 23.0729 86.0848 22.1009C85.7 21.1289 85.5077 20.0152 85.5077 18.7597C85.5077 17.5447 85.7102 16.4512 86.1151 15.4792C86.5201 14.487 87.0466 13.6568 87.6946 12.9885C88.3629 12.3 89.1222 11.7735 89.9727 11.409C90.8232 11.0445 91.7041 10.8623 92.6153 10.8623C93.6885 10.8623 94.62 11.0445 95.4098 11.409C96.2198 11.7735 96.888 12.2798 97.4145 12.9278C97.9612 13.5758 98.3662 14.3452 98.6295 15.2362C98.8927 16.107 99.0243 17.0587 99.0243 18.0914C99.0243 18.4964 99.0041 18.8812 98.9636 19.2457C98.9231 19.6102 98.8826 19.8835 98.8421 20.0658H89.8208C90.0233 21.1593 90.4688 21.9693 91.1573 22.4958C91.8661 23.002 92.7267 23.2551 93.7392 23.2551C94.8124 23.2551 95.8958 22.921 96.9892 22.2528L98.4776 24.9561C97.7081 25.4826 96.8475 25.8977 95.8958 26.2015C94.9643 26.5052 94.0429 26.6571 93.1317 26.6571ZM89.7905 17.1195H95.2275C95.2275 16.269 95.0351 15.5805 94.6504 15.054C94.2657 14.5275 93.6177 14.2642 92.7064 14.2642C91.9977 14.2642 91.3699 14.4971 90.8232 14.9629C90.2967 15.4286 89.9525 16.1475 89.7905 17.1195Z" fill="#1854FF"/>
<path d="M105.394 26.2926L100.322 11.2268H104.817L106.761 18.3344C106.964 19.0837 107.156 19.8532 107.338 20.6429C107.541 21.4124 107.743 22.192 107.946 22.9818H108.067C108.25 22.192 108.432 21.4124 108.614 20.6429C108.817 19.8532 109.019 19.0837 109.222 18.3344L111.196 11.2268H115.479L110.558 26.2926H105.394Z" fill="#1854FF"/>
<path d="M121.035 26.6571C120.346 26.6571 119.718 26.5356 119.151 26.2926C118.605 26.0698 118.139 25.756 117.754 25.351C117.369 24.9257 117.066 24.4397 116.843 23.893C116.64 23.3462 116.539 22.7489 116.539 22.1009C116.539 20.5214 117.207 19.2862 118.544 18.3952C119.88 17.5042 122.037 16.9068 125.014 16.6031C124.973 15.9348 124.771 15.4084 124.406 15.0236C124.062 14.6186 123.475 14.4161 122.644 14.4161C121.996 14.4161 121.348 14.5376 120.7 14.7806C120.073 15.0236 119.394 15.3577 118.665 15.783L117.055 12.8366C118.027 12.2494 119.04 11.7735 120.093 11.409C121.166 11.0445 122.3 10.8623 123.495 10.8623C125.439 10.8623 126.917 11.4192 127.93 12.5329C128.962 13.6264 129.479 15.3375 129.479 17.6662V26.2926H125.834L125.53 24.7435H125.408C124.76 25.3105 124.082 25.7762 123.373 26.1407C122.665 26.485 121.885 26.6571 121.035 26.6571ZM122.553 23.1944C123.059 23.1944 123.495 23.083 123.859 22.8603C124.224 22.6375 124.609 22.3236 125.014 21.9186V19.2761C123.434 19.4988 122.341 19.8228 121.733 20.248C121.126 20.6733 120.822 21.1795 120.822 21.7668C120.822 22.2528 120.974 22.6173 121.278 22.8603C121.602 23.083 122.027 23.1944 122.553 23.1944Z" fill="#1854FF"/>
<path d="M133.256 26.2926V11.2268H136.9L137.204 13.1404H137.326C137.974 12.5329 138.682 12.0064 139.452 11.5609C140.221 11.0952 141.123 10.8623 142.155 10.8623C143.796 10.8623 144.98 11.3989 145.709 12.4721C146.458 13.5454 146.833 15.0337 146.833 16.9372V26.2926H142.368V17.5143C142.368 16.4208 142.216 15.6716 141.912 15.2666C141.629 14.8616 141.163 14.6591 140.515 14.6591C139.948 14.6591 139.462 14.7907 139.057 15.054C138.652 15.297 138.207 15.6514 137.721 16.1171V26.2926H133.256Z" fill="#1854FF"/>
<path d="M157.199 26.6571C156.146 26.6571 155.164 26.485 154.252 26.1407C153.361 25.7762 152.582 25.2598 151.914 24.5916C151.245 23.9234 150.719 23.1033 150.334 22.1313C149.949 21.139 149.757 20.0152 149.757 18.7597C149.757 17.5042 149.97 16.3905 150.395 15.4185C150.82 14.4262 151.387 13.596 152.096 12.9278C152.825 12.2595 153.665 11.7533 154.617 11.409C155.569 11.0445 156.561 10.8623 157.594 10.8623C158.525 10.8623 159.345 11.0142 160.054 11.3179C160.783 11.6217 161.431 12.0064 161.998 12.4721L159.902 15.3577C159.193 14.7705 158.515 14.4769 157.867 14.4769C156.774 14.4769 155.913 14.8616 155.285 15.6311C154.657 16.4006 154.344 17.4435 154.344 18.7597C154.344 20.0759 154.657 21.1188 155.285 21.8883C155.933 22.6578 156.743 23.0425 157.715 23.0425C158.201 23.0425 158.667 22.9413 159.112 22.7388C159.578 22.516 160.014 22.2528 160.418 21.949L162.18 24.865C161.431 25.513 160.621 25.9787 159.75 26.2622C158.88 26.5255 158.029 26.6571 157.199 26.6571Z" fill="#1854FF"/>
<path d="M170.7 26.6571C169.626 26.6571 168.624 26.485 167.692 26.1407C166.761 25.7762 165.951 25.2598 165.263 24.5916C164.574 23.9031 164.037 23.0729 163.653 22.1009C163.268 21.1289 163.076 20.0152 163.076 18.7597C163.076 17.5447 163.278 16.4512 163.683 15.4792C164.088 14.487 164.615 13.6568 165.263 12.9885C165.931 12.3 166.69 11.7735 167.541 11.409C168.391 11.0445 169.272 10.8623 170.183 10.8623C171.256 10.8623 172.188 11.0445 172.978 11.409C173.788 11.7735 174.456 12.2798 174.982 12.9278C175.529 13.5758 175.934 14.3452 176.197 15.2362C176.461 16.107 176.592 17.0587 176.592 18.0914C176.592 18.4964 176.572 18.8812 176.531 19.2457C176.491 19.6102 176.45 19.8835 176.41 20.0658H167.389C167.591 21.1593 168.037 21.9693 168.725 22.4958C169.434 23.002 170.295 23.2551 171.307 23.2551C172.38 23.2551 173.464 22.921 174.557 22.2528L176.046 24.9561C175.276 25.4826 174.415 25.8977 173.464 26.2015C172.532 26.5052 171.611 26.6571 170.7 26.6571ZM167.358 17.1195H172.795C172.795 16.269 172.603 15.5805 172.218 15.054C171.834 14.5275 171.186 14.2642 170.274 14.2642C169.566 14.2642 168.938 14.4971 168.391 14.9629C167.865 15.4286 167.52 16.1475 167.358 17.1195Z" fill="#1854FF"/>
<path d="M190.77 16.269L190.284 18.0914H194.506L194.051 16.269C193.767 15.2767 193.494 14.2237 193.231 13.11C192.967 11.9963 192.704 10.923 192.441 9.89031H192.319C192.076 10.9433 191.823 12.0267 191.56 13.1404C191.317 14.2339 191.054 15.2767 190.77 16.269ZM183.602 26.2926L189.798 6.48836H195.175L201.371 26.2926H196.633L195.418 21.5845H189.373L188.158 26.2926H183.602Z" fill="#1854FF"/>
<path d="M203.535 26.2926V6.48836H208V26.2926H203.535Z" fill="#1854FF"/>
<path fill-rule="evenodd" clip-rule="evenodd" d="M8.63624 10.1916H7.45837C3.33923 10.1916 0 13.5308 0 17.6499V24.0428C0 28.162 3.33923 31.5012 7.45837 31.5012H13.8513C17.9704 31.5012 21.3096 28.162 21.3096 24.0428V23.566C14.2848 23.4424 8.62808 17.7092 8.62808 10.6548C8.62808 10.4997 8.63082 10.3453 8.63624 10.1916ZM10.8963 10.1916C10.8898 10.3452 10.8864 10.4996 10.8864 10.6548C10.8864 16.4619 15.5321 21.184 21.3096 21.3072V17.6499C21.3096 13.5308 17.9704 10.1916 13.8513 10.1916H10.8963Z" fill="#1854FF"/>
<path d="M32.1962 10.6548C32.1962 16.5393 27.4259 21.3096 21.5414 21.3096C15.6569 21.3096 10.8865 16.5393 10.8865 10.6548C10.8865 4.77033 15.6569 0 21.5414 0C27.4259 0 32.1962 4.77033 32.1962 10.6548Z" fill="#A9BEFD"/>
</svg>
