<svg width="336" height="133" viewBox="0 0 336 133" fill="none" xmlns="http://www.w3.org/2000/svg">
<path d="M0.422363 131.394V90.9288H15.0073C17.1588 90.9288 19.1655 91.1357 21.0274 91.5494C22.9307 91.9632 24.5857 92.6666 25.9925 93.6596C27.3993 94.6112 28.5164 95.8939 29.3439 97.5075C30.1714 99.1212 30.5852 101.128 30.5852 103.528C30.5852 106.507 29.9232 108.969 28.5992 110.913C27.3165 112.817 25.5787 114.244 23.3858 115.196L32.5712 131.394H22.3308L14.5728 116.809H9.54569V131.394H0.422363ZM9.54569 109.548H14.2625C16.6623 109.548 18.4828 109.051 19.7241 108.058C21.0067 107.024 21.6481 105.514 21.6481 103.528C21.6481 101.542 21.0067 100.156 19.7241 99.3694C18.4828 98.5833 16.6623 98.1902 14.2625 98.1902H9.54569V109.548Z" fill="#1854FF"/>
<path d="M50.9119 132.139C48.719 132.139 46.6709 131.787 44.7677 131.084C42.8644 130.339 41.2094 129.284 39.8026 127.919C38.3958 126.512 37.2994 124.815 36.5132 122.829C35.7271 120.843 35.334 118.568 35.334 116.002C35.334 113.52 35.7478 111.286 36.5753 109.3C37.4028 107.272 38.4786 105.576 39.8026 104.21C41.168 102.804 42.7196 101.728 44.4573 100.983C46.1951 100.238 47.995 99.8659 49.8569 99.8659C52.0498 99.8659 53.9531 100.238 55.5667 100.983C57.2217 101.728 58.5871 102.762 59.6629 104.086C60.78 105.41 61.6076 106.983 62.1454 108.803C62.6833 110.582 62.9523 112.527 62.9523 114.637C62.9523 115.465 62.9109 116.251 62.8281 116.995C62.7454 117.74 62.6626 118.299 62.5799 118.671H44.147C44.5608 120.905 45.4711 122.56 46.8778 123.636C48.326 124.671 50.0844 125.188 52.1532 125.188C54.3461 125.188 56.5597 124.505 58.794 123.14L61.8351 128.663C60.2628 129.739 58.5044 130.587 56.5597 131.208C54.6564 131.829 52.7738 132.139 50.9119 132.139ZM44.085 112.651H55.1943C55.1943 110.913 54.8013 109.506 54.0151 108.431C53.229 107.355 51.905 106.817 50.0431 106.817C48.5949 106.817 47.3123 107.293 46.1951 108.245C45.1194 109.196 44.416 110.665 44.085 112.651Z" fill="#1854FF"/>
<path d="M77.6351 132.139C76.0628 132.139 74.7388 131.891 73.663 131.394C72.5873 130.898 71.7184 130.215 71.0564 129.346C70.4357 128.436 69.9806 127.36 69.691 126.119C69.4014 124.836 69.2565 123.409 69.2565 121.836V87.8877H78.3799V122.209C78.3799 123.16 78.5454 123.822 78.8764 124.195C79.2488 124.567 79.6211 124.753 79.9935 124.753C80.2004 124.753 80.3659 124.753 80.49 124.753C80.6555 124.753 80.8624 124.712 81.1107 124.629L82.2278 131.394C81.7313 131.601 81.09 131.767 80.3038 131.891C79.5591 132.056 78.6695 132.139 77.6351 132.139Z" fill="#1854FF"/>
<path d="M100.793 132.139C98.6001 132.139 96.552 131.787 94.6487 131.084C92.7455 130.339 91.0904 129.284 89.6837 127.919C88.2769 126.512 87.1804 124.815 86.3943 122.829C85.6082 120.843 85.2151 118.568 85.2151 116.002C85.2151 113.52 85.6288 111.286 86.4564 109.3C87.2839 107.272 88.3596 105.576 89.6837 104.21C91.0491 102.804 92.6006 101.728 94.3384 100.983C96.0762 100.238 97.876 99.8659 99.7379 99.8659C101.931 99.8659 103.834 100.238 105.448 100.983C107.103 101.728 108.468 102.762 109.544 104.086C110.661 105.41 111.489 106.983 112.027 108.803C112.564 110.582 112.833 112.527 112.833 114.637C112.833 115.465 112.792 116.251 112.709 116.995C112.626 117.74 112.544 118.299 112.461 118.671H94.0281C94.4419 120.905 95.3521 122.56 96.7589 123.636C98.207 124.671 99.9655 125.188 102.034 125.188C104.227 125.188 106.441 124.505 108.675 123.14L111.716 128.663C110.144 129.739 108.385 130.587 106.441 131.208C104.538 131.829 102.655 132.139 100.793 132.139ZM93.966 112.651H105.075C105.075 110.913 104.682 109.506 103.896 108.431C103.11 107.355 101.786 106.817 99.9241 106.817C98.476 106.817 97.1933 107.293 96.0762 108.245C95.0004 109.196 94.297 110.665 93.966 112.651Z" fill="#1854FF"/>
<path d="M125.849 131.394L115.485 100.611H124.67L128.642 115.134C129.056 116.664 129.449 118.237 129.821 119.85C130.235 121.423 130.649 123.016 131.063 124.629H131.311C131.683 123.016 132.056 121.423 132.428 119.85C132.842 118.237 133.255 116.664 133.669 115.134L137.703 100.611H146.454L136.4 131.394H125.849Z" fill="#1854FF"/>
<path d="M157.806 132.139C156.399 132.139 155.117 131.891 153.958 131.394C152.841 130.939 151.889 130.298 151.103 129.47C150.317 128.601 149.696 127.608 149.241 126.491C148.828 125.374 148.621 124.153 148.621 122.829C148.621 119.602 149.986 117.078 152.717 115.258C155.448 113.437 159.854 112.217 165.936 111.596C165.854 110.231 165.44 109.155 164.695 108.369C163.992 107.541 162.792 107.127 161.095 107.127C159.771 107.127 158.447 107.376 157.123 107.872C155.841 108.369 154.455 109.051 152.965 109.92L149.676 103.9C151.662 102.7 153.731 101.728 155.882 100.983C158.075 100.238 160.392 99.8659 162.833 99.8659C166.805 99.8659 169.826 101.004 171.894 103.279C174.005 105.514 175.06 109.01 175.06 113.768V131.394H167.612L166.991 128.229H166.743C165.419 129.387 164.033 130.339 162.585 131.084C161.137 131.787 159.544 132.139 157.806 132.139ZM160.909 125.064C161.944 125.064 162.833 124.836 163.578 124.381C164.323 123.926 165.109 123.285 165.936 122.457V117.058C162.709 117.513 160.475 118.175 159.233 119.044C157.992 119.912 157.372 120.947 157.372 122.147C157.372 123.14 157.682 123.884 158.303 124.381C158.965 124.836 159.833 125.064 160.909 125.064Z" fill="#1854FF"/>
<path d="M182.777 131.394V100.611H190.225L190.845 104.521H191.093C192.417 103.279 193.866 102.204 195.438 101.293C197.01 100.342 198.851 99.8659 200.961 99.8659C204.313 99.8659 206.733 100.962 208.223 103.155C209.754 105.348 210.519 108.389 210.519 112.279V131.394H201.396V113.458C201.396 111.224 201.086 109.693 200.465 108.865C199.886 108.038 198.934 107.624 197.61 107.624C196.452 107.624 195.459 107.893 194.631 108.431C193.803 108.927 192.893 109.651 191.9 110.603V131.394H182.777Z" fill="#1854FF"/>
<path d="M231.699 132.139C229.548 132.139 227.541 131.787 225.679 131.084C223.859 130.339 222.266 129.284 220.9 127.919C219.535 126.553 218.459 124.878 217.673 122.891C216.887 120.864 216.494 118.568 216.494 116.002C216.494 113.437 216.928 111.161 217.797 109.175C218.666 107.148 219.825 105.452 221.273 104.086C222.762 102.721 224.479 101.686 226.424 100.983C228.369 100.238 230.396 99.8659 232.506 99.8659C234.409 99.8659 236.085 100.176 237.533 100.797C239.023 101.418 240.347 102.204 241.505 103.155L237.223 109.051C235.775 107.851 234.389 107.251 233.065 107.251C230.83 107.251 229.072 108.038 227.789 109.61C226.507 111.182 225.865 113.313 225.865 116.002C225.865 118.692 226.507 120.823 227.789 122.395C229.113 123.967 230.768 124.753 232.754 124.753C233.747 124.753 234.699 124.547 235.609 124.133C236.561 123.678 237.451 123.14 238.278 122.519L241.878 128.477C240.347 129.801 238.692 130.753 236.913 131.332C235.134 131.87 233.396 132.139 231.699 132.139Z" fill="#1854FF"/>
<path d="M259.285 132.139C257.092 132.139 255.044 131.787 253.141 131.084C251.238 130.339 249.583 129.284 248.176 127.919C246.769 126.512 245.673 124.815 244.886 122.829C244.1 120.843 243.707 118.568 243.707 116.002C243.707 113.52 244.121 111.286 244.948 109.3C245.776 107.272 246.852 105.576 248.176 104.21C249.541 102.804 251.093 101.728 252.831 100.983C254.568 100.238 256.368 99.8659 258.23 99.8659C260.423 99.8659 262.326 100.238 263.94 100.983C265.595 101.728 266.96 102.762 268.036 104.086C269.153 105.41 269.981 106.983 270.519 108.803C271.056 110.582 271.325 112.527 271.325 114.637C271.325 115.465 271.284 116.251 271.201 116.995C271.119 117.74 271.036 118.299 270.953 118.671H252.52C252.934 120.905 253.844 122.56 255.251 123.636C256.699 124.671 258.458 125.188 260.526 125.188C262.719 125.188 264.933 124.505 267.167 123.14L270.208 128.663C268.636 129.739 266.878 130.587 264.933 131.208C263.03 131.829 261.147 132.139 259.285 132.139ZM252.458 112.651H263.568C263.568 110.913 263.174 109.506 262.388 108.431C261.602 107.355 260.278 106.817 258.416 106.817C256.968 106.817 255.685 107.293 254.568 108.245C253.493 109.196 252.789 110.665 252.458 112.651Z" fill="#1854FF"/>
<path d="M300.295 110.913L299.302 114.637H307.929L306.998 110.913C306.419 108.886 305.86 106.734 305.322 104.459C304.784 102.183 304.246 99.9901 303.708 97.8799H303.46C302.964 100.031 302.447 102.245 301.909 104.521C301.412 106.755 300.874 108.886 300.295 110.913ZM285.648 131.394L298.309 90.9288H309.294L321.955 131.394H312.273L309.791 121.774H297.44L294.958 131.394H285.648Z" fill="#1854FF"/>
<path d="M326.377 131.394V90.9288H335.5V131.394H326.377Z" fill="#1854FF"/>
<path fill-rule="evenodd" clip-rule="evenodd" d="M140.646 20.8241H138.239C129.823 20.8241 123 27.647 123 36.0636V49.126C123 57.5425 129.823 64.3654 138.239 64.3654H151.302C159.718 64.3654 166.541 57.5425 166.541 49.126V48.1516C152.188 47.8991 140.629 36.1846 140.629 21.7706C140.629 21.4538 140.635 21.1382 140.646 20.8241ZM145.264 20.8241C145.251 21.1379 145.244 21.4535 145.244 21.7706C145.244 33.6361 154.736 43.2845 166.541 43.5363V36.0636C166.541 27.647 159.718 20.8241 151.302 20.8241H145.264Z" fill="#1854FF"/>
<path d="M188.785 21.7707C188.785 33.7943 179.038 43.5413 167.015 43.5413C154.991 43.5413 145.244 33.7943 145.244 21.7707C145.244 9.74706 154.991 0 167.015 0C179.038 0 188.785 9.74706 188.785 21.7707Z" fill="#A9BEFD"/>
<path fill-rule="evenodd" clip-rule="evenodd" d="M166.544 43.5363V36.0636C166.544 27.647 159.721 20.8241 151.304 20.8241H145.267C145.253 21.1379 145.246 21.4535 145.246 21.7706C145.246 33.6361 154.739 43.2845 166.544 43.5363Z" fill="#4B79FE"/>
</svg>
